<?xml version="1.0" encoding="UTF-8" standalone="no"?>
<!DOCTYPE svg PUBLIC "-//W3C//DTD SVG 1.1//EN"
 "http://www.w3.org/Graphics/SVG/1.1/DTD/svg11.dtd">
<!-- Generated by graphviz version 14.1.5 (20260411.2331)
 -->
<!-- Title: ArpResolver Pages: 1 -->
<svg width="190pt" height="280pt"
 viewBox="0.00 0.00 190.00 280.00" xmlns="http://www.w3.org/2000/svg" xmlns:xlink="http://www.w3.org/1999/xlink">
<g id="graph0" class="graph" transform="scale(1 1) rotate(0) translate(4 275.65)">
<title>ArpResolver</title>
<polygon fill="white" stroke="none" points="-4,4 -4,-275.65 186.38,-275.65 186.38,4 -4,4"/>
<!-- Entry -->
<g id="node1" class="node">
<title>Entry</title>
<ellipse fill="black" stroke="#00688b" cx="74.25" cy="-264.45" rx="7.2" ry="7.2"/>
</g>
<!-- Incomplete -->
<g id="node2" class="node">
<title>Incomplete</title>
<path fill="azure" stroke="none" d="M102.88,-220.25C102.88,-220.25 45.62,-220.25 45.62,-220.25 39.62,-220.25 33.62,-214.25 33.62,-208.25 33.62,-208.25 33.62,-142.75 33.62,-142.75 33.62,-136.75 39.62,-130.75 45.62,-130.75 45.62,-130.75 102.88,-130.75 102.88,-130.75 108.88,-130.75 114.88,-136.75 114.88,-142.75 114.88,-142.75 114.88,-208.25 114.88,-208.25 114.88,-214.25 108.88,-220.25 102.88,-220.25"/>
<text xml:space="preserve" text-anchor="start" x="41.62" y="-199.95" font-family="Times,serif" font-weight="bold" font-size="14.00">Incomplete</text>
<text xml:space="preserve" text-anchor="start" x="41.62" y="-174.75" font-family="Times,serif" font-size="10.00">$&gt;()</text>
<text xml:space="preserve" text-anchor="start" x="41.62" y="-163.5" font-family="Times,serif" font-size="10.00">reply()</text>
<text xml:space="preserve" text-anchor="start" x="41.62" y="-152.25" font-family="Times,serif" font-size="10.00">timeout()</text>
<text xml:space="preserve" text-anchor="start" x="46.88" y="-141" font-family="Times,serif" font-size="10.00"> &#160;&#160;&#160;&#160;&#160;&#160;&#160;&#160;&#160;&#160;&#160;</text>
<polygon fill="#00688b" stroke="#00688b" points="33.62,-189.75 33.62,-189.75 114.88,-189.75 114.88,-189.75 33.62,-189.75"/>
<path fill="none" stroke="#00688b" d="M45.62,-130.75C45.62,-130.75 102.88,-130.75 102.88,-130.75 108.88,-130.75 114.88,-136.75 114.88,-142.75 114.88,-142.75 114.88,-208.25 114.88,-208.25 114.88,-214.25 108.88,-220.25 102.88,-220.25 102.88,-220.25 45.62,-220.25 45.62,-220.25 39.62,-220.25 33.62,-214.25 33.62,-208.25 33.62,-208.25 33.62,-142.75 33.62,-142.75 33.62,-136.75 39.62,-130.75 45.62,-130.75"/>
</g>
<!-- Entry&#45;&gt;Incomplete -->
<g id="edge1" class="edge">
<title>Entry&#45;&gt;Incomplete</title>
<path fill="none" stroke="red" d="M74.25,-256.91C74.25,-251 74.25,-241.66 74.25,-231.41"/>
<polygon fill="red" stroke="red" points="77.75,-231.56 74.25,-221.56 70.75,-231.56 77.75,-231.56"/>
</g>
<!-- Incomplete&#45;&gt;Incomplete -->
<g id="edge4" class="edge">
<title>Incomplete&#45;&gt;Incomplete</title>
<path fill="none" stroke="red" d="M114.8,-187.22C125.12,-186.45 132.88,-182.54 132.88,-175.5 132.88,-171.32 130.14,-168.24 125.76,-166.27"/>
<polygon fill="red" stroke="red" points="126.8,-162.92 116.28,-164.12 125.25,-169.75 126.8,-162.92"/>
<text xml:space="preserve" text-anchor="middle" x="157.62" y="-170.45" font-family="Times,serif" font-size="14.00"> timeout </text>
</g>
<!-- Resolved -->
<g id="node3" class="node">
<title>Resolved</title>
<path fill="azure" stroke="none" d="M56.5,-72.62C56.5,-72.62 12,-72.62 12,-72.62 6,-72.62 0,-66.62 0,-60.62 0,-60.62 0,-17.62 0,-17.62 0,-11.62 6,-5.62 12,-5.62 12,-5.62 56.5,-5.62 56.5,-5.62 62.5,-5.62 68.5,-11.62 68.5,-17.62 68.5,-17.62 68.5,-60.62 68.5,-60.62 68.5,-66.62 62.5,-72.62 56.5,-72.62"/>
<text xml:space="preserve" text-anchor="start" x="8.38" y="-52.33" font-family="Times,serif" font-weight="bold" font-size="14.00">Resolved</text>
<text xml:space="preserve" text-anchor="start" x="8" y="-27.12" font-family="Times,serif" font-size="10.00">is_resolved()</text>
<text xml:space="preserve" text-anchor="start" x="20.75" y="-15.88" font-family="Times,serif" font-size="10.00"> &#160;&#160;&#160;&#160;&#160;&#160;&#160;&#160;&#160;&#160;&#160;</text>
<polygon fill="#00688b" stroke="#00688b" points="0,-42.12 0,-42.12 68.5,-42.12 68.5,-42.12 0,-42.12"/>
<path fill="none" stroke="#00688b" d="M12,-5.62C12,-5.62 56.5,-5.62 56.5,-5.62 62.5,-5.62 68.5,-11.62 68.5,-17.62 68.5,-17.62 68.5,-60.62 68.5,-60.62 68.5,-66.62 62.5,-72.62 56.5,-72.62 56.5,-72.62 12,-72.62 12,-72.62 6,-72.62 0,-66.62 0,-60.62 0,-60.62 0,-17.62 0,-17.62 0,-11.62 6,-5.62 12,-5.62"/>
</g>
<!-- Incomplete&#45;&gt;Resolved -->
<g id="edge2" class="edge">
<title>Incomplete&#45;&gt;Resolved</title>
<path fill="none" stroke="red" d="M61.26,-130.87C56.71,-115.58 51.6,-98.42 47.06,-83.18"/>
<polygon fill="red" stroke="red" points="50.52,-82.5 44.31,-73.92 43.81,-84.5 50.52,-82.5"/>
<text xml:space="preserve" text-anchor="middle" x="73.07" y="-99.45" font-family="Times,serif" font-size="14.00"> reply </text>
</g>
<!-- Failed -->
<g id="node4" class="node">
<title>Failed</title>
<path fill="azure" stroke="none" d="M131.88,-78.25C131.88,-78.25 98.62,-78.25 98.62,-78.25 92.62,-78.25 86.62,-72.25 86.62,-66.25 86.62,-66.25 86.62,-12 86.62,-12 86.62,-6 92.62,0 98.62,0 98.62,0 131.88,0 131.88,0 137.88,0 143.88,-6 143.88,-12 143.88,-12 143.88,-66.25 143.88,-66.25 143.88,-72.25 137.88,-78.25 131.88,-78.25"/>
<text xml:space="preserve" text-anchor="start" x="97.25" y="-57.95" font-family="Times,serif" font-weight="bold" font-size="14.00">Failed</text>
<text xml:space="preserve" text-anchor="start" x="94.62" y="-32.75" font-family="Times,serif" font-size="10.00">$&gt;()</text>
<text xml:space="preserve" text-anchor="start" x="94.62" y="-21.5" font-family="Times,serif" font-size="10.00">is_failed()</text>
<text xml:space="preserve" text-anchor="start" x="101.75" y="-10.25" font-family="Times,serif" font-size="10.00"> &#160;&#160;&#160;&#160;&#160;&#160;&#160;&#160;&#160;&#160;&#160;</text>
<polygon fill="#00688b" stroke="#00688b" points="86.62,-47.75 86.62,-47.75 143.88,-47.75 143.88,-47.75 86.62,-47.75"/>
<path fill="none" stroke="#00688b" d="M98.62,0C98.62,0 131.88,0 131.88,0 137.88,0 143.88,-6 143.88,-12 143.88,-12 143.88,-66.25 143.88,-66.25 143.88,-72.25 137.88,-78.25 131.88,-78.25 131.88,-78.25 98.62,-78.25 98.62,-78.25 92.62,-78.25 86.62,-72.25 86.62,-66.25 86.62,-66.25 86.62,-12 86.62,-12 86.62,-6 92.62,0 98.62,0"/>
</g>
<!-- Incomplete&#45;&gt;Failed -->
<g id="edge3" class="edge">
<title>Incomplete&#45;&gt;Failed</title>
<path fill="none" stroke="red" d="M87.66,-130.99C89.54,-124.87 91.45,-118.65 93.25,-112.75 95.58,-105.13 98.03,-97.05 100.43,-89.16"/>
<polygon fill="red" stroke="red" points="103.76,-90.24 103.31,-79.65 97.06,-88.21 103.76,-90.24"/>
<text xml:space="preserve" text-anchor="middle" x="122.84" y="-99.45" font-family="Times,serif" font-size="14.00"> timeout </text>
</g>
</g>
</svg>
