<?xml version="1.0" encoding="UTF-8" standalone="no"?>
<!DOCTYPE svg PUBLIC "-//W3C//DTD SVG 1.1//EN"
 "http://www.w3.org/Graphics/SVG/1.1/DTD/svg11.dtd">
<!-- Generated by graphviz version 2.43.0 (0)
 -->
<!-- Title: ArpResolver Pages: 1 -->
<svg width="235pt" height="273pt"
 viewBox="0.00 0.00 234.50 273.00" xmlns="http://www.w3.org/2000/svg" xmlns:xlink="http://www.w3.org/1999/xlink">
<g id="graph0" class="graph" transform="scale(1 1) rotate(0) translate(4 269)">
<title>ArpResolver</title>
<polygon fill="white" stroke="transparent" points="-4,4 -4,-269 230.5,-269 230.5,4 -4,4"/>
<!-- Entry -->
<g id="node1" class="node">
<title>Entry</title>
<ellipse fill="black" stroke="#00688b" cx="90.5" cy="-258" rx="7" ry="7"/>
</g>
<!-- Incomplete -->
<g id="node2" class="node">
<title>Incomplete</title>
<path fill="azure" stroke="transparent" d="M131.5,-214C131.5,-214 49.5,-214 49.5,-214 43.5,-214 37.5,-208 37.5,-202 37.5,-202 37.5,-139 37.5,-139 37.5,-133 43.5,-127 49.5,-127 49.5,-127 131.5,-127 131.5,-127 137.5,-127 143.5,-133 143.5,-139 143.5,-139 143.5,-202 143.5,-202 143.5,-208 137.5,-214 131.5,-214"/>
<text text-anchor="start" x="45.5" y="-195.3" font-family="Times,serif" font-weight="bold" font-size="14.00">Incomplete</text>
<text text-anchor="start" x="45.5" y="-170.5" font-family="Times,serif" font-size="10.00">$&gt;()</text>
<text text-anchor="start" x="45.5" y="-159.5" font-family="Times,serif" font-size="10.00">reply()</text>
<text text-anchor="start" x="45.5" y="-148.5" font-family="Times,serif" font-size="10.00">timeout()</text>
<text text-anchor="start" x="50.5" y="-137.5" font-family="Times,serif" font-size="10.00"> &#160;&#160;&#160;&#160;&#160;&#160;&#160;&#160;&#160;&#160;&#160;</text>
<polygon fill="#00688b" stroke="#00688b" points="37.5,-184.5 37.5,-184.5 143.5,-184.5 143.5,-184.5 37.5,-184.5"/>
<path fill="none" stroke="#00688b" d="M49.5,-127C49.5,-127 131.5,-127 131.5,-127 137.5,-127 143.5,-133 143.5,-139 143.5,-139 143.5,-202 143.5,-202 143.5,-208 137.5,-214 131.5,-214 131.5,-214 49.5,-214 49.5,-214 43.5,-214 37.5,-208 37.5,-202 37.5,-202 37.5,-139 37.5,-139 37.5,-133 43.5,-127 49.5,-127"/>
</g>
<!-- Entry&#45;&gt;Incomplete -->
<g id="edge1" class="edge">
<title>Entry&#45;&gt;Incomplete</title>
<path fill="none" stroke="red" d="M90.5,-250.85C90.5,-244.81 90.5,-234.96 90.5,-224.23"/>
<polygon fill="red" stroke="red" points="94,-224.2 90.5,-214.2 87,-224.2 94,-224.2"/>
</g>
<!-- Incomplete&#45;&gt;Incomplete -->
<g id="edge4" class="edge">
<title>Incomplete&#45;&gt;Incomplete</title>
<path fill="none" stroke="red" d="M143.76,-181.61C154.13,-180.32 161.5,-176.62 161.5,-170.5 161.5,-166.58 158.48,-163.66 153.58,-161.72"/>
<polygon fill="red" stroke="red" points="154.29,-158.29 143.76,-159.39 152.68,-165.1 154.29,-158.29"/>
<text text-anchor="middle" x="194" y="-166.8" font-family="Times,serif" font-size="14.00"> timeout </text>
</g>
<!-- Resolved -->
<g id="node3" class="node">
<title>Resolved</title>
<path fill="azure" stroke="transparent" d="M75,-70.5C75,-70.5 12,-70.5 12,-70.5 6,-70.5 0,-64.5 0,-58.5 0,-58.5 0,-17.5 0,-17.5 0,-11.5 6,-5.5 12,-5.5 12,-5.5 75,-5.5 75,-5.5 81,-5.5 87,-11.5 87,-17.5 87,-17.5 87,-58.5 87,-58.5 87,-64.5 81,-70.5 75,-70.5"/>
<text text-anchor="start" x="8.5" y="-51.8" font-family="Times,serif" font-weight="bold" font-size="14.00">Resolved</text>
<text text-anchor="start" x="8.5" y="-27" font-family="Times,serif" font-size="10.00">is_resolved()</text>
<text text-anchor="start" x="22.5" y="-16" font-family="Times,serif" font-size="10.00"> &#160;&#160;&#160;&#160;&#160;&#160;&#160;&#160;&#160;&#160;&#160;</text>
<polygon fill="#00688b" stroke="#00688b" points="0.5,-41 0.5,-41 87.5,-41 87.5,-41 0.5,-41"/>
<path fill="none" stroke="#00688b" d="M12,-5.5C12,-5.5 75,-5.5 75,-5.5 81,-5.5 87,-11.5 87,-17.5 87,-17.5 87,-58.5 87,-58.5 87,-64.5 81,-70.5 75,-70.5 75,-70.5 12,-70.5 12,-70.5 6,-70.5 0,-64.5 0,-58.5 0,-58.5 0,-17.5 0,-17.5 0,-11.5 6,-5.5 12,-5.5"/>
</g>
<!-- Incomplete&#45;&gt;Resolved -->
<g id="edge2" class="edge">
<title>Incomplete&#45;&gt;Resolved</title>
<path fill="none" stroke="red" d="M75.11,-126.77C69.71,-111.77 63.65,-94.96 58.3,-80.1"/>
<polygon fill="red" stroke="red" points="61.58,-78.87 54.9,-70.65 54.99,-81.24 61.58,-78.87"/>
<text text-anchor="middle" x="91.5" y="-97.8" font-family="Times,serif" font-size="14.00"> reply </text>
</g>
<!-- Failed -->
<g id="node4" class="node">
<title>Failed</title>
<path fill="azure" stroke="transparent" d="M159.5,-76C159.5,-76 117.5,-76 117.5,-76 111.5,-76 105.5,-70 105.5,-64 105.5,-64 105.5,-12 105.5,-12 105.5,-6 111.5,0 117.5,0 117.5,0 159.5,0 159.5,0 165.5,0 171.5,-6 171.5,-12 171.5,-12 171.5,-64 171.5,-64 171.5,-70 165.5,-76 159.5,-76"/>
<text text-anchor="start" x="114.5" y="-57.8" font-family="Times,serif" font-weight="bold" font-size="14.00">Failed</text>
<text text-anchor="start" x="113.5" y="-33" font-family="Times,serif" font-size="10.00">$&gt;()</text>
<text text-anchor="start" x="113.5" y="-22" font-family="Times,serif" font-size="10.00">is_failed()</text>
<text text-anchor="start" x="120" y="-11" font-family="Times,serif" font-size="10.00"> &#160;&#160;&#160;&#160;&#160;&#160;&#160;&#160;&#160;&#160;&#160;</text>
<polygon fill="#00688b" stroke="#00688b" points="105.5,-47 105.5,-47 171.5,-47 171.5,-47 105.5,-47"/>
<path fill="none" stroke="#00688b" d="M117.5,0C117.5,0 159.5,0 159.5,0 165.5,0 171.5,-6 171.5,-12 171.5,-12 171.5,-64 171.5,-64 171.5,-70 165.5,-76 159.5,-76 159.5,-76 117.5,-76 117.5,-76 111.5,-76 105.5,-70 105.5,-64 105.5,-64 105.5,-12 105.5,-12 105.5,-6 111.5,0 117.5,0"/>
</g>
<!-- Incomplete&#45;&gt;Failed -->
<g id="edge3" class="edge">
<title>Incomplete&#45;&gt;Failed</title>
<path fill="none" stroke="red" d="M109.51,-126.75C111.95,-120.83 114.35,-114.79 116.5,-109 119.24,-101.61 121.94,-93.7 124.46,-85.96"/>
<polygon fill="red" stroke="red" points="127.84,-86.88 127.55,-76.29 121.17,-84.76 127.84,-86.88"/>
<text text-anchor="middle" x="153" y="-97.8" font-family="Times,serif" font-size="14.00"> timeout </text>
</g>
</g>
</svg>
