<?xml version="1.0" encoding="UTF-8" standalone="no"?>
<!DOCTYPE svg PUBLIC "-//W3C//DTD SVG 1.1//EN"
 "http://www.w3.org/Graphics/SVG/1.1/DTD/svg11.dtd">
<!-- Generated by graphviz version 2.43.0 (0)
 -->
<!-- Title: BlockRequest Pages: 1 -->
<svg width="184pt" height="378pt"
 viewBox="0.00 0.00 183.50 378.00" xmlns="http://www.w3.org/2000/svg" xmlns:xlink="http://www.w3.org/1999/xlink">
<g id="graph0" class="graph" transform="scale(1 1) rotate(0) translate(4 374)">
<title>BlockRequest</title>
<polygon fill="white" stroke="transparent" points="-4,4 -4,-374 179.5,-374 179.5,4 -4,4"/>
<!-- Entry -->
<g id="node1" class="node">
<title>Entry</title>
<ellipse fill="black" stroke="#00688b" cx="95" cy="-363" rx="7" ry="7"/>
</g>
<!-- Queued -->
<g id="node2" class="node">
<title>Queued</title>
<path fill="azure" stroke="transparent" d="M121.5,-319C121.5,-319 68.5,-319 68.5,-319 62.5,-319 56.5,-313 56.5,-307 56.5,-307 56.5,-266 56.5,-266 56.5,-260 62.5,-254 68.5,-254 68.5,-254 121.5,-254 121.5,-254 127.5,-254 133.5,-260 133.5,-266 133.5,-266 133.5,-307 133.5,-307 133.5,-313 127.5,-319 121.5,-319"/>
<text text-anchor="start" x="65" y="-300.3" font-family="Times,serif" font-weight="bold" font-size="14.00">Queued</text>
<text text-anchor="start" x="65" y="-275.5" font-family="Times,serif" font-size="10.00">submit()</text>
<text text-anchor="start" x="68" y="-264.5" font-family="Times,serif" font-size="10.00"> &#160;&#160;&#160;&#160;&#160;&#160;&#160;&#160;&#160;&#160;&#160;</text>
<polygon fill="#00688b" stroke="#00688b" points="57,-289.5 57,-289.5 134,-289.5 134,-289.5 57,-289.5"/>
<path fill="none" stroke="#00688b" d="M68.5,-254C68.5,-254 121.5,-254 121.5,-254 127.5,-254 133.5,-260 133.5,-266 133.5,-266 133.5,-307 133.5,-307 133.5,-313 127.5,-319 121.5,-319 121.5,-319 68.5,-319 68.5,-319 62.5,-319 56.5,-313 56.5,-307 56.5,-307 56.5,-266 56.5,-266 56.5,-260 62.5,-254 68.5,-254"/>
</g>
<!-- Entry&#45;&gt;Queued -->
<g id="edge1" class="edge">
<title>Entry&#45;&gt;Queued</title>
<path fill="none" stroke="red" d="M95,-355.9C95,-349.79 95,-339.81 95,-329.34"/>
<polygon fill="red" stroke="red" points="98.5,-329.26 95,-319.26 91.5,-329.26 98.5,-329.26"/>
</g>
<!-- InFlight -->
<g id="node3" class="node">
<title>InFlight</title>
<path fill="azure" stroke="transparent" d="M123.5,-203C123.5,-203 66.5,-203 66.5,-203 60.5,-203 54.5,-197 54.5,-191 54.5,-191 54.5,-128 54.5,-128 54.5,-122 60.5,-116 66.5,-116 66.5,-116 123.5,-116 123.5,-116 129.5,-116 135.5,-122 135.5,-128 135.5,-128 135.5,-191 135.5,-191 135.5,-197 129.5,-203 123.5,-203"/>
<text text-anchor="start" x="63" y="-184.3" font-family="Times,serif" font-weight="bold" font-size="14.00">InFlight</text>
<text text-anchor="start" x="63" y="-159.5" font-family="Times,serif" font-size="10.00">complete()</text>
<text text-anchor="start" x="63" y="-148.5" font-family="Times,serif" font-size="10.00">fail()</text>
<text text-anchor="start" x="63" y="-137.5" font-family="Times,serif" font-size="10.00">is_inflight()</text>
<text text-anchor="start" x="73.5" y="-126.5" font-family="Times,serif" font-size="10.00"> &#160;&#160;&#160;&#160;&#160;&#160;&#160;&#160;&#160;&#160;&#160;</text>
<polygon fill="#00688b" stroke="#00688b" points="55,-173.5 55,-173.5 136,-173.5 136,-173.5 55,-173.5"/>
<path fill="none" stroke="#00688b" d="M66.5,-116C66.5,-116 123.5,-116 123.5,-116 129.5,-116 135.5,-122 135.5,-128 135.5,-128 135.5,-191 135.5,-191 135.5,-197 129.5,-203 123.5,-203 123.5,-203 66.5,-203 66.5,-203 60.5,-203 54.5,-197 54.5,-191 54.5,-191 54.5,-128 54.5,-128 54.5,-122 60.5,-116 66.5,-116"/>
</g>
<!-- Queued&#45;&gt;InFlight -->
<g id="edge2" class="edge">
<title>Queued&#45;&gt;InFlight</title>
<path fill="none" stroke="red" d="M95,-253.96C95,-241.74 95,-227.41 95,-213.69"/>
<polygon fill="red" stroke="red" points="98.5,-213.36 95,-203.36 91.5,-213.36 98.5,-213.36"/>
<text text-anchor="middle" x="124.5" y="-224.8" font-family="Times,serif" font-size="14.00"> submit </text>
</g>
<!-- Complete -->
<g id="node4" class="node">
<title>Complete</title>
<path fill="azure" stroke="transparent" d="M80,-65C80,-65 12,-65 12,-65 6,-65 0,-59 0,-53 0,-53 0,-12 0,-12 0,-6 6,0 12,0 12,0 80,0 80,0 86,0 92,-6 92,-12 92,-12 92,-53 92,-53 92,-59 86,-65 80,-65"/>
<text text-anchor="start" x="8" y="-46.3" font-family="Times,serif" font-weight="bold" font-size="14.00">Complete</text>
<text text-anchor="start" x="8" y="-21.5" font-family="Times,serif" font-size="10.00">is_complete()</text>
<text text-anchor="start" x="23.5" y="-10.5" font-family="Times,serif" font-size="10.00"> &#160;&#160;&#160;&#160;&#160;&#160;&#160;&#160;&#160;&#160;&#160;</text>
<polygon fill="#00688b" stroke="#00688b" points="0,-35.5 0,-35.5 92,-35.5 92,-35.5 0,-35.5"/>
<path fill="none" stroke="#00688b" d="M12,0C12,0 80,0 80,0 86,0 92,-6 92,-12 92,-12 92,-53 92,-53 92,-59 86,-65 80,-65 80,-65 12,-65 12,-65 6,-65 0,-59 0,-53 0,-53 0,-12 0,-12 0,-6 6,0 12,0"/>
</g>
<!-- InFlight&#45;&gt;Complete -->
<g id="edge3" class="edge">
<title>InFlight&#45;&gt;Complete</title>
<path fill="none" stroke="red" d="M55.94,-115.94C52.33,-110.22 49.21,-104.19 47,-98 44.43,-90.81 43.16,-82.88 42.68,-75.11"/>
<polygon fill="red" stroke="red" points="46.18,-74.99 42.45,-65.07 39.18,-75.14 46.18,-74.99"/>
<text text-anchor="middle" x="84.5" y="-86.8" font-family="Times,serif" font-size="14.00"> complete </text>
</g>
<!-- Error -->
<g id="node5" class="node">
<title>Error</title>
<path fill="azure" stroke="transparent" d="M163.5,-65C163.5,-65 124.5,-65 124.5,-65 118.5,-65 112.5,-59 112.5,-53 112.5,-53 112.5,-12 112.5,-12 112.5,-6 118.5,0 124.5,0 124.5,0 163.5,0 163.5,0 169.5,0 175.5,-6 175.5,-12 175.5,-12 175.5,-53 175.5,-53 175.5,-59 169.5,-65 163.5,-65"/>
<text text-anchor="start" x="123" y="-46.3" font-family="Times,serif" font-weight="bold" font-size="14.00">Error</text>
<text text-anchor="start" x="121" y="-21.5" font-family="Times,serif" font-size="10.00">is_error()</text>
<text text-anchor="start" x="126" y="-10.5" font-family="Times,serif" font-size="10.00"> &#160;&#160;&#160;&#160;&#160;&#160;&#160;&#160;&#160;&#160;&#160;</text>
<polygon fill="#00688b" stroke="#00688b" points="113,-35.5 113,-35.5 176,-35.5 176,-35.5 113,-35.5"/>
<path fill="none" stroke="#00688b" d="M124.5,0C124.5,0 163.5,0 163.5,0 169.5,0 175.5,-6 175.5,-12 175.5,-12 175.5,-53 175.5,-53 175.5,-59 169.5,-65 163.5,-65 163.5,-65 124.5,-65 124.5,-65 118.5,-65 112.5,-59 112.5,-53 112.5,-53 112.5,-12 112.5,-12 112.5,-6 118.5,0 124.5,0"/>
</g>
<!-- InFlight&#45;&gt;Error -->
<g id="edge4" class="edge">
<title>InFlight&#45;&gt;Error</title>
<path fill="none" stroke="red" d="M114.66,-115.74C117.22,-109.82 119.73,-103.78 122,-98 124.92,-90.57 127.83,-82.57 130.53,-74.82"/>
<polygon fill="red" stroke="red" points="133.9,-75.8 133.83,-65.2 127.27,-73.53 133.9,-75.8"/>
<text text-anchor="middle" x="143" y="-86.8" font-family="Times,serif" font-size="14.00"> fail </text>
</g>
</g>
</svg>
