<?xml version="1.0" encoding="UTF-8" standalone="no"?>
<!DOCTYPE svg PUBLIC "-//W3C//DTD SVG 1.1//EN"
 "http://www.w3.org/Graphics/SVG/1.1/DTD/svg11.dtd">
<!-- Generated by graphviz version 14.1.5 (20260411.2331)
 -->
<!-- Title: BlockRequest Pages: 1 -->
<svg width="152pt" height="388pt"
 viewBox="0.00 0.00 152.00 388.00" xmlns="http://www.w3.org/2000/svg" xmlns:xlink="http://www.w3.org/1999/xlink">
<g id="graph0" class="graph" transform="scale(1 1) rotate(0) translate(4 383.9)">
<title>BlockRequest</title>
<polygon fill="white" stroke="none" points="-4,4 -4,-383.9 148.12,-383.9 148.12,4 -4,4"/>
<!-- Entry -->
<g id="node1" class="node">
<title>Entry</title>
<ellipse fill="black" stroke="#00688b" cx="76.12" cy="-372.7" rx="7.2" ry="7.2"/>
</g>
<!-- Queued -->
<g id="node2" class="node">
<title>Queued</title>
<path fill="azure" stroke="none" d="M95,-328.5C95,-328.5 57.25,-328.5 57.25,-328.5 51.25,-328.5 45.25,-322.5 45.25,-316.5 45.25,-316.5 45.25,-273.5 45.25,-273.5 45.25,-267.5 51.25,-261.5 57.25,-261.5 57.25,-261.5 95,-261.5 95,-261.5 101,-261.5 107,-267.5 107,-273.5 107,-273.5 107,-316.5 107,-316.5 107,-322.5 101,-328.5 95,-328.5"/>
<text xml:space="preserve" text-anchor="start" x="53.25" y="-308.2" font-family="Times,serif" font-weight="bold" font-size="14.00">Queued</text>
<text xml:space="preserve" text-anchor="start" x="53.25" y="-283" font-family="Times,serif" font-size="10.00">submit()</text>
<text xml:space="preserve" text-anchor="start" x="56.62" y="-271.75" font-family="Times,serif" font-size="10.00"> &#160;&#160;&#160;&#160;&#160;&#160;&#160;&#160;&#160;&#160;&#160;</text>
<polygon fill="#00688b" stroke="#00688b" points="45.25,-298 45.25,-298 107,-298 107,-298 45.25,-298"/>
<path fill="none" stroke="#00688b" d="M57.25,-261.5C57.25,-261.5 95,-261.5 95,-261.5 101,-261.5 107,-267.5 107,-273.5 107,-273.5 107,-316.5 107,-316.5 107,-322.5 101,-328.5 95,-328.5 95,-328.5 57.25,-328.5 57.25,-328.5 51.25,-328.5 45.25,-322.5 45.25,-316.5 45.25,-316.5 45.25,-273.5 45.25,-273.5 45.25,-267.5 51.25,-261.5 57.25,-261.5"/>
</g>
<!-- Entry&#45;&gt;Queued -->
<g id="edge1" class="edge">
<title>Entry&#45;&gt;Queued</title>
<path fill="none" stroke="red" d="M76.12,-365.25C76.12,-359.27 76.12,-349.82 76.12,-339.8"/>
<polygon fill="red" stroke="red" points="79.63,-339.91 76.13,-329.91 72.63,-339.91 79.63,-339.91"/>
</g>
<!-- InFlight -->
<g id="node3" class="node">
<title>InFlight</title>
<path fill="azure" stroke="none" d="M96.5,-209C96.5,-209 55.75,-209 55.75,-209 49.75,-209 43.75,-203 43.75,-197 43.75,-197 43.75,-131.5 43.75,-131.5 43.75,-125.5 49.75,-119.5 55.75,-119.5 55.75,-119.5 96.5,-119.5 96.5,-119.5 102.5,-119.5 108.5,-125.5 108.5,-131.5 108.5,-131.5 108.5,-197 108.5,-197 108.5,-203 102.5,-209 96.5,-209"/>
<text xml:space="preserve" text-anchor="start" x="52.5" y="-188.7" font-family="Times,serif" font-weight="bold" font-size="14.00">InFlight</text>
<text xml:space="preserve" text-anchor="start" x="51.75" y="-163.5" font-family="Times,serif" font-size="10.00">complete()</text>
<text xml:space="preserve" text-anchor="start" x="51.75" y="-152.25" font-family="Times,serif" font-size="10.00">fail()</text>
<text xml:space="preserve" text-anchor="start" x="51.75" y="-141" font-family="Times,serif" font-size="10.00">is_inflight()</text>
<text xml:space="preserve" text-anchor="start" x="62.62" y="-129.75" font-family="Times,serif" font-size="10.00"> &#160;&#160;&#160;&#160;&#160;&#160;&#160;&#160;&#160;&#160;&#160;</text>
<polygon fill="#00688b" stroke="#00688b" points="43.75,-178.5 43.75,-178.5 108.5,-178.5 108.5,-178.5 43.75,-178.5"/>
<path fill="none" stroke="#00688b" d="M55.75,-119.5C55.75,-119.5 96.5,-119.5 96.5,-119.5 102.5,-119.5 108.5,-125.5 108.5,-131.5 108.5,-131.5 108.5,-197 108.5,-197 108.5,-203 102.5,-209 96.5,-209 96.5,-209 55.75,-209 55.75,-209 49.75,-209 43.75,-203 43.75,-197 43.75,-197 43.75,-131.5 43.75,-131.5 43.75,-125.5 49.75,-119.5 55.75,-119.5"/>
</g>
<!-- Queued&#45;&gt;InFlight -->
<g id="edge2" class="edge">
<title>Queued&#45;&gt;InFlight</title>
<path fill="none" stroke="red" d="M76.12,-261.51C76.12,-248.93 76.12,-234.18 76.12,-220.06"/>
<polygon fill="red" stroke="red" points="79.63,-220.43 76.13,-210.43 72.63,-220.43 79.63,-220.43"/>
<text xml:space="preserve" text-anchor="middle" x="98.62" y="-230.2" font-family="Times,serif" font-size="14.00"> submit </text>
</g>
<!-- Complete -->
<g id="node4" class="node">
<title>Complete</title>
<path fill="azure" stroke="none" d="M60.25,-67C60.25,-67 12,-67 12,-67 6,-67 0,-61 0,-55 0,-55 0,-12 0,-12 0,-6 6,0 12,0 12,0 60.25,0 60.25,0 66.25,0 72.25,-6 72.25,-12 72.25,-12 72.25,-55 72.25,-55 72.25,-61 66.25,-67 60.25,-67"/>
<text xml:space="preserve" text-anchor="start" x="8" y="-46.7" font-family="Times,serif" font-weight="bold" font-size="14.00">Complete</text>
<text xml:space="preserve" text-anchor="start" x="8" y="-21.5" font-family="Times,serif" font-size="10.00">is_complete()</text>
<text xml:space="preserve" text-anchor="start" x="22.25" y="-10.25" font-family="Times,serif" font-size="10.00"> &#160;&#160;&#160;&#160;&#160;&#160;&#160;&#160;&#160;&#160;&#160;</text>
<polygon fill="#00688b" stroke="#00688b" points="0,-36.5 0,-36.5 72.25,-36.5 72.25,-36.5 0,-36.5"/>
<path fill="none" stroke="#00688b" d="M12,0C12,0 60.25,0 60.25,0 66.25,0 72.25,-6 72.25,-12 72.25,-12 72.25,-55 72.25,-55 72.25,-61 66.25,-67 60.25,-67 60.25,-67 12,-67 12,-67 6,-67 0,-61 0,-55 0,-55 0,-12 0,-12 0,-6 6,0 12,0"/>
</g>
<!-- InFlight&#45;&gt;Complete -->
<g id="edge3" class="edge">
<title>InFlight&#45;&gt;Complete</title>
<path fill="none" stroke="red" d="M44.92,-119.78C41.86,-113.86 39.22,-107.69 37.38,-101.5 35.17,-94.08 34.02,-86 33.53,-78.09"/>
<polygon fill="red" stroke="red" points="37.04,-78.16 33.29,-68.25 30.04,-78.33 37.04,-78.16"/>
<text xml:space="preserve" text-anchor="middle" x="66.25" y="-88.2" font-family="Times,serif" font-size="14.00"> complete </text>
</g>
<!-- Error -->
<g id="node5" class="node">
<title>Error</title>
<path fill="azure" stroke="none" d="M132.12,-67C132.12,-67 102.12,-67 102.12,-67 96.12,-67 90.12,-61 90.12,-55 90.12,-55 90.12,-12 90.12,-12 90.12,-6 96.12,0 102.12,0 102.12,0 132.12,0 132.12,0 138.12,0 144.12,-6 144.12,-12 144.12,-12 144.12,-55 144.12,-55 144.12,-61 138.12,-67 132.12,-67"/>
<text xml:space="preserve" text-anchor="start" x="100.25" y="-46.7" font-family="Times,serif" font-weight="bold" font-size="14.00">Error</text>
<text xml:space="preserve" text-anchor="start" x="98.75" y="-21.5" font-family="Times,serif" font-size="10.00">is_error()</text>
<text xml:space="preserve" text-anchor="start" x="103.62" y="-10.25" font-family="Times,serif" font-size="10.00"> &#160;&#160;&#160;&#160;&#160;&#160;&#160;&#160;&#160;&#160;&#160;</text>
<polygon fill="#00688b" stroke="#00688b" points="90.75,-36.5 90.75,-36.5 143.5,-36.5 143.5,-36.5 90.75,-36.5"/>
<path fill="none" stroke="#00688b" d="M102.75,0C102.75,0 131.5,0 131.5,0 137.5,0 143.5,-6 143.5,-12 143.5,-12 143.5,-55 143.5,-55 143.5,-61 137.5,-67 131.5,-67 131.5,-67 102.75,-67 102.75,-67 96.75,-67 90.75,-61 90.75,-55 90.75,-55 90.75,-12 90.75,-12 90.75,-6 96.75,0 102.75,0"/>
</g>
<!-- InFlight&#45;&gt;Error -->
<g id="edge4" class="edge">
<title>InFlight&#45;&gt;Error</title>
<path fill="none" stroke="red" d="M90.01,-119.66C94.37,-105.96 99.18,-90.85 103.52,-77.21"/>
<polygon fill="red" stroke="red" points="106.73,-78.68 106.43,-68.09 100.06,-76.56 106.73,-78.68"/>
<text xml:space="preserve" text-anchor="middle" x="113.05" y="-88.2" font-family="Times,serif" font-size="14.00"> fail </text>
</g>
</g>
</svg>
