<?xml version="1.0" encoding="UTF-8" standalone="no"?>
<!DOCTYPE svg PUBLIC "-//W3C//DTD SVG 1.1//EN"
 "http://www.w3.org/Graphics/SVG/1.1/DTD/svg11.dtd">
<!-- Generated by graphviz version 2.43.0 (0)
 -->
<!-- Title: BuildDriver Pages: 1 -->
<svg width="181pt" height="588pt"
 viewBox="0.00 0.00 181.00 588.00" xmlns="http://www.w3.org/2000/svg" xmlns:xlink="http://www.w3.org/1999/xlink">
<g id="graph0" class="graph" transform="scale(1 1) rotate(0) translate(4 584)">
<title>BuildDriver</title>
<polygon fill="white" stroke="transparent" points="-4,4 -4,-584 177,-584 177,4 -4,4"/>
<!-- Entry -->
<g id="node1" class="node">
<title>Entry</title>
<ellipse fill="black" stroke="#00688b" cx="106" cy="-573" rx="7" ry="7"/>
</g>
<!-- Idle -->
<g id="node2" class="node">
<title>Idle</title>
<path fill="azure" stroke="transparent" d="M121,-529C121,-529 91,-529 91,-529 85,-529 79,-523 79,-517 79,-517 79,-476 79,-476 79,-470 85,-464 91,-464 91,-464 121,-464 121,-464 127,-464 133,-470 133,-476 133,-476 133,-517 133,-517 133,-523 127,-529 121,-529"/>
<text text-anchor="start" x="91" y="-510.3" font-family="Times,serif" font-weight="bold" font-size="14.00">Idle</text>
<text text-anchor="start" x="88" y="-485.5" font-family="Times,serif" font-size="10.00">start()</text>
<text text-anchor="start" x="88" y="-474.5" font-family="Times,serif" font-size="10.00"> &#160;&#160;&#160;&#160;&#160;&#160;&#160;&#160;&#160;&#160;&#160;</text>
<polygon fill="#00688b" stroke="#00688b" points="80,-499.5 80,-499.5 133,-499.5 133,-499.5 80,-499.5"/>
<path fill="none" stroke="#00688b" d="M91.5,-464C91.5,-464 120.5,-464 120.5,-464 126.5,-464 132.5,-470 132.5,-476 132.5,-476 132.5,-517 132.5,-517 132.5,-523 126.5,-529 120.5,-529 120.5,-529 91.5,-529 91.5,-529 85.5,-529 79.5,-523 79.5,-517 79.5,-517 79.5,-476 79.5,-476 79.5,-470 85.5,-464 91.5,-464"/>
</g>
<!-- Entry&#45;&gt;Idle -->
<g id="edge1" class="edge">
<title>Entry&#45;&gt;Idle</title>
<path fill="none" stroke="red" d="M106,-565.9C106,-559.79 106,-549.81 106,-539.34"/>
<polygon fill="red" stroke="red" points="109.5,-539.26 106,-529.26 102.5,-539.26 109.5,-539.26"/>
</g>
<!-- Compiling -->
<g id="node3" class="node">
<title>Compiling</title>
<path fill="azure" stroke="transparent" d="M143,-413C143,-413 69,-413 69,-413 63,-413 57,-407 57,-401 57,-401 57,-360 57,-360 57,-354 63,-348 69,-348 69,-348 143,-348 143,-348 149,-348 155,-354 155,-360 155,-360 155,-401 155,-401 155,-407 149,-413 143,-413"/>
<text text-anchor="start" x="65" y="-394.3" font-family="Times,serif" font-weight="bold" font-size="14.00">Compiling</text>
<text text-anchor="start" x="65" y="-369.5" font-family="Times,serif" font-size="10.00">$&gt;()</text>
<text text-anchor="start" x="65" y="-358.5" font-family="Times,serif" font-size="10.00"> &#160;&#160;&#160;&#160;&#160;&#160;&#160;&#160;&#160;&#160;&#160;</text>
<polygon fill="#00688b" stroke="#00688b" points="57,-383.5 57,-383.5 155,-383.5 155,-383.5 57,-383.5"/>
<path fill="none" stroke="#00688b" d="M69,-348C69,-348 143,-348 143,-348 149,-348 155,-354 155,-360 155,-360 155,-401 155,-401 155,-407 149,-413 143,-413 143,-413 69,-413 69,-413 63,-413 57,-407 57,-401 57,-401 57,-360 57,-360 57,-354 63,-348 69,-348"/>
</g>
<!-- Idle&#45;&gt;Compiling -->
<g id="edge2" class="edge">
<title>Idle&#45;&gt;Compiling</title>
<path fill="none" stroke="red" d="M106,-463.74C106,-451.27 106,-436.77 106,-423.45"/>
<polygon fill="red" stroke="red" points="109.5,-423.09 106,-413.09 102.5,-423.09 109.5,-423.09"/>
<text text-anchor="middle" x="128" y="-434.8" font-family="Times,serif" font-size="14.00"> start </text>
</g>
<!-- Linking -->
<g id="node4" class="node">
<title>Linking</title>
<path fill="azure" stroke="transparent" d="M94.5,-297C94.5,-297 41.5,-297 41.5,-297 35.5,-297 29.5,-291 29.5,-285 29.5,-285 29.5,-244 29.5,-244 29.5,-238 35.5,-232 41.5,-232 41.5,-232 94.5,-232 94.5,-232 100.5,-232 106.5,-238 106.5,-244 106.5,-244 106.5,-285 106.5,-285 106.5,-291 100.5,-297 94.5,-297"/>
<text text-anchor="start" x="38" y="-278.3" font-family="Times,serif" font-weight="bold" font-size="14.00">Linking</text>
<text text-anchor="start" x="38" y="-253.5" font-family="Times,serif" font-size="10.00">$&gt;()</text>
<text text-anchor="start" x="38" y="-242.5" font-family="Times,serif" font-size="10.00"> &#160;&#160;&#160;&#160;&#160;&#160;&#160;&#160;&#160;&#160;&#160;</text>
<polygon fill="#00688b" stroke="#00688b" points="30,-267.5 30,-267.5 107,-267.5 107,-267.5 30,-267.5"/>
<path fill="none" stroke="#00688b" d="M41.5,-232C41.5,-232 94.5,-232 94.5,-232 100.5,-232 106.5,-238 106.5,-244 106.5,-244 106.5,-285 106.5,-285 106.5,-291 100.5,-297 94.5,-297 94.5,-297 41.5,-297 41.5,-297 35.5,-297 29.5,-291 29.5,-285 29.5,-285 29.5,-244 29.5,-244 29.5,-238 35.5,-232 41.5,-232"/>
</g>
<!-- Compiling&#45;&gt;Linking -->
<g id="edge3" class="edge">
<title>Compiling&#45;&gt;Linking</title>
<path fill="none" stroke="red" d="M95.41,-347.74C91.17,-335.02 86.23,-320.19 81.72,-306.66"/>
<polygon fill="red" stroke="red" points="85.01,-305.47 78.53,-297.09 78.37,-307.68 85.01,-305.47"/>
<text text-anchor="middle" x="105.5" y="-318.8" font-family="Times,serif" font-size="14.00"> $&gt; </text>
</g>
<!-- Failed -->
<g id="node7" class="node">
<title>Failed</title>
<path fill="azure" stroke="transparent" d="M161,-181C161,-181 119,-181 119,-181 113,-181 107,-175 107,-169 107,-169 107,-128 107,-128 107,-122 113,-116 119,-116 119,-116 161,-116 161,-116 167,-116 173,-122 173,-128 173,-128 173,-169 173,-169 173,-175 167,-181 161,-181"/>
<text text-anchor="start" x="116" y="-162.3" font-family="Times,serif" font-weight="bold" font-size="14.00">Failed</text>
<text text-anchor="start" x="115" y="-137.5" font-family="Times,serif" font-size="10.00">is_failed()</text>
<text text-anchor="start" x="121.5" y="-126.5" font-family="Times,serif" font-size="10.00"> &#160;&#160;&#160;&#160;&#160;&#160;&#160;&#160;&#160;&#160;&#160;</text>
<polygon fill="#00688b" stroke="#00688b" points="107,-151.5 107,-151.5 173,-151.5 173,-151.5 107,-151.5"/>
<path fill="none" stroke="#00688b" d="M119,-116C119,-116 161,-116 161,-116 167,-116 173,-122 173,-128 173,-128 173,-169 173,-169 173,-175 167,-181 161,-181 161,-181 119,-181 119,-181 113,-181 107,-175 107,-169 107,-169 107,-128 107,-128 107,-122 113,-116 119,-116"/>
</g>
<!-- Compiling&#45;&gt;Failed -->
<g id="edge4" class="edge">
<title>Compiling&#45;&gt;Failed</title>
<path fill="none" stroke="red" d="M119.63,-347.96C121.73,-342.08 123.65,-335.92 125,-330 135.65,-283.41 138.94,-228.51 139.86,-191.6"/>
<polygon fill="red" stroke="red" points="143.36,-191.28 140.06,-181.22 136.37,-191.15 143.36,-191.28"/>
<text text-anchor="middle" x="154.5" y="-260.8" font-family="Times,serif" font-size="14.00"> $&gt; </text>
</g>
<!-- Running -->
<g id="node5" class="node">
<title>Running</title>
<path fill="azure" stroke="transparent" d="M74,-181C74,-181 12,-181 12,-181 6,-181 0,-175 0,-169 0,-169 0,-128 0,-128 0,-122 6,-116 12,-116 12,-116 74,-116 74,-116 80,-116 86,-122 86,-128 86,-128 86,-169 86,-169 86,-175 80,-181 74,-181"/>
<text text-anchor="start" x="8" y="-162.3" font-family="Times,serif" font-weight="bold" font-size="14.00">Running</text>
<text text-anchor="start" x="8" y="-137.5" font-family="Times,serif" font-size="10.00">$&gt;()</text>
<text text-anchor="start" x="8" y="-126.5" font-family="Times,serif" font-size="10.00"> &#160;&#160;&#160;&#160;&#160;&#160;&#160;&#160;&#160;&#160;&#160;</text>
<polygon fill="#00688b" stroke="#00688b" points="0,-151.5 0,-151.5 86,-151.5 86,-151.5 0,-151.5"/>
<path fill="none" stroke="#00688b" d="M12,-116C12,-116 74,-116 74,-116 80,-116 86,-122 86,-128 86,-128 86,-169 86,-169 86,-175 80,-181 74,-181 74,-181 12,-181 12,-181 6,-181 0,-175 0,-169 0,-169 0,-128 0,-128 0,-122 6,-116 12,-116"/>
</g>
<!-- Linking&#45;&gt;Running -->
<g id="edge5" class="edge">
<title>Linking&#45;&gt;Running</title>
<path fill="none" stroke="red" d="M50.14,-231.77C47.62,-226.01 45.41,-219.95 44,-214 42.27,-206.73 41.38,-198.88 41,-191.23"/>
<polygon fill="red" stroke="red" points="44.49,-190.93 40.77,-181.01 37.49,-191.08 44.49,-190.93"/>
<text text-anchor="middle" x="59.5" y="-202.8" font-family="Times,serif" font-size="14.00"> $&gt; </text>
</g>
<!-- Linking&#45;&gt;Failed -->
<g id="edge6" class="edge">
<title>Linking&#45;&gt;Failed</title>
<path fill="none" stroke="red" d="M80.72,-231.77C85.55,-221.03 91.47,-209.19 98,-199 100.13,-195.68 102.46,-192.34 104.9,-189.05"/>
<polygon fill="red" stroke="red" points="107.76,-191.06 111.13,-181.01 102.23,-186.77 107.76,-191.06"/>
<text text-anchor="middle" x="113.5" y="-202.8" font-family="Times,serif" font-size="14.00"> $&gt; </text>
</g>
<!-- Done -->
<g id="node6" class="node">
<title>Done</title>
<path fill="azure" stroke="transparent" d="M62.5,-65C62.5,-65 23.5,-65 23.5,-65 17.5,-65 11.5,-59 11.5,-53 11.5,-53 11.5,-12 11.5,-12 11.5,-6 17.5,0 23.5,0 23.5,0 62.5,0 62.5,0 68.5,0 74.5,-6 74.5,-12 74.5,-12 74.5,-53 74.5,-53 74.5,-59 68.5,-65 62.5,-65"/>
<text text-anchor="start" x="23" y="-46.3" font-family="Times,serif" font-weight="bold" font-size="14.00">Done</text>
<text text-anchor="start" x="20" y="-21.5" font-family="Times,serif" font-size="10.00">is_done()</text>
<text text-anchor="start" x="25" y="-10.5" font-family="Times,serif" font-size="10.00"> &#160;&#160;&#160;&#160;&#160;&#160;&#160;&#160;&#160;&#160;&#160;</text>
<polygon fill="#00688b" stroke="#00688b" points="12,-35.5 12,-35.5 75,-35.5 75,-35.5 12,-35.5"/>
<path fill="none" stroke="#00688b" d="M23.5,0C23.5,0 62.5,0 62.5,0 68.5,0 74.5,-6 74.5,-12 74.5,-12 74.5,-53 74.5,-53 74.5,-59 68.5,-65 62.5,-65 62.5,-65 23.5,-65 23.5,-65 17.5,-65 11.5,-59 11.5,-53 11.5,-53 11.5,-12 11.5,-12 11.5,-6 17.5,0 23.5,0"/>
</g>
<!-- Running&#45;&gt;Done -->
<g id="edge7" class="edge">
<title>Running&#45;&gt;Done</title>
<path fill="none" stroke="red" d="M43,-115.74C43,-103.27 43,-88.77 43,-75.45"/>
<polygon fill="red" stroke="red" points="46.5,-75.09 43,-65.09 39.5,-75.09 46.5,-75.09"/>
<text text-anchor="middle" x="58.5" y="-86.8" font-family="Times,serif" font-size="14.00"> $&gt; </text>
</g>
</g>
</svg>
