<?xml version="1.0" encoding="UTF-8" standalone="no"?>
<!DOCTYPE svg PUBLIC "-//W3C//DTD SVG 1.1//EN"
 "http://www.w3.org/Graphics/SVG/1.1/DTD/svg11.dtd">
<!-- Generated by graphviz version 2.43.0 (0)
 -->
<!-- Title: ElfLoader Pages: 1 -->
<svg width="308pt" height="599pt"
 viewBox="0.00 0.00 308.00 599.00" xmlns="http://www.w3.org/2000/svg" xmlns:xlink="http://www.w3.org/1999/xlink">
<g id="graph0" class="graph" transform="scale(1 1) rotate(0) translate(4 595)">
<title>ElfLoader</title>
<polygon fill="white" stroke="transparent" points="-4,4 -4,-595 304,-595 304,4 -4,4"/>
<!-- Entry -->
<g id="node1" class="node">
<title>Entry</title>
<ellipse fill="black" stroke="#00688b" cx="216" cy="-584" rx="7" ry="7"/>
</g>
<!-- ReadingHeader -->
<g id="node2" class="node">
<title>ReadingHeader</title>
<path fill="azure" stroke="transparent" d="M274,-540C274,-540 158,-540 158,-540 152,-540 146,-534 146,-528 146,-528 146,-487 146,-487 146,-481 152,-475 158,-475 158,-475 274,-475 274,-475 280,-475 286,-481 286,-487 286,-487 286,-528 286,-528 286,-534 280,-540 274,-540"/>
<text text-anchor="start" x="154" y="-521.3" font-family="Times,serif" font-weight="bold" font-size="14.00">ReadingHeader</text>
<text text-anchor="start" x="154" y="-496.5" font-family="Times,serif" font-size="10.00">$&gt;()</text>
<text text-anchor="start" x="154" y="-485.5" font-family="Times,serif" font-size="10.00"> &#160;&#160;&#160;&#160;&#160;&#160;&#160;&#160;&#160;&#160;&#160;</text>
<polygon fill="#00688b" stroke="#00688b" points="146,-510.5 146,-510.5 286,-510.5 286,-510.5 146,-510.5"/>
<path fill="none" stroke="#00688b" d="M158,-475C158,-475 274,-475 274,-475 280,-475 286,-481 286,-487 286,-487 286,-528 286,-528 286,-534 280,-540 274,-540 274,-540 158,-540 158,-540 152,-540 146,-534 146,-528 146,-528 146,-487 146,-487 146,-481 152,-475 158,-475"/>
</g>
<!-- Entry&#45;&gt;ReadingHeader -->
<g id="edge1" class="edge">
<title>Entry&#45;&gt;ReadingHeader</title>
<path fill="none" stroke="red" d="M216,-576.9C216,-570.79 216,-560.81 216,-550.34"/>
<polygon fill="red" stroke="red" points="219.5,-550.26 216,-540.26 212.5,-550.26 219.5,-550.26"/>
</g>
<!-- ValidatingHeader -->
<g id="node3" class="node">
<title>ValidatingHeader</title>
<path fill="azure" stroke="transparent" d="M228.5,-424C228.5,-424 97.5,-424 97.5,-424 91.5,-424 85.5,-418 85.5,-412 85.5,-412 85.5,-371 85.5,-371 85.5,-365 91.5,-359 97.5,-359 97.5,-359 228.5,-359 228.5,-359 234.5,-359 240.5,-365 240.5,-371 240.5,-371 240.5,-412 240.5,-412 240.5,-418 234.5,-424 228.5,-424"/>
<text text-anchor="start" x="94" y="-405.3" font-family="Times,serif" font-weight="bold" font-size="14.00">ValidatingHeader</text>
<text text-anchor="start" x="94" y="-380.5" font-family="Times,serif" font-size="10.00">$&gt;()</text>
<text text-anchor="start" x="94" y="-369.5" font-family="Times,serif" font-size="10.00"> &#160;&#160;&#160;&#160;&#160;&#160;&#160;&#160;&#160;&#160;&#160;</text>
<polygon fill="#00688b" stroke="#00688b" points="86,-394.5 86,-394.5 241,-394.5 241,-394.5 86,-394.5"/>
<path fill="none" stroke="#00688b" d="M97.5,-359C97.5,-359 228.5,-359 228.5,-359 234.5,-359 240.5,-365 240.5,-371 240.5,-371 240.5,-412 240.5,-412 240.5,-418 234.5,-424 228.5,-424 228.5,-424 97.5,-424 97.5,-424 91.5,-424 85.5,-418 85.5,-412 85.5,-412 85.5,-371 85.5,-371 85.5,-365 91.5,-359 97.5,-359"/>
</g>
<!-- ReadingHeader&#45;&gt;ValidatingHeader -->
<g id="edge2" class="edge">
<title>ReadingHeader&#45;&gt;ValidatingHeader</title>
<path fill="none" stroke="red" d="M201.24,-474.74C195.26,-461.9 188.29,-446.91 181.95,-433.27"/>
<polygon fill="red" stroke="red" points="185.07,-431.68 177.68,-424.09 178.73,-434.63 185.07,-431.68"/>
<text text-anchor="middle" x="208.5" y="-445.8" font-family="Times,serif" font-size="14.00"> $&gt; </text>
</g>
<!-- Failed -->
<g id="node7" class="node">
<title>Failed</title>
<path fill="azure" stroke="transparent" d="M214,-76C214,-76 172,-76 172,-76 166,-76 160,-70 160,-64 160,-64 160,-12 160,-12 160,-6 166,0 172,0 172,0 214,0 214,0 220,0 226,-6 226,-12 226,-12 226,-64 226,-64 226,-70 220,-76 214,-76"/>
<text text-anchor="start" x="169" y="-57.8" font-family="Times,serif" font-weight="bold" font-size="14.00">Failed</text>
<text text-anchor="start" x="168" y="-33" font-family="Times,serif" font-size="10.00">$&gt;()</text>
<text text-anchor="start" x="168" y="-22" font-family="Times,serif" font-size="10.00">is_failed()</text>
<text text-anchor="start" x="174.5" y="-11" font-family="Times,serif" font-size="10.00"> &#160;&#160;&#160;&#160;&#160;&#160;&#160;&#160;&#160;&#160;&#160;</text>
<polygon fill="#00688b" stroke="#00688b" points="160,-47 160,-47 226,-47 226,-47 160,-47"/>
<path fill="none" stroke="#00688b" d="M172,0C172,0 214,0 214,0 220,0 226,-6 226,-12 226,-12 226,-64 226,-64 226,-70 220,-76 214,-76 214,-76 172,-76 172,-76 166,-76 160,-70 160,-64 160,-64 160,-12 160,-12 160,-6 166,0 172,0"/>
</g>
<!-- ReadingHeader&#45;&gt;Failed -->
<g id="edge3" class="edge">
<title>ReadingHeader&#45;&gt;Failed</title>
<path fill="none" stroke="red" d="M239.71,-474.89C253.82,-452.95 269,-422.4 269,-392.5 269,-392.5 269,-392.5 269,-158.5 269,-128.06 251.23,-99.12 232.87,-77.34"/>
<polygon fill="red" stroke="red" points="235.34,-74.85 226.11,-69.65 230.09,-79.47 235.34,-74.85"/>
<text text-anchor="middle" x="284.5" y="-271.8" font-family="Times,serif" font-size="14.00"> $&gt; </text>
</g>
<!-- MappingSegments -->
<g id="node4" class="node">
<title>MappingSegments</title>
<path fill="azure" stroke="transparent" d="M183,-308C183,-308 43,-308 43,-308 37,-308 31,-302 31,-296 31,-296 31,-255 31,-255 31,-249 37,-243 43,-243 43,-243 183,-243 183,-243 189,-243 195,-249 195,-255 195,-255 195,-296 195,-296 195,-302 189,-308 183,-308"/>
<text text-anchor="start" x="39" y="-289.3" font-family="Times,serif" font-weight="bold" font-size="14.00">MappingSegments</text>
<text text-anchor="start" x="39" y="-264.5" font-family="Times,serif" font-size="10.00">$&gt;()</text>
<text text-anchor="start" x="39" y="-253.5" font-family="Times,serif" font-size="10.00"> &#160;&#160;&#160;&#160;&#160;&#160;&#160;&#160;&#160;&#160;&#160;</text>
<polygon fill="#00688b" stroke="#00688b" points="31,-278.5 31,-278.5 195,-278.5 195,-278.5 31,-278.5"/>
<path fill="none" stroke="#00688b" d="M43,-243C43,-243 183,-243 183,-243 189,-243 195,-249 195,-255 195,-255 195,-296 195,-296 195,-302 189,-308 183,-308 183,-308 43,-308 43,-308 37,-308 31,-302 31,-296 31,-296 31,-255 31,-255 31,-249 37,-243 43,-243"/>
</g>
<!-- ValidatingHeader&#45;&gt;MappingSegments -->
<g id="edge4" class="edge">
<title>ValidatingHeader&#45;&gt;MappingSegments</title>
<path fill="none" stroke="red" d="M149.07,-358.74C143.44,-345.9 136.86,-330.91 130.88,-317.27"/>
<polygon fill="red" stroke="red" points="134.08,-315.84 126.85,-308.09 127.66,-318.65 134.08,-315.84"/>
<text text-anchor="middle" x="156.5" y="-329.8" font-family="Times,serif" font-size="14.00"> $&gt; </text>
</g>
<!-- ValidatingHeader&#45;&gt;Failed -->
<g id="edge5" class="edge">
<title>ValidatingHeader&#45;&gt;Failed</title>
<path fill="none" stroke="red" d="M183,-358.89C191.25,-344.05 199.83,-325.75 204,-308 221.87,-231.91 211.7,-140.45 202.5,-86.16"/>
<polygon fill="red" stroke="red" points="205.91,-85.39 200.74,-76.14 199.02,-86.6 205.91,-85.39"/>
<text text-anchor="middle" x="229.5" y="-213.8" font-family="Times,serif" font-size="14.00"> $&gt; </text>
</g>
<!-- BuildingStack -->
<g id="node5" class="node">
<title>BuildingStack</title>
<path fill="azure" stroke="transparent" d="M116,-192C116,-192 12,-192 12,-192 6,-192 0,-186 0,-180 0,-180 0,-139 0,-139 0,-133 6,-127 12,-127 12,-127 116,-127 116,-127 122,-127 128,-133 128,-139 128,-139 128,-180 128,-180 128,-186 122,-192 116,-192"/>
<text text-anchor="start" x="8" y="-173.3" font-family="Times,serif" font-weight="bold" font-size="14.00">BuildingStack</text>
<text text-anchor="start" x="8" y="-148.5" font-family="Times,serif" font-size="10.00">$&gt;()</text>
<text text-anchor="start" x="8" y="-137.5" font-family="Times,serif" font-size="10.00"> &#160;&#160;&#160;&#160;&#160;&#160;&#160;&#160;&#160;&#160;&#160;</text>
<polygon fill="#00688b" stroke="#00688b" points="0,-162.5 0,-162.5 128,-162.5 128,-162.5 0,-162.5"/>
<path fill="none" stroke="#00688b" d="M12,-127C12,-127 116,-127 116,-127 122,-127 128,-133 128,-139 128,-139 128,-180 128,-180 128,-186 122,-192 116,-192 116,-192 12,-192 12,-192 6,-192 0,-186 0,-180 0,-180 0,-139 0,-139 0,-133 6,-127 12,-127"/>
</g>
<!-- MappingSegments&#45;&gt;BuildingStack -->
<g id="edge6" class="edge">
<title>MappingSegments&#45;&gt;BuildingStack</title>
<path fill="none" stroke="red" d="M99.35,-242.74C93.88,-230.02 87.51,-215.19 81.69,-201.66"/>
<polygon fill="red" stroke="red" points="84.74,-199.89 77.58,-192.09 78.31,-202.65 84.74,-199.89"/>
<text text-anchor="middle" x="107.5" y="-213.8" font-family="Times,serif" font-size="14.00"> $&gt; </text>
</g>
<!-- MappingSegments&#45;&gt;Failed -->
<g id="edge7" class="edge">
<title>MappingSegments&#45;&gt;Failed</title>
<path fill="none" stroke="red" d="M123.79,-242.74C137.53,-202.3 161.37,-132.11 177.17,-85.61"/>
<polygon fill="red" stroke="red" points="180.51,-86.66 180.41,-76.06 173.88,-84.4 180.51,-86.66"/>
<text text-anchor="middle" x="178.5" y="-155.8" font-family="Times,serif" font-size="14.00"> $&gt; </text>
</g>
<!-- Done -->
<g id="node6" class="node">
<title>Done</title>
<path fill="azure" stroke="transparent" d="M83.5,-70.5C83.5,-70.5 44.5,-70.5 44.5,-70.5 38.5,-70.5 32.5,-64.5 32.5,-58.5 32.5,-58.5 32.5,-17.5 32.5,-17.5 32.5,-11.5 38.5,-5.5 44.5,-5.5 44.5,-5.5 83.5,-5.5 83.5,-5.5 89.5,-5.5 95.5,-11.5 95.5,-17.5 95.5,-17.5 95.5,-58.5 95.5,-58.5 95.5,-64.5 89.5,-70.5 83.5,-70.5"/>
<text text-anchor="start" x="44" y="-51.8" font-family="Times,serif" font-weight="bold" font-size="14.00">Done</text>
<text text-anchor="start" x="41" y="-27" font-family="Times,serif" font-size="10.00">is_done()</text>
<text text-anchor="start" x="46" y="-16" font-family="Times,serif" font-size="10.00"> &#160;&#160;&#160;&#160;&#160;&#160;&#160;&#160;&#160;&#160;&#160;</text>
<polygon fill="#00688b" stroke="#00688b" points="33,-41 33,-41 96,-41 96,-41 33,-41"/>
<path fill="none" stroke="#00688b" d="M44.5,-5.5C44.5,-5.5 83.5,-5.5 83.5,-5.5 89.5,-5.5 95.5,-11.5 95.5,-17.5 95.5,-17.5 95.5,-58.5 95.5,-58.5 95.5,-64.5 89.5,-70.5 83.5,-70.5 83.5,-70.5 44.5,-70.5 44.5,-70.5 38.5,-70.5 32.5,-64.5 32.5,-58.5 32.5,-58.5 32.5,-17.5 32.5,-17.5 32.5,-11.5 38.5,-5.5 44.5,-5.5"/>
</g>
<!-- BuildingStack&#45;&gt;Done -->
<g id="edge8" class="edge">
<title>BuildingStack&#45;&gt;Done</title>
<path fill="none" stroke="red" d="M64,-126.79C64,-112.74 64,-96.03 64,-80.97"/>
<polygon fill="red" stroke="red" points="67.5,-80.86 64,-70.86 60.5,-80.86 67.5,-80.86"/>
<text text-anchor="middle" x="79.5" y="-97.8" font-family="Times,serif" font-size="14.00"> $&gt; </text>
</g>
<!-- BuildingStack&#45;&gt;Failed -->
<g id="edge9" class="edge">
<title>BuildingStack&#45;&gt;Failed</title>
<path fill="none" stroke="red" d="M88.68,-126.71C97.72,-115.85 108.36,-103.95 119,-94 128.97,-84.68 140.51,-75.46 151.46,-67.32"/>
<polygon fill="red" stroke="red" points="153.67,-70.04 159.69,-61.32 149.55,-64.38 153.67,-70.04"/>
<text text-anchor="middle" x="134.5" y="-97.8" font-family="Times,serif" font-size="14.00"> $&gt; </text>
</g>
</g>
</svg>
