<?xml version="1.0" encoding="UTF-8" standalone="no"?>
<!DOCTYPE svg PUBLIC "-//W3C//DTD SVG 1.1//EN"
 "http://www.w3.org/Graphics/SVG/1.1/DTD/svg11.dtd">
<!-- Generated by graphviz version 14.1.5 (20260411.2331)
 -->
<!-- Title: ElfLoader Pages: 1 -->
<svg width="261pt" height="616pt"
 viewBox="0.00 0.00 261.00 616.00" xmlns="http://www.w3.org/2000/svg" xmlns:xlink="http://www.w3.org/1999/xlink">
<g id="graph0" class="graph" transform="scale(1 1) rotate(0) translate(4 611.65)">
<title>ElfLoader</title>
<polygon fill="white" stroke="none" points="-4,4 -4,-611.65 257.38,-611.65 257.38,4 -4,4"/>
<!-- Entry -->
<g id="node1" class="node">
<title>Entry</title>
<ellipse fill="black" stroke="#00688b" cx="186.88" cy="-600.45" rx="7.2" ry="7.2"/>
</g>
<!-- ReadingHeader -->
<g id="node2" class="node">
<title>ReadingHeader</title>
<path fill="azure" stroke="none" d="M228.62,-556.25C228.62,-556.25 145.12,-556.25 145.12,-556.25 139.12,-556.25 133.12,-550.25 133.12,-544.25 133.12,-544.25 133.12,-501.25 133.12,-501.25 133.12,-495.25 139.12,-489.25 145.12,-489.25 145.12,-489.25 228.62,-489.25 228.62,-489.25 234.62,-489.25 240.62,-495.25 240.62,-501.25 240.62,-501.25 240.62,-544.25 240.62,-544.25 240.62,-550.25 234.62,-556.25 228.62,-556.25"/>
<text xml:space="preserve" text-anchor="start" x="141.12" y="-535.95" font-family="Times,serif" font-weight="bold" font-size="14.00">ReadingHeader</text>
<text xml:space="preserve" text-anchor="start" x="141.12" y="-510.75" font-family="Times,serif" font-size="10.00">$&gt;()</text>
<text xml:space="preserve" text-anchor="start" x="141.12" y="-499.5" font-family="Times,serif" font-size="10.00"> &#160;&#160;&#160;&#160;&#160;&#160;&#160;&#160;&#160;&#160;&#160;</text>
<polygon fill="#00688b" stroke="#00688b" points="133.12,-525.75 133.12,-525.75 240.62,-525.75 240.62,-525.75 133.12,-525.75"/>
<path fill="none" stroke="#00688b" d="M145.12,-489.25C145.12,-489.25 228.62,-489.25 228.62,-489.25 234.62,-489.25 240.62,-495.25 240.62,-501.25 240.62,-501.25 240.62,-544.25 240.62,-544.25 240.62,-550.25 234.62,-556.25 228.62,-556.25 228.62,-556.25 145.12,-556.25 145.12,-556.25 139.12,-556.25 133.12,-550.25 133.12,-544.25 133.12,-544.25 133.12,-501.25 133.12,-501.25 133.12,-495.25 139.12,-489.25 145.12,-489.25"/>
</g>
<!-- Entry&#45;&gt;ReadingHeader -->
<g id="edge1" class="edge">
<title>Entry&#45;&gt;ReadingHeader</title>
<path fill="none" stroke="red" d="M186.88,-593C186.88,-587.02 186.88,-577.57 186.88,-567.55"/>
<polygon fill="red" stroke="red" points="190.38,-567.66 186.88,-557.66 183.38,-567.66 190.38,-567.66"/>
</g>
<!-- ValidatingHeader -->
<g id="node3" class="node">
<title>ValidatingHeader</title>
<path fill="azure" stroke="none" d="M190.62,-436.75C190.62,-436.75 95.12,-436.75 95.12,-436.75 89.12,-436.75 83.12,-430.75 83.12,-424.75 83.12,-424.75 83.12,-381.75 83.12,-381.75 83.12,-375.75 89.12,-369.75 95.12,-369.75 95.12,-369.75 190.62,-369.75 190.62,-369.75 196.62,-369.75 202.62,-375.75 202.62,-381.75 202.62,-381.75 202.62,-424.75 202.62,-424.75 202.62,-430.75 196.62,-436.75 190.62,-436.75"/>
<text xml:space="preserve" text-anchor="start" x="91.12" y="-416.45" font-family="Times,serif" font-weight="bold" font-size="14.00">ValidatingHeader</text>
<text xml:space="preserve" text-anchor="start" x="91.12" y="-391.25" font-family="Times,serif" font-size="10.00">$&gt;()</text>
<text xml:space="preserve" text-anchor="start" x="91.12" y="-380" font-family="Times,serif" font-size="10.00"> &#160;&#160;&#160;&#160;&#160;&#160;&#160;&#160;&#160;&#160;&#160;</text>
<polygon fill="#00688b" stroke="#00688b" points="83.12,-406.25 83.12,-406.25 202.62,-406.25 202.62,-406.25 83.12,-406.25"/>
<path fill="none" stroke="#00688b" d="M95.12,-369.75C95.12,-369.75 190.62,-369.75 190.62,-369.75 196.62,-369.75 202.62,-375.75 202.62,-381.75 202.62,-381.75 202.62,-424.75 202.62,-424.75 202.62,-430.75 196.62,-436.75 190.62,-436.75 190.62,-436.75 95.12,-436.75 95.12,-436.75 89.12,-436.75 83.12,-430.75 83.12,-424.75 83.12,-424.75 83.12,-381.75 83.12,-381.75 83.12,-375.75 89.12,-369.75 95.12,-369.75"/>
</g>
<!-- ReadingHeader&#45;&gt;ValidatingHeader -->
<g id="edge2" class="edge">
<title>ReadingHeader&#45;&gt;ValidatingHeader</title>
<path fill="none" stroke="red" d="M174.74,-489.33C169.83,-476.23 164.1,-460.93 158.86,-446.94"/>
<polygon fill="red" stroke="red" points="162.29,-446.12 155.51,-437.98 155.74,-448.57 162.29,-446.12"/>
<text xml:space="preserve" text-anchor="middle" x="178.76" y="-457.95" font-family="Times,serif" font-size="14.00"> $&gt; </text>
</g>
<!-- Failed -->
<g id="node7" class="node">
<title>Failed</title>
<path fill="azure" stroke="none" d="M175.5,-78.25C175.5,-78.25 142.25,-78.25 142.25,-78.25 136.25,-78.25 130.25,-72.25 130.25,-66.25 130.25,-66.25 130.25,-12 130.25,-12 130.25,-6 136.25,0 142.25,0 142.25,0 175.5,0 175.5,0 181.5,0 187.5,-6 187.5,-12 187.5,-12 187.5,-66.25 187.5,-66.25 187.5,-72.25 181.5,-78.25 175.5,-78.25"/>
<text xml:space="preserve" text-anchor="start" x="140.88" y="-57.95" font-family="Times,serif" font-weight="bold" font-size="14.00">Failed</text>
<text xml:space="preserve" text-anchor="start" x="138.25" y="-32.75" font-family="Times,serif" font-size="10.00">$&gt;()</text>
<text xml:space="preserve" text-anchor="start" x="138.25" y="-21.5" font-family="Times,serif" font-size="10.00">is_failed()</text>
<text xml:space="preserve" text-anchor="start" x="145.38" y="-10.25" font-family="Times,serif" font-size="10.00"> &#160;&#160;&#160;&#160;&#160;&#160;&#160;&#160;&#160;&#160;&#160;</text>
<polygon fill="#00688b" stroke="#00688b" points="130.25,-47.75 130.25,-47.75 187.5,-47.75 187.5,-47.75 130.25,-47.75"/>
<path fill="none" stroke="#00688b" d="M142.25,0C142.25,0 175.5,0 175.5,0 181.5,0 187.5,-6 187.5,-12 187.5,-12 187.5,-66.25 187.5,-66.25 187.5,-72.25 181.5,-78.25 175.5,-78.25 175.5,-78.25 142.25,-78.25 142.25,-78.25 136.25,-78.25 130.25,-72.25 130.25,-66.25 130.25,-66.25 130.25,-12 130.25,-12 130.25,-6 136.25,0 142.25,0"/>
</g>
<!-- ReadingHeader&#45;&gt;Failed -->
<g id="edge3" class="edge">
<title>ReadingHeader&#45;&gt;Failed</title>
<path fill="none" stroke="red" d="M206.05,-489.53C217.9,-466.57 230.88,-434.53 230.88,-404.25 230.88,-404.25 230.88,-404.25 230.88,-163.25 230.88,-131.33 212.62,-100.34 194.5,-77.44"/>
<polygon fill="red" stroke="red" points="197.36,-75.41 188.3,-69.93 191.97,-79.87 197.36,-75.41"/>
<text xml:space="preserve" text-anchor="middle" x="242.12" y="-278.7" font-family="Times,serif" font-size="14.00"> $&gt; </text>
</g>
<!-- MappingSegments -->
<g id="node4" class="node">
<title>MappingSegments</title>
<path fill="azure" stroke="none" d="M145.25,-317.25C145.25,-317.25 44.5,-317.25 44.5,-317.25 38.5,-317.25 32.5,-311.25 32.5,-305.25 32.5,-305.25 32.5,-262.25 32.5,-262.25 32.5,-256.25 38.5,-250.25 44.5,-250.25 44.5,-250.25 145.25,-250.25 145.25,-250.25 151.25,-250.25 157.25,-256.25 157.25,-262.25 157.25,-262.25 157.25,-305.25 157.25,-305.25 157.25,-311.25 151.25,-317.25 145.25,-317.25"/>
<text xml:space="preserve" text-anchor="start" x="40.5" y="-296.95" font-family="Times,serif" font-weight="bold" font-size="14.00">MappingSegments</text>
<text xml:space="preserve" text-anchor="start" x="40.5" y="-271.75" font-family="Times,serif" font-size="10.00">$&gt;()</text>
<text xml:space="preserve" text-anchor="start" x="40.5" y="-260.5" font-family="Times,serif" font-size="10.00"> &#160;&#160;&#160;&#160;&#160;&#160;&#160;&#160;&#160;&#160;&#160;</text>
<polygon fill="#00688b" stroke="#00688b" points="32.5,-286.75 32.5,-286.75 157.25,-286.75 157.25,-286.75 32.5,-286.75"/>
<path fill="none" stroke="#00688b" d="M44.5,-250.25C44.5,-250.25 145.25,-250.25 145.25,-250.25 151.25,-250.25 157.25,-256.25 157.25,-262.25 157.25,-262.25 157.25,-305.25 157.25,-305.25 157.25,-311.25 151.25,-317.25 145.25,-317.25 145.25,-317.25 44.5,-317.25 44.5,-317.25 38.5,-317.25 32.5,-311.25 32.5,-305.25 32.5,-305.25 32.5,-262.25 32.5,-262.25 32.5,-256.25 38.5,-250.25 44.5,-250.25"/>
</g>
<!-- ValidatingHeader&#45;&gt;MappingSegments -->
<g id="edge4" class="edge">
<title>ValidatingHeader&#45;&gt;MappingSegments</title>
<path fill="none" stroke="red" d="M129.63,-369.83C124.28,-356.73 118.03,-341.43 112.32,-327.44"/>
<polygon fill="red" stroke="red" points="115.67,-326.4 108.65,-318.46 109.19,-329.04 115.67,-326.4"/>
<text xml:space="preserve" text-anchor="middle" x="133" y="-338.45" font-family="Times,serif" font-size="14.00"> $&gt; </text>
</g>
<!-- ValidatingHeader&#45;&gt;Failed -->
<g id="edge5" class="edge">
<title>ValidatingHeader&#45;&gt;Failed</title>
<path fill="none" stroke="red" d="M153.77,-369.97C158.51,-354.26 163.52,-334.98 165.88,-317.25 176.41,-237.97 170.32,-144.84 164.75,-89.25"/>
<polygon fill="red" stroke="red" points="168.25,-89.07 163.73,-79.48 161.28,-89.79 168.25,-89.07"/>
<text xml:space="preserve" text-anchor="middle" x="182.88" y="-218.95" font-family="Times,serif" font-size="14.00"> $&gt; </text>
</g>
<!-- BuildingStack -->
<g id="node5" class="node">
<title>BuildingStack</title>
<path fill="azure" stroke="none" d="M85.75,-197.75C85.75,-197.75 12,-197.75 12,-197.75 6,-197.75 0,-191.75 0,-185.75 0,-185.75 0,-142.75 0,-142.75 0,-136.75 6,-130.75 12,-130.75 12,-130.75 85.75,-130.75 85.75,-130.75 91.75,-130.75 97.75,-136.75 97.75,-142.75 97.75,-142.75 97.75,-185.75 97.75,-185.75 97.75,-191.75 91.75,-197.75 85.75,-197.75"/>
<text xml:space="preserve" text-anchor="start" x="8" y="-177.45" font-family="Times,serif" font-weight="bold" font-size="14.00">BuildingStack</text>
<text xml:space="preserve" text-anchor="start" x="8" y="-152.25" font-family="Times,serif" font-size="10.00">$&gt;()</text>
<text xml:space="preserve" text-anchor="start" x="8" y="-141" font-family="Times,serif" font-size="10.00"> &#160;&#160;&#160;&#160;&#160;&#160;&#160;&#160;&#160;&#160;&#160;</text>
<polygon fill="#00688b" stroke="#00688b" points="0,-167.25 0,-167.25 97.75,-167.25 97.75,-167.25 0,-167.25"/>
<path fill="none" stroke="#00688b" d="M12,-130.75C12,-130.75 85.75,-130.75 85.75,-130.75 91.75,-130.75 97.75,-136.75 97.75,-142.75 97.75,-142.75 97.75,-185.75 97.75,-185.75 97.75,-191.75 91.75,-197.75 85.75,-197.75 85.75,-197.75 12,-197.75 12,-197.75 6,-197.75 0,-191.75 0,-185.75 0,-185.75 0,-142.75 0,-142.75 0,-136.75 6,-130.75 12,-130.75"/>
</g>
<!-- MappingSegments&#45;&gt;BuildingStack -->
<g id="edge6" class="edge">
<title>MappingSegments&#45;&gt;BuildingStack</title>
<path fill="none" stroke="red" d="M82.18,-250.33C77.06,-237.23 71.06,-221.93 65.59,-207.94"/>
<polygon fill="red" stroke="red" points="68.98,-207.01 62.08,-198.97 62.46,-209.56 68.98,-207.01"/>
<text xml:space="preserve" text-anchor="middle" x="85.88" y="-218.95" font-family="Times,serif" font-size="14.00"> $&gt; </text>
</g>
<!-- MappingSegments&#45;&gt;Failed -->
<g id="edge7" class="edge">
<title>MappingSegments&#45;&gt;Failed</title>
<path fill="none" stroke="red" d="M103.44,-250.28C114.35,-208.92 133.31,-137.05 145.97,-89.04"/>
<polygon fill="red" stroke="red" points="149.34,-90.01 148.5,-79.45 142.57,-88.22 149.34,-90.01"/>
<text xml:space="preserve" text-anchor="middle" x="145.53" y="-159.2" font-family="Times,serif" font-size="14.00"> $&gt; </text>
</g>
<!-- Done -->
<g id="node6" class="node">
<title>Done</title>
<path fill="azure" stroke="none" d="M64,-72.62C64,-72.62 33.75,-72.62 33.75,-72.62 27.75,-72.62 21.75,-66.62 21.75,-60.62 21.75,-60.62 21.75,-17.62 21.75,-17.62 21.75,-11.62 27.75,-5.62 33.75,-5.62 33.75,-5.62 64,-5.62 64,-5.62 70,-5.62 76,-11.62 76,-17.62 76,-17.62 76,-60.62 76,-60.62 76,-66.62 70,-72.62 64,-72.62"/>
<text xml:space="preserve" text-anchor="start" x="33.88" y="-52.33" font-family="Times,serif" font-weight="bold" font-size="14.00">Done</text>
<text xml:space="preserve" text-anchor="start" x="29.75" y="-27.12" font-family="Times,serif" font-size="10.00">is_done()</text>
<text xml:space="preserve" text-anchor="start" x="35.38" y="-15.88" font-family="Times,serif" font-size="10.00"> &#160;&#160;&#160;&#160;&#160;&#160;&#160;&#160;&#160;&#160;&#160;</text>
<polygon fill="#00688b" stroke="#00688b" points="21.75,-42.12 21.75,-42.12 76,-42.12 76,-42.12 21.75,-42.12"/>
<path fill="none" stroke="#00688b" d="M33.75,-5.62C33.75,-5.62 64,-5.62 64,-5.62 70,-5.62 76,-11.62 76,-17.62 76,-17.62 76,-60.62 76,-60.62 76,-66.62 70,-72.62 64,-72.62 64,-72.62 33.75,-72.62 33.75,-72.62 27.75,-72.62 21.75,-66.62 21.75,-60.62 21.75,-60.62 21.75,-17.62 21.75,-17.62 21.75,-11.62 27.75,-5.62 33.75,-5.62"/>
</g>
<!-- BuildingStack&#45;&gt;Done -->
<g id="edge8" class="edge">
<title>BuildingStack&#45;&gt;Done</title>
<path fill="none" stroke="red" d="M48.88,-130.9C48.88,-116.48 48.88,-99.27 48.88,-83.74"/>
<polygon fill="red" stroke="red" points="52.38,-83.77 48.88,-73.77 45.38,-83.77 52.38,-83.77"/>
<text xml:space="preserve" text-anchor="middle" x="60.12" y="-99.45" font-family="Times,serif" font-size="14.00"> $&gt; </text>
</g>
<!-- BuildingStack&#45;&gt;Failed -->
<g id="edge9" class="edge">
<title>BuildingStack&#45;&gt;Failed</title>
<path fill="none" stroke="red" d="M70.3,-130.87C78.32,-119.53 87.81,-106.96 97.38,-96.25 104.96,-87.76 113.69,-79.18 122.16,-71.37"/>
<polygon fill="red" stroke="red" points="124.28,-74.17 129.35,-64.87 119.59,-68.98 124.28,-74.17"/>
<text xml:space="preserve" text-anchor="middle" x="108.62" y="-99.45" font-family="Times,serif" font-size="14.00"> $&gt; </text>
</g>
</g>
</svg>
