<?xml version="1.0" encoding="UTF-8" standalone="no"?>
<!DOCTYPE svg PUBLIC "-//W3C//DTD SVG 1.1//EN"
 "http://www.w3.org/Graphics/SVG/1.1/DTD/svg11.dtd">
<!-- Generated by graphviz version 2.43.0 (0)
 -->
<!-- Title: EventCounter Pages: 1 -->
<svg width="99pt" height="262pt"
 viewBox="0.00 0.00 99.00 262.00" xmlns="http://www.w3.org/2000/svg" xmlns:xlink="http://www.w3.org/1999/xlink">
<g id="graph0" class="graph" transform="scale(1 1) rotate(0) translate(4 258)">
<title>EventCounter</title>
<polygon fill="white" stroke="transparent" points="-4,4 -4,-258 95,-258 95,4 -4,4"/>
<!-- Entry -->
<g id="node1" class="node">
<title>Entry</title>
<ellipse fill="black" stroke="#00688b" cx="45" cy="-247" rx="7" ry="7"/>
</g>
<!-- Counting -->
<g id="node2" class="node">
<title>Counting</title>
<path fill="azure" stroke="transparent" d="M78,-203C78,-203 12,-203 12,-203 6,-203 0,-197 0,-191 0,-191 0,-128 0,-128 0,-122 6,-116 12,-116 12,-116 78,-116 78,-116 84,-116 90,-122 90,-128 90,-128 90,-191 90,-191 90,-197 84,-203 78,-203"/>
<text text-anchor="start" x="8" y="-184.3" font-family="Times,serif" font-weight="bold" font-size="14.00">Counting</text>
<text text-anchor="start" x="8" y="-159.5" font-family="Times,serif" font-size="10.00">tick(n: u32)</text>
<text text-anchor="start" x="8" y="-148.5" font-family="Times,serif" font-size="10.00">close()</text>
<text text-anchor="start" x="8" y="-137.5" font-family="Times,serif" font-size="10.00">is_open()</text>
<text text-anchor="start" x="18.5" y="-126.5" font-family="Times,serif" font-size="10.00"> &#160;&#160;&#160;&#160;&#160;&#160;&#160;&#160;&#160;&#160;&#160;</text>
<polygon fill="#00688b" stroke="#00688b" points="0,-173.5 0,-173.5 90,-173.5 90,-173.5 0,-173.5"/>
<path fill="none" stroke="#00688b" d="M12,-116C12,-116 78,-116 78,-116 84,-116 90,-122 90,-128 90,-128 90,-191 90,-191 90,-197 84,-203 78,-203 78,-203 12,-203 12,-203 6,-203 0,-197 0,-191 0,-191 0,-128 0,-128 0,-122 6,-116 12,-116"/>
</g>
<!-- Entry&#45;&gt;Counting -->
<g id="edge1" class="edge">
<title>Entry&#45;&gt;Counting</title>
<path fill="none" stroke="red" d="M45,-239.85C45,-233.81 45,-223.96 45,-213.23"/>
<polygon fill="red" stroke="red" points="48.5,-213.2 45,-203.2 41.5,-213.2 48.5,-213.2"/>
</g>
<!-- Closed -->
<g id="node3" class="node">
<title>Closed</title>
<path fill="azure" stroke="transparent" d="M67.5,-65C67.5,-65 22.5,-65 22.5,-65 16.5,-65 10.5,-59 10.5,-53 10.5,-53 10.5,-12 10.5,-12 10.5,-6 16.5,0 22.5,0 22.5,0 67.5,0 67.5,0 73.5,0 79.5,-6 79.5,-12 79.5,-12 79.5,-53 79.5,-53 79.5,-59 73.5,-65 67.5,-65"/>
<text text-anchor="start" x="19" y="-46.3" font-family="Times,serif" font-weight="bold" font-size="14.00">Closed</text>
<text text-anchor="start" x="19" y="-21.5" font-family="Times,serif" font-size="10.00">is_open()</text>
<text text-anchor="start" x="24" y="-10.5" font-family="Times,serif" font-size="10.00"> &#160;&#160;&#160;&#160;&#160;&#160;&#160;&#160;&#160;&#160;&#160;</text>
<polygon fill="#00688b" stroke="#00688b" points="11,-35.5 11,-35.5 80,-35.5 80,-35.5 11,-35.5"/>
<path fill="none" stroke="#00688b" d="M22.5,0C22.5,0 67.5,0 67.5,0 73.5,0 79.5,-6 79.5,-12 79.5,-12 79.5,-53 79.5,-53 79.5,-59 73.5,-65 67.5,-65 67.5,-65 22.5,-65 22.5,-65 16.5,-65 10.5,-59 10.5,-53 10.5,-53 10.5,-12 10.5,-12 10.5,-6 16.5,0 22.5,0"/>
</g>
<!-- Counting&#45;&gt;Closed -->
<g id="edge2" class="edge">
<title>Counting&#45;&gt;Closed</title>
<path fill="none" stroke="red" d="M45,-115.83C45,-102.77 45,-88.43 45,-75.42"/>
<polygon fill="red" stroke="red" points="48.5,-75.32 45,-65.32 41.5,-75.32 48.5,-75.32"/>
<text text-anchor="middle" x="68" y="-86.8" font-family="Times,serif" font-size="14.00"> close </text>
</g>
</g>
</svg>
