<?xml version="1.0" encoding="UTF-8" standalone="no"?>
<!DOCTYPE svg PUBLIC "-//W3C//DTD SVG 1.1//EN"
 "http://www.w3.org/Graphics/SVG/1.1/DTD/svg11.dtd">
<!-- Generated by graphviz version 2.43.0 (0)
 -->
<!-- Title: Hello Pages: 1 -->
<svg width="96pt" height="240pt"
 viewBox="0.00 0.00 96.00 240.00" xmlns="http://www.w3.org/2000/svg" xmlns:xlink="http://www.w3.org/1999/xlink">
<g id="graph0" class="graph" transform="scale(1 1) rotate(0) translate(4 236)">
<title>Hello</title>
<polygon fill="white" stroke="transparent" points="-4,4 -4,-236 92,-236 92,4 -4,4"/>
<!-- Entry -->
<g id="node1" class="node">
<title>Entry</title>
<ellipse fill="black" stroke="#00688b" cx="40" cy="-225" rx="7" ry="7"/>
</g>
<!-- Ready -->
<g id="node2" class="node">
<title>Ready</title>
<path fill="azure" stroke="transparent" d="M60.5,-181C60.5,-181 19.5,-181 19.5,-181 13.5,-181 7.5,-175 7.5,-169 7.5,-169 7.5,-128 7.5,-128 7.5,-122 13.5,-116 19.5,-116 19.5,-116 60.5,-116 60.5,-116 66.5,-116 72.5,-122 72.5,-128 72.5,-128 72.5,-169 72.5,-169 72.5,-175 66.5,-181 60.5,-181"/>
<text text-anchor="start" x="16" y="-162.3" font-family="Times,serif" font-weight="bold" font-size="14.00">Ready</text>
<text text-anchor="start" x="16" y="-137.5" font-family="Times,serif" font-size="10.00">greet()</text>
<text text-anchor="start" x="16" y="-126.5" font-family="Times,serif" font-size="10.00"> &#160;&#160;&#160;&#160;&#160;&#160;&#160;&#160;&#160;&#160;&#160;</text>
<polygon fill="#00688b" stroke="#00688b" points="8,-151.5 8,-151.5 73,-151.5 73,-151.5 8,-151.5"/>
<path fill="none" stroke="#00688b" d="M19.5,-116C19.5,-116 60.5,-116 60.5,-116 66.5,-116 72.5,-122 72.5,-128 72.5,-128 72.5,-169 72.5,-169 72.5,-175 66.5,-181 60.5,-181 60.5,-181 19.5,-181 19.5,-181 13.5,-181 7.5,-175 7.5,-169 7.5,-169 7.5,-128 7.5,-128 7.5,-122 13.5,-116 19.5,-116"/>
</g>
<!-- Entry&#45;&gt;Ready -->
<g id="edge1" class="edge">
<title>Entry&#45;&gt;Ready</title>
<path fill="none" stroke="red" d="M40,-217.9C40,-211.79 40,-201.81 40,-191.34"/>
<polygon fill="red" stroke="red" points="43.5,-191.26 40,-181.26 36.5,-191.26 43.5,-191.26"/>
</g>
<!-- Greeted -->
<g id="node3" class="node">
<title>Greeted</title>
<path fill="azure" stroke="transparent" d="M68,-65C68,-65 12,-65 12,-65 6,-65 0,-59 0,-53 0,-53 0,-12 0,-12 0,-6 6,0 12,0 12,0 68,0 68,0 74,0 80,-6 80,-12 80,-12 80,-53 80,-53 80,-59 74,-65 68,-65"/>
<text text-anchor="start" x="8" y="-46.3" font-family="Times,serif" font-weight="bold" font-size="14.00">Greeted</text>
<text text-anchor="start" x="8" y="-21.5" font-family="Times,serif" font-size="10.00">greeted()</text>
<text text-anchor="start" x="13.5" y="-10.5" font-family="Times,serif" font-size="10.00"> &#160;&#160;&#160;&#160;&#160;&#160;&#160;&#160;&#160;&#160;&#160;</text>
<polygon fill="#00688b" stroke="#00688b" points="0,-35.5 0,-35.5 80,-35.5 80,-35.5 0,-35.5"/>
<path fill="none" stroke="#00688b" d="M12,0C12,0 68,0 68,0 74,0 80,-6 80,-12 80,-12 80,-53 80,-53 80,-59 74,-65 68,-65 68,-65 12,-65 12,-65 6,-65 0,-59 0,-53 0,-53 0,-12 0,-12 0,-6 6,0 12,0"/>
</g>
<!-- Ready&#45;&gt;Greeted -->
<g id="edge2" class="edge">
<title>Ready&#45;&gt;Greeted</title>
<path fill="none" stroke="red" d="M40,-115.74C40,-103.27 40,-88.77 40,-75.45"/>
<polygon fill="red" stroke="red" points="43.5,-75.09 40,-65.09 36.5,-75.09 43.5,-75.09"/>
<text text-anchor="middle" x="64" y="-86.8" font-family="Times,serif" font-size="14.00"> greet </text>
</g>
</g>
</svg>
