<?xml version="1.0" encoding="UTF-8" standalone="no"?>
<!DOCTYPE svg PUBLIC "-//W3C//DTD SVG 1.1//EN"
 "http://www.w3.org/Graphics/SVG/1.1/DTD/svg11.dtd">
<!-- Generated by graphviz version 2.43.0 (0)
 -->
<!-- Title: HubPort Pages: 1 -->
<svg width="236pt" height="622pt"
 viewBox="0.00 0.00 236.00 622.00" xmlns="http://www.w3.org/2000/svg" xmlns:xlink="http://www.w3.org/1999/xlink">
<g id="graph0" class="graph" transform="scale(1 1) rotate(0) translate(4 618)">
<title>HubPort</title>
<polygon fill="white" stroke="transparent" points="-4,4 -4,-618 232,-618 232,4 -4,4"/>
<g id="clust1" class="cluster">
<title>cluster_Attached</title>
<path fill="none" stroke="black" d="M20,-8C20,-8 164,-8 164,-8 170,-8 176,-14 176,-20 176,-20 176,-434 176,-434 176,-440 170,-446 164,-446 164,-446 20,-446 20,-446 14,-446 8,-440 8,-434 8,-434 8,-20 8,-20 8,-14 14,-8 20,-8"/>
<text text-anchor="start" x="60" y="-426.3" font-family="Times,serif" font-size="14.00">Attached</text>
<text text-anchor="start" x="60" y="-408.5" font-family="Times,serif" font-size="10.00">disconnect()</text>
<text text-anchor="start" x="67" y="-397.5" font-family="Times,serif" font-size="10.00"> &#160;&#160;&#160;&#160;&#160;&#160;&#160;&#160;&#160;&#160;&#160;&#160;&#160;&#160;&#160;</text>
<polygon fill="black" stroke="black" points="56,-419.5 56,-419.5 128,-419.5 128,-419.5 56,-419.5"/>
</g>
<!-- Entry -->
<g id="node1" class="node">
<title>Entry</title>
<ellipse fill="black" stroke="#00688b" cx="117" cy="-607" rx="7" ry="7"/>
</g>
<!-- Disconnected -->
<g id="node2" class="node">
<title>Disconnected</title>
<path fill="azure" stroke="transparent" d="M166.5,-563C166.5,-563 67.5,-563 67.5,-563 61.5,-563 55.5,-557 55.5,-551 55.5,-551 55.5,-499 55.5,-499 55.5,-493 61.5,-487 67.5,-487 67.5,-487 166.5,-487 166.5,-487 172.5,-487 178.5,-493 178.5,-499 178.5,-499 178.5,-551 178.5,-551 178.5,-557 172.5,-563 166.5,-563"/>
<text text-anchor="start" x="64" y="-544.8" font-family="Times,serif" font-weight="bold" font-size="14.00">Disconnected</text>
<text text-anchor="start" x="64" y="-520" font-family="Times,serif" font-size="10.00">connect(port: u8)</text>
<text text-anchor="start" x="64" y="-509" font-family="Times,serif" font-size="10.00">state()</text>
<text text-anchor="start" x="89.5" y="-498" font-family="Times,serif" font-size="10.00"> &#160;&#160;&#160;&#160;&#160;&#160;&#160;&#160;&#160;&#160;&#160;</text>
<polygon fill="#00688b" stroke="#00688b" points="56,-534 56,-534 179,-534 179,-534 56,-534"/>
<path fill="none" stroke="#00688b" d="M67.5,-487C67.5,-487 166.5,-487 166.5,-487 172.5,-487 178.5,-493 178.5,-499 178.5,-499 178.5,-551 178.5,-551 178.5,-557 172.5,-563 166.5,-563 166.5,-563 67.5,-563 67.5,-563 61.5,-563 55.5,-557 55.5,-551 55.5,-551 55.5,-499 55.5,-499 55.5,-493 61.5,-487 67.5,-487"/>
</g>
<!-- Entry&#45;&gt;Disconnected -->
<g id="edge1" class="edge">
<title>Entry&#45;&gt;Disconnected</title>
<path fill="none" stroke="red" d="M117,-599.99C117,-593.98 117,-584.15 117,-573.59"/>
<polygon fill="red" stroke="red" points="120.5,-573.33 117,-563.33 113.5,-573.33 120.5,-573.33"/>
</g>
<!-- Connected -->
<g id="node4" class="node">
<title>Connected</title>
<path fill="azure" stroke="transparent" d="M111.5,-379C111.5,-379 34.5,-379 34.5,-379 28.5,-379 22.5,-373 22.5,-367 22.5,-367 22.5,-315 22.5,-315 22.5,-309 28.5,-303 34.5,-303 34.5,-303 111.5,-303 111.5,-303 117.5,-303 123.5,-309 123.5,-315 123.5,-315 123.5,-367 123.5,-367 123.5,-373 117.5,-379 111.5,-379"/>
<text text-anchor="start" x="31" y="-360.8" font-family="Times,serif" font-weight="bold" font-size="14.00">Connected</text>
<text text-anchor="start" x="31" y="-336" font-family="Times,serif" font-size="10.00">reset()</text>
<text text-anchor="start" x="31" y="-325" font-family="Times,serif" font-size="10.00">state()</text>
<text text-anchor="start" x="31" y="-314" font-family="Times,serif" font-size="10.00"> &#160;&#160;&#160;&#160;&#160;&#160;&#160;&#160;&#160;&#160;&#160;&#160;&#160;&#160;&#160;</text>
<polygon fill="#00688b" stroke="#00688b" points="23,-350 23,-350 124,-350 124,-350 23,-350"/>
<path fill="none" stroke="#00688b" d="M34.5,-303C34.5,-303 111.5,-303 111.5,-303 117.5,-303 123.5,-309 123.5,-315 123.5,-315 123.5,-367 123.5,-367 123.5,-373 117.5,-379 111.5,-379 111.5,-379 34.5,-379 34.5,-379 28.5,-379 22.5,-373 22.5,-367 22.5,-367 22.5,-315 22.5,-315 22.5,-309 28.5,-303 34.5,-303"/>
</g>
<!-- Disconnected&#45;&gt;Connected -->
<g id="edge2" class="edge">
<title>Disconnected&#45;&gt;Connected</title>
<path fill="none" stroke="red" d="M82.96,-486.85C79.32,-481.2 76.16,-475.18 74,-469 65.17,-443.68 64.5,-413.75 66.23,-389.31"/>
<polygon fill="red" stroke="red" points="69.73,-389.47 67.11,-379.2 62.76,-388.86 69.73,-389.47"/>
<text text-anchor="middle" x="106.5" y="-457.8" font-family="Times,serif" font-size="14.00"> connect </text>
</g>
<!-- Attached -->
<g id="node3" class="node">
<title>Attached</title>
<ellipse fill="azure" stroke="#00688b" cx="161" cy="-341" rx="0" ry="0"/>
</g>
<!-- Attached&#45;&gt;Disconnected -->
<g id="edge6" class="edge">
<title>Attached&#45;&gt;Disconnected</title>
<path fill="none" stroke="red" d="M144.82,-446C143.04,-453.83 141.11,-461.57 139,-469 138.22,-471.74 137.36,-474.52 136.44,-477.32"/>
<polygon fill="red" stroke="red" points="133.12,-476.19 133.1,-486.79 139.72,-478.52 133.12,-476.19"/>
<text text-anchor="middle" x="185" y="-457.8" font-family="Times,serif" font-size="14.00"> disconnect </text>
</g>
<!-- Resetting -->
<g id="node5" class="node">
<title>Resetting</title>
<path fill="azure" stroke="transparent" d="M105.5,-252C105.5,-252 28.5,-252 28.5,-252 22.5,-252 16.5,-246 16.5,-240 16.5,-240 16.5,-166 16.5,-166 16.5,-160 22.5,-154 28.5,-154 28.5,-154 105.5,-154 105.5,-154 111.5,-154 117.5,-160 117.5,-166 117.5,-166 117.5,-240 117.5,-240 117.5,-246 111.5,-252 105.5,-252"/>
<text text-anchor="start" x="28.5" y="-233.8" font-family="Times,serif" font-weight="bold" font-size="14.00">Resetting</text>
<text text-anchor="start" x="25" y="-209" font-family="Times,serif" font-size="10.00">$&gt;()</text>
<text text-anchor="start" x="25" y="-198" font-family="Times,serif" font-size="10.00">reset_complete()</text>
<text text-anchor="start" x="25" y="-187" font-family="Times,serif" font-size="10.00">timeout()</text>
<text text-anchor="start" x="25" y="-176" font-family="Times,serif" font-size="10.00">state()</text>
<text text-anchor="start" x="43" y="-165" font-family="Times,serif" font-size="10.00"> &#160;&#160;&#160;&#160;&#160;&#160;&#160;&#160;&#160;&#160;&#160;&#160;&#160;&#160;&#160;</text>
<polygon fill="#00688b" stroke="#00688b" points="17,-223 17,-223 118,-223 118,-223 17,-223"/>
<path fill="none" stroke="#00688b" d="M28.5,-154C28.5,-154 105.5,-154 105.5,-154 111.5,-154 117.5,-160 117.5,-166 117.5,-166 117.5,-240 117.5,-240 117.5,-246 111.5,-252 105.5,-252 105.5,-252 28.5,-252 28.5,-252 22.5,-252 16.5,-246 16.5,-240 16.5,-240 16.5,-166 16.5,-166 16.5,-160 22.5,-154 28.5,-154"/>
</g>
<!-- Connected&#45;&gt;Resetting -->
<g id="edge3" class="edge">
<title>Connected&#45;&gt;Resetting</title>
<path fill="none" stroke="red" d="M43.02,-302.8C39.74,-297.11 36.9,-291.09 35,-285 32.68,-277.57 32.59,-269.86 33.92,-262.27"/>
<polygon fill="red" stroke="red" points="37.36,-262.97 36.42,-252.41 30.57,-261.24 37.36,-262.97"/>
<text text-anchor="middle" x="58" y="-273.8" font-family="Times,serif" font-size="14.00"> reset </text>
</g>
<!-- Resetting&#45;&gt;Connected -->
<g id="edge5" class="edge">
<title>Resetting&#45;&gt;Connected</title>
<path fill="none" stroke="red" d="M79.26,-252.21C80.89,-262.95 81.77,-274.32 81,-285 80.82,-287.53 80.59,-290.11 80.32,-292.72"/>
<polygon fill="red" stroke="red" points="76.83,-292.47 79.15,-302.8 83.78,-293.27 76.83,-292.47"/>
<text text-anchor="middle" x="114.5" y="-273.8" font-family="Times,serif" font-size="14.00"> timeout </text>
</g>
<!-- Enabled -->
<g id="node6" class="node">
<title>Enabled</title>
<path fill="azure" stroke="transparent" d="M84,-103C84,-103 28,-103 28,-103 22,-103 16,-97 16,-91 16,-91 16,-28 16,-28 16,-22 22,-16 28,-16 28,-16 84,-16 84,-16 90,-16 96,-22 96,-28 96,-28 96,-91 96,-91 96,-97 90,-103 84,-103"/>
<text text-anchor="start" x="24" y="-84.3" font-family="Times,serif" font-weight="bold" font-size="14.00">Enabled</text>
<text text-anchor="start" x="24" y="-59.5" font-family="Times,serif" font-size="10.00">$&gt;()</text>
<text text-anchor="start" x="24" y="-48.5" font-family="Times,serif" font-size="10.00">is_enabled()</text>
<text text-anchor="start" x="24" y="-37.5" font-family="Times,serif" font-size="10.00">state()</text>
<text text-anchor="start" x="31" y="-26.5" font-family="Times,serif" font-size="10.00"> &#160;&#160;&#160;&#160;&#160;&#160;&#160;&#160;&#160;&#160;&#160;&#160;&#160;&#160;&#160;</text>
<polygon fill="#00688b" stroke="#00688b" points="16,-73.5 16,-73.5 96,-73.5 96,-73.5 16,-73.5"/>
<path fill="none" stroke="#00688b" d="M28,-16C28,-16 84,-16 84,-16 90,-16 96,-22 96,-28 96,-28 96,-91 96,-91 96,-97 90,-103 84,-103 84,-103 28,-103 28,-103 22,-103 16,-97 16,-91 16,-91 16,-28 16,-28 16,-22 22,-16 28,-16"/>
</g>
<!-- Resetting&#45;&gt;Enabled -->
<g id="edge4" class="edge">
<title>Resetting&#45;&gt;Enabled</title>
<path fill="none" stroke="red" d="M63.25,-153.7C62.24,-140.81 61.16,-126.82 60.13,-113.68"/>
<polygon fill="red" stroke="red" points="63.6,-113.07 59.33,-103.37 56.62,-113.61 63.6,-113.07"/>
<text text-anchor="middle" x="121" y="-124.8" font-family="Times,serif" font-size="14.00"> reset_complete </text>
</g>
</g>
</svg>
