<?xml version="1.0" encoding="UTF-8" standalone="no"?>
<!DOCTYPE svg PUBLIC "-//W3C//DTD SVG 1.1//EN"
 "http://www.w3.org/Graphics/SVG/1.1/DTD/svg11.dtd">
<!-- Generated by graphviz version 2.43.0 (0)
 -->
<!-- Title: IoScheduler Pages: 1 -->
<svg width="151pt" height="273pt"
 viewBox="0.00 0.00 151.00 273.00" xmlns="http://www.w3.org/2000/svg" xmlns:xlink="http://www.w3.org/1999/xlink">
<g id="graph0" class="graph" transform="scale(1 1) rotate(0) translate(4 269)">
<title>IoScheduler</title>
<polygon fill="white" stroke="transparent" points="-4,4 -4,-269 147,-269 147,4 -4,4"/>
<!-- Entry -->
<g id="node1" class="node">
<title>Entry</title>
<ellipse fill="black" stroke="#00688b" cx="61" cy="-258" rx="7" ry="7"/>
</g>
<!-- HasFreeSlots -->
<g id="node2" class="node">
<title>HasFreeSlots</title>
<path fill="azure" stroke="transparent" d="M110,-214C110,-214 12,-214 12,-214 6,-214 0,-208 0,-202 0,-202 0,-150 0,-150 0,-144 6,-138 12,-138 12,-138 110,-138 110,-138 116,-138 122,-144 122,-150 122,-150 122,-202 122,-202 122,-208 116,-214 110,-214"/>
<text text-anchor="start" x="8" y="-195.8" font-family="Times,serif" font-weight="bold" font-size="14.00">HasFreeSlots</text>
<text text-anchor="start" x="8" y="-171" font-family="Times,serif" font-size="10.00">acquire(pid: u32)</text>
<text text-anchor="start" x="8" y="-160" font-family="Times,serif" font-size="10.00">release(pid: u32)</text>
<text text-anchor="start" x="33.5" y="-149" font-family="Times,serif" font-size="10.00"> &#160;&#160;&#160;&#160;&#160;&#160;&#160;&#160;&#160;&#160;&#160;</text>
<polygon fill="#00688b" stroke="#00688b" points="0,-185 0,-185 122,-185 122,-185 0,-185"/>
<path fill="none" stroke="#00688b" d="M12,-138C12,-138 110,-138 110,-138 116,-138 122,-144 122,-150 122,-150 122,-202 122,-202 122,-208 116,-214 110,-214 110,-214 12,-214 12,-214 6,-214 0,-208 0,-202 0,-202 0,-150 0,-150 0,-144 6,-138 12,-138"/>
</g>
<!-- Entry&#45;&gt;HasFreeSlots -->
<g id="edge1" class="edge">
<title>Entry&#45;&gt;HasFreeSlots</title>
<path fill="none" stroke="red" d="M61,-250.99C61,-244.98 61,-235.15 61,-224.59"/>
<polygon fill="red" stroke="red" points="64.5,-224.33 61,-214.33 57.5,-224.33 64.5,-224.33"/>
</g>
<!-- Full -->
<g id="node3" class="node">
<title>Full</title>
<path fill="azure" stroke="transparent" d="M101,-87C101,-87 21,-87 21,-87 15,-87 9,-81 9,-75 9,-75 9,-12 9,-12 9,-6 15,0 21,0 21,0 101,0 101,0 107,0 113,-6 113,-12 113,-12 113,-75 113,-75 113,-81 107,-87 101,-87"/>
<text text-anchor="start" x="45.5" y="-68.3" font-family="Times,serif" font-weight="bold" font-size="14.00">Full</text>
<text text-anchor="start" x="17" y="-43.5" font-family="Times,serif" font-size="10.00">acquire(pid: u32)</text>
<text text-anchor="start" x="17" y="-32.5" font-family="Times,serif" font-size="10.00">release(pid: u32)</text>
<text text-anchor="start" x="17" y="-21.5" font-family="Times,serif" font-size="10.00">is_full()</text>
<text text-anchor="start" x="42.5" y="-10.5" font-family="Times,serif" font-size="10.00"> &#160;&#160;&#160;&#160;&#160;&#160;&#160;&#160;&#160;&#160;&#160;</text>
<polygon fill="#00688b" stroke="#00688b" points="9,-57.5 9,-57.5 113,-57.5 113,-57.5 9,-57.5"/>
<path fill="none" stroke="#00688b" d="M21,0C21,0 101,0 101,0 107,0 113,-6 113,-12 113,-12 113,-75 113,-75 113,-81 107,-87 101,-87 101,-87 21,-87 21,-87 15,-87 9,-81 9,-75 9,-75 9,-12 9,-12 9,-6 15,0 21,0"/>
</g>
<!-- HasFreeSlots&#45;&gt;Full -->
<g id="edge2" class="edge">
<title>HasFreeSlots&#45;&gt;Full</title>
<path fill="none" stroke="red" d="M24.57,-137.68C18.66,-127.53 15.49,-116.23 19,-105 19.93,-102.04 21.05,-99.11 22.33,-96.21"/>
<polygon fill="red" stroke="red" points="25.53,-97.63 26.89,-87.13 19.28,-94.49 25.53,-97.63"/>
<text text-anchor="middle" x="50.5" y="-108.8" font-family="Times,serif" font-size="14.00"> acquire </text>
</g>
<!-- Full&#45;&gt;HasFreeSlots -->
<g id="edge3" class="edge">
<title>Full&#45;&gt;HasFreeSlots</title>
<path fill="none" stroke="red" d="M79.93,-87.31C82.66,-97.91 83.97,-109.3 82,-120 81.5,-122.69 80.88,-125.41 80.17,-128.14"/>
<polygon fill="red" stroke="red" points="76.75,-127.37 77.22,-137.95 83.45,-129.38 76.75,-127.37"/>
<text text-anchor="middle" x="112.5" y="-108.8" font-family="Times,serif" font-size="14.00"> release </text>
</g>
</g>
</svg>
