<?xml version="1.0" encoding="UTF-8" standalone="no"?>
<!DOCTYPE svg PUBLIC "-//W3C//DTD SVG 1.1//EN"
 "http://www.w3.org/Graphics/SVG/1.1/DTD/svg11.dtd">
<!-- Generated by graphviz version 14.1.5 (20260411.2331)
 -->
<!-- Title: IoScheduler Pages: 1 -->
<svg width="166pt" height="268pt"
 viewBox="0.00 0.00 166.00 268.00" xmlns="http://www.w3.org/2000/svg" xmlns:xlink="http://www.w3.org/1999/xlink">
<g id="graph0" class="graph" transform="scale(1 1) rotate(0) translate(4 264.4)">
<title>IoScheduler</title>
<polygon fill="white" stroke="none" points="-4,4 -4,-264.4 162.22,-264.4 162.22,4 -4,4"/>
<!-- Entry -->
<g id="node1" class="node">
<title>Entry</title>
<ellipse fill="black" stroke="#00688b" cx="54.5" cy="-253.2" rx="7.2" ry="7.2"/>
</g>
<!-- Idle -->
<g id="node2" class="node">
<title>Idle</title>
<path fill="azure" stroke="none" d="M97,-209C97,-209 12,-209 12,-209 6,-209 0,-203 0,-197 0,-197 0,-154 0,-154 0,-148 6,-142 12,-142 12,-142 97,-142 97,-142 103,-142 109,-148 109,-154 109,-154 109,-197 109,-197 109,-203 103,-209 97,-209"/>
<text xml:space="preserve" text-anchor="start" x="43.25" y="-188.7" font-family="Times,serif" font-weight="bold" font-size="14.00">Idle</text>
<text xml:space="preserve" text-anchor="start" x="8" y="-163.5" font-family="Times,serif" font-size="10.00">acquire_disk(pid: u32)</text>
<text xml:space="preserve" text-anchor="start" x="41" y="-152.25" font-family="Times,serif" font-size="10.00"> &#160;&#160;&#160;&#160;&#160;&#160;&#160;&#160;&#160;&#160;&#160;</text>
<polygon fill="#00688b" stroke="#00688b" points="0,-178.5 0,-178.5 109,-178.5 109,-178.5 0,-178.5"/>
<path fill="none" stroke="#00688b" d="M12,-142C12,-142 97,-142 97,-142 103,-142 109,-148 109,-154 109,-154 109,-197 109,-197 109,-203 103,-209 97,-209 97,-209 12,-209 12,-209 6,-209 0,-203 0,-197 0,-197 0,-154 0,-154 0,-148 6,-142 12,-142"/>
</g>
<!-- Entry&#45;&gt;Idle -->
<g id="edge1" class="edge">
<title>Entry&#45;&gt;Idle</title>
<path fill="none" stroke="red" d="M54.5,-245.75C54.5,-239.77 54.5,-230.32 54.5,-220.3"/>
<polygon fill="red" stroke="red" points="58,-220.41 54.5,-210.41 51,-220.41 58,-220.41"/>
</g>
<!-- Busy -->
<g id="node3" class="node">
<title>Busy</title>
<path fill="azure" stroke="none" d="M97,-89.5C97,-89.5 12,-89.5 12,-89.5 6,-89.5 0,-83.5 0,-77.5 0,-77.5 0,-12 0,-12 0,-6 6,0 12,0 12,0 97,0 97,0 103,0 109,-6 109,-12 109,-12 109,-77.5 109,-77.5 109,-83.5 103,-89.5 97,-89.5"/>
<text xml:space="preserve" text-anchor="start" x="40.25" y="-69.2" font-family="Times,serif" font-weight="bold" font-size="14.00">Busy</text>
<text xml:space="preserve" text-anchor="start" x="8" y="-44" font-family="Times,serif" font-size="10.00">acquire_disk(pid: u32)</text>
<text xml:space="preserve" text-anchor="start" x="8" y="-32.75" font-family="Times,serif" font-size="10.00">release_disk()</text>
<text xml:space="preserve" text-anchor="start" x="8" y="-21.5" font-family="Times,serif" font-size="10.00">disk_owner(pid: u32)</text>
<text xml:space="preserve" text-anchor="start" x="41" y="-10.25" font-family="Times,serif" font-size="10.00"> &#160;&#160;&#160;&#160;&#160;&#160;&#160;&#160;&#160;&#160;&#160;</text>
<polygon fill="#00688b" stroke="#00688b" points="0,-59 0,-59 109,-59 109,-59 0,-59"/>
<path fill="none" stroke="#00688b" d="M12,0C12,0 97,0 97,0 103,0 109,-6 109,-12 109,-12 109,-77.5 109,-77.5 109,-83.5 103,-89.5 97,-89.5 97,-89.5 12,-89.5 12,-89.5 6,-89.5 0,-83.5 0,-77.5 0,-77.5 0,-12 0,-12 0,-6 6,0 12,0"/>
</g>
<!-- Idle&#45;&gt;Busy -->
<g id="edge2" class="edge">
<title>Idle&#45;&gt;Busy</title>
<path fill="none" stroke="red" d="M14.71,-142.27C6.62,-131.89 1.73,-119.85 6,-107.5 6.99,-104.64 8.17,-101.81 9.51,-99.03"/>
<polygon fill="red" stroke="red" points="12.43,-100.97 14.2,-90.52 6.3,-97.59 12.43,-100.97"/>
<text xml:space="preserve" text-anchor="middle" x="44.25" y="-110.7" font-family="Times,serif" font-size="14.00"> acquire_disk </text>
</g>
<!-- Busy&#45;&gt;Idle -->
<g id="edge3" class="edge">
<title>Busy&#45;&gt;Idle</title>
<path fill="none" stroke="red" d="M79.83,-89.18C83.66,-100.4 85.46,-112.55 82.5,-124 81.83,-126.58 81,-129.17 80.05,-131.74"/>
<polygon fill="red" stroke="red" points="76.93,-130.14 76.15,-140.71 83.35,-132.93 76.93,-130.14"/>
<text xml:space="preserve" text-anchor="middle" x="121.09" y="-110.7" font-family="Times,serif" font-size="14.00"> release_disk </text>
</g>
</g>
</svg>
