<?xml version="1.0" encoding="UTF-8" standalone="no"?>
<!DOCTYPE svg PUBLIC "-//W3C//DTD SVG 1.1//EN"
 "http://www.w3.org/Graphics/SVG/1.1/DTD/svg11.dtd">
<!-- Generated by graphviz version 2.43.0 (0)
 -->
<!-- Title: IpReassembly Pages: 1 -->
<svg width="335pt" height="422pt"
 viewBox="0.00 0.00 335.00 422.00" xmlns="http://www.w3.org/2000/svg" xmlns:xlink="http://www.w3.org/1999/xlink">
<g id="graph0" class="graph" transform="scale(1 1) rotate(0) translate(4 418)">
<title>IpReassembly</title>
<polygon fill="white" stroke="transparent" points="-4,4 -4,-418 331,-418 331,4 -4,4"/>
<!-- Entry -->
<g id="node1" class="node">
<title>Entry</title>
<ellipse fill="black" stroke="#00688b" cx="116.5" cy="-407" rx="7" ry="7"/>
</g>
<!-- Idle -->
<g id="node2" class="node">
<title>Idle</title>
<path fill="azure" stroke="transparent" d="M221,-363C221,-363 12,-363 12,-363 6,-363 0,-357 0,-351 0,-351 0,-299 0,-299 0,-293 6,-287 12,-287 12,-287 221,-287 221,-287 227,-287 233,-293 233,-299 233,-299 233,-351 233,-351 233,-357 227,-363 221,-363"/>
<text text-anchor="start" x="101.5" y="-344.8" font-family="Times,serif" font-weight="bold" font-size="14.00">Idle</text>
<text text-anchor="start" x="8.5" y="-320" font-family="Times,serif" font-size="10.00">fragment(frag: crate::ip_reasm::Fragment)</text>
<text text-anchor="start" x="8.5" y="-309" font-family="Times,serif" font-size="10.00">state()</text>
<text text-anchor="start" x="98.5" y="-298" font-family="Times,serif" font-size="10.00"> &#160;&#160;&#160;&#160;&#160;&#160;&#160;&#160;&#160;&#160;&#160;</text>
<polygon fill="#00688b" stroke="#00688b" points="0.5,-334 0.5,-334 233.5,-334 233.5,-334 0.5,-334"/>
<path fill="none" stroke="#00688b" d="M12,-287C12,-287 221,-287 221,-287 227,-287 233,-293 233,-299 233,-299 233,-351 233,-351 233,-357 227,-363 221,-363 221,-363 12,-363 12,-363 6,-363 0,-357 0,-351 0,-351 0,-299 0,-299 0,-293 6,-287 12,-287"/>
</g>
<!-- Entry&#45;&gt;Idle -->
<g id="edge1" class="edge">
<title>Entry&#45;&gt;Idle</title>
<path fill="none" stroke="red" d="M116.5,-399.99C116.5,-393.98 116.5,-384.15 116.5,-373.59"/>
<polygon fill="red" stroke="red" points="120,-373.33 116.5,-363.33 113,-373.33 120,-373.33"/>
</g>
<!-- Reassembling -->
<g id="node3" class="node">
<title>Reassembling</title>
<path fill="azure" stroke="transparent" d="M221,-236C221,-236 12,-236 12,-236 6,-236 0,-230 0,-224 0,-224 0,-150 0,-150 0,-144 6,-138 12,-138 12,-138 221,-138 221,-138 227,-138 233,-144 233,-150 233,-150 233,-224 233,-224 233,-230 227,-236 221,-236"/>
<text text-anchor="start" x="61" y="-217.8" font-family="Times,serif" font-weight="bold" font-size="14.00">Reassembling</text>
<text text-anchor="start" x="8.5" y="-193" font-family="Times,serif" font-size="10.00">$&gt;()</text>
<text text-anchor="start" x="8.5" y="-182" font-family="Times,serif" font-size="10.00">fragment(frag: crate::ip_reasm::Fragment)</text>
<text text-anchor="start" x="8.5" y="-171" font-family="Times,serif" font-size="10.00">timeout()</text>
<text text-anchor="start" x="8.5" y="-160" font-family="Times,serif" font-size="10.00">state()</text>
<text text-anchor="start" x="98.5" y="-149" font-family="Times,serif" font-size="10.00"> &#160;&#160;&#160;&#160;&#160;&#160;&#160;&#160;&#160;&#160;&#160;</text>
<polygon fill="#00688b" stroke="#00688b" points="0.5,-207 0.5,-207 233.5,-207 233.5,-207 0.5,-207"/>
<path fill="none" stroke="#00688b" d="M12,-138C12,-138 221,-138 221,-138 227,-138 233,-144 233,-150 233,-150 233,-224 233,-224 233,-230 227,-236 221,-236 221,-236 12,-236 12,-236 6,-236 0,-230 0,-224 0,-224 0,-150 0,-150 0,-144 6,-138 12,-138"/>
</g>
<!-- Idle&#45;&gt;Reassembling -->
<g id="edge2" class="edge">
<title>Idle&#45;&gt;Reassembling</title>
<path fill="none" stroke="red" d="M116.5,-286.84C116.5,-274.37 116.5,-260.14 116.5,-246.44"/>
<polygon fill="red" stroke="red" points="120,-246.1 116.5,-236.1 113,-246.1 120,-246.1"/>
<text text-anchor="middle" x="154.5" y="-257.8" font-family="Times,serif" font-size="14.00"> fragment </text>
</g>
<!-- Reassembling&#45;&gt;Reassembling -->
<g id="edge3" class="edge">
<title>Reassembling&#45;&gt;Reassembling</title>
<path fill="none" stroke="red" d="M233.18,-198.12C244.1,-195.84 251,-192.13 251,-187 251,-183.63 248.03,-180.88 242.9,-178.74"/>
<polygon fill="red" stroke="red" points="243.76,-175.34 233.18,-175.88 241.78,-182.06 243.76,-175.34"/>
<text text-anchor="middle" x="289" y="-183.3" font-family="Times,serif" font-size="14.00"> fragment </text>
</g>
<!-- Complete -->
<g id="node4" class="node">
<title>Complete</title>
<path fill="azure" stroke="transparent" d="M99.5,-87C99.5,-87 31.5,-87 31.5,-87 25.5,-87 19.5,-81 19.5,-75 19.5,-75 19.5,-12 19.5,-12 19.5,-6 25.5,0 31.5,0 31.5,0 99.5,0 99.5,0 105.5,0 111.5,-6 111.5,-12 111.5,-12 111.5,-75 111.5,-75 111.5,-81 105.5,-87 99.5,-87"/>
<text text-anchor="start" x="27.5" y="-68.3" font-family="Times,serif" font-weight="bold" font-size="14.00">Complete</text>
<text text-anchor="start" x="27.5" y="-43.5" font-family="Times,serif" font-size="10.00">$&gt;()</text>
<text text-anchor="start" x="27.5" y="-32.5" font-family="Times,serif" font-size="10.00">state()</text>
<text text-anchor="start" x="27.5" y="-21.5" font-family="Times,serif" font-size="10.00">is_complete()</text>
<text text-anchor="start" x="43" y="-10.5" font-family="Times,serif" font-size="10.00"> &#160;&#160;&#160;&#160;&#160;&#160;&#160;&#160;&#160;&#160;&#160;</text>
<polygon fill="#00688b" stroke="#00688b" points="19.5,-57.5 19.5,-57.5 111.5,-57.5 111.5,-57.5 19.5,-57.5"/>
<path fill="none" stroke="#00688b" d="M31.5,0C31.5,0 99.5,0 99.5,0 105.5,0 111.5,-6 111.5,-12 111.5,-12 111.5,-75 111.5,-75 111.5,-81 105.5,-87 99.5,-87 99.5,-87 31.5,-87 31.5,-87 25.5,-87 19.5,-81 19.5,-75 19.5,-75 19.5,-12 19.5,-12 19.5,-6 25.5,0 31.5,0"/>
</g>
<!-- Reassembling&#45;&gt;Complete -->
<g id="edge5" class="edge">
<title>Reassembling&#45;&gt;Complete</title>
<path fill="none" stroke="red" d="M99.09,-137.7C94.35,-124.56 89.2,-110.26 84.39,-96.9"/>
<polygon fill="red" stroke="red" points="87.64,-95.59 80.95,-87.37 81.05,-97.97 87.64,-95.59"/>
<text text-anchor="middle" x="109" y="-108.8" font-family="Times,serif" font-size="14.00"> $&gt; </text>
</g>
<!-- Expired -->
<g id="node5" class="node">
<title>Expired</title>
<path fill="azure" stroke="transparent" d="M195,-87C195,-87 142,-87 142,-87 136,-87 130,-81 130,-75 130,-75 130,-12 130,-12 130,-6 136,0 142,0 142,0 195,0 195,0 201,0 207,-6 207,-12 207,-12 207,-75 207,-75 207,-81 201,-87 195,-87"/>
<text text-anchor="start" x="138.5" y="-68.3" font-family="Times,serif" font-weight="bold" font-size="14.00">Expired</text>
<text text-anchor="start" x="138.5" y="-43.5" font-family="Times,serif" font-size="10.00">$&gt;()</text>
<text text-anchor="start" x="138.5" y="-32.5" font-family="Times,serif" font-size="10.00">state()</text>
<text text-anchor="start" x="138.5" y="-21.5" font-family="Times,serif" font-size="10.00">is_expired()</text>
<text text-anchor="start" x="150.5" y="-10.5" font-family="Times,serif" font-size="10.00"> &#160;&#160;&#160;&#160;&#160;&#160;&#160;&#160;&#160;&#160;&#160;</text>
<polygon fill="#00688b" stroke="#00688b" points="130.5,-57.5 130.5,-57.5 207.5,-57.5 207.5,-57.5 130.5,-57.5"/>
<path fill="none" stroke="#00688b" d="M142,0C142,0 195,0 195,0 201,0 207,-6 207,-12 207,-12 207,-75 207,-75 207,-81 201,-87 195,-87 195,-87 142,-87 142,-87 136,-87 130,-81 130,-75 130,-75 130,-12 130,-12 130,-6 136,0 142,0"/>
</g>
<!-- Reassembling&#45;&gt;Expired -->
<g id="edge4" class="edge">
<title>Reassembling&#45;&gt;Expired</title>
<path fill="none" stroke="red" d="M134.25,-137.7C139.08,-124.56 144.33,-110.26 149.24,-96.9"/>
<polygon fill="red" stroke="red" points="152.58,-97.97 152.75,-87.37 146.01,-95.55 152.58,-97.97"/>
<text text-anchor="middle" x="178" y="-108.8" font-family="Times,serif" font-size="14.00"> timeout </text>
</g>
</g>
</svg>
