<?xml version="1.0" encoding="UTF-8" standalone="no"?>
<!DOCTYPE svg PUBLIC "-//W3C//DTD SVG 1.1//EN"
 "http://www.w3.org/Graphics/SVG/1.1/DTD/svg11.dtd">
<!-- Generated by graphviz version 14.1.5 (20260411.2331)
 -->
<!-- Title: Job Pages: 1 -->
<svg width="697pt" height="1279pt"
 viewBox="0.00 0.00 697.00 1279.00" xmlns="http://www.w3.org/2000/svg" xmlns:xlink="http://www.w3.org/1999/xlink">
<g id="graph0" class="graph" transform="scale(1 1) rotate(0) translate(4 1275.4)">
<title>Job</title>
<polygon fill="white" stroke="none" points="-4,4 -4,-1275.4 692.64,-1275.4 692.64,4 -4,4"/>
<!-- Entry -->
<g id="node1" class="node">
<title>Entry</title>
<ellipse fill="black" stroke="#00688b" cx="107.75" cy="-1264.2" rx="7.2" ry="7.2"/>
</g>
<!-- Created -->
<g id="node2" class="node">
<title>Created</title>
<path fill="azure" stroke="none" d="M203.5,-1220C203.5,-1220 12,-1220 12,-1220 6,-1220 0,-1214 0,-1208 0,-1208 0,-1030 0,-1030 0,-1024 6,-1018 12,-1018 12,-1018 203.5,-1018 203.5,-1018 209.5,-1018 215.5,-1024 215.5,-1030 215.5,-1030 215.5,-1208 215.5,-1208 215.5,-1214 209.5,-1220 203.5,-1220"/>
<text xml:space="preserve" text-anchor="start" x="84.5" y="-1199.7" font-family="Times,serif" font-weight="bold" font-size="14.00">Created</text>
<text xml:space="preserve" text-anchor="start" x="8" y="-1174.5" font-family="Times,serif" font-size="10.00">spawn(cmd: String, args: Vec&lt;String&gt;)</text>
<text xml:space="preserve" text-anchor="start" x="8" y="-1163.25" font-family="Times,serif" font-size="10.00">spawn_detached(cmd: String, args: Vec&lt;String&gt;)</text>
<text xml:space="preserve" text-anchor="start" x="8" y="-1152" font-family="Times,serif" font-size="10.00">id()</text>
<text xml:space="preserve" text-anchor="start" x="8" y="-1140.75" font-family="Times,serif" font-size="10.00">pid()</text>
<text xml:space="preserve" text-anchor="start" x="8" y="-1129.5" font-family="Times,serif" font-size="10.00">cmd_str()</text>
<text xml:space="preserve" text-anchor="start" x="8" y="-1118.25" font-family="Times,serif" font-size="10.00">state_name()</text>
<text xml:space="preserve" text-anchor="start" x="8" y="-1107" font-family="Times,serif" font-size="10.00">exit_code()</text>
<text xml:space="preserve" text-anchor="start" x="8" y="-1095.75" font-family="Times,serif" font-size="10.00">is_done()</text>
<text xml:space="preserve" text-anchor="start" x="8" y="-1084.5" font-family="Times,serif" font-size="10.00">stop()</text>
<text xml:space="preserve" text-anchor="start" x="8" y="-1073.25" font-family="Times,serif" font-size="10.00">to_foreground()</text>
<text xml:space="preserve" text-anchor="start" x="8" y="-1062" font-family="Times,serif" font-size="10.00">to_background()</text>
<text xml:space="preserve" text-anchor="start" x="8" y="-1050.75" font-family="Times,serif" font-size="10.00">kill()</text>
<text xml:space="preserve" text-anchor="start" x="8" y="-1039.5" font-family="Times,serif" font-size="10.00">poll()</text>
<text xml:space="preserve" text-anchor="start" x="94.25" y="-1028.25" font-family="Times,serif" font-size="10.00"> &#160;&#160;&#160;&#160;&#160;&#160;&#160;&#160;&#160;&#160;&#160;</text>
<polygon fill="#00688b" stroke="#00688b" points="0,-1189.5 0,-1189.5 215.5,-1189.5 215.5,-1189.5 0,-1189.5"/>
<path fill="none" stroke="#00688b" d="M12,-1018C12,-1018 203.5,-1018 203.5,-1018 209.5,-1018 215.5,-1024 215.5,-1030 215.5,-1030 215.5,-1208 215.5,-1208 215.5,-1214 209.5,-1220 203.5,-1220 203.5,-1220 12,-1220 12,-1220 6,-1220 0,-1214 0,-1208 0,-1208 0,-1030 0,-1030 0,-1024 6,-1018 12,-1018"/>
</g>
<!-- Entry&#45;&gt;Created -->
<g id="edge1" class="edge">
<title>Entry&#45;&gt;Created</title>
<path fill="none" stroke="red" d="M107.75,-1256.67C107.75,-1250.97 107.75,-1241.92 107.75,-1231.13"/>
<polygon fill="red" stroke="red" points="111.25,-1231.33 107.75,-1221.33 104.25,-1231.33 111.25,-1231.33"/>
</g>
<!-- Foreground -->
<g id="node3" class="node">
<title>Foreground</title>
<path fill="azure" stroke="none" d="M547.5,-965.5C547.5,-965.5 356,-965.5 356,-965.5 350,-965.5 344,-959.5 344,-953.5 344,-953.5 344,-775.5 344,-775.5 344,-769.5 350,-763.5 356,-763.5 356,-763.5 547.5,-763.5 547.5,-763.5 553.5,-763.5 559.5,-769.5 559.5,-775.5 559.5,-775.5 559.5,-953.5 559.5,-953.5 559.5,-959.5 553.5,-965.5 547.5,-965.5"/>
<text xml:space="preserve" text-anchor="start" x="417.25" y="-945.2" font-family="Times,serif" font-weight="bold" font-size="14.00">Foreground</text>
<text xml:space="preserve" text-anchor="start" x="352" y="-920" font-family="Times,serif" font-size="10.00">poll()</text>
<text xml:space="preserve" text-anchor="start" x="352" y="-908.75" font-family="Times,serif" font-size="10.00">stop()</text>
<text xml:space="preserve" text-anchor="start" x="352" y="-897.5" font-family="Times,serif" font-size="10.00">to_background()</text>
<text xml:space="preserve" text-anchor="start" x="352" y="-886.25" font-family="Times,serif" font-size="10.00">kill()</text>
<text xml:space="preserve" text-anchor="start" x="352" y="-875" font-family="Times,serif" font-size="10.00">spawn(cmd: String, args: Vec&lt;String&gt;)</text>
<text xml:space="preserve" text-anchor="start" x="352" y="-863.75" font-family="Times,serif" font-size="10.00">spawn_detached(cmd: String, args: Vec&lt;String&gt;)</text>
<text xml:space="preserve" text-anchor="start" x="352" y="-852.5" font-family="Times,serif" font-size="10.00">to_foreground()</text>
<text xml:space="preserve" text-anchor="start" x="352" y="-841.25" font-family="Times,serif" font-size="10.00">id()</text>
<text xml:space="preserve" text-anchor="start" x="352" y="-830" font-family="Times,serif" font-size="10.00">pid()</text>
<text xml:space="preserve" text-anchor="start" x="352" y="-818.75" font-family="Times,serif" font-size="10.00">cmd_str()</text>
<text xml:space="preserve" text-anchor="start" x="352" y="-807.5" font-family="Times,serif" font-size="10.00">state_name()</text>
<text xml:space="preserve" text-anchor="start" x="352" y="-796.25" font-family="Times,serif" font-size="10.00">exit_code()</text>
<text xml:space="preserve" text-anchor="start" x="352" y="-785" font-family="Times,serif" font-size="10.00">is_done()</text>
<text xml:space="preserve" text-anchor="start" x="438.25" y="-773.75" font-family="Times,serif" font-size="10.00"> &#160;&#160;&#160;&#160;&#160;&#160;&#160;&#160;&#160;&#160;&#160;</text>
<polygon fill="#00688b" stroke="#00688b" points="344,-935 344,-935 559.5,-935 559.5,-935 344,-935"/>
<path fill="none" stroke="#00688b" d="M356,-763.5C356,-763.5 547.5,-763.5 547.5,-763.5 553.5,-763.5 559.5,-769.5 559.5,-775.5 559.5,-775.5 559.5,-953.5 559.5,-953.5 559.5,-959.5 553.5,-965.5 547.5,-965.5 547.5,-965.5 356,-965.5 356,-965.5 350,-965.5 344,-959.5 344,-953.5 344,-953.5 344,-775.5 344,-775.5 344,-769.5 350,-763.5 356,-763.5"/>
</g>
<!-- Created&#45;&gt;Foreground -->
<g id="edge2" class="edge">
<title>Created&#45;&gt;Foreground</title>
<path fill="none" stroke="red" d="M215.18,-1039.15C253.23,-1011.22 296.22,-979.66 335.01,-951.19"/>
<polygon fill="red" stroke="red" points="337.04,-954.04 343.03,-945.3 332.9,-948.4 337.04,-954.04"/>
<text xml:space="preserve" text-anchor="middle" x="311.06" y="-986.7" font-family="Times,serif" font-size="14.00"> spawn </text>
</g>
<!-- Background -->
<g id="node4" class="node">
<title>Background</title>
<path fill="azure" stroke="none" d="M403.5,-711C403.5,-711 212,-711 212,-711 206,-711 200,-705 200,-699 200,-699 200,-521 200,-521 200,-515 206,-509 212,-509 212,-509 403.5,-509 403.5,-509 409.5,-509 415.5,-515 415.5,-521 415.5,-521 415.5,-699 415.5,-699 415.5,-705 409.5,-711 403.5,-711"/>
<text xml:space="preserve" text-anchor="start" x="272.12" y="-690.7" font-family="Times,serif" font-weight="bold" font-size="14.00">Background</text>
<text xml:space="preserve" text-anchor="start" x="208" y="-665.5" font-family="Times,serif" font-size="10.00">poll()</text>
<text xml:space="preserve" text-anchor="start" x="208" y="-654.25" font-family="Times,serif" font-size="10.00">stop()</text>
<text xml:space="preserve" text-anchor="start" x="208" y="-643" font-family="Times,serif" font-size="10.00">to_foreground()</text>
<text xml:space="preserve" text-anchor="start" x="208" y="-631.75" font-family="Times,serif" font-size="10.00">kill()</text>
<text xml:space="preserve" text-anchor="start" x="208" y="-620.5" font-family="Times,serif" font-size="10.00">spawn(cmd: String, args: Vec&lt;String&gt;)</text>
<text xml:space="preserve" text-anchor="start" x="208" y="-609.25" font-family="Times,serif" font-size="10.00">spawn_detached(cmd: String, args: Vec&lt;String&gt;)</text>
<text xml:space="preserve" text-anchor="start" x="208" y="-598" font-family="Times,serif" font-size="10.00">to_background()</text>
<text xml:space="preserve" text-anchor="start" x="208" y="-586.75" font-family="Times,serif" font-size="10.00">id()</text>
<text xml:space="preserve" text-anchor="start" x="208" y="-575.5" font-family="Times,serif" font-size="10.00">pid()</text>
<text xml:space="preserve" text-anchor="start" x="208" y="-564.25" font-family="Times,serif" font-size="10.00">cmd_str()</text>
<text xml:space="preserve" text-anchor="start" x="208" y="-553" font-family="Times,serif" font-size="10.00">state_name()</text>
<text xml:space="preserve" text-anchor="start" x="208" y="-541.75" font-family="Times,serif" font-size="10.00">exit_code()</text>
<text xml:space="preserve" text-anchor="start" x="208" y="-530.5" font-family="Times,serif" font-size="10.00">is_done()</text>
<text xml:space="preserve" text-anchor="start" x="294.25" y="-519.25" font-family="Times,serif" font-size="10.00"> &#160;&#160;&#160;&#160;&#160;&#160;&#160;&#160;&#160;&#160;&#160;</text>
<polygon fill="#00688b" stroke="#00688b" points="200,-680.5 200,-680.5 415.5,-680.5 415.5,-680.5 200,-680.5"/>
<path fill="none" stroke="#00688b" d="M212,-509C212,-509 403.5,-509 403.5,-509 409.5,-509 415.5,-515 415.5,-521 415.5,-521 415.5,-699 415.5,-699 415.5,-705 409.5,-711 403.5,-711 403.5,-711 212,-711 212,-711 206,-711 200,-705 200,-699 200,-699 200,-521 200,-521 200,-515 206,-509 212,-509"/>
</g>
<!-- Created&#45;&gt;Background -->
<g id="edge4" class="edge">
<title>Created&#45;&gt;Background</title>
<path fill="none" stroke="red" d="M138.32,-1018.07C163.74,-938.53 202.5,-825.01 244.75,-729 245.9,-726.4 247.08,-723.77 248.29,-721.13"/>
<polygon fill="red" stroke="red" points="251.36,-722.82 252.44,-712.28 245.02,-719.85 251.36,-722.82"/>
<text xml:space="preserve" text-anchor="middle" x="276.12" y="-859.45" font-family="Times,serif" font-size="14.00"> spawn_detached </text>
</g>
<!-- Done -->
<g id="node6" class="node">
<title>Done</title>
<path fill="azure" stroke="none" d="M357.5,-202C357.5,-202 166,-202 166,-202 160,-202 154,-196 154,-190 154,-190 154,-12 154,-12 154,-6 160,0 166,0 166,0 357.5,0 357.5,0 363.5,0 369.5,-6 369.5,-12 369.5,-12 369.5,-190 369.5,-190 369.5,-196 363.5,-202 357.5,-202"/>
<text xml:space="preserve" text-anchor="start" x="246.75" y="-181.7" font-family="Times,serif" font-weight="bold" font-size="14.00">Done</text>
<text xml:space="preserve" text-anchor="start" x="162" y="-156.5" font-family="Times,serif" font-size="10.00">spawn(cmd: String, args: Vec&lt;String&gt;)</text>
<text xml:space="preserve" text-anchor="start" x="162" y="-145.25" font-family="Times,serif" font-size="10.00">spawn_detached(cmd: String, args: Vec&lt;String&gt;)</text>
<text xml:space="preserve" text-anchor="start" x="162" y="-134" font-family="Times,serif" font-size="10.00">stop()</text>
<text xml:space="preserve" text-anchor="start" x="162" y="-122.75" font-family="Times,serif" font-size="10.00">to_foreground()</text>
<text xml:space="preserve" text-anchor="start" x="162" y="-111.5" font-family="Times,serif" font-size="10.00">to_background()</text>
<text xml:space="preserve" text-anchor="start" x="162" y="-100.25" font-family="Times,serif" font-size="10.00">kill()</text>
<text xml:space="preserve" text-anchor="start" x="162" y="-89" font-family="Times,serif" font-size="10.00">poll()</text>
<text xml:space="preserve" text-anchor="start" x="162" y="-77.75" font-family="Times,serif" font-size="10.00">id()</text>
<text xml:space="preserve" text-anchor="start" x="162" y="-66.5" font-family="Times,serif" font-size="10.00">pid()</text>
<text xml:space="preserve" text-anchor="start" x="162" y="-55.25" font-family="Times,serif" font-size="10.00">cmd_str()</text>
<text xml:space="preserve" text-anchor="start" x="162" y="-44" font-family="Times,serif" font-size="10.00">state_name()</text>
<text xml:space="preserve" text-anchor="start" x="162" y="-32.75" font-family="Times,serif" font-size="10.00">exit_code()</text>
<text xml:space="preserve" text-anchor="start" x="162" y="-21.5" font-family="Times,serif" font-size="10.00">is_done()</text>
<text xml:space="preserve" text-anchor="start" x="248.25" y="-10.25" font-family="Times,serif" font-size="10.00"> &#160;&#160;&#160;&#160;&#160;&#160;&#160;&#160;&#160;&#160;&#160;</text>
<polygon fill="#00688b" stroke="#00688b" points="154,-171.5 154,-171.5 369.5,-171.5 369.5,-171.5 154,-171.5"/>
<path fill="none" stroke="#00688b" d="M166,0C166,0 357.5,0 357.5,0 363.5,0 369.5,-6 369.5,-12 369.5,-12 369.5,-190 369.5,-190 369.5,-196 363.5,-202 357.5,-202 357.5,-202 166,-202 166,-202 160,-202 154,-196 154,-190 154,-190 154,-12 154,-12 154,-6 160,0 166,0"/>
</g>
<!-- Created&#45;&gt;Done -->
<g id="edge3" class="edge">
<title>Created&#45;&gt;Done</title>
<path fill="none" stroke="red" d="M47.68,-1018.09C26,-973.07 6.75,-918.26 6.75,-865.5 6.75,-865.5 6.75,-865.5 6.75,-354.5 6.75,-288.3 26.57,-269.3 70.75,-220 91.49,-196.86 117.83,-176.69 144.27,-159.89"/>
<polygon fill="red" stroke="red" points="146.07,-162.89 152.72,-154.65 142.38,-156.94 146.07,-162.89"/>
<text xml:space="preserve" text-anchor="middle" x="27.75" y="-604.95" font-family="Times,serif" font-size="14.00"> spawn </text>
</g>
<!-- Created&#45;&gt;Done -->
<g id="edge5" class="edge">
<title>Created&#45;&gt;Done</title>
<path fill="none" stroke="red" d="M94.44,-1018.05C89.35,-971.73 84.75,-915.9 84.75,-865.5 84.75,-865.5 84.75,-865.5 84.75,-354.5 84.75,-299.77 112.98,-248.49 146.88,-206.63"/>
<polygon fill="red" stroke="red" points="149.52,-208.93 153.23,-199 144.14,-204.45 149.52,-208.93"/>
<text xml:space="preserve" text-anchor="middle" x="133.12" y="-604.95" font-family="Times,serif" font-size="14.00"> spawn_detached </text>
</g>
<!-- Foreground&#45;&gt;Background -->
<g id="edge8" class="edge">
<title>Foreground&#45;&gt;Background</title>
<path fill="none" stroke="red" d="M360.51,-763.84C356.47,-757.8 352.68,-751.67 349.25,-745.5 344.99,-737.84 341.11,-729.69 337.59,-721.33"/>
<polygon fill="red" stroke="red" points="340.85,-720.04 333.88,-712.06 334.35,-722.65 340.85,-720.04"/>
<text xml:space="preserve" text-anchor="middle" x="393.5" y="-732.2" font-family="Times,serif" font-size="14.00"> to_background </text>
</g>
<!-- Stopped -->
<g id="node5" class="node">
<title>Stopped</title>
<path fill="azure" stroke="none" d="M508.5,-456.5C508.5,-456.5 317,-456.5 317,-456.5 311,-456.5 305,-450.5 305,-444.5 305,-444.5 305,-266.5 305,-266.5 305,-260.5 311,-254.5 317,-254.5 317,-254.5 508.5,-254.5 508.5,-254.5 514.5,-254.5 520.5,-260.5 520.5,-266.5 520.5,-266.5 520.5,-444.5 520.5,-444.5 520.5,-450.5 514.5,-456.5 508.5,-456.5"/>
<text xml:space="preserve" text-anchor="start" x="389.12" y="-436.2" font-family="Times,serif" font-weight="bold" font-size="14.00">Stopped</text>
<text xml:space="preserve" text-anchor="start" x="313" y="-411" font-family="Times,serif" font-size="10.00">to_foreground()</text>
<text xml:space="preserve" text-anchor="start" x="313" y="-399.75" font-family="Times,serif" font-size="10.00">to_background()</text>
<text xml:space="preserve" text-anchor="start" x="313" y="-388.5" font-family="Times,serif" font-size="10.00">kill()</text>
<text xml:space="preserve" text-anchor="start" x="313" y="-377.25" font-family="Times,serif" font-size="10.00">poll()</text>
<text xml:space="preserve" text-anchor="start" x="313" y="-366" font-family="Times,serif" font-size="10.00">spawn(cmd: String, args: Vec&lt;String&gt;)</text>
<text xml:space="preserve" text-anchor="start" x="313" y="-354.75" font-family="Times,serif" font-size="10.00">spawn_detached(cmd: String, args: Vec&lt;String&gt;)</text>
<text xml:space="preserve" text-anchor="start" x="313" y="-343.5" font-family="Times,serif" font-size="10.00">stop()</text>
<text xml:space="preserve" text-anchor="start" x="313" y="-332.25" font-family="Times,serif" font-size="10.00">id()</text>
<text xml:space="preserve" text-anchor="start" x="313" y="-321" font-family="Times,serif" font-size="10.00">pid()</text>
<text xml:space="preserve" text-anchor="start" x="313" y="-309.75" font-family="Times,serif" font-size="10.00">cmd_str()</text>
<text xml:space="preserve" text-anchor="start" x="313" y="-298.5" font-family="Times,serif" font-size="10.00">state_name()</text>
<text xml:space="preserve" text-anchor="start" x="313" y="-287.25" font-family="Times,serif" font-size="10.00">exit_code()</text>
<text xml:space="preserve" text-anchor="start" x="313" y="-276" font-family="Times,serif" font-size="10.00">is_done()</text>
<text xml:space="preserve" text-anchor="start" x="399.25" y="-264.75" font-family="Times,serif" font-size="10.00"> &#160;&#160;&#160;&#160;&#160;&#160;&#160;&#160;&#160;&#160;&#160;</text>
<polygon fill="#00688b" stroke="#00688b" points="305,-426 305,-426 520.5,-426 520.5,-426 305,-426"/>
<path fill="none" stroke="#00688b" d="M317,-254.5C317,-254.5 508.5,-254.5 508.5,-254.5 514.5,-254.5 520.5,-260.5 520.5,-266.5 520.5,-266.5 520.5,-444.5 520.5,-444.5 520.5,-450.5 514.5,-456.5 508.5,-456.5 508.5,-456.5 317,-456.5 317,-456.5 311,-456.5 305,-450.5 305,-444.5 305,-444.5 305,-266.5 305,-266.5 305,-260.5 311,-254.5 317,-254.5"/>
</g>
<!-- Foreground&#45;&gt;Stopped -->
<g id="edge7" class="edge">
<title>Foreground&#45;&gt;Stopped</title>
<path fill="none" stroke="red" d="M452.89,-763.59C452.64,-684.79 449.77,-572.26 437.75,-474.5 437.48,-472.28 437.18,-470.04 436.87,-467.78"/>
<polygon fill="red" stroke="red" points="440.33,-467.27 435.39,-457.9 433.41,-468.31 440.33,-467.27"/>
<text xml:space="preserve" text-anchor="middle" x="467.28" y="-604.95" font-family="Times,serif" font-size="14.00"> stop </text>
</g>
<!-- Foreground&#45;&gt;Done -->
<g id="edge6" class="edge">
<title>Foreground&#45;&gt;Done</title>
<path fill="none" stroke="red" d="M556.57,-763.52C568.46,-747.15 578.79,-729.47 585.75,-711 657.85,-519.73 651.01,-419.06 529.75,-254.5 492.46,-203.89 432.99,-167.62 379.53,-143.19"/>
<polygon fill="red" stroke="red" points="381.22,-140.11 370.66,-139.23 378.36,-146.5 381.22,-140.11"/>
<text xml:space="preserve" text-anchor="middle" x="645.89" y="-477.7" font-family="Times,serif" font-size="14.00"> poll </text>
</g>
<!-- Foreground&#45;&gt;Done -->
<g id="edge9" class="edge">
<title>Foreground&#45;&gt;Done</title>
<path fill="none" stroke="red" d="M559.24,-788.63C583.82,-766.43 607.25,-740.15 622.75,-711 672.74,-617.01 676.65,-579.77 660.75,-474.5 645.47,-373.31 659.6,-331.99 592.75,-254.5 537.91,-190.94 450.99,-152.29 379.99,-129.82"/>
<polygon fill="red" stroke="red" points="381.22,-126.53 370.63,-126.93 379.15,-133.22 381.22,-126.53"/>
<text xml:space="preserve" text-anchor="middle" x="675.89" y="-477.7" font-family="Times,serif" font-size="14.00"> kill </text>
</g>
<!-- Background&#45;&gt;Foreground -->
<g id="edge12" class="edge">
<title>Background&#45;&gt;Foreground</title>
<path fill="none" stroke="red" d="M247.29,-710.87C246.06,-722.77 247.79,-734.57 254,-745.5 264.08,-763.25 297.59,-785.62 334.23,-806.09"/>
<polygon fill="red" stroke="red" points="332.33,-809.05 342.78,-810.8 335.71,-802.92 332.33,-809.05"/>
<text xml:space="preserve" text-anchor="middle" x="296.38" y="-732.2" font-family="Times,serif" font-size="14.00"> to_foreground </text>
</g>
<!-- Background&#45;&gt;Stopped -->
<g id="edge11" class="edge">
<title>Background&#45;&gt;Stopped</title>
<path fill="none" stroke="red" d="M288.25,-509.3C288.98,-497.31 291.24,-485.45 295.75,-474.5 296.94,-471.6 298.25,-468.73 299.65,-465.9"/>
<polygon fill="red" stroke="red" points="302.71,-467.6 304.41,-457.14 296.56,-464.25 302.71,-467.6"/>
<text xml:space="preserve" text-anchor="middle" x="310.75" y="-477.7" font-family="Times,serif" font-size="14.00"> stop </text>
</g>
<!-- Background&#45;&gt;Done -->
<g id="edge10" class="edge">
<title>Background&#45;&gt;Done</title>
<path fill="none" stroke="red" d="M233.64,-509.03C224.43,-492.23 216.44,-474.41 211.25,-456.5 186.26,-370.27 196.96,-343.13 211.25,-254.5 213.46,-240.81 216.71,-226.69 220.52,-212.82"/>
<polygon fill="red" stroke="red" points="223.88,-213.79 223.27,-203.22 217.16,-211.87 223.88,-213.79"/>
<text xml:space="preserve" text-anchor="middle" x="225.5" y="-350.45" font-family="Times,serif" font-size="14.00"> poll </text>
</g>
<!-- Background&#45;&gt;Done -->
<g id="edge13" class="edge">
<title>Background&#45;&gt;Done</title>
<path fill="none" stroke="red" d="M279.91,-509.1C276,-491.69 272.54,-473.66 270.25,-456.5 259.46,-375.57 257.57,-283.36 258.25,-213.27"/>
<polygon fill="red" stroke="red" points="261.75,-213.33 258.37,-203.29 254.75,-213.25 261.75,-213.33"/>
<text xml:space="preserve" text-anchor="middle" x="283" y="-350.45" font-family="Times,serif" font-size="14.00"> kill </text>
</g>
<!-- Stopped&#45;&gt;Foreground -->
<g id="edge14" class="edge">
<title>Stopped&#45;&gt;Foreground</title>
<path fill="none" stroke="red" d="M468.97,-456.28C476.32,-473.4 482.7,-491.36 486.75,-509 505.22,-589.38 494.95,-682.22 480.87,-752.73"/>
<polygon fill="red" stroke="red" points="477.47,-751.86 478.88,-762.36 484.33,-753.27 477.47,-751.86"/>
<text xml:space="preserve" text-anchor="middle" x="539.1" y="-604.95" font-family="Times,serif" font-size="14.00"> to_foreground </text>
</g>
<!-- Stopped&#45;&gt;Background -->
<g id="edge15" class="edge">
<title>Stopped&#45;&gt;Background</title>
<path fill="none" stroke="red" d="M357.35,-456.28C354.49,-462.39 351.77,-468.49 349.25,-474.5 346.03,-482.18 342.94,-490.2 339.99,-498.33"/>
<polygon fill="red" stroke="red" points="336.73,-497.04 336.7,-507.63 343.34,-499.37 336.73,-497.04"/>
<text xml:space="preserve" text-anchor="middle" x="393.5" y="-477.7" font-family="Times,serif" font-size="14.00"> to_background </text>
</g>
<!-- Stopped&#45;&gt;Done -->
<g id="edge16" class="edge">
<title>Stopped&#45;&gt;Done</title>
<path fill="none" stroke="red" d="M353.07,-254.71C344.63,-240.59 335.92,-226.02 327.37,-211.73"/>
<polygon fill="red" stroke="red" points="330.4,-209.98 322.27,-203.2 324.4,-213.57 330.4,-209.98"/>
<text xml:space="preserve" text-anchor="middle" x="354.53" y="-223.2" font-family="Times,serif" font-size="14.00"> kill </text>
</g>
</g>
</svg>
