<?xml version="1.0" encoding="UTF-8" standalone="no"?>
<!DOCTYPE svg PUBLIC "-//W3C//DTD SVG 1.1//EN"
 "http://www.w3.org/Graphics/SVG/1.1/DTD/svg11.dtd">
<!-- Generated by graphviz version 14.1.5 (20260411.2331)
 -->
<!-- Title: Job Pages: 1 -->
<svg width="587pt" height="751pt"
 viewBox="0.00 0.00 587.00 751.00" xmlns="http://www.w3.org/2000/svg" xmlns:xlink="http://www.w3.org/1999/xlink">
<g id="graph0" class="graph" transform="scale(1 1) rotate(0) translate(4 746.65)">
<title>Job</title>
<polygon fill="white" stroke="none" points="-4,4 -4,-746.65 582.62,-746.65 582.62,4 -4,4"/>
<!-- Entry -->
<g id="node1" class="node">
<title>Entry</title>
<ellipse fill="black" stroke="#00688b" cx="107.75" cy="-735.45" rx="7.2" ry="7.2"/>
</g>
<!-- Created -->
<g id="node2" class="node">
<title>Created</title>
<path fill="azure" stroke="none" d="M203.5,-691.25C203.5,-691.25 12,-691.25 12,-691.25 6,-691.25 0,-685.25 0,-679.25 0,-679.25 0,-625 0,-625 0,-619 6,-613 12,-613 12,-613 203.5,-613 203.5,-613 209.5,-613 215.5,-619 215.5,-625 215.5,-625 215.5,-679.25 215.5,-679.25 215.5,-685.25 209.5,-691.25 203.5,-691.25"/>
<text xml:space="preserve" text-anchor="start" x="84.5" y="-670.95" font-family="Times,serif" font-weight="bold" font-size="14.00">Created</text>
<text xml:space="preserve" text-anchor="start" x="8" y="-645.75" font-family="Times,serif" font-size="10.00">spawn(cmd: String, args: Vec&lt;String&gt;)</text>
<text xml:space="preserve" text-anchor="start" x="8" y="-634.5" font-family="Times,serif" font-size="10.00">spawn_detached(cmd: String, args: Vec&lt;String&gt;)</text>
<text xml:space="preserve" text-anchor="start" x="94.25" y="-623.25" font-family="Times,serif" font-size="10.00"> &#160;&#160;&#160;&#160;&#160;&#160;&#160;&#160;&#160;&#160;&#160;</text>
<polygon fill="#00688b" stroke="#00688b" points="0,-660.75 0,-660.75 215.5,-660.75 215.5,-660.75 0,-660.75"/>
<path fill="none" stroke="#00688b" d="M12,-613C12,-613 203.5,-613 203.5,-613 209.5,-613 215.5,-619 215.5,-625 215.5,-625 215.5,-679.25 215.5,-679.25 215.5,-685.25 209.5,-691.25 203.5,-691.25 203.5,-691.25 12,-691.25 12,-691.25 6,-691.25 0,-685.25 0,-679.25 0,-679.25 0,-625 0,-625 0,-619 6,-613 12,-613"/>
</g>
<!-- Entry&#45;&gt;Created -->
<g id="edge1" class="edge">
<title>Entry&#45;&gt;Created</title>
<path fill="none" stroke="red" d="M107.75,-727.79C107.75,-721.78 107.75,-712.32 107.75,-702.13"/>
<polygon fill="red" stroke="red" points="111.25,-702.44 107.75,-692.44 104.25,-702.44 111.25,-702.44"/>
</g>
<!-- Foreground -->
<g id="node3" class="node">
<title>Foreground</title>
<path fill="azure" stroke="none" d="M413.25,-560.5C413.25,-560.5 352.25,-560.5 352.25,-560.5 346.25,-560.5 340.25,-554.5 340.25,-548.5 340.25,-548.5 340.25,-460.5 340.25,-460.5 340.25,-454.5 346.25,-448.5 352.25,-448.5 352.25,-448.5 413.25,-448.5 413.25,-448.5 419.25,-448.5 425.25,-454.5 425.25,-460.5 425.25,-460.5 425.25,-548.5 425.25,-548.5 425.25,-554.5 419.25,-560.5 413.25,-560.5"/>
<text xml:space="preserve" text-anchor="start" x="348.25" y="-540.2" font-family="Times,serif" font-weight="bold" font-size="14.00">Foreground</text>
<text xml:space="preserve" text-anchor="start" x="348.25" y="-515" font-family="Times,serif" font-size="10.00">poll()</text>
<text xml:space="preserve" text-anchor="start" x="348.25" y="-503.75" font-family="Times,serif" font-size="10.00">stop()</text>
<text xml:space="preserve" text-anchor="start" x="348.25" y="-492.5" font-family="Times,serif" font-size="10.00">to_background()</text>
<text xml:space="preserve" text-anchor="start" x="348.25" y="-481.25" font-family="Times,serif" font-size="10.00">kill()</text>
<text xml:space="preserve" text-anchor="start" x="348.25" y="-470" font-family="Times,serif" font-size="10.00">state_name()</text>
<text xml:space="preserve" text-anchor="start" x="368.88" y="-458.75" font-family="Times,serif" font-size="10.00"> &#160;&#160;&#160;&#160;&#160;&#160;&#160;&#160;&#160;&#160;&#160;</text>
<polygon fill="#00688b" stroke="#00688b" points="340.25,-530 340.25,-530 425.25,-530 425.25,-530 340.25,-530"/>
<path fill="none" stroke="#00688b" d="M352.25,-448.5C352.25,-448.5 413.25,-448.5 413.25,-448.5 419.25,-448.5 425.25,-454.5 425.25,-460.5 425.25,-460.5 425.25,-548.5 425.25,-548.5 425.25,-554.5 419.25,-560.5 413.25,-560.5 413.25,-560.5 352.25,-560.5 352.25,-560.5 346.25,-560.5 340.25,-554.5 340.25,-548.5 340.25,-548.5 340.25,-460.5 340.25,-460.5 340.25,-454.5 346.25,-448.5 352.25,-448.5"/>
</g>
<!-- Created&#45;&gt;Foreground -->
<g id="edge2" class="edge">
<title>Created&#45;&gt;Foreground</title>
<path fill="none" stroke="red" d="M179.64,-613.05C226.94,-588.01 287.75,-555.8 330.46,-533.19"/>
<polygon fill="red" stroke="red" points="331.83,-536.42 339.03,-528.65 328.56,-530.24 331.83,-536.42"/>
<text xml:space="preserve" text-anchor="middle" x="258" y="-581.7" font-family="Times,serif" font-size="14.00"> spawn </text>
</g>
<!-- Background -->
<g id="node4" class="node">
<title>Background</title>
<path fill="azure" stroke="none" d="M274.38,-396C274.38,-396 211.12,-396 211.12,-396 205.12,-396 199.12,-390 199.12,-384 199.12,-384 199.12,-296 199.12,-296 199.12,-290 205.12,-284 211.12,-284 211.12,-284 274.38,-284 274.38,-284 280.38,-284 286.38,-290 286.38,-296 286.38,-296 286.38,-384 286.38,-384 286.38,-390 280.38,-396 274.38,-396"/>
<text xml:space="preserve" text-anchor="start" x="207.12" y="-375.7" font-family="Times,serif" font-weight="bold" font-size="14.00">Background</text>
<text xml:space="preserve" text-anchor="start" x="207.12" y="-350.5" font-family="Times,serif" font-size="10.00">poll()</text>
<text xml:space="preserve" text-anchor="start" x="207.12" y="-339.25" font-family="Times,serif" font-size="10.00">stop()</text>
<text xml:space="preserve" text-anchor="start" x="207.12" y="-328" font-family="Times,serif" font-size="10.00">to_foreground()</text>
<text xml:space="preserve" text-anchor="start" x="207.12" y="-316.75" font-family="Times,serif" font-size="10.00">kill()</text>
<text xml:space="preserve" text-anchor="start" x="207.12" y="-305.5" font-family="Times,serif" font-size="10.00">state_name()</text>
<text xml:space="preserve" text-anchor="start" x="225.88" y="-294.25" font-family="Times,serif" font-size="10.00"> &#160;&#160;&#160;&#160;&#160;&#160;&#160;&#160;&#160;&#160;&#160;</text>
<polygon fill="#00688b" stroke="#00688b" points="199.12,-365.5 199.12,-365.5 286.38,-365.5 286.38,-365.5 199.12,-365.5"/>
<path fill="none" stroke="#00688b" d="M211.12,-284C211.12,-284 274.38,-284 274.38,-284 280.38,-284 286.38,-290 286.38,-296 286.38,-296 286.38,-384 286.38,-384 286.38,-390 280.38,-396 274.38,-396 274.38,-396 211.12,-396 211.12,-396 205.12,-396 199.12,-390 199.12,-384 199.12,-384 199.12,-296 199.12,-296 199.12,-290 205.12,-284 211.12,-284"/>
</g>
<!-- Created&#45;&gt;Background -->
<g id="edge4" class="edge">
<title>Created&#45;&gt;Background</title>
<path fill="none" stroke="red" d="M112.8,-613.27C120.51,-564.61 138.34,-478.68 174.75,-414 179.56,-405.45 185.58,-397.1 192.03,-389.29"/>
<polygon fill="red" stroke="red" points="194.56,-391.72 198.46,-381.87 189.27,-387.13 194.56,-391.72"/>
<text xml:space="preserve" text-anchor="middle" x="205.19" y="-499.45" font-family="Times,serif" font-size="14.00"> spawn_detached </text>
</g>
<!-- Done -->
<g id="node6" class="node">
<title>Done</title>
<path fill="azure" stroke="none" d="M217.62,-78.25C217.62,-78.25 173.88,-78.25 173.88,-78.25 167.88,-78.25 161.88,-72.25 161.88,-66.25 161.88,-66.25 161.88,-12 161.88,-12 161.88,-6 167.88,0 173.88,0 173.88,0 217.62,0 217.62,0 223.62,0 229.62,-6 229.62,-12 229.62,-12 229.62,-66.25 229.62,-66.25 229.62,-72.25 223.62,-78.25 217.62,-78.25"/>
<text xml:space="preserve" text-anchor="start" x="180.75" y="-57.95" font-family="Times,serif" font-weight="bold" font-size="14.00">Done</text>
<text xml:space="preserve" text-anchor="start" x="169.88" y="-32.75" font-family="Times,serif" font-size="10.00">is_done()</text>
<text xml:space="preserve" text-anchor="start" x="169.88" y="-21.5" font-family="Times,serif" font-size="10.00">state_name()</text>
<text xml:space="preserve" text-anchor="start" x="182.25" y="-10.25" font-family="Times,serif" font-size="10.00"> &#160;&#160;&#160;&#160;&#160;&#160;&#160;&#160;&#160;&#160;&#160;</text>
<polygon fill="#00688b" stroke="#00688b" points="161.88,-47.75 161.88,-47.75 229.62,-47.75 229.62,-47.75 161.88,-47.75"/>
<path fill="none" stroke="#00688b" d="M173.88,0C173.88,0 217.62,0 217.62,0 223.62,0 229.62,-6 229.62,-12 229.62,-12 229.62,-66.25 229.62,-66.25 229.62,-72.25 223.62,-78.25 217.62,-78.25 217.62,-78.25 173.88,-78.25 173.88,-78.25 167.88,-78.25 161.88,-72.25 161.88,-66.25 161.88,-66.25 161.88,-12 161.88,-12 161.88,-6 167.88,0 173.88,0"/>
</g>
<!-- Created&#45;&gt;Done -->
<g id="edge3" class="edge">
<title>Created&#45;&gt;Done</title>
<path fill="none" stroke="red" d="M62.27,-613.01C35.46,-586.11 6.75,-547.5 6.75,-505.5 6.75,-505.5 6.75,-505.5 6.75,-180.12 6.75,-108.54 95.39,-69.34 151.26,-51.75"/>
<polygon fill="red" stroke="red" points="151.95,-55.19 160.51,-48.95 149.93,-48.49 151.95,-55.19"/>
<text xml:space="preserve" text-anchor="middle" x="27.75" y="-334.95" font-family="Times,serif" font-size="14.00"> spawn </text>
</g>
<!-- Created&#45;&gt;Done -->
<g id="edge5" class="edge">
<title>Created&#45;&gt;Done</title>
<path fill="none" stroke="red" d="M98.4,-613.06C92.03,-583.83 84.75,-542.36 84.75,-505.5 84.75,-505.5 84.75,-505.5 84.75,-180.12 84.75,-134.25 121.8,-94.65 153.09,-69.39"/>
<polygon fill="red" stroke="red" points="155.21,-72.17 160.95,-63.27 150.91,-66.65 155.21,-72.17"/>
<text xml:space="preserve" text-anchor="middle" x="133.12" y="-334.95" font-family="Times,serif" font-size="14.00"> spawn_detached </text>
</g>
<!-- Foreground&#45;&gt;Background -->
<g id="edge8" class="edge">
<title>Foreground&#45;&gt;Background</title>
<path fill="none" stroke="red" d="M340.31,-480.76C319.97,-468.15 296.55,-450.89 280.25,-430.5 274.35,-423.12 269.24,-414.68 264.85,-406"/>
<polygon fill="red" stroke="red" points="268.1,-404.68 260.67,-397.12 261.76,-407.66 268.1,-404.68"/>
<text xml:space="preserve" text-anchor="middle" x="324.5" y="-417.2" font-family="Times,serif" font-size="14.00"> to_background </text>
</g>
<!-- Stopped -->
<g id="node5" class="node">
<title>Stopped</title>
<path fill="azure" stroke="none" d="M311.88,-231.5C311.88,-231.5 251.62,-231.5 251.62,-231.5 245.62,-231.5 239.62,-225.5 239.62,-219.5 239.62,-219.5 239.62,-142.75 239.62,-142.75 239.62,-136.75 245.62,-130.75 251.62,-130.75 251.62,-130.75 311.88,-130.75 311.88,-130.75 317.88,-130.75 323.88,-136.75 323.88,-142.75 323.88,-142.75 323.88,-219.5 323.88,-219.5 323.88,-225.5 317.88,-231.5 311.88,-231.5"/>
<text xml:space="preserve" text-anchor="start" x="258.12" y="-211.2" font-family="Times,serif" font-weight="bold" font-size="14.00">Stopped</text>
<text xml:space="preserve" text-anchor="start" x="247.62" y="-186" font-family="Times,serif" font-size="10.00">to_foreground()</text>
<text xml:space="preserve" text-anchor="start" x="247.62" y="-174.75" font-family="Times,serif" font-size="10.00">to_background()</text>
<text xml:space="preserve" text-anchor="start" x="247.62" y="-163.5" font-family="Times,serif" font-size="10.00">kill()</text>
<text xml:space="preserve" text-anchor="start" x="247.62" y="-152.25" font-family="Times,serif" font-size="10.00">state_name()</text>
<text xml:space="preserve" text-anchor="start" x="268.25" y="-141" font-family="Times,serif" font-size="10.00"> &#160;&#160;&#160;&#160;&#160;&#160;&#160;&#160;&#160;&#160;&#160;</text>
<polygon fill="#00688b" stroke="#00688b" points="239.62,-201 239.62,-201 323.88,-201 323.88,-201 239.62,-201"/>
<path fill="none" stroke="#00688b" d="M251.62,-130.75C251.62,-130.75 311.88,-130.75 311.88,-130.75 317.88,-130.75 323.88,-136.75 323.88,-142.75 323.88,-142.75 323.88,-219.5 323.88,-219.5 323.88,-225.5 317.88,-231.5 311.88,-231.5 311.88,-231.5 251.62,-231.5 251.62,-231.5 245.62,-231.5 239.62,-225.5 239.62,-219.5 239.62,-219.5 239.62,-142.75 239.62,-142.75 239.62,-136.75 245.62,-130.75 251.62,-130.75"/>
</g>
<!-- Foreground&#45;&gt;Stopped -->
<g id="edge7" class="edge">
<title>Foreground&#45;&gt;Stopped</title>
<path fill="none" stroke="red" d="M388.15,-448.54C390.98,-394.83 388.65,-312.23 356.75,-249.5 350.74,-237.68 341.71,-226.95 331.99,-217.71"/>
<polygon fill="red" stroke="red" points="334.62,-215.36 324.83,-211.31 329.95,-220.58 334.62,-215.36"/>
<text xml:space="preserve" text-anchor="middle" x="403.64" y="-334.95" font-family="Times,serif" font-size="14.00"> stop </text>
</g>
<!-- Foreground&#45;&gt;Done -->
<g id="edge6" class="edge">
<title>Foreground&#45;&gt;Done</title>
<path fill="none" stroke="red" d="M425,-484.83C458.9,-467.3 504.1,-437.53 524.75,-396 546.91,-351.43 546.34,-328.85 524.75,-284 466.56,-163.1 315.37,-87.92 239.92,-56.75"/>
<polygon fill="red" stroke="red" points="241.34,-53.55 230.76,-53.04 238.72,-60.04 241.34,-53.55"/>
<text xml:space="preserve" text-anchor="middle" x="529.16" y="-252.7" font-family="Times,serif" font-size="14.00"> poll </text>
</g>
<!-- Foreground&#45;&gt;Done -->
<g id="edge9" class="edge">
<title>Foreground&#45;&gt;Done</title>
<path fill="none" stroke="red" d="M425.22,-486.87C454.13,-474.22 492.18,-454.85 520.75,-430.5 582.65,-377.74 575.06,-326.11 547.75,-249.5 524.87,-185.31 506.46,-169.99 450.75,-130.75 385.44,-84.75 294.4,-59.88 240.62,-48.36"/>
<polygon fill="red" stroke="red" points="241.39,-44.94 230.89,-46.34 239.97,-51.8 241.39,-44.94"/>
<text xml:space="preserve" text-anchor="middle" x="565.87" y="-252.7" font-family="Times,serif" font-size="14.00"> kill </text>
</g>
<!-- Background&#45;&gt;Foreground -->
<g id="edge12" class="edge">
<title>Background&#45;&gt;Foreground</title>
<path fill="none" stroke="red" d="M199.28,-382.53C191.79,-392.09 185.11,-402.78 181,-414 178.48,-420.89 176.68,-424.57 181,-430.5 196.32,-451.55 212.17,-439.91 236.75,-448.5 267.79,-459.35 302.22,-472.28 329.84,-482.87"/>
<polygon fill="red" stroke="red" points="328.46,-486.09 339.05,-486.41 330.97,-479.55 328.46,-486.09"/>
<text xml:space="preserve" text-anchor="middle" x="223.38" y="-417.2" font-family="Times,serif" font-size="14.00"> to_foreground </text>
</g>
<!-- Background&#45;&gt;Stopped -->
<g id="edge11" class="edge">
<title>Background&#45;&gt;Stopped</title>
<path fill="none" stroke="red" d="M226.69,-284.29C225.5,-272.61 226,-260.5 229.75,-249.5 231,-245.82 232.55,-242.19 234.31,-238.63"/>
<polygon fill="red" stroke="red" points="237.23,-240.58 239.06,-230.14 231.12,-237.16 237.23,-240.58"/>
<text xml:space="preserve" text-anchor="middle" x="244.75" y="-252.7" font-family="Times,serif" font-size="14.00"> stop </text>
</g>
<!-- Background&#45;&gt;Done -->
<g id="edge10" class="edge">
<title>Background&#45;&gt;Done</title>
<path fill="none" stroke="red" d="M199.16,-297.34C176,-274.05 151.12,-246.72 145.25,-231.5 129.13,-189.73 133.99,-174.09 145.25,-130.75 149.08,-116.02 155.87,-101.15 163.27,-87.83"/>
<polygon fill="red" stroke="red" points="166.24,-89.68 168.24,-79.28 160.19,-86.17 166.24,-89.68"/>
<text xml:space="preserve" text-anchor="middle" x="159.5" y="-176.07" font-family="Times,serif" font-size="14.00"> poll </text>
</g>
<!-- Background&#45;&gt;Done -->
<g id="edge13" class="edge">
<title>Background&#45;&gt;Done</title>
<path fill="none" stroke="red" d="M220.19,-284.04C214.3,-267.43 208.66,-248.96 205.25,-231.5 195.94,-183.76 194.16,-128.12 194.36,-89.18"/>
<polygon fill="red" stroke="red" points="197.85,-89.46 194.45,-79.42 190.85,-89.39 197.85,-89.46"/>
<text xml:space="preserve" text-anchor="middle" x="218" y="-176.07" font-family="Times,serif" font-size="14.00"> kill </text>
</g>
<!-- Stopped&#45;&gt;Foreground -->
<g id="edge14" class="edge">
<title>Stopped&#45;&gt;Foreground</title>
<path fill="none" stroke="red" d="M323.65,-199.31C357.27,-215.62 402.13,-243.66 422.75,-284 447.32,-332.06 433.29,-392.82 415.41,-438.23"/>
<polygon fill="red" stroke="red" points="412.19,-436.86 411.63,-447.44 418.66,-439.52 412.19,-436.86"/>
<text xml:space="preserve" text-anchor="middle" x="478.32" y="-334.95" font-family="Times,serif" font-size="14.00"> to_foreground </text>
</g>
<!-- Stopped&#45;&gt;Background -->
<g id="edge15" class="edge">
<title>Stopped&#45;&gt;Background</title>
<path fill="none" stroke="red" d="M269.49,-231.46C266.2,-244.66 262.6,-259.15 259.13,-273.1"/>
<polygon fill="red" stroke="red" points="255.77,-272.11 256.76,-282.66 262.56,-273.8 255.77,-272.11"/>
<text xml:space="preserve" text-anchor="middle" x="308.84" y="-252.7" font-family="Times,serif" font-size="14.00"> to_background </text>
</g>
<!-- Stopped&#45;&gt;Done -->
<g id="edge16" class="edge">
<title>Stopped&#45;&gt;Done</title>
<path fill="none" stroke="red" d="M251.43,-130.77C242.79,-116.69 233.39,-101.4 224.82,-87.45"/>
<polygon fill="red" stroke="red" points="228.05,-86.02 219.83,-79.33 222.09,-89.69 228.05,-86.02"/>
<text xml:space="preserve" text-anchor="middle" x="251.5" y="-99.45" font-family="Times,serif" font-size="14.00"> kill </text>
</g>
</g>
</svg>
