<?xml version="1.0" encoding="UTF-8" standalone="no"?>
<!DOCTYPE svg PUBLIC "-//W3C//DTD SVG 1.1//EN"
 "http://www.w3.org/Graphics/SVG/1.1/DTD/svg11.dtd">
<!-- Generated by graphviz version 14.1.5 (20260411.2331)
 -->
<!-- Title: Job Pages: 1 -->
<svg width="515pt" height="1223pt"
 viewBox="0.00 0.00 515.00 1223.00" xmlns="http://www.w3.org/2000/svg" xmlns:xlink="http://www.w3.org/1999/xlink">
<g id="graph0" class="graph" transform="scale(1 1) rotate(0) translate(4 1219.15)">
<title>Job</title>
<polygon fill="white" stroke="none" points="-4,4 -4,-1219.15 511.03,-1219.15 511.03,4 -4,4"/>
<!-- Entry -->
<g id="node1" class="node">
<title>Entry</title>
<ellipse fill="black" stroke="#00688b" cx="333.03" cy="-1207.95" rx="7.2" ry="7.2"/>
</g>
<!-- Created -->
<g id="node2" class="node">
<title>Created</title>
<path fill="azure" stroke="none" d="M407.78,-1163.75C407.78,-1163.75 258.28,-1163.75 258.28,-1163.75 252.28,-1163.75 246.28,-1157.75 246.28,-1151.75 246.28,-1151.75 246.28,-985 246.28,-985 246.28,-979 252.28,-973 258.28,-973 258.28,-973 407.78,-973 407.78,-973 413.78,-973 419.78,-979 419.78,-985 419.78,-985 419.78,-1151.75 419.78,-1151.75 419.78,-1157.75 413.78,-1163.75 407.78,-1163.75"/>
<text xml:space="preserve" text-anchor="start" x="309.78" y="-1143.45" font-family="Times,serif" font-weight="bold" font-size="14.00">Created</text>
<text xml:space="preserve" text-anchor="start" x="254.28" y="-1118.25" font-family="Times,serif" font-size="10.00">spawn(cmd: String, args: Vec&lt;String&gt;)</text>
<text xml:space="preserve" text-anchor="start" x="254.28" y="-1107" font-family="Times,serif" font-size="10.00">id()</text>
<text xml:space="preserve" text-anchor="start" x="254.28" y="-1095.75" font-family="Times,serif" font-size="10.00">pid()</text>
<text xml:space="preserve" text-anchor="start" x="254.28" y="-1084.5" font-family="Times,serif" font-size="10.00">cmd_str()</text>
<text xml:space="preserve" text-anchor="start" x="254.28" y="-1073.25" font-family="Times,serif" font-size="10.00">state_name()</text>
<text xml:space="preserve" text-anchor="start" x="254.28" y="-1062" font-family="Times,serif" font-size="10.00">exit_code()</text>
<text xml:space="preserve" text-anchor="start" x="254.28" y="-1050.75" font-family="Times,serif" font-size="10.00">is_done()</text>
<text xml:space="preserve" text-anchor="start" x="254.28" y="-1039.5" font-family="Times,serif" font-size="10.00">stop()</text>
<text xml:space="preserve" text-anchor="start" x="254.28" y="-1028.25" font-family="Times,serif" font-size="10.00">to_foreground()</text>
<text xml:space="preserve" text-anchor="start" x="254.28" y="-1017" font-family="Times,serif" font-size="10.00">to_background()</text>
<text xml:space="preserve" text-anchor="start" x="254.28" y="-1005.75" font-family="Times,serif" font-size="10.00">kill()</text>
<text xml:space="preserve" text-anchor="start" x="254.28" y="-994.5" font-family="Times,serif" font-size="10.00">poll()</text>
<text xml:space="preserve" text-anchor="start" x="319.53" y="-983.25" font-family="Times,serif" font-size="10.00"> &#160;&#160;&#160;&#160;&#160;&#160;&#160;&#160;&#160;&#160;&#160;</text>
<polygon fill="#00688b" stroke="#00688b" points="246.28,-1133.25 246.28,-1133.25 419.78,-1133.25 419.78,-1133.25 246.28,-1133.25"/>
<path fill="none" stroke="#00688b" d="M258.28,-973C258.28,-973 407.78,-973 407.78,-973 413.78,-973 419.78,-979 419.78,-985 419.78,-985 419.78,-1151.75 419.78,-1151.75 419.78,-1157.75 413.78,-1163.75 407.78,-1163.75 407.78,-1163.75 258.28,-1163.75 258.28,-1163.75 252.28,-1163.75 246.28,-1157.75 246.28,-1151.75 246.28,-1151.75 246.28,-985 246.28,-985 246.28,-979 252.28,-973 258.28,-973"/>
</g>
<!-- Entry&#45;&gt;Created -->
<g id="edge1" class="edge">
<title>Entry&#45;&gt;Created</title>
<path fill="none" stroke="red" d="M333.03,-1200.31C333.03,-1194.66 333.03,-1185.78 333.03,-1175.25"/>
<polygon fill="red" stroke="red" points="336.53,-1175.26 333.03,-1165.26 329.53,-1175.26 336.53,-1175.26"/>
</g>
<!-- Foreground -->
<g id="node3" class="node">
<title>Foreground</title>
<path fill="azure" stroke="none" d="M264.78,-920.5C264.78,-920.5 115.28,-920.5 115.28,-920.5 109.28,-920.5 103.28,-914.5 103.28,-908.5 103.28,-908.5 103.28,-741.75 103.28,-741.75 103.28,-735.75 109.28,-729.75 115.28,-729.75 115.28,-729.75 264.78,-729.75 264.78,-729.75 270.78,-729.75 276.78,-735.75 276.78,-741.75 276.78,-741.75 276.78,-908.5 276.78,-908.5 276.78,-914.5 270.78,-920.5 264.78,-920.5"/>
<text xml:space="preserve" text-anchor="start" x="155.53" y="-900.2" font-family="Times,serif" font-weight="bold" font-size="14.00">Foreground</text>
<text xml:space="preserve" text-anchor="start" x="111.28" y="-875" font-family="Times,serif" font-size="10.00">poll()</text>
<text xml:space="preserve" text-anchor="start" x="111.28" y="-863.75" font-family="Times,serif" font-size="10.00">stop()</text>
<text xml:space="preserve" text-anchor="start" x="111.28" y="-852.5" font-family="Times,serif" font-size="10.00">to_background()</text>
<text xml:space="preserve" text-anchor="start" x="111.28" y="-841.25" font-family="Times,serif" font-size="10.00">kill()</text>
<text xml:space="preserve" text-anchor="start" x="111.28" y="-830" font-family="Times,serif" font-size="10.00">spawn(cmd: String, args: Vec&lt;String&gt;)</text>
<text xml:space="preserve" text-anchor="start" x="111.28" y="-818.75" font-family="Times,serif" font-size="10.00">to_foreground()</text>
<text xml:space="preserve" text-anchor="start" x="111.28" y="-807.5" font-family="Times,serif" font-size="10.00">id()</text>
<text xml:space="preserve" text-anchor="start" x="111.28" y="-796.25" font-family="Times,serif" font-size="10.00">pid()</text>
<text xml:space="preserve" text-anchor="start" x="111.28" y="-785" font-family="Times,serif" font-size="10.00">cmd_str()</text>
<text xml:space="preserve" text-anchor="start" x="111.28" y="-773.75" font-family="Times,serif" font-size="10.00">state_name()</text>
<text xml:space="preserve" text-anchor="start" x="111.28" y="-762.5" font-family="Times,serif" font-size="10.00">exit_code()</text>
<text xml:space="preserve" text-anchor="start" x="111.28" y="-751.25" font-family="Times,serif" font-size="10.00">is_done()</text>
<text xml:space="preserve" text-anchor="start" x="176.53" y="-740" font-family="Times,serif" font-size="10.00"> &#160;&#160;&#160;&#160;&#160;&#160;&#160;&#160;&#160;&#160;&#160;</text>
<polygon fill="#00688b" stroke="#00688b" points="103.28,-890 103.28,-890 276.78,-890 276.78,-890 103.28,-890"/>
<path fill="none" stroke="#00688b" d="M115.28,-729.75C115.28,-729.75 264.78,-729.75 264.78,-729.75 270.78,-729.75 276.78,-735.75 276.78,-741.75 276.78,-741.75 276.78,-908.5 276.78,-908.5 276.78,-914.5 270.78,-920.5 264.78,-920.5 264.78,-920.5 115.28,-920.5 115.28,-920.5 109.28,-920.5 103.28,-914.5 103.28,-908.5 103.28,-908.5 103.28,-741.75 103.28,-741.75 103.28,-735.75 109.28,-729.75 115.28,-729.75"/>
</g>
<!-- Created&#45;&gt;Foreground -->
<g id="edge2" class="edge">
<title>Created&#45;&gt;Foreground</title>
<path fill="none" stroke="red" d="M277.13,-973.06C268.79,-959 260.16,-944.43 251.71,-930.18"/>
<polygon fill="red" stroke="red" points="254.78,-928.49 246.67,-921.67 248.76,-932.06 254.78,-928.49"/>
<text xml:space="preserve" text-anchor="middle" x="286.82" y="-941.7" font-family="Times,serif" font-size="14.00"> spawn </text>
</g>
<!-- Done -->
<g id="node6" class="node">
<title>Done</title>
<path fill="azure" stroke="none" d="M405.78,-190.75C405.78,-190.75 256.28,-190.75 256.28,-190.75 250.28,-190.75 244.28,-184.75 244.28,-178.75 244.28,-178.75 244.28,-12 244.28,-12 244.28,-6 250.28,0 256.28,0 256.28,0 405.78,0 405.78,0 411.78,0 417.78,-6 417.78,-12 417.78,-12 417.78,-178.75 417.78,-178.75 417.78,-184.75 411.78,-190.75 405.78,-190.75"/>
<text xml:space="preserve" text-anchor="start" x="316.03" y="-170.45" font-family="Times,serif" font-weight="bold" font-size="14.00">Done</text>
<text xml:space="preserve" text-anchor="start" x="252.28" y="-145.25" font-family="Times,serif" font-size="10.00">spawn(cmd: String, args: Vec&lt;String&gt;)</text>
<text xml:space="preserve" text-anchor="start" x="252.28" y="-134" font-family="Times,serif" font-size="10.00">stop()</text>
<text xml:space="preserve" text-anchor="start" x="252.28" y="-122.75" font-family="Times,serif" font-size="10.00">to_foreground()</text>
<text xml:space="preserve" text-anchor="start" x="252.28" y="-111.5" font-family="Times,serif" font-size="10.00">to_background()</text>
<text xml:space="preserve" text-anchor="start" x="252.28" y="-100.25" font-family="Times,serif" font-size="10.00">kill()</text>
<text xml:space="preserve" text-anchor="start" x="252.28" y="-89" font-family="Times,serif" font-size="10.00">poll()</text>
<text xml:space="preserve" text-anchor="start" x="252.28" y="-77.75" font-family="Times,serif" font-size="10.00">id()</text>
<text xml:space="preserve" text-anchor="start" x="252.28" y="-66.5" font-family="Times,serif" font-size="10.00">pid()</text>
<text xml:space="preserve" text-anchor="start" x="252.28" y="-55.25" font-family="Times,serif" font-size="10.00">cmd_str()</text>
<text xml:space="preserve" text-anchor="start" x="252.28" y="-44" font-family="Times,serif" font-size="10.00">state_name()</text>
<text xml:space="preserve" text-anchor="start" x="252.28" y="-32.75" font-family="Times,serif" font-size="10.00">exit_code()</text>
<text xml:space="preserve" text-anchor="start" x="252.28" y="-21.5" font-family="Times,serif" font-size="10.00">is_done()</text>
<text xml:space="preserve" text-anchor="start" x="317.53" y="-10.25" font-family="Times,serif" font-size="10.00"> &#160;&#160;&#160;&#160;&#160;&#160;&#160;&#160;&#160;&#160;&#160;</text>
<polygon fill="#00688b" stroke="#00688b" points="244.28,-160.25 244.28,-160.25 417.78,-160.25 417.78,-160.25 244.28,-160.25"/>
<path fill="none" stroke="#00688b" d="M256.28,0C256.28,0 405.78,0 405.78,0 411.78,0 417.78,-6 417.78,-12 417.78,-12 417.78,-178.75 417.78,-178.75 417.78,-184.75 411.78,-190.75 405.78,-190.75 405.78,-190.75 256.28,-190.75 256.28,-190.75 250.28,-190.75 244.28,-184.75 244.28,-178.75 244.28,-178.75 244.28,-12 244.28,-12 244.28,-6 250.28,0 256.28,0"/>
</g>
<!-- Created&#45;&gt;Done -->
<g id="edge3" class="edge">
<title>Created&#45;&gt;Done</title>
<path fill="none" stroke="red" d="M412.67,-973.01C440.55,-930.81 465.03,-878.76 465.03,-826.12 465.03,-826.12 465.03,-826.12 465.03,-337.62 465.03,-288.72 443.73,-240.47 418.12,-200.11"/>
<polygon fill="red" stroke="red" points="421.11,-198.29 412.71,-191.83 415.25,-202.12 421.11,-198.29"/>
<text xml:space="preserve" text-anchor="middle" x="486.03" y="-576.83" font-family="Times,serif" font-size="14.00"> spawn </text>
</g>
<!-- Background -->
<g id="node4" class="node">
<title>Background</title>
<path fill="azure" stroke="none" d="M371.78,-677.25C371.78,-677.25 222.28,-677.25 222.28,-677.25 216.28,-677.25 210.28,-671.25 210.28,-665.25 210.28,-665.25 210.28,-498.5 210.28,-498.5 210.28,-492.5 216.28,-486.5 222.28,-486.5 222.28,-486.5 371.78,-486.5 371.78,-486.5 377.78,-486.5 383.78,-492.5 383.78,-498.5 383.78,-498.5 383.78,-665.25 383.78,-665.25 383.78,-671.25 377.78,-677.25 371.78,-677.25"/>
<text xml:space="preserve" text-anchor="start" x="261.41" y="-656.95" font-family="Times,serif" font-weight="bold" font-size="14.00">Background</text>
<text xml:space="preserve" text-anchor="start" x="218.28" y="-631.75" font-family="Times,serif" font-size="10.00">poll()</text>
<text xml:space="preserve" text-anchor="start" x="218.28" y="-620.5" font-family="Times,serif" font-size="10.00">stop()</text>
<text xml:space="preserve" text-anchor="start" x="218.28" y="-609.25" font-family="Times,serif" font-size="10.00">to_foreground()</text>
<text xml:space="preserve" text-anchor="start" x="218.28" y="-598" font-family="Times,serif" font-size="10.00">kill()</text>
<text xml:space="preserve" text-anchor="start" x="218.28" y="-586.75" font-family="Times,serif" font-size="10.00">spawn(cmd: String, args: Vec&lt;String&gt;)</text>
<text xml:space="preserve" text-anchor="start" x="218.28" y="-575.5" font-family="Times,serif" font-size="10.00">to_background()</text>
<text xml:space="preserve" text-anchor="start" x="218.28" y="-564.25" font-family="Times,serif" font-size="10.00">id()</text>
<text xml:space="preserve" text-anchor="start" x="218.28" y="-553" font-family="Times,serif" font-size="10.00">pid()</text>
<text xml:space="preserve" text-anchor="start" x="218.28" y="-541.75" font-family="Times,serif" font-size="10.00">cmd_str()</text>
<text xml:space="preserve" text-anchor="start" x="218.28" y="-530.5" font-family="Times,serif" font-size="10.00">state_name()</text>
<text xml:space="preserve" text-anchor="start" x="218.28" y="-519.25" font-family="Times,serif" font-size="10.00">exit_code()</text>
<text xml:space="preserve" text-anchor="start" x="218.28" y="-508" font-family="Times,serif" font-size="10.00">is_done()</text>
<text xml:space="preserve" text-anchor="start" x="283.53" y="-496.75" font-family="Times,serif" font-size="10.00"> &#160;&#160;&#160;&#160;&#160;&#160;&#160;&#160;&#160;&#160;&#160;</text>
<polygon fill="#00688b" stroke="#00688b" points="210.28,-646.75 210.28,-646.75 383.78,-646.75 383.78,-646.75 210.28,-646.75"/>
<path fill="none" stroke="#00688b" d="M222.28,-486.5C222.28,-486.5 371.78,-486.5 371.78,-486.5 377.78,-486.5 383.78,-492.5 383.78,-498.5 383.78,-498.5 383.78,-665.25 383.78,-665.25 383.78,-671.25 377.78,-677.25 371.78,-677.25 371.78,-677.25 222.28,-677.25 222.28,-677.25 216.28,-677.25 210.28,-671.25 210.28,-665.25 210.28,-665.25 210.28,-498.5 210.28,-498.5 210.28,-492.5 216.28,-486.5 222.28,-486.5"/>
</g>
<!-- Foreground&#45;&gt;Background -->
<g id="edge6" class="edge">
<title>Foreground&#45;&gt;Background</title>
<path fill="none" stroke="red" d="M183.05,-729.95C184.5,-717.99 187.15,-706.15 191.53,-695.25 194.84,-687.05 199.04,-679.09 203.87,-671.45"/>
<polygon fill="red" stroke="red" points="206.74,-673.45 209.44,-663.2 200.94,-669.53 206.74,-673.45"/>
<text xml:space="preserve" text-anchor="middle" x="235.78" y="-698.45" font-family="Times,serif" font-size="14.00"> to_background </text>
</g>
<!-- Stopped -->
<g id="node5" class="node">
<title>Stopped</title>
<path fill="azure" stroke="none" d="M251.78,-434C251.78,-434 102.28,-434 102.28,-434 96.28,-434 90.28,-428 90.28,-422 90.28,-422 90.28,-255.25 90.28,-255.25 90.28,-249.25 96.28,-243.25 102.28,-243.25 102.28,-243.25 251.78,-243.25 251.78,-243.25 257.78,-243.25 263.78,-249.25 263.78,-255.25 263.78,-255.25 263.78,-422 263.78,-422 263.78,-428 257.78,-434 251.78,-434"/>
<text xml:space="preserve" text-anchor="start" x="153.41" y="-413.7" font-family="Times,serif" font-weight="bold" font-size="14.00">Stopped</text>
<text xml:space="preserve" text-anchor="start" x="98.28" y="-388.5" font-family="Times,serif" font-size="10.00">to_foreground()</text>
<text xml:space="preserve" text-anchor="start" x="98.28" y="-377.25" font-family="Times,serif" font-size="10.00">to_background()</text>
<text xml:space="preserve" text-anchor="start" x="98.28" y="-366" font-family="Times,serif" font-size="10.00">kill()</text>
<text xml:space="preserve" text-anchor="start" x="98.28" y="-354.75" font-family="Times,serif" font-size="10.00">poll()</text>
<text xml:space="preserve" text-anchor="start" x="98.28" y="-343.5" font-family="Times,serif" font-size="10.00">spawn(cmd: String, args: Vec&lt;String&gt;)</text>
<text xml:space="preserve" text-anchor="start" x="98.28" y="-332.25" font-family="Times,serif" font-size="10.00">stop()</text>
<text xml:space="preserve" text-anchor="start" x="98.28" y="-321" font-family="Times,serif" font-size="10.00">id()</text>
<text xml:space="preserve" text-anchor="start" x="98.28" y="-309.75" font-family="Times,serif" font-size="10.00">pid()</text>
<text xml:space="preserve" text-anchor="start" x="98.28" y="-298.5" font-family="Times,serif" font-size="10.00">cmd_str()</text>
<text xml:space="preserve" text-anchor="start" x="98.28" y="-287.25" font-family="Times,serif" font-size="10.00">state_name()</text>
<text xml:space="preserve" text-anchor="start" x="98.28" y="-276" font-family="Times,serif" font-size="10.00">exit_code()</text>
<text xml:space="preserve" text-anchor="start" x="98.28" y="-264.75" font-family="Times,serif" font-size="10.00">is_done()</text>
<text xml:space="preserve" text-anchor="start" x="163.53" y="-253.5" font-family="Times,serif" font-size="10.00"> &#160;&#160;&#160;&#160;&#160;&#160;&#160;&#160;&#160;&#160;&#160;</text>
<polygon fill="#00688b" stroke="#00688b" points="90.28,-403.5 90.28,-403.5 263.78,-403.5 263.78,-403.5 90.28,-403.5"/>
<path fill="none" stroke="#00688b" d="M102.28,-243.25C102.28,-243.25 251.78,-243.25 251.78,-243.25 257.78,-243.25 263.78,-249.25 263.78,-255.25 263.78,-255.25 263.78,-422 263.78,-422 263.78,-428 257.78,-434 251.78,-434 251.78,-434 102.28,-434 102.28,-434 96.28,-434 90.28,-428 90.28,-422 90.28,-422 90.28,-255.25 90.28,-255.25 90.28,-249.25 96.28,-243.25 102.28,-243.25"/>
</g>
<!-- Foreground&#45;&gt;Stopped -->
<g id="edge5" class="edge">
<title>Foreground&#45;&gt;Stopped</title>
<path fill="none" stroke="red" d="M176.36,-729.86C174.24,-712.4 172.34,-694.3 171.03,-677.25 163.4,-577.41 161.15,-552.02 166.03,-452 166.14,-449.8 166.26,-447.57 166.39,-445.33"/>
<polygon fill="red" stroke="red" points="169.87,-445.71 167.02,-435.51 162.89,-445.26 169.87,-445.71"/>
<text xml:space="preserve" text-anchor="middle" x="186.03" y="-576.83" font-family="Times,serif" font-size="14.00"> stop </text>
</g>
<!-- Foreground&#45;&gt;Done -->
<g id="edge4" class="edge">
<title>Foreground&#45;&gt;Done</title>
<path fill="none" stroke="red" d="M103.56,-757C81.36,-734.44 60.73,-707.28 50.03,-677.25 -14.84,-495.07 -27.31,-403.43 81.03,-243.25 117.32,-189.6 180.29,-152.77 233.95,-129.42"/>
<polygon fill="red" stroke="red" points="235.31,-132.64 243.15,-125.51 232.58,-126.2 235.31,-132.64"/>
<text xml:space="preserve" text-anchor="middle" x="14.83" y="-455.2" font-family="Times,serif" font-size="14.00"> poll </text>
</g>
<!-- Foreground&#45;&gt;Done -->
<g id="edge7" class="edge">
<title>Foreground&#45;&gt;Done</title>
<path fill="none" stroke="red" d="M276.71,-793.27C325.21,-770.17 378.73,-732.86 393.03,-677.25 441.07,-490.44 431.3,-432.3 393.03,-243.25 390.21,-229.31 386.02,-215.04 381.13,-201.15"/>
<polygon fill="red" stroke="red" points="384.51,-200.21 377.78,-192.02 377.94,-202.62 384.51,-200.21"/>
<text xml:space="preserve" text-anchor="middle" x="438.23" y="-455.2" font-family="Times,serif" font-size="14.00"> kill </text>
</g>
<!-- Background&#45;&gt;Foreground -->
<g id="edge10" class="edge">
<title>Background&#45;&gt;Foreground</title>
<path fill="none" stroke="red" d="M290.7,-677.05C288.14,-689 284.68,-700.85 280.03,-711.75 278.9,-714.42 277.68,-717.07 276.39,-719.71"/>
<polygon fill="red" stroke="red" points="273.34,-717.98 271.78,-728.46 279.53,-721.25 273.34,-717.98"/>
<text xml:space="preserve" text-anchor="middle" x="327.32" y="-698.45" font-family="Times,serif" font-size="14.00"> to_foreground </text>
</g>
<!-- Background&#45;&gt;Stopped -->
<g id="edge9" class="edge">
<title>Background&#45;&gt;Stopped</title>
<path fill="none" stroke="red" d="M281.14,-486.58C277.6,-474.65 273.28,-462.84 268.03,-452 266.69,-449.24 265.28,-446.48 263.79,-443.74"/>
<polygon fill="red" stroke="red" points="266.89,-442.11 258.87,-435.18 260.82,-445.6 266.89,-442.11"/>
<text xml:space="preserve" text-anchor="middle" x="290.06" y="-455.2" font-family="Times,serif" font-size="14.00"> stop </text>
</g>
<!-- Background&#45;&gt;Done -->
<g id="edge8" class="edge">
<title>Background&#45;&gt;Done</title>
<path fill="none" stroke="red" d="M343.22,-486.51C345.11,-480.5 346.74,-474.47 348.03,-468.5 367.18,-379.97 360.29,-276.92 350.12,-201.74"/>
<polygon fill="red" stroke="red" points="353.59,-201.31 348.74,-191.89 346.66,-202.28 353.59,-201.31"/>
<text xml:space="preserve" text-anchor="middle" x="374.39" y="-333.57" font-family="Times,serif" font-size="14.00"> poll </text>
</g>
<!-- Background&#45;&gt;Done -->
<g id="edge11" class="edge">
<title>Background&#45;&gt;Done</title>
<path fill="none" stroke="red" d="M307.41,-486.79C307.99,-480.6 308.54,-474.46 309.03,-468.5 316.48,-378.63 322.34,-276.34 326.13,-201.78"/>
<polygon fill="red" stroke="red" points="329.62,-202.19 326.62,-192.03 322.63,-201.84 329.62,-202.19"/>
<text xml:space="preserve" text-anchor="middle" x="336.59" y="-333.57" font-family="Times,serif" font-size="14.00"> kill </text>
</g>
<!-- Stopped&#45;&gt;Foreground -->
<g id="edge12" class="edge">
<title>Stopped&#45;&gt;Foreground</title>
<path fill="none" stroke="red" d="M98.93,-433.94C88.81,-450.58 79.99,-468.39 74.28,-486.5 48.81,-567.36 46.51,-597.15 74.28,-677.25 79.78,-693.1 87.77,-708.54 97.03,-723.08"/>
<polygon fill="red" stroke="red" points="94,-724.85 102.45,-731.25 99.84,-720.98 94,-724.85"/>
<text xml:space="preserve" text-anchor="middle" x="116.66" y="-576.83" font-family="Times,serif" font-size="14.00"> to_foreground </text>
</g>
<!-- Stopped&#45;&gt;Background -->
<g id="edge13" class="edge">
<title>Stopped&#45;&gt;Background</title>
<path fill="none" stroke="red" d="M166.74,-433.72C168.06,-445.74 170.78,-457.63 175.53,-468.5 176.61,-470.97 187.47,-481.62 202.29,-495.45"/>
<polygon fill="red" stroke="red" points="199.55,-497.68 209.26,-501.92 204.31,-492.55 199.55,-497.68"/>
<text xml:space="preserve" text-anchor="middle" x="219.78" y="-455.2" font-family="Times,serif" font-size="14.00"> to_background </text>
</g>
<!-- Stopped&#45;&gt;Done -->
<g id="edge14" class="edge">
<title>Stopped&#45;&gt;Done</title>
<path fill="none" stroke="red" d="M237.24,-243.31C246.3,-229.11 255.69,-214.4 264.88,-200.02"/>
<polygon fill="red" stroke="red" points="267.63,-202.21 270.06,-191.9 261.73,-198.44 267.63,-202.21"/>
<text xml:space="preserve" text-anchor="middle" x="271.4" y="-211.95" font-family="Times,serif" font-size="14.00"> kill </text>
</g>
</g>
</svg>
