<?xml version="1.0" encoding="UTF-8" standalone="no"?>
<!DOCTYPE svg PUBLIC "-//W3C//DTD SVG 1.1//EN"
 "http://www.w3.org/Graphics/SVG/1.1/DTD/svg11.dtd">
<!-- Generated by graphviz version 14.1.5 (20260411.2331)
 -->
<!-- Title: Job Pages: 1 -->
<svg width="987pt" height="773pt"
 viewBox="0.00 0.00 987.00 773.00" xmlns="http://www.w3.org/2000/svg" xmlns:xlink="http://www.w3.org/1999/xlink">
<g id="graph0" class="graph" transform="scale(1 1) rotate(0) translate(4 769.15)">
<title>Job</title>
<polygon fill="white" stroke="none" points="-4,4 -4,-769.15 982.67,-769.15 982.67,4 -4,4"/>
<!-- Entry -->
<g id="node1" class="node">
<title>Entry</title>
<ellipse fill="black" stroke="#00688b" cx="744.92" cy="-757.95" rx="7.2" ry="7.2"/>
</g>
<!-- Created -->
<g id="node2" class="node">
<title>Created</title>
<path fill="azure" stroke="none" d="M840.67,-713.75C840.67,-713.75 649.17,-713.75 649.17,-713.75 643.17,-713.75 637.17,-707.75 637.17,-701.75 637.17,-701.75 637.17,-647.5 637.17,-647.5 637.17,-641.5 643.17,-635.5 649.17,-635.5 649.17,-635.5 840.67,-635.5 840.67,-635.5 846.67,-635.5 852.67,-641.5 852.67,-647.5 852.67,-647.5 852.67,-701.75 852.67,-701.75 852.67,-707.75 846.67,-713.75 840.67,-713.75"/>
<text xml:space="preserve" text-anchor="start" x="721.67" y="-693.45" font-family="Times,serif" font-weight="bold" font-size="14.00">Created</text>
<text xml:space="preserve" text-anchor="start" x="645.17" y="-668.25" font-family="Times,serif" font-size="10.00">spawn(cmd: String, args: Vec&lt;String&gt;)</text>
<text xml:space="preserve" text-anchor="start" x="645.17" y="-657" font-family="Times,serif" font-size="10.00">spawn_detached(cmd: String, args: Vec&lt;String&gt;)</text>
<text xml:space="preserve" text-anchor="start" x="731.42" y="-645.75" font-family="Times,serif" font-size="10.00"> &#160;&#160;&#160;&#160;&#160;&#160;&#160;&#160;&#160;&#160;&#160;</text>
<polygon fill="#00688b" stroke="#00688b" points="637.17,-683.25 637.17,-683.25 852.67,-683.25 852.67,-683.25 637.17,-683.25"/>
<path fill="none" stroke="#00688b" d="M649.17,-635.5C649.17,-635.5 840.67,-635.5 840.67,-635.5 846.67,-635.5 852.67,-641.5 852.67,-647.5 852.67,-647.5 852.67,-701.75 852.67,-701.75 852.67,-707.75 846.67,-713.75 840.67,-713.75 840.67,-713.75 649.17,-713.75 649.17,-713.75 643.17,-713.75 637.17,-707.75 637.17,-701.75 637.17,-701.75 637.17,-647.5 637.17,-647.5 637.17,-641.5 643.17,-635.5 649.17,-635.5"/>
</g>
<!-- Entry&#45;&gt;Created -->
<g id="edge1" class="edge">
<title>Entry&#45;&gt;Created</title>
<path fill="none" stroke="red" d="M744.92,-750.29C744.92,-744.28 744.92,-734.82 744.92,-724.63"/>
<polygon fill="red" stroke="red" points="748.42,-724.94 744.92,-714.94 741.42,-724.94 748.42,-724.94"/>
</g>
<!-- Foreground -->
<g id="node3" class="node">
<title>Foreground</title>
<path fill="azure" stroke="none" d="M352.42,-583C352.42,-583 291.42,-583 291.42,-583 285.42,-583 279.42,-577 279.42,-571 279.42,-571 279.42,-471.75 279.42,-471.75 279.42,-465.75 285.42,-459.75 291.42,-459.75 291.42,-459.75 352.42,-459.75 352.42,-459.75 358.42,-459.75 364.42,-465.75 364.42,-471.75 364.42,-471.75 364.42,-571 364.42,-571 364.42,-577 358.42,-583 352.42,-583"/>
<text xml:space="preserve" text-anchor="start" x="287.42" y="-562.7" font-family="Times,serif" font-weight="bold" font-size="14.00">Foreground</text>
<text xml:space="preserve" text-anchor="start" x="287.42" y="-537.5" font-family="Times,serif" font-size="10.00">poll()</text>
<text xml:space="preserve" text-anchor="start" x="287.42" y="-526.25" font-family="Times,serif" font-size="10.00">await_rest()</text>
<text xml:space="preserve" text-anchor="start" x="287.42" y="-515" font-family="Times,serif" font-size="10.00">stop()</text>
<text xml:space="preserve" text-anchor="start" x="287.42" y="-503.75" font-family="Times,serif" font-size="10.00">to_background()</text>
<text xml:space="preserve" text-anchor="start" x="287.42" y="-492.5" font-family="Times,serif" font-size="10.00">kill()</text>
<text xml:space="preserve" text-anchor="start" x="287.42" y="-481.25" font-family="Times,serif" font-size="10.00">state_name()</text>
<text xml:space="preserve" text-anchor="start" x="308.04" y="-470" font-family="Times,serif" font-size="10.00"> &#160;&#160;&#160;&#160;&#160;&#160;&#160;&#160;&#160;&#160;&#160;</text>
<polygon fill="#00688b" stroke="#00688b" points="279.42,-552.5 279.42,-552.5 364.42,-552.5 364.42,-552.5 279.42,-552.5"/>
<path fill="none" stroke="#00688b" d="M291.42,-459.75C291.42,-459.75 352.42,-459.75 352.42,-459.75 358.42,-459.75 364.42,-465.75 364.42,-471.75 364.42,-471.75 364.42,-571 364.42,-571 364.42,-577 358.42,-583 352.42,-583 352.42,-583 291.42,-583 291.42,-583 285.42,-583 279.42,-577 279.42,-571 279.42,-571 279.42,-471.75 279.42,-471.75 279.42,-465.75 285.42,-459.75 291.42,-459.75"/>
</g>
<!-- Created&#45;&gt;Foreground -->
<g id="edge2" class="edge">
<title>Created&#45;&gt;Foreground</title>
<path fill="none" stroke="red" d="M638.45,-635.56C554.29,-605.47 440.41,-564.74 374.68,-541.24"/>
<polygon fill="red" stroke="red" points="376.18,-538.06 365.59,-537.99 373.83,-544.65 376.18,-538.06"/>
<text xml:space="preserve" text-anchor="middle" x="604.74" y="-604.2" font-family="Times,serif" font-size="14.00"> spawn </text>
</g>
<!-- Background -->
<g id="node4" class="node">
<title>Background</title>
<path fill="azure" stroke="none" d="M576.54,-407.25C576.54,-407.25 513.29,-407.25 513.29,-407.25 507.29,-407.25 501.29,-401.25 501.29,-395.25 501.29,-395.25 501.29,-296 501.29,-296 501.29,-290 507.29,-284 513.29,-284 513.29,-284 576.54,-284 576.54,-284 582.54,-284 588.54,-290 588.54,-296 588.54,-296 588.54,-395.25 588.54,-395.25 588.54,-401.25 582.54,-407.25 576.54,-407.25"/>
<text xml:space="preserve" text-anchor="start" x="509.29" y="-386.95" font-family="Times,serif" font-weight="bold" font-size="14.00">Background</text>
<text xml:space="preserve" text-anchor="start" x="509.29" y="-361.75" font-family="Times,serif" font-size="10.00">poll()</text>
<text xml:space="preserve" text-anchor="start" x="509.29" y="-350.5" font-family="Times,serif" font-size="10.00">await_rest()</text>
<text xml:space="preserve" text-anchor="start" x="509.29" y="-339.25" font-family="Times,serif" font-size="10.00">stop()</text>
<text xml:space="preserve" text-anchor="start" x="509.29" y="-328" font-family="Times,serif" font-size="10.00">to_foreground()</text>
<text xml:space="preserve" text-anchor="start" x="509.29" y="-316.75" font-family="Times,serif" font-size="10.00">kill()</text>
<text xml:space="preserve" text-anchor="start" x="509.29" y="-305.5" font-family="Times,serif" font-size="10.00">state_name()</text>
<text xml:space="preserve" text-anchor="start" x="528.04" y="-294.25" font-family="Times,serif" font-size="10.00"> &#160;&#160;&#160;&#160;&#160;&#160;&#160;&#160;&#160;&#160;&#160;</text>
<polygon fill="#00688b" stroke="#00688b" points="501.29,-376.75 501.29,-376.75 588.54,-376.75 588.54,-376.75 501.29,-376.75"/>
<path fill="none" stroke="#00688b" d="M513.29,-284C513.29,-284 576.54,-284 576.54,-284 582.54,-284 588.54,-290 588.54,-296 588.54,-296 588.54,-395.25 588.54,-395.25 588.54,-401.25 582.54,-407.25 576.54,-407.25 576.54,-407.25 513.29,-407.25 513.29,-407.25 507.29,-407.25 501.29,-401.25 501.29,-395.25 501.29,-395.25 501.29,-296 501.29,-296 501.29,-290 507.29,-284 513.29,-284"/>
</g>
<!-- Created&#45;&gt;Background -->
<g id="edge4" class="edge">
<title>Created&#45;&gt;Background</title>
<path fill="none" stroke="red" d="M722.33,-635.63C713.01,-619.55 702.28,-600.52 693.17,-583 657.43,-514.25 662.51,-489.31 618.92,-425.25 612.13,-415.28 604.09,-405.36 595.85,-396.09"/>
<polygon fill="red" stroke="red" points="598.6,-393.92 589.27,-388.9 593.43,-398.64 598.6,-393.92"/>
<text xml:space="preserve" text-anchor="middle" x="741.54" y="-516.33" font-family="Times,serif" font-size="14.00"> spawn_detached </text>
</g>
<!-- Done -->
<g id="node6" class="node">
<title>Done</title>
<path fill="azure" stroke="none" d="M607.79,-78.25C607.79,-78.25 564.04,-78.25 564.04,-78.25 558.04,-78.25 552.04,-72.25 552.04,-66.25 552.04,-66.25 552.04,-12 552.04,-12 552.04,-6 558.04,0 564.04,0 564.04,0 607.79,0 607.79,0 613.79,0 619.79,-6 619.79,-12 619.79,-12 619.79,-66.25 619.79,-66.25 619.79,-72.25 613.79,-78.25 607.79,-78.25"/>
<text xml:space="preserve" text-anchor="start" x="570.92" y="-57.95" font-family="Times,serif" font-weight="bold" font-size="14.00">Done</text>
<text xml:space="preserve" text-anchor="start" x="560.04" y="-32.75" font-family="Times,serif" font-size="10.00">is_done()</text>
<text xml:space="preserve" text-anchor="start" x="560.04" y="-21.5" font-family="Times,serif" font-size="10.00">state_name()</text>
<text xml:space="preserve" text-anchor="start" x="572.42" y="-10.25" font-family="Times,serif" font-size="10.00"> &#160;&#160;&#160;&#160;&#160;&#160;&#160;&#160;&#160;&#160;&#160;</text>
<polygon fill="#00688b" stroke="#00688b" points="552.04,-47.75 552.04,-47.75 619.79,-47.75 619.79,-47.75 552.04,-47.75"/>
<path fill="none" stroke="#00688b" d="M564.04,0C564.04,0 607.79,0 607.79,0 613.79,0 619.79,-6 619.79,-12 619.79,-12 619.79,-66.25 619.79,-66.25 619.79,-72.25 613.79,-78.25 607.79,-78.25 607.79,-78.25 564.04,-78.25 564.04,-78.25 558.04,-78.25 552.04,-72.25 552.04,-66.25 552.04,-66.25 552.04,-12 552.04,-12 552.04,-6 558.04,0 564.04,0"/>
</g>
<!-- Created&#45;&gt;Done -->
<g id="edge3" class="edge">
<title>Created&#45;&gt;Done</title>
<path fill="none" stroke="red" d="M768.74,-635.72C785.12,-606.04 803.92,-563.1 803.92,-522.38 803.92,-522.38 803.92,-522.38 803.92,-180.12 803.92,-98.44 694.22,-62.2 630.46,-48.03"/>
<polygon fill="red" stroke="red" points="631.49,-44.67 620.98,-46.02 630.04,-51.52 631.49,-44.67"/>
<text xml:space="preserve" text-anchor="middle" x="824.92" y="-340.57" font-family="Times,serif" font-size="14.00"> spawn </text>
</g>
<!-- Created&#45;&gt;Done -->
<g id="edge5" class="edge">
<title>Created&#45;&gt;Done</title>
<path fill="none" stroke="red" d="M808.6,-635.66C844.38,-609.07 881.92,-569.85 881.92,-522.38 881.92,-522.38 881.92,-522.38 881.92,-180.12 881.92,-70.43 713.74,-46.56 630.92,-41.46"/>
<polygon fill="red" stroke="red" points="631.27,-37.97 621.1,-40.93 630.89,-44.96 631.27,-37.97"/>
<text xml:space="preserve" text-anchor="middle" x="930.29" y="-340.57" font-family="Times,serif" font-size="14.00"> spawn_detached </text>
</g>
<!-- Foreground&#45;&gt;Background -->
<g id="edge10" class="edge">
<title>Foreground&#45;&gt;Background</title>
<path fill="none" stroke="red" d="M364.26,-477.6C383.56,-459.75 407.42,-439.83 431.42,-425.25 450,-413.96 458.4,-418.66 476.92,-407.25 482.13,-404.03 487.33,-400.4 492.39,-396.56"/>
<polygon fill="red" stroke="red" points="494.5,-399.35 500.15,-390.38 490.14,-393.87 494.5,-399.35"/>
<text xml:space="preserve" text-anchor="middle" x="475.67" y="-428.45" font-family="Times,serif" font-size="14.00"> to_background </text>
</g>
<!-- Stopped -->
<g id="node5" class="node">
<title>Stopped</title>
<path fill="azure" stroke="none" d="M410.04,-231.5C410.04,-231.5 349.79,-231.5 349.79,-231.5 343.79,-231.5 337.79,-225.5 337.79,-219.5 337.79,-219.5 337.79,-142.75 337.79,-142.75 337.79,-136.75 343.79,-130.75 349.79,-130.75 349.79,-130.75 410.04,-130.75 410.04,-130.75 416.04,-130.75 422.04,-136.75 422.04,-142.75 422.04,-142.75 422.04,-219.5 422.04,-219.5 422.04,-225.5 416.04,-231.5 410.04,-231.5"/>
<text xml:space="preserve" text-anchor="start" x="356.29" y="-211.2" font-family="Times,serif" font-weight="bold" font-size="14.00">Stopped</text>
<text xml:space="preserve" text-anchor="start" x="345.79" y="-186" font-family="Times,serif" font-size="10.00">to_foreground()</text>
<text xml:space="preserve" text-anchor="start" x="345.79" y="-174.75" font-family="Times,serif" font-size="10.00">to_background()</text>
<text xml:space="preserve" text-anchor="start" x="345.79" y="-163.5" font-family="Times,serif" font-size="10.00">kill()</text>
<text xml:space="preserve" text-anchor="start" x="345.79" y="-152.25" font-family="Times,serif" font-size="10.00">state_name()</text>
<text xml:space="preserve" text-anchor="start" x="366.42" y="-141" font-family="Times,serif" font-size="10.00"> &#160;&#160;&#160;&#160;&#160;&#160;&#160;&#160;&#160;&#160;&#160;</text>
<polygon fill="#00688b" stroke="#00688b" points="337.79,-201 337.79,-201 422.04,-201 422.04,-201 337.79,-201"/>
<path fill="none" stroke="#00688b" d="M349.79,-130.75C349.79,-130.75 410.04,-130.75 410.04,-130.75 416.04,-130.75 422.04,-136.75 422.04,-142.75 422.04,-142.75 422.04,-219.5 422.04,-219.5 422.04,-225.5 416.04,-231.5 410.04,-231.5 410.04,-231.5 349.79,-231.5 349.79,-231.5 343.79,-231.5 337.79,-225.5 337.79,-219.5 337.79,-219.5 337.79,-142.75 337.79,-142.75 337.79,-136.75 343.79,-130.75 349.79,-130.75"/>
</g>
<!-- Foreground&#45;&gt;Stopped -->
<g id="edge8" class="edge">
<title>Foreground&#45;&gt;Stopped</title>
<path fill="none" stroke="red" d="M279.53,-477.77C262.83,-458.04 245.59,-433.23 236.92,-407.25 219.57,-355.29 211.82,-332.69 236.92,-284 255.94,-247.08 295.23,-220.6 327.81,-203.91"/>
<polygon fill="red" stroke="red" points="329.34,-207.06 336.77,-199.5 326.25,-200.78 329.34,-207.06"/>
<text xml:space="preserve" text-anchor="middle" x="268.42" y="-340.57" font-family="Times,serif" font-size="14.00"> await_rest </text>
</g>
<!-- Foreground&#45;&gt;Stopped -->
<g id="edge9" class="edge">
<title>Foreground&#45;&gt;Stopped</title>
<path fill="none" stroke="red" d="M316.19,-459.83C312.94,-403.83 313.26,-319.01 335.92,-249.5 336.76,-246.92 337.72,-244.35 338.79,-241.79"/>
<polygon fill="red" stroke="red" points="341.94,-243.33 343.04,-232.79 335.61,-240.34 341.94,-243.33"/>
<text xml:space="preserve" text-anchor="middle" x="341.45" y="-340.57" font-family="Times,serif" font-size="14.00"> stop </text>
</g>
<!-- Foreground&#45;&gt;Done -->
<g id="edge6" class="edge">
<title>Foreground&#45;&gt;Done</title>
<path fill="none" stroke="red" d="M279.47,-518.85C225.37,-514.51 132.76,-498.63 81.92,-441.75 -20.43,-327.27 -33.13,-197.96 81.92,-96.25 115.99,-66.12 423.48,-48.06 540.75,-42.22"/>
<polygon fill="red" stroke="red" points="540.82,-45.72 550.63,-41.73 540.47,-38.73 540.82,-45.72"/>
<text xml:space="preserve" text-anchor="middle" x="14.77" y="-252.7" font-family="Times,serif" font-size="14.00"> poll </text>
</g>
<!-- Foreground&#45;&gt;Done -->
<g id="edge7" class="edge">
<title>Foreground&#45;&gt;Done</title>
<path fill="none" stroke="red" d="M279.71,-509.06C244.16,-497.53 194.22,-476.35 162.92,-441.75 59.89,-327.87 44.3,-187.37 167.92,-96.25 226.41,-53.14 445.45,-43.14 540.94,-40.82"/>
<polygon fill="red" stroke="red" points="540.79,-44.33 550.71,-40.6 540.63,-37.33 540.79,-44.33"/>
<text xml:space="preserve" text-anchor="middle" x="112.01" y="-252.7" font-family="Times,serif" font-size="14.00"> await_rest </text>
</g>
<!-- Foreground&#45;&gt;Done -->
<g id="edge11" class="edge">
<title>Foreground&#45;&gt;Done</title>
<path fill="none" stroke="red" d="M279.6,-490.45C255.3,-470.24 227.54,-441.13 216.92,-407.25 195.93,-340.34 191.78,-313.51 220.42,-249.5 249.61,-184.24 269.3,-170.21 328.92,-130.75 395.99,-86.35 487.33,-60.95 541.12,-48.9"/>
<polygon fill="red" stroke="red" points="541.83,-52.33 550.85,-46.78 540.34,-45.49 541.83,-52.33"/>
<text xml:space="preserve" text-anchor="middle" x="233.17" y="-252.7" font-family="Times,serif" font-size="14.00"> kill </text>
</g>
<!-- Background&#45;&gt;Foreground -->
<g id="edge16" class="edge">
<title>Background&#45;&gt;Foreground</title>
<path fill="none" stroke="red" d="M537.98,-407.17C534.22,-419.71 528.52,-432.04 519.92,-441.75 482.81,-483.65 420.38,-503.49 375.54,-512.7"/>
<polygon fill="red" stroke="red" points="374.9,-509.26 365.74,-514.59 376.23,-516.14 374.9,-509.26"/>
<text xml:space="preserve" text-anchor="middle" x="572.63" y="-428.45" font-family="Times,serif" font-size="14.00"> to_foreground </text>
</g>
<!-- Background&#45;&gt;Stopped -->
<g id="edge14" class="edge">
<title>Background&#45;&gt;Stopped</title>
<path fill="none" stroke="red" d="M539.45,-284.05C536.09,-271.66 530.9,-259.39 522.92,-249.5 500.36,-221.54 463.47,-204.55 432.81,-194.63"/>
<polygon fill="red" stroke="red" points="433.87,-191.3 423.28,-191.73 431.83,-197.99 433.87,-191.3"/>
<text xml:space="preserve" text-anchor="middle" x="564.05" y="-252.7" font-family="Times,serif" font-size="14.00"> await_rest </text>
</g>
<!-- Background&#45;&gt;Stopped -->
<g id="edge15" class="edge">
<title>Background&#45;&gt;Stopped</title>
<path fill="none" stroke="red" d="M501.35,-299.79C493.69,-293.74 485.43,-288.19 476.92,-284 437.96,-264.86 408.84,-299.24 380.92,-266 375.32,-259.33 372.28,-251.2 370.91,-242.66"/>
<polygon fill="red" stroke="red" points="374.41,-242.47 370.12,-232.79 367.43,-243.03 374.41,-242.47"/>
<text xml:space="preserve" text-anchor="middle" x="395.92" y="-252.7" font-family="Times,serif" font-size="14.00"> stop </text>
</g>
<!-- Background&#45;&gt;Done -->
<g id="edge12" class="edge">
<title>Background&#45;&gt;Done</title>
<path fill="none" stroke="red" d="M588.24,-318.31C605.88,-305.05 624.34,-287.24 633.92,-266 660.04,-208.07 635.41,-135.28 612.86,-88.24"/>
<polygon fill="red" stroke="red" points="616.05,-86.79 608.48,-79.39 609.78,-89.9 616.05,-86.79"/>
<text xml:space="preserve" text-anchor="middle" x="659.4" y="-176.07" font-family="Times,serif" font-size="14.00"> poll </text>
</g>
<!-- Background&#45;&gt;Done -->
<g id="edge13" class="edge">
<title>Background&#45;&gt;Done</title>
<path fill="none" stroke="red" d="M588.48,-323.67C621.41,-304.88 663.34,-273.77 677.92,-231.5 692.51,-189.17 695.21,-172.05 677.92,-130.75 667.68,-106.29 647.26,-85.09 628.26,-69.36"/>
<polygon fill="red" stroke="red" points="630.58,-66.72 620.57,-63.24 626.22,-72.2 630.58,-66.72"/>
<text xml:space="preserve" text-anchor="middle" x="721.4" y="-176.07" font-family="Times,serif" font-size="14.00"> await_rest </text>
</g>
<!-- Background&#45;&gt;Done -->
<g id="edge17" class="edge">
<title>Background&#45;&gt;Done</title>
<path fill="none" stroke="red" d="M588.3,-291.49C593.06,-283.35 597.16,-274.74 599.92,-266 605.06,-249.67 596.71,-150.9 590.86,-89.5"/>
<polygon fill="red" stroke="red" points="594.35,-89.25 589.91,-79.63 587.38,-89.92 594.35,-89.25"/>
<text xml:space="preserve" text-anchor="middle" x="614.04" y="-176.07" font-family="Times,serif" font-size="14.00"> kill </text>
</g>
<!-- Stopped&#45;&gt;Foreground -->
<g id="edge18" class="edge">
<title>Stopped&#45;&gt;Foreground</title>
<path fill="none" stroke="red" d="M371.23,-231.35C370.35,-237.45 369.55,-243.61 368.92,-249.5 361.47,-319.31 374.27,-338.33 360.92,-407.25 358.25,-421.01 354.28,-435.37 349.88,-449.07"/>
<polygon fill="red" stroke="red" points="346.6,-447.85 346.76,-458.45 353.24,-450.07 346.6,-447.85"/>
<text xml:space="preserve" text-anchor="middle" x="409.73" y="-340.57" font-family="Times,serif" font-size="14.00"> to_foreground </text>
</g>
<!-- Stopped&#45;&gt;Background -->
<g id="edge19" class="edge">
<title>Stopped&#45;&gt;Background</title>
<path fill="none" stroke="red" d="M402.09,-231.08C409.64,-243.75 419.1,-256.48 430.42,-266 447.38,-280.26 458.01,-272.44 476.92,-284 482.15,-287.2 487.35,-290.81 492.42,-294.65"/>
<polygon fill="red" stroke="red" points="490.17,-297.34 500.18,-300.82 494.52,-291.86 490.17,-297.34"/>
<text xml:space="preserve" text-anchor="middle" x="474.67" y="-252.7" font-family="Times,serif" font-size="14.00"> to_background </text>
</g>
<!-- Stopped&#45;&gt;Done -->
<g id="edge20" class="edge">
<title>Stopped&#45;&gt;Done</title>
<path fill="none" stroke="red" d="M421.6,-151.79C456.89,-127.81 507.28,-93.57 542.94,-69.34"/>
<polygon fill="red" stroke="red" points="544.57,-72.46 550.87,-63.94 540.63,-66.67 544.57,-72.46"/>
<text xml:space="preserve" text-anchor="middle" x="514.12" y="-99.45" font-family="Times,serif" font-size="14.00"> kill </text>
</g>
</g>
</svg>
