<?xml version="1.0" encoding="UTF-8" standalone="no"?>
<!DOCTYPE svg PUBLIC "-//W3C//DTD SVG 1.1//EN"
 "http://www.w3.org/Graphics/SVG/1.1/DTD/svg11.dtd">
<!-- Generated by graphviz version 2.43.0 (0)
 -->
<!-- Title: Job Pages: 1 -->
<svg width="698pt" height="731pt"
 viewBox="0.00 0.00 697.50 731.00" xmlns="http://www.w3.org/2000/svg" xmlns:xlink="http://www.w3.org/1999/xlink">
<g id="graph0" class="graph" transform="scale(1 1) rotate(0) translate(4 727)">
<title>Job</title>
<polygon fill="white" stroke="transparent" points="-4,4 -4,-727 693.5,-727 693.5,4 -4,4"/>
<!-- Entry -->
<g id="node1" class="node">
<title>Entry</title>
<ellipse fill="black" stroke="#00688b" cx="134.5" cy="-716" rx="7" ry="7"/>
</g>
<!-- Created -->
<g id="node2" class="node">
<title>Created</title>
<path fill="azure" stroke="transparent" d="M257,-672C257,-672 12,-672 12,-672 6,-672 0,-666 0,-660 0,-660 0,-608 0,-608 0,-602 6,-596 12,-596 12,-596 257,-596 257,-596 263,-596 269,-602 269,-608 269,-608 269,-660 269,-660 269,-666 263,-672 257,-672"/>
<text text-anchor="start" x="103.5" y="-653.8" font-family="Times,serif" font-weight="bold" font-size="14.00">Created</text>
<text text-anchor="start" x="8.5" y="-629" font-family="Times,serif" font-size="10.00">spawn(cmd: String, args: Vec&lt;String&gt;)</text>
<text text-anchor="start" x="8.5" y="-618" font-family="Times,serif" font-size="10.00">spawn_detached(cmd: String, args: Vec&lt;String&gt;)</text>
<text text-anchor="start" x="116.5" y="-607" font-family="Times,serif" font-size="10.00"> &#160;&#160;&#160;&#160;&#160;&#160;&#160;&#160;&#160;&#160;&#160;</text>
<polygon fill="#00688b" stroke="#00688b" points="0.5,-643 0.5,-643 269.5,-643 269.5,-643 0.5,-643"/>
<path fill="none" stroke="#00688b" d="M12,-596C12,-596 257,-596 257,-596 263,-596 269,-602 269,-608 269,-608 269,-660 269,-660 269,-666 263,-672 257,-672 257,-672 12,-672 12,-672 6,-672 0,-666 0,-660 0,-660 0,-608 0,-608 0,-602 6,-596 12,-596"/>
</g>
<!-- Entry&#45;&gt;Created -->
<g id="edge1" class="edge">
<title>Entry&#45;&gt;Created</title>
<path fill="none" stroke="red" d="M134.5,-708.99C134.5,-702.98 134.5,-693.15 134.5,-682.59"/>
<polygon fill="red" stroke="red" points="138,-682.33 134.5,-672.33 131,-682.33 138,-682.33"/>
</g>
<!-- Foreground -->
<g id="node3" class="node">
<title>Foreground</title>
<path fill="azure" stroke="transparent" d="M496.5,-545C496.5,-545 412.5,-545 412.5,-545 406.5,-545 400.5,-539 400.5,-533 400.5,-533 400.5,-448 400.5,-448 400.5,-442 406.5,-436 412.5,-436 412.5,-436 496.5,-436 496.5,-436 502.5,-436 508.5,-442 508.5,-448 508.5,-448 508.5,-533 508.5,-533 508.5,-539 502.5,-545 496.5,-545"/>
<text text-anchor="start" x="408.5" y="-526.3" font-family="Times,serif" font-weight="bold" font-size="14.00">Foreground</text>
<text text-anchor="start" x="408.5" y="-501.5" font-family="Times,serif" font-size="10.00">poll()</text>
<text text-anchor="start" x="408.5" y="-490.5" font-family="Times,serif" font-size="10.00">stop()</text>
<text text-anchor="start" x="408.5" y="-479.5" font-family="Times,serif" font-size="10.00">to_background()</text>
<text text-anchor="start" x="408.5" y="-468.5" font-family="Times,serif" font-size="10.00">kill()</text>
<text text-anchor="start" x="408.5" y="-457.5" font-family="Times,serif" font-size="10.00">state_name()</text>
<text text-anchor="start" x="432.5" y="-446.5" font-family="Times,serif" font-size="10.00"> &#160;&#160;&#160;&#160;&#160;&#160;&#160;&#160;&#160;&#160;&#160;</text>
<polygon fill="#00688b" stroke="#00688b" points="400.5,-515.5 400.5,-515.5 508.5,-515.5 508.5,-515.5 400.5,-515.5"/>
<path fill="none" stroke="#00688b" d="M412.5,-436C412.5,-436 496.5,-436 496.5,-436 502.5,-436 508.5,-442 508.5,-448 508.5,-448 508.5,-533 508.5,-533 508.5,-539 502.5,-545 496.5,-545 496.5,-545 412.5,-545 412.5,-545 406.5,-545 400.5,-539 400.5,-533 400.5,-533 400.5,-448 400.5,-448 400.5,-442 406.5,-436 412.5,-436"/>
</g>
<!-- Created&#45;&gt;Foreground -->
<g id="edge2" class="edge">
<title>Created&#45;&gt;Foreground</title>
<path fill="none" stroke="red" d="M218.58,-595.82C272.51,-571.98 341.42,-541.5 390.82,-519.66"/>
<polygon fill="red" stroke="red" points="392.38,-522.79 400.11,-515.55 389.55,-516.39 392.38,-522.79"/>
<text text-anchor="middle" x="312" y="-566.8" font-family="Times,serif" font-size="14.00"> spawn </text>
</g>
<!-- Background -->
<g id="node4" class="node">
<title>Background</title>
<path fill="azure" stroke="transparent" d="M358,-385C358,-385 269,-385 269,-385 263,-385 257,-379 257,-373 257,-373 257,-288 257,-288 257,-282 263,-276 269,-276 269,-276 358,-276 358,-276 364,-276 370,-282 370,-288 370,-288 370,-373 370,-373 370,-379 364,-385 358,-385"/>
<text text-anchor="start" x="265.5" y="-366.3" font-family="Times,serif" font-weight="bold" font-size="14.00">Background</text>
<text text-anchor="start" x="265.5" y="-341.5" font-family="Times,serif" font-size="10.00">poll()</text>
<text text-anchor="start" x="265.5" y="-330.5" font-family="Times,serif" font-size="10.00">stop()</text>
<text text-anchor="start" x="265.5" y="-319.5" font-family="Times,serif" font-size="10.00">to_foreground()</text>
<text text-anchor="start" x="265.5" y="-308.5" font-family="Times,serif" font-size="10.00">kill()</text>
<text text-anchor="start" x="265.5" y="-297.5" font-family="Times,serif" font-size="10.00">state_name()</text>
<text text-anchor="start" x="287.5" y="-286.5" font-family="Times,serif" font-size="10.00"> &#160;&#160;&#160;&#160;&#160;&#160;&#160;&#160;&#160;&#160;&#160;</text>
<polygon fill="#00688b" stroke="#00688b" points="257.5,-355.5 257.5,-355.5 370.5,-355.5 370.5,-355.5 257.5,-355.5"/>
<path fill="none" stroke="#00688b" d="M269,-276C269,-276 358,-276 358,-276 364,-276 370,-282 370,-288 370,-288 370,-373 370,-373 370,-379 364,-385 358,-385 358,-385 269,-385 269,-385 263,-385 257,-379 257,-373 257,-373 257,-288 257,-288 257,-282 263,-276 269,-276"/>
</g>
<!-- Created&#45;&gt;Background -->
<g id="edge4" class="edge">
<title>Created&#45;&gt;Background</title>
<path fill="none" stroke="red" d="M134.63,-595.96C136.78,-546.1 147.79,-457.37 196.5,-403 211.15,-386.65 223.33,-395.71 242.5,-385 244.27,-384.01 246.04,-382.99 247.82,-381.93"/>
<polygon fill="red" stroke="red" points="250.05,-384.66 256.66,-376.38 246.33,-378.73 250.05,-384.66"/>
<text text-anchor="middle" x="235" y="-486.8" font-family="Times,serif" font-size="14.00"> spawn_detached </text>
</g>
<!-- Done -->
<g id="node6" class="node">
<title>Done</title>
<path fill="azure" stroke="transparent" d="M259,-76C259,-76 200,-76 200,-76 194,-76 188,-70 188,-64 188,-64 188,-12 188,-12 188,-6 194,0 200,0 200,0 259,0 259,0 265,0 271,-6 271,-12 271,-12 271,-64 271,-64 271,-70 265,-76 259,-76"/>
<text text-anchor="start" x="209.5" y="-57.8" font-family="Times,serif" font-weight="bold" font-size="14.00">Done</text>
<text text-anchor="start" x="196.5" y="-33" font-family="Times,serif" font-size="10.00">is_done()</text>
<text text-anchor="start" x="196.5" y="-22" font-family="Times,serif" font-size="10.00">state_name()</text>
<text text-anchor="start" x="211.5" y="-11" font-family="Times,serif" font-size="10.00"> &#160;&#160;&#160;&#160;&#160;&#160;&#160;&#160;&#160;&#160;&#160;</text>
<polygon fill="#00688b" stroke="#00688b" points="188.5,-47 188.5,-47 271.5,-47 271.5,-47 188.5,-47"/>
<path fill="none" stroke="#00688b" d="M200,0C200,0 259,0 259,0 265,0 271,-6 271,-12 271,-12 271,-64 271,-64 271,-70 265,-76 259,-76 259,-76 200,-76 200,-76 194,-76 188,-70 188,-64 188,-64 188,-12 188,-12 188,-6 194,0 200,0"/>
</g>
<!-- Created&#45;&gt;Done -->
<g id="edge3" class="edge">
<title>Created&#45;&gt;Done</title>
<path fill="none" stroke="red" d="M81.17,-595.74C51.5,-570.29 20.5,-533.61 20.5,-491.5 20.5,-491.5 20.5,-491.5 20.5,-175 20.5,-100.06 116.07,-64.28 177.96,-48.97"/>
<polygon fill="red" stroke="red" points="179.04,-52.31 187.96,-46.6 177.42,-45.5 179.04,-52.31"/>
<text text-anchor="middle" x="48" y="-326.8" font-family="Times,serif" font-size="14.00"> spawn </text>
</g>
<!-- Created&#45;&gt;Done -->
<g id="edge5" class="edge">
<title>Created&#45;&gt;Done</title>
<path fill="none" stroke="red" d="M125.08,-595.73C118.73,-567.35 111.5,-527.21 111.5,-491.5 111.5,-491.5 111.5,-491.5 111.5,-175 111.5,-130.95 147.25,-94.19 179.39,-70.04"/>
<polygon fill="red" stroke="red" points="181.86,-72.58 187.9,-63.87 177.75,-66.91 181.86,-72.58"/>
<text text-anchor="middle" x="175" y="-326.8" font-family="Times,serif" font-size="14.00"> spawn_detached </text>
</g>
<!-- Foreground&#45;&gt;Background -->
<g id="edge8" class="edge">
<title>Foreground&#45;&gt;Background</title>
<path fill="none" stroke="red" d="M400.32,-472.55C373.54,-461.35 343.24,-443.87 325.5,-418 320.81,-411.16 317.57,-403.28 315.38,-395.14"/>
<polygon fill="red" stroke="red" points="318.75,-394.14 313.21,-385.11 311.91,-395.63 318.75,-394.14"/>
<text text-anchor="middle" x="383" y="-406.8" font-family="Times,serif" font-size="14.00"> to_background </text>
</g>
<!-- Stopped -->
<g id="node5" class="node">
<title>Stopped</title>
<path fill="azure" stroke="transparent" d="M368,-225C368,-225 291,-225 291,-225 285,-225 279,-219 279,-213 279,-213 279,-139 279,-139 279,-133 285,-127 291,-127 291,-127 368,-127 368,-127 374,-127 380,-133 380,-139 380,-139 380,-213 380,-213 380,-219 374,-225 368,-225"/>
<text text-anchor="start" x="298" y="-206.8" font-family="Times,serif" font-weight="bold" font-size="14.00">Stopped</text>
<text text-anchor="start" x="287.5" y="-182" font-family="Times,serif" font-size="10.00">to_foreground()</text>
<text text-anchor="start" x="287.5" y="-171" font-family="Times,serif" font-size="10.00">to_background()</text>
<text text-anchor="start" x="287.5" y="-160" font-family="Times,serif" font-size="10.00">kill()</text>
<text text-anchor="start" x="287.5" y="-149" font-family="Times,serif" font-size="10.00">state_name()</text>
<text text-anchor="start" x="311.5" y="-138" font-family="Times,serif" font-size="10.00"> &#160;&#160;&#160;&#160;&#160;&#160;&#160;&#160;&#160;&#160;&#160;</text>
<polygon fill="#00688b" stroke="#00688b" points="279.5,-196 279.5,-196 380.5,-196 380.5,-196 279.5,-196"/>
<path fill="none" stroke="#00688b" d="M291,-127C291,-127 368,-127 368,-127 374,-127 380,-133 380,-139 380,-139 380,-213 380,-213 380,-219 374,-225 368,-225 368,-225 291,-225 291,-225 285,-225 279,-219 279,-213 279,-213 279,-139 279,-139 279,-133 285,-127 291,-127"/>
</g>
<!-- Foreground&#45;&gt;Stopped -->
<g id="edge7" class="edge">
<title>Foreground&#45;&gt;Stopped</title>
<path fill="none" stroke="red" d="M457.2,-435.83C459.38,-373.21 459.46,-274.24 440.5,-243 428.7,-223.55 408.81,-209.16 389.11,-198.86"/>
<polygon fill="red" stroke="red" points="390.61,-195.7 380.1,-194.41 387.52,-201.97 390.61,-195.7"/>
<text text-anchor="middle" x="477.5" y="-326.8" font-family="Times,serif" font-size="14.00"> stop </text>
</g>
<!-- Foreground&#45;&gt;Done -->
<g id="edge6" class="edge">
<title>Foreground&#45;&gt;Done</title>
<path fill="none" stroke="red" d="M508.63,-472.83C549.06,-457.2 601.49,-429.46 626.5,-385 650.25,-342.78 649.93,-318.4 626.5,-276 552.88,-142.76 370.48,-76.87 280.86,-51.66"/>
<polygon fill="red" stroke="red" points="281.75,-48.28 271.18,-48.99 279.89,-55.02 281.75,-48.28"/>
<text text-anchor="middle" x="631.5" y="-246.8" font-family="Times,serif" font-size="14.00"> poll </text>
</g>
<!-- Foreground&#45;&gt;Done -->
<g id="edge9" class="edge">
<title>Foreground&#45;&gt;Done</title>
<path fill="none" stroke="red" d="M508.64,-473.3C542.8,-461.43 586.7,-443.01 620.5,-418 684.13,-370.93 683.15,-316.39 653.5,-243 594.1,-95.96 380.97,-54.62 281.42,-43.22"/>
<polygon fill="red" stroke="red" points="281.61,-39.72 271.29,-42.12 280.85,-46.68 281.61,-39.72"/>
<text text-anchor="middle" x="674" y="-246.8" font-family="Times,serif" font-size="14.00"> kill </text>
</g>
<!-- Background&#45;&gt;Foreground -->
<g id="edge12" class="edge">
<title>Background&#45;&gt;Foreground</title>
<path fill="none" stroke="red" d="M256.88,-375.8C252.1,-379.04 247.27,-382.15 242.5,-385 226.12,-394.8 213.79,-386.92 203.5,-403 199.91,-408.62 199.3,-412.83 203.5,-418 228.12,-448.31 251.76,-425.96 289.5,-436 323.24,-444.97 360.27,-456.79 390.68,-467.04"/>
<polygon fill="red" stroke="red" points="389.72,-470.41 400.31,-470.31 391.97,-463.78 389.72,-470.41"/>
<text text-anchor="middle" x="258.5" y="-406.8" font-family="Times,serif" font-size="14.00"> to_foreground </text>
</g>
<!-- Background&#45;&gt;Stopped -->
<g id="edge11" class="edge">
<title>Background&#45;&gt;Stopped</title>
<path fill="none" stroke="red" d="M264.91,-275.7C260.4,-265.11 258.99,-253.9 263.5,-243 265.9,-237.2 269.09,-231.65 272.76,-226.4"/>
<polygon fill="red" stroke="red" points="275.59,-228.47 278.9,-218.41 270.03,-224.21 275.59,-228.47"/>
<text text-anchor="middle" x="283.5" y="-246.8" font-family="Times,serif" font-size="14.00"> stop </text>
</g>
<!-- Background&#45;&gt;Done -->
<g id="edge10" class="edge">
<title>Background&#45;&gt;Done</title>
<path fill="none" stroke="red" d="M256.75,-286.28C251.95,-282.77 247.16,-279.3 242.5,-276 210.81,-253.52 188.88,-259.75 171.5,-225 152.02,-186.04 158.99,-168.72 171.5,-127 175.9,-112.33 183.62,-97.85 192.02,-85"/>
<polygon fill="red" stroke="red" points="195.16,-86.61 197.91,-76.38 189.38,-82.66 195.16,-86.61"/>
<text text-anchor="middle" x="189.5" y="-172.3" font-family="Times,serif" font-size="14.00"> poll </text>
</g>
<!-- Background&#45;&gt;Done -->
<g id="edge13" class="edge">
<title>Background&#45;&gt;Done</title>
<path fill="none" stroke="red" d="M264.79,-275.78C254.03,-260.47 244.39,-243.02 239.5,-225 227.05,-179.07 225.61,-124.48 226.63,-86.36"/>
<polygon fill="red" stroke="red" points="230.14,-86.18 226.98,-76.07 223.15,-85.95 230.14,-86.18"/>
<text text-anchor="middle" x="255" y="-172.3" font-family="Times,serif" font-size="14.00"> kill </text>
</g>
<!-- Stopped&#45;&gt;Foreground -->
<g id="edge14" class="edge">
<title>Stopped&#45;&gt;Foreground</title>
<path fill="none" stroke="red" d="M380.29,-189.75C422,-203.31 477.91,-229.44 501.5,-276 525.44,-323.25 509.31,-382.44 489.68,-426.51"/>
<polygon fill="red" stroke="red" points="486.46,-425.13 485.45,-435.67 492.82,-428.06 486.46,-425.13"/>
<text text-anchor="middle" x="567.5" y="-326.8" font-family="Times,serif" font-size="14.00"> to_foreground </text>
</g>
<!-- Stopped&#45;&gt;Background -->
<g id="edge15" class="edge">
<title>Stopped&#45;&gt;Background</title>
<path fill="none" stroke="red" d="M324.44,-225.2C323.1,-238 321.63,-252.04 320.21,-265.54"/>
<polygon fill="red" stroke="red" points="316.7,-265.42 319.14,-275.73 323.67,-266.15 316.7,-265.42"/>
<text text-anchor="middle" x="379" y="-246.8" font-family="Times,serif" font-size="14.00"> to_background </text>
</g>
<!-- Stopped&#45;&gt;Done -->
<g id="edge16" class="edge">
<title>Stopped&#45;&gt;Done</title>
<path fill="none" stroke="red" d="M293.96,-126.67C283.83,-112.89 272.83,-97.92 262.83,-84.33"/>
<polygon fill="red" stroke="red" points="265.49,-82.04 256.75,-76.06 259.85,-86.19 265.49,-82.04"/>
<text text-anchor="middle" x="295" y="-97.8" font-family="Times,serif" font-size="14.00"> kill </text>
</g>
</g>
</svg>
