<?xml version="1.0" encoding="UTF-8" standalone="no"?>
<!DOCTYPE svg PUBLIC "-//W3C//DTD SVG 1.1//EN"
 "http://www.w3.org/Graphics/SVG/1.1/DTD/svg11.dtd">
<!-- Generated by graphviz version 14.1.5 (20260411.2331)
 -->
<!-- Title: JobControl Pages: 1 -->
<svg width="447pt" height="392pt"
 viewBox="0.00 0.00 447.00 392.00" xmlns="http://www.w3.org/2000/svg" xmlns:xlink="http://www.w3.org/1999/xlink">
<g id="graph0" class="graph" transform="scale(1 1) rotate(0) translate(4 388.15)">
<title>JobControl</title>
<polygon fill="white" stroke="none" points="-4,4 -4,-388.15 443.16,-388.15 443.16,4 -4,4"/>
<!-- Entry -->
<g id="node1" class="node">
<title>Entry</title>
<ellipse fill="black" stroke="#00688b" cx="179.77" cy="-376.95" rx="7.2" ry="7.2"/>
</g>
<!-- Idle -->
<g id="node2" class="node">
<title>Idle</title>
<path fill="azure" stroke="none" d="M281.52,-332.75C281.52,-332.75 78.02,-332.75 78.02,-332.75 72.02,-332.75 66.02,-326.75 66.02,-320.75 66.02,-320.75 66.02,-199 66.02,-199 66.02,-193 72.02,-187 78.02,-187 78.02,-187 281.52,-187 281.52,-187 287.52,-187 293.52,-193 293.52,-199 293.52,-199 293.52,-320.75 293.52,-320.75 293.52,-326.75 287.52,-332.75 281.52,-332.75"/>
<text xml:space="preserve" text-anchor="start" x="168.52" y="-312.45" font-family="Times,serif" font-weight="bold" font-size="14.00">Idle</text>
<text xml:space="preserve" text-anchor="start" x="74.02" y="-287.25" font-family="Times,serif" font-size="10.00">spawn_foreground(cmd: String, args: Vec&lt;String&gt;)</text>
<text xml:space="preserve" text-anchor="start" x="74.02" y="-276" font-family="Times,serif" font-size="10.00">spawn_background(cmd: String, args: Vec&lt;String&gt;)</text>
<text xml:space="preserve" text-anchor="start" x="74.02" y="-264.75" font-family="Times,serif" font-size="10.00">fg(id: u32)</text>
<text xml:space="preserve" text-anchor="start" x="74.02" y="-253.5" font-family="Times,serif" font-size="10.00">bg(id: u32)</text>
<text xml:space="preserve" text-anchor="start" x="74.02" y="-242.25" font-family="Times,serif" font-size="10.00">kill_job(id: u32)</text>
<text xml:space="preserve" text-anchor="start" x="74.02" y="-231" font-family="Times,serif" font-size="10.00">wait_for(id: u32)</text>
<text xml:space="preserve" text-anchor="start" x="74.02" y="-219.75" font-family="Times,serif" font-size="10.00">tick()</text>
<text xml:space="preserve" text-anchor="start" x="74.02" y="-208.5" font-family="Times,serif" font-size="10.00">remove(id: u32)</text>
<text xml:space="preserve" text-anchor="start" x="166.27" y="-197.25" font-family="Times,serif" font-size="10.00"> &#160;&#160;&#160;&#160;&#160;&#160;&#160;&#160;&#160;&#160;&#160;</text>
<polygon fill="#00688b" stroke="#00688b" points="66.02,-302.25 66.02,-302.25 293.52,-302.25 293.52,-302.25 66.02,-302.25"/>
<path fill="none" stroke="#00688b" d="M78.02,-187C78.02,-187 281.52,-187 281.52,-187 287.52,-187 293.52,-193 293.52,-199 293.52,-199 293.52,-320.75 293.52,-320.75 293.52,-326.75 287.52,-332.75 281.52,-332.75 281.52,-332.75 78.02,-332.75 78.02,-332.75 72.02,-332.75 66.02,-326.75 66.02,-320.75 66.02,-320.75 66.02,-199 66.02,-199 66.02,-193 72.02,-187 78.02,-187"/>
</g>
<!-- Entry&#45;&gt;Idle -->
<g id="edge1" class="edge">
<title>Entry&#45;&gt;Idle</title>
<path fill="none" stroke="red" d="M179.77,-369.43C179.77,-363.68 179.77,-354.59 179.77,-344.05"/>
<polygon fill="red" stroke="red" points="183.27,-344.14 179.77,-334.14 176.27,-344.14 183.27,-344.14"/>
</g>
<!-- RunningForeground -->
<g id="node3" class="node">
<title>RunningForeground</title>
<path fill="azure" stroke="none" d="M235.4,-134.5C235.4,-134.5 124.15,-134.5 124.15,-134.5 118.15,-134.5 112.15,-128.5 112.15,-122.5 112.15,-122.5 112.15,-12 112.15,-12 112.15,-6 118.15,0 124.15,0 124.15,0 235.4,0 235.4,0 241.4,0 247.4,-6 247.4,-12 247.4,-12 247.4,-122.5 247.4,-122.5 247.4,-128.5 241.4,-134.5 235.4,-134.5"/>
<text xml:space="preserve" text-anchor="start" x="120.15" y="-114.2" font-family="Times,serif" font-weight="bold" font-size="14.00">RunningForeground</text>
<text xml:space="preserve" text-anchor="start" x="120.15" y="-89" font-family="Times,serif" font-size="10.00">wait_foreground()</text>
<text xml:space="preserve" text-anchor="start" x="120.15" y="-77.75" font-family="Times,serif" font-size="10.00">stop_foreground()</text>
<text xml:space="preserve" text-anchor="start" x="120.15" y="-66.5" font-family="Times,serif" font-size="10.00">kill_job(id: u32)</text>
<text xml:space="preserve" text-anchor="start" x="120.15" y="-55.25" font-family="Times,serif" font-size="10.00">tick()</text>
<text xml:space="preserve" text-anchor="start" x="120.15" y="-44" font-family="Times,serif" font-size="10.00">wait_for(id: u32)</text>
<text xml:space="preserve" text-anchor="start" x="120.15" y="-32.75" font-family="Times,serif" font-size="10.00">is_idle()</text>
<text xml:space="preserve" text-anchor="start" x="120.15" y="-21.5" font-family="Times,serif" font-size="10.00">is_running_foreground()</text>
<text xml:space="preserve" text-anchor="start" x="156.9" y="-10.25" font-family="Times,serif" font-size="10.00"> &#160;&#160;&#160;&#160;&#160;&#160;&#160;&#160;&#160;&#160;&#160;</text>
<polygon fill="#00688b" stroke="#00688b" points="112.15,-104 112.15,-104 247.4,-104 247.4,-104 112.15,-104"/>
<path fill="none" stroke="#00688b" d="M124.15,0C124.15,0 235.4,0 235.4,0 241.4,0 247.4,-6 247.4,-12 247.4,-12 247.4,-122.5 247.4,-122.5 247.4,-128.5 241.4,-134.5 235.4,-134.5 235.4,-134.5 124.15,-134.5 124.15,-134.5 118.15,-134.5 112.15,-128.5 112.15,-122.5 112.15,-122.5 112.15,-12 112.15,-12 112.15,-6 118.15,0 124.15,0"/>
</g>
<!-- Idle&#45;&gt;RunningForeground -->
<g id="edge2" class="edge">
<title>Idle&#45;&gt;RunningForeground</title>
<path fill="none" stroke="red" d="M66.06,-230.95C21.03,-213.85 -15.33,-188.27 7.02,-152.5 27.93,-119.03 66.39,-98.51 101.72,-86.11"/>
<polygon fill="red" stroke="red" points="102.74,-89.46 111.13,-82.99 100.53,-82.82 102.74,-89.46"/>
<text xml:space="preserve" text-anchor="middle" x="61.4" y="-155.7" font-family="Times,serif" font-size="14.00"> spawn_foreground </text>
</g>
<!-- Idle&#45;&gt;RunningForeground -->
<g id="edge3" class="edge">
<title>Idle&#45;&gt;RunningForeground</title>
<path fill="none" stroke="red" d="M139.89,-187.05C137.18,-175.65 136.42,-163.87 139.02,-152.5 139.58,-150.06 140.22,-147.6 140.93,-145.14"/>
<polygon fill="red" stroke="red" points="144.2,-146.42 143.98,-135.83 137.54,-144.24 144.2,-146.42"/>
<text xml:space="preserve" text-anchor="middle" x="148.4" y="-155.7" font-family="Times,serif" font-size="14.00"> fg </text>
</g>
<!-- RunningForeground&#45;&gt;Idle -->
<g id="edge4" class="edge">
<title>RunningForeground&#45;&gt;Idle</title>
<path fill="none" stroke="red" d="M179.77,-134.33C179.77,-147.63 179.77,-161.78 179.77,-175.59"/>
<polygon fill="red" stroke="red" points="176.27,-175.57 179.77,-185.57 183.27,-175.57 176.27,-175.57"/>
<text xml:space="preserve" text-anchor="middle" x="228.52" y="-155.7" font-family="Times,serif" font-size="14.00"> wait_foreground </text>
</g>
<!-- RunningForeground&#45;&gt;Idle -->
<g id="edge5" class="edge">
<title>RunningForeground&#45;&gt;Idle</title>
<path fill="none" stroke="red" d="M247.18,-102.81C271.37,-120.26 290.19,-143.21 278.77,-169 277.52,-171.84 276.12,-174.62 274.6,-177.36"/>
<polygon fill="red" stroke="red" points="271.71,-175.38 269.42,-185.72 277.66,-179.07 271.71,-175.38"/>
<text xml:space="preserve" text-anchor="middle" x="330.51" y="-155.7" font-family="Times,serif" font-size="14.00"> stop_foreground </text>
</g>
<!-- RunningForeground&#45;&gt;Idle -->
<g id="edge6" class="edge">
<title>RunningForeground&#45;&gt;Idle</title>
<path fill="none" stroke="red" d="M247.28,-76.79C293.93,-86.59 352.79,-107.6 382.77,-152.5 410.74,-194.39 361.41,-220.86 304.39,-236.92"/>
<polygon fill="red" stroke="red" points="303.5,-233.54 294.75,-239.51 305.31,-240.3 303.5,-233.54"/>
<text xml:space="preserve" text-anchor="middle" x="414.41" y="-155.7" font-family="Times,serif" font-size="14.00"> kill_job </text>
</g>
</g>
</svg>
