<?xml version="1.0" encoding="UTF-8" standalone="no"?>
<!DOCTYPE svg PUBLIC "-//W3C//DTD SVG 1.1//EN"
 "http://www.w3.org/Graphics/SVG/1.1/DTD/svg11.dtd">
<!-- Generated by graphviz version 14.1.5 (20260411.2331)
 -->
<!-- Title: JobControl Pages: 1 -->
<svg width="447pt" height="381pt"
 viewBox="0.00 0.00 447.00 381.00" xmlns="http://www.w3.org/2000/svg" xmlns:xlink="http://www.w3.org/1999/xlink">
<g id="graph0" class="graph" transform="scale(1 1) rotate(0) translate(4 376.9)">
<title>JobControl</title>
<polygon fill="white" stroke="none" points="-4,4 -4,-376.9 443.06,-376.9 443.06,4 -4,4"/>
<!-- Entry -->
<g id="node1" class="node">
<title>Entry</title>
<ellipse fill="black" stroke="#00688b" cx="179.77" cy="-365.7" rx="7.2" ry="7.2"/>
</g>
<!-- Idle -->
<g id="node2" class="node">
<title>Idle</title>
<path fill="azure" stroke="none" d="M281.52,-321.5C281.52,-321.5 78.02,-321.5 78.02,-321.5 72.02,-321.5 66.02,-315.5 66.02,-309.5 66.02,-309.5 66.02,-199 66.02,-199 66.02,-193 72.02,-187 78.02,-187 78.02,-187 281.52,-187 281.52,-187 287.52,-187 293.52,-193 293.52,-199 293.52,-199 293.52,-309.5 293.52,-309.5 293.52,-315.5 287.52,-321.5 281.52,-321.5"/>
<text xml:space="preserve" text-anchor="start" x="168.52" y="-301.2" font-family="Times,serif" font-weight="bold" font-size="14.00">Idle</text>
<text xml:space="preserve" text-anchor="start" x="74.02" y="-276" font-family="Times,serif" font-size="10.00">spawn_foreground(cmd: String, args: Vec&lt;String&gt;)</text>
<text xml:space="preserve" text-anchor="start" x="74.02" y="-264.75" font-family="Times,serif" font-size="10.00">spawn_background(cmd: String, args: Vec&lt;String&gt;)</text>
<text xml:space="preserve" text-anchor="start" x="74.02" y="-253.5" font-family="Times,serif" font-size="10.00">fg(id: u32)</text>
<text xml:space="preserve" text-anchor="start" x="74.02" y="-242.25" font-family="Times,serif" font-size="10.00">bg(id: u32)</text>
<text xml:space="preserve" text-anchor="start" x="74.02" y="-231" font-family="Times,serif" font-size="10.00">kill_job(id: u32)</text>
<text xml:space="preserve" text-anchor="start" x="74.02" y="-219.75" font-family="Times,serif" font-size="10.00">wait_for(id: u32)</text>
<text xml:space="preserve" text-anchor="start" x="74.02" y="-208.5" font-family="Times,serif" font-size="10.00">tick()</text>
<text xml:space="preserve" text-anchor="start" x="166.27" y="-197.25" font-family="Times,serif" font-size="10.00"> &#160;&#160;&#160;&#160;&#160;&#160;&#160;&#160;&#160;&#160;&#160;</text>
<polygon fill="#00688b" stroke="#00688b" points="66.02,-291 66.02,-291 293.52,-291 293.52,-291 66.02,-291"/>
<path fill="none" stroke="#00688b" d="M78.02,-187C78.02,-187 281.52,-187 281.52,-187 287.52,-187 293.52,-193 293.52,-199 293.52,-199 293.52,-309.5 293.52,-309.5 293.52,-315.5 287.52,-321.5 281.52,-321.5 281.52,-321.5 78.02,-321.5 78.02,-321.5 72.02,-321.5 66.02,-315.5 66.02,-309.5 66.02,-309.5 66.02,-199 66.02,-199 66.02,-193 72.02,-187 78.02,-187"/>
</g>
<!-- Entry&#45;&gt;Idle -->
<g id="edge1" class="edge">
<title>Entry&#45;&gt;Idle</title>
<path fill="none" stroke="red" d="M179.77,-358.18C179.77,-352.41 179.77,-343.29 179.77,-332.8"/>
<polygon fill="red" stroke="red" points="183.27,-332.98 179.77,-322.98 176.27,-332.98 183.27,-332.98"/>
</g>
<!-- RunningForeground -->
<g id="node3" class="node">
<title>RunningForeground</title>
<path fill="azure" stroke="none" d="M235.4,-134.5C235.4,-134.5 124.15,-134.5 124.15,-134.5 118.15,-134.5 112.15,-128.5 112.15,-122.5 112.15,-122.5 112.15,-12 112.15,-12 112.15,-6 118.15,0 124.15,0 124.15,0 235.4,0 235.4,0 241.4,0 247.4,-6 247.4,-12 247.4,-12 247.4,-122.5 247.4,-122.5 247.4,-128.5 241.4,-134.5 235.4,-134.5"/>
<text xml:space="preserve" text-anchor="start" x="120.15" y="-114.2" font-family="Times,serif" font-weight="bold" font-size="14.00">RunningForeground</text>
<text xml:space="preserve" text-anchor="start" x="120.15" y="-89" font-family="Times,serif" font-size="10.00">wait_foreground()</text>
<text xml:space="preserve" text-anchor="start" x="120.15" y="-77.75" font-family="Times,serif" font-size="10.00">stop_foreground()</text>
<text xml:space="preserve" text-anchor="start" x="120.15" y="-66.5" font-family="Times,serif" font-size="10.00">kill_job(id: u32)</text>
<text xml:space="preserve" text-anchor="start" x="120.15" y="-55.25" font-family="Times,serif" font-size="10.00">tick()</text>
<text xml:space="preserve" text-anchor="start" x="120.15" y="-44" font-family="Times,serif" font-size="10.00">wait_for(id: u32)</text>
<text xml:space="preserve" text-anchor="start" x="120.15" y="-32.75" font-family="Times,serif" font-size="10.00">is_idle()</text>
<text xml:space="preserve" text-anchor="start" x="120.15" y="-21.5" font-family="Times,serif" font-size="10.00">is_running_foreground()</text>
<text xml:space="preserve" text-anchor="start" x="156.9" y="-10.25" font-family="Times,serif" font-size="10.00"> &#160;&#160;&#160;&#160;&#160;&#160;&#160;&#160;&#160;&#160;&#160;</text>
<polygon fill="#00688b" stroke="#00688b" points="112.15,-104 112.15,-104 247.4,-104 247.4,-104 112.15,-104"/>
<path fill="none" stroke="#00688b" d="M124.15,0C124.15,0 235.4,0 235.4,0 241.4,0 247.4,-6 247.4,-12 247.4,-12 247.4,-122.5 247.4,-122.5 247.4,-128.5 241.4,-134.5 235.4,-134.5 235.4,-134.5 124.15,-134.5 124.15,-134.5 118.15,-134.5 112.15,-128.5 112.15,-122.5 112.15,-122.5 112.15,-12 112.15,-12 112.15,-6 118.15,0 124.15,0"/>
</g>
<!-- Idle&#45;&gt;RunningForeground -->
<g id="edge2" class="edge">
<title>Idle&#45;&gt;RunningForeground</title>
<path fill="none" stroke="red" d="M66.26,-220.18C42.79,-207.94 20.99,-191.35 7.02,-169 -20.59,-124.81 43.54,-97.81 101.34,-83.03"/>
<polygon fill="red" stroke="red" points="102.06,-86.45 110.94,-80.68 100.4,-79.65 102.06,-86.45"/>
<text xml:space="preserve" text-anchor="middle" x="61.4" y="-155.7" font-family="Times,serif" font-size="14.00"> spawn_foreground </text>
</g>
<!-- Idle&#45;&gt;RunningForeground -->
<g id="edge3" class="edge">
<title>Idle&#45;&gt;RunningForeground</title>
<path fill="none" stroke="red" d="M140.53,-187.01C137.45,-175.69 136.41,-163.9 139.02,-152.5 139.58,-150.06 140.22,-147.6 140.93,-145.14"/>
<polygon fill="red" stroke="red" points="144.2,-146.42 143.98,-135.83 137.54,-144.24 144.2,-146.42"/>
<text xml:space="preserve" text-anchor="middle" x="148.4" y="-155.7" font-family="Times,serif" font-size="14.00"> fg </text>
</g>
<!-- RunningForeground&#45;&gt;Idle -->
<g id="edge4" class="edge">
<title>RunningForeground&#45;&gt;Idle</title>
<path fill="none" stroke="red" d="M179.77,-134.23C179.77,-147.69 179.77,-161.96 179.77,-175.78"/>
<polygon fill="red" stroke="red" points="176.27,-175.73 179.77,-185.73 183.27,-175.73 176.27,-175.73"/>
<text xml:space="preserve" text-anchor="middle" x="228.52" y="-155.7" font-family="Times,serif" font-size="14.00"> wait_foreground </text>
</g>
<!-- RunningForeground&#45;&gt;Idle -->
<g id="edge5" class="edge">
<title>RunningForeground&#45;&gt;Idle</title>
<path fill="none" stroke="red" d="M247.24,-102.75C271.66,-120.27 290.65,-143.29 278.77,-169 277.4,-171.98 275.86,-174.89 274.18,-177.73"/>
<polygon fill="red" stroke="red" points="271.4,-175.59 268.8,-185.86 277.24,-179.45 271.4,-175.59"/>
<text xml:space="preserve" text-anchor="middle" x="330.7" y="-155.7" font-family="Times,serif" font-size="14.00"> stop_foreground </text>
</g>
<!-- RunningForeground&#45;&gt;Idle -->
<g id="edge6" class="edge">
<title>RunningForeground&#45;&gt;Idle</title>
<path fill="none" stroke="red" d="M247.29,-76.14C319.7,-87.58 419.64,-113.78 382.77,-169 364.26,-196.73 334.74,-215.34 303.88,-227.83"/>
<polygon fill="red" stroke="red" points="302.88,-224.47 294.79,-231.3 305.38,-231.01 302.88,-224.47"/>
<text xml:space="preserve" text-anchor="middle" x="414.31" y="-155.7" font-family="Times,serif" font-size="14.00"> kill_job </text>
</g>
</g>
</svg>
