<?xml version="1.0" encoding="UTF-8" standalone="no"?>
<!DOCTYPE svg PUBLIC "-//W3C//DTD SVG 1.1//EN"
 "http://www.w3.org/Graphics/SVG/1.1/DTD/svg11.dtd">
<!-- Generated by graphviz version 2.43.0 (0)
 -->
<!-- Title: JobControl Pages: 1 -->
<svg width="557pt" height="372pt"
 viewBox="0.00 0.00 556.74 372.00" xmlns="http://www.w3.org/2000/svg" xmlns:xlink="http://www.w3.org/1999/xlink">
<g id="graph0" class="graph" transform="scale(1 1) rotate(0) translate(4 368)">
<title>JobControl</title>
<polygon fill="white" stroke="transparent" points="-4,4 -4,-368 552.74,-368 552.74,4 -4,4"/>
<!-- Entry -->
<g id="node1" class="node">
<title>Entry</title>
<ellipse fill="black" stroke="#00688b" cx="219.74" cy="-357" rx="7" ry="7"/>
</g>
<!-- Idle -->
<g id="node2" class="node">
<title>Idle</title>
<path fill="azure" stroke="transparent" d="M349.24,-313C349.24,-313 90.24,-313 90.24,-313 84.24,-313 78.24,-307 78.24,-301 78.24,-301 78.24,-194 78.24,-194 78.24,-188 84.24,-182 90.24,-182 90.24,-182 349.24,-182 349.24,-182 355.24,-182 361.24,-188 361.24,-194 361.24,-194 361.24,-301 361.24,-301 361.24,-307 355.24,-313 349.24,-313"/>
<text text-anchor="start" x="204.74" y="-294.3" font-family="Times,serif" font-weight="bold" font-size="14.00">Idle</text>
<text text-anchor="start" x="86.74" y="-269.5" font-family="Times,serif" font-size="10.00">spawn_foreground(cmd: String, args: Vec&lt;String&gt;)</text>
<text text-anchor="start" x="86.74" y="-258.5" font-family="Times,serif" font-size="10.00">spawn_background(cmd: String, args: Vec&lt;String&gt;)</text>
<text text-anchor="start" x="86.74" y="-247.5" font-family="Times,serif" font-size="10.00">fg(id: u32)</text>
<text text-anchor="start" x="86.74" y="-236.5" font-family="Times,serif" font-size="10.00">bg(id: u32)</text>
<text text-anchor="start" x="86.74" y="-225.5" font-family="Times,serif" font-size="10.00">kill_job(id: u32)</text>
<text text-anchor="start" x="86.74" y="-214.5" font-family="Times,serif" font-size="10.00">wait_for(id: u32)</text>
<text text-anchor="start" x="86.74" y="-203.5" font-family="Times,serif" font-size="10.00">tick()</text>
<text text-anchor="start" x="201.74" y="-192.5" font-family="Times,serif" font-size="10.00"> &#160;&#160;&#160;&#160;&#160;&#160;&#160;&#160;&#160;&#160;&#160;</text>
<polygon fill="#00688b" stroke="#00688b" points="78.74,-283.5 78.74,-283.5 361.74,-283.5 361.74,-283.5 78.74,-283.5"/>
<path fill="none" stroke="#00688b" d="M90.24,-182C90.24,-182 349.24,-182 349.24,-182 355.24,-182 361.24,-188 361.24,-194 361.24,-194 361.24,-301 361.24,-301 361.24,-307 355.24,-313 349.24,-313 349.24,-313 90.24,-313 90.24,-313 84.24,-313 78.24,-307 78.24,-301 78.24,-301 78.24,-194 78.24,-194 78.24,-188 84.24,-182 90.24,-182"/>
</g>
<!-- Entry&#45;&gt;Idle -->
<g id="edge1" class="edge">
<title>Entry&#45;&gt;Idle</title>
<path fill="none" stroke="red" d="M219.74,-349.91C219.74,-344 219.74,-334.32 219.74,-323.22"/>
<polygon fill="red" stroke="red" points="223.24,-323.16 219.74,-313.16 216.24,-323.16 223.24,-323.16"/>
</g>
<!-- RunningForeground -->
<g id="node3" class="node">
<title>RunningForeground</title>
<path fill="azure" stroke="transparent" d="M296.24,-131C296.24,-131 143.24,-131 143.24,-131 137.24,-131 131.24,-125 131.24,-119 131.24,-119 131.24,-12 131.24,-12 131.24,-6 137.24,0 143.24,0 143.24,0 296.24,0 296.24,0 302.24,0 308.24,-6 308.24,-12 308.24,-12 308.24,-119 308.24,-119 308.24,-125 302.24,-131 296.24,-131"/>
<text text-anchor="start" x="139.74" y="-112.3" font-family="Times,serif" font-weight="bold" font-size="14.00">RunningForeground</text>
<text text-anchor="start" x="139.74" y="-87.5" font-family="Times,serif" font-size="10.00">wait_foreground()</text>
<text text-anchor="start" x="139.74" y="-76.5" font-family="Times,serif" font-size="10.00">stop_foreground()</text>
<text text-anchor="start" x="139.74" y="-65.5" font-family="Times,serif" font-size="10.00">kill_job(id: u32)</text>
<text text-anchor="start" x="139.74" y="-54.5" font-family="Times,serif" font-size="10.00">tick()</text>
<text text-anchor="start" x="139.74" y="-43.5" font-family="Times,serif" font-size="10.00">wait_for(id: u32)</text>
<text text-anchor="start" x="139.74" y="-32.5" font-family="Times,serif" font-size="10.00">is_idle()</text>
<text text-anchor="start" x="139.74" y="-21.5" font-family="Times,serif" font-size="10.00">is_running_foreground()</text>
<text text-anchor="start" x="184.24" y="-10.5" font-family="Times,serif" font-size="10.00"> &#160;&#160;&#160;&#160;&#160;&#160;&#160;&#160;&#160;&#160;&#160;</text>
<polygon fill="#00688b" stroke="#00688b" points="131.74,-101.5 131.74,-101.5 308.74,-101.5 308.74,-101.5 131.74,-101.5"/>
<path fill="none" stroke="#00688b" d="M143.24,0C143.24,0 296.24,0 296.24,0 302.24,0 308.24,-6 308.24,-12 308.24,-12 308.24,-119 308.24,-119 308.24,-125 302.24,-131 296.24,-131 296.24,-131 143.24,-131 143.24,-131 137.24,-131 131.24,-125 131.24,-119 131.24,-119 131.24,-12 131.24,-12 131.24,-6 137.24,0 143.24,0"/>
</g>
<!-- Idle&#45;&gt;RunningForeground -->
<g id="edge2" class="edge">
<title>Idle&#45;&gt;RunningForeground</title>
<path fill="none" stroke="red" d="M78.21,-217.99C50.87,-205.87 25.54,-188.61 8.74,-164 -24.93,-114.68 50.82,-89.8 120.74,-77.59"/>
<polygon fill="red" stroke="red" points="121.72,-80.97 131,-75.88 120.56,-74.07 121.72,-80.97"/>
<text text-anchor="middle" x="79.74" y="-152.8" font-family="Times,serif" font-size="14.00"> spawn_foreground </text>
</g>
<!-- Idle&#45;&gt;RunningForeground -->
<g id="edge3" class="edge">
<title>Idle&#45;&gt;RunningForeground</title>
<path fill="none" stroke="red" d="M179.69,-181.56C177.31,-175.77 175.26,-169.87 173.74,-164 171.76,-156.38 171.67,-148.63 172.9,-141"/>
<polygon fill="red" stroke="red" points="176.36,-141.6 175.25,-131.06 169.55,-139.99 176.36,-141.6"/>
<text text-anchor="middle" x="185.74" y="-152.8" font-family="Times,serif" font-size="14.00"> fg </text>
</g>
<!-- RunningForeground&#45;&gt;Idle -->
<g id="edge4" class="edge">
<title>RunningForeground&#45;&gt;Idle</title>
<path fill="none" stroke="red" d="M219.74,-131.26C219.74,-144.35 219.74,-158.22 219.74,-171.63"/>
<polygon fill="red" stroke="red" points="216.24,-171.77 219.74,-181.77 223.24,-171.77 216.24,-171.77"/>
<text text-anchor="middle" x="283.24" y="-152.8" font-family="Times,serif" font-size="14.00"> wait_foreground </text>
</g>
<!-- RunningForeground&#45;&gt;Idle -->
<g id="edge5" class="edge">
<title>RunningForeground&#45;&gt;Idle</title>
<path fill="none" stroke="red" d="M308.26,-97.41C339.26,-113.65 362.98,-136.04 347.74,-164 345.89,-167.39 343.83,-170.66 341.6,-173.82"/>
<polygon fill="red" stroke="red" points="338.69,-171.87 335.3,-181.91 344.21,-176.17 338.69,-171.87"/>
<text text-anchor="middle" x="415.24" y="-152.8" font-family="Times,serif" font-size="14.00"> stop_foreground </text>
</g>
<!-- RunningForeground&#45;&gt;Idle -->
<g id="edge6" class="edge">
<title>RunningForeground&#45;&gt;Idle</title>
<path fill="none" stroke="red" d="M308.35,-69.74C402.38,-76.61 531.23,-97.96 482.74,-164 456.27,-200.04 414.09,-220.76 371.19,-232.54"/>
<polygon fill="red" stroke="red" points="370.26,-229.17 361.45,-235.07 372.01,-235.95 370.26,-229.17"/>
<text text-anchor="middle" x="518.74" y="-152.8" font-family="Times,serif" font-size="14.00"> kill_job </text>
</g>
</g>
</svg>
