<?xml version="1.0" encoding="UTF-8" standalone="no"?>
<!DOCTYPE svg PUBLIC "-//W3C//DTD SVG 1.1//EN"
 "http://www.w3.org/Graphics/SVG/1.1/DTD/svg11.dtd">
<!-- Generated by graphviz version 14.1.5 (20260411.2331)
 -->
<!-- Title: JobControl Pages: 1 -->
<svg width="445pt" height="538pt"
 viewBox="0.00 0.00 445.00 538.00" xmlns="http://www.w3.org/2000/svg" xmlns:xlink="http://www.w3.org/1999/xlink">
<g id="graph0" class="graph" transform="scale(1 1) rotate(0) translate(4 534.4)">
<title>JobControl</title>
<polygon fill="white" stroke="none" points="-4,4 -4,-534.4 440.6,-534.4 440.6,4 -4,4"/>
<!-- Entry -->
<g id="node1" class="node">
<title>Entry</title>
<ellipse fill="black" stroke="#00688b" cx="179.11" cy="-523.2" rx="7.2" ry="7.2"/>
</g>
<!-- Idle -->
<g id="node2" class="node">
<title>Idle</title>
<path fill="azure" stroke="none" d="M280.86,-479C280.86,-479 77.36,-479 77.36,-479 71.36,-479 65.36,-473 65.36,-467 65.36,-467 65.36,-277.75 65.36,-277.75 65.36,-271.75 71.36,-265.75 77.36,-265.75 77.36,-265.75 280.86,-265.75 280.86,-265.75 286.86,-265.75 292.86,-271.75 292.86,-277.75 292.86,-277.75 292.86,-467 292.86,-467 292.86,-473 286.86,-479 280.86,-479"/>
<text xml:space="preserve" text-anchor="start" x="167.86" y="-458.7" font-family="Times,serif" font-weight="bold" font-size="14.00">Idle</text>
<text xml:space="preserve" text-anchor="start" x="73.36" y="-433.5" font-family="Times,serif" font-size="10.00">spawn_foreground(cmd: String, args: Vec&lt;String&gt;)</text>
<text xml:space="preserve" text-anchor="start" x="73.36" y="-422.25" font-family="Times,serif" font-size="10.00">spawn_background(cmd: String, args: Vec&lt;String&gt;)</text>
<text xml:space="preserve" text-anchor="start" x="73.36" y="-411" font-family="Times,serif" font-size="10.00">fg(id: u32)</text>
<text xml:space="preserve" text-anchor="start" x="73.36" y="-399.75" font-family="Times,serif" font-size="10.00">bg(id: u32)</text>
<text xml:space="preserve" text-anchor="start" x="73.36" y="-388.5" font-family="Times,serif" font-size="10.00">kill_job(id: u32)</text>
<text xml:space="preserve" text-anchor="start" x="73.36" y="-377.25" font-family="Times,serif" font-size="10.00">wait_for(id: u32)</text>
<text xml:space="preserve" text-anchor="start" x="73.36" y="-366" font-family="Times,serif" font-size="10.00">tick()</text>
<text xml:space="preserve" text-anchor="start" x="73.36" y="-354.75" font-family="Times,serif" font-size="10.00">wait_foreground()</text>
<text xml:space="preserve" text-anchor="start" x="73.36" y="-343.5" font-family="Times,serif" font-size="10.00">stop_foreground()</text>
<text xml:space="preserve" text-anchor="start" x="73.36" y="-332.25" font-family="Times,serif" font-size="10.00">jobs()</text>
<text xml:space="preserve" text-anchor="start" x="73.36" y="-321" font-family="Times,serif" font-size="10.00">foreground_id()</text>
<text xml:space="preserve" text-anchor="start" x="73.36" y="-309.75" font-family="Times,serif" font-size="10.00">next_job_id()</text>
<text xml:space="preserve" text-anchor="start" x="73.36" y="-298.5" font-family="Times,serif" font-size="10.00">is_idle()</text>
<text xml:space="preserve" text-anchor="start" x="73.36" y="-287.25" font-family="Times,serif" font-size="10.00">is_running_foreground()</text>
<text xml:space="preserve" text-anchor="start" x="165.61" y="-276" font-family="Times,serif" font-size="10.00"> &#160;&#160;&#160;&#160;&#160;&#160;&#160;&#160;&#160;&#160;&#160;</text>
<polygon fill="#00688b" stroke="#00688b" points="65.36,-448.5 65.36,-448.5 292.86,-448.5 292.86,-448.5 65.36,-448.5"/>
<path fill="none" stroke="#00688b" d="M77.36,-265.75C77.36,-265.75 280.86,-265.75 280.86,-265.75 286.86,-265.75 292.86,-271.75 292.86,-277.75 292.86,-277.75 292.86,-467 292.86,-467 292.86,-473 286.86,-479 280.86,-479 280.86,-479 77.36,-479 77.36,-479 71.36,-479 65.36,-473 65.36,-467 65.36,-467 65.36,-277.75 65.36,-277.75 65.36,-271.75 71.36,-265.75 77.36,-265.75"/>
</g>
<!-- Entry&#45;&gt;Idle -->
<g id="edge1" class="edge">
<title>Entry&#45;&gt;Idle</title>
<path fill="none" stroke="red" d="M179.11,-515.81C179.11,-510.13 179.11,-501.06 179.11,-490.18"/>
<polygon fill="red" stroke="red" points="182.61,-490.27 179.11,-480.27 175.61,-490.27 182.61,-490.27"/>
</g>
<!-- RunningForeground -->
<g id="node3" class="node">
<title>RunningForeground</title>
<path fill="azure" stroke="none" d="M280.86,-213.25C280.86,-213.25 77.36,-213.25 77.36,-213.25 71.36,-213.25 65.36,-207.25 65.36,-201.25 65.36,-201.25 65.36,-12 65.36,-12 65.36,-6 71.36,0 77.36,0 77.36,0 280.86,0 280.86,0 286.86,0 292.86,-6 292.86,-12 292.86,-12 292.86,-201.25 292.86,-201.25 292.86,-207.25 286.86,-213.25 280.86,-213.25"/>
<text xml:space="preserve" text-anchor="start" x="119.49" y="-192.95" font-family="Times,serif" font-weight="bold" font-size="14.00">RunningForeground</text>
<text xml:space="preserve" text-anchor="start" x="73.36" y="-167.75" font-family="Times,serif" font-size="10.00">wait_foreground()</text>
<text xml:space="preserve" text-anchor="start" x="73.36" y="-156.5" font-family="Times,serif" font-size="10.00">stop_foreground()</text>
<text xml:space="preserve" text-anchor="start" x="73.36" y="-145.25" font-family="Times,serif" font-size="10.00">kill_job(id: u32)</text>
<text xml:space="preserve" text-anchor="start" x="73.36" y="-134" font-family="Times,serif" font-size="10.00">tick()</text>
<text xml:space="preserve" text-anchor="start" x="73.36" y="-122.75" font-family="Times,serif" font-size="10.00">spawn_foreground(cmd: String, args: Vec&lt;String&gt;)</text>
<text xml:space="preserve" text-anchor="start" x="73.36" y="-111.5" font-family="Times,serif" font-size="10.00">spawn_background(cmd: String, args: Vec&lt;String&gt;)</text>
<text xml:space="preserve" text-anchor="start" x="73.36" y="-100.25" font-family="Times,serif" font-size="10.00">fg(id: u32)</text>
<text xml:space="preserve" text-anchor="start" x="73.36" y="-89" font-family="Times,serif" font-size="10.00">bg(id: u32)</text>
<text xml:space="preserve" text-anchor="start" x="73.36" y="-77.75" font-family="Times,serif" font-size="10.00">wait_for(id: u32)</text>
<text xml:space="preserve" text-anchor="start" x="73.36" y="-66.5" font-family="Times,serif" font-size="10.00">jobs()</text>
<text xml:space="preserve" text-anchor="start" x="73.36" y="-55.25" font-family="Times,serif" font-size="10.00">foreground_id()</text>
<text xml:space="preserve" text-anchor="start" x="73.36" y="-44" font-family="Times,serif" font-size="10.00">next_job_id()</text>
<text xml:space="preserve" text-anchor="start" x="73.36" y="-32.75" font-family="Times,serif" font-size="10.00">is_idle()</text>
<text xml:space="preserve" text-anchor="start" x="73.36" y="-21.5" font-family="Times,serif" font-size="10.00">is_running_foreground()</text>
<text xml:space="preserve" text-anchor="start" x="165.61" y="-10.25" font-family="Times,serif" font-size="10.00"> &#160;&#160;&#160;&#160;&#160;&#160;&#160;&#160;&#160;&#160;&#160;</text>
<polygon fill="#00688b" stroke="#00688b" points="65.36,-182.75 65.36,-182.75 292.86,-182.75 292.86,-182.75 65.36,-182.75"/>
<path fill="none" stroke="#00688b" d="M77.36,0C77.36,0 280.86,0 280.86,0 286.86,0 292.86,-6 292.86,-12 292.86,-12 292.86,-201.25 292.86,-201.25 292.86,-207.25 286.86,-213.25 280.86,-213.25 280.86,-213.25 77.36,-213.25 77.36,-213.25 71.36,-213.25 65.36,-207.25 65.36,-201.25 65.36,-201.25 65.36,-12 65.36,-12 65.36,-6 71.36,0 77.36,0"/>
</g>
<!-- Idle&#45;&gt;RunningForeground -->
<g id="edge2" class="edge">
<title>Idle&#45;&gt;RunningForeground</title>
<path fill="none" stroke="red" d="M65.56,-313.63C41.78,-295.9 19.85,-273.99 6.36,-247.75 -13.05,-209.99 16.07,-178.82 55.62,-155.55"/>
<polygon fill="red" stroke="red" points="57.26,-158.64 64.27,-150.69 53.84,-152.53 57.26,-158.64"/>
<text xml:space="preserve" text-anchor="middle" x="60.74" y="-234.45" font-family="Times,serif" font-size="14.00"> spawn_foreground </text>
</g>
<!-- Idle&#45;&gt;RunningForeground -->
<g id="edge3" class="edge">
<title>Idle&#45;&gt;RunningForeground</title>
<path fill="none" stroke="red" d="M141.95,-266.05C140.55,-259.9 139.33,-253.77 138.36,-247.75 137.12,-240.01 136.77,-232.1 137.12,-224.17"/>
<polygon fill="red" stroke="red" points="140.59,-224.72 137.93,-214.47 133.61,-224.14 140.59,-224.72"/>
<text xml:space="preserve" text-anchor="middle" x="147.74" y="-234.45" font-family="Times,serif" font-size="14.00"> fg </text>
</g>
<!-- RunningForeground&#45;&gt;Idle -->
<g id="edge4" class="edge">
<title>RunningForeground&#45;&gt;Idle</title>
<path fill="none" stroke="red" d="M179.11,-212.84C179.11,-226.65 179.11,-240.86 179.11,-254.84"/>
<polygon fill="red" stroke="red" points="175.61,-254.48 179.11,-264.48 182.61,-254.48 175.61,-254.48"/>
<text xml:space="preserve" text-anchor="middle" x="227.86" y="-234.45" font-family="Times,serif" font-size="14.00"> wait_foreground </text>
</g>
<!-- RunningForeground&#45;&gt;Idle -->
<g id="edge5" class="edge">
<title>RunningForeground&#45;&gt;Idle</title>
<path fill="none" stroke="red" d="M279.68,-212.93C282.38,-224.24 282.26,-235.95 278.11,-247.75 277.21,-250.32 276.23,-252.88 275.18,-255.42"/>
<polygon fill="red" stroke="red" points="272.05,-253.84 271.09,-264.39 278.42,-256.74 272.05,-253.84"/>
<text xml:space="preserve" text-anchor="middle" x="329.48" y="-234.45" font-family="Times,serif" font-size="14.00"> stop_foreground </text>
</g>
<!-- RunningForeground&#45;&gt;Idle -->
<g id="edge6" class="edge">
<title>RunningForeground&#45;&gt;Idle</title>
<path fill="none" stroke="red" d="M292.63,-138.68C353.28,-161.67 410.22,-197.72 382.11,-247.75 364.12,-279.78 334.08,-304.49 302.56,-323.09"/>
<polygon fill="red" stroke="red" points="301.02,-319.93 294.06,-327.92 304.48,-326.02 301.02,-319.93"/>
<text xml:space="preserve" text-anchor="middle" x="411.85" y="-234.45" font-family="Times,serif" font-size="14.00"> kill_job </text>
</g>
</g>
</svg>
