<?xml version="1.0" encoding="UTF-8" standalone="no"?>
<!DOCTYPE svg PUBLIC "-//W3C//DTD SVG 1.1//EN"
 "http://www.w3.org/Graphics/SVG/1.1/DTD/svg11.dtd">
<!-- Generated by graphviz version 2.43.0 (0)
 -->
<!-- Title: Kernel Pages: 1 -->
<svg width="291pt" height="899pt"
 viewBox="0.00 0.00 290.50 899.00" xmlns="http://www.w3.org/2000/svg" xmlns:xlink="http://www.w3.org/1999/xlink">
<g id="graph0" class="graph" transform="scale(1 1) rotate(0) translate(4 895)">
<title>Kernel</title>
<polygon fill="white" stroke="transparent" points="-4,4 -4,-895 286.5,-895 286.5,4 -4,4"/>
<g id="clust1" class="cluster">
<title>cluster_Booting</title>
<path fill="none" stroke="black" d="M37.5,-246C37.5,-246 170.5,-246 170.5,-246 176.5,-246 182.5,-252 182.5,-258 182.5,-258 182.5,-838 182.5,-838 182.5,-844 176.5,-850 170.5,-850 170.5,-850 37.5,-850 37.5,-850 31.5,-850 25.5,-844 25.5,-838 25.5,-838 25.5,-258 25.5,-258 25.5,-252 31.5,-246 37.5,-246"/>
<text text-anchor="start" x="76.5" y="-830.3" font-family="Times,serif" font-size="14.00">Booting</text>
<text text-anchor="start" x="38" y="-812.5" font-family="Times,serif" font-size="10.00">kernel_panic(msg: String)</text>
<text text-anchor="start" x="80" y="-801.5" font-family="Times,serif" font-size="10.00"> &#160;&#160;&#160;&#160;&#160;&#160;&#160;&#160;&#160;&#160;&#160;&#160;&#160;&#160;&#160;</text>
<polygon fill="black" stroke="black" points="34,-823.5 34,-823.5 175,-823.5 175,-823.5 34,-823.5"/>
</g>
<!-- Entry -->
<g id="node1" class="node">
<title>Entry</title>
<ellipse fill="black" stroke="#00688b" cx="88.5" cy="-884" rx="7" ry="7"/>
</g>
<!-- InitMemory -->
<g id="node2" class="node">
<title>InitMemory</title>
<path fill="azure" stroke="transparent" d="M131.5,-783C131.5,-783 45.5,-783 45.5,-783 39.5,-783 33.5,-777 33.5,-771 33.5,-771 33.5,-730 33.5,-730 33.5,-724 39.5,-718 45.5,-718 45.5,-718 131.5,-718 131.5,-718 137.5,-718 143.5,-724 143.5,-730 143.5,-730 143.5,-771 143.5,-771 143.5,-777 137.5,-783 131.5,-783"/>
<text text-anchor="start" x="41.5" y="-764.3" font-family="Times,serif" font-weight="bold" font-size="14.00">InitMemory</text>
<text text-anchor="start" x="41.5" y="-739.5" font-family="Times,serif" font-size="10.00">$&gt;()</text>
<text text-anchor="start" x="41.5" y="-728.5" font-family="Times,serif" font-size="10.00"> &#160;&#160;&#160;&#160;&#160;&#160;&#160;&#160;&#160;&#160;&#160;&#160;&#160;&#160;&#160;</text>
<polygon fill="#00688b" stroke="#00688b" points="33.5,-753.5 33.5,-753.5 143.5,-753.5 143.5,-753.5 33.5,-753.5"/>
<path fill="none" stroke="#00688b" d="M45.5,-718C45.5,-718 131.5,-718 131.5,-718 137.5,-718 143.5,-724 143.5,-730 143.5,-730 143.5,-771 143.5,-771 143.5,-777 137.5,-783 131.5,-783 131.5,-783 45.5,-783 45.5,-783 39.5,-783 33.5,-777 33.5,-771 33.5,-771 33.5,-730 33.5,-730 33.5,-724 39.5,-718 45.5,-718"/>
</g>
<!-- Entry&#45;&gt;InitMemory -->
<g id="edge1" class="edge">
<title>Entry&#45;&gt;InitMemory</title>
<path fill="none" stroke="red" d="M88.5,-876.66C88.5,-861.79 88.5,-823.65 88.5,-793.35"/>
<polygon fill="red" stroke="red" points="92,-793.01 88.5,-783.01 85,-793.01 92,-793.01"/>
</g>
<!-- InitIDT -->
<g id="node4" class="node">
<title>InitIDT</title>
<path fill="azure" stroke="transparent" d="M113,-667C113,-667 62,-667 62,-667 56,-667 50,-661 50,-655 50,-655 50,-614 50,-614 50,-608 56,-602 62,-602 62,-602 113,-602 113,-602 119,-602 125,-608 125,-614 125,-614 125,-655 125,-655 125,-661 119,-667 113,-667"/>
<text text-anchor="start" x="58.5" y="-648.3" font-family="Times,serif" font-weight="bold" font-size="14.00">InitIDT</text>
<text text-anchor="start" x="58.5" y="-623.5" font-family="Times,serif" font-size="10.00">$&gt;()</text>
<text text-anchor="start" x="58.5" y="-612.5" font-family="Times,serif" font-size="10.00"> &#160;&#160;&#160;&#160;&#160;&#160;&#160;&#160;&#160;&#160;&#160;&#160;&#160;&#160;&#160;</text>
<polygon fill="#00688b" stroke="#00688b" points="50.5,-637.5 50.5,-637.5 125.5,-637.5 125.5,-637.5 50.5,-637.5"/>
<path fill="none" stroke="#00688b" d="M62,-602C62,-602 113,-602 113,-602 119,-602 125,-608 125,-614 125,-614 125,-655 125,-655 125,-661 119,-667 113,-667 113,-667 62,-667 62,-667 56,-667 50,-661 50,-655 50,-655 50,-614 50,-614 50,-608 56,-602 62,-602"/>
</g>
<!-- InitMemory&#45;&gt;InitIDT -->
<g id="edge2" class="edge">
<title>InitMemory&#45;&gt;InitIDT</title>
<path fill="none" stroke="red" d="M88.22,-717.74C88.11,-705.27 87.98,-690.77 87.87,-677.45"/>
<polygon fill="red" stroke="red" points="91.36,-677.05 87.78,-667.09 84.37,-677.12 91.36,-677.05"/>
<text text-anchor="middle" x="104" y="-688.8" font-family="Times,serif" font-size="14.00"> $&gt; </text>
</g>
<!-- Booting -->
<g id="node3" class="node">
<title>Booting</title>
<ellipse fill="azure" stroke="#00688b" cx="174.5" cy="-750.5" rx="0" ry="0"/>
</g>
<!-- Halted -->
<g id="node9" class="node">
<title>Halted</title>
<path fill="azure" stroke="transparent" d="M147.5,-76C147.5,-76 101.5,-76 101.5,-76 95.5,-76 89.5,-70 89.5,-64 89.5,-64 89.5,-12 89.5,-12 89.5,-6 95.5,0 101.5,0 101.5,0 147.5,0 147.5,0 153.5,0 159.5,-6 159.5,-12 159.5,-12 159.5,-64 159.5,-64 159.5,-70 153.5,-76 147.5,-76"/>
<text text-anchor="start" x="97.5" y="-57.8" font-family="Times,serif" font-weight="bold" font-size="14.00">Halted</text>
<text text-anchor="start" x="97.5" y="-33" font-family="Times,serif" font-size="10.00">$&gt;()</text>
<text text-anchor="start" x="97.5" y="-22" font-family="Times,serif" font-size="10.00">is_done()</text>
<text text-anchor="start" x="102.5" y="-11" font-family="Times,serif" font-size="10.00"> &#160;&#160;&#160;&#160;&#160;&#160;&#160;&#160;&#160;&#160;&#160;</text>
<polygon fill="#00688b" stroke="#00688b" points="89.5,-47 89.5,-47 159.5,-47 159.5,-47 89.5,-47"/>
<path fill="none" stroke="#00688b" d="M101.5,0C101.5,0 147.5,0 147.5,0 153.5,0 159.5,-6 159.5,-12 159.5,-12 159.5,-64 159.5,-64 159.5,-70 153.5,-76 147.5,-76 147.5,-76 101.5,-76 101.5,-76 95.5,-76 89.5,-70 89.5,-64 89.5,-64 89.5,-12 89.5,-12 89.5,-6 95.5,0 101.5,0"/>
</g>
<!-- Booting&#45;&gt;Halted -->
<g id="edge7" class="edge">
<title>Booting&#45;&gt;Halted</title>
<path fill="none" stroke="red" d="M182.5,-246C182.5,-220.39 182.5,-193.09 182.5,-164 182.5,-132.27 181.9,-122.76 168.5,-94 167.04,-90.86 165.36,-87.73 163.53,-84.67"/>
<polygon fill="red" stroke="red" points="166.41,-82.68 158.03,-76.2 160.54,-86.49 166.41,-82.68"/>
<text text-anchor="middle" x="232.5" y="-398.8" font-family="Times,serif" font-size="14.00"> kernel_panic </text>
</g>
<!-- InitTimer -->
<g id="node5" class="node">
<title>InitTimer</title>
<path fill="azure" stroke="transparent" d="M122,-551C122,-551 53,-551 53,-551 47,-551 41,-545 41,-539 41,-539 41,-498 41,-498 41,-492 47,-486 53,-486 53,-486 122,-486 122,-486 128,-486 134,-492 134,-498 134,-498 134,-539 134,-539 134,-545 128,-551 122,-551"/>
<text text-anchor="start" x="49.5" y="-532.3" font-family="Times,serif" font-weight="bold" font-size="14.00">InitTimer</text>
<text text-anchor="start" x="49.5" y="-507.5" font-family="Times,serif" font-size="10.00">$&gt;()</text>
<text text-anchor="start" x="49.5" y="-496.5" font-family="Times,serif" font-size="10.00"> &#160;&#160;&#160;&#160;&#160;&#160;&#160;&#160;&#160;&#160;&#160;&#160;&#160;&#160;&#160;</text>
<polygon fill="#00688b" stroke="#00688b" points="41.5,-521.5 41.5,-521.5 134.5,-521.5 134.5,-521.5 41.5,-521.5"/>
<path fill="none" stroke="#00688b" d="M53,-486C53,-486 122,-486 122,-486 128,-486 134,-492 134,-498 134,-498 134,-539 134,-539 134,-545 128,-551 122,-551 122,-551 53,-551 53,-551 47,-551 41,-545 41,-539 41,-539 41,-498 41,-498 41,-492 47,-486 53,-486"/>
</g>
<!-- InitIDT&#45;&gt;InitTimer -->
<g id="edge3" class="edge">
<title>InitIDT&#45;&gt;InitTimer</title>
<path fill="none" stroke="red" d="M87.5,-601.74C87.5,-589.27 87.5,-574.77 87.5,-561.45"/>
<polygon fill="red" stroke="red" points="91,-561.09 87.5,-551.09 84,-561.09 91,-561.09"/>
<text text-anchor="middle" x="103" y="-572.8" font-family="Times,serif" font-size="14.00"> $&gt; </text>
</g>
<!-- InitConsole -->
<g id="node6" class="node">
<title>InitConsole</title>
<path fill="azure" stroke="transparent" d="M129.5,-435C129.5,-435 45.5,-435 45.5,-435 39.5,-435 33.5,-429 33.5,-423 33.5,-423 33.5,-382 33.5,-382 33.5,-376 39.5,-370 45.5,-370 45.5,-370 129.5,-370 129.5,-370 135.5,-370 141.5,-376 141.5,-382 141.5,-382 141.5,-423 141.5,-423 141.5,-429 135.5,-435 129.5,-435"/>
<text text-anchor="start" x="41.5" y="-416.3" font-family="Times,serif" font-weight="bold" font-size="14.00">InitConsole</text>
<text text-anchor="start" x="41.5" y="-391.5" font-family="Times,serif" font-size="10.00">$&gt;()</text>
<text text-anchor="start" x="41.5" y="-380.5" font-family="Times,serif" font-size="10.00"> &#160;&#160;&#160;&#160;&#160;&#160;&#160;&#160;&#160;&#160;&#160;&#160;&#160;&#160;&#160;</text>
<polygon fill="#00688b" stroke="#00688b" points="33.5,-405.5 33.5,-405.5 141.5,-405.5 141.5,-405.5 33.5,-405.5"/>
<path fill="none" stroke="#00688b" d="M45.5,-370C45.5,-370 129.5,-370 129.5,-370 135.5,-370 141.5,-376 141.5,-382 141.5,-382 141.5,-423 141.5,-423 141.5,-429 135.5,-435 129.5,-435 129.5,-435 45.5,-435 45.5,-435 39.5,-435 33.5,-429 33.5,-423 33.5,-423 33.5,-382 33.5,-382 33.5,-376 39.5,-370 45.5,-370"/>
</g>
<!-- InitTimer&#45;&gt;InitConsole -->
<g id="edge4" class="edge">
<title>InitTimer&#45;&gt;InitConsole</title>
<path fill="none" stroke="red" d="M87.5,-485.74C87.5,-473.27 87.5,-458.77 87.5,-445.45"/>
<polygon fill="red" stroke="red" points="91,-445.09 87.5,-435.09 84,-445.09 91,-445.09"/>
<text text-anchor="middle" x="103" y="-456.8" font-family="Times,serif" font-size="14.00"> $&gt; </text>
</g>
<!-- LaunchInit -->
<g id="node7" class="node">
<title>LaunchInit</title>
<path fill="azure" stroke="transparent" d="M126.5,-319C126.5,-319 46.5,-319 46.5,-319 40.5,-319 34.5,-313 34.5,-307 34.5,-307 34.5,-266 34.5,-266 34.5,-260 40.5,-254 46.5,-254 46.5,-254 126.5,-254 126.5,-254 132.5,-254 138.5,-260 138.5,-266 138.5,-266 138.5,-307 138.5,-307 138.5,-313 132.5,-319 126.5,-319"/>
<text text-anchor="start" x="42.5" y="-300.3" font-family="Times,serif" font-weight="bold" font-size="14.00">LaunchInit</text>
<text text-anchor="start" x="42.5" y="-275.5" font-family="Times,serif" font-size="10.00">$&gt;()</text>
<text text-anchor="start" x="42.5" y="-264.5" font-family="Times,serif" font-size="10.00"> &#160;&#160;&#160;&#160;&#160;&#160;&#160;&#160;&#160;&#160;&#160;&#160;&#160;&#160;&#160;</text>
<polygon fill="#00688b" stroke="#00688b" points="34.5,-289.5 34.5,-289.5 138.5,-289.5 138.5,-289.5 34.5,-289.5"/>
<path fill="none" stroke="#00688b" d="M46.5,-254C46.5,-254 126.5,-254 126.5,-254 132.5,-254 138.5,-260 138.5,-266 138.5,-266 138.5,-307 138.5,-307 138.5,-313 132.5,-319 126.5,-319 126.5,-319 46.5,-319 46.5,-319 40.5,-319 34.5,-313 34.5,-307 34.5,-307 34.5,-266 34.5,-266 34.5,-260 40.5,-254 46.5,-254"/>
</g>
<!-- InitConsole&#45;&gt;LaunchInit -->
<g id="edge5" class="edge">
<title>InitConsole&#45;&gt;LaunchInit</title>
<path fill="none" stroke="red" d="M87.22,-369.74C87.11,-357.27 86.98,-342.77 86.87,-329.45"/>
<polygon fill="red" stroke="red" points="90.36,-329.05 86.78,-319.09 83.37,-329.12 90.36,-329.05"/>
<text text-anchor="middle" x="103" y="-340.8" font-family="Times,serif" font-size="14.00"> $&gt; </text>
</g>
<!-- Running -->
<g id="node8" class="node">
<title>Running</title>
<path fill="azure" stroke="transparent" d="M137,-203C137,-203 12,-203 12,-203 6,-203 0,-197 0,-191 0,-191 0,-139 0,-139 0,-133 6,-127 12,-127 12,-127 137,-127 137,-127 143,-127 149,-133 149,-139 149,-139 149,-191 149,-191 149,-197 143,-203 137,-203"/>
<text text-anchor="start" x="40" y="-184.8" font-family="Times,serif" font-weight="bold" font-size="14.00">Running</text>
<text text-anchor="start" x="8.5" y="-160" font-family="Times,serif" font-size="10.00">$&gt;()</text>
<text text-anchor="start" x="8.5" y="-149" font-family="Times,serif" font-size="10.00">kernel_panic(msg: String)</text>
<text text-anchor="start" x="56.5" y="-138" font-family="Times,serif" font-size="10.00"> &#160;&#160;&#160;&#160;&#160;&#160;&#160;&#160;&#160;&#160;&#160;</text>
<polygon fill="#00688b" stroke="#00688b" points="0.5,-174 0.5,-174 149.5,-174 149.5,-174 0.5,-174"/>
<path fill="none" stroke="#00688b" d="M12,-127C12,-127 137,-127 137,-127 143,-127 149,-133 149,-139 149,-139 149,-191 149,-191 149,-197 143,-203 137,-203 137,-203 12,-203 12,-203 6,-203 0,-197 0,-191 0,-191 0,-139 0,-139 0,-133 6,-127 12,-127"/>
</g>
<!-- LaunchInit&#45;&gt;Running -->
<g id="edge6" class="edge">
<title>LaunchInit&#45;&gt;Running</title>
<path fill="none" stroke="red" d="M83.32,-253.79C82.08,-241.45 80.63,-227.04 79.27,-213.51"/>
<polygon fill="red" stroke="red" points="82.74,-212.98 78.25,-203.38 75.77,-213.68 82.74,-212.98"/>
<text text-anchor="middle" x="97" y="-224.8" font-family="Times,serif" font-size="14.00"> $&gt; </text>
</g>
<!-- Running&#45;&gt;Halted -->
<g id="edge8" class="edge">
<title>Running&#45;&gt;Halted</title>
<path fill="none" stroke="red" d="M64.85,-126.64C63.73,-115.78 64.25,-104.12 68.5,-94 71.76,-86.23 76.71,-79.01 82.34,-72.52"/>
<polygon fill="red" stroke="red" points="84.89,-74.92 89.21,-65.25 79.8,-70.12 84.89,-74.92"/>
<text text-anchor="middle" x="118.5" y="-97.8" font-family="Times,serif" font-size="14.00"> kernel_panic </text>
</g>
</g>
</svg>
