<?xml version="1.0" encoding="UTF-8" standalone="no"?>
<!DOCTYPE svg PUBLIC "-//W3C//DTD SVG 1.1//EN"
 "http://www.w3.org/Graphics/SVG/1.1/DTD/svg11.dtd">
<!-- Generated by graphviz version 14.1.5 (20260411.2331)
 -->
<!-- Title: Kernel Pages: 1 -->
<svg width="236pt" height="925pt"
 viewBox="0.00 0.00 236.00 925.00" xmlns="http://www.w3.org/2000/svg" xmlns:xlink="http://www.w3.org/1999/xlink">
<g id="graph0" class="graph" transform="scale(1 1) rotate(0) translate(4 920.9)">
<title>Kernel</title>
<polygon fill="white" stroke="none" points="-4,4 -4,-920.9 232.12,-920.9 232.12,4 -4,4"/>
<g id="clust1" class="cluster">
<title>cluster_Booting</title>
<path fill="none" stroke="black" d="M30.88,-253.5C30.88,-253.5 136.88,-253.5 136.88,-253.5 142.88,-253.5 148.88,-259.5 148.88,-265.5 148.88,-265.5 148.88,-863.5 148.88,-863.5 148.88,-869.5 142.88,-875.5 136.88,-875.5 136.88,-875.5 30.88,-875.5 30.88,-875.5 24.88,-875.5 18.88,-869.5 18.88,-863.5 18.88,-863.5 18.88,-265.5 18.88,-265.5 18.88,-259.5 24.88,-253.5 30.88,-253.5"/>
<text xml:space="preserve" text-anchor="start" x="62.12" y="-854.75" font-family="Times,serif" font-size="14.00">Booting</text>
<text xml:space="preserve" text-anchor="start" x="31" y="-836" font-family="Times,serif" font-size="10.00">kernel_panic(msg: String)</text>
<text xml:space="preserve" text-anchor="start" x="65.88" y="-824.75" font-family="Times,serif" font-size="10.00"> &#160;&#160;&#160;&#160;&#160;&#160;&#160;&#160;&#160;&#160;&#160;&#160;&#160;&#160;&#160;</text>
<polygon fill="black" stroke="black" points="27,-848 27,-848 140.75,-848 140.75,-848 27,-848"/>
</g>
<!-- Entry -->
<g id="node1" class="node">
<title>Entry</title>
<ellipse fill="black" stroke="#00688b" cx="70.88" cy="-909.7" rx="7.2" ry="7.2"/>
</g>
<!-- InitMemory -->
<g id="node2" class="node">
<title>InitMemory</title>
<path fill="azure" stroke="none" d="M102.88,-806.5C102.88,-806.5 38.88,-806.5 38.88,-806.5 32.88,-806.5 26.88,-800.5 26.88,-794.5 26.88,-794.5 26.88,-751.5 26.88,-751.5 26.88,-745.5 32.88,-739.5 38.88,-739.5 38.88,-739.5 102.88,-739.5 102.88,-739.5 108.88,-739.5 114.88,-745.5 114.88,-751.5 114.88,-751.5 114.88,-794.5 114.88,-794.5 114.88,-800.5 108.88,-806.5 102.88,-806.5"/>
<text xml:space="preserve" text-anchor="start" x="34.88" y="-786.2" font-family="Times,serif" font-weight="bold" font-size="14.00">InitMemory</text>
<text xml:space="preserve" text-anchor="start" x="34.88" y="-761" font-family="Times,serif" font-size="10.00">$&gt;()</text>
<text xml:space="preserve" text-anchor="start" x="34.88" y="-749.75" font-family="Times,serif" font-size="10.00"> &#160;&#160;&#160;&#160;&#160;&#160;&#160;&#160;&#160;&#160;&#160;&#160;&#160;&#160;&#160;</text>
<polygon fill="#00688b" stroke="#00688b" points="26.88,-776 26.88,-776 114.88,-776 114.88,-776 26.88,-776"/>
<path fill="none" stroke="#00688b" d="M38.88,-739.5C38.88,-739.5 102.88,-739.5 102.88,-739.5 108.88,-739.5 114.88,-745.5 114.88,-751.5 114.88,-751.5 114.88,-794.5 114.88,-794.5 114.88,-800.5 108.88,-806.5 102.88,-806.5 102.88,-806.5 38.88,-806.5 38.88,-806.5 32.88,-806.5 26.88,-800.5 26.88,-794.5 26.88,-794.5 26.88,-751.5 26.88,-751.5 26.88,-745.5 32.88,-739.5 38.88,-739.5"/>
</g>
<!-- Entry&#45;&gt;InitMemory -->
<g id="edge1" class="edge">
<title>Entry&#45;&gt;InitMemory</title>
<path fill="none" stroke="red" d="M70.88,-902.2C70.88,-887.1 70.88,-848.58 70.88,-817.68"/>
<polygon fill="red" stroke="red" points="74.38,-817.79 70.88,-807.79 67.38,-817.79 74.38,-817.79"/>
</g>
<!-- InitIDT -->
<g id="node4" class="node">
<title>InitIDT</title>
<path fill="azure" stroke="none" d="M88.38,-687C88.38,-687 51.38,-687 51.38,-687 45.38,-687 39.38,-681 39.38,-675 39.38,-675 39.38,-632 39.38,-632 39.38,-626 45.38,-620 51.38,-620 51.38,-620 88.38,-620 88.38,-620 94.38,-620 100.38,-626 100.38,-632 100.38,-632 100.38,-675 100.38,-675 100.38,-681 94.38,-687 88.38,-687"/>
<text xml:space="preserve" text-anchor="start" x="47.38" y="-666.7" font-family="Times,serif" font-weight="bold" font-size="14.00">InitIDT</text>
<text xml:space="preserve" text-anchor="start" x="47.38" y="-641.5" font-family="Times,serif" font-size="10.00">$&gt;()</text>
<text xml:space="preserve" text-anchor="start" x="47.38" y="-630.25" font-family="Times,serif" font-size="10.00"> &#160;&#160;&#160;&#160;&#160;&#160;&#160;&#160;&#160;&#160;&#160;&#160;&#160;&#160;&#160;</text>
<polygon fill="#00688b" stroke="#00688b" points="39.38,-656.5 39.38,-656.5 100.38,-656.5 100.38,-656.5 39.38,-656.5"/>
<path fill="none" stroke="#00688b" d="M51.38,-620C51.38,-620 88.38,-620 88.38,-620 94.38,-620 100.38,-626 100.38,-632 100.38,-632 100.38,-675 100.38,-675 100.38,-681 94.38,-687 88.38,-687 88.38,-687 51.38,-687 51.38,-687 45.38,-687 39.38,-681 39.38,-675 39.38,-675 39.38,-632 39.38,-632 39.38,-626 45.38,-620 51.38,-620"/>
</g>
<!-- InitMemory&#45;&gt;InitIDT -->
<g id="edge2" class="edge">
<title>InitMemory&#45;&gt;InitIDT</title>
<path fill="none" stroke="red" d="M70.6,-739.58C70.49,-726.74 70.36,-711.78 70.25,-698.02"/>
<polygon fill="red" stroke="red" points="73.75,-698.3 70.16,-688.33 66.75,-698.36 73.75,-698.3"/>
<text xml:space="preserve" text-anchor="middle" x="81.68" y="-708.2" font-family="Times,serif" font-size="14.00"> $&gt; </text>
</g>
<!-- Booting -->
<g id="node3" class="node">
<title>Booting</title>
<ellipse fill="azure" stroke="#00688b" cx="140.88" cy="-773" rx="0.36" ry="0.36"/>
</g>
<!-- Halted -->
<g id="node9" class="node">
<title>Halted</title>
<path fill="azure" stroke="none" d="M120.75,-78.25C120.75,-78.25 89,-78.25 89,-78.25 83,-78.25 77,-72.25 77,-66.25 77,-66.25 77,-12 77,-12 77,-6 83,0 89,0 89,0 120.75,0 120.75,0 126.75,0 132.75,-6 132.75,-12 132.75,-12 132.75,-66.25 132.75,-66.25 132.75,-72.25 126.75,-78.25 120.75,-78.25"/>
<text xml:space="preserve" text-anchor="start" x="85" y="-57.95" font-family="Times,serif" font-weight="bold" font-size="14.00">Halted</text>
<text xml:space="preserve" text-anchor="start" x="85" y="-32.75" font-family="Times,serif" font-size="10.00">$&gt;()</text>
<text xml:space="preserve" text-anchor="start" x="85" y="-21.5" font-family="Times,serif" font-size="10.00">is_done()</text>
<text xml:space="preserve" text-anchor="start" x="90.62" y="-10.25" font-family="Times,serif" font-size="10.00"> &#160;&#160;&#160;&#160;&#160;&#160;&#160;&#160;&#160;&#160;&#160;</text>
<polygon fill="#00688b" stroke="#00688b" points="77,-47.75 77,-47.75 132.75,-47.75 132.75,-47.75 77,-47.75"/>
<path fill="none" stroke="#00688b" d="M89,0C89,0 120.75,0 120.75,0 126.75,0 132.75,-6 132.75,-12 132.75,-12 132.75,-66.25 132.75,-66.25 132.75,-72.25 126.75,-78.25 120.75,-78.25 120.75,-78.25 89,-78.25 89,-78.25 83,-78.25 77,-72.25 77,-66.25 77,-66.25 77,-12 77,-12 77,-6 83,0 89,0"/>
</g>
<!-- Booting&#45;&gt;Halted -->
<g id="edge7" class="edge">
<title>Booting&#45;&gt;Halted</title>
<path fill="none" stroke="red" d="M148.87,-700.99C150.05,-685.68 150.88,-669.56 150.88,-654.5 150.88,-654.5 150.88,-654.5 150.88,-168.88 150.88,-136 148.28,-127.08 136.88,-96.25 135.89,-93.58 134.78,-90.89 133.59,-88.21"/>
<polygon fill="red" stroke="red" points="136.8,-86.81 129.3,-79.33 130.5,-89.85 136.8,-86.81"/>
<text xml:space="preserve" text-anchor="middle" x="189.5" y="-409.45" font-family="Times,serif" font-size="14.00"> kernel_panic </text>
</g>
<!-- InitTimer -->
<g id="node5" class="node">
<title>InitTimer</title>
<path fill="azure" stroke="none" d="M93.75,-567.5C93.75,-567.5 44,-567.5 44,-567.5 38,-567.5 32,-561.5 32,-555.5 32,-555.5 32,-512.5 32,-512.5 32,-506.5 38,-500.5 44,-500.5 44,-500.5 93.75,-500.5 93.75,-500.5 99.75,-500.5 105.75,-506.5 105.75,-512.5 105.75,-512.5 105.75,-555.5 105.75,-555.5 105.75,-561.5 99.75,-567.5 93.75,-567.5"/>
<text xml:space="preserve" text-anchor="start" x="40" y="-547.2" font-family="Times,serif" font-weight="bold" font-size="14.00">InitTimer</text>
<text xml:space="preserve" text-anchor="start" x="40" y="-522" font-family="Times,serif" font-size="10.00">$&gt;()</text>
<text xml:space="preserve" text-anchor="start" x="40" y="-510.75" font-family="Times,serif" font-size="10.00"> &#160;&#160;&#160;&#160;&#160;&#160;&#160;&#160;&#160;&#160;&#160;&#160;&#160;&#160;&#160;</text>
<polygon fill="#00688b" stroke="#00688b" points="32,-537 32,-537 105.75,-537 105.75,-537 32,-537"/>
<path fill="none" stroke="#00688b" d="M44,-500.5C44,-500.5 93.75,-500.5 93.75,-500.5 99.75,-500.5 105.75,-506.5 105.75,-512.5 105.75,-512.5 105.75,-555.5 105.75,-555.5 105.75,-561.5 99.75,-567.5 93.75,-567.5 93.75,-567.5 44,-567.5 44,-567.5 38,-567.5 32,-561.5 32,-555.5 32,-555.5 32,-512.5 32,-512.5 32,-506.5 38,-500.5 44,-500.5"/>
</g>
<!-- InitIDT&#45;&gt;InitTimer -->
<g id="edge3" class="edge">
<title>InitIDT&#45;&gt;InitTimer</title>
<path fill="none" stroke="red" d="M69.6,-620.08C69.49,-607.24 69.36,-592.28 69.25,-578.52"/>
<polygon fill="red" stroke="red" points="72.75,-578.8 69.16,-568.83 65.75,-578.86 72.75,-578.8"/>
<text xml:space="preserve" text-anchor="middle" x="80.68" y="-588.7" font-family="Times,serif" font-size="14.00"> $&gt; </text>
</g>
<!-- InitConsole -->
<g id="node6" class="node">
<title>InitConsole</title>
<path fill="azure" stroke="none" d="M97.25,-448C97.25,-448 38.5,-448 38.5,-448 32.5,-448 26.5,-442 26.5,-436 26.5,-436 26.5,-393 26.5,-393 26.5,-387 32.5,-381 38.5,-381 38.5,-381 97.25,-381 97.25,-381 103.25,-381 109.25,-387 109.25,-393 109.25,-393 109.25,-436 109.25,-436 109.25,-442 103.25,-448 97.25,-448"/>
<text xml:space="preserve" text-anchor="start" x="34.5" y="-427.7" font-family="Times,serif" font-weight="bold" font-size="14.00">InitConsole</text>
<text xml:space="preserve" text-anchor="start" x="34.5" y="-402.5" font-family="Times,serif" font-size="10.00">$&gt;()</text>
<text xml:space="preserve" text-anchor="start" x="34.5" y="-391.25" font-family="Times,serif" font-size="10.00"> &#160;&#160;&#160;&#160;&#160;&#160;&#160;&#160;&#160;&#160;&#160;&#160;&#160;&#160;&#160;</text>
<polygon fill="#00688b" stroke="#00688b" points="26.5,-417.5 26.5,-417.5 109.25,-417.5 109.25,-417.5 26.5,-417.5"/>
<path fill="none" stroke="#00688b" d="M38.5,-381C38.5,-381 97.25,-381 97.25,-381 103.25,-381 109.25,-387 109.25,-393 109.25,-393 109.25,-436 109.25,-436 109.25,-442 103.25,-448 97.25,-448 97.25,-448 38.5,-448 38.5,-448 32.5,-448 26.5,-442 26.5,-436 26.5,-436 26.5,-393 26.5,-393 26.5,-387 32.5,-381 38.5,-381"/>
</g>
<!-- InitTimer&#45;&gt;InitConsole -->
<g id="edge4" class="edge">
<title>InitTimer&#45;&gt;InitConsole</title>
<path fill="none" stroke="red" d="M68.6,-500.58C68.49,-487.74 68.36,-472.78 68.25,-459.02"/>
<polygon fill="red" stroke="red" points="71.75,-459.3 68.16,-449.33 64.75,-459.36 71.75,-459.3"/>
<text xml:space="preserve" text-anchor="middle" x="79.68" y="-469.2" font-family="Times,serif" font-size="14.00"> $&gt; </text>
</g>
<!-- LaunchInit -->
<g id="node7" class="node">
<title>LaunchInit</title>
<path fill="azure" stroke="none" d="M96.5,-328.5C96.5,-328.5 39.25,-328.5 39.25,-328.5 33.25,-328.5 27.25,-322.5 27.25,-316.5 27.25,-316.5 27.25,-273.5 27.25,-273.5 27.25,-267.5 33.25,-261.5 39.25,-261.5 39.25,-261.5 96.5,-261.5 96.5,-261.5 102.5,-261.5 108.5,-267.5 108.5,-273.5 108.5,-273.5 108.5,-316.5 108.5,-316.5 108.5,-322.5 102.5,-328.5 96.5,-328.5"/>
<text xml:space="preserve" text-anchor="start" x="35.25" y="-308.2" font-family="Times,serif" font-weight="bold" font-size="14.00">LaunchInit</text>
<text xml:space="preserve" text-anchor="start" x="35.25" y="-283" font-family="Times,serif" font-size="10.00">$&gt;()</text>
<text xml:space="preserve" text-anchor="start" x="35.25" y="-271.75" font-family="Times,serif" font-size="10.00"> &#160;&#160;&#160;&#160;&#160;&#160;&#160;&#160;&#160;&#160;&#160;&#160;&#160;&#160;&#160;</text>
<polygon fill="#00688b" stroke="#00688b" points="27.25,-298 27.25,-298 108.5,-298 108.5,-298 27.25,-298"/>
<path fill="none" stroke="#00688b" d="M39.25,-261.5C39.25,-261.5 96.5,-261.5 96.5,-261.5 102.5,-261.5 108.5,-267.5 108.5,-273.5 108.5,-273.5 108.5,-316.5 108.5,-316.5 108.5,-322.5 102.5,-328.5 96.5,-328.5 96.5,-328.5 39.25,-328.5 39.25,-328.5 33.25,-328.5 27.25,-322.5 27.25,-316.5 27.25,-316.5 27.25,-273.5 27.25,-273.5 27.25,-267.5 33.25,-261.5 39.25,-261.5"/>
</g>
<!-- InitConsole&#45;&gt;LaunchInit -->
<g id="edge5" class="edge">
<title>InitConsole&#45;&gt;LaunchInit</title>
<path fill="none" stroke="red" d="M67.88,-381.08C67.88,-368.24 67.88,-353.28 67.88,-339.52"/>
<polygon fill="red" stroke="red" points="71.38,-339.83 67.88,-329.83 64.38,-339.83 71.38,-339.83"/>
<text xml:space="preserve" text-anchor="middle" x="79.12" y="-349.7" font-family="Times,serif" font-size="14.00"> $&gt; </text>
</g>
<!-- Running -->
<g id="node8" class="node">
<title>Running</title>
<path fill="azure" stroke="none" d="M109.75,-209C109.75,-209 12,-209 12,-209 6,-209 0,-203 0,-197 0,-197 0,-142.75 0,-142.75 0,-136.75 6,-130.75 12,-130.75 12,-130.75 109.75,-130.75 109.75,-130.75 115.75,-130.75 121.75,-136.75 121.75,-142.75 121.75,-142.75 121.75,-197 121.75,-197 121.75,-203 115.75,-209 109.75,-209"/>
<text xml:space="preserve" text-anchor="start" x="35.75" y="-188.7" font-family="Times,serif" font-weight="bold" font-size="14.00">Running</text>
<text xml:space="preserve" text-anchor="start" x="8" y="-163.5" font-family="Times,serif" font-size="10.00">$&gt;()</text>
<text xml:space="preserve" text-anchor="start" x="8" y="-152.25" font-family="Times,serif" font-size="10.00">kernel_panic(msg: String)</text>
<text xml:space="preserve" text-anchor="start" x="47.38" y="-141" font-family="Times,serif" font-size="10.00"> &#160;&#160;&#160;&#160;&#160;&#160;&#160;&#160;&#160;&#160;&#160;</text>
<polygon fill="#00688b" stroke="#00688b" points="0,-178.5 0,-178.5 121.75,-178.5 121.75,-178.5 0,-178.5"/>
<path fill="none" stroke="#00688b" d="M12,-130.75C12,-130.75 109.75,-130.75 109.75,-130.75 115.75,-130.75 121.75,-136.75 121.75,-142.75 121.75,-142.75 121.75,-197 121.75,-197 121.75,-203 115.75,-209 109.75,-209 109.75,-209 12,-209 12,-209 6,-209 0,-203 0,-197 0,-197 0,-142.75 0,-142.75 0,-136.75 6,-130.75 12,-130.75"/>
</g>
<!-- LaunchInit&#45;&gt;Running -->
<g id="edge6" class="edge">
<title>LaunchInit&#45;&gt;Running</title>
<path fill="none" stroke="red" d="M66.04,-261.65C65.31,-248.96 64.47,-234.11 63.68,-220.14"/>
<polygon fill="red" stroke="red" points="67.17,-219.98 63.11,-210.2 60.18,-220.38 67.17,-219.98"/>
<text xml:space="preserve" text-anchor="middle" x="76.25" y="-230.2" font-family="Times,serif" font-size="14.00"> $&gt; </text>
</g>
<!-- Running&#45;&gt;Halted -->
<g id="edge8" class="edge">
<title>Running&#45;&gt;Halted</title>
<path fill="none" stroke="red" d="M55.24,-131.12C54.84,-119.65 55.76,-107.19 59.62,-96.25 62.14,-89.11 66,-82.22 70.41,-75.84"/>
<polygon fill="red" stroke="red" points="73.02,-78.2 76.28,-68.12 67.45,-73.97 73.02,-78.2"/>
<text xml:space="preserve" text-anchor="middle" x="98.25" y="-99.45" font-family="Times,serif" font-size="14.00"> kernel_panic </text>
</g>
</g>
</svg>
