<?xml version="1.0" encoding="UTF-8" standalone="no"?>
<!DOCTYPE svg PUBLIC "-//W3C//DTD SVG 1.1//EN"
 "http://www.w3.org/Graphics/SVG/1.1/DTD/svg11.dtd">
<!-- Generated by graphviz version 2.43.0 (0)
 -->
<!-- Title: Mount Pages: 1 -->
<svg width="370pt" height="494pt"
 viewBox="0.00 0.00 369.89 494.00" xmlns="http://www.w3.org/2000/svg" xmlns:xlink="http://www.w3.org/1999/xlink">
<g id="graph0" class="graph" transform="scale(1 1) rotate(0) translate(4 490)">
<title>Mount</title>
<polygon fill="white" stroke="transparent" points="-4,4 -4,-490 365.89,-490 365.89,4 -4,4"/>
<!-- Entry -->
<g id="node1" class="node">
<title>Entry</title>
<ellipse fill="black" stroke="#00688b" cx="128.89" cy="-479" rx="7" ry="7"/>
</g>
<!-- Unmounted -->
<g id="node2" class="node">
<title>Unmounted</title>
<path fill="azure" stroke="transparent" d="M171.89,-435C171.89,-435 85.89,-435 85.89,-435 79.89,-435 73.89,-429 73.89,-423 73.89,-423 73.89,-382 73.89,-382 73.89,-376 79.89,-370 85.89,-370 85.89,-370 171.89,-370 171.89,-370 177.89,-370 183.89,-376 183.89,-382 183.89,-382 183.89,-423 183.89,-423 183.89,-429 177.89,-435 171.89,-435"/>
<text text-anchor="start" x="81.89" y="-416.3" font-family="Times,serif" font-weight="bold" font-size="14.00">Unmounted</text>
<text text-anchor="start" x="81.89" y="-391.5" font-family="Times,serif" font-size="10.00">begin_mount()</text>
<text text-anchor="start" x="101.39" y="-380.5" font-family="Times,serif" font-size="10.00"> &#160;&#160;&#160;&#160;&#160;&#160;&#160;&#160;&#160;&#160;&#160;</text>
<polygon fill="#00688b" stroke="#00688b" points="73.89,-405.5 73.89,-405.5 183.89,-405.5 183.89,-405.5 73.89,-405.5"/>
<path fill="none" stroke="#00688b" d="M85.89,-370C85.89,-370 171.89,-370 171.89,-370 177.89,-370 183.89,-376 183.89,-382 183.89,-382 183.89,-423 183.89,-423 183.89,-429 177.89,-435 171.89,-435 171.89,-435 85.89,-435 85.89,-435 79.89,-435 73.89,-429 73.89,-423 73.89,-423 73.89,-382 73.89,-382 73.89,-376 79.89,-370 85.89,-370"/>
</g>
<!-- Entry&#45;&gt;Unmounted -->
<g id="edge1" class="edge">
<title>Entry&#45;&gt;Unmounted</title>
<path fill="none" stroke="red" d="M128.89,-471.9C128.89,-465.79 128.89,-455.81 128.89,-445.34"/>
<polygon fill="red" stroke="red" points="132.39,-445.26 128.89,-435.26 125.39,-445.26 132.39,-445.26"/>
</g>
<!-- Mounting -->
<g id="node3" class="node">
<title>Mounting</title>
<path fill="azure" stroke="transparent" d="M146.39,-319C146.39,-319 75.39,-319 75.39,-319 69.39,-319 63.39,-313 63.39,-307 63.39,-307 63.39,-255 63.39,-255 63.39,-249 69.39,-243 75.39,-243 75.39,-243 146.39,-243 146.39,-243 152.39,-243 158.39,-249 158.39,-255 158.39,-255 158.39,-307 158.39,-307 158.39,-313 152.39,-319 146.39,-319"/>
<text text-anchor="start" x="71.89" y="-300.8" font-family="Times,serif" font-weight="bold" font-size="14.00">Mounting</text>
<text text-anchor="start" x="71.89" y="-276" font-family="Times,serif" font-size="10.00">mounted_ok()</text>
<text text-anchor="start" x="71.89" y="-265" font-family="Times,serif" font-size="10.00">mount_failed()</text>
<text text-anchor="start" x="90.89" y="-254" font-family="Times,serif" font-size="10.00"> &#160;&#160;&#160;&#160;&#160;&#160;&#160;&#160;&#160;&#160;&#160;</text>
<polygon fill="#00688b" stroke="#00688b" points="63.89,-290 63.89,-290 158.89,-290 158.89,-290 63.89,-290"/>
<path fill="none" stroke="#00688b" d="M75.39,-243C75.39,-243 146.39,-243 146.39,-243 152.39,-243 158.39,-249 158.39,-255 158.39,-255 158.39,-307 158.39,-307 158.39,-313 152.39,-319 146.39,-319 146.39,-319 75.39,-319 75.39,-319 69.39,-319 63.39,-313 63.39,-307 63.39,-307 63.39,-255 63.39,-255 63.39,-249 69.39,-243 75.39,-243"/>
</g>
<!-- Unmounted&#45;&gt;Mounting -->
<g id="edge2" class="edge">
<title>Unmounted&#45;&gt;Mounting</title>
<path fill="none" stroke="red" d="M73.66,-393.76C48.25,-387.14 20.37,-374.84 4.89,-352 -12.22,-326.74 20.12,-308.34 53.46,-296.76"/>
<polygon fill="red" stroke="red" points="54.9,-299.97 63.31,-293.53 52.72,-293.32 54.9,-299.97"/>
<text text-anchor="middle" x="55.89" y="-340.8" font-family="Times,serif" font-size="14.00"> begin_mount </text>
</g>
<!-- Mounting&#45;&gt;Unmounted -->
<g id="edge4" class="edge">
<title>Mounting&#45;&gt;Unmounted</title>
<path fill="none" stroke="red" d="M116.52,-319.38C118.45,-332.15 120.61,-346.51 122.58,-359.61"/>
<polygon fill="red" stroke="red" points="119.17,-360.42 124.12,-369.79 126.09,-359.38 119.17,-360.42"/>
<text text-anchor="middle" x="172.89" y="-340.8" font-family="Times,serif" font-size="14.00"> mount_failed </text>
</g>
<!-- Mounted -->
<g id="node4" class="node">
<title>Mounted</title>
<path fill="azure" stroke="transparent" d="M151.39,-192C151.39,-192 70.39,-192 70.39,-192 64.39,-192 58.39,-186 58.39,-180 58.39,-180 58.39,-128 58.39,-128 58.39,-122 64.39,-116 70.39,-116 70.39,-116 151.39,-116 151.39,-116 157.39,-116 163.39,-122 163.39,-128 163.39,-128 163.39,-180 163.39,-180 163.39,-186 157.39,-192 151.39,-192"/>
<text text-anchor="start" x="75.39" y="-173.8" font-family="Times,serif" font-weight="bold" font-size="14.00">Mounted</text>
<text text-anchor="start" x="66.89" y="-149" font-family="Times,serif" font-size="10.00">begin_unmount()</text>
<text text-anchor="start" x="66.89" y="-138" font-family="Times,serif" font-size="10.00">is_mounted()</text>
<text text-anchor="start" x="92.89" y="-127" font-family="Times,serif" font-size="10.00"> &#160;&#160;&#160;&#160;&#160;&#160;&#160;&#160;&#160;&#160;&#160;</text>
<polygon fill="#00688b" stroke="#00688b" points="58.89,-163 58.89,-163 163.89,-163 163.89,-163 58.89,-163"/>
<path fill="none" stroke="#00688b" d="M70.39,-116C70.39,-116 151.39,-116 151.39,-116 157.39,-116 163.39,-122 163.39,-128 163.39,-128 163.39,-180 163.39,-180 163.39,-186 157.39,-192 151.39,-192 151.39,-192 70.39,-192 70.39,-192 64.39,-192 58.39,-186 58.39,-180 58.39,-180 58.39,-128 58.39,-128 58.39,-122 64.39,-116 70.39,-116"/>
</g>
<!-- Mounting&#45;&gt;Mounted -->
<g id="edge3" class="edge">
<title>Mounting&#45;&gt;Mounted</title>
<path fill="none" stroke="red" d="M110.89,-242.83C110.89,-230.1 110.89,-215.68 110.89,-202.26"/>
<polygon fill="red" stroke="red" points="114.39,-202.24 110.89,-192.24 107.39,-202.24 114.39,-202.24"/>
<text text-anchor="middle" x="158.89" y="-213.8" font-family="Times,serif" font-size="14.00"> mounted_ok </text>
</g>
<!-- Unmounting -->
<g id="node5" class="node">
<title>Unmounting</title>
<path fill="azure" stroke="transparent" d="M223.89,-65C223.89,-65 131.89,-65 131.89,-65 125.89,-65 119.89,-59 119.89,-53 119.89,-53 119.89,-12 119.89,-12 119.89,-6 125.89,0 131.89,0 131.89,0 223.89,0 223.89,0 229.89,0 235.89,-6 235.89,-12 235.89,-12 235.89,-53 235.89,-53 235.89,-59 229.89,-65 223.89,-65"/>
<text text-anchor="start" x="127.89" y="-46.3" font-family="Times,serif" font-weight="bold" font-size="14.00">Unmounting</text>
<text text-anchor="start" x="127.89" y="-21.5" font-family="Times,serif" font-size="10.00">unmounted()</text>
<text text-anchor="start" x="142.89" y="-10.5" font-family="Times,serif" font-size="10.00"> &#160;&#160;&#160;&#160;&#160;&#160;&#160;&#160;&#160;&#160;&#160;</text>
<polygon fill="#00688b" stroke="#00688b" points="119.89,-35.5 119.89,-35.5 235.89,-35.5 235.89,-35.5 119.89,-35.5"/>
<path fill="none" stroke="#00688b" d="M131.89,0C131.89,0 223.89,0 223.89,0 229.89,0 235.89,-6 235.89,-12 235.89,-12 235.89,-53 235.89,-53 235.89,-59 229.89,-65 223.89,-65 223.89,-65 131.89,-65 131.89,-65 125.89,-65 119.89,-59 119.89,-53 119.89,-53 119.89,-12 119.89,-12 119.89,-6 125.89,0 131.89,0"/>
</g>
<!-- Mounted&#45;&gt;Unmounting -->
<g id="edge5" class="edge">
<title>Mounted&#45;&gt;Unmounting</title>
<path fill="none" stroke="red" d="M105.35,-115.89C105.27,-104.81 106.82,-92.97 111.89,-83 113.74,-79.37 115.99,-75.94 118.53,-72.7"/>
<polygon fill="red" stroke="red" points="121.32,-74.84 125.39,-65.06 116.11,-70.16 121.32,-74.84"/>
<text text-anchor="middle" x="171.89" y="-86.8" font-family="Times,serif" font-size="14.00"> begin_unmount </text>
</g>
<!-- Unmounting&#45;&gt;Unmounted -->
<g id="edge6" class="edge">
<title>Unmounting&#45;&gt;Unmounted</title>
<path fill="none" stroke="red" d="M220.28,-65.29C224.98,-70.66 229.08,-76.6 231.89,-83 280.04,-192.45 291.55,-250.79 227.89,-352 219.67,-365.08 206.85,-374.82 193.13,-382.04"/>
<polygon fill="red" stroke="red" points="191.51,-378.93 184.02,-386.42 194.55,-385.24 191.51,-378.93"/>
<text text-anchor="middle" x="316.39" y="-213.8" font-family="Times,serif" font-size="14.00"> unmounted </text>
</g>
</g>
</svg>
