<?xml version="1.0" encoding="UTF-8" standalone="no"?>
<!DOCTYPE svg PUBLIC "-//W3C//DTD SVG 1.1//EN"
 "http://www.w3.org/Graphics/SVG/1.1/DTD/svg11.dtd">
<!-- Generated by graphviz version 14.1.5 (20260411.2331)
 -->
<!-- Title: Mount Pages: 1 -->
<svg width="300pt" height="507pt"
 viewBox="0.00 0.00 300.00 507.00" xmlns="http://www.w3.org/2000/svg" xmlns:xlink="http://www.w3.org/1999/xlink">
<g id="graph0" class="graph" transform="scale(1 1) rotate(0) translate(4 503.4)">
<title>Mount</title>
<polygon fill="white" stroke="none" points="-4,4 -4,-503.4 296.46,-503.4 296.46,4 -4,4"/>
<!-- Entry -->
<g id="node1" class="node">
<title>Entry</title>
<ellipse fill="black" stroke="#00688b" cx="105.68" cy="-492.2" rx="7.2" ry="7.2"/>
</g>
<!-- Unmounted -->
<g id="node2" class="node">
<title>Unmounted</title>
<path fill="azure" stroke="none" d="M136.18,-448C136.18,-448 75.18,-448 75.18,-448 69.18,-448 63.18,-442 63.18,-436 63.18,-436 63.18,-393 63.18,-393 63.18,-387 69.18,-381 75.18,-381 75.18,-381 136.18,-381 136.18,-381 142.18,-381 148.18,-387 148.18,-393 148.18,-393 148.18,-436 148.18,-436 148.18,-442 142.18,-448 136.18,-448"/>
<text xml:space="preserve" text-anchor="start" x="71.18" y="-427.7" font-family="Times,serif" font-weight="bold" font-size="14.00">Unmounted</text>
<text xml:space="preserve" text-anchor="start" x="71.18" y="-402.5" font-family="Times,serif" font-size="10.00">begin_mount()</text>
<text xml:space="preserve" text-anchor="start" x="88.06" y="-391.25" font-family="Times,serif" font-size="10.00"> &#160;&#160;&#160;&#160;&#160;&#160;&#160;&#160;&#160;&#160;&#160;</text>
<polygon fill="#00688b" stroke="#00688b" points="63.18,-417.5 63.18,-417.5 148.18,-417.5 148.18,-417.5 63.18,-417.5"/>
<path fill="none" stroke="#00688b" d="M75.18,-381C75.18,-381 136.18,-381 136.18,-381 142.18,-381 148.18,-387 148.18,-393 148.18,-393 148.18,-436 148.18,-436 148.18,-442 142.18,-448 136.18,-448 136.18,-448 75.18,-448 75.18,-448 69.18,-448 63.18,-442 63.18,-436 63.18,-436 63.18,-393 63.18,-393 63.18,-387 69.18,-381 75.18,-381"/>
</g>
<!-- Entry&#45;&gt;Unmounted -->
<g id="edge1" class="edge">
<title>Entry&#45;&gt;Unmounted</title>
<path fill="none" stroke="red" d="M105.68,-484.75C105.68,-478.77 105.68,-469.32 105.68,-459.3"/>
<polygon fill="red" stroke="red" points="109.18,-459.41 105.68,-449.41 102.18,-459.41 109.18,-459.41"/>
</g>
<!-- Mounting -->
<g id="node3" class="node">
<title>Mounting</title>
<path fill="azure" stroke="none" d="M119.06,-328.5C119.06,-328.5 66.31,-328.5 66.31,-328.5 60.31,-328.5 54.31,-322.5 54.31,-316.5 54.31,-316.5 54.31,-262.25 54.31,-262.25 54.31,-256.25 60.31,-250.25 66.31,-250.25 66.31,-250.25 119.06,-250.25 119.06,-250.25 125.06,-250.25 131.06,-256.25 131.06,-262.25 131.06,-262.25 131.06,-316.5 131.06,-316.5 131.06,-322.5 125.06,-328.5 119.06,-328.5"/>
<text xml:space="preserve" text-anchor="start" x="63.81" y="-308.2" font-family="Times,serif" font-weight="bold" font-size="14.00">Mounting</text>
<text xml:space="preserve" text-anchor="start" x="62.31" y="-283" font-family="Times,serif" font-size="10.00">mounted_ok()</text>
<text xml:space="preserve" text-anchor="start" x="62.31" y="-271.75" font-family="Times,serif" font-size="10.00">mount_failed()</text>
<text xml:space="preserve" text-anchor="start" x="79.18" y="-260.5" font-family="Times,serif" font-size="10.00"> &#160;&#160;&#160;&#160;&#160;&#160;&#160;&#160;&#160;&#160;&#160;</text>
<polygon fill="#00688b" stroke="#00688b" points="54.31,-298 54.31,-298 131.06,-298 131.06,-298 54.31,-298"/>
<path fill="none" stroke="#00688b" d="M66.31,-250.25C66.31,-250.25 119.06,-250.25 119.06,-250.25 125.06,-250.25 131.06,-256.25 131.06,-262.25 131.06,-262.25 131.06,-316.5 131.06,-316.5 131.06,-322.5 125.06,-328.5 119.06,-328.5 119.06,-328.5 66.31,-328.5 66.31,-328.5 60.31,-328.5 54.31,-322.5 54.31,-316.5 54.31,-316.5 54.31,-262.25 54.31,-262.25 54.31,-256.25 60.31,-250.25 66.31,-250.25"/>
</g>
<!-- Unmounted&#45;&gt;Mounting -->
<g id="edge2" class="edge">
<title>Unmounted&#45;&gt;Mounting</title>
<path fill="none" stroke="red" d="M63.32,-403.79C41.64,-396.45 17.14,-383.92 4.18,-363 -10.22,-339.75 16.43,-320.51 44.16,-307.69"/>
<polygon fill="red" stroke="red" points="45.19,-311.06 52.96,-303.86 42.4,-304.64 45.19,-311.06"/>
<text xml:space="preserve" text-anchor="middle" x="43.93" y="-349.7" font-family="Times,serif" font-size="14.00"> begin_mount </text>
</g>
<!-- Mounting&#45;&gt;Unmounted -->
<g id="edge4" class="edge">
<title>Mounting&#45;&gt;Unmounted</title>
<path fill="none" stroke="red" d="M96.67,-328.18C98.07,-341.42 99.65,-356.39 101.09,-370.05"/>
<polygon fill="red" stroke="red" points="97.58,-370.07 102.11,-379.65 104.54,-369.33 97.58,-370.07"/>
<text xml:space="preserve" text-anchor="middle" x="140.47" y="-349.7" font-family="Times,serif" font-size="14.00"> mount_failed </text>
</g>
<!-- Mounted -->
<g id="node4" class="node">
<title>Mounted</title>
<path fill="azure" stroke="none" d="M124.31,-197.75C124.31,-197.75 61.06,-197.75 61.06,-197.75 55.06,-197.75 49.06,-191.75 49.06,-185.75 49.06,-185.75 49.06,-131.5 49.06,-131.5 49.06,-125.5 55.06,-119.5 61.06,-119.5 61.06,-119.5 124.31,-119.5 124.31,-119.5 130.31,-119.5 136.31,-125.5 136.31,-131.5 136.31,-131.5 136.31,-185.75 136.31,-185.75 136.31,-191.75 130.31,-197.75 124.31,-197.75"/>
<text xml:space="preserve" text-anchor="start" x="66.06" y="-177.45" font-family="Times,serif" font-weight="bold" font-size="14.00">Mounted</text>
<text xml:space="preserve" text-anchor="start" x="57.06" y="-152.25" font-family="Times,serif" font-size="10.00">begin_unmount()</text>
<text xml:space="preserve" text-anchor="start" x="57.06" y="-141" font-family="Times,serif" font-size="10.00">is_mounted()</text>
<text xml:space="preserve" text-anchor="start" x="79.18" y="-129.75" font-family="Times,serif" font-size="10.00"> &#160;&#160;&#160;&#160;&#160;&#160;&#160;&#160;&#160;&#160;&#160;</text>
<polygon fill="#00688b" stroke="#00688b" points="49.06,-167.25 49.06,-167.25 136.31,-167.25 136.31,-167.25 49.06,-167.25"/>
<path fill="none" stroke="#00688b" d="M61.06,-119.5C61.06,-119.5 124.31,-119.5 124.31,-119.5 130.31,-119.5 136.31,-125.5 136.31,-131.5 136.31,-131.5 136.31,-185.75 136.31,-185.75 136.31,-191.75 130.31,-197.75 124.31,-197.75 124.31,-197.75 61.06,-197.75 61.06,-197.75 55.06,-197.75 49.06,-191.75 49.06,-185.75 49.06,-185.75 49.06,-131.5 49.06,-131.5 49.06,-125.5 55.06,-119.5 61.06,-119.5"/>
</g>
<!-- Mounting&#45;&gt;Mounted -->
<g id="edge3" class="edge">
<title>Mounting&#45;&gt;Mounted</title>
<path fill="none" stroke="red" d="M92.68,-250.44C92.68,-237.46 92.68,-222.74 92.68,-208.99"/>
<polygon fill="red" stroke="red" points="96.18,-209.25 92.68,-199.25 89.18,-209.25 96.18,-209.25"/>
<text xml:space="preserve" text-anchor="middle" x="130.56" y="-218.95" font-family="Times,serif" font-size="14.00"> mounted_ok </text>
</g>
<!-- Unmounting -->
<g id="node5" class="node">
<title>Unmounting</title>
<path fill="azure" stroke="none" d="M179.43,-67C179.43,-67 113.93,-67 113.93,-67 107.93,-67 101.93,-61 101.93,-55 101.93,-55 101.93,-12 101.93,-12 101.93,-6 107.93,0 113.93,0 113.93,0 179.43,0 179.43,0 185.43,0 191.43,-6 191.43,-12 191.43,-12 191.43,-55 191.43,-55 191.43,-61 185.43,-67 179.43,-67"/>
<text xml:space="preserve" text-anchor="start" x="109.93" y="-46.7" font-family="Times,serif" font-weight="bold" font-size="14.00">Unmounting</text>
<text xml:space="preserve" text-anchor="start" x="109.93" y="-21.5" font-family="Times,serif" font-size="10.00">unmounted()</text>
<text xml:space="preserve" text-anchor="start" x="122.68" y="-10.25" font-family="Times,serif" font-size="10.00"> &#160;&#160;&#160;&#160;&#160;&#160;&#160;&#160;&#160;&#160;&#160;</text>
<polygon fill="#00688b" stroke="#00688b" points="101.93,-36.5 101.93,-36.5 191.43,-36.5 191.43,-36.5 101.93,-36.5"/>
<path fill="none" stroke="#00688b" d="M113.93,0C113.93,0 179.43,0 179.43,0 185.43,0 191.43,-6 191.43,-12 191.43,-12 191.43,-55 191.43,-55 191.43,-61 185.43,-67 179.43,-67 179.43,-67 113.93,-67 113.93,-67 107.93,-67 101.93,-61 101.93,-55 101.93,-55 101.93,-12 101.93,-12 101.93,-6 107.93,0 113.93,0"/>
</g>
<!-- Mounted&#45;&gt;Unmounting -->
<g id="edge5" class="edge">
<title>Mounted&#45;&gt;Unmounting</title>
<path fill="none" stroke="red" d="M87.67,-119.86C87.57,-108.27 88.99,-95.75 93.68,-85 95.06,-81.84 96.74,-78.78 98.65,-75.84"/>
<polygon fill="red" stroke="red" points="101.28,-78.17 104.49,-68.07 95.68,-73.97 101.28,-78.17"/>
<text xml:space="preserve" text-anchor="middle" x="140.18" y="-88.2" font-family="Times,serif" font-size="14.00"> begin_unmount </text>
</g>
<!-- Unmounting&#45;&gt;Unmounted -->
<g id="edge6" class="edge">
<title>Unmounting&#45;&gt;Unmounted</title>
<path fill="none" stroke="red" d="M177.24,-66.83C181.11,-72.52 184.48,-78.66 186.68,-85 227.3,-201.69 244.44,-254.85 184.68,-363 178.41,-374.35 168.39,-383.53 157.56,-390.78"/>
<polygon fill="red" stroke="red" points="155.92,-387.69 149.21,-395.88 159.57,-393.66 155.92,-387.69"/>
<text xml:space="preserve" text-anchor="middle" x="257.96" y="-218.95" font-family="Times,serif" font-size="14.00"> unmounted </text>
</g>
</g>
</svg>
