<?xml version="1.0" encoding="UTF-8" standalone="no"?>
<!DOCTYPE svg PUBLIC "-//W3C//DTD SVG 1.1//EN"
 "http://www.w3.org/Graphics/SVG/1.1/DTD/svg11.dtd">
<!-- Generated by graphviz version 2.43.0 (0)
 -->
<!-- Title: OpenFile Pages: 1 -->
<svg width="283pt" height="389pt"
 viewBox="0.00 0.00 283.00 389.00" xmlns="http://www.w3.org/2000/svg" xmlns:xlink="http://www.w3.org/1999/xlink">
<g id="graph0" class="graph" transform="scale(1 1) rotate(0) translate(4 385)">
<title>OpenFile</title>
<polygon fill="white" stroke="transparent" points="-4,4 -4,-385 279,-385 279,4 -4,4"/>
<!-- Entry -->
<g id="node1" class="node">
<title>Entry</title>
<ellipse fill="black" stroke="#00688b" cx="143" cy="-374" rx="7" ry="7"/>
</g>
<!-- Open -->
<g id="node2" class="node">
<title>Open</title>
<path fill="azure" stroke="transparent" d="M171,-330C171,-330 115,-330 115,-330 109,-330 103,-324 103,-318 103,-318 103,-255 103,-255 103,-249 109,-243 115,-243 115,-243 171,-243 171,-243 177,-243 183,-249 183,-255 183,-255 183,-318 183,-318 183,-324 177,-330 171,-330"/>
<text text-anchor="start" x="122" y="-311.3" font-family="Times,serif" font-weight="bold" font-size="14.00">Open</text>
<text text-anchor="start" x="111" y="-286.5" font-family="Times,serif" font-size="10.00">open_read()</text>
<text text-anchor="start" x="111" y="-275.5" font-family="Times,serif" font-size="10.00">open_write()</text>
<text text-anchor="start" x="111" y="-264.5" font-family="Times,serif" font-size="10.00">close()</text>
<text text-anchor="start" x="124.5" y="-253.5" font-family="Times,serif" font-size="10.00"> &#160;&#160;&#160;&#160;&#160;&#160;&#160;&#160;&#160;&#160;&#160;</text>
<polygon fill="#00688b" stroke="#00688b" points="103,-300.5 103,-300.5 183,-300.5 183,-300.5 103,-300.5"/>
<path fill="none" stroke="#00688b" d="M115,-243C115,-243 171,-243 171,-243 177,-243 183,-249 183,-255 183,-255 183,-318 183,-318 183,-324 177,-330 171,-330 171,-330 115,-330 115,-330 109,-330 103,-324 103,-318 103,-318 103,-255 103,-255 103,-249 109,-243 115,-243"/>
</g>
<!-- Entry&#45;&gt;Open -->
<g id="edge1" class="edge">
<title>Entry&#45;&gt;Open</title>
<path fill="none" stroke="red" d="M143,-366.85C143,-360.81 143,-350.96 143,-340.23"/>
<polygon fill="red" stroke="red" points="146.5,-340.2 143,-330.2 139.5,-340.2 146.5,-340.2"/>
</g>
<!-- Reading -->
<g id="node3" class="node">
<title>Reading</title>
<path fill="azure" stroke="transparent" d="M70,-192C70,-192 12,-192 12,-192 6,-192 0,-186 0,-180 0,-180 0,-106 0,-106 0,-100 6,-94 12,-94 12,-94 70,-94 70,-94 76,-94 82,-100 82,-106 82,-106 82,-180 82,-180 82,-186 76,-192 70,-192"/>
<text text-anchor="start" x="8" y="-173.8" font-family="Times,serif" font-weight="bold" font-size="14.00">Reading</text>
<text text-anchor="start" x="8" y="-149" font-family="Times,serif" font-size="10.00">read()</text>
<text text-anchor="start" x="8" y="-138" font-family="Times,serif" font-size="10.00">close()</text>
<text text-anchor="start" x="8" y="-127" font-family="Times,serif" font-size="10.00">is_open()</text>
<text text-anchor="start" x="8" y="-116" font-family="Times,serif" font-size="10.00">is_reading()</text>
<text text-anchor="start" x="20" y="-105" font-family="Times,serif" font-size="10.00"> &#160;&#160;&#160;&#160;&#160;&#160;&#160;&#160;&#160;&#160;&#160;</text>
<polygon fill="#00688b" stroke="#00688b" points="0,-163 0,-163 82,-163 82,-163 0,-163"/>
<path fill="none" stroke="#00688b" d="M12,-94C12,-94 70,-94 70,-94 76,-94 82,-100 82,-106 82,-106 82,-180 82,-180 82,-186 76,-192 70,-192 70,-192 12,-192 12,-192 6,-192 0,-186 0,-180 0,-180 0,-106 0,-106 0,-100 6,-94 12,-94"/>
</g>
<!-- Open&#45;&gt;Reading -->
<g id="edge2" class="edge">
<title>Open&#45;&gt;Reading</title>
<path fill="none" stroke="red" d="M102.89,-266.57C85.87,-256.55 67.37,-242.62 56,-225 51.53,-218.08 48.32,-210.18 46.02,-202.08"/>
<polygon fill="red" stroke="red" points="49.37,-201.07 43.64,-192.16 42.57,-202.7 49.37,-201.07"/>
<text text-anchor="middle" x="97.5" y="-213.8" font-family="Times,serif" font-size="14.00"> open_read </text>
</g>
<!-- Writing -->
<g id="node4" class="node">
<title>Writing</title>
<path fill="azure" stroke="transparent" d="M169.5,-192C169.5,-192 116.5,-192 116.5,-192 110.5,-192 104.5,-186 104.5,-180 104.5,-180 104.5,-106 104.5,-106 104.5,-100 110.5,-94 116.5,-94 116.5,-94 169.5,-94 169.5,-94 175.5,-94 181.5,-100 181.5,-106 181.5,-106 181.5,-180 181.5,-180 181.5,-186 175.5,-192 169.5,-192"/>
<text text-anchor="start" x="113" y="-173.8" font-family="Times,serif" font-weight="bold" font-size="14.00">Writing</text>
<text text-anchor="start" x="113" y="-149" font-family="Times,serif" font-size="10.00">write()</text>
<text text-anchor="start" x="113" y="-138" font-family="Times,serif" font-size="10.00">close()</text>
<text text-anchor="start" x="113" y="-127" font-family="Times,serif" font-size="10.00">is_open()</text>
<text text-anchor="start" x="113" y="-116" font-family="Times,serif" font-size="10.00">is_writing()</text>
<text text-anchor="start" x="123.5" y="-105" font-family="Times,serif" font-size="10.00"> &#160;&#160;&#160;&#160;&#160;&#160;&#160;&#160;&#160;&#160;&#160;</text>
<polygon fill="#00688b" stroke="#00688b" points="105,-163 105,-163 182,-163 182,-163 105,-163"/>
<path fill="none" stroke="#00688b" d="M116.5,-94C116.5,-94 169.5,-94 169.5,-94 175.5,-94 181.5,-100 181.5,-106 181.5,-106 181.5,-180 181.5,-180 181.5,-186 175.5,-192 169.5,-192 169.5,-192 116.5,-192 116.5,-192 110.5,-192 104.5,-186 104.5,-180 104.5,-180 104.5,-106 104.5,-106 104.5,-100 110.5,-94 116.5,-94"/>
</g>
<!-- Open&#45;&gt;Writing -->
<g id="edge3" class="edge">
<title>Open&#45;&gt;Writing</title>
<path fill="none" stroke="red" d="M143,-242.66C143,-229.96 143,-215.82 143,-202.31"/>
<polygon fill="red" stroke="red" points="146.5,-202.14 143,-192.14 139.5,-202.14 146.5,-202.14"/>
<text text-anchor="middle" x="187" y="-213.8" font-family="Times,serif" font-size="14.00"> open_write </text>
</g>
<!-- Closed -->
<g id="node5" class="node">
<title>Closed</title>
<path fill="azure" stroke="transparent" d="M165.5,-43C165.5,-43 120.5,-43 120.5,-43 114.5,-43 108.5,-37 108.5,-31 108.5,-31 108.5,-12 108.5,-12 108.5,-6 114.5,0 120.5,0 120.5,0 165.5,0 165.5,0 171.5,0 177.5,-6 177.5,-12 177.5,-12 177.5,-31 177.5,-31 177.5,-37 171.5,-43 165.5,-43"/>
<text text-anchor="start" x="117" y="-24.3" font-family="Times,serif" font-weight="bold" font-size="14.00">Closed</text>
<polygon fill="#00688b" stroke="#00688b" points="109,-13.5 109,-13.5 178,-13.5 178,-13.5 109,-13.5"/>
<path fill="none" stroke="#00688b" d="M120.5,0C120.5,0 165.5,0 165.5,0 171.5,0 177.5,-6 177.5,-12 177.5,-12 177.5,-31 177.5,-31 177.5,-37 171.5,-43 165.5,-43 165.5,-43 120.5,-43 120.5,-43 114.5,-43 108.5,-37 108.5,-31 108.5,-31 108.5,-12 108.5,-12 108.5,-6 114.5,0 120.5,0"/>
</g>
<!-- Open&#45;&gt;Closed -->
<g id="edge4" class="edge">
<title>Open&#45;&gt;Closed</title>
<path fill="none" stroke="red" d="M183.25,-268.95C201.64,-259.1 221.6,-244.65 232,-225 235.12,-219.11 232.85,-216.61 232,-210 223.26,-142.11 230.82,-118.06 193,-61 190.45,-57.15 187.37,-53.52 184.03,-50.14"/>
<polygon fill="red" stroke="red" points="186.11,-47.3 176.35,-43.17 181.4,-52.49 186.11,-47.3"/>
<text text-anchor="middle" x="252" y="-139.3" font-family="Times,serif" font-size="14.00"> close </text>
</g>
<!-- Reading&#45;&gt;Closed -->
<g id="edge5" class="edge">
<title>Reading&#45;&gt;Closed</title>
<path fill="none" stroke="red" d="M68.12,-93.75C75.49,-82.45 83.96,-70.85 93,-61 96.66,-57.02 100.77,-53.14 105.01,-49.47"/>
<polygon fill="red" stroke="red" points="107.23,-52.17 112.74,-43.12 102.79,-46.76 107.23,-52.17"/>
<text text-anchor="middle" x="116" y="-64.8" font-family="Times,serif" font-size="14.00"> close </text>
</g>
<!-- Writing&#45;&gt;Closed -->
<g id="edge6" class="edge">
<title>Writing&#45;&gt;Closed</title>
<path fill="none" stroke="red" d="M143,-93.74C143,-80.11 143,-65.66 143,-53.35"/>
<polygon fill="red" stroke="red" points="146.5,-53.17 143,-43.17 139.5,-53.17 146.5,-53.17"/>
<text text-anchor="middle" x="166" y="-64.8" font-family="Times,serif" font-size="14.00"> close </text>
</g>
</g>
</svg>
