<?xml version="1.0" encoding="UTF-8" standalone="no"?>
<!DOCTYPE svg PUBLIC "-//W3C//DTD SVG 1.1//EN"
 "http://www.w3.org/Graphics/SVG/1.1/DTD/svg11.dtd">
<!-- Generated by graphviz version 14.1.5 (20260411.2331)
 -->
<!-- Title: OpenFile Pages: 1 -->
<svg width="265pt" height="399pt"
 viewBox="0.00 0.00 265.00 399.00" xmlns="http://www.w3.org/2000/svg" xmlns:xlink="http://www.w3.org/1999/xlink">
<g id="graph0" class="graph" transform="scale(1 1) rotate(0) translate(4 395.15)">
<title>OpenFile</title>
<polygon fill="white" stroke="none" points="-4,4 -4,-395.15 261.37,-395.15 261.37,4 -4,4"/>
<!-- Entry -->
<g id="node1" class="node">
<title>Entry</title>
<ellipse fill="black" stroke="#00688b" cx="116.38" cy="-383.95" rx="7.2" ry="7.2"/>
</g>
<!-- Open -->
<g id="node2" class="node">
<title>Open</title>
<path fill="azure" stroke="none" d="M138.62,-339.75C138.62,-339.75 94.12,-339.75 94.12,-339.75 88.12,-339.75 82.12,-333.75 82.12,-327.75 82.12,-327.75 82.12,-262.25 82.12,-262.25 82.12,-256.25 88.12,-250.25 94.12,-250.25 94.12,-250.25 138.62,-250.25 138.62,-250.25 144.62,-250.25 150.62,-256.25 150.62,-262.25 150.62,-262.25 150.62,-327.75 150.62,-327.75 150.62,-333.75 144.62,-339.75 138.62,-339.75"/>
<text xml:space="preserve" text-anchor="start" x="100.25" y="-319.45" font-family="Times,serif" font-weight="bold" font-size="14.00">Open</text>
<text xml:space="preserve" text-anchor="start" x="90.12" y="-294.25" font-family="Times,serif" font-size="10.00">open_read()</text>
<text xml:space="preserve" text-anchor="start" x="90.12" y="-283" font-family="Times,serif" font-size="10.00">open_write()</text>
<text xml:space="preserve" text-anchor="start" x="90.12" y="-271.75" font-family="Times,serif" font-size="10.00">close()</text>
<text xml:space="preserve" text-anchor="start" x="102.88" y="-260.5" font-family="Times,serif" font-size="10.00"> &#160;&#160;&#160;&#160;&#160;&#160;&#160;&#160;&#160;&#160;&#160;</text>
<polygon fill="#00688b" stroke="#00688b" points="82.12,-309.25 82.12,-309.25 150.62,-309.25 150.62,-309.25 82.12,-309.25"/>
<path fill="none" stroke="#00688b" d="M94.12,-250.25C94.12,-250.25 138.62,-250.25 138.62,-250.25 144.62,-250.25 150.62,-256.25 150.62,-262.25 150.62,-262.25 150.62,-327.75 150.62,-327.75 150.62,-333.75 144.62,-339.75 138.62,-339.75 138.62,-339.75 94.12,-339.75 94.12,-339.75 88.12,-339.75 82.12,-333.75 82.12,-327.75 82.12,-327.75 82.12,-262.25 82.12,-262.25 82.12,-256.25 88.12,-250.25 94.12,-250.25"/>
</g>
<!-- Entry&#45;&gt;Open -->
<g id="edge1" class="edge">
<title>Entry&#45;&gt;Open</title>
<path fill="none" stroke="red" d="M116.38,-376.41C116.38,-370.5 116.38,-361.16 116.38,-350.91"/>
<polygon fill="red" stroke="red" points="119.88,-351.06 116.38,-341.06 112.88,-351.06 119.88,-351.06"/>
</g>
<!-- Reading -->
<g id="node3" class="node">
<title>Reading</title>
<path fill="azure" stroke="none" d="M52.75,-197.75C52.75,-197.75 12,-197.75 12,-197.75 6,-197.75 0,-191.75 0,-185.75 0,-185.75 0,-109 0,-109 0,-103 6,-97 12,-97 12,-97 52.75,-97 52.75,-97 58.75,-97 64.75,-103 64.75,-109 64.75,-109 64.75,-185.75 64.75,-185.75 64.75,-191.75 58.75,-197.75 52.75,-197.75"/>
<text xml:space="preserve" text-anchor="start" x="8.38" y="-177.45" font-family="Times,serif" font-weight="bold" font-size="14.00">Reading</text>
<text xml:space="preserve" text-anchor="start" x="8" y="-152.25" font-family="Times,serif" font-size="10.00">read()</text>
<text xml:space="preserve" text-anchor="start" x="8" y="-141" font-family="Times,serif" font-size="10.00">close()</text>
<text xml:space="preserve" text-anchor="start" x="8" y="-129.75" font-family="Times,serif" font-size="10.00">is_open()</text>
<text xml:space="preserve" text-anchor="start" x="8" y="-118.5" font-family="Times,serif" font-size="10.00">is_reading()</text>
<text xml:space="preserve" text-anchor="start" x="18.88" y="-107.25" font-family="Times,serif" font-size="10.00"> &#160;&#160;&#160;&#160;&#160;&#160;&#160;&#160;&#160;&#160;&#160;</text>
<polygon fill="#00688b" stroke="#00688b" points="0,-167.25 0,-167.25 64.75,-167.25 64.75,-167.25 0,-167.25"/>
<path fill="none" stroke="#00688b" d="M12,-97C12,-97 52.75,-97 52.75,-97 58.75,-97 64.75,-103 64.75,-109 64.75,-109 64.75,-185.75 64.75,-185.75 64.75,-191.75 58.75,-197.75 52.75,-197.75 52.75,-197.75 12,-197.75 12,-197.75 6,-197.75 0,-191.75 0,-185.75 0,-185.75 0,-109 0,-109 0,-103 6,-97 12,-97"/>
</g>
<!-- Open&#45;&gt;Reading -->
<g id="edge2" class="edge">
<title>Open&#45;&gt;Reading</title>
<path fill="none" stroke="red" d="M82.36,-270.39C69.92,-260.08 56.88,-246.96 48.62,-232.25 44.58,-225.05 41.53,-217.01 39.23,-208.84"/>
<polygon fill="red" stroke="red" points="42.64,-208.05 36.88,-199.16 35.83,-209.7 42.64,-208.05"/>
<text xml:space="preserve" text-anchor="middle" x="80.5" y="-218.95" font-family="Times,serif" font-size="14.00"> open_read </text>
</g>
<!-- Writing -->
<g id="node4" class="node">
<title>Writing</title>
<path fill="azure" stroke="none" d="M136.38,-197.75C136.38,-197.75 96.38,-197.75 96.38,-197.75 90.38,-197.75 84.38,-191.75 84.38,-185.75 84.38,-185.75 84.38,-109 84.38,-109 84.38,-103 90.38,-97 96.38,-97 96.38,-97 136.38,-97 136.38,-97 142.38,-97 148.38,-103 148.38,-109 148.38,-109 148.38,-185.75 148.38,-185.75 148.38,-191.75 142.38,-197.75 136.38,-197.75"/>
<text xml:space="preserve" text-anchor="start" x="93.5" y="-177.45" font-family="Times,serif" font-weight="bold" font-size="14.00">Writing</text>
<text xml:space="preserve" text-anchor="start" x="92.38" y="-152.25" font-family="Times,serif" font-size="10.00">write()</text>
<text xml:space="preserve" text-anchor="start" x="92.38" y="-141" font-family="Times,serif" font-size="10.00">close()</text>
<text xml:space="preserve" text-anchor="start" x="92.38" y="-129.75" font-family="Times,serif" font-size="10.00">is_open()</text>
<text xml:space="preserve" text-anchor="start" x="92.38" y="-118.5" font-family="Times,serif" font-size="10.00">is_writing()</text>
<text xml:space="preserve" text-anchor="start" x="102.88" y="-107.25" font-family="Times,serif" font-size="10.00"> &#160;&#160;&#160;&#160;&#160;&#160;&#160;&#160;&#160;&#160;&#160;</text>
<polygon fill="#00688b" stroke="#00688b" points="84.38,-167.25 84.38,-167.25 148.38,-167.25 148.38,-167.25 84.38,-167.25"/>
<path fill="none" stroke="#00688b" d="M96.38,-97C96.38,-97 136.38,-97 136.38,-97 142.38,-97 148.38,-103 148.38,-109 148.38,-109 148.38,-185.75 148.38,-185.75 148.38,-191.75 142.38,-197.75 136.38,-197.75 136.38,-197.75 96.38,-197.75 96.38,-197.75 90.38,-197.75 84.38,-191.75 84.38,-185.75 84.38,-185.75 84.38,-109 84.38,-109 84.38,-103 90.38,-97 96.38,-97"/>
</g>
<!-- Open&#45;&gt;Writing -->
<g id="edge3" class="edge">
<title>Open&#45;&gt;Writing</title>
<path fill="none" stroke="red" d="M116.38,-250.31C116.38,-237.35 116.38,-222.92 116.38,-209.08"/>
<polygon fill="red" stroke="red" points="119.88,-209.16 116.38,-199.16 112.88,-209.16 119.88,-209.16"/>
<text xml:space="preserve" text-anchor="middle" x="150.5" y="-218.95" font-family="Times,serif" font-size="14.00"> open_write </text>
</g>
<!-- Closed -->
<g id="node5" class="node">
<title>Closed</title>
<path fill="azure" stroke="none" d="M131.88,-44.5C131.88,-44.5 100.88,-44.5 100.88,-44.5 94.88,-44.5 88.88,-38.5 88.88,-32.5 88.88,-32.5 88.88,-12 88.88,-12 88.88,-6 94.88,0 100.88,0 100.88,0 131.88,0 131.88,0 137.88,0 143.88,-6 143.88,-12 143.88,-12 143.88,-32.5 143.88,-32.5 143.88,-38.5 137.88,-44.5 131.88,-44.5"/>
<text xml:space="preserve" text-anchor="start" x="96.88" y="-24.2" font-family="Times,serif" font-weight="bold" font-size="14.00">Closed</text>
<polygon fill="#00688b" stroke="#00688b" points="88.88,-14 88.88,-14 143.88,-14 143.88,-14 88.88,-14"/>
<path fill="none" stroke="#00688b" d="M100.88,0C100.88,0 131.88,0 131.88,0 137.88,0 143.88,-6 143.88,-12 143.88,-12 143.88,-32.5 143.88,-32.5 143.88,-38.5 137.88,-44.5 131.88,-44.5 131.88,-44.5 100.88,-44.5 100.88,-44.5 94.88,-44.5 88.88,-38.5 88.88,-32.5 88.88,-32.5 88.88,-12 88.88,-12 88.88,-6 94.88,0 100.88,0"/>
</g>
<!-- Open&#45;&gt;Closed -->
<g id="edge4" class="edge">
<title>Open&#45;&gt;Closed</title>
<path fill="none" stroke="red" d="M150.34,-272.97C163.9,-262.56 178.03,-248.69 185.38,-232.25 204.13,-190.3 291.46,-319.01 155.38,-62.5 153.56,-59.09 151.36,-55.78 148.93,-52.62"/>
<polygon fill="red" stroke="red" points="151.81,-50.6 142.62,-45.33 146.52,-55.18 151.81,-50.6"/>
<text xml:space="preserve" text-anchor="middle" x="239.74" y="-142.32" font-family="Times,serif" font-size="14.00"> close </text>
</g>
<!-- Reading&#45;&gt;Closed -->
<g id="edge5" class="edge">
<title>Reading&#45;&gt;Closed</title>
<path fill="none" stroke="red" d="M55.36,-97.43C61.76,-85.58 69.17,-73.24 77.12,-62.5 79.62,-59.13 82.41,-55.77 85.31,-52.51"/>
<polygon fill="red" stroke="red" points="87.79,-54.98 92.11,-45.3 82.7,-50.18 87.79,-54.98"/>
<text xml:space="preserve" text-anchor="middle" x="94.75" y="-65.7" font-family="Times,serif" font-size="14.00"> close </text>
</g>
<!-- Writing&#45;&gt;Closed -->
<g id="edge6" class="edge">
<title>Writing&#45;&gt;Closed</title>
<path fill="none" stroke="red" d="M116.38,-97C116.38,-83.11 116.38,-68.36 116.38,-55.73"/>
<polygon fill="red" stroke="red" points="119.88,-55.87 116.38,-45.87 112.88,-55.87 119.88,-55.87"/>
<text xml:space="preserve" text-anchor="middle" x="134" y="-65.7" font-family="Times,serif" font-size="14.00"> close </text>
</g>
</g>
</svg>
