<?xml version="1.0" encoding="UTF-8" standalone="no"?>
<!DOCTYPE svg PUBLIC "-//W3C//DTD SVG 1.1//EN"
 "http://www.w3.org/Graphics/SVG/1.1/DTD/svg11.dtd">
<!-- Generated by graphviz version 14.1.5 (20260411.2331)
 -->
<!-- Title: PageFaultHandler Pages: 1 -->
<svg width="397pt" height="332pt"
 viewBox="0.00 0.00 397.00 332.00" xmlns="http://www.w3.org/2000/svg" xmlns:xlink="http://www.w3.org/1999/xlink">
<g id="graph0" class="graph" transform="scale(1 1) rotate(0) translate(4 328.15)">
<title>PageFaultHandler</title>
<polygon fill="white" stroke="none" points="-4,4 -4,-328.15 393.41,-328.15 393.41,4 -4,4"/>
<g id="clust1" class="cluster">
<title>cluster_FaultActive</title>
<path fill="none" stroke="black" d="M20,-8C20,-8 179,-8 179,-8 185,-8 191,-14 191,-20 191,-20 191,-270.75 191,-270.75 191,-276.75 185,-282.75 179,-282.75 179,-282.75 20,-282.75 20,-282.75 14,-282.75 8,-276.75 8,-270.75 8,-270.75 8,-20 8,-20 8,-14 14,-8 20,-8"/>
<text xml:space="preserve" text-anchor="start" x="67.62" y="-262" font-family="Times,serif" font-size="14.00">FaultActive</text>
<text xml:space="preserve" text-anchor="start" x="67.62" y="-243.25" font-family="Times,serif" font-size="10.00">unrecoverable()</text>
<text xml:space="preserve" text-anchor="start" x="81.5" y="-232" font-family="Times,serif" font-size="10.00"> &#160;&#160;&#160;&#160;&#160;&#160;&#160;&#160;&#160;&#160;&#160;&#160;&#160;&#160;&#160;</text>
<polygon fill="black" stroke="black" points="63.62,-255.25 63.62,-255.25 135.38,-255.25 135.38,-255.25 63.62,-255.25"/>
</g>
<!-- Entry -->
<g id="node1" class="node">
<title>Entry</title>
<ellipse fill="black" stroke="#00688b" cx="90" cy="-316.95" rx="7.2" ry="7.2"/>
</g>
<!-- Classifying -->
<g id="node2" class="node">
<title>Classifying</title>
<path fill="azure" stroke="none" d="M152.38,-213.75C152.38,-213.75 27.62,-213.75 27.62,-213.75 21.62,-213.75 15.62,-207.75 15.62,-201.75 15.62,-201.75 15.62,-158.75 15.62,-158.75 15.62,-152.75 21.62,-146.75 27.62,-146.75 27.62,-146.75 152.38,-146.75 152.38,-146.75 158.38,-146.75 164.38,-152.75 164.38,-158.75 164.38,-158.75 164.38,-201.75 164.38,-201.75 164.38,-207.75 158.38,-213.75 152.38,-213.75"/>
<text xml:space="preserve" text-anchor="start" x="58.12" y="-193.45" font-family="Times,serif" font-weight="bold" font-size="14.00">Classifying</text>
<text xml:space="preserve" text-anchor="start" x="23.62" y="-168.25" font-family="Times,serif" font-size="10.00">fault(addr: u64, error_code: u64)</text>
<text xml:space="preserve" text-anchor="start" x="72" y="-157" font-family="Times,serif" font-size="10.00"> &#160;&#160;&#160;&#160;&#160;&#160;&#160;&#160;&#160;&#160;&#160;&#160;&#160;&#160;&#160;</text>
<polygon fill="#00688b" stroke="#00688b" points="15.62,-183.25 15.62,-183.25 164.38,-183.25 164.38,-183.25 15.62,-183.25"/>
<path fill="none" stroke="#00688b" d="M27.62,-146.75C27.62,-146.75 152.38,-146.75 152.38,-146.75 158.38,-146.75 164.38,-152.75 164.38,-158.75 164.38,-158.75 164.38,-201.75 164.38,-201.75 164.38,-207.75 158.38,-213.75 152.38,-213.75 152.38,-213.75 27.62,-213.75 27.62,-213.75 21.62,-213.75 15.62,-207.75 15.62,-201.75 15.62,-201.75 15.62,-158.75 15.62,-158.75 15.62,-152.75 21.62,-146.75 27.62,-146.75"/>
</g>
<!-- Entry&#45;&gt;Classifying -->
<g id="edge1" class="edge">
<title>Entry&#45;&gt;Classifying</title>
<path fill="none" stroke="red" d="M90,-309.45C90,-294.35 90,-255.83 90,-224.93"/>
<polygon fill="red" stroke="red" points="93.5,-225.04 90,-215.04 86.5,-225.04 93.5,-225.04"/>
</g>
<!-- LazyFault -->
<g id="node4" class="node">
<title>LazyFault</title>
<path fill="azure" stroke="none" d="M97.62,-83C97.62,-83 46.37,-83 46.37,-83 40.38,-83 34.38,-77 34.38,-71 34.38,-71 34.38,-28 34.38,-28 34.38,-22 40.38,-16 46.38,-16 46.38,-16 97.62,-16 97.62,-16 103.62,-16 109.62,-22 109.62,-28 109.62,-28 109.62,-71 109.62,-71 109.62,-77 103.62,-83 97.62,-83"/>
<text xml:space="preserve" text-anchor="start" x="42.38" y="-62.7" font-family="Times,serif" font-weight="bold" font-size="14.00">LazyFault</text>
<text xml:space="preserve" text-anchor="start" x="42.38" y="-37.5" font-family="Times,serif" font-size="10.00">$&gt;()</text>
<text xml:space="preserve" text-anchor="start" x="42.38" y="-26.25" font-family="Times,serif" font-size="10.00"> &#160;&#160;&#160;&#160;&#160;&#160;&#160;&#160;&#160;&#160;&#160;&#160;&#160;&#160;&#160;</text>
<polygon fill="#00688b" stroke="#00688b" points="34.38,-52.5 34.38,-52.5 109.62,-52.5 109.62,-52.5 34.38,-52.5"/>
<path fill="none" stroke="#00688b" d="M46.38,-16C46.38,-16 97.62,-16 97.62,-16 103.62,-16 109.62,-22 109.62,-28 109.62,-28 109.62,-71 109.62,-71 109.62,-77 103.62,-83 97.62,-83 97.62,-83 46.37,-83 46.37,-83 40.38,-83 34.38,-77 34.38,-71 34.38,-71 34.38,-28 34.38,-28 34.38,-22 40.38,-16 46.38,-16"/>
</g>
<!-- Classifying&#45;&gt;LazyFault -->
<g id="edge2" class="edge">
<title>Classifying&#45;&gt;LazyFault</title>
<path fill="none" stroke="red" d="M85.46,-146.76C83.22,-130.75 80.49,-111.22 78.07,-93.95"/>
<polygon fill="red" stroke="red" points="81.6,-93.9 76.75,-84.48 74.67,-94.87 81.6,-93.9"/>
<text xml:space="preserve" text-anchor="middle" x="98.74" y="-115.45" font-family="Times,serif" font-size="14.00"> fault </text>
</g>
<!-- FaultActive -->
<g id="node3" class="node">
<title>FaultActive</title>
<ellipse fill="azure" stroke="#00688b" cx="183" cy="-180.25" rx="0.36" ry="0.36"/>
</g>
<!-- Fatal -->
<g id="node5" class="node">
<title>Fatal</title>
<path fill="azure" stroke="none" d="M338,-88.62C338,-88.62 308,-88.62 308,-88.62 302,-88.62 296,-82.62 296,-76.62 296,-76.62 296,-22.38 296,-22.38 296,-16.38 302,-10.38 308,-10.38 308,-10.38 338,-10.38 338,-10.38 344,-10.38 350,-16.38 350,-22.38 350,-22.38 350,-76.62 350,-76.62 350,-82.62 344,-88.62 338,-88.62"/>
<text xml:space="preserve" text-anchor="start" x="308" y="-68.33" font-family="Times,serif" font-weight="bold" font-size="14.00">Fatal</text>
<text xml:space="preserve" text-anchor="start" x="305" y="-43.12" font-family="Times,serif" font-size="10.00">$&gt;()</text>
<text xml:space="preserve" text-anchor="start" x="305" y="-31.88" font-family="Times,serif" font-size="10.00">is_fatal()</text>
<text xml:space="preserve" text-anchor="start" x="309.5" y="-20.62" font-family="Times,serif" font-size="10.00"> &#160;&#160;&#160;&#160;&#160;&#160;&#160;&#160;&#160;&#160;&#160;</text>
<polygon fill="#00688b" stroke="#00688b" points="297,-58.12 297,-58.12 349,-58.12 349,-58.12 297,-58.12"/>
<path fill="none" stroke="#00688b" d="M309,-10.38C309,-10.38 337,-10.38 337,-10.38 343,-10.38 349,-16.38 349,-22.38 349,-22.38 349,-76.62 349,-76.62 349,-82.62 343,-88.62 337,-88.62 337,-88.62 309,-88.62 309,-88.62 303,-88.62 297,-82.62 297,-76.62 297,-76.62 297,-22.38 297,-22.38 297,-16.38 303,-10.38 309,-10.38"/>
</g>
<!-- FaultActive&#45;&gt;Fatal -->
<g id="edge5" class="edge">
<title>FaultActive&#45;&gt;Fatal</title>
<path fill="none" stroke="red" d="M191,-177.87C211.3,-173.95 265.32,-160.9 295,-128.75 302.71,-120.4 308.32,-109.78 312.4,-99.08"/>
<polygon fill="red" stroke="red" points="315.63,-100.47 315.51,-89.87 309,-98.23 315.63,-100.47"/>
<text xml:space="preserve" text-anchor="middle" x="347.41" y="-115.45" font-family="Times,serif" font-size="14.00"> unrecoverable </text>
</g>
<!-- Killing -->
<g id="node6" class="node">
<title>Killing</title>
<path fill="azure" stroke="none" d="M248.88,-94.25C248.88,-94.25 211.12,-94.25 211.12,-94.25 205.12,-94.25 199.12,-88.25 199.12,-82.25 199.12,-82.25 199.12,-16.75 199.12,-16.75 199.12,-10.75 205.12,-4.75 211.12,-4.75 211.12,-4.75 248.88,-4.75 248.88,-4.75 254.88,-4.75 260.88,-10.75 260.88,-16.75 260.88,-16.75 260.88,-82.25 260.88,-82.25 260.88,-88.25 254.88,-94.25 248.88,-94.25"/>
<text xml:space="preserve" text-anchor="start" x="209.75" y="-73.95" font-family="Times,serif" font-weight="bold" font-size="14.00">Killing</text>
<text xml:space="preserve" text-anchor="start" x="207.12" y="-48.75" font-family="Times,serif" font-size="10.00">$&gt;()</text>
<text xml:space="preserve" text-anchor="start" x="207.12" y="-37.5" font-family="Times,serif" font-size="10.00">recover()</text>
<text xml:space="preserve" text-anchor="start" x="207.12" y="-26.25" font-family="Times,serif" font-size="10.00">is_killing()</text>
<text xml:space="preserve" text-anchor="start" x="216.5" y="-15" font-family="Times,serif" font-size="10.00"> &#160;&#160;&#160;&#160;&#160;&#160;&#160;&#160;&#160;&#160;&#160;</text>
<polygon fill="#00688b" stroke="#00688b" points="199.12,-63.75 199.12,-63.75 260.88,-63.75 260.88,-63.75 199.12,-63.75"/>
<path fill="none" stroke="#00688b" d="M211.12,-4.75C211.12,-4.75 248.88,-4.75 248.88,-4.75 254.88,-4.75 260.88,-10.75 260.88,-16.75 260.88,-16.75 260.88,-82.25 260.88,-82.25 260.88,-88.25 254.88,-94.25 248.88,-94.25 248.88,-94.25 211.12,-94.25 211.12,-94.25 205.12,-94.25 199.12,-88.25 199.12,-82.25 199.12,-82.25 199.12,-16.75 199.12,-16.75 199.12,-10.75 205.12,-4.75 211.12,-4.75"/>
</g>
<!-- FaultActive&#45;&gt;Killing -->
<g id="edge4" class="edge">
<title>FaultActive&#45;&gt;Killing</title>
<path fill="none" stroke="red" d="M191,-157.34C196.31,-142.8 203.52,-123.05 210.29,-104.48"/>
<polygon fill="red" stroke="red" points="213.45,-106.04 213.59,-95.45 206.87,-103.64 213.45,-106.04"/>
<text xml:space="preserve" text-anchor="middle" x="248.5" y="-115.45" font-family="Times,serif" font-size="14.00"> unrecoverable </text>
</g>
<!-- LazyFault&#45;&gt;Classifying -->
<g id="edge3" class="edge">
<title>LazyFault&#45;&gt;Classifying</title>
<path fill="none" stroke="red" d="M57.15,-82.81C52.56,-97.05 49.8,-113.88 54.5,-128.75 55.36,-131.48 56.43,-134.18 57.65,-136.85"/>
<polygon fill="red" stroke="red" points="54.49,-138.35 62.3,-145.5 60.65,-135.04 54.49,-138.35"/>
<text xml:space="preserve" text-anchor="middle" x="65.75" y="-115.45" font-family="Times,serif" font-size="14.00"> $&gt; </text>
</g>
<!-- Killing&#45;&gt;Classifying -->
<g id="edge6" class="edge">
<title>Killing&#45;&gt;Classifying</title>
<path fill="none" stroke="red" d="M199.14,-90.93C197.79,-92.09 196.41,-93.21 195,-94.25 177.7,-107.08 167.65,-99.9 150,-112.25 139.62,-119.51 129.79,-128.91 121.2,-138.35"/>
<polygon fill="red" stroke="red" points="118.61,-135.99 114.68,-145.83 123.89,-140.59 118.61,-135.99"/>
<text xml:space="preserve" text-anchor="middle" x="174" y="-115.45" font-family="Times,serif" font-size="14.00"> recover </text>
</g>
</g>
</svg>
