<?xml version="1.0" encoding="UTF-8" standalone="no"?>
<!DOCTYPE svg PUBLIC "-//W3C//DTD SVG 1.1//EN"
 "http://www.w3.org/Graphics/SVG/1.1/DTD/svg11.dtd">
<!-- Generated by graphviz version 14.1.5 (20260411.2331)
 -->
<!-- Title: PageFaultHandler Pages: 1 -->
<svg width="207pt" height="413pt"
 viewBox="0.00 0.00 207.00 413.00" xmlns="http://www.w3.org/2000/svg" xmlns:xlink="http://www.w3.org/1999/xlink">
<g id="graph0" class="graph" transform="scale(1 1) rotate(0) translate(4 409.15)">
<title>PageFaultHandler</title>
<polygon fill="white" stroke="none" points="-4,4 -4,-409.15 203,-409.15 203,4 -4,4"/>
<g id="clust1" class="cluster">
<title>cluster_FaultActive</title>
<path fill="none" stroke="black" d="M20,-122.75C20,-122.75 179,-122.75 179,-122.75 185,-122.75 191,-128.75 191,-134.75 191,-134.75 191,-351.75 191,-351.75 191,-357.75 185,-363.75 179,-363.75 179,-363.75 20,-363.75 20,-363.75 14,-363.75 8,-357.75 8,-351.75 8,-351.75 8,-134.75 8,-134.75 8,-128.75 14,-122.75 20,-122.75"/>
<text xml:space="preserve" text-anchor="start" x="67.62" y="-343" font-family="Times,serif" font-size="14.00">FaultActive</text>
<polygon fill="black" stroke="black" points="63.62,-336.25 63.62,-336.25 135.38,-336.25 135.38,-336.25 63.62,-336.25"/>
</g>
<!-- Entry -->
<g id="node1" class="node">
<title>Entry</title>
<ellipse fill="black" stroke="#00688b" cx="90" cy="-397.95" rx="7.2" ry="7.2"/>
</g>
<!-- Classifying -->
<g id="node2" class="node">
<title>Classifying</title>
<path fill="azure" stroke="none" d="M152.38,-317.25C152.38,-317.25 27.62,-317.25 27.62,-317.25 21.62,-317.25 15.62,-311.25 15.62,-305.25 15.62,-305.25 15.62,-262.25 15.62,-262.25 15.62,-256.25 21.62,-250.25 27.62,-250.25 27.62,-250.25 152.38,-250.25 152.38,-250.25 158.38,-250.25 164.38,-256.25 164.38,-262.25 164.38,-262.25 164.38,-305.25 164.38,-305.25 164.38,-311.25 158.38,-317.25 152.38,-317.25"/>
<text xml:space="preserve" text-anchor="start" x="58.12" y="-296.95" font-family="Times,serif" font-weight="bold" font-size="14.00">Classifying</text>
<text xml:space="preserve" text-anchor="start" x="23.62" y="-271.75" font-family="Times,serif" font-size="10.00">fault(addr: u64, error_code: u64)</text>
<text xml:space="preserve" text-anchor="start" x="72" y="-260.5" font-family="Times,serif" font-size="10.00"> &#160;&#160;&#160;&#160;&#160;&#160;&#160;&#160;&#160;&#160;&#160;&#160;&#160;&#160;&#160;</text>
<polygon fill="#00688b" stroke="#00688b" points="15.62,-286.75 15.62,-286.75 164.38,-286.75 164.38,-286.75 15.62,-286.75"/>
<path fill="none" stroke="#00688b" d="M27.62,-250.25C27.62,-250.25 152.38,-250.25 152.38,-250.25 158.38,-250.25 164.38,-256.25 164.38,-262.25 164.38,-262.25 164.38,-305.25 164.38,-305.25 164.38,-311.25 158.38,-317.25 152.38,-317.25 152.38,-317.25 27.62,-317.25 27.62,-317.25 21.62,-317.25 15.62,-311.25 15.62,-305.25 15.62,-305.25 15.62,-262.25 15.62,-262.25 15.62,-256.25 21.62,-250.25 27.62,-250.25"/>
</g>
<!-- Entry&#45;&gt;Classifying -->
<g id="edge1" class="edge">
<title>Entry&#45;&gt;Classifying</title>
<path fill="none" stroke="red" d="M90,-390.27C90,-378.2 90,-351.86 90,-328.51"/>
<polygon fill="red" stroke="red" points="93.5,-328.53 90,-318.53 86.5,-328.53 93.5,-328.53"/>
</g>
<!-- LazyFault -->
<g id="node4" class="node">
<title>LazyFault</title>
<path fill="azure" stroke="none" d="M79.62,-197.75C79.62,-197.75 28.37,-197.75 28.37,-197.75 22.38,-197.75 16.38,-191.75 16.38,-185.75 16.38,-185.75 16.38,-142.75 16.38,-142.75 16.38,-136.75 22.38,-130.75 28.38,-130.75 28.38,-130.75 79.62,-130.75 79.62,-130.75 85.62,-130.75 91.62,-136.75 91.62,-142.75 91.62,-142.75 91.62,-185.75 91.62,-185.75 91.62,-191.75 85.62,-197.75 79.62,-197.75"/>
<text xml:space="preserve" text-anchor="start" x="24.38" y="-177.45" font-family="Times,serif" font-weight="bold" font-size="14.00">LazyFault</text>
<text xml:space="preserve" text-anchor="start" x="24.38" y="-152.25" font-family="Times,serif" font-size="10.00">$&gt;()</text>
<text xml:space="preserve" text-anchor="start" x="24.38" y="-141" font-family="Times,serif" font-size="10.00"> &#160;&#160;&#160;&#160;&#160;&#160;&#160;&#160;&#160;&#160;&#160;&#160;&#160;&#160;&#160;</text>
<polygon fill="#00688b" stroke="#00688b" points="16.38,-167.25 16.38,-167.25 91.62,-167.25 91.62,-167.25 16.38,-167.25"/>
<path fill="none" stroke="#00688b" d="M28.38,-130.75C28.38,-130.75 79.62,-130.75 79.62,-130.75 85.62,-130.75 91.62,-136.75 91.62,-142.75 91.62,-142.75 91.62,-185.75 91.62,-185.75 91.62,-191.75 85.62,-197.75 79.62,-197.75 79.62,-197.75 28.37,-197.75 28.37,-197.75 22.38,-197.75 16.38,-191.75 16.38,-185.75 16.38,-185.75 16.38,-142.75 16.38,-142.75 16.38,-136.75 22.38,-130.75 28.38,-130.75"/>
</g>
<!-- Classifying&#45;&gt;LazyFault -->
<g id="edge2" class="edge">
<title>Classifying&#45;&gt;LazyFault</title>
<path fill="none" stroke="red" d="M47.67,-250.54C42.84,-244.99 38.63,-238.86 35.75,-232.25 32.51,-224.81 32.24,-216.66 33.59,-208.67"/>
<polygon fill="red" stroke="red" points="36.96,-209.62 36.07,-199.06 30.18,-207.87 36.96,-209.62"/>
<text xml:space="preserve" text-anchor="middle" x="51.88" y="-218.95" font-family="Times,serif" font-size="14.00"> fault </text>
</g>
<!-- Fatal -->
<g id="node5" class="node">
<title>Fatal</title>
<path fill="azure" stroke="none" d="M106,-78.25C106,-78.25 76,-78.25 76,-78.25 70,-78.25 64,-72.25 64,-66.25 64,-66.25 64,-12 64,-12 64,-6 70,0 76,0 76,0 106,0 106,0 112,0 118,-6 118,-12 118,-12 118,-66.25 118,-66.25 118,-72.25 112,-78.25 106,-78.25"/>
<text xml:space="preserve" text-anchor="start" x="76" y="-57.95" font-family="Times,serif" font-weight="bold" font-size="14.00">Fatal</text>
<text xml:space="preserve" text-anchor="start" x="73" y="-32.75" font-family="Times,serif" font-size="10.00">$&gt;()</text>
<text xml:space="preserve" text-anchor="start" x="73" y="-21.5" font-family="Times,serif" font-size="10.00">is_fatal()</text>
<text xml:space="preserve" text-anchor="start" x="77.5" y="-10.25" font-family="Times,serif" font-size="10.00"> &#160;&#160;&#160;&#160;&#160;&#160;&#160;&#160;&#160;&#160;&#160;</text>
<polygon fill="#00688b" stroke="#00688b" points="65,-47.75 65,-47.75 117,-47.75 117,-47.75 65,-47.75"/>
<path fill="none" stroke="#00688b" d="M77,0C77,0 105,0 105,0 111,0 117,-6 117,-12 117,-12 117,-66.25 117,-66.25 117,-72.25 111,-78.25 105,-78.25 105,-78.25 77,-78.25 77,-78.25 71,-78.25 65,-72.25 65,-66.25 65,-66.25 65,-12 65,-12 65,-6 71,0 77,0"/>
</g>
<!-- Classifying&#45;&gt;Fatal -->
<g id="edge3" class="edge">
<title>Classifying&#45;&gt;Fatal</title>
<path fill="none" stroke="red" d="M98.14,-250.32C99.33,-244.35 100.37,-238.14 101,-232.25 107.47,-172.15 105.94,-156.4 100,-96.25 99.77,-93.95 99.51,-91.6 99.23,-89.23"/>
<polygon fill="red" stroke="red" points="102.73,-89.03 97.93,-79.58 95.79,-89.96 102.73,-89.03"/>
<text xml:space="preserve" text-anchor="middle" x="121.32" y="-159.2" font-family="Times,serif" font-size="14.00"> fault </text>
</g>
<!-- FaultActive -->
<g id="node3" class="node">
<title>FaultActive</title>
<ellipse fill="azure" stroke="#00688b" cx="183" cy="-283.75" rx="0.36" ry="0.36"/>
</g>
<!-- LazyFault&#45;&gt;Classifying -->
<g id="edge4" class="edge">
<title>LazyFault&#45;&gt;Classifying</title>
<path fill="none" stroke="red" d="M63.9,-197.56C67.87,-210.52 72.51,-225.65 76.76,-239.53"/>
<polygon fill="red" stroke="red" points="73.35,-240.35 79.62,-248.88 80.04,-238.3 73.35,-240.35"/>
<text xml:space="preserve" text-anchor="middle" x="85.41" y="-218.95" font-family="Times,serif" font-size="14.00"> $&gt; </text>
</g>
<!-- LazyFault&#45;&gt;Fatal -->
<g id="edge5" class="edge">
<title>LazyFault&#45;&gt;Fatal</title>
<path fill="none" stroke="red" d="M63.72,-130.9C67.61,-117.96 72.18,-102.77 76.45,-88.56"/>
<polygon fill="red" stroke="red" points="79.68,-89.97 79.2,-79.38 72.97,-87.95 79.68,-89.97"/>
<text xml:space="preserve" text-anchor="middle" x="84.86" y="-99.45" font-family="Times,serif" font-size="14.00"> $&gt; </text>
</g>
</g>
</svg>
