<?xml version="1.0" encoding="UTF-8" standalone="no"?>
<!DOCTYPE svg PUBLIC "-//W3C//DTD SVG 1.1//EN"
 "http://www.w3.org/Graphics/SVG/1.1/DTD/svg11.dtd">
<!-- Generated by graphviz version 2.43.0 (0)
 -->
<!-- Title: PageFaultHandler Pages: 1 -->
<svg width="490pt" height="324pt"
 viewBox="0.00 0.00 490.00 324.00" xmlns="http://www.w3.org/2000/svg" xmlns:xlink="http://www.w3.org/1999/xlink">
<g id="graph0" class="graph" transform="scale(1 1) rotate(0) translate(4 320)">
<title>PageFaultHandler</title>
<polygon fill="white" stroke="transparent" points="-4,4 -4,-320 486,-320 486,4 -4,4"/>
<g id="clust1" class="cluster">
<title>cluster_FaultActive</title>
<path fill="none" stroke="black" d="M20,-8C20,-8 212,-8 212,-8 218,-8 224,-14 224,-20 224,-20 224,-263 224,-263 224,-269 218,-275 212,-275 212,-275 20,-275 20,-275 14,-275 8,-269 8,-263 8,-263 8,-20 8,-20 8,-14 14,-8 20,-8"/>
<text text-anchor="start" x="75" y="-255.3" font-family="Times,serif" font-size="14.00">FaultActive</text>
<text text-anchor="start" x="75" y="-237.5" font-family="Times,serif" font-size="10.00">unrecoverable()</text>
<text text-anchor="start" x="91.5" y="-226.5" font-family="Times,serif" font-size="10.00"> &#160;&#160;&#160;&#160;&#160;&#160;&#160;&#160;&#160;&#160;&#160;&#160;&#160;&#160;&#160;</text>
<polygon fill="black" stroke="black" points="71,-248.5 71,-248.5 161,-248.5 161,-248.5 71,-248.5"/>
</g>
<!-- Entry -->
<g id="node1" class="node">
<title>Entry</title>
<ellipse fill="black" stroke="#00688b" cx="107" cy="-309" rx="7" ry="7"/>
</g>
<!-- Classifying -->
<g id="node2" class="node">
<title>Classifying</title>
<path fill="azure" stroke="transparent" d="M186,-208C186,-208 28,-208 28,-208 22,-208 16,-202 16,-196 16,-196 16,-155 16,-155 16,-149 22,-143 28,-143 28,-143 186,-143 186,-143 192,-143 198,-149 198,-155 198,-155 198,-196 198,-196 198,-202 192,-208 186,-208"/>
<text text-anchor="start" x="63" y="-189.3" font-family="Times,serif" font-weight="bold" font-size="14.00">Classifying</text>
<text text-anchor="start" x="24" y="-164.5" font-family="Times,serif" font-size="10.00">fault(addr: u64, error_code: u64)</text>
<text text-anchor="start" x="82.5" y="-153.5" font-family="Times,serif" font-size="10.00"> &#160;&#160;&#160;&#160;&#160;&#160;&#160;&#160;&#160;&#160;&#160;&#160;&#160;&#160;&#160;</text>
<polygon fill="#00688b" stroke="#00688b" points="16,-178.5 16,-178.5 198,-178.5 198,-178.5 16,-178.5"/>
<path fill="none" stroke="#00688b" d="M28,-143C28,-143 186,-143 186,-143 192,-143 198,-149 198,-155 198,-155 198,-196 198,-196 198,-202 192,-208 186,-208 186,-208 28,-208 28,-208 22,-208 16,-202 16,-196 16,-196 16,-155 16,-155 16,-149 22,-143 28,-143"/>
</g>
<!-- Entry&#45;&gt;Classifying -->
<g id="edge1" class="edge">
<title>Entry&#45;&gt;Classifying</title>
<path fill="none" stroke="red" d="M107,-301.66C107,-286.79 107,-248.65 107,-218.35"/>
<polygon fill="red" stroke="red" points="110.5,-218.01 107,-208.01 103.5,-218.01 110.5,-218.01"/>
</g>
<!-- LazyFault -->
<g id="node4" class="node">
<title>LazyFault</title>
<path fill="azure" stroke="transparent" d="M118,-81C118,-81 50,-81 50,-81 44,-81 38,-75 38,-69 38,-69 38,-28 38,-28 38,-22 44,-16 50,-16 50,-16 118,-16 118,-16 124,-16 130,-22 130,-28 130,-28 130,-69 130,-69 130,-75 124,-81 118,-81"/>
<text text-anchor="start" x="46" y="-62.3" font-family="Times,serif" font-weight="bold" font-size="14.00">LazyFault</text>
<text text-anchor="start" x="46" y="-37.5" font-family="Times,serif" font-size="10.00">$&gt;()</text>
<text text-anchor="start" x="46" y="-26.5" font-family="Times,serif" font-size="10.00"> &#160;&#160;&#160;&#160;&#160;&#160;&#160;&#160;&#160;&#160;&#160;&#160;&#160;&#160;&#160;</text>
<polygon fill="#00688b" stroke="#00688b" points="38,-51.5 38,-51.5 130,-51.5 130,-51.5 38,-51.5"/>
<path fill="none" stroke="#00688b" d="M50,-16C50,-16 118,-16 118,-16 124,-16 130,-22 130,-28 130,-28 130,-69 130,-69 130,-75 124,-81 118,-81 118,-81 50,-81 50,-81 44,-81 38,-75 38,-69 38,-69 38,-28 38,-28 38,-22 44,-16 50,-16"/>
</g>
<!-- Classifying&#45;&gt;LazyFault -->
<g id="edge2" class="edge">
<title>Classifying&#45;&gt;LazyFault</title>
<path fill="none" stroke="red" d="M101.2,-142.96C98.31,-127.27 94.78,-108.09 91.67,-91.2"/>
<polygon fill="red" stroke="red" points="95.05,-90.23 89.8,-81.03 88.17,-91.5 95.05,-90.23"/>
<text text-anchor="middle" x="119.5" y="-113.8" font-family="Times,serif" font-size="14.00"> fault </text>
</g>
<!-- FaultActive -->
<g id="node3" class="node">
<title>FaultActive</title>
<ellipse fill="azure" stroke="#00688b" cx="216" cy="-175.5" rx="0" ry="0"/>
</g>
<!-- Fatal -->
<g id="node5" class="node">
<title>Fatal</title>
<path fill="azure" stroke="transparent" d="M413,-86.5C413,-86.5 377,-86.5 377,-86.5 371,-86.5 365,-80.5 365,-74.5 365,-74.5 365,-22.5 365,-22.5 365,-16.5 371,-10.5 377,-10.5 377,-10.5 413,-10.5 413,-10.5 419,-10.5 425,-16.5 425,-22.5 425,-22.5 425,-74.5 425,-74.5 425,-80.5 419,-86.5 413,-86.5"/>
<text text-anchor="start" x="375" y="-68.3" font-family="Times,serif" font-weight="bold" font-size="14.00">Fatal</text>
<text text-anchor="start" x="373" y="-43.5" font-family="Times,serif" font-size="10.00">$&gt;()</text>
<text text-anchor="start" x="373" y="-32.5" font-family="Times,serif" font-size="10.00">is_fatal()</text>
<text text-anchor="start" x="376.5" y="-21.5" font-family="Times,serif" font-size="10.00"> &#160;&#160;&#160;&#160;&#160;&#160;&#160;&#160;&#160;&#160;&#160;</text>
<polygon fill="#00688b" stroke="#00688b" points="365,-57.5 365,-57.5 425,-57.5 425,-57.5 365,-57.5"/>
<path fill="none" stroke="#00688b" d="M377,-10.5C377,-10.5 413,-10.5 413,-10.5 419,-10.5 425,-16.5 425,-22.5 425,-22.5 425,-74.5 425,-74.5 425,-80.5 419,-86.5 413,-86.5 413,-86.5 377,-86.5 377,-86.5 371,-86.5 365,-80.5 365,-74.5 365,-74.5 365,-22.5 365,-22.5 365,-16.5 371,-10.5 377,-10.5"/>
</g>
<!-- FaultActive&#45;&gt;Fatal -->
<g id="edge5" class="edge">
<title>FaultActive&#45;&gt;Fatal</title>
<path fill="none" stroke="red" d="M224,-173.86C247.58,-171.58 317.75,-161.88 359,-125 367.79,-117.14 374.63,-106.67 379.86,-96.03"/>
<polygon fill="red" stroke="red" points="383.15,-97.26 384.06,-86.71 376.77,-94.39 383.15,-97.26"/>
<text text-anchor="middle" x="426" y="-113.8" font-family="Times,serif" font-size="14.00"> unrecoverable </text>
</g>
<!-- Killing -->
<g id="node6" class="node">
<title>Killing</title>
<path fill="azure" stroke="transparent" d="M290,-92C290,-92 244,-92 244,-92 238,-92 232,-86 232,-80 232,-80 232,-17 232,-17 232,-11 238,-5 244,-5 244,-5 290,-5 290,-5 296,-5 302,-11 302,-17 302,-17 302,-80 302,-80 302,-86 296,-92 290,-92"/>
<text text-anchor="start" x="240" y="-73.3" font-family="Times,serif" font-weight="bold" font-size="14.00">Killing</text>
<text text-anchor="start" x="240" y="-48.5" font-family="Times,serif" font-size="10.00">$&gt;()</text>
<text text-anchor="start" x="240" y="-37.5" font-family="Times,serif" font-size="10.00">recover()</text>
<text text-anchor="start" x="240" y="-26.5" font-family="Times,serif" font-size="10.00">is_killing()</text>
<text text-anchor="start" x="248" y="-15.5" font-family="Times,serif" font-size="10.00"> &#160;&#160;&#160;&#160;&#160;&#160;&#160;&#160;&#160;&#160;&#160;</text>
<polygon fill="#00688b" stroke="#00688b" points="232,-62.5 232,-62.5 302,-62.5 302,-62.5 232,-62.5"/>
<path fill="none" stroke="#00688b" d="M244,-5C244,-5 290,-5 290,-5 296,-5 302,-11 302,-17 302,-17 302,-80 302,-80 302,-86 296,-92 290,-92 290,-92 244,-92 244,-92 238,-92 232,-86 232,-80 232,-80 232,-17 232,-17 232,-11 238,-5 244,-5"/>
</g>
<!-- FaultActive&#45;&gt;Killing -->
<g id="edge4" class="edge">
<title>FaultActive&#45;&gt;Killing</title>
<path fill="none" stroke="red" d="M224,-157.1C228.27,-147.65 233.55,-135.74 238,-125 241.09,-117.53 244.26,-109.6 247.32,-101.79"/>
<polygon fill="red" stroke="red" points="250.62,-102.96 250.97,-92.38 244.09,-100.43 250.62,-102.96"/>
<text text-anchor="middle" x="299" y="-113.8" font-family="Times,serif" font-size="14.00"> unrecoverable </text>
</g>
<!-- LazyFault&#45;&gt;Classifying -->
<g id="edge3" class="edge">
<title>LazyFault&#45;&gt;Classifying</title>
<path fill="none" stroke="red" d="M64.87,-81.1C59.02,-94.77 55.44,-110.84 61,-125 62.28,-128.27 63.89,-131.44 65.74,-134.51"/>
<polygon fill="red" stroke="red" points="62.92,-136.59 71.48,-142.84 68.68,-132.62 62.92,-136.59"/>
<text text-anchor="middle" x="76.5" y="-113.8" font-family="Times,serif" font-size="14.00"> $&gt; </text>
</g>
<!-- Killing&#45;&gt;Classifying -->
<g id="edge6" class="edge">
<title>Killing&#45;&gt;Classifying</title>
<path fill="none" stroke="red" d="M231.51,-89.62C230.36,-90.45 229.18,-91.25 228,-92 205.2,-106.44 193.02,-95.91 170,-110 158.83,-116.83 148.24,-126.09 139.03,-135.45"/>
<polygon fill="red" stroke="red" points="136.28,-133.26 131.96,-142.94 141.37,-138.07 136.28,-133.26"/>
<text text-anchor="middle" x="202" y="-113.8" font-family="Times,serif" font-size="14.00"> recover </text>
</g>
</g>
</svg>
