<?xml version="1.0" encoding="UTF-8" standalone="no"?>
<!DOCTYPE svg PUBLIC "-//W3C//DTD SVG 1.1//EN"
 "http://www.w3.org/Graphics/SVG/1.1/DTD/svg11.dtd">
<!-- Generated by graphviz version 2.43.0 (0)
 -->
<!-- Title: Parser Pages: 1 -->
<svg width="401pt" height="378pt"
 viewBox="0.00 0.00 400.81 378.00" xmlns="http://www.w3.org/2000/svg" xmlns:xlink="http://www.w3.org/1999/xlink">
<g id="graph0" class="graph" transform="scale(1 1) rotate(0) translate(4 374)">
<title>Parser</title>
<polygon fill="white" stroke="transparent" points="-4,4 -4,-374 396.81,-374 396.81,4 -4,4"/>
<!-- Entry -->
<g id="node1" class="node">
<title>Entry</title>
<ellipse fill="black" stroke="#00688b" cx="173.81" cy="-363" rx="7" ry="7"/>
</g>
<!-- ReadingWord -->
<g id="node2" class="node">
<title>ReadingWord</title>
<path fill="azure" stroke="transparent" d="M222.81,-319C222.81,-319 124.81,-319 124.81,-319 118.81,-319 112.81,-313 112.81,-307 112.81,-307 112.81,-255 112.81,-255 112.81,-249 118.81,-243 124.81,-243 124.81,-243 222.81,-243 222.81,-243 228.81,-243 234.81,-249 234.81,-255 234.81,-255 234.81,-307 234.81,-307 234.81,-313 228.81,-319 222.81,-319"/>
<text text-anchor="start" x="120.81" y="-300.8" font-family="Times,serif" font-weight="bold" font-size="14.00">ReadingWord</text>
<text text-anchor="start" x="120.81" y="-276" font-family="Times,serif" font-size="10.00">consume(c: char)</text>
<text text-anchor="start" x="120.81" y="-265" font-family="Times,serif" font-size="10.00">finalize()</text>
<text text-anchor="start" x="146.31" y="-254" font-family="Times,serif" font-size="10.00"> &#160;&#160;&#160;&#160;&#160;&#160;&#160;&#160;&#160;&#160;&#160;</text>
<polygon fill="#00688b" stroke="#00688b" points="112.81,-290 112.81,-290 234.81,-290 234.81,-290 112.81,-290"/>
<path fill="none" stroke="#00688b" d="M124.81,-243C124.81,-243 222.81,-243 222.81,-243 228.81,-243 234.81,-249 234.81,-255 234.81,-255 234.81,-307 234.81,-307 234.81,-313 228.81,-319 222.81,-319 222.81,-319 124.81,-319 124.81,-319 118.81,-319 112.81,-313 112.81,-307 112.81,-307 112.81,-255 112.81,-255 112.81,-249 118.81,-243 124.81,-243"/>
</g>
<!-- Entry&#45;&gt;ReadingWord -->
<g id="edge1" class="edge">
<title>Entry&#45;&gt;ReadingWord</title>
<path fill="none" stroke="red" d="M173.81,-355.99C173.81,-349.98 173.81,-340.15 173.81,-329.59"/>
<polygon fill="red" stroke="red" points="177.31,-329.33 173.81,-319.33 170.31,-329.33 177.31,-329.33"/>
</g>
<!-- InWord -->
<g id="node3" class="node">
<title>InWord</title>
<path fill="azure" stroke="transparent" d="M125.81,-192C125.81,-192 45.81,-192 45.81,-192 39.81,-192 33.81,-186 33.81,-180 33.81,-180 33.81,-128 33.81,-128 33.81,-122 39.81,-116 45.81,-116 45.81,-116 125.81,-116 125.81,-116 131.81,-116 137.81,-122 137.81,-128 137.81,-128 137.81,-180 137.81,-180 137.81,-186 131.81,-192 125.81,-192"/>
<text text-anchor="start" x="56.81" y="-173.8" font-family="Times,serif" font-weight="bold" font-size="14.00">InWord</text>
<text text-anchor="start" x="41.81" y="-149" font-family="Times,serif" font-size="10.00">consume(c: char)</text>
<text text-anchor="start" x="41.81" y="-138" font-family="Times,serif" font-size="10.00">finalize()</text>
<text text-anchor="start" x="67.31" y="-127" font-family="Times,serif" font-size="10.00"> &#160;&#160;&#160;&#160;&#160;&#160;&#160;&#160;&#160;&#160;&#160;</text>
<polygon fill="#00688b" stroke="#00688b" points="33.81,-163 33.81,-163 137.81,-163 137.81,-163 33.81,-163"/>
<path fill="none" stroke="#00688b" d="M45.81,-116C45.81,-116 125.81,-116 125.81,-116 131.81,-116 137.81,-122 137.81,-128 137.81,-128 137.81,-180 137.81,-180 137.81,-186 131.81,-192 125.81,-192 125.81,-192 45.81,-192 45.81,-192 39.81,-192 33.81,-186 33.81,-180 33.81,-180 33.81,-128 33.81,-128 33.81,-122 39.81,-116 45.81,-116"/>
</g>
<!-- ReadingWord&#45;&gt;InWord -->
<g id="edge3" class="edge">
<title>ReadingWord&#45;&gt;InWord</title>
<path fill="none" stroke="red" d="M112.45,-252.37C102.2,-244.97 92.92,-235.91 86.81,-225 82.92,-218.07 80.96,-210.11 80.18,-202.1"/>
<polygon fill="red" stroke="red" points="83.68,-201.86 79.79,-192 76.68,-202.13 83.68,-201.86"/>
<text text-anchor="middle" x="123.31" y="-213.8" font-family="Times,serif" font-size="14.00"> consume </text>
</g>
<!-- InQuotedString -->
<g id="node4" class="node">
<title>InQuotedString</title>
<path fill="azure" stroke="transparent" d="M380.81,-192C380.81,-192 264.81,-192 264.81,-192 258.81,-192 252.81,-186 252.81,-180 252.81,-180 252.81,-128 252.81,-128 252.81,-122 258.81,-116 264.81,-116 264.81,-116 380.81,-116 380.81,-116 386.81,-116 392.81,-122 392.81,-128 392.81,-128 392.81,-180 392.81,-180 392.81,-186 386.81,-192 380.81,-192"/>
<text text-anchor="start" x="260.81" y="-173.8" font-family="Times,serif" font-weight="bold" font-size="14.00">InQuotedString</text>
<text text-anchor="start" x="260.81" y="-149" font-family="Times,serif" font-size="10.00">consume(c: char)</text>
<text text-anchor="start" x="260.81" y="-138" font-family="Times,serif" font-size="10.00">finalize()</text>
<text text-anchor="start" x="286.31" y="-127" font-family="Times,serif" font-size="10.00"> &#160;&#160;&#160;&#160;&#160;&#160;&#160;&#160;&#160;&#160;&#160;</text>
<polygon fill="#00688b" stroke="#00688b" points="252.81,-163 252.81,-163 392.81,-163 392.81,-163 252.81,-163"/>
<path fill="none" stroke="#00688b" d="M264.81,-116C264.81,-116 380.81,-116 380.81,-116 386.81,-116 392.81,-122 392.81,-128 392.81,-128 392.81,-180 392.81,-180 392.81,-186 386.81,-192 380.81,-192 380.81,-192 264.81,-192 264.81,-192 258.81,-192 252.81,-186 252.81,-180 252.81,-180 252.81,-128 252.81,-128 252.81,-122 258.81,-116 264.81,-116"/>
</g>
<!-- ReadingWord&#45;&gt;InQuotedString -->
<g id="edge2" class="edge">
<title>ReadingWord&#45;&gt;InQuotedString</title>
<path fill="none" stroke="red" d="M235.06,-259.82C254.01,-251.34 273.82,-239.9 288.81,-225 295.63,-218.21 301.3,-209.78 305.91,-201.15"/>
<polygon fill="red" stroke="red" points="309.07,-202.65 310.35,-192.14 302.79,-199.56 309.07,-202.65"/>
<text text-anchor="middle" x="336.31" y="-213.8" font-family="Times,serif" font-size="14.00"> consume </text>
</g>
<!-- Done -->
<g id="node5" class="node">
<title>Done</title>
<path fill="azure" stroke="transparent" d="M162.81,-65C162.81,-65 102.81,-65 102.81,-65 96.81,-65 90.81,-59 90.81,-53 90.81,-53 90.81,-12 90.81,-12 90.81,-6 96.81,0 102.81,0 102.81,0 162.81,0 162.81,0 168.81,0 174.81,-6 174.81,-12 174.81,-12 174.81,-53 174.81,-53 174.81,-59 168.81,-65 162.81,-65"/>
<text text-anchor="start" x="112.31" y="-46.3" font-family="Times,serif" font-weight="bold" font-size="14.00">Done</text>
<text text-anchor="start" x="98.81" y="-21.5" font-family="Times,serif" font-size="10.00">is_complete()</text>
<text text-anchor="start" x="114.31" y="-10.5" font-family="Times,serif" font-size="10.00"> &#160;&#160;&#160;&#160;&#160;&#160;&#160;&#160;&#160;&#160;&#160;</text>
<polygon fill="#00688b" stroke="#00688b" points="90.81,-35.5 90.81,-35.5 174.81,-35.5 174.81,-35.5 90.81,-35.5"/>
<path fill="none" stroke="#00688b" d="M102.81,0C102.81,0 162.81,0 162.81,0 168.81,0 174.81,-6 174.81,-12 174.81,-12 174.81,-53 174.81,-53 174.81,-59 168.81,-65 162.81,-65 162.81,-65 102.81,-65 102.81,-65 96.81,-65 90.81,-59 90.81,-53 90.81,-53 90.81,-12 90.81,-12 90.81,-6 96.81,0 102.81,0"/>
</g>
<!-- ReadingWord&#45;&gt;Done -->
<g id="edge4" class="edge">
<title>ReadingWord&#45;&gt;Done</title>
<path fill="none" stroke="red" d="M175.81,-242.87C176.92,-202.63 175.63,-136.96 159.81,-83 158.95,-80.09 157.91,-77.16 156.74,-74.25"/>
<polygon fill="red" stroke="red" points="159.92,-72.79 152.61,-65.12 153.54,-75.67 159.92,-72.79"/>
<text text-anchor="middle" x="205.31" y="-150.3" font-family="Times,serif" font-size="14.00"> finalize </text>
</g>
<!-- InWord&#45;&gt;ReadingWord -->
<g id="edge5" class="edge">
<title>InWord&#45;&gt;ReadingWord</title>
<path fill="none" stroke="red" d="M33.71,-176.16C10.45,-188.8 -8.95,-206.05 4.81,-225 27.08,-255.68 66.91,-269.58 102.3,-275.74"/>
<polygon fill="red" stroke="red" points="102.22,-279.26 112.64,-277.34 103.29,-272.35 102.22,-279.26"/>
<text text-anchor="middle" x="41.31" y="-213.8" font-family="Times,serif" font-size="14.00"> consume </text>
</g>
<!-- InWord&#45;&gt;Done -->
<g id="edge6" class="edge">
<title>InWord&#45;&gt;Done</title>
<path fill="none" stroke="red" d="M89.75,-115.84C91.68,-104.98 94.55,-93.28 98.81,-83 100.06,-79.97 101.53,-76.93 103.12,-73.94"/>
<polygon fill="red" stroke="red" points="106.24,-75.54 108.26,-65.14 100.2,-72.01 106.24,-75.54"/>
<text text-anchor="middle" x="129.31" y="-86.8" font-family="Times,serif" font-size="14.00"> finalize </text>
</g>
<!-- InQuotedString&#45;&gt;ReadingWord -->
<g id="edge7" class="edge">
<title>InQuotedString&#45;&gt;ReadingWord</title>
<path fill="none" stroke="red" d="M252.7,-185.63C234.92,-194.3 218.85,-203.21 211.81,-210 204.71,-216.84 198.62,-225.29 193.53,-233.93"/>
<polygon fill="red" stroke="red" points="190.33,-232.49 188.58,-242.94 196.46,-235.86 190.33,-232.49"/>
<text text-anchor="middle" x="248.31" y="-213.8" font-family="Times,serif" font-size="14.00"> consume </text>
</g>
<!-- Failed -->
<g id="node6" class="node">
<title>Failed</title>
<path fill="azure" stroke="transparent" d="M352.81,-65C352.81,-65 292.81,-65 292.81,-65 286.81,-65 280.81,-59 280.81,-53 280.81,-53 280.81,-12 280.81,-12 280.81,-6 286.81,0 292.81,0 292.81,0 352.81,0 352.81,0 358.81,0 364.81,-6 364.81,-12 364.81,-12 364.81,-53 364.81,-53 364.81,-59 358.81,-65 352.81,-65"/>
<text text-anchor="start" x="298.81" y="-46.3" font-family="Times,serif" font-weight="bold" font-size="14.00">Failed</text>
<text text-anchor="start" x="288.81" y="-21.5" font-family="Times,serif" font-size="10.00">is_complete()</text>
<text text-anchor="start" x="304.31" y="-10.5" font-family="Times,serif" font-size="10.00"> &#160;&#160;&#160;&#160;&#160;&#160;&#160;&#160;&#160;&#160;&#160;</text>
<polygon fill="#00688b" stroke="#00688b" points="280.81,-35.5 280.81,-35.5 364.81,-35.5 364.81,-35.5 280.81,-35.5"/>
<path fill="none" stroke="#00688b" d="M292.81,0C292.81,0 352.81,0 352.81,0 358.81,0 364.81,-6 364.81,-12 364.81,-12 364.81,-53 364.81,-53 364.81,-59 358.81,-65 352.81,-65 352.81,-65 292.81,-65 292.81,-65 286.81,-65 280.81,-59 280.81,-53 280.81,-53 280.81,-12 280.81,-12 280.81,-6 286.81,0 292.81,0"/>
</g>
<!-- InQuotedString&#45;&gt;Failed -->
<g id="edge8" class="edge">
<title>InQuotedString&#45;&gt;Failed</title>
<path fill="none" stroke="red" d="M322.81,-115.84C322.81,-103.09 322.81,-88.72 322.81,-75.59"/>
<polygon fill="red" stroke="red" points="326.31,-75.39 322.81,-65.39 319.31,-75.39 326.31,-75.39"/>
<text text-anchor="middle" x="353.31" y="-86.8" font-family="Times,serif" font-size="14.00"> finalize </text>
</g>
</g>
</svg>
