<?xml version="1.0" encoding="UTF-8" standalone="no"?>
<!DOCTYPE svg PUBLIC "-//W3C//DTD SVG 1.1//EN"
 "http://www.w3.org/Graphics/SVG/1.1/DTD/svg11.dtd">
<!-- Generated by graphviz version 14.1.5 (20260411.2331)
 -->
<!-- Title: Parser Pages: 1 -->
<svg width="323pt" height="388pt"
 viewBox="0.00 0.00 323.00 388.00" xmlns="http://www.w3.org/2000/svg" xmlns:xlink="http://www.w3.org/1999/xlink">
<g id="graph0" class="graph" transform="scale(1 1) rotate(0) translate(4 383.9)">
<title>Parser</title>
<polygon fill="white" stroke="none" points="-4,4 -4,-383.9 318.67,-383.9 318.67,4 -4,4"/>
<!-- Entry -->
<g id="node1" class="node">
<title>Entry</title>
<ellipse fill="black" stroke="#00688b" cx="140.55" cy="-372.7" rx="7.2" ry="7.2"/>
</g>
<!-- ReadingWord -->
<g id="node2" class="node">
<title>ReadingWord</title>
<path fill="azure" stroke="none" d="M177.42,-328.5C177.42,-328.5 103.67,-328.5 103.67,-328.5 97.67,-328.5 91.67,-322.5 91.67,-316.5 91.67,-316.5 91.67,-262.25 91.67,-262.25 91.67,-256.25 97.67,-250.25 103.67,-250.25 103.67,-250.25 177.42,-250.25 177.42,-250.25 183.42,-250.25 189.42,-256.25 189.42,-262.25 189.42,-262.25 189.42,-316.5 189.42,-316.5 189.42,-322.5 183.42,-328.5 177.42,-328.5"/>
<text xml:space="preserve" text-anchor="start" x="99.67" y="-308.2" font-family="Times,serif" font-weight="bold" font-size="14.00">ReadingWord</text>
<text xml:space="preserve" text-anchor="start" x="99.67" y="-283" font-family="Times,serif" font-size="10.00">consume(c: char)</text>
<text xml:space="preserve" text-anchor="start" x="99.67" y="-271.75" font-family="Times,serif" font-size="10.00">finalize()</text>
<text xml:space="preserve" text-anchor="start" x="120.67" y="-260.5" font-family="Times,serif" font-size="10.00"> &#160;&#160;&#160;&#160;&#160;&#160;&#160;&#160;&#160;&#160;&#160;</text>
<polygon fill="#00688b" stroke="#00688b" points="91.67,-298 91.67,-298 189.42,-298 189.42,-298 91.67,-298"/>
<path fill="none" stroke="#00688b" d="M103.67,-250.25C103.67,-250.25 177.42,-250.25 177.42,-250.25 183.42,-250.25 189.42,-256.25 189.42,-262.25 189.42,-262.25 189.42,-316.5 189.42,-316.5 189.42,-322.5 183.42,-328.5 177.42,-328.5 177.42,-328.5 103.67,-328.5 103.67,-328.5 97.67,-328.5 91.67,-322.5 91.67,-316.5 91.67,-316.5 91.67,-262.25 91.67,-262.25 91.67,-256.25 97.67,-250.25 103.67,-250.25"/>
</g>
<!-- Entry&#45;&gt;ReadingWord -->
<g id="edge1" class="edge">
<title>Entry&#45;&gt;ReadingWord</title>
<path fill="none" stroke="red" d="M140.55,-365.04C140.55,-359.03 140.55,-349.57 140.55,-339.38"/>
<polygon fill="red" stroke="red" points="144.05,-339.69 140.55,-329.69 137.05,-339.69 144.05,-339.69"/>
</g>
<!-- InWord -->
<g id="node3" class="node">
<title>InWord</title>
<path fill="azure" stroke="none" d="M92.05,-197.75C92.05,-197.75 31.05,-197.75 31.05,-197.75 25.05,-197.75 19.05,-191.75 19.05,-185.75 19.05,-185.75 19.05,-131.5 19.05,-131.5 19.05,-125.5 25.05,-119.5 31.05,-119.5 31.05,-119.5 92.05,-119.5 92.05,-119.5 98.05,-119.5 104.05,-125.5 104.05,-131.5 104.05,-131.5 104.05,-185.75 104.05,-185.75 104.05,-191.75 98.05,-197.75 92.05,-197.75"/>
<text xml:space="preserve" text-anchor="start" x="38.3" y="-177.45" font-family="Times,serif" font-weight="bold" font-size="14.00">InWord</text>
<text xml:space="preserve" text-anchor="start" x="27.05" y="-152.25" font-family="Times,serif" font-size="10.00">consume(c: char)</text>
<text xml:space="preserve" text-anchor="start" x="27.05" y="-141" font-family="Times,serif" font-size="10.00">finalize()</text>
<text xml:space="preserve" text-anchor="start" x="48.05" y="-129.75" font-family="Times,serif" font-size="10.00"> &#160;&#160;&#160;&#160;&#160;&#160;&#160;&#160;&#160;&#160;&#160;</text>
<polygon fill="#00688b" stroke="#00688b" points="19.05,-167.25 19.05,-167.25 104.05,-167.25 104.05,-167.25 19.05,-167.25"/>
<path fill="none" stroke="#00688b" d="M31.05,-119.5C31.05,-119.5 92.05,-119.5 92.05,-119.5 98.05,-119.5 104.05,-125.5 104.05,-131.5 104.05,-131.5 104.05,-185.75 104.05,-185.75 104.05,-191.75 98.05,-197.75 92.05,-197.75 92.05,-197.75 31.05,-197.75 31.05,-197.75 25.05,-197.75 19.05,-191.75 19.05,-185.75 19.05,-185.75 19.05,-131.5 19.05,-131.5 19.05,-125.5 25.05,-119.5 31.05,-119.5"/>
</g>
<!-- ReadingWord&#45;&gt;InWord -->
<g id="edge3" class="edge">
<title>ReadingWord&#45;&gt;InWord</title>
<path fill="none" stroke="red" d="M91.96,-257.98C83.5,-250.56 75.69,-241.93 70.3,-232.25 66.3,-225.08 63.77,-216.9 62.21,-208.68"/>
<polygon fill="red" stroke="red" points="65.71,-208.45 60.85,-199.04 58.78,-209.43 65.71,-208.45"/>
<text xml:space="preserve" text-anchor="middle" x="98.42" y="-218.95" font-family="Times,serif" font-size="14.00"> consume </text>
</g>
<!-- InQuotedString -->
<g id="node4" class="node">
<title>InQuotedString</title>
<path fill="azure" stroke="none" d="M302.67,-197.75C302.67,-197.75 218.42,-197.75 218.42,-197.75 212.42,-197.75 206.42,-191.75 206.42,-185.75 206.42,-185.75 206.42,-131.5 206.42,-131.5 206.42,-125.5 212.42,-119.5 218.42,-119.5 218.42,-119.5 302.67,-119.5 302.67,-119.5 308.67,-119.5 314.67,-125.5 314.67,-131.5 314.67,-131.5 314.67,-185.75 314.67,-185.75 314.67,-191.75 308.67,-197.75 302.67,-197.75"/>
<text xml:space="preserve" text-anchor="start" x="214.42" y="-177.45" font-family="Times,serif" font-weight="bold" font-size="14.00">InQuotedString</text>
<text xml:space="preserve" text-anchor="start" x="214.42" y="-152.25" font-family="Times,serif" font-size="10.00">consume(c: char)</text>
<text xml:space="preserve" text-anchor="start" x="214.42" y="-141" font-family="Times,serif" font-size="10.00">finalize()</text>
<text xml:space="preserve" text-anchor="start" x="235.42" y="-129.75" font-family="Times,serif" font-size="10.00"> &#160;&#160;&#160;&#160;&#160;&#160;&#160;&#160;&#160;&#160;&#160;</text>
<polygon fill="#00688b" stroke="#00688b" points="206.42,-167.25 206.42,-167.25 314.67,-167.25 314.67,-167.25 206.42,-167.25"/>
<path fill="none" stroke="#00688b" d="M218.42,-119.5C218.42,-119.5 302.67,-119.5 302.67,-119.5 308.67,-119.5 314.67,-125.5 314.67,-131.5 314.67,-131.5 314.67,-185.75 314.67,-185.75 314.67,-191.75 308.67,-197.75 302.67,-197.75 302.67,-197.75 218.42,-197.75 218.42,-197.75 212.42,-197.75 206.42,-191.75 206.42,-185.75 206.42,-185.75 206.42,-131.5 206.42,-131.5 206.42,-125.5 212.42,-119.5 218.42,-119.5"/>
</g>
<!-- ReadingWord&#45;&gt;InQuotedString -->
<g id="edge2" class="edge">
<title>ReadingWord&#45;&gt;InQuotedString</title>
<path fill="none" stroke="red" d="M189.4,-268.05C205.95,-259.14 223.32,-247.24 235.55,-232.25 241.24,-225.28 245.66,-216.93 249.1,-208.42"/>
<polygon fill="red" stroke="red" points="252.37,-209.67 252.43,-199.07 245.78,-207.32 252.37,-209.67"/>
<text xml:space="preserve" text-anchor="middle" x="273.65" y="-218.95" font-family="Times,serif" font-size="14.00"> consume </text>
</g>
<!-- Done -->
<g id="node5" class="node">
<title>Done</title>
<path fill="azure" stroke="none" d="M129.3,-67C129.3,-67 81.8,-67 81.8,-67 75.8,-67 69.8,-61 69.8,-55 69.8,-55 69.8,-12 69.8,-12 69.8,-6 75.8,0 81.8,0 81.8,0 129.3,0 129.3,0 135.3,0 141.3,-6 141.3,-12 141.3,-12 141.3,-55 141.3,-55 141.3,-61 135.3,-67 129.3,-67"/>
<text xml:space="preserve" text-anchor="start" x="90.55" y="-46.7" font-family="Times,serif" font-weight="bold" font-size="14.00">Done</text>
<text xml:space="preserve" text-anchor="start" x="77.8" y="-21.5" font-family="Times,serif" font-size="10.00">is_complete()</text>
<text xml:space="preserve" text-anchor="start" x="92.05" y="-10.25" font-family="Times,serif" font-size="10.00"> &#160;&#160;&#160;&#160;&#160;&#160;&#160;&#160;&#160;&#160;&#160;</text>
<polygon fill="#00688b" stroke="#00688b" points="69.8,-36.5 69.8,-36.5 141.3,-36.5 141.3,-36.5 69.8,-36.5"/>
<path fill="none" stroke="#00688b" d="M81.8,0C81.8,0 129.3,0 129.3,0 135.3,0 141.3,-6 141.3,-12 141.3,-12 141.3,-55 141.3,-55 141.3,-61 135.3,-67 129.3,-67 129.3,-67 81.8,-67 81.8,-67 75.8,-67 69.8,-61 69.8,-55 69.8,-55 69.8,-12 69.8,-12 69.8,-6 75.8,0 81.8,0"/>
</g>
<!-- ReadingWord&#45;&gt;Done -->
<g id="edge4" class="edge">
<title>ReadingWord&#45;&gt;Done</title>
<path fill="none" stroke="red" d="M141.58,-250.34C141.86,-209.07 139.86,-141.5 126.55,-85 125.97,-82.56 125.29,-80.09 124.54,-77.61"/>
<polygon fill="red" stroke="red" points="127.89,-76.59 121.3,-68.28 121.27,-78.88 127.89,-76.59"/>
<text xml:space="preserve" text-anchor="middle" x="164.59" y="-153.57" font-family="Times,serif" font-size="14.00"> finalize </text>
</g>
<!-- InWord&#45;&gt;ReadingWord -->
<g id="edge5" class="edge">
<title>InWord&#45;&gt;ReadingWord</title>
<path fill="none" stroke="red" d="M19.23,-187.49C4.53,-200.69 -5.98,-216.91 4.3,-232.25 21.45,-257.87 52.64,-271.8 80.86,-279.38"/>
<polygon fill="red" stroke="red" points="79.88,-282.74 90.43,-281.71 81.54,-275.94 79.88,-282.74"/>
<text xml:space="preserve" text-anchor="middle" x="32.42" y="-218.95" font-family="Times,serif" font-size="14.00"> consume </text>
</g>
<!-- InWord&#45;&gt;Done -->
<g id="edge6" class="edge">
<title>InWord&#45;&gt;Done</title>
<path fill="none" stroke="red" d="M68.45,-119.75C71.04,-108.39 74.39,-96.03 78.55,-85 79.54,-82.35 80.65,-79.67 81.84,-77"/>
<polygon fill="red" stroke="red" points="84.91,-78.69 86.04,-68.16 78.59,-75.68 84.91,-78.69"/>
<text xml:space="preserve" text-anchor="middle" x="102.55" y="-88.2" font-family="Times,serif" font-size="14.00"> finalize </text>
</g>
<!-- InQuotedString&#45;&gt;ReadingWord -->
<g id="edge7" class="edge">
<title>InQuotedString&#45;&gt;ReadingWord</title>
<path fill="none" stroke="red" d="M206.51,-188.8C195.26,-196.53 184.15,-205.6 175.3,-215.75 168.96,-223.02 163.51,-231.64 158.93,-240.37"/>
<polygon fill="red" stroke="red" points="155.86,-238.69 154.63,-249.22 162.15,-241.76 155.86,-238.69"/>
<text xml:space="preserve" text-anchor="middle" x="203.42" y="-218.95" font-family="Times,serif" font-size="14.00"> consume </text>
</g>
<!-- Failed -->
<g id="node6" class="node">
<title>Failed</title>
<path fill="azure" stroke="none" d="M284.3,-67C284.3,-67 236.8,-67 236.8,-67 230.8,-67 224.8,-61 224.8,-55 224.8,-55 224.8,-12 224.8,-12 224.8,-6 230.8,0 236.8,0 236.8,0 284.3,0 284.3,0 290.3,0 296.3,-6 296.3,-12 296.3,-12 296.3,-55 296.3,-55 296.3,-61 290.3,-67 284.3,-67"/>
<text xml:space="preserve" text-anchor="start" x="242.55" y="-46.7" font-family="Times,serif" font-weight="bold" font-size="14.00">Failed</text>
<text xml:space="preserve" text-anchor="start" x="232.8" y="-21.5" font-family="Times,serif" font-size="10.00">is_complete()</text>
<text xml:space="preserve" text-anchor="start" x="247.05" y="-10.25" font-family="Times,serif" font-size="10.00"> &#160;&#160;&#160;&#160;&#160;&#160;&#160;&#160;&#160;&#160;&#160;</text>
<polygon fill="#00688b" stroke="#00688b" points="224.8,-36.5 224.8,-36.5 296.3,-36.5 296.3,-36.5 224.8,-36.5"/>
<path fill="none" stroke="#00688b" d="M236.8,0C236.8,0 284.3,0 284.3,0 290.3,0 296.3,-6 296.3,-12 296.3,-12 296.3,-55 296.3,-55 296.3,-61 290.3,-67 284.3,-67 284.3,-67 236.8,-67 236.8,-67 230.8,-67 224.8,-61 224.8,-55 224.8,-55 224.8,-12 224.8,-12 224.8,-6 230.8,0 236.8,0"/>
</g>
<!-- InQuotedString&#45;&gt;Failed -->
<g id="edge8" class="edge">
<title>InQuotedString&#45;&gt;Failed</title>
<path fill="none" stroke="red" d="M260.55,-119.68C260.55,-106.56 260.55,-91.76 260.55,-78.22"/>
<polygon fill="red" stroke="red" points="264.05,-78.23 260.55,-68.23 257.05,-78.23 264.05,-78.23"/>
<text xml:space="preserve" text-anchor="middle" x="284.55" y="-88.2" font-family="Times,serif" font-size="14.00"> finalize </text>
</g>
</g>
</svg>
