<?xml version="1.0" encoding="UTF-8" standalone="no"?>
<!DOCTYPE svg PUBLIC "-//W3C//DTD SVG 1.1//EN"
 "http://www.w3.org/Graphics/SVG/1.1/DTD/svg11.dtd">
<!-- Generated by graphviz version 14.1.5 (20260411.2331)
 -->
<!-- Title: Parser Pages: 1 -->
<svg width="323pt" height="500pt"
 viewBox="0.00 0.00 323.00 500.00" xmlns="http://www.w3.org/2000/svg" xmlns:xlink="http://www.w3.org/1999/xlink">
<g id="graph0" class="graph" transform="scale(1 1) rotate(0) translate(4 496.4)">
<title>Parser</title>
<polygon fill="white" stroke="none" points="-4,4 -4,-496.4 319.12,-496.4 319.12,4 -4,4"/>
<!-- Entry -->
<g id="node1" class="node">
<title>Entry</title>
<ellipse fill="black" stroke="#00688b" cx="141" cy="-485.2" rx="7.2" ry="7.2"/>
</g>
<!-- ReadingWord -->
<g id="node2" class="node">
<title>ReadingWord</title>
<path fill="azure" stroke="none" d="M177.87,-441C177.87,-441 104.12,-441 104.12,-441 98.12,-441 92.12,-435 92.12,-429 92.12,-429 92.12,-341 92.12,-341 92.12,-335 98.12,-329 104.12,-329 104.12,-329 177.87,-329 177.87,-329 183.87,-329 189.87,-335 189.87,-341 189.87,-341 189.87,-429 189.87,-429 189.87,-435 183.87,-441 177.87,-441"/>
<text xml:space="preserve" text-anchor="start" x="100.12" y="-420.7" font-family="Times,serif" font-weight="bold" font-size="14.00">ReadingWord</text>
<text xml:space="preserve" text-anchor="start" x="100.12" y="-395.5" font-family="Times,serif" font-size="10.00">consume(c: char)</text>
<text xml:space="preserve" text-anchor="start" x="100.12" y="-384.25" font-family="Times,serif" font-size="10.00">finalize()</text>
<text xml:space="preserve" text-anchor="start" x="100.12" y="-373" font-family="Times,serif" font-size="10.00">tokens()</text>
<text xml:space="preserve" text-anchor="start" x="100.12" y="-361.75" font-family="Times,serif" font-size="10.00">error()</text>
<text xml:space="preserve" text-anchor="start" x="100.12" y="-350.5" font-family="Times,serif" font-size="10.00">is_complete()</text>
<text xml:space="preserve" text-anchor="start" x="121.12" y="-339.25" font-family="Times,serif" font-size="10.00"> &#160;&#160;&#160;&#160;&#160;&#160;&#160;&#160;&#160;&#160;&#160;</text>
<polygon fill="#00688b" stroke="#00688b" points="92.12,-410.5 92.12,-410.5 189.87,-410.5 189.87,-410.5 92.12,-410.5"/>
<path fill="none" stroke="#00688b" d="M104.12,-329C104.12,-329 177.87,-329 177.87,-329 183.87,-329 189.87,-335 189.87,-341 189.87,-341 189.87,-429 189.87,-429 189.87,-435 183.87,-441 177.87,-441 177.87,-441 104.12,-441 104.12,-441 98.12,-441 92.12,-435 92.12,-429 92.12,-429 92.12,-341 92.12,-341 92.12,-335 98.12,-329 104.12,-329"/>
</g>
<!-- Entry&#45;&gt;ReadingWord -->
<g id="edge1" class="edge">
<title>Entry&#45;&gt;ReadingWord</title>
<path fill="none" stroke="red" d="M141,-477.76C141,-471.87 141,-462.48 141,-451.92"/>
<polygon fill="red" stroke="red" points="144.5,-452.09 141,-442.09 137.5,-452.09 144.5,-452.09"/>
</g>
<!-- InWord -->
<g id="node3" class="node">
<title>InWord</title>
<path fill="azure" stroke="none" d="M92.5,-276.5C92.5,-276.5 31.5,-276.5 31.5,-276.5 25.5,-276.5 19.5,-270.5 19.5,-264.5 19.5,-264.5 19.5,-176.5 19.5,-176.5 19.5,-170.5 25.5,-164.5 31.5,-164.5 31.5,-164.5 92.5,-164.5 92.5,-164.5 98.5,-164.5 104.5,-170.5 104.5,-176.5 104.5,-176.5 104.5,-264.5 104.5,-264.5 104.5,-270.5 98.5,-276.5 92.5,-276.5"/>
<text xml:space="preserve" text-anchor="start" x="38.75" y="-256.2" font-family="Times,serif" font-weight="bold" font-size="14.00">InWord</text>
<text xml:space="preserve" text-anchor="start" x="27.5" y="-231" font-family="Times,serif" font-size="10.00">consume(c: char)</text>
<text xml:space="preserve" text-anchor="start" x="27.5" y="-219.75" font-family="Times,serif" font-size="10.00">finalize()</text>
<text xml:space="preserve" text-anchor="start" x="27.5" y="-208.5" font-family="Times,serif" font-size="10.00">tokens()</text>
<text xml:space="preserve" text-anchor="start" x="27.5" y="-197.25" font-family="Times,serif" font-size="10.00">error()</text>
<text xml:space="preserve" text-anchor="start" x="27.5" y="-186" font-family="Times,serif" font-size="10.00">is_complete()</text>
<text xml:space="preserve" text-anchor="start" x="48.5" y="-174.75" font-family="Times,serif" font-size="10.00"> &#160;&#160;&#160;&#160;&#160;&#160;&#160;&#160;&#160;&#160;&#160;</text>
<polygon fill="#00688b" stroke="#00688b" points="19.5,-246 19.5,-246 104.5,-246 104.5,-246 19.5,-246"/>
<path fill="none" stroke="#00688b" d="M31.5,-164.5C31.5,-164.5 92.5,-164.5 92.5,-164.5 98.5,-164.5 104.5,-170.5 104.5,-176.5 104.5,-176.5 104.5,-264.5 104.5,-264.5 104.5,-270.5 98.5,-276.5 92.5,-276.5 92.5,-276.5 31.5,-276.5 31.5,-276.5 25.5,-276.5 19.5,-270.5 19.5,-264.5 19.5,-264.5 19.5,-176.5 19.5,-176.5 19.5,-170.5 25.5,-164.5 31.5,-164.5"/>
</g>
<!-- ReadingWord&#45;&gt;InWord -->
<g id="edge3" class="edge">
<title>ReadingWord&#45;&gt;InWord</title>
<path fill="none" stroke="red" d="M92.15,-342.5C83.71,-333.01 75.98,-322.34 70.75,-311 67.34,-303.59 64.95,-295.48 63.32,-287.26"/>
<polygon fill="red" stroke="red" points="66.8,-286.86 61.77,-277.53 59.88,-287.96 66.8,-286.86"/>
<text xml:space="preserve" text-anchor="middle" x="98.87" y="-297.7" font-family="Times,serif" font-size="14.00"> consume </text>
</g>
<!-- InQuotedString -->
<g id="node4" class="node">
<title>InQuotedString</title>
<path fill="azure" stroke="none" d="M303.12,-276.5C303.12,-276.5 218.87,-276.5 218.87,-276.5 212.87,-276.5 206.87,-270.5 206.87,-264.5 206.87,-264.5 206.87,-176.5 206.87,-176.5 206.87,-170.5 212.87,-164.5 218.87,-164.5 218.87,-164.5 303.12,-164.5 303.12,-164.5 309.12,-164.5 315.12,-170.5 315.12,-176.5 315.12,-176.5 315.12,-264.5 315.12,-264.5 315.12,-270.5 309.12,-276.5 303.12,-276.5"/>
<text xml:space="preserve" text-anchor="start" x="214.87" y="-256.2" font-family="Times,serif" font-weight="bold" font-size="14.00">InQuotedString</text>
<text xml:space="preserve" text-anchor="start" x="214.87" y="-231" font-family="Times,serif" font-size="10.00">consume(c: char)</text>
<text xml:space="preserve" text-anchor="start" x="214.87" y="-219.75" font-family="Times,serif" font-size="10.00">finalize()</text>
<text xml:space="preserve" text-anchor="start" x="214.87" y="-208.5" font-family="Times,serif" font-size="10.00">tokens()</text>
<text xml:space="preserve" text-anchor="start" x="214.87" y="-197.25" font-family="Times,serif" font-size="10.00">error()</text>
<text xml:space="preserve" text-anchor="start" x="214.87" y="-186" font-family="Times,serif" font-size="10.00">is_complete()</text>
<text xml:space="preserve" text-anchor="start" x="235.87" y="-174.75" font-family="Times,serif" font-size="10.00"> &#160;&#160;&#160;&#160;&#160;&#160;&#160;&#160;&#160;&#160;&#160;</text>
<polygon fill="#00688b" stroke="#00688b" points="206.87,-246 206.87,-246 315.12,-246 315.12,-246 206.87,-246"/>
<path fill="none" stroke="#00688b" d="M218.87,-164.5C218.87,-164.5 303.12,-164.5 303.12,-164.5 309.12,-164.5 315.12,-170.5 315.12,-176.5 315.12,-176.5 315.12,-264.5 315.12,-264.5 315.12,-270.5 309.12,-276.5 303.12,-276.5 303.12,-276.5 218.87,-276.5 218.87,-276.5 212.87,-276.5 206.87,-270.5 206.87,-264.5 206.87,-264.5 206.87,-176.5 206.87,-176.5 206.87,-170.5 212.87,-164.5 218.87,-164.5"/>
</g>
<!-- ReadingWord&#45;&gt;InQuotedString -->
<g id="edge2" class="edge">
<title>ReadingWord&#45;&gt;InQuotedString</title>
<path fill="none" stroke="red" d="M189.39,-355.97C206.29,-344.04 224.01,-328.75 236,-311 240.89,-303.76 244.83,-295.58 248,-287.18"/>
<polygon fill="red" stroke="red" points="251.25,-288.51 251.14,-277.91 244.61,-286.26 251.25,-288.51"/>
<text xml:space="preserve" text-anchor="middle" x="272.64" y="-297.7" font-family="Times,serif" font-size="14.00"> consume </text>
</g>
<!-- Done -->
<g id="node5" class="node">
<title>Done</title>
<path fill="azure" stroke="none" d="M140.5,-112C140.5,-112 79.5,-112 79.5,-112 73.5,-112 67.5,-106 67.5,-100 67.5,-100 67.5,-12 67.5,-12 67.5,-6 73.5,0 79.5,0 79.5,0 140.5,0 140.5,0 146.5,0 152.5,-6 152.5,-12 152.5,-12 152.5,-100 152.5,-100 152.5,-106 146.5,-112 140.5,-112"/>
<text xml:space="preserve" text-anchor="start" x="95" y="-91.7" font-family="Times,serif" font-weight="bold" font-size="14.00">Done</text>
<text xml:space="preserve" text-anchor="start" x="75.5" y="-66.5" font-family="Times,serif" font-size="10.00">consume(c: char)</text>
<text xml:space="preserve" text-anchor="start" x="75.5" y="-55.25" font-family="Times,serif" font-size="10.00">finalize()</text>
<text xml:space="preserve" text-anchor="start" x="75.5" y="-44" font-family="Times,serif" font-size="10.00">tokens()</text>
<text xml:space="preserve" text-anchor="start" x="75.5" y="-32.75" font-family="Times,serif" font-size="10.00">error()</text>
<text xml:space="preserve" text-anchor="start" x="75.5" y="-21.5" font-family="Times,serif" font-size="10.00">is_complete()</text>
<text xml:space="preserve" text-anchor="start" x="96.5" y="-10.25" font-family="Times,serif" font-size="10.00"> &#160;&#160;&#160;&#160;&#160;&#160;&#160;&#160;&#160;&#160;&#160;</text>
<polygon fill="#00688b" stroke="#00688b" points="67.5,-81.5 67.5,-81.5 152.5,-81.5 152.5,-81.5 67.5,-81.5"/>
<path fill="none" stroke="#00688b" d="M79.5,0C79.5,0 140.5,0 140.5,0 146.5,0 152.5,-6 152.5,-12 152.5,-12 152.5,-100 152.5,-100 152.5,-106 146.5,-112 140.5,-112 140.5,-112 79.5,-112 79.5,-112 73.5,-112 67.5,-106 67.5,-100 67.5,-100 67.5,-12 67.5,-12 67.5,-6 73.5,0 79.5,0"/>
</g>
<!-- ReadingWord&#45;&gt;Done -->
<g id="edge4" class="edge">
<title>ReadingWord&#45;&gt;Done</title>
<path fill="none" stroke="red" d="M140.72,-329.23C139.81,-277.6 136.75,-198.2 127,-130 126.67,-127.69 126.3,-125.34 125.9,-122.97"/>
<polygon fill="red" stroke="red" points="129.37,-122.5 124.12,-113.3 122.49,-123.77 129.37,-122.5"/>
<text xml:space="preserve" text-anchor="middle" x="163.14" y="-215.45" font-family="Times,serif" font-size="14.00"> finalize </text>
</g>
<!-- InWord&#45;&gt;ReadingWord -->
<g id="edge5" class="edge">
<title>InWord&#45;&gt;ReadingWord</title>
<path fill="none" stroke="red" d="M19.5,-256.05C4.48,-272.54 -6.24,-292.64 4.75,-311 21.5,-338.97 53.03,-356.83 81.55,-367.88"/>
<polygon fill="red" stroke="red" points="80.27,-371.14 90.87,-371.27 82.67,-364.57 80.27,-371.14"/>
<text xml:space="preserve" text-anchor="middle" x="32.87" y="-297.7" font-family="Times,serif" font-size="14.00"> consume </text>
</g>
<!-- InWord&#45;&gt;Done -->
<g id="edge6" class="edge">
<title>InWord&#45;&gt;Done</title>
<path fill="none" stroke="red" d="M70.5,-164.62C72.82,-153.07 75.65,-141.05 79,-130 79.73,-127.59 80.51,-125.15 81.34,-122.71"/>
<polygon fill="red" stroke="red" points="84.61,-123.96 84.69,-113.37 78.02,-121.6 84.61,-123.96"/>
<text xml:space="preserve" text-anchor="middle" x="103" y="-133.2" font-family="Times,serif" font-size="14.00"> finalize </text>
</g>
<!-- InQuotedString&#45;&gt;ReadingWord -->
<g id="edge7" class="edge">
<title>InQuotedString&#45;&gt;ReadingWord</title>
<path fill="none" stroke="red" d="M207.28,-265.75C191.92,-278.76 178.54,-290.57 175.75,-294.5 170.47,-301.94 165.87,-310.3 161.88,-318.83"/>
<polygon fill="red" stroke="red" points="158.72,-317.33 157.93,-327.89 165.13,-320.12 158.72,-317.33"/>
<text xml:space="preserve" text-anchor="middle" x="203.87" y="-297.7" font-family="Times,serif" font-size="14.00"> consume </text>
</g>
<!-- Failed -->
<g id="node6" class="node">
<title>Failed</title>
<path fill="azure" stroke="none" d="M291.5,-112C291.5,-112 230.5,-112 230.5,-112 224.5,-112 218.5,-106 218.5,-100 218.5,-100 218.5,-12 218.5,-12 218.5,-6 224.5,0 230.5,0 230.5,0 291.5,0 291.5,0 297.5,0 303.5,-6 303.5,-12 303.5,-12 303.5,-100 303.5,-100 303.5,-106 297.5,-112 291.5,-112"/>
<text xml:space="preserve" text-anchor="start" x="243" y="-91.7" font-family="Times,serif" font-weight="bold" font-size="14.00">Failed</text>
<text xml:space="preserve" text-anchor="start" x="226.5" y="-66.5" font-family="Times,serif" font-size="10.00">consume(c: char)</text>
<text xml:space="preserve" text-anchor="start" x="226.5" y="-55.25" font-family="Times,serif" font-size="10.00">finalize()</text>
<text xml:space="preserve" text-anchor="start" x="226.5" y="-44" font-family="Times,serif" font-size="10.00">tokens()</text>
<text xml:space="preserve" text-anchor="start" x="226.5" y="-32.75" font-family="Times,serif" font-size="10.00">error()</text>
<text xml:space="preserve" text-anchor="start" x="226.5" y="-21.5" font-family="Times,serif" font-size="10.00">is_complete()</text>
<text xml:space="preserve" text-anchor="start" x="247.5" y="-10.25" font-family="Times,serif" font-size="10.00"> &#160;&#160;&#160;&#160;&#160;&#160;&#160;&#160;&#160;&#160;&#160;</text>
<polygon fill="#00688b" stroke="#00688b" points="218.5,-81.5 218.5,-81.5 303.5,-81.5 303.5,-81.5 218.5,-81.5"/>
<path fill="none" stroke="#00688b" d="M230.5,0C230.5,0 291.5,0 291.5,0 297.5,0 303.5,-6 303.5,-12 303.5,-12 303.5,-100 303.5,-100 303.5,-106 297.5,-112 291.5,-112 291.5,-112 230.5,-112 230.5,-112 224.5,-112 218.5,-106 218.5,-100 218.5,-100 218.5,-12 218.5,-12 218.5,-6 224.5,0 230.5,0"/>
</g>
<!-- InQuotedString&#45;&gt;Failed -->
<g id="edge8" class="edge">
<title>InQuotedString&#45;&gt;Failed</title>
<path fill="none" stroke="red" d="M261,-164.94C261,-151.61 261,-137.21 261,-123.4"/>
<polygon fill="red" stroke="red" points="264.5,-123.49 261,-113.49 257.5,-123.49 264.5,-123.49"/>
<text xml:space="preserve" text-anchor="middle" x="285" y="-133.2" font-family="Times,serif" font-size="14.00"> finalize </text>
</g>
</g>
</svg>
