<?xml version="1.0" encoding="UTF-8" standalone="no"?>
<!DOCTYPE svg PUBLIC "-//W3C//DTD SVG 1.1//EN"
 "http://www.w3.org/Graphics/SVG/1.1/DTD/svg11.dtd">
<!-- Generated by graphviz version 14.1.5 (20260411.2331)
 -->
<!-- Title: Pipeline Pages: 1 -->
<svg width="689pt" height="388pt"
 viewBox="0.00 0.00 689.00 388.00" xmlns="http://www.w3.org/2000/svg" xmlns:xlink="http://www.w3.org/1999/xlink">
<g id="graph0" class="graph" transform="scale(1 1) rotate(0) translate(4 383.9)">
<title>Pipeline</title>
<polygon fill="white" stroke="none" points="-4,4 -4,-383.9 684.87,-383.9 684.87,4 -4,4"/>
<!-- Entry -->
<g id="node1" class="node">
<title>Entry</title>
<ellipse fill="black" stroke="#00688b" cx="285.59" cy="-372.7" rx="7.2" ry="7.2"/>
</g>
<!-- ReadingCommand -->
<g id="node2" class="node">
<title>ReadingCommand</title>
<path fill="azure" stroke="none" d="M362.96,-328.5C362.96,-328.5 208.21,-328.5 208.21,-328.5 202.21,-328.5 196.21,-322.5 196.21,-316.5 196.21,-316.5 196.21,-262.25 196.21,-262.25 196.21,-256.25 202.21,-250.25 208.21,-250.25 208.21,-250.25 362.96,-250.25 362.96,-250.25 368.96,-250.25 374.96,-256.25 374.96,-262.25 374.96,-262.25 374.96,-316.5 374.96,-316.5 374.96,-322.5 368.96,-328.5 362.96,-328.5"/>
<text xml:space="preserve" text-anchor="start" x="230.46" y="-308.2" font-family="Times,serif" font-weight="bold" font-size="14.00">ReadingCommand</text>
<text xml:space="preserve" text-anchor="start" x="204.21" y="-283" font-family="Times,serif" font-size="10.00">consume(kind: TokenKind, text: String)</text>
<text xml:space="preserve" text-anchor="start" x="204.21" y="-271.75" font-family="Times,serif" font-size="10.00">finalize()</text>
<text xml:space="preserve" text-anchor="start" x="272.09" y="-260.5" font-family="Times,serif" font-size="10.00"> &#160;&#160;&#160;&#160;&#160;&#160;&#160;&#160;&#160;&#160;&#160;</text>
<polygon fill="#00688b" stroke="#00688b" points="196.21,-298 196.21,-298 374.96,-298 374.96,-298 196.21,-298"/>
<path fill="none" stroke="#00688b" d="M208.21,-250.25C208.21,-250.25 362.96,-250.25 362.96,-250.25 368.96,-250.25 374.96,-256.25 374.96,-262.25 374.96,-262.25 374.96,-316.5 374.96,-316.5 374.96,-322.5 368.96,-328.5 362.96,-328.5 362.96,-328.5 208.21,-328.5 208.21,-328.5 202.21,-328.5 196.21,-322.5 196.21,-316.5 196.21,-316.5 196.21,-262.25 196.21,-262.25 196.21,-256.25 202.21,-250.25 208.21,-250.25"/>
</g>
<!-- Entry&#45;&gt;ReadingCommand -->
<g id="edge1" class="edge">
<title>Entry&#45;&gt;ReadingCommand</title>
<path fill="none" stroke="red" d="M285.59,-365.04C285.59,-359.03 285.59,-349.57 285.59,-339.38"/>
<polygon fill="red" stroke="red" points="289.09,-339.69 285.59,-329.69 282.09,-339.69 289.09,-339.69"/>
</g>
<!-- ExpectingTarget -->
<g id="node3" class="node">
<title>ExpectingTarget</title>
<path fill="azure" stroke="none" d="M323.96,-197.75C323.96,-197.75 169.21,-197.75 169.21,-197.75 163.21,-197.75 157.21,-191.75 157.21,-185.75 157.21,-185.75 157.21,-131.5 157.21,-131.5 157.21,-125.5 163.21,-119.5 169.21,-119.5 169.21,-119.5 323.96,-119.5 323.96,-119.5 329.96,-119.5 335.96,-125.5 335.96,-131.5 335.96,-131.5 335.96,-185.75 335.96,-185.75 335.96,-191.75 329.96,-197.75 323.96,-197.75"/>
<text xml:space="preserve" text-anchor="start" x="198.59" y="-177.45" font-family="Times,serif" font-weight="bold" font-size="14.00">ExpectingTarget</text>
<text xml:space="preserve" text-anchor="start" x="165.21" y="-152.25" font-family="Times,serif" font-size="10.00">consume(kind: TokenKind, text: String)</text>
<text xml:space="preserve" text-anchor="start" x="165.21" y="-141" font-family="Times,serif" font-size="10.00">finalize()</text>
<text xml:space="preserve" text-anchor="start" x="233.09" y="-129.75" font-family="Times,serif" font-size="10.00"> &#160;&#160;&#160;&#160;&#160;&#160;&#160;&#160;&#160;&#160;&#160;</text>
<polygon fill="#00688b" stroke="#00688b" points="157.21,-167.25 157.21,-167.25 335.96,-167.25 335.96,-167.25 157.21,-167.25"/>
<path fill="none" stroke="#00688b" d="M169.21,-119.5C169.21,-119.5 323.96,-119.5 323.96,-119.5 329.96,-119.5 335.96,-125.5 335.96,-131.5 335.96,-131.5 335.96,-185.75 335.96,-185.75 335.96,-191.75 329.96,-197.75 323.96,-197.75 323.96,-197.75 169.21,-197.75 169.21,-197.75 163.21,-197.75 157.21,-191.75 157.21,-185.75 157.21,-185.75 157.21,-131.5 157.21,-131.5 157.21,-125.5 163.21,-119.5 169.21,-119.5"/>
</g>
<!-- ReadingCommand&#45;&gt;ExpectingTarget -->
<g id="edge2" class="edge">
<title>ReadingCommand&#45;&gt;ExpectingTarget</title>
<path fill="none" stroke="red" d="M196.47,-276.54C170.22,-268.43 144.29,-254.88 128.34,-232.25 124.11,-226.26 124.42,-221.95 128.34,-215.75 133.53,-207.54 140.29,-200.5 147.94,-194.48"/>
<polygon fill="red" stroke="red" points="149.92,-197.37 156.07,-188.74 145.88,-191.65 149.92,-197.37"/>
<text xml:space="preserve" text-anchor="middle" x="156.46" y="-218.95" font-family="Times,serif" font-size="14.00"> consume </text>
</g>
<!-- ReadingCommand&#45;&gt;ExpectingTarget -->
<g id="edge3" class="edge">
<title>ReadingCommand&#45;&gt;ExpectingTarget</title>
<path fill="none" stroke="red" d="M220.74,-250.48C215.42,-245.02 210.77,-238.94 207.34,-232.25 203.29,-224.36 203.49,-216.04 206.12,-207.96"/>
<polygon fill="red" stroke="red" points="209.28,-209.47 210.21,-198.91 202.9,-206.58 209.28,-209.47"/>
<text xml:space="preserve" text-anchor="middle" x="235.46" y="-218.95" font-family="Times,serif" font-size="14.00"> consume </text>
</g>
<!-- ReadingCommand&#45;&gt;ExpectingTarget -->
<g id="edge4" class="edge">
<title>ReadingCommand&#45;&gt;ExpectingTarget</title>
<path fill="none" stroke="red" d="M274.1,-250.44C270.13,-237.33 265.62,-222.45 261.42,-208.58"/>
<polygon fill="red" stroke="red" points="264.82,-207.74 258.57,-199.18 258.12,-209.77 264.82,-207.74"/>
<text xml:space="preserve" text-anchor="middle" x="296.55" y="-218.95" font-family="Times,serif" font-size="14.00"> consume </text>
</g>
<!-- TrailingAmp -->
<g id="node4" class="node">
<title>TrailingAmp</title>
<path fill="azure" stroke="none" d="M520.96,-197.75C520.96,-197.75 366.21,-197.75 366.21,-197.75 360.21,-197.75 354.21,-191.75 354.21,-185.75 354.21,-185.75 354.21,-131.5 354.21,-131.5 354.21,-125.5 360.21,-119.5 366.21,-119.5 366.21,-119.5 520.96,-119.5 520.96,-119.5 526.96,-119.5 532.96,-125.5 532.96,-131.5 532.96,-131.5 532.96,-185.75 532.96,-185.75 532.96,-191.75 526.96,-197.75 520.96,-197.75"/>
<text xml:space="preserve" text-anchor="start" x="405.34" y="-177.45" font-family="Times,serif" font-weight="bold" font-size="14.00">TrailingAmp</text>
<text xml:space="preserve" text-anchor="start" x="362.21" y="-152.25" font-family="Times,serif" font-size="10.00">consume(kind: TokenKind, text: String)</text>
<text xml:space="preserve" text-anchor="start" x="362.21" y="-141" font-family="Times,serif" font-size="10.00">finalize()</text>
<text xml:space="preserve" text-anchor="start" x="430.09" y="-129.75" font-family="Times,serif" font-size="10.00"> &#160;&#160;&#160;&#160;&#160;&#160;&#160;&#160;&#160;&#160;&#160;</text>
<polygon fill="#00688b" stroke="#00688b" points="354.21,-167.25 354.21,-167.25 532.96,-167.25 532.96,-167.25 354.21,-167.25"/>
<path fill="none" stroke="#00688b" d="M366.21,-119.5C366.21,-119.5 520.96,-119.5 520.96,-119.5 526.96,-119.5 532.96,-125.5 532.96,-131.5 532.96,-131.5 532.96,-185.75 532.96,-185.75 532.96,-191.75 526.96,-197.75 520.96,-197.75 520.96,-197.75 366.21,-197.75 366.21,-197.75 360.21,-197.75 354.21,-191.75 354.21,-185.75 354.21,-185.75 354.21,-131.5 354.21,-131.5 354.21,-125.5 360.21,-119.5 366.21,-119.5"/>
</g>
<!-- ReadingCommand&#45;&gt;TrailingAmp -->
<g id="edge6" class="edge">
<title>ReadingCommand&#45;&gt;TrailingAmp</title>
<path fill="none" stroke="red" d="M367.17,-250.28C375.81,-244.78 384.14,-238.76 391.59,-232.25 400.08,-224.83 407.95,-215.76 414.86,-206.58"/>
<polygon fill="red" stroke="red" points="417.56,-208.81 420.55,-198.65 411.88,-204.73 417.56,-208.81"/>
<text xml:space="preserve" text-anchor="middle" x="435.01" y="-218.95" font-family="Times,serif" font-size="14.00"> consume </text>
</g>
<!-- Done -->
<g id="node5" class="node">
<title>Done</title>
<path fill="azure" stroke="none" d="M592.34,-67C592.34,-67 544.84,-67 544.84,-67 538.84,-67 532.84,-61 532.84,-55 532.84,-55 532.84,-12 532.84,-12 532.84,-6 538.84,0 544.84,0 544.84,0 592.34,0 592.34,0 598.34,0 604.34,-6 604.34,-12 604.34,-12 604.34,-55 604.34,-55 604.34,-61 598.34,-67 592.34,-67"/>
<text xml:space="preserve" text-anchor="start" x="553.59" y="-46.7" font-family="Times,serif" font-weight="bold" font-size="14.00">Done</text>
<text xml:space="preserve" text-anchor="start" x="540.84" y="-21.5" font-family="Times,serif" font-size="10.00">is_complete()</text>
<text xml:space="preserve" text-anchor="start" x="555.09" y="-10.25" font-family="Times,serif" font-size="10.00"> &#160;&#160;&#160;&#160;&#160;&#160;&#160;&#160;&#160;&#160;&#160;</text>
<polygon fill="#00688b" stroke="#00688b" points="532.84,-36.5 532.84,-36.5 604.34,-36.5 604.34,-36.5 532.84,-36.5"/>
<path fill="none" stroke="#00688b" d="M544.84,0C544.84,0 592.34,0 592.34,0 598.34,0 604.34,-6 604.34,-12 604.34,-12 604.34,-55 604.34,-55 604.34,-61 598.34,-67 592.34,-67 592.34,-67 544.84,-67 544.84,-67 538.84,-67 532.84,-61 532.84,-55 532.84,-55 532.84,-12 532.84,-12 532.84,-6 538.84,0 544.84,0"/>
</g>
<!-- ReadingCommand&#45;&gt;Done -->
<g id="edge7" class="edge">
<title>ReadingCommand&#45;&gt;Done</title>
<path fill="none" stroke="red" d="M374.8,-281.19C431.97,-271.54 502.54,-249.2 541.59,-197.75 567.49,-163.62 572.38,-113.85 571.94,-78.25"/>
<polygon fill="red" stroke="red" points="575.44,-78.17 571.66,-68.27 568.44,-78.37 575.44,-78.17"/>
<text xml:space="preserve" text-anchor="middle" x="593.74" y="-153.57" font-family="Times,serif" font-size="14.00"> finalize </text>
</g>
<!-- ReadingCommand&#45;&gt;Done -->
<g id="edge9" class="edge">
<title>ReadingCommand&#45;&gt;Done</title>
<path fill="none" stroke="red" d="M374.85,-277.25C464.54,-263.94 593.43,-238.23 621.59,-197.75 647.17,-160.97 624.42,-111.08 601.28,-76.16"/>
<polygon fill="red" stroke="red" points="604.2,-74.23 595.65,-67.98 598.44,-78.2 604.2,-74.23"/>
<text xml:space="preserve" text-anchor="middle" x="656.87" y="-153.57" font-family="Times,serif" font-size="14.00"> finalize </text>
</g>
<!-- Error -->
<g id="node6" class="node">
<title>Error</title>
<path fill="azure" stroke="none" d="M191.34,-67C191.34,-67 143.84,-67 143.84,-67 137.84,-67 131.84,-61 131.84,-55 131.84,-55 131.84,-12 131.84,-12 131.84,-6 137.84,0 143.84,0 143.84,0 191.34,0 191.34,0 197.34,0 203.34,-6 203.34,-12 203.34,-12 203.34,-55 203.34,-55 203.34,-61 197.34,-67 191.34,-67"/>
<text xml:space="preserve" text-anchor="start" x="150.71" y="-46.7" font-family="Times,serif" font-weight="bold" font-size="14.00">Error</text>
<text xml:space="preserve" text-anchor="start" x="139.84" y="-21.5" font-family="Times,serif" font-size="10.00">is_complete()</text>
<text xml:space="preserve" text-anchor="start" x="154.09" y="-10.25" font-family="Times,serif" font-size="10.00"> &#160;&#160;&#160;&#160;&#160;&#160;&#160;&#160;&#160;&#160;&#160;</text>
<polygon fill="#00688b" stroke="#00688b" points="131.84,-36.5 131.84,-36.5 203.34,-36.5 203.34,-36.5 131.84,-36.5"/>
<path fill="none" stroke="#00688b" d="M143.84,0C143.84,0 191.34,0 191.34,0 197.34,0 203.34,-6 203.34,-12 203.34,-12 203.34,-55 203.34,-55 203.34,-61 197.34,-67 191.34,-67 191.34,-67 143.84,-67 143.84,-67 137.84,-67 131.84,-61 131.84,-55 131.84,-55 131.84,-12 131.84,-12 131.84,-6 137.84,0 143.84,0"/>
</g>
<!-- ReadingCommand&#45;&gt;Error -->
<g id="edge5" class="edge">
<title>ReadingCommand&#45;&gt;Error</title>
<path fill="none" stroke="red" d="M196.57,-271.67C124.8,-256.01 32.74,-230.19 13.34,-197.75 -4.51,-167.9 -4.35,-149.44 13.34,-119.5 36.45,-80.37 84.72,-58.03 121.14,-46.17"/>
<polygon fill="red" stroke="red" points="122.05,-49.55 130.58,-43.26 119.99,-42.86 122.05,-49.55"/>
<text xml:space="preserve" text-anchor="middle" x="41.46" y="-153.57" font-family="Times,serif" font-size="14.00"> consume </text>
</g>
<!-- ReadingCommand&#45;&gt;Error -->
<g id="edge8" class="edge">
<title>ReadingCommand&#45;&gt;Error</title>
<path fill="none" stroke="red" d="M196.27,-274.41C154.94,-262.31 112.37,-239.76 100.59,-197.75 91.2,-164.26 89.19,-152.36 100.59,-119.5 106.09,-103.63 115.92,-88.48 126.38,-75.49"/>
<polygon fill="red" stroke="red" points="128.92,-77.9 132.7,-68.01 123.57,-73.39 128.92,-77.9"/>
<text xml:space="preserve" text-anchor="middle" x="124.59" y="-153.57" font-family="Times,serif" font-size="14.00"> finalize </text>
</g>
<!-- ExpectingTarget&#45;&gt;ReadingCommand -->
<g id="edge10" class="edge">
<title>ExpectingTarget&#45;&gt;ReadingCommand</title>
<path fill="none" stroke="red" d="M314.87,-197.53C320.3,-202.97 325.05,-209.04 328.59,-215.75 332.77,-223.68 332.5,-231.97 329.66,-239.99"/>
<polygon fill="red" stroke="red" points="326.52,-238.45 325.27,-248.97 332.81,-241.52 326.52,-238.45"/>
<text xml:space="preserve" text-anchor="middle" x="359.88" y="-218.95" font-family="Times,serif" font-size="14.00"> consume </text>
</g>
<!-- ExpectingTarget&#45;&gt;Error -->
<g id="edge11" class="edge">
<title>ExpectingTarget&#45;&gt;Error</title>
<path fill="none" stroke="red" d="M181.82,-119.69C176.48,-114.23 171.81,-108.17 168.34,-101.5 164.65,-94.42 162.89,-86.31 162.28,-78.25"/>
<polygon fill="red" stroke="red" points="165.78,-78.44 162.14,-68.49 158.78,-78.54 165.78,-78.44"/>
<text xml:space="preserve" text-anchor="middle" x="196.46" y="-88.2" font-family="Times,serif" font-size="14.00"> consume </text>
</g>
<!-- ExpectingTarget&#45;&gt;Error -->
<g id="edge12" class="edge">
<title>ExpectingTarget&#45;&gt;Error</title>
<path fill="none" stroke="red" d="M239.34,-119.71C236.01,-107.99 231.27,-95.43 224.59,-85 220.84,-79.16 216.24,-73.59 211.28,-68.42"/>
<polygon fill="red" stroke="red" points="213.98,-66.16 204.36,-61.71 209.1,-71.19 213.98,-66.16"/>
<text xml:space="preserve" text-anchor="middle" x="256.26" y="-88.2" font-family="Times,serif" font-size="14.00"> finalize </text>
</g>
<!-- TrailingAmp&#45;&gt;Done -->
<g id="edge14" class="edge">
<title>TrailingAmp&#45;&gt;Done</title>
<path fill="none" stroke="red" d="M474.45,-119.56C484.32,-108.07 495.56,-95.69 506.59,-85 512.08,-79.68 518.08,-74.31 524.11,-69.15"/>
<polygon fill="red" stroke="red" points="526.33,-71.86 531.76,-62.76 521.84,-66.49 526.33,-71.86"/>
<text xml:space="preserve" text-anchor="middle" x="530.59" y="-88.2" font-family="Times,serif" font-size="14.00"> finalize </text>
</g>
<!-- TrailingAmp&#45;&gt;Error -->
<g id="edge13" class="edge">
<title>TrailingAmp&#45;&gt;Error</title>
<path fill="none" stroke="red" d="M361.21,-119.6C336.61,-108.35 309.55,-96.09 284.59,-85 261.32,-74.67 235.34,-63.42 213.77,-54.17"/>
<polygon fill="red" stroke="red" points="215.22,-50.98 204.65,-50.26 212.46,-57.42 215.22,-50.98"/>
<text xml:space="preserve" text-anchor="middle" x="347.67" y="-88.2" font-family="Times,serif" font-size="14.00"> consume </text>
</g>
</g>
</svg>
