<?xml version="1.0" encoding="UTF-8" standalone="no"?>
<!DOCTYPE svg PUBLIC "-//W3C//DTD SVG 1.1//EN"
 "http://www.w3.org/Graphics/SVG/1.1/DTD/svg11.dtd">
<!-- Generated by graphviz version 2.43.0 (0)
 -->
<!-- Title: Pipe Pages: 1 -->
<svg width="230pt" height="306pt"
 viewBox="0.00 0.00 229.50 306.00" xmlns="http://www.w3.org/2000/svg" xmlns:xlink="http://www.w3.org/1999/xlink">
<g id="graph0" class="graph" transform="scale(1 1) rotate(0) translate(4 302)">
<title>Pipe</title>
<polygon fill="white" stroke="transparent" points="-4,4 -4,-302 225.5,-302 225.5,4 -4,4"/>
<!-- Entry -->
<g id="node1" class="node">
<title>Entry</title>
<ellipse fill="black" stroke="#00688b" cx="65.5" cy="-291" rx="7" ry="7"/>
</g>
<!-- Writable -->
<g id="node2" class="node">
<title>Writable</title>
<path fill="azure" stroke="transparent" d="M104,-247C104,-247 27,-247 27,-247 21,-247 15,-241 15,-235 15,-235 15,-150 15,-150 15,-144 21,-138 27,-138 27,-138 104,-138 104,-138 110,-138 116,-144 116,-150 116,-150 116,-235 116,-235 116,-241 110,-247 104,-247"/>
<text text-anchor="start" x="32" y="-228.3" font-family="Times,serif" font-weight="bold" font-size="14.00">Writable</text>
<text text-anchor="start" x="23.5" y="-203.5" font-family="Times,serif" font-size="10.00">reader_opened()</text>
<text text-anchor="start" x="23.5" y="-192.5" font-family="Times,serif" font-size="10.00">writer_opened()</text>
<text text-anchor="start" x="23.5" y="-181.5" font-family="Times,serif" font-size="10.00">reader_closed()</text>
<text text-anchor="start" x="23.5" y="-170.5" font-family="Times,serif" font-size="10.00">writer_closed()</text>
<text text-anchor="start" x="23.5" y="-159.5" font-family="Times,serif" font-size="10.00">has_writers()</text>
<text text-anchor="start" x="47.5" y="-148.5" font-family="Times,serif" font-size="10.00"> &#160;&#160;&#160;&#160;&#160;&#160;&#160;&#160;&#160;&#160;&#160;</text>
<polygon fill="#00688b" stroke="#00688b" points="15.5,-217.5 15.5,-217.5 116.5,-217.5 116.5,-217.5 15.5,-217.5"/>
<path fill="none" stroke="#00688b" d="M27,-138C27,-138 104,-138 104,-138 110,-138 116,-144 116,-150 116,-150 116,-235 116,-235 116,-241 110,-247 104,-247 104,-247 27,-247 27,-247 21,-247 15,-241 15,-235 15,-235 15,-150 15,-150 15,-144 21,-138 27,-138"/>
</g>
<!-- Entry&#45;&gt;Writable -->
<g id="edge1" class="edge">
<title>Entry&#45;&gt;Writable</title>
<path fill="none" stroke="red" d="M65.5,-283.96C65.5,-278.02 65.5,-268.27 65.5,-257.33"/>
<polygon fill="red" stroke="red" points="69,-257.01 65.5,-247.01 62,-257.01 69,-257.01"/>
</g>
<!-- Drained -->
<g id="node3" class="node">
<title>Drained</title>
<path fill="azure" stroke="transparent" d="M104,-87C104,-87 27,-87 27,-87 21,-87 15,-81 15,-75 15,-75 15,-12 15,-12 15,-6 21,0 27,0 27,0 104,0 104,0 110,0 116,-6 116,-12 116,-12 116,-75 116,-75 116,-81 110,-87 104,-87"/>
<text text-anchor="start" x="34" y="-68.3" font-family="Times,serif" font-weight="bold" font-size="14.00">Drained</text>
<text text-anchor="start" x="23.5" y="-43.5" font-family="Times,serif" font-size="10.00">reader_opened()</text>
<text text-anchor="start" x="23.5" y="-32.5" font-family="Times,serif" font-size="10.00">reader_closed()</text>
<text text-anchor="start" x="23.5" y="-21.5" font-family="Times,serif" font-size="10.00">writer_opened()</text>
<text text-anchor="start" x="47.5" y="-10.5" font-family="Times,serif" font-size="10.00"> &#160;&#160;&#160;&#160;&#160;&#160;&#160;&#160;&#160;&#160;&#160;</text>
<polygon fill="#00688b" stroke="#00688b" points="15.5,-57.5 15.5,-57.5 116.5,-57.5 116.5,-57.5 15.5,-57.5"/>
<path fill="none" stroke="#00688b" d="M27,0C27,0 104,0 104,0 110,0 116,-6 116,-12 116,-12 116,-75 116,-75 116,-81 110,-87 104,-87 104,-87 27,-87 27,-87 21,-87 15,-81 15,-75 15,-75 15,-12 15,-12 15,-6 21,0 27,0"/>
</g>
<!-- Writable&#45;&gt;Drained -->
<g id="edge2" class="edge">
<title>Writable&#45;&gt;Drained</title>
<path fill="none" stroke="red" d="M14.74,-142.57C9.78,-135.48 5.49,-127.89 2.5,-120 -1.97,-108.15 1.44,-96.84 8.53,-86.73"/>
<polygon fill="red" stroke="red" points="11.32,-88.86 14.94,-78.9 5.9,-84.43 11.32,-88.86"/>
<text text-anchor="middle" x="55.5" y="-108.8" font-family="Times,serif" font-size="14.00"> writer_closed </text>
</g>
<!-- Drained&#45;&gt;Writable -->
<g id="edge3" class="edge">
<title>Drained&#45;&gt;Writable</title>
<path fill="none" stroke="red" d="M100.42,-87.05C103.71,-92.81 106.54,-98.86 108.5,-105 110.91,-112.55 110.97,-120.27 109.45,-127.83"/>
<polygon fill="red" stroke="red" points="106.03,-127.07 106.62,-137.64 112.76,-129 106.03,-127.07"/>
<text text-anchor="middle" x="165.5" y="-108.8" font-family="Times,serif" font-size="14.00"> writer_opened </text>
</g>
</g>
</svg>
