<?xml version="1.0" encoding="UTF-8" standalone="no"?>
<!DOCTYPE svg PUBLIC "-//W3C//DTD SVG 1.1//EN"
 "http://www.w3.org/Graphics/SVG/1.1/DTD/svg11.dtd">
<!-- Generated by graphviz version 14.1.5 (20260411.2331)
 -->
<!-- Title: Pipe Pages: 1 -->
<svg width="178pt" height="313pt"
 viewBox="0.00 0.00 178.00 313.00" xmlns="http://www.w3.org/2000/svg" xmlns:xlink="http://www.w3.org/1999/xlink">
<g id="graph0" class="graph" transform="scale(1 1) rotate(0) translate(4 309.4)">
<title>Pipe</title>
<polygon fill="white" stroke="none" points="-4,4 -4,-309.4 173.94,-309.4 173.94,4 -4,4"/>
<!-- Entry -->
<g id="node1" class="node">
<title>Entry</title>
<ellipse fill="black" stroke="#00688b" cx="52.99" cy="-298.2" rx="7.2" ry="7.2"/>
</g>
<!-- Writable -->
<g id="node2" class="node">
<title>Writable</title>
<path fill="azure" stroke="none" d="M81.99,-254C81.99,-254 23.99,-254 23.99,-254 17.99,-254 11.99,-248 11.99,-242 11.99,-242 11.99,-154 11.99,-154 11.99,-148 17.99,-142 23.99,-142 23.99,-142 81.99,-142 81.99,-142 87.99,-142 93.99,-148 93.99,-154 93.99,-154 93.99,-242 93.99,-242 93.99,-248 87.99,-254 81.99,-254"/>
<text xml:space="preserve" text-anchor="start" x="27.12" y="-233.7" font-family="Times,serif" font-weight="bold" font-size="14.00">Writable</text>
<text xml:space="preserve" text-anchor="start" x="19.99" y="-208.5" font-family="Times,serif" font-size="10.00">reader_opened()</text>
<text xml:space="preserve" text-anchor="start" x="19.99" y="-197.25" font-family="Times,serif" font-size="10.00">writer_opened()</text>
<text xml:space="preserve" text-anchor="start" x="19.99" y="-186" font-family="Times,serif" font-size="10.00">reader_closed()</text>
<text xml:space="preserve" text-anchor="start" x="19.99" y="-174.75" font-family="Times,serif" font-size="10.00">writer_closed()</text>
<text xml:space="preserve" text-anchor="start" x="19.99" y="-163.5" font-family="Times,serif" font-size="10.00">has_writers()</text>
<text xml:space="preserve" text-anchor="start" x="39.49" y="-152.25" font-family="Times,serif" font-size="10.00"> &#160;&#160;&#160;&#160;&#160;&#160;&#160;&#160;&#160;&#160;&#160;</text>
<polygon fill="#00688b" stroke="#00688b" points="11.99,-223.5 11.99,-223.5 93.99,-223.5 93.99,-223.5 11.99,-223.5"/>
<path fill="none" stroke="#00688b" d="M23.99,-142C23.99,-142 81.99,-142 81.99,-142 87.99,-142 93.99,-148 93.99,-154 93.99,-154 93.99,-242 93.99,-242 93.99,-248 87.99,-254 81.99,-254 81.99,-254 23.99,-254 23.99,-254 17.99,-254 11.99,-248 11.99,-242 11.99,-242 11.99,-154 11.99,-154 11.99,-148 17.99,-142 23.99,-142"/>
</g>
<!-- Entry&#45;&gt;Writable -->
<g id="edge1" class="edge">
<title>Entry&#45;&gt;Writable</title>
<path fill="none" stroke="red" d="M52.99,-290.76C52.99,-284.87 52.99,-275.48 52.99,-264.92"/>
<polygon fill="red" stroke="red" points="56.49,-265.09 52.99,-255.09 49.49,-265.09 56.49,-265.09"/>
</g>
<!-- Drained -->
<g id="node3" class="node">
<title>Drained</title>
<path fill="azure" stroke="none" d="M81.99,-89.5C81.99,-89.5 23.99,-89.5 23.99,-89.5 17.99,-89.5 11.99,-83.5 11.99,-77.5 11.99,-77.5 11.99,-12 11.99,-12 11.99,-6 17.99,0 23.99,0 23.99,0 81.99,0 81.99,0 87.99,0 93.99,-6 93.99,-12 93.99,-12 93.99,-77.5 93.99,-77.5 93.99,-83.5 87.99,-89.5 81.99,-89.5"/>
<text xml:space="preserve" text-anchor="start" x="29.37" y="-69.2" font-family="Times,serif" font-weight="bold" font-size="14.00">Drained</text>
<text xml:space="preserve" text-anchor="start" x="19.99" y="-44" font-family="Times,serif" font-size="10.00">reader_opened()</text>
<text xml:space="preserve" text-anchor="start" x="19.99" y="-32.75" font-family="Times,serif" font-size="10.00">reader_closed()</text>
<text xml:space="preserve" text-anchor="start" x="19.99" y="-21.5" font-family="Times,serif" font-size="10.00">writer_opened()</text>
<text xml:space="preserve" text-anchor="start" x="39.49" y="-10.25" font-family="Times,serif" font-size="10.00"> &#160;&#160;&#160;&#160;&#160;&#160;&#160;&#160;&#160;&#160;&#160;</text>
<polygon fill="#00688b" stroke="#00688b" points="11.99,-59 11.99,-59 93.99,-59 93.99,-59 11.99,-59"/>
<path fill="none" stroke="#00688b" d="M23.99,0C23.99,0 81.99,0 81.99,0 87.99,0 93.99,-6 93.99,-12 93.99,-12 93.99,-77.5 93.99,-77.5 93.99,-83.5 87.99,-89.5 81.99,-89.5 81.99,-89.5 23.99,-89.5 23.99,-89.5 17.99,-89.5 11.99,-83.5 11.99,-77.5 11.99,-77.5 11.99,-12 11.99,-12 11.99,-6 17.99,0 23.99,0"/>
</g>
<!-- Writable&#45;&gt;Drained -->
<g id="edge2" class="edge">
<title>Writable&#45;&gt;Drained</title>
<path fill="none" stroke="red" d="M12.05,-146.42C7.94,-139.23 4.41,-131.67 1.99,-124 -1.44,-113.1 0.89,-102.26 6.06,-92.29"/>
<polygon fill="red" stroke="red" points="8.96,-94.25 11.27,-83.91 3.02,-90.55 8.96,-94.25"/>
<text xml:space="preserve" text-anchor="middle" x="42.49" y="-110.7" font-family="Times,serif" font-size="14.00"> writer_closed </text>
</g>
<!-- Drained&#45;&gt;Writable -->
<g id="edge3" class="edge">
<title>Drained&#45;&gt;Writable</title>
<path fill="none" stroke="red" d="M77.13,-89.39C79.54,-95.33 81.6,-101.46 82.99,-107.5 84.77,-115.21 84.8,-123.19 83.7,-131.07"/>
<polygon fill="red" stroke="red" points="80.32,-130.12 81.74,-140.62 87.18,-131.52 80.32,-130.12"/>
<text xml:space="preserve" text-anchor="middle" x="127.19" y="-110.7" font-family="Times,serif" font-size="14.00"> writer_opened </text>
</g>
</g>
</svg>
