<?xml version="1.0" encoding="UTF-8" standalone="no"?>
<!DOCTYPE svg PUBLIC "-//W3C//DTD SVG 1.1//EN"
 "http://www.w3.org/Graphics/SVG/1.1/DTD/svg11.dtd">
<!-- Generated by graphviz version 14.1.5 (20260411.2331)
 -->
<!-- Title: Process Pages: 1 -->
<svg width="246pt" height="611pt"
 viewBox="0.00 0.00 246.00 611.00" xmlns="http://www.w3.org/2000/svg" xmlns:xlink="http://www.w3.org/1999/xlink">
<g id="graph0" class="graph" transform="scale(1 1) rotate(0) translate(4 607.4)">
<title>Process</title>
<polygon fill="white" stroke="none" points="-4,4 -4,-607.4 241.88,-607.4 241.88,4 -4,4"/>
<g id="clust1" class="cluster">
<title>cluster_Alive</title>
<path fill="none" stroke="black" d="M20,-122.75C20,-122.75 142,-122.75 142,-122.75 148,-122.75 154,-128.75 154,-134.75 154,-134.75 154,-550 154,-550 154,-556 148,-562 142,-562 142,-562 20,-562 20,-562 14,-562 8,-556 8,-550 8,-550 8,-134.75 8,-134.75 8,-128.75 14,-122.75 20,-122.75"/>
<text xml:space="preserve" text-anchor="start" x="66" y="-541.25" font-family="Times,serif" font-size="14.00">Alive</text>
<text xml:space="preserve" text-anchor="start" x="63" y="-522.5" font-family="Times,serif" font-size="10.00">kill()</text>
<text xml:space="preserve" text-anchor="start" x="63" y="-511.25" font-family="Times,serif" font-size="10.00"> &#160;&#160;&#160;&#160;&#160;&#160;&#160;&#160;&#160;&#160;&#160;&#160;&#160;&#160;&#160;</text>
<polygon fill="black" stroke="black" points="59,-534.5 59,-534.5 103,-534.5 103,-534.5 59,-534.5"/>
</g>
<!-- Entry -->
<g id="node1" class="node">
<title>Entry</title>
<ellipse fill="black" stroke="#00688b" cx="72" cy="-596.2" rx="7.2" ry="7.2"/>
</g>
<!-- Created -->
<g id="node2" class="node">
<title>Created</title>
<path fill="azure" stroke="none" d="M95.75,-493C95.75,-493 48.25,-493 48.25,-493 42.25,-493 36.25,-487 36.25,-481 36.25,-481 36.25,-438 36.25,-438 36.25,-432 42.25,-426 48.25,-426 48.25,-426 95.75,-426 95.75,-426 101.75,-426 107.75,-432 107.75,-438 107.75,-438 107.75,-481 107.75,-481 107.75,-487 101.75,-493 95.75,-493"/>
<text xml:space="preserve" text-anchor="start" x="48.75" y="-472.7" font-family="Times,serif" font-weight="bold" font-size="14.00">Created</text>
<text xml:space="preserve" text-anchor="start" x="44.25" y="-447.5" font-family="Times,serif" font-size="10.00">make_ready()</text>
<text xml:space="preserve" text-anchor="start" x="54" y="-436.25" font-family="Times,serif" font-size="10.00"> &#160;&#160;&#160;&#160;&#160;&#160;&#160;&#160;&#160;&#160;&#160;&#160;&#160;&#160;&#160;</text>
<polygon fill="#00688b" stroke="#00688b" points="36.25,-462.5 36.25,-462.5 107.75,-462.5 107.75,-462.5 36.25,-462.5"/>
<path fill="none" stroke="#00688b" d="M48.25,-426C48.25,-426 95.75,-426 95.75,-426 101.75,-426 107.75,-432 107.75,-438 107.75,-438 107.75,-481 107.75,-481 107.75,-487 101.75,-493 95.75,-493 95.75,-493 48.25,-493 48.25,-493 42.25,-493 36.25,-487 36.25,-481 36.25,-481 36.25,-438 36.25,-438 36.25,-432 42.25,-426 48.25,-426"/>
</g>
<!-- Entry&#45;&gt;Created -->
<g id="edge1" class="edge">
<title>Entry&#45;&gt;Created</title>
<path fill="none" stroke="red" d="M72,-588.7C72,-573.6 72,-535.08 72,-504.18"/>
<polygon fill="red" stroke="red" points="75.5,-504.29 72,-494.29 68.5,-504.29 75.5,-504.29"/>
</g>
<!-- Ready -->
<g id="node4" class="node">
<title>Ready</title>
<path fill="azure" stroke="none" d="M110,-373.5C110,-373.5 58,-373.5 58,-373.5 52,-373.5 46,-367.5 46,-361.5 46,-361.5 46,-284.75 46,-284.75 46,-278.75 52,-272.75 58,-272.75 58,-272.75 110,-272.75 110,-272.75 116,-272.75 122,-278.75 122,-284.75 122,-284.75 122,-361.5 122,-361.5 122,-367.5 116,-373.5 110,-373.5"/>
<text xml:space="preserve" text-anchor="start" x="65.62" y="-353.2" font-family="Times,serif" font-weight="bold" font-size="14.00">Ready</text>
<text xml:space="preserve" text-anchor="start" x="54" y="-328" font-family="Times,serif" font-size="10.00">block()</text>
<text xml:space="preserve" text-anchor="start" x="54" y="-316.75" font-family="Times,serif" font-size="10.00">exit(code: i32)</text>
<text xml:space="preserve" text-anchor="start" x="54" y="-305.5" font-family="Times,serif" font-size="10.00">is_ready()</text>
<text xml:space="preserve" text-anchor="start" x="54" y="-294.25" font-family="Times,serif" font-size="10.00">state_name()</text>
<text xml:space="preserve" text-anchor="start" x="66" y="-283" font-family="Times,serif" font-size="10.00"> &#160;&#160;&#160;&#160;&#160;&#160;&#160;&#160;&#160;&#160;&#160;&#160;&#160;&#160;&#160;</text>
<polygon fill="#00688b" stroke="#00688b" points="46,-343 46,-343 122,-343 122,-343 46,-343"/>
<path fill="none" stroke="#00688b" d="M58,-272.75C58,-272.75 110,-272.75 110,-272.75 116,-272.75 122,-278.75 122,-284.75 122,-284.75 122,-361.5 122,-361.5 122,-367.5 116,-373.5 110,-373.5 110,-373.5 58,-373.5 58,-373.5 52,-373.5 46,-367.5 46,-361.5 46,-361.5 46,-284.75 46,-284.75 46,-278.75 52,-272.75 58,-272.75"/>
</g>
<!-- Created&#45;&gt;Ready -->
<g id="edge2" class="edge">
<title>Created&#45;&gt;Ready</title>
<path fill="none" stroke="red" d="M74.87,-426.31C75.99,-413.82 77.31,-399.08 78.59,-384.74"/>
<polygon fill="red" stroke="red" points="82.06,-385.16 79.47,-374.88 75.09,-384.53 82.06,-385.16"/>
<text xml:space="preserve" text-anchor="middle" x="114.77" y="-394.7" font-family="Times,serif" font-size="14.00"> make_ready </text>
</g>
<!-- Alive -->
<g id="node3" class="node">
<title>Alive</title>
<ellipse fill="azure" stroke="#00688b" cx="146" cy="-459.5" rx="0.36" ry="0.36"/>
</g>
<!-- Zombie -->
<g id="node6" class="node">
<title>Zombie</title>
<path fill="azure" stroke="none" d="M225.88,-220.25C225.88,-220.25 182.12,-220.25 182.12,-220.25 176.12,-220.25 170.12,-214.25 170.12,-208.25 170.12,-208.25 170.12,-142.75 170.12,-142.75 170.12,-136.75 176.12,-130.75 182.12,-130.75 182.12,-130.75 225.88,-130.75 225.88,-130.75 231.88,-130.75 237.88,-136.75 237.88,-142.75 237.88,-142.75 237.88,-208.25 237.88,-208.25 237.88,-214.25 231.88,-220.25 225.88,-220.25"/>
<text xml:space="preserve" text-anchor="start" x="181.5" y="-199.95" font-family="Times,serif" font-weight="bold" font-size="14.00">Zombie</text>
<text xml:space="preserve" text-anchor="start" x="178.12" y="-174.75" font-family="Times,serif" font-size="10.00">reap()</text>
<text xml:space="preserve" text-anchor="start" x="178.12" y="-163.5" font-family="Times,serif" font-size="10.00">is_zombie()</text>
<text xml:space="preserve" text-anchor="start" x="178.12" y="-152.25" font-family="Times,serif" font-size="10.00">state_name()</text>
<text xml:space="preserve" text-anchor="start" x="190.5" y="-141" font-family="Times,serif" font-size="10.00"> &#160;&#160;&#160;&#160;&#160;&#160;&#160;&#160;&#160;&#160;&#160;</text>
<polygon fill="#00688b" stroke="#00688b" points="170.12,-189.75 170.12,-189.75 237.88,-189.75 237.88,-189.75 170.12,-189.75"/>
<path fill="none" stroke="#00688b" d="M182.12,-130.75C182.12,-130.75 225.88,-130.75 225.88,-130.75 231.88,-130.75 237.88,-136.75 237.88,-142.75 237.88,-142.75 237.88,-208.25 237.88,-208.25 237.88,-214.25 231.88,-220.25 225.88,-220.25 225.88,-220.25 182.12,-220.25 182.12,-220.25 176.12,-220.25 170.12,-214.25 170.12,-208.25 170.12,-208.25 170.12,-142.75 170.12,-142.75 170.12,-136.75 176.12,-130.75 182.12,-130.75"/>
</g>
<!-- Alive&#45;&gt;Zombie -->
<g id="edge6" class="edge">
<title>Alive&#45;&gt;Zombie</title>
<path fill="none" stroke="red" d="M154,-419.62C164.07,-370.67 181.42,-286.3 192.8,-230.95"/>
<polygon fill="red" stroke="red" points="196.17,-231.93 194.76,-221.43 189.32,-230.52 196.17,-231.93"/>
<text xml:space="preserve" text-anchor="middle" x="196.33" y="-318.07" font-family="Times,serif" font-size="14.00"> kill </text>
</g>
<!-- Blocked -->
<g id="node5" class="node">
<title>Blocked</title>
<path fill="azure" stroke="none" d="M93.88,-220.25C93.88,-220.25 50.12,-220.25 50.12,-220.25 44.12,-220.25 38.12,-214.25 38.12,-208.25 38.12,-208.25 38.12,-142.75 38.12,-142.75 38.12,-136.75 44.12,-130.75 50.12,-130.75 50.12,-130.75 93.88,-130.75 93.88,-130.75 99.88,-130.75 105.88,-136.75 105.88,-142.75 105.88,-142.75 105.88,-208.25 105.88,-208.25 105.88,-214.25 99.88,-220.25 93.88,-220.25"/>
<text xml:space="preserve" text-anchor="start" x="48.75" y="-199.95" font-family="Times,serif" font-weight="bold" font-size="14.00">Blocked</text>
<text xml:space="preserve" text-anchor="start" x="46.12" y="-174.75" font-family="Times,serif" font-size="10.00">unblock()</text>
<text xml:space="preserve" text-anchor="start" x="46.12" y="-163.5" font-family="Times,serif" font-size="10.00">is_blocked()</text>
<text xml:space="preserve" text-anchor="start" x="46.12" y="-152.25" font-family="Times,serif" font-size="10.00">state_name()</text>
<text xml:space="preserve" text-anchor="start" x="54" y="-141" font-family="Times,serif" font-size="10.00"> &#160;&#160;&#160;&#160;&#160;&#160;&#160;&#160;&#160;&#160;&#160;&#160;&#160;&#160;&#160;</text>
<polygon fill="#00688b" stroke="#00688b" points="38.12,-189.75 38.12,-189.75 105.88,-189.75 105.88,-189.75 38.12,-189.75"/>
<path fill="none" stroke="#00688b" d="M50.12,-130.75C50.12,-130.75 93.88,-130.75 93.88,-130.75 99.88,-130.75 105.88,-136.75 105.88,-142.75 105.88,-142.75 105.88,-208.25 105.88,-208.25 105.88,-214.25 99.88,-220.25 93.88,-220.25 93.88,-220.25 50.12,-220.25 50.12,-220.25 44.12,-220.25 38.12,-214.25 38.12,-208.25 38.12,-208.25 38.12,-142.75 38.12,-142.75 38.12,-136.75 44.12,-130.75 50.12,-130.75"/>
</g>
<!-- Ready&#45;&gt;Blocked -->
<g id="edge3" class="edge">
<title>Ready&#45;&gt;Blocked</title>
<path fill="none" stroke="red" d="M46.21,-277.46C41.82,-270.25 38.02,-262.57 35.5,-254.75 32.94,-246.81 33.22,-238.61 35.22,-230.66"/>
<polygon fill="red" stroke="red" points="38.45,-232.03 38.43,-221.44 31.84,-229.73 38.45,-232.03"/>
<text xml:space="preserve" text-anchor="middle" x="54.25" y="-241.45" font-family="Times,serif" font-size="14.00"> block </text>
</g>
<!-- Ready&#45;&gt;Zombie -->
<g id="edge4" class="edge">
<title>Ready&#45;&gt;Zombie</title>
<path fill="none" stroke="red" d="M121.97,-276.05C135.06,-260.16 149.78,-242.3 163.1,-226.14"/>
<polygon fill="red" stroke="red" points="165.71,-228.47 169.37,-218.52 160.31,-224.01 165.71,-228.47"/>
<text xml:space="preserve" text-anchor="middle" x="165.06" y="-241.45" font-family="Times,serif" font-size="14.00"> exit </text>
</g>
<!-- Blocked&#45;&gt;Ready -->
<g id="edge5" class="edge">
<title>Blocked&#45;&gt;Ready</title>
<path fill="none" stroke="red" d="M75.58,-219.9C76.66,-233.03 77.87,-247.71 79.02,-261.74"/>
<polygon fill="red" stroke="red" points="75.5,-261.64 79.81,-271.31 82.48,-261.06 75.5,-261.64"/>
<text xml:space="preserve" text-anchor="middle" x="103.86" y="-241.45" font-family="Times,serif" font-size="14.00"> unblock </text>
</g>
<!-- Reaped -->
<g id="node7" class="node">
<title>Reaped</title>
<path fill="azure" stroke="none" d="M225.88,-78.25C225.88,-78.25 182.12,-78.25 182.12,-78.25 176.12,-78.25 170.12,-72.25 170.12,-66.25 170.12,-66.25 170.12,-12 170.12,-12 170.12,-6 176.12,0 182.12,0 182.12,0 225.88,0 225.88,0 231.88,0 237.88,-6 237.88,-12 237.88,-12 237.88,-66.25 237.88,-66.25 237.88,-72.25 231.88,-78.25 225.88,-78.25"/>
<text xml:space="preserve" text-anchor="start" x="182.25" y="-57.95" font-family="Times,serif" font-weight="bold" font-size="14.00">Reaped</text>
<text xml:space="preserve" text-anchor="start" x="178.12" y="-32.75" font-family="Times,serif" font-size="10.00">is_reaped()</text>
<text xml:space="preserve" text-anchor="start" x="178.12" y="-21.5" font-family="Times,serif" font-size="10.00">state_name()</text>
<text xml:space="preserve" text-anchor="start" x="190.5" y="-10.25" font-family="Times,serif" font-size="10.00"> &#160;&#160;&#160;&#160;&#160;&#160;&#160;&#160;&#160;&#160;&#160;</text>
<polygon fill="#00688b" stroke="#00688b" points="170.12,-47.75 170.12,-47.75 237.88,-47.75 237.88,-47.75 170.12,-47.75"/>
<path fill="none" stroke="#00688b" d="M182.12,0C182.12,0 225.88,0 225.88,0 231.88,0 237.88,-6 237.88,-12 237.88,-12 237.88,-66.25 237.88,-66.25 237.88,-72.25 231.88,-78.25 225.88,-78.25 225.88,-78.25 182.12,-78.25 182.12,-78.25 176.12,-78.25 170.12,-72.25 170.12,-66.25 170.12,-66.25 170.12,-12 170.12,-12 170.12,-6 176.12,0 182.12,0"/>
</g>
<!-- Zombie&#45;&gt;Reaped -->
<g id="edge7" class="edge">
<title>Zombie&#45;&gt;Reaped</title>
<path fill="none" stroke="red" d="M204,-130.87C204,-117.58 204,-102.88 204,-89.25"/>
<polygon fill="red" stroke="red" points="207.5,-89.62 204,-79.62 200.5,-89.62 207.5,-89.62"/>
<text xml:space="preserve" text-anchor="middle" x="219.38" y="-99.45" font-family="Times,serif" font-size="14.00"> reap </text>
</g>
</g>
</svg>
