<?xml version="1.0" encoding="UTF-8" standalone="no"?>
<!DOCTYPE svg PUBLIC "-//W3C//DTD SVG 1.1//EN"
 "http://www.w3.org/Graphics/SVG/1.1/DTD/svg11.dtd">
<!-- Generated by graphviz version 2.43.0 (0)
 -->
<!-- Title: ProcessTable Pages: 1 -->
<svg width="207pt" height="379pt"
 viewBox="0.00 0.00 207.00 379.00" xmlns="http://www.w3.org/2000/svg" xmlns:xlink="http://www.w3.org/1999/xlink">
<g id="graph0" class="graph" transform="scale(1 1) rotate(0) translate(4 375)">
<title>ProcessTable</title>
<polygon fill="white" stroke="transparent" points="-4,4 -4,-375 203,-375 203,4 -4,4"/>
<g id="clust1" class="cluster">
<title>cluster_Managing</title>
<path fill="none" stroke="black" d="M20,-8C20,-8 179,-8 179,-8 185,-8 191,-14 191,-20 191,-20 191,-318 191,-318 191,-324 185,-330 179,-330 179,-330 20,-330 20,-330 14,-330 8,-324 8,-318 8,-318 8,-20 8,-20 8,-14 14,-8 20,-8"/>
<text text-anchor="start" x="64" y="-310.8" font-family="Times,serif" font-size="14.00">Managing</text>
<text text-anchor="start" x="29.5" y="-293" font-family="Times,serif" font-size="10.00">block_pid(pid: u32)</text>
<text text-anchor="start" x="29.5" y="-282" font-family="Times,serif" font-size="10.00">unblock_pid(pid: u32)</text>
<text text-anchor="start" x="29.5" y="-271" font-family="Times,serif" font-size="10.00">exit_pid(pid: u32, code: i32)</text>
<text text-anchor="start" x="29.5" y="-260" font-family="Times,serif" font-size="10.00">kill_pid(pid: u32)</text>
<text text-anchor="start" x="75.5" y="-249" font-family="Times,serif" font-size="10.00"> &#160;&#160;&#160;&#160;&#160;&#160;&#160;&#160;&#160;&#160;&#160;&#160;&#160;&#160;&#160;</text>
<polygon fill="black" stroke="black" points="25.5,-304 25.5,-304 174.5,-304 174.5,-304 25.5,-304"/>
</g>
<!-- Entry -->
<g id="node1" class="node">
<title>Entry</title>
<ellipse fill="black" stroke="#00688b" cx="107" cy="-364" rx="7" ry="7"/>
</g>
<!-- HasCapacity -->
<g id="node2" class="node">
<title>HasCapacity</title>
<path fill="azure" stroke="transparent" d="M152.5,-230C152.5,-230 61.5,-230 61.5,-230 55.5,-230 49.5,-224 49.5,-218 49.5,-218 49.5,-166 49.5,-166 49.5,-160 55.5,-154 61.5,-154 61.5,-154 152.5,-154 152.5,-154 158.5,-154 164.5,-160 164.5,-166 164.5,-166 164.5,-218 164.5,-218 164.5,-224 158.5,-230 152.5,-230"/>
<text text-anchor="start" x="58" y="-211.8" font-family="Times,serif" font-weight="bold" font-size="14.00">HasCapacity</text>
<text text-anchor="start" x="58" y="-187" font-family="Times,serif" font-size="10.00">spawn()</text>
<text text-anchor="start" x="58" y="-176" font-family="Times,serif" font-size="10.00">reap_pid(pid: u32)</text>
<text text-anchor="start" x="80.5" y="-165" font-family="Times,serif" font-size="10.00"> &#160;&#160;&#160;&#160;&#160;&#160;&#160;&#160;&#160;&#160;&#160;&#160;&#160;&#160;&#160;</text>
<polygon fill="#00688b" stroke="#00688b" points="50,-201 50,-201 165,-201 165,-201 50,-201"/>
<path fill="none" stroke="#00688b" d="M61.5,-154C61.5,-154 152.5,-154 152.5,-154 158.5,-154 164.5,-160 164.5,-166 164.5,-166 164.5,-218 164.5,-218 164.5,-224 158.5,-230 152.5,-230 152.5,-230 61.5,-230 61.5,-230 55.5,-230 49.5,-224 49.5,-218 49.5,-218 49.5,-166 49.5,-166 49.5,-160 55.5,-154 61.5,-154"/>
</g>
<!-- Entry&#45;&gt;HasCapacity -->
<g id="edge1" class="edge">
<title>Entry&#45;&gt;HasCapacity</title>
<path fill="none" stroke="red" d="M107,-356.95C107,-338.52 107,-281.8 107,-240.22"/>
<polygon fill="red" stroke="red" points="110.5,-240.01 107,-230.01 103.5,-240.01 110.5,-240.01"/>
</g>
<!-- Full -->
<g id="node4" class="node">
<title>Full</title>
<path fill="azure" stroke="transparent" d="M134,-103C134,-103 48,-103 48,-103 42,-103 36,-97 36,-91 36,-91 36,-28 36,-28 36,-22 42,-16 48,-16 48,-16 134,-16 134,-16 140,-16 146,-22 146,-28 146,-28 146,-91 146,-91 146,-97 140,-103 134,-103"/>
<text text-anchor="start" x="75.5" y="-84.3" font-family="Times,serif" font-weight="bold" font-size="14.00">Full</text>
<text text-anchor="start" x="44" y="-59.5" font-family="Times,serif" font-size="10.00">spawn()</text>
<text text-anchor="start" x="44" y="-48.5" font-family="Times,serif" font-size="10.00">reap_pid(pid: u32)</text>
<text text-anchor="start" x="44" y="-37.5" font-family="Times,serif" font-size="10.00">is_full()</text>
<text text-anchor="start" x="66.5" y="-26.5" font-family="Times,serif" font-size="10.00"> &#160;&#160;&#160;&#160;&#160;&#160;&#160;&#160;&#160;&#160;&#160;&#160;&#160;&#160;&#160;</text>
<polygon fill="#00688b" stroke="#00688b" points="36,-73.5 36,-73.5 146,-73.5 146,-73.5 36,-73.5"/>
<path fill="none" stroke="#00688b" d="M48,-16C48,-16 134,-16 134,-16 140,-16 146,-22 146,-28 146,-28 146,-91 146,-91 146,-97 140,-103 134,-103 134,-103 48,-103 48,-103 42,-103 36,-97 36,-91 36,-91 36,-28 36,-28 36,-22 42,-16 48,-16"/>
</g>
<!-- HasCapacity&#45;&gt;Full -->
<g id="edge2" class="edge">
<title>HasCapacity&#45;&gt;Full</title>
<path fill="none" stroke="red" d="M49.27,-155.51C43.55,-149.7 38.56,-143.19 35,-136 31,-127.9 31.34,-119.78 34.34,-112.02"/>
<polygon fill="red" stroke="red" points="37.47,-113.58 38.98,-103.1 31.26,-110.35 37.47,-113.58"/>
<text text-anchor="middle" x="62.5" y="-124.8" font-family="Times,serif" font-size="14.00"> spawn </text>
</g>
<!-- Managing -->
<g id="node3" class="node">
<title>Managing</title>
<ellipse fill="azure" stroke="#00688b" cx="26" cy="-192" rx="0" ry="0"/>
</g>
<!-- Full&#45;&gt;HasCapacity -->
<g id="edge3" class="edge">
<title>Full&#45;&gt;HasCapacity</title>
<path fill="none" stroke="red" d="M96.23,-103.17C97.83,-116.23 99.6,-130.68 101.24,-144.01"/>
<polygon fill="red" stroke="red" points="97.77,-144.45 102.46,-153.95 104.71,-143.6 97.77,-144.45"/>
<text text-anchor="middle" x="134.5" y="-124.8" font-family="Times,serif" font-size="14.00"> reap_pid </text>
</g>
</g>
</svg>
