<?xml version="1.0" encoding="UTF-8" standalone="no"?>
<!DOCTYPE svg PUBLIC "-//W3C//DTD SVG 1.1//EN"
 "http://www.w3.org/Graphics/SVG/1.1/DTD/svg11.dtd">
<!-- Generated by graphviz version 2.43.0 (0)
 -->
<!-- Title: Process Pages: 1 -->
<svg width="285pt" height="595pt"
 viewBox="0.00 0.00 285.00 595.00" xmlns="http://www.w3.org/2000/svg" xmlns:xlink="http://www.w3.org/1999/xlink">
<g id="graph0" class="graph" transform="scale(1 1) rotate(0) translate(4 591)">
<title>Process</title>
<polygon fill="white" stroke="transparent" points="-4,4 -4,-591 281,-591 281,4 -4,4"/>
<g id="clust1" class="cluster">
<title>cluster_Alive</title>
<path fill="none" stroke="black" d="M20,-119C20,-119 165,-119 165,-119 171,-119 177,-125 177,-131 177,-131 177,-534 177,-534 177,-540 171,-546 165,-546 165,-546 20,-546 20,-546 14,-546 8,-540 8,-534 8,-534 8,-131 8,-131 8,-125 14,-119 20,-119"/>
<text text-anchor="start" x="75" y="-526.3" font-family="Times,serif" font-size="14.00">Alive</text>
<text text-anchor="start" x="68.5" y="-508.5" font-family="Times,serif" font-size="10.00">kill()</text>
<text text-anchor="start" x="68.5" y="-497.5" font-family="Times,serif" font-size="10.00"> &#160;&#160;&#160;&#160;&#160;&#160;&#160;&#160;&#160;&#160;&#160;&#160;&#160;&#160;&#160;</text>
<polygon fill="black" stroke="black" points="64.5,-519.5 64.5,-519.5 121.5,-519.5 121.5,-519.5 64.5,-519.5"/>
</g>
<!-- Entry -->
<g id="node1" class="node">
<title>Entry</title>
<ellipse fill="black" stroke="#00688b" cx="74" cy="-580" rx="7" ry="7"/>
</g>
<!-- Created -->
<g id="node2" class="node">
<title>Created</title>
<path fill="azure" stroke="transparent" d="M105,-479C105,-479 43,-479 43,-479 37,-479 31,-473 31,-467 31,-467 31,-426 31,-426 31,-420 37,-414 43,-414 43,-414 105,-414 105,-414 111,-414 117,-420 117,-426 117,-426 117,-467 117,-467 117,-473 111,-479 105,-479"/>
<text text-anchor="start" x="42.5" y="-460.3" font-family="Times,serif" font-weight="bold" font-size="14.00">Created</text>
<text text-anchor="start" x="39" y="-435.5" font-family="Times,serif" font-size="10.00">make_ready()</text>
<text text-anchor="start" x="49.5" y="-424.5" font-family="Times,serif" font-size="10.00"> &#160;&#160;&#160;&#160;&#160;&#160;&#160;&#160;&#160;&#160;&#160;&#160;&#160;&#160;&#160;</text>
<polygon fill="#00688b" stroke="#00688b" points="31,-449.5 31,-449.5 117,-449.5 117,-449.5 31,-449.5"/>
<path fill="none" stroke="#00688b" d="M43,-414C43,-414 105,-414 105,-414 111,-414 117,-420 117,-426 117,-426 117,-467 117,-467 117,-473 111,-479 105,-479 105,-479 43,-479 43,-479 37,-479 31,-473 31,-467 31,-467 31,-426 31,-426 31,-420 37,-414 43,-414"/>
</g>
<!-- Entry&#45;&gt;Created -->
<g id="edge1" class="edge">
<title>Entry&#45;&gt;Created</title>
<path fill="none" stroke="red" d="M74,-572.66C74,-557.79 74,-519.65 74,-489.35"/>
<polygon fill="red" stroke="red" points="77.5,-489.01 74,-479.01 70.5,-489.01 77.5,-489.01"/>
</g>
<!-- Ready -->
<g id="node4" class="node">
<title>Ready</title>
<path fill="azure" stroke="transparent" d="M121,-363C121,-363 57,-363 57,-363 51,-363 45,-357 45,-351 45,-351 45,-277 45,-277 45,-271 51,-265 57,-265 57,-265 121,-265 121,-265 127,-265 133,-271 133,-277 133,-277 133,-351 133,-351 133,-357 127,-363 121,-363"/>
<text text-anchor="start" x="64.5" y="-344.8" font-family="Times,serif" font-weight="bold" font-size="14.00">Ready</text>
<text text-anchor="start" x="53" y="-320" font-family="Times,serif" font-size="10.00">block()</text>
<text text-anchor="start" x="53" y="-309" font-family="Times,serif" font-size="10.00">exit(code: i32)</text>
<text text-anchor="start" x="53" y="-298" font-family="Times,serif" font-size="10.00">is_ready()</text>
<text text-anchor="start" x="53" y="-287" font-family="Times,serif" font-size="10.00">state_name()</text>
<text text-anchor="start" x="64.5" y="-276" font-family="Times,serif" font-size="10.00"> &#160;&#160;&#160;&#160;&#160;&#160;&#160;&#160;&#160;&#160;&#160;&#160;&#160;&#160;&#160;</text>
<polygon fill="#00688b" stroke="#00688b" points="45,-334 45,-334 133,-334 133,-334 45,-334"/>
<path fill="none" stroke="#00688b" d="M57,-265C57,-265 121,-265 121,-265 127,-265 133,-271 133,-277 133,-277 133,-351 133,-351 133,-357 127,-363 121,-363 121,-363 57,-363 57,-363 51,-363 45,-357 45,-351 45,-351 45,-277 45,-277 45,-271 51,-265 57,-265"/>
</g>
<!-- Created&#45;&gt;Ready -->
<g id="edge2" class="edge">
<title>Created&#45;&gt;Ready</title>
<path fill="none" stroke="red" d="M77.63,-413.91C79.04,-401.65 80.7,-387.2 82.31,-373.2"/>
<polygon fill="red" stroke="red" points="85.8,-373.45 83.47,-363.11 78.85,-372.65 85.8,-373.45"/>
<text text-anchor="middle" x="129.5" y="-384.8" font-family="Times,serif" font-size="14.00"> make_ready </text>
</g>
<!-- Alive -->
<g id="node3" class="node">
<title>Alive</title>
<ellipse fill="azure" stroke="#00688b" cx="169" cy="-446.5" rx="0" ry="0"/>
</g>
<!-- Zombie -->
<g id="node6" class="node">
<title>Zombie</title>
<path fill="azure" stroke="transparent" d="M264.5,-214C264.5,-214 205.5,-214 205.5,-214 199.5,-214 193.5,-208 193.5,-202 193.5,-202 193.5,-139 193.5,-139 193.5,-133 199.5,-127 205.5,-127 205.5,-127 264.5,-127 264.5,-127 270.5,-127 276.5,-133 276.5,-139 276.5,-139 276.5,-202 276.5,-202 276.5,-208 270.5,-214 264.5,-214"/>
<text text-anchor="start" x="206" y="-195.3" font-family="Times,serif" font-weight="bold" font-size="14.00">Zombie</text>
<text text-anchor="start" x="202" y="-170.5" font-family="Times,serif" font-size="10.00">reap()</text>
<text text-anchor="start" x="202" y="-159.5" font-family="Times,serif" font-size="10.00">is_zombie()</text>
<text text-anchor="start" x="202" y="-148.5" font-family="Times,serif" font-size="10.00">state_name()</text>
<text text-anchor="start" x="217" y="-137.5" font-family="Times,serif" font-size="10.00"> &#160;&#160;&#160;&#160;&#160;&#160;&#160;&#160;&#160;&#160;&#160;</text>
<polygon fill="#00688b" stroke="#00688b" points="194,-184.5 194,-184.5 277,-184.5 277,-184.5 194,-184.5"/>
<path fill="none" stroke="#00688b" d="M205.5,-127C205.5,-127 264.5,-127 264.5,-127 270.5,-127 276.5,-133 276.5,-139 276.5,-139 276.5,-202 276.5,-202 276.5,-208 270.5,-214 264.5,-214 264.5,-214 205.5,-214 205.5,-214 199.5,-214 193.5,-208 193.5,-202 193.5,-202 193.5,-139 193.5,-139 193.5,-133 199.5,-127 205.5,-127"/>
</g>
<!-- Alive&#45;&gt;Zombie -->
<g id="edge6" class="edge">
<title>Alive&#45;&gt;Zombie</title>
<path fill="none" stroke="red" d="M177,-412.55C178.33,-407.02 179.71,-401.35 181,-396 195.22,-337.13 211.46,-269.56 222.39,-224.06"/>
<polygon fill="red" stroke="red" points="225.84,-224.67 224.77,-214.13 219.03,-223.03 225.84,-224.67"/>
<text text-anchor="middle" x="226.5" y="-310.3" font-family="Times,serif" font-size="14.00"> kill </text>
</g>
<!-- Blocked -->
<g id="node5" class="node">
<title>Blocked</title>
<path fill="azure" stroke="transparent" d="M110.5,-214C110.5,-214 51.5,-214 51.5,-214 45.5,-214 39.5,-208 39.5,-202 39.5,-202 39.5,-139 39.5,-139 39.5,-133 45.5,-127 51.5,-127 51.5,-127 110.5,-127 110.5,-127 116.5,-127 122.5,-133 122.5,-139 122.5,-139 122.5,-202 122.5,-202 122.5,-208 116.5,-214 110.5,-214"/>
<text text-anchor="start" x="49.5" y="-195.3" font-family="Times,serif" font-weight="bold" font-size="14.00">Blocked</text>
<text text-anchor="start" x="48" y="-170.5" font-family="Times,serif" font-size="10.00">unblock()</text>
<text text-anchor="start" x="48" y="-159.5" font-family="Times,serif" font-size="10.00">is_blocked()</text>
<text text-anchor="start" x="48" y="-148.5" font-family="Times,serif" font-size="10.00">state_name()</text>
<text text-anchor="start" x="57" y="-137.5" font-family="Times,serif" font-size="10.00"> &#160;&#160;&#160;&#160;&#160;&#160;&#160;&#160;&#160;&#160;&#160;&#160;&#160;&#160;&#160;</text>
<polygon fill="#00688b" stroke="#00688b" points="40,-184.5 40,-184.5 123,-184.5 123,-184.5 40,-184.5"/>
<path fill="none" stroke="#00688b" d="M51.5,-127C51.5,-127 110.5,-127 110.5,-127 116.5,-127 122.5,-133 122.5,-139 122.5,-139 122.5,-202 122.5,-202 122.5,-208 116.5,-214 110.5,-214 110.5,-214 51.5,-214 51.5,-214 45.5,-214 39.5,-208 39.5,-202 39.5,-202 39.5,-139 39.5,-139 39.5,-133 45.5,-127 51.5,-127"/>
</g>
<!-- Ready&#45;&gt;Blocked -->
<g id="edge3" class="edge">
<title>Ready&#45;&gt;Blocked</title>
<path fill="none" stroke="red" d="M44.96,-266.73C40.92,-260.47 37.44,-253.83 35,-247 32.14,-238.98 32.68,-230.9 35.27,-223.15"/>
<polygon fill="red" stroke="red" points="38.52,-224.45 39.37,-213.89 32.12,-221.62 38.52,-224.45"/>
<text text-anchor="middle" x="58.5" y="-235.8" font-family="Times,serif" font-size="14.00"> block </text>
</g>
<!-- Ready&#45;&gt;Zombie -->
<g id="edge4" class="edge">
<title>Ready&#45;&gt;Zombie</title>
<path fill="none" stroke="red" d="M133.2,-270.16C149.94,-253.93 169.1,-235.37 186.24,-218.76"/>
<polygon fill="red" stroke="red" points="188.7,-221.25 193.45,-211.77 183.83,-216.22 188.7,-221.25"/>
<text text-anchor="middle" x="188.5" y="-235.8" font-family="Times,serif" font-size="14.00"> exit </text>
</g>
<!-- Blocked&#45;&gt;Ready -->
<g id="edge5" class="edge">
<title>Blocked&#45;&gt;Ready</title>
<path fill="none" stroke="red" d="M83.42,-214.37C84.14,-227.03 84.94,-241.1 85.7,-254.56"/>
<polygon fill="red" stroke="red" points="82.21,-254.91 86.27,-264.7 89.2,-254.52 82.21,-254.91"/>
<text text-anchor="middle" x="118.5" y="-235.8" font-family="Times,serif" font-size="14.00"> unblock </text>
</g>
<!-- Reaped -->
<g id="node7" class="node">
<title>Reaped</title>
<path fill="azure" stroke="transparent" d="M264.5,-76C264.5,-76 205.5,-76 205.5,-76 199.5,-76 193.5,-70 193.5,-64 193.5,-64 193.5,-12 193.5,-12 193.5,-6 199.5,0 205.5,0 205.5,0 264.5,0 264.5,0 270.5,0 276.5,-6 276.5,-12 276.5,-12 276.5,-64 276.5,-64 276.5,-70 270.5,-76 264.5,-76"/>
<text text-anchor="start" x="206" y="-57.8" font-family="Times,serif" font-weight="bold" font-size="14.00">Reaped</text>
<text text-anchor="start" x="202" y="-33" font-family="Times,serif" font-size="10.00">is_reaped()</text>
<text text-anchor="start" x="202" y="-22" font-family="Times,serif" font-size="10.00">state_name()</text>
<text text-anchor="start" x="217" y="-11" font-family="Times,serif" font-size="10.00"> &#160;&#160;&#160;&#160;&#160;&#160;&#160;&#160;&#160;&#160;&#160;</text>
<polygon fill="#00688b" stroke="#00688b" points="194,-47 194,-47 277,-47 277,-47 194,-47"/>
<path fill="none" stroke="#00688b" d="M205.5,0C205.5,0 264.5,0 264.5,0 270.5,0 276.5,-6 276.5,-12 276.5,-12 276.5,-64 276.5,-64 276.5,-70 270.5,-76 264.5,-76 264.5,-76 205.5,-76 205.5,-76 199.5,-76 193.5,-70 193.5,-64 193.5,-64 193.5,-12 193.5,-12 193.5,-6 199.5,0 205.5,0"/>
</g>
<!-- Zombie&#45;&gt;Reaped -->
<g id="edge7" class="edge">
<title>Zombie&#45;&gt;Reaped</title>
<path fill="none" stroke="red" d="M235,-126.77C235,-113.87 235,-99.62 235,-86.43"/>
<polygon fill="red" stroke="red" points="238.5,-86.12 235,-76.12 231.5,-86.12 238.5,-86.12"/>
<text text-anchor="middle" x="256" y="-97.8" font-family="Times,serif" font-size="14.00"> reap </text>
</g>
</g>
</svg>
