<?xml version="1.0" encoding="UTF-8" standalone="no"?>
<!DOCTYPE svg PUBLIC "-//W3C//DTD SVG 1.1//EN"
 "http://www.w3.org/Graphics/SVG/1.1/DTD/svg11.dtd">
<!-- Generated by graphviz version 14.1.5 (20260411.2331)
 -->
<!-- Title: ProcessTable Pages: 1 -->
<svg width="178pt" height="388pt"
 viewBox="0.00 0.00 178.00 388.00" xmlns="http://www.w3.org/2000/svg" xmlns:xlink="http://www.w3.org/1999/xlink">
<g id="graph0" class="graph" transform="scale(1 1) rotate(0) translate(4 384.4)">
<title>ProcessTable</title>
<polygon fill="white" stroke="none" points="-4,4 -4,-384.4 174,-384.4 174,4 -4,4"/>
<g id="clust1" class="cluster">
<title>cluster_Managing</title>
<path fill="none" stroke="black" d="M20,-8C20,-8 150,-8 150,-8 156,-8 162,-14 162,-20 162,-20 162,-327 162,-327 162,-333 156,-339 150,-339 150,-339 20,-339 20,-339 14,-339 8,-333 8,-327 8,-327 8,-20 8,-20 8,-14 14,-8 20,-8"/>
<text xml:space="preserve" text-anchor="start" x="57.25" y="-318.25" font-family="Times,serif" font-size="14.00">Managing</text>
<text xml:space="preserve" text-anchor="start" x="26.12" y="-299.5" font-family="Times,serif" font-size="10.00">block_pid(pid: u32)</text>
<text xml:space="preserve" text-anchor="start" x="26.12" y="-288.25" font-family="Times,serif" font-size="10.00">unblock_pid(pid: u32)</text>
<text xml:space="preserve" text-anchor="start" x="26.12" y="-277" font-family="Times,serif" font-size="10.00">exit_pid(pid: u32, code: i32)</text>
<text xml:space="preserve" text-anchor="start" x="26.12" y="-265.75" font-family="Times,serif" font-size="10.00">kill_pid(pid: u32)</text>
<text xml:space="preserve" text-anchor="start" x="67" y="-254.5" font-family="Times,serif" font-size="10.00"> &#160;&#160;&#160;&#160;&#160;&#160;&#160;&#160;&#160;&#160;&#160;&#160;&#160;&#160;&#160;</text>
<polygon fill="black" stroke="black" points="22.12,-311.5 22.12,-311.5 147.88,-311.5 147.88,-311.5 22.12,-311.5"/>
</g>
<!-- Entry -->
<g id="node1" class="node">
<title>Entry</title>
<ellipse fill="black" stroke="#00688b" cx="75" cy="-373.2" rx="7.2" ry="7.2"/>
</g>
<!-- HasCapacity -->
<g id="node2" class="node">
<title>HasCapacity</title>
<path fill="azure" stroke="none" d="M109.25,-236.25C109.25,-236.25 40.75,-236.25 40.75,-236.25 34.75,-236.25 28.75,-230.25 28.75,-224.25 28.75,-224.25 28.75,-170 28.75,-170 28.75,-164 34.75,-158 40.75,-158 40.75,-158 109.25,-158 109.25,-158 115.25,-158 121.25,-164 121.25,-170 121.25,-170 121.25,-224.25 121.25,-224.25 121.25,-230.25 115.25,-236.25 109.25,-236.25"/>
<text xml:space="preserve" text-anchor="start" x="37.5" y="-215.95" font-family="Times,serif" font-weight="bold" font-size="14.00">HasCapacity</text>
<text xml:space="preserve" text-anchor="start" x="36.75" y="-190.75" font-family="Times,serif" font-size="10.00">spawn()</text>
<text xml:space="preserve" text-anchor="start" x="36.75" y="-179.5" font-family="Times,serif" font-size="10.00">reap_pid(pid: u32)</text>
<text xml:space="preserve" text-anchor="start" x="57" y="-168.25" font-family="Times,serif" font-size="10.00"> &#160;&#160;&#160;&#160;&#160;&#160;&#160;&#160;&#160;&#160;&#160;&#160;&#160;&#160;&#160;</text>
<polygon fill="#00688b" stroke="#00688b" points="28.75,-205.75 28.75,-205.75 121.25,-205.75 121.25,-205.75 28.75,-205.75"/>
<path fill="none" stroke="#00688b" d="M40.75,-158C40.75,-158 109.25,-158 109.25,-158 115.25,-158 121.25,-164 121.25,-170 121.25,-170 121.25,-224.25 121.25,-224.25 121.25,-230.25 115.25,-236.25 109.25,-236.25 109.25,-236.25 40.75,-236.25 40.75,-236.25 34.75,-236.25 28.75,-230.25 28.75,-224.25 28.75,-224.25 28.75,-170 28.75,-170 28.75,-164 34.75,-158 40.75,-158"/>
</g>
<!-- Entry&#45;&gt;HasCapacity -->
<g id="edge1" class="edge">
<title>Entry&#45;&gt;HasCapacity</title>
<path fill="none" stroke="red" d="M75,-365.59C75,-346.46 75,-289.73 75,-247.57"/>
<polygon fill="red" stroke="red" points="78.5,-247.62 75,-237.62 71.5,-247.62 78.5,-247.62"/>
</g>
<!-- Full -->
<g id="node4" class="node">
<title>Full</title>
<path fill="azure" stroke="none" d="M114.25,-105.5C114.25,-105.5 45.75,-105.5 45.75,-105.5 39.75,-105.5 33.75,-99.5 33.75,-93.5 33.75,-93.5 33.75,-28 33.75,-28 33.75,-22 39.75,-16 45.75,-16 45.75,-16 114.25,-16 114.25,-16 120.25,-16 126.25,-22 126.25,-28 126.25,-28 126.25,-93.5 126.25,-93.5 126.25,-99.5 120.25,-105.5 114.25,-105.5"/>
<text xml:space="preserve" text-anchor="start" x="68.38" y="-85.2" font-family="Times,serif" font-weight="bold" font-size="14.00">Full</text>
<text xml:space="preserve" text-anchor="start" x="41.75" y="-60" font-family="Times,serif" font-size="10.00">spawn()</text>
<text xml:space="preserve" text-anchor="start" x="41.75" y="-48.75" font-family="Times,serif" font-size="10.00">reap_pid(pid: u32)</text>
<text xml:space="preserve" text-anchor="start" x="41.75" y="-37.5" font-family="Times,serif" font-size="10.00">is_full()</text>
<text xml:space="preserve" text-anchor="start" x="62" y="-26.25" font-family="Times,serif" font-size="10.00"> &#160;&#160;&#160;&#160;&#160;&#160;&#160;&#160;&#160;&#160;&#160;&#160;&#160;&#160;&#160;</text>
<polygon fill="#00688b" stroke="#00688b" points="33.75,-75 33.75,-75 126.25,-75 126.25,-75 33.75,-75"/>
<path fill="none" stroke="#00688b" d="M45.75,-16C45.75,-16 114.25,-16 114.25,-16 120.25,-16 126.25,-22 126.25,-28 126.25,-28 126.25,-93.5 126.25,-93.5 126.25,-99.5 120.25,-105.5 114.25,-105.5 114.25,-105.5 45.75,-105.5 45.75,-105.5 39.75,-105.5 33.75,-99.5 33.75,-93.5 33.75,-93.5 33.75,-28 33.75,-28 33.75,-22 39.75,-16 45.75,-16"/>
</g>
<!-- HasCapacity&#45;&gt;Full -->
<g id="edge2" class="edge">
<title>HasCapacity&#45;&gt;Full</title>
<path fill="none" stroke="red" d="M40.44,-158.15C34.42,-147.33 31.17,-135.27 35,-123.5 35.88,-120.8 36.93,-118.11 38.11,-115.46"/>
<polygon fill="red" stroke="red" points="41.11,-117.3 42.57,-106.8 34.88,-114.09 41.11,-117.3"/>
<text xml:space="preserve" text-anchor="middle" x="56" y="-126.7" font-family="Times,serif" font-size="14.00"> spawn </text>
</g>
<!-- Managing -->
<g id="node3" class="node">
<title>Managing</title>
<ellipse fill="azure" stroke="#00688b" cx="147" cy="-197.12" rx="0.36" ry="0.36"/>
</g>
<!-- Full&#45;&gt;HasCapacity -->
<g id="edge3" class="edge">
<title>Full&#45;&gt;HasCapacity</title>
<path fill="none" stroke="red" d="M78.38,-105.42C77.88,-118.76 77.33,-133.51 76.82,-147.17"/>
<polygon fill="red" stroke="red" points="73.34,-146.7 76.46,-156.82 80.33,-146.96 73.34,-146.7"/>
<text xml:space="preserve" text-anchor="middle" x="105.02" y="-126.7" font-family="Times,serif" font-size="14.00"> reap_pid </text>
</g>
</g>
</svg>
