<?xml version="1.0" encoding="UTF-8" standalone="no"?>
<!DOCTYPE svg PUBLIC "-//W3C//DTD SVG 1.1//EN"
 "http://www.w3.org/Graphics/SVG/1.1/DTD/svg11.dtd">
<!-- Generated by graphviz version 14.1.5 (20260411.2331)
 -->
<!-- Title: RxPipeline Pages: 1 -->
<svg width="233pt" height="485pt"
 viewBox="0.00 0.00 233.00 485.00" xmlns="http://www.w3.org/2000/svg" xmlns:xlink="http://www.w3.org/1999/xlink">
<g id="graph0" class="graph" transform="scale(1 1) rotate(0) translate(4 480.9)">
<title>RxPipeline</title>
<polygon fill="white" stroke="none" points="-4,4 -4,-480.9 229.1,-480.9 229.1,4 -4,4"/>
<!-- Entry -->
<g id="node1" class="node">
<title>Entry</title>
<ellipse fill="black" stroke="#00688b" cx="99.61" cy="-469.7" rx="7.2" ry="7.2"/>
</g>
<!-- Idle -->
<g id="node2" class="node">
<title>Idle</title>
<path fill="azure" stroke="none" d="M171.74,-425.5C171.74,-425.5 27.49,-425.5 27.49,-425.5 21.49,-425.5 15.49,-419.5 15.49,-413.5 15.49,-413.5 15.49,-370.5 15.49,-370.5 15.49,-364.5 21.49,-358.5 27.49,-358.5 27.49,-358.5 171.74,-358.5 171.74,-358.5 177.74,-358.5 183.74,-364.5 183.74,-370.5 183.74,-370.5 183.74,-413.5 183.74,-413.5 183.74,-419.5 177.74,-425.5 171.74,-425.5"/>
<text xml:space="preserve" text-anchor="start" x="88.36" y="-405.2" font-family="Times,serif" font-weight="bold" font-size="14.00">Idle</text>
<text xml:space="preserve" text-anchor="start" x="23.49" y="-380" font-family="Times,serif" font-size="10.00">deliver(pkt: crate::net::RxDescriptor)</text>
<text xml:space="preserve" text-anchor="start" x="86.11" y="-368.75" font-family="Times,serif" font-size="10.00"> &#160;&#160;&#160;&#160;&#160;&#160;&#160;&#160;&#160;&#160;&#160;</text>
<polygon fill="#00688b" stroke="#00688b" points="15.49,-395 15.49,-395 183.74,-395 183.74,-395 15.49,-395"/>
<path fill="none" stroke="#00688b" d="M27.49,-358.5C27.49,-358.5 171.74,-358.5 171.74,-358.5 177.74,-358.5 183.74,-364.5 183.74,-370.5 183.74,-370.5 183.74,-413.5 183.74,-413.5 183.74,-419.5 177.74,-425.5 171.74,-425.5 171.74,-425.5 27.49,-425.5 27.49,-425.5 21.49,-425.5 15.49,-419.5 15.49,-413.5 15.49,-413.5 15.49,-370.5 15.49,-370.5 15.49,-364.5 21.49,-358.5 27.49,-358.5"/>
</g>
<!-- Entry&#45;&gt;Idle -->
<g id="edge1" class="edge">
<title>Entry&#45;&gt;Idle</title>
<path fill="none" stroke="red" d="M99.61,-462.25C99.61,-456.27 99.61,-446.82 99.61,-436.8"/>
<polygon fill="red" stroke="red" points="103.11,-436.91 99.61,-426.91 96.11,-436.91 103.11,-436.91"/>
</g>
<!-- Classifying -->
<g id="node3" class="node">
<title>Classifying</title>
<path fill="azure" stroke="none" d="M132.49,-306C132.49,-306 76.74,-306 76.74,-306 70.74,-306 64.74,-300 64.74,-294 64.74,-294 64.74,-251 64.74,-251 64.74,-245 70.74,-239 76.74,-239 76.74,-239 132.49,-239 132.49,-239 138.49,-239 144.49,-245 144.49,-251 144.49,-251 144.49,-294 144.49,-294 144.49,-300 138.49,-306 132.49,-306"/>
<text xml:space="preserve" text-anchor="start" x="72.74" y="-285.7" font-family="Times,serif" font-weight="bold" font-size="14.00">Classifying</text>
<text xml:space="preserve" text-anchor="start" x="72.74" y="-260.5" font-family="Times,serif" font-size="10.00">$&gt;()</text>
<text xml:space="preserve" text-anchor="start" x="72.74" y="-249.25" font-family="Times,serif" font-size="10.00"> &#160;&#160;&#160;&#160;&#160;&#160;&#160;&#160;&#160;&#160;&#160;</text>
<polygon fill="#00688b" stroke="#00688b" points="64.74,-275.5 64.74,-275.5 144.49,-275.5 144.49,-275.5 64.74,-275.5"/>
<path fill="none" stroke="#00688b" d="M76.74,-239C76.74,-239 132.49,-239 132.49,-239 138.49,-239 144.49,-245 144.49,-251 144.49,-251 144.49,-294 144.49,-294 144.49,-300 138.49,-306 132.49,-306 132.49,-306 76.74,-306 76.74,-306 70.74,-306 64.74,-300 64.74,-294 64.74,-294 64.74,-251 64.74,-251 64.74,-245 70.74,-239 76.74,-239"/>
</g>
<!-- Idle&#45;&gt;Classifying -->
<g id="edge2" class="edge">
<title>Idle&#45;&gt;Classifying</title>
<path fill="none" stroke="red" d="M72.24,-358.69C66.25,-347.92 62.71,-335.68 66.61,-324 67.53,-321.27 68.65,-318.57 69.94,-315.92"/>
<polygon fill="red" stroke="red" points="72.93,-317.74 74.82,-307.31 66.84,-314.28 72.93,-317.74"/>
<text xml:space="preserve" text-anchor="middle" x="89.11" y="-327.2" font-family="Times,serif" font-size="14.00"> deliver </text>
</g>
<!-- Classifying&#45;&gt;Idle -->
<g id="edge5" class="edge">
<title>Classifying&#45;&gt;Idle</title>
<path fill="none" stroke="red" d="M110.89,-305.89C112.25,-316.88 112.93,-329.23 111.61,-340.5 111.34,-342.81 111.01,-345.16 110.62,-347.53"/>
<polygon fill="red" stroke="red" points="107.23,-346.63 108.77,-357.11 114.1,-347.96 107.23,-346.63"/>
<text xml:space="preserve" text-anchor="middle" x="123.57" y="-327.2" font-family="Times,serif" font-size="14.00"> $&gt; </text>
</g>
<!-- Arp -->
<g id="node4" class="node">
<title>Arp</title>
<path fill="azure" stroke="none" d="M60.61,-186.5C60.61,-186.5 30.61,-186.5 30.61,-186.5 24.61,-186.5 18.61,-180.5 18.61,-174.5 18.61,-174.5 18.61,-131.5 18.61,-131.5 18.61,-125.5 24.61,-119.5 30.61,-119.5 30.61,-119.5 60.61,-119.5 60.61,-119.5 66.61,-119.5 72.61,-125.5 72.61,-131.5 72.61,-131.5 72.61,-174.5 72.61,-174.5 72.61,-180.5 66.61,-186.5 60.61,-186.5"/>
<text xml:space="preserve" text-anchor="start" x="33.99" y="-166.2" font-family="Times,serif" font-weight="bold" font-size="14.00">Arp</text>
<text xml:space="preserve" text-anchor="start" x="32.11" y="-141" font-family="Times,serif" font-size="10.00">$&gt;()</text>
<text xml:space="preserve" text-anchor="start" x="32.11" y="-129.75" font-family="Times,serif" font-size="10.00"> &#160;&#160;&#160;&#160;&#160;&#160;&#160;&#160;&#160;&#160;&#160;</text>
<polygon fill="#00688b" stroke="#00688b" points="24.11,-156 24.11,-156 67.11,-156 67.11,-156 24.11,-156"/>
<path fill="none" stroke="#00688b" d="M36.11,-119.5C36.11,-119.5 55.11,-119.5 55.11,-119.5 61.11,-119.5 67.11,-125.5 67.11,-131.5 67.11,-131.5 67.11,-174.5 67.11,-174.5 67.11,-180.5 61.11,-186.5 55.11,-186.5 55.11,-186.5 36.11,-186.5 36.11,-186.5 30.11,-186.5 24.11,-180.5 24.11,-174.5 24.11,-174.5 24.11,-131.5 24.11,-131.5 24.11,-125.5 30.11,-119.5 36.11,-119.5"/>
</g>
<!-- Classifying&#45;&gt;Arp -->
<g id="edge3" class="edge">
<title>Classifying&#45;&gt;Arp</title>
<path fill="none" stroke="red" d="M88.33,-239.08C81.69,-225.85 73.92,-210.38 66.84,-196.28"/>
<polygon fill="red" stroke="red" points="70.13,-195.03 62.52,-187.67 63.88,-198.17 70.13,-195.03"/>
<text xml:space="preserve" text-anchor="middle" x="89.9" y="-207.7" font-family="Times,serif" font-size="14.00"> $&gt; </text>
</g>
<!-- Ipv4 -->
<g id="node5" class="node">
<title>Ipv4</title>
<path fill="azure" stroke="none" d="M161.61,-186.5C161.61,-186.5 131.61,-186.5 131.61,-186.5 125.61,-186.5 119.61,-180.5 119.61,-174.5 119.61,-174.5 119.61,-131.5 119.61,-131.5 119.61,-125.5 125.61,-119.5 131.61,-119.5 131.61,-119.5 161.61,-119.5 161.61,-119.5 167.61,-119.5 173.61,-125.5 173.61,-131.5 173.61,-131.5 173.61,-174.5 173.61,-174.5 173.61,-180.5 167.61,-186.5 161.61,-186.5"/>
<text xml:space="preserve" text-anchor="start" x="133.49" y="-166.2" font-family="Times,serif" font-weight="bold" font-size="14.00">Ipv4</text>
<text xml:space="preserve" text-anchor="start" x="133.11" y="-141" font-family="Times,serif" font-size="10.00">$&gt;()</text>
<text xml:space="preserve" text-anchor="start" x="133.11" y="-129.75" font-family="Times,serif" font-size="10.00"> &#160;&#160;&#160;&#160;&#160;&#160;&#160;&#160;&#160;&#160;&#160;</text>
<polygon fill="#00688b" stroke="#00688b" points="125.11,-156 125.11,-156 168.11,-156 168.11,-156 125.11,-156"/>
<path fill="none" stroke="#00688b" d="M137.11,-119.5C137.11,-119.5 156.11,-119.5 156.11,-119.5 162.11,-119.5 168.11,-125.5 168.11,-131.5 168.11,-131.5 168.11,-174.5 168.11,-174.5 168.11,-180.5 162.11,-186.5 156.11,-186.5 156.11,-186.5 137.11,-186.5 137.11,-186.5 131.11,-186.5 125.11,-180.5 125.11,-174.5 125.11,-174.5 125.11,-131.5 125.11,-131.5 125.11,-125.5 131.11,-119.5 137.11,-119.5"/>
</g>
<!-- Classifying&#45;&gt;Ipv4 -->
<g id="edge4" class="edge">
<title>Classifying&#45;&gt;Ipv4</title>
<path fill="none" stroke="red" d="M116.2,-239.08C120.84,-226.11 126.25,-210.98 131.21,-197.11"/>
<polygon fill="red" stroke="red" points="134.48,-198.33 134.55,-187.74 127.89,-195.98 134.48,-198.33"/>
<text xml:space="preserve" text-anchor="middle" x="139.38" y="-207.7" font-family="Times,serif" font-size="14.00"> $&gt; </text>
</g>
<!-- Arp&#45;&gt;Idle -->
<g id="edge6" class="edge">
<title>Arp&#45;&gt;Idle</title>
<path fill="none" stroke="red" d="M35.53,-186.38C27.44,-217.82 19.48,-266.45 33.11,-306 38.57,-321.83 48.32,-336.97 58.71,-349.97"/>
<polygon fill="red" stroke="red" points="55.87,-352.03 64.98,-357.45 61.23,-347.54 55.87,-352.03"/>
<text xml:space="preserve" text-anchor="middle" x="44.36" y="-267.45" font-family="Times,serif" font-size="14.00"> $&gt; </text>
</g>
<!-- Ipv4&#45;&gt;Idle -->
<g id="edge9" class="edge">
<title>Ipv4&#45;&gt;Idle</title>
<path fill="none" stroke="red" d="M152.84,-186.42C157.7,-217.46 162.3,-265.44 153.61,-306 150.31,-321.41 142.65,-336.5 134.09,-349.59"/>
<polygon fill="red" stroke="red" points="131.43,-347.29 128.62,-357.5 137.19,-351.27 131.43,-347.29"/>
<text xml:space="preserve" text-anchor="middle" x="169.74" y="-267.45" font-family="Times,serif" font-size="14.00"> $&gt; </text>
</g>
<!-- Icmp -->
<g id="node6" class="node">
<title>Icmp</title>
<path fill="azure" stroke="none" d="M99.61,-67C99.61,-67 69.61,-67 69.61,-67 63.61,-67 57.61,-61 57.61,-55 57.61,-55 57.61,-12 57.61,-12 57.61,-6 63.61,0 69.61,0 69.61,0 99.61,0 99.61,0 105.61,0 111.61,-6 111.61,-12 111.61,-12 111.61,-55 111.61,-55 111.61,-61 105.61,-67 99.61,-67"/>
<text xml:space="preserve" text-anchor="start" x="69.24" y="-46.7" font-family="Times,serif" font-weight="bold" font-size="14.00">Icmp</text>
<text xml:space="preserve" text-anchor="start" x="69.24" y="-21.5" font-family="Times,serif" font-size="10.00">$&gt;()</text>
<text xml:space="preserve" text-anchor="start" x="69.24" y="-10.25" font-family="Times,serif" font-size="10.00"> &#160;&#160;&#160;&#160;&#160;&#160;&#160;&#160;&#160;&#160;&#160;</text>
<polygon fill="#00688b" stroke="#00688b" points="61.24,-36.5 61.24,-36.5 107.99,-36.5 107.99,-36.5 61.24,-36.5"/>
<path fill="none" stroke="#00688b" d="M73.24,0C73.24,0 95.99,0 95.99,0 101.99,0 107.99,-6 107.99,-12 107.99,-12 107.99,-55 107.99,-55 107.99,-61 101.99,-67 95.99,-67 95.99,-67 73.24,-67 73.24,-67 67.24,-67 61.24,-61 61.24,-55 61.24,-55 61.24,-12 61.24,-12 61.24,-6 67.24,0 73.24,0"/>
</g>
<!-- Ipv4&#45;&gt;Icmp -->
<g id="edge7" class="edge">
<title>Ipv4&#45;&gt;Icmp</title>
<path fill="none" stroke="red" d="M129.51,-119.58C122.53,-106.35 114.36,-90.88 106.92,-76.78"/>
<polygon fill="red" stroke="red" points="110.13,-75.36 102.37,-68.15 103.94,-78.63 110.13,-75.36"/>
<text xml:space="preserve" text-anchor="middle" x="130.58" y="-88.2" font-family="Times,serif" font-size="14.00"> $&gt; </text>
</g>
<!-- Udp -->
<g id="node7" class="node">
<title>Udp</title>
<path fill="azure" stroke="none" d="M198.61,-67C198.61,-67 168.61,-67 168.61,-67 162.61,-67 156.61,-61 156.61,-55 156.61,-55 156.61,-12 156.61,-12 156.61,-6 162.61,0 168.61,0 168.61,0 198.61,0 198.61,0 204.61,0 210.61,-6 210.61,-12 210.61,-12 210.61,-55 210.61,-55 210.61,-61 204.61,-67 198.61,-67"/>
<text xml:space="preserve" text-anchor="start" x="171.24" y="-46.7" font-family="Times,serif" font-weight="bold" font-size="14.00">Udp</text>
<text xml:space="preserve" text-anchor="start" x="170.11" y="-21.5" font-family="Times,serif" font-size="10.00">$&gt;()</text>
<text xml:space="preserve" text-anchor="start" x="170.11" y="-10.25" font-family="Times,serif" font-size="10.00"> &#160;&#160;&#160;&#160;&#160;&#160;&#160;&#160;&#160;&#160;&#160;</text>
<polygon fill="#00688b" stroke="#00688b" points="162.11,-36.5 162.11,-36.5 205.11,-36.5 205.11,-36.5 162.11,-36.5"/>
<path fill="none" stroke="#00688b" d="M174.11,0C174.11,0 193.11,0 193.11,0 199.11,0 205.11,-6 205.11,-12 205.11,-12 205.11,-55 205.11,-55 205.11,-61 199.11,-67 193.11,-67 193.11,-67 174.11,-67 174.11,-67 168.11,-67 162.11,-61 162.11,-55 162.11,-55 162.11,-12 162.11,-12 162.11,-6 168.11,0 174.11,0"/>
</g>
<!-- Ipv4&#45;&gt;Udp -->
<g id="edge8" class="edge">
<title>Ipv4&#45;&gt;Udp</title>
<path fill="none" stroke="red" d="M156.82,-119.58C160.91,-106.61 165.67,-91.48 170.04,-77.61"/>
<polygon fill="red" stroke="red" points="173.32,-78.85 172.98,-68.26 166.64,-76.74 173.32,-78.85"/>
<text xml:space="preserve" text-anchor="middle" x="178.58" y="-88.2" font-family="Times,serif" font-size="14.00"> $&gt; </text>
</g>
<!-- Icmp&#45;&gt;Idle -->
<g id="edge10" class="edge">
<title>Icmp&#45;&gt;Idle</title>
<path fill="none" stroke="red" d="M57.96,-56.46C40.98,-72.12 20.25,-94.72 9.61,-119.5 1.08,-139.38 -1.6,-188.25 2.11,-221 8.35,-276.05 3.61,-296.76 37.61,-340.5 40.32,-343.98 43.3,-347.37 46.46,-350.64"/>
<polygon fill="red" stroke="red" points="43.88,-353.02 53.5,-357.46 48.75,-347.99 43.88,-353.02"/>
<text xml:space="preserve" text-anchor="middle" x="13.36" y="-207.7" font-family="Times,serif" font-size="14.00"> $&gt; </text>
</g>
<!-- Udp&#45;&gt;Idle -->
<g id="edge11" class="edge">
<title>Udp&#45;&gt;Idle</title>
<path fill="none" stroke="red" d="M190.78,-66.69C200.86,-118.84 214.84,-224.21 184.61,-306 178.32,-323.02 166.5,-338.29 153.63,-351.02"/>
<polygon fill="red" stroke="red" points="151.53,-348.2 146.62,-357.59 156.31,-353.3 151.53,-348.2"/>
<text xml:space="preserve" text-anchor="middle" x="213.85" y="-207.7" font-family="Times,serif" font-size="14.00"> $&gt; </text>
</g>
</g>
</svg>
