<?xml version="1.0" encoding="UTF-8" standalone="no"?>
<!DOCTYPE svg PUBLIC "-//W3C//DTD SVG 1.1//EN"
 "http://www.w3.org/Graphics/SVG/1.1/DTD/svg11.dtd">
<!-- Generated by graphviz version 2.43.0 (0)
 -->
<!-- Title: RxPipeline Pages: 1 -->
<svg width="390pt" height="472pt"
 viewBox="0.00 0.00 390.00 472.00" xmlns="http://www.w3.org/2000/svg" xmlns:xlink="http://www.w3.org/1999/xlink">
<g id="graph0" class="graph" transform="scale(1 1) rotate(0) translate(4 468)">
<title>RxPipeline</title>
<polygon fill="white" stroke="transparent" points="-4,4 -4,-468 386,-468 386,4 -4,4"/>
<!-- Entry -->
<g id="node1" class="node">
<title>Entry</title>
<ellipse fill="black" stroke="#00688b" cx="183" cy="-457" rx="7" ry="7"/>
</g>
<!-- Idle -->
<g id="node2" class="node">
<title>Idle</title>
<path fill="azure" stroke="transparent" d="M272.5,-413C272.5,-413 93.5,-413 93.5,-413 87.5,-413 81.5,-407 81.5,-401 81.5,-401 81.5,-360 81.5,-360 81.5,-354 87.5,-348 93.5,-348 93.5,-348 272.5,-348 272.5,-348 278.5,-348 284.5,-354 284.5,-360 284.5,-360 284.5,-401 284.5,-401 284.5,-407 278.5,-413 272.5,-413"/>
<text text-anchor="start" x="168" y="-394.3" font-family="Times,serif" font-weight="bold" font-size="14.00">Idle</text>
<text text-anchor="start" x="90" y="-369.5" font-family="Times,serif" font-size="10.00">deliver(pkt: crate::net::RxDescriptor)</text>
<text text-anchor="start" x="165" y="-358.5" font-family="Times,serif" font-size="10.00"> &#160;&#160;&#160;&#160;&#160;&#160;&#160;&#160;&#160;&#160;&#160;</text>
<polygon fill="#00688b" stroke="#00688b" points="82,-383.5 82,-383.5 285,-383.5 285,-383.5 82,-383.5"/>
<path fill="none" stroke="#00688b" d="M93.5,-348C93.5,-348 272.5,-348 272.5,-348 278.5,-348 284.5,-354 284.5,-360 284.5,-360 284.5,-401 284.5,-401 284.5,-407 278.5,-413 272.5,-413 272.5,-413 93.5,-413 93.5,-413 87.5,-413 81.5,-407 81.5,-401 81.5,-401 81.5,-360 81.5,-360 81.5,-354 87.5,-348 93.5,-348"/>
</g>
<!-- Entry&#45;&gt;Idle -->
<g id="edge1" class="edge">
<title>Entry&#45;&gt;Idle</title>
<path fill="none" stroke="red" d="M183,-449.9C183,-443.79 183,-433.81 183,-423.34"/>
<polygon fill="red" stroke="red" points="186.5,-423.26 183,-413.26 179.5,-423.26 186.5,-423.26"/>
</g>
<!-- Classifying -->
<g id="node3" class="node">
<title>Classifying</title>
<path fill="azure" stroke="transparent" d="M277,-297C277,-297 197,-297 197,-297 191,-297 185,-291 185,-285 185,-285 185,-244 185,-244 185,-238 191,-232 197,-232 197,-232 277,-232 277,-232 283,-232 289,-238 289,-244 289,-244 289,-285 289,-285 289,-291 283,-297 277,-297"/>
<text text-anchor="start" x="193" y="-278.3" font-family="Times,serif" font-weight="bold" font-size="14.00">Classifying</text>
<text text-anchor="start" x="193" y="-253.5" font-family="Times,serif" font-size="10.00">$&gt;()</text>
<text text-anchor="start" x="193" y="-242.5" font-family="Times,serif" font-size="10.00"> &#160;&#160;&#160;&#160;&#160;&#160;&#160;&#160;&#160;&#160;&#160;</text>
<polygon fill="#00688b" stroke="#00688b" points="185,-267.5 185,-267.5 289,-267.5 289,-267.5 185,-267.5"/>
<path fill="none" stroke="#00688b" d="M197,-232C197,-232 277,-232 277,-232 283,-232 289,-238 289,-244 289,-244 289,-285 289,-285 289,-291 283,-297 277,-297 277,-297 197,-297 197,-297 191,-297 185,-291 185,-285 185,-285 185,-244 185,-244 185,-238 191,-232 197,-232"/>
</g>
<!-- Idle&#45;&gt;Classifying -->
<g id="edge2" class="edge">
<title>Idle&#45;&gt;Classifying</title>
<path fill="none" stroke="red" d="M205.01,-347.95C208.61,-342.12 212.1,-335.99 215,-330 218.52,-322.74 221.72,-314.77 224.53,-306.98"/>
<polygon fill="red" stroke="red" points="227.93,-307.88 227.87,-297.29 221.31,-305.6 227.93,-307.88"/>
<text text-anchor="middle" x="249.5" y="-318.8" font-family="Times,serif" font-size="14.00"> deliver </text>
</g>
<!-- Classifying&#45;&gt;Idle -->
<g id="edge5" class="edge">
<title>Classifying&#45;&gt;Idle</title>
<path fill="none" stroke="red" d="M192.02,-297.29C187.17,-302.64 182.94,-308.56 180,-315 176.8,-322.02 175.54,-329.93 175.4,-337.74"/>
<polygon fill="red" stroke="red" points="171.91,-338.02 175.8,-347.87 178.9,-337.74 171.91,-338.02"/>
<text text-anchor="middle" x="195.5" y="-318.8" font-family="Times,serif" font-size="14.00"> $&gt; </text>
</g>
<!-- Arp -->
<g id="node4" class="node">
<title>Arp</title>
<path fill="azure" stroke="transparent" d="M170,-181C170,-181 140,-181 140,-181 134,-181 128,-175 128,-169 128,-169 128,-128 128,-128 128,-122 134,-116 140,-116 140,-116 170,-116 170,-116 176,-116 182,-122 182,-128 182,-128 182,-169 182,-169 182,-175 176,-181 170,-181"/>
<text text-anchor="start" x="141.5" y="-162.3" font-family="Times,serif" font-weight="bold" font-size="14.00">Arp</text>
<text text-anchor="start" x="137" y="-137.5" font-family="Times,serif" font-size="10.00">$&gt;()</text>
<text text-anchor="start" x="137" y="-126.5" font-family="Times,serif" font-size="10.00"> &#160;&#160;&#160;&#160;&#160;&#160;&#160;&#160;&#160;&#160;&#160;</text>
<polygon fill="#00688b" stroke="#00688b" points="129,-151.5 129,-151.5 182,-151.5 182,-151.5 129,-151.5"/>
<path fill="none" stroke="#00688b" d="M140.5,-116C140.5,-116 169.5,-116 169.5,-116 175.5,-116 181.5,-122 181.5,-128 181.5,-128 181.5,-169 181.5,-169 181.5,-175 175.5,-181 169.5,-181 169.5,-181 140.5,-181 140.5,-181 134.5,-181 128.5,-175 128.5,-169 128.5,-169 128.5,-128 128.5,-128 128.5,-122 134.5,-116 140.5,-116"/>
</g>
<!-- Classifying&#45;&gt;Arp -->
<g id="edge3" class="edge">
<title>Classifying&#45;&gt;Arp</title>
<path fill="none" stroke="red" d="M214.16,-231.74C204.74,-218.65 193.72,-203.33 183.76,-189.48"/>
<polygon fill="red" stroke="red" points="186.4,-187.16 177.72,-181.09 180.72,-191.25 186.4,-187.16"/>
<text text-anchor="middle" x="215.5" y="-202.8" font-family="Times,serif" font-size="14.00"> $&gt; </text>
</g>
<!-- Ipv4 -->
<g id="node5" class="node">
<title>Ipv4</title>
<path fill="azure" stroke="transparent" d="M252,-181C252,-181 222,-181 222,-181 216,-181 210,-175 210,-169 210,-169 210,-128 210,-128 210,-122 216,-116 222,-116 222,-116 252,-116 252,-116 258,-116 264,-122 264,-128 264,-128 264,-169 264,-169 264,-175 258,-181 252,-181"/>
<text text-anchor="start" x="220" y="-162.3" font-family="Times,serif" font-weight="bold" font-size="14.00">Ipv4</text>
<text text-anchor="start" x="219" y="-137.5" font-family="Times,serif" font-size="10.00">$&gt;()</text>
<text text-anchor="start" x="219" y="-126.5" font-family="Times,serif" font-size="10.00"> &#160;&#160;&#160;&#160;&#160;&#160;&#160;&#160;&#160;&#160;&#160;</text>
<polygon fill="#00688b" stroke="#00688b" points="211,-151.5 211,-151.5 264,-151.5 264,-151.5 211,-151.5"/>
<path fill="none" stroke="#00688b" d="M222.5,-116C222.5,-116 251.5,-116 251.5,-116 257.5,-116 263.5,-122 263.5,-128 263.5,-128 263.5,-169 263.5,-169 263.5,-175 257.5,-181 251.5,-181 251.5,-181 222.5,-181 222.5,-181 216.5,-181 210.5,-175 210.5,-169 210.5,-169 210.5,-128 210.5,-128 210.5,-122 216.5,-116 222.5,-116"/>
</g>
<!-- Classifying&#45;&gt;Ipv4 -->
<g id="edge4" class="edge">
<title>Classifying&#45;&gt;Ipv4</title>
<path fill="none" stroke="red" d="M237,-231.74C237,-219.27 237,-204.77 237,-191.45"/>
<polygon fill="red" stroke="red" points="240.5,-191.09 237,-181.09 233.5,-191.09 240.5,-191.09"/>
<text text-anchor="middle" x="252.5" y="-202.8" font-family="Times,serif" font-size="14.00"> $&gt; </text>
</g>
<!-- Arp&#45;&gt;Idle -->
<g id="edge6" class="edge">
<title>Arp&#45;&gt;Idle</title>
<path fill="none" stroke="red" d="M147.74,-181.24C142.05,-211.38 136.4,-257.76 145,-297 148.1,-311.13 153.85,-325.73 159.97,-338.64"/>
<polygon fill="red" stroke="red" points="156.88,-340.3 164.45,-347.72 163.16,-337.2 156.88,-340.3"/>
<text text-anchor="middle" x="160.5" y="-260.8" font-family="Times,serif" font-size="14.00"> $&gt; </text>
</g>
<!-- Ipv4&#45;&gt;Idle -->
<g id="edge10" class="edge">
<title>Ipv4&#45;&gt;Idle</title>
<path fill="none" stroke="red" d="M264.05,-176.68C277.03,-191.66 291.2,-211.36 298,-232 307.04,-259.44 304.12,-268.77 298,-297 294.59,-312.75 294.2,-318.42 283,-330 278.81,-334.33 274.17,-338.33 269.25,-342.03"/>
<polygon fill="red" stroke="red" points="266.92,-339.38 260.72,-347.97 270.92,-345.13 266.92,-339.38"/>
<text text-anchor="middle" x="318.5" y="-260.8" font-family="Times,serif" font-size="14.00"> $&gt; </text>
</g>
<!-- Icmp -->
<g id="node6" class="node">
<title>Icmp</title>
<path fill="azure" stroke="transparent" d="M44,-65C44,-65 12,-65 12,-65 6,-65 0,-59 0,-53 0,-53 0,-12 0,-12 0,-6 6,0 12,0 12,0 44,0 44,0 50,0 56,-6 56,-12 56,-12 56,-53 56,-53 56,-59 50,-65 44,-65"/>
<text text-anchor="start" x="8" y="-46.3" font-family="Times,serif" font-weight="bold" font-size="14.00">Icmp</text>
<text text-anchor="start" x="8" y="-21.5" font-family="Times,serif" font-size="10.00">$&gt;()</text>
<text text-anchor="start" x="8" y="-10.5" font-family="Times,serif" font-size="10.00"> &#160;&#160;&#160;&#160;&#160;&#160;&#160;&#160;&#160;&#160;&#160;</text>
<polygon fill="#00688b" stroke="#00688b" points="0,-35.5 0,-35.5 56,-35.5 56,-35.5 0,-35.5"/>
<path fill="none" stroke="#00688b" d="M12,0C12,0 44,0 44,0 50,0 56,-6 56,-12 56,-12 56,-53 56,-53 56,-59 50,-65 44,-65 44,-65 12,-65 12,-65 6,-65 0,-59 0,-53 0,-53 0,-12 0,-12 0,-6 6,0 12,0"/>
</g>
<!-- Ipv4&#45;&gt;Icmp -->
<g id="edge7" class="edge">
<title>Ipv4&#45;&gt;Icmp</title>
<path fill="none" stroke="red" d="M209.65,-127.91C203.61,-123.82 197.16,-119.65 191,-116 149.27,-91.3 99.24,-66.67 65.71,-50.84"/>
<polygon fill="red" stroke="red" points="66.83,-47.5 56.29,-46.42 63.85,-53.84 66.83,-47.5"/>
<text text-anchor="middle" x="171.5" y="-86.8" font-family="Times,serif" font-size="14.00"> $&gt; </text>
</g>
<!-- Udp -->
<g id="node7" class="node">
<title>Udp</title>
<path fill="azure" stroke="transparent" d="M310,-65C310,-65 280,-65 280,-65 274,-65 268,-59 268,-53 268,-53 268,-12 268,-12 268,-6 274,0 280,0 280,0 310,0 310,0 316,0 322,-6 322,-12 322,-12 322,-53 322,-53 322,-59 316,-65 310,-65"/>
<text text-anchor="start" x="279.5" y="-46.3" font-family="Times,serif" font-weight="bold" font-size="14.00">Udp</text>
<text text-anchor="start" x="277" y="-21.5" font-family="Times,serif" font-size="10.00">$&gt;()</text>
<text text-anchor="start" x="277" y="-10.5" font-family="Times,serif" font-size="10.00"> &#160;&#160;&#160;&#160;&#160;&#160;&#160;&#160;&#160;&#160;&#160;</text>
<polygon fill="#00688b" stroke="#00688b" points="269,-35.5 269,-35.5 322,-35.5 322,-35.5 269,-35.5"/>
<path fill="none" stroke="#00688b" d="M280.5,0C280.5,0 309.5,0 309.5,0 315.5,0 321.5,-6 321.5,-12 321.5,-12 321.5,-53 321.5,-53 321.5,-59 315.5,-65 309.5,-65 309.5,-65 280.5,-65 280.5,-65 274.5,-65 268.5,-59 268.5,-53 268.5,-53 268.5,-12 268.5,-12 268.5,-6 274.5,0 280.5,0"/>
</g>
<!-- Ipv4&#45;&gt;Udp -->
<g id="edge9" class="edge">
<title>Ipv4&#45;&gt;Udp</title>
<path fill="none" stroke="red" d="M253.16,-115.74C259.69,-102.9 267.32,-87.91 274.26,-74.27"/>
<polygon fill="red" stroke="red" points="277.52,-75.58 278.93,-65.09 271.28,-72.41 277.52,-75.58"/>
<text text-anchor="middle" x="284.5" y="-86.8" font-family="Times,serif" font-size="14.00"> $&gt; </text>
</g>
<!-- Tcp -->
<g id="node8" class="node">
<title>Tcp</title>
<path fill="azure" stroke="transparent" d="M206,-65C206,-65 176,-65 176,-65 170,-65 164,-59 164,-53 164,-53 164,-12 164,-12 164,-6 170,0 176,0 176,0 206,0 206,0 212,0 218,-6 218,-12 218,-12 218,-53 218,-53 218,-59 212,-65 206,-65"/>
<text text-anchor="start" x="177.5" y="-46.3" font-family="Times,serif" font-weight="bold" font-size="14.00">Tcp</text>
<text text-anchor="start" x="173" y="-21.5" font-family="Times,serif" font-size="10.00">$&gt;()</text>
<text text-anchor="start" x="173" y="-10.5" font-family="Times,serif" font-size="10.00"> &#160;&#160;&#160;&#160;&#160;&#160;&#160;&#160;&#160;&#160;&#160;</text>
<polygon fill="#00688b" stroke="#00688b" points="165,-35.5 165,-35.5 218,-35.5 218,-35.5 165,-35.5"/>
<path fill="none" stroke="#00688b" d="M176.5,0C176.5,0 205.5,0 205.5,0 211.5,0 217.5,-6 217.5,-12 217.5,-12 217.5,-53 217.5,-53 217.5,-59 211.5,-65 205.5,-65 205.5,-65 176.5,-65 176.5,-65 170.5,-65 164.5,-59 164.5,-53 164.5,-53 164.5,-12 164.5,-12 164.5,-6 170.5,0 176.5,0"/>
</g>
<!-- Ipv4&#45;&gt;Tcp -->
<g id="edge8" class="edge">
<title>Ipv4&#45;&gt;Tcp</title>
<path fill="none" stroke="red" d="M224.19,-115.81C221.8,-109.89 219.32,-103.76 217,-98 213.95,-90.44 210.7,-82.38 207.56,-74.61"/>
<polygon fill="red" stroke="red" points="210.81,-73.29 203.82,-65.32 204.32,-75.91 210.81,-73.29"/>
<text text-anchor="middle" x="232.5" y="-86.8" font-family="Times,serif" font-size="14.00"> $&gt; </text>
</g>
<!-- Icmp&#45;&gt;Idle -->
<g id="edge11" class="edge">
<title>Icmp&#45;&gt;Idle</title>
<path fill="none" stroke="red" d="M30.98,-65.07C37.11,-117.05 54.77,-222.3 102,-297 111.86,-312.6 125.09,-327.64 137.99,-340.5"/>
<polygon fill="red" stroke="red" points="135.91,-343.36 145.53,-347.82 140.79,-338.34 135.91,-343.36"/>
<text text-anchor="middle" x="79.5" y="-202.8" font-family="Times,serif" font-size="14.00"> $&gt; </text>
</g>
<!-- Udp&#45;&gt;Idle -->
<g id="edge12" class="edge">
<title>Udp&#45;&gt;Idle</title>
<path fill="none" stroke="red" d="M311.25,-65.36C334.9,-116.41 372.44,-218.72 338,-297 329.01,-317.45 312.46,-332.95 293.42,-344.66"/>
<polygon fill="red" stroke="red" points="291.45,-341.76 284.52,-349.78 294.93,-347.83 291.45,-341.76"/>
<text text-anchor="middle" x="366.5" y="-202.8" font-family="Times,serif" font-size="14.00"> $&gt; </text>
</g>
<!-- Tcp&#45;&gt;Idle -->
<g id="edge13" class="edge">
<title>Tcp&#45;&gt;Idle</title>
<path fill="none" stroke="red" d="M163.7,-57.11C148,-72.3 129.39,-93.37 119,-116 103.44,-149.87 109.67,-161.82 107,-199 102.64,-259.59 117.78,-276.2 146,-330 147.69,-333.23 149.59,-336.48 151.61,-339.68"/>
<polygon fill="red" stroke="red" points="148.7,-341.62 157.16,-348 154.52,-337.74 148.7,-341.62"/>
<text text-anchor="middle" x="122.5" y="-202.8" font-family="Times,serif" font-size="14.00"> $&gt; </text>
</g>
</g>
</svg>
