<?xml version="1.0" encoding="UTF-8" standalone="no"?>
<!DOCTYPE svg PUBLIC "-//W3C//DTD SVG 1.1//EN"
 "http://www.w3.org/Graphics/SVG/1.1/DTD/svg11.dtd">
<!-- Generated by graphviz version 14.1.5 (20260411.2331)
 -->
<!-- Title: RxPipeline Pages: 1 -->
<svg width="330pt" height="485pt"
 viewBox="0.00 0.00 330.00 485.00" xmlns="http://www.w3.org/2000/svg" xmlns:xlink="http://www.w3.org/1999/xlink">
<g id="graph0" class="graph" transform="scale(1 1) rotate(0) translate(4 480.9)">
<title>RxPipeline</title>
<polygon fill="white" stroke="none" points="-4,4 -4,-480.9 325.81,-480.9 325.81,4 -4,4"/>
<!-- Entry -->
<g id="node1" class="node">
<title>Entry</title>
<ellipse fill="black" stroke="#00688b" cx="161" cy="-469.7" rx="7.2" ry="7.2"/>
</g>
<!-- Idle -->
<g id="node2" class="node">
<title>Idle</title>
<path fill="azure" stroke="none" d="M233.12,-425.5C233.12,-425.5 88.88,-425.5 88.88,-425.5 82.88,-425.5 76.88,-419.5 76.88,-413.5 76.88,-413.5 76.88,-370.5 76.88,-370.5 76.88,-364.5 82.88,-358.5 88.88,-358.5 88.88,-358.5 233.12,-358.5 233.12,-358.5 239.12,-358.5 245.12,-364.5 245.12,-370.5 245.12,-370.5 245.12,-413.5 245.12,-413.5 245.12,-419.5 239.12,-425.5 233.12,-425.5"/>
<text xml:space="preserve" text-anchor="start" x="149.75" y="-405.2" font-family="Times,serif" font-weight="bold" font-size="14.00">Idle</text>
<text xml:space="preserve" text-anchor="start" x="84.88" y="-380" font-family="Times,serif" font-size="10.00">deliver(pkt: crate::net::RxDescriptor)</text>
<text xml:space="preserve" text-anchor="start" x="147.5" y="-368.75" font-family="Times,serif" font-size="10.00"> &#160;&#160;&#160;&#160;&#160;&#160;&#160;&#160;&#160;&#160;&#160;</text>
<polygon fill="#00688b" stroke="#00688b" points="76.88,-395 76.88,-395 245.12,-395 245.12,-395 76.88,-395"/>
<path fill="none" stroke="#00688b" d="M88.88,-358.5C88.88,-358.5 233.12,-358.5 233.12,-358.5 239.12,-358.5 245.12,-364.5 245.12,-370.5 245.12,-370.5 245.12,-413.5 245.12,-413.5 245.12,-419.5 239.12,-425.5 233.12,-425.5 233.12,-425.5 88.88,-425.5 88.88,-425.5 82.88,-425.5 76.88,-419.5 76.88,-413.5 76.88,-413.5 76.88,-370.5 76.88,-370.5 76.88,-364.5 82.88,-358.5 88.88,-358.5"/>
</g>
<!-- Entry&#45;&gt;Idle -->
<g id="edge1" class="edge">
<title>Entry&#45;&gt;Idle</title>
<path fill="none" stroke="red" d="M161,-462.25C161,-456.27 161,-446.82 161,-436.8"/>
<polygon fill="red" stroke="red" points="164.5,-436.91 161,-426.91 157.5,-436.91 164.5,-436.91"/>
</g>
<!-- Classifying -->
<g id="node3" class="node">
<title>Classifying</title>
<path fill="azure" stroke="none" d="M234.88,-306C234.88,-306 179.12,-306 179.12,-306 173.12,-306 167.12,-300 167.12,-294 167.12,-294 167.12,-251 167.12,-251 167.12,-245 173.12,-239 179.12,-239 179.12,-239 234.88,-239 234.88,-239 240.88,-239 246.88,-245 246.88,-251 246.88,-251 246.88,-294 246.88,-294 246.88,-300 240.88,-306 234.88,-306"/>
<text xml:space="preserve" text-anchor="start" x="175.12" y="-285.7" font-family="Times,serif" font-weight="bold" font-size="14.00">Classifying</text>
<text xml:space="preserve" text-anchor="start" x="175.12" y="-260.5" font-family="Times,serif" font-size="10.00">$&gt;()</text>
<text xml:space="preserve" text-anchor="start" x="175.12" y="-249.25" font-family="Times,serif" font-size="10.00"> &#160;&#160;&#160;&#160;&#160;&#160;&#160;&#160;&#160;&#160;&#160;</text>
<polygon fill="#00688b" stroke="#00688b" points="167.12,-275.5 167.12,-275.5 246.88,-275.5 246.88,-275.5 167.12,-275.5"/>
<path fill="none" stroke="#00688b" d="M179.12,-239C179.12,-239 234.88,-239 234.88,-239 240.88,-239 246.88,-245 246.88,-251 246.88,-251 246.88,-294 246.88,-294 246.88,-300 240.88,-306 234.88,-306 234.88,-306 179.12,-306 179.12,-306 173.12,-306 167.12,-300 167.12,-294 167.12,-294 167.12,-251 167.12,-251 167.12,-245 173.12,-239 179.12,-239"/>
</g>
<!-- Idle&#45;&gt;Classifying -->
<g id="edge2" class="edge">
<title>Idle&#45;&gt;Classifying</title>
<path fill="none" stroke="red" d="M177.11,-358.67C179.87,-352.69 182.62,-346.45 185,-340.5 188.06,-332.84 191.04,-324.57 193.76,-316.55"/>
<polygon fill="red" stroke="red" points="197.01,-317.86 196.82,-307.27 190.36,-315.67 197.01,-317.86"/>
<text xml:space="preserve" text-anchor="middle" x="213.61" y="-327.2" font-family="Times,serif" font-size="14.00"> deliver </text>
</g>
<!-- Classifying&#45;&gt;Idle -->
<g id="edge5" class="edge">
<title>Classifying&#45;&gt;Idle</title>
<path fill="none" stroke="red" d="M169.33,-305.95C164.93,-311.5 161.09,-317.57 158.5,-324 155.58,-331.26 154.37,-339.32 154.16,-347.26"/>
<polygon fill="red" stroke="red" points="150.66,-347.31 154.46,-357.2 157.66,-347.1 150.66,-347.31"/>
<text xml:space="preserve" text-anchor="middle" x="169.75" y="-327.2" font-family="Times,serif" font-size="14.00"> $&gt; </text>
</g>
<!-- Arp -->
<g id="node4" class="node">
<title>Arp</title>
<path fill="azure" stroke="none" d="M151,-186.5C151,-186.5 121,-186.5 121,-186.5 115,-186.5 109,-180.5 109,-174.5 109,-174.5 109,-131.5 109,-131.5 109,-125.5 115,-119.5 121,-119.5 121,-119.5 151,-119.5 151,-119.5 157,-119.5 163,-125.5 163,-131.5 163,-131.5 163,-174.5 163,-174.5 163,-180.5 157,-186.5 151,-186.5"/>
<text xml:space="preserve" text-anchor="start" x="124.38" y="-166.2" font-family="Times,serif" font-weight="bold" font-size="14.00">Arp</text>
<text xml:space="preserve" text-anchor="start" x="122.5" y="-141" font-family="Times,serif" font-size="10.00">$&gt;()</text>
<text xml:space="preserve" text-anchor="start" x="122.5" y="-129.75" font-family="Times,serif" font-size="10.00"> &#160;&#160;&#160;&#160;&#160;&#160;&#160;&#160;&#160;&#160;&#160;</text>
<polygon fill="#00688b" stroke="#00688b" points="114.5,-156 114.5,-156 157.5,-156 157.5,-156 114.5,-156"/>
<path fill="none" stroke="#00688b" d="M126.5,-119.5C126.5,-119.5 145.5,-119.5 145.5,-119.5 151.5,-119.5 157.5,-125.5 157.5,-131.5 157.5,-131.5 157.5,-174.5 157.5,-174.5 157.5,-180.5 151.5,-186.5 145.5,-186.5 145.5,-186.5 126.5,-186.5 126.5,-186.5 120.5,-186.5 114.5,-180.5 114.5,-174.5 114.5,-174.5 114.5,-131.5 114.5,-131.5 114.5,-125.5 120.5,-119.5 126.5,-119.5"/>
</g>
<!-- Classifying&#45;&gt;Arp -->
<g id="edge3" class="edge">
<title>Classifying&#45;&gt;Arp</title>
<path fill="none" stroke="red" d="M187.41,-239.08C179.34,-225.73 169.89,-210.08 161.3,-195.87"/>
<polygon fill="red" stroke="red" points="164.48,-194.36 156.31,-187.61 158.48,-197.98 164.48,-194.36"/>
<text xml:space="preserve" text-anchor="middle" x="187" y="-207.7" font-family="Times,serif" font-size="14.00"> $&gt; </text>
</g>
<!-- Ipv4 -->
<g id="node5" class="node">
<title>Ipv4</title>
<path fill="azure" stroke="none" d="M223,-186.5C223,-186.5 193,-186.5 193,-186.5 187,-186.5 181,-180.5 181,-174.5 181,-174.5 181,-131.5 181,-131.5 181,-125.5 187,-119.5 193,-119.5 193,-119.5 223,-119.5 223,-119.5 229,-119.5 235,-125.5 235,-131.5 235,-131.5 235,-174.5 235,-174.5 235,-180.5 229,-186.5 223,-186.5"/>
<text xml:space="preserve" text-anchor="start" x="194.88" y="-166.2" font-family="Times,serif" font-weight="bold" font-size="14.00">Ipv4</text>
<text xml:space="preserve" text-anchor="start" x="194.5" y="-141" font-family="Times,serif" font-size="10.00">$&gt;()</text>
<text xml:space="preserve" text-anchor="start" x="194.5" y="-129.75" font-family="Times,serif" font-size="10.00"> &#160;&#160;&#160;&#160;&#160;&#160;&#160;&#160;&#160;&#160;&#160;</text>
<polygon fill="#00688b" stroke="#00688b" points="186.5,-156 186.5,-156 229.5,-156 229.5,-156 186.5,-156"/>
<path fill="none" stroke="#00688b" d="M198.5,-119.5C198.5,-119.5 217.5,-119.5 217.5,-119.5 223.5,-119.5 229.5,-125.5 229.5,-131.5 229.5,-131.5 229.5,-174.5 229.5,-174.5 229.5,-180.5 223.5,-186.5 217.5,-186.5 217.5,-186.5 198.5,-186.5 198.5,-186.5 192.5,-186.5 186.5,-180.5 186.5,-174.5 186.5,-174.5 186.5,-131.5 186.5,-131.5 186.5,-125.5 192.5,-119.5 198.5,-119.5"/>
</g>
<!-- Classifying&#45;&gt;Ipv4 -->
<g id="edge4" class="edge">
<title>Classifying&#45;&gt;Ipv4</title>
<path fill="none" stroke="red" d="M207.28,-239.08C207.39,-226.24 207.51,-211.28 207.63,-197.52"/>
<polygon fill="red" stroke="red" points="211.13,-197.86 207.71,-187.83 204.13,-197.8 211.13,-197.86"/>
<text xml:space="preserve" text-anchor="middle" x="218.81" y="-207.7" font-family="Times,serif" font-size="14.00"> $&gt; </text>
</g>
<!-- Arp&#45;&gt;Idle -->
<g id="edge6" class="edge">
<title>Arp&#45;&gt;Idle</title>
<path fill="none" stroke="red" d="M133.13,-186.22C131.03,-217.13 129.48,-265.01 135.5,-306 137.54,-319.93 141.38,-334.75 145.47,-348.05"/>
<polygon fill="red" stroke="red" points="142.07,-348.92 148.46,-357.37 148.73,-346.78 142.07,-348.92"/>
<text xml:space="preserve" text-anchor="middle" x="146.75" y="-267.45" font-family="Times,serif" font-size="14.00"> $&gt; </text>
</g>
<!-- Ipv4&#45;&gt;Idle -->
<g id="edge10" class="edge">
<title>Ipv4&#45;&gt;Idle</title>
<path fill="none" stroke="red" d="M231.39,-186.2C241.03,-201.42 251.09,-220.31 256,-239 263.57,-267.8 262.41,-276.92 256,-306 252.36,-322.51 251.12,-327.77 240,-340.5 236.66,-344.33 232.95,-347.97 229.03,-351.42"/>
<polygon fill="red" stroke="red" points="226.86,-348.68 221.31,-357.7 231.27,-354.11 226.86,-348.68"/>
<text xml:space="preserve" text-anchor="middle" x="272.5" y="-267.45" font-family="Times,serif" font-size="14.00"> $&gt; </text>
</g>
<!-- Icmp -->
<g id="node6" class="node">
<title>Icmp</title>
<path fill="azure" stroke="none" d="M42,-67C42,-67 12,-67 12,-67 6,-67 0,-61 0,-55 0,-55 0,-12 0,-12 0,-6 6,0 12,0 12,0 42,0 42,0 48,0 54,-6 54,-12 54,-12 54,-55 54,-55 54,-61 48,-67 42,-67"/>
<text xml:space="preserve" text-anchor="start" x="11.62" y="-46.7" font-family="Times,serif" font-weight="bold" font-size="14.00">Icmp</text>
<text xml:space="preserve" text-anchor="start" x="11.62" y="-21.5" font-family="Times,serif" font-size="10.00">$&gt;()</text>
<text xml:space="preserve" text-anchor="start" x="11.62" y="-10.25" font-family="Times,serif" font-size="10.00"> &#160;&#160;&#160;&#160;&#160;&#160;&#160;&#160;&#160;&#160;&#160;</text>
<polygon fill="#00688b" stroke="#00688b" points="3.62,-36.5 3.62,-36.5 50.38,-36.5 50.38,-36.5 3.62,-36.5"/>
<path fill="none" stroke="#00688b" d="M15.63,0C15.63,0 38.38,0 38.38,0 44.38,0 50.38,-6 50.38,-12 50.38,-12 50.38,-55 50.38,-55 50.38,-61 44.38,-67 38.38,-67 38.38,-67 15.62,-67 15.62,-67 9.62,-67 3.62,-61 3.62,-55 3.62,-55 3.62,-12 3.62,-12 3.62,-6 9.62,0 15.63,0"/>
</g>
<!-- Ipv4&#45;&gt;Icmp -->
<g id="edge7" class="edge">
<title>Ipv4&#45;&gt;Icmp</title>
<path fill="none" stroke="red" d="M181.38,-126.89C178.29,-124.3 175.12,-121.79 172,-119.5 137.15,-93.97 94.12,-69.54 64.02,-53.48"/>
<polygon fill="red" stroke="red" points="65.76,-50.44 55.28,-48.86 62.49,-56.63 65.76,-50.44"/>
<text xml:space="preserve" text-anchor="middle" x="156.8" y="-88.2" font-family="Times,serif" font-size="14.00"> $&gt; </text>
</g>
<!-- Udp -->
<g id="node7" class="node">
<title>Udp</title>
<path fill="azure" stroke="none" d="M264,-67C264,-67 234,-67 234,-67 228,-67 222,-61 222,-55 222,-55 222,-12 222,-12 222,-6 228,0 234,0 234,0 264,0 264,0 270,0 276,-6 276,-12 276,-12 276,-55 276,-55 276,-61 270,-67 264,-67"/>
<text xml:space="preserve" text-anchor="start" x="236.62" y="-46.7" font-family="Times,serif" font-weight="bold" font-size="14.00">Udp</text>
<text xml:space="preserve" text-anchor="start" x="235.5" y="-21.5" font-family="Times,serif" font-size="10.00">$&gt;()</text>
<text xml:space="preserve" text-anchor="start" x="235.5" y="-10.25" font-family="Times,serif" font-size="10.00"> &#160;&#160;&#160;&#160;&#160;&#160;&#160;&#160;&#160;&#160;&#160;</text>
<polygon fill="#00688b" stroke="#00688b" points="227.5,-36.5 227.5,-36.5 270.5,-36.5 270.5,-36.5 227.5,-36.5"/>
<path fill="none" stroke="#00688b" d="M239.5,0C239.5,0 258.5,0 258.5,0 264.5,0 270.5,-6 270.5,-12 270.5,-12 270.5,-55 270.5,-55 270.5,-61 264.5,-67 258.5,-67 258.5,-67 239.5,-67 239.5,-67 233.5,-67 227.5,-61 227.5,-55 227.5,-55 227.5,-12 227.5,-12 227.5,-6 233.5,0 239.5,0"/>
</g>
<!-- Ipv4&#45;&gt;Udp -->
<g id="edge9" class="edge">
<title>Ipv4&#45;&gt;Udp</title>
<path fill="none" stroke="red" d="M219.31,-119.58C223.84,-106.61 229.12,-91.48 233.96,-77.61"/>
<polygon fill="red" stroke="red" points="237.24,-78.84 237.23,-68.24 230.63,-76.53 237.24,-78.84"/>
<text xml:space="preserve" text-anchor="middle" x="242.2" y="-88.2" font-family="Times,serif" font-size="14.00"> $&gt; </text>
</g>
<!-- Tcp -->
<g id="node8" class="node">
<title>Tcp</title>
<path fill="azure" stroke="none" d="M182,-67C182,-67 152,-67 152,-67 146,-67 140,-61 140,-55 140,-55 140,-12 140,-12 140,-6 146,0 152,0 152,0 182,0 182,0 188,0 194,-6 194,-12 194,-12 194,-55 194,-55 194,-61 188,-67 182,-67"/>
<text xml:space="preserve" text-anchor="start" x="156.12" y="-46.7" font-family="Times,serif" font-weight="bold" font-size="14.00">Tcp</text>
<text xml:space="preserve" text-anchor="start" x="153.5" y="-21.5" font-family="Times,serif" font-size="10.00">$&gt;()</text>
<text xml:space="preserve" text-anchor="start" x="153.5" y="-10.25" font-family="Times,serif" font-size="10.00"> &#160;&#160;&#160;&#160;&#160;&#160;&#160;&#160;&#160;&#160;&#160;</text>
<polygon fill="#00688b" stroke="#00688b" points="145.5,-36.5 145.5,-36.5 188.5,-36.5 188.5,-36.5 145.5,-36.5"/>
<path fill="none" stroke="#00688b" d="M157.5,0C157.5,0 176.5,0 176.5,0 182.5,0 188.5,-6 188.5,-12 188.5,-12 188.5,-55 188.5,-55 188.5,-61 182.5,-67 176.5,-67 176.5,-67 157.5,-67 157.5,-67 151.5,-67 145.5,-61 145.5,-55 145.5,-55 145.5,-12 145.5,-12 145.5,-6 151.5,0 157.5,0"/>
</g>
<!-- Ipv4&#45;&gt;Tcp -->
<g id="edge8" class="edge">
<title>Ipv4&#45;&gt;Tcp</title>
<path fill="none" stroke="red" d="M196.69,-119.58C192.16,-106.61 186.88,-91.48 182.04,-77.61"/>
<polygon fill="red" stroke="red" points="185.37,-76.53 178.77,-68.24 178.76,-78.84 185.37,-76.53"/>
<text xml:space="preserve" text-anchor="middle" x="201.2" y="-88.2" font-family="Times,serif" font-size="14.00"> $&gt; </text>
</g>
<!-- Icmp&#45;&gt;Idle -->
<g id="edge11" class="edge">
<title>Icmp&#45;&gt;Idle</title>
<path fill="none" stroke="red" d="M29.7,-66.91C35.24,-119.81 51.18,-226.77 94,-306 102.2,-321.18 113.14,-336.4 123.79,-349.69"/>
<polygon fill="red" stroke="red" points="121.07,-351.88 130.13,-357.38 126.48,-347.43 121.07,-351.88"/>
<text xml:space="preserve" text-anchor="middle" x="70.27" y="-207.7" font-family="Times,serif" font-size="14.00"> $&gt; </text>
</g>
<!-- Udp&#45;&gt;Idle -->
<g id="edge12" class="edge">
<title>Udp&#45;&gt;Idle</title>
<path fill="none" stroke="red" d="M263.3,-66.83C284.15,-118.73 317.37,-223.2 288,-306 281.26,-324.99 267.35,-340.19 251.11,-352.18"/>
<polygon fill="red" stroke="red" points="249.39,-349.12 243.12,-357.66 253.35,-354.89 249.39,-349.12"/>
<text xml:space="preserve" text-anchor="middle" x="310.56" y="-207.7" font-family="Times,serif" font-size="14.00"> $&gt; </text>
</g>
<!-- Tcp&#45;&gt;Idle -->
<g id="edge13" class="edge">
<title>Tcp&#45;&gt;Idle</title>
<path fill="none" stroke="red" d="M140.1,-59.23C125.15,-74.86 108,-96.42 100,-119.5 72.64,-198.4 110.04,-294.54 137.22,-348.66"/>
<polygon fill="red" stroke="red" points="133.95,-349.95 141.64,-357.24 140.17,-346.74 133.95,-349.95"/>
<text xml:space="preserve" text-anchor="middle" x="104.66" y="-207.7" font-family="Times,serif" font-size="14.00"> $&gt; </text>
</g>
</g>
</svg>
