<?xml version="1.0" encoding="UTF-8" standalone="no"?>
<!DOCTYPE svg PUBLIC "-//W3C//DTD SVG 1.1//EN"
 "http://www.w3.org/Graphics/SVG/1.1/DTD/svg11.dtd">
<!-- Generated by graphviz version 14.1.5 (20260411.2331)
 -->
<!-- Title: Scheduler Pages: 1 -->
<svg width="156pt" height="268pt"
 viewBox="0.00 0.00 156.00 268.00" xmlns="http://www.w3.org/2000/svg" xmlns:xlink="http://www.w3.org/1999/xlink">
<g id="graph0" class="graph" transform="scale(1 1) rotate(0) translate(4 264.4)">
<title>Scheduler</title>
<polygon fill="white" stroke="none" points="-4,4 -4,-264.4 152.34,-264.4 152.34,4 -4,4"/>
<!-- Entry -->
<g id="node1" class="node">
<title>Entry</title>
<ellipse fill="black" stroke="#00688b" cx="44.9" cy="-253.2" rx="7.2" ry="7.2"/>
</g>
<!-- Idle -->
<g id="node2" class="node">
<title>Idle</title>
<path fill="azure" stroke="none" d="M66.02,-209C66.02,-209 23.77,-209 23.77,-209 17.77,-209 11.77,-203 11.77,-197 11.77,-197 11.77,-142.75 11.77,-142.75 11.77,-136.75 17.77,-130.75 23.77,-130.75 23.77,-130.75 66.02,-130.75 66.02,-130.75 72.02,-130.75 78.02,-136.75 78.02,-142.75 78.02,-142.75 78.02,-197 78.02,-197 78.02,-203 72.02,-209 66.02,-209"/>
<text xml:space="preserve" text-anchor="start" x="33.65" y="-188.7" font-family="Times,serif" font-weight="bold" font-size="14.00">Idle</text>
<text xml:space="preserve" text-anchor="start" x="19.77" y="-163.5" font-family="Times,serif" font-size="10.00">task_ready()</text>
<text xml:space="preserve" text-anchor="start" x="19.77" y="-152.25" font-family="Times,serif" font-size="10.00">is_idle()</text>
<text xml:space="preserve" text-anchor="start" x="31.4" y="-141" font-family="Times,serif" font-size="10.00"> &#160;&#160;&#160;&#160;&#160;&#160;&#160;&#160;&#160;&#160;&#160;</text>
<polygon fill="#00688b" stroke="#00688b" points="11.77,-178.5 11.77,-178.5 78.02,-178.5 78.02,-178.5 11.77,-178.5"/>
<path fill="none" stroke="#00688b" d="M23.77,-130.75C23.77,-130.75 66.02,-130.75 66.02,-130.75 72.02,-130.75 78.02,-136.75 78.02,-142.75 78.02,-142.75 78.02,-197 78.02,-197 78.02,-203 72.02,-209 66.02,-209 66.02,-209 23.77,-209 23.77,-209 17.77,-209 11.77,-203 11.77,-197 11.77,-197 11.77,-142.75 11.77,-142.75 11.77,-136.75 17.77,-130.75 23.77,-130.75"/>
</g>
<!-- Entry&#45;&gt;Idle -->
<g id="edge1" class="edge">
<title>Entry&#45;&gt;Idle</title>
<path fill="none" stroke="red" d="M44.9,-245.54C44.9,-239.53 44.9,-230.07 44.9,-219.88"/>
<polygon fill="red" stroke="red" points="48.4,-220.19 44.9,-210.19 41.4,-220.19 48.4,-220.19"/>
</g>
<!-- Active -->
<g id="node3" class="node">
<title>Active</title>
<path fill="azure" stroke="none" d="M71.27,-78.25C71.27,-78.25 18.52,-78.25 18.52,-78.25 12.52,-78.25 6.52,-72.25 6.52,-66.25 6.52,-66.25 6.52,-12 6.52,-12 6.52,-6 12.52,0 18.52,0 18.52,0 71.27,0 71.27,0 77.27,0 83.27,-6 83.27,-12 83.27,-12 83.27,-66.25 83.27,-66.25 83.27,-72.25 77.27,-78.25 71.27,-78.25"/>
<text xml:space="preserve" text-anchor="start" x="26.52" y="-57.95" font-family="Times,serif" font-weight="bold" font-size="14.00">Active</text>
<text xml:space="preserve" text-anchor="start" x="14.52" y="-32.75" font-family="Times,serif" font-size="10.00">task_ready()</text>
<text xml:space="preserve" text-anchor="start" x="14.52" y="-21.5" font-family="Times,serif" font-size="10.00">task_unready()</text>
<text xml:space="preserve" text-anchor="start" x="31.4" y="-10.25" font-family="Times,serif" font-size="10.00"> &#160;&#160;&#160;&#160;&#160;&#160;&#160;&#160;&#160;&#160;&#160;</text>
<polygon fill="#00688b" stroke="#00688b" points="6.52,-47.75 6.52,-47.75 83.27,-47.75 83.27,-47.75 6.52,-47.75"/>
<path fill="none" stroke="#00688b" d="M18.52,0C18.52,0 71.27,0 71.27,0 77.27,0 83.27,-6 83.27,-12 83.27,-12 83.27,-66.25 83.27,-66.25 83.27,-72.25 77.27,-78.25 71.27,-78.25 71.27,-78.25 18.52,-78.25 18.52,-78.25 12.52,-78.25 6.52,-72.25 6.52,-66.25 6.52,-66.25 6.52,-12 6.52,-12 6.52,-6 12.52,0 18.52,0"/>
</g>
<!-- Idle&#45;&gt;Active -->
<g id="edge2" class="edge">
<title>Idle&#45;&gt;Active</title>
<path fill="none" stroke="red" d="M11.83,-132.5C7.76,-126.29 4.22,-119.61 1.9,-112.75 -0.92,-104.45 -0.07,-96.07 2.88,-88.09"/>
<polygon fill="red" stroke="red" points="5.96,-89.77 7.18,-79.24 -0.34,-86.71 5.96,-89.77"/>
<text xml:space="preserve" text-anchor="middle" x="34.9" y="-99.45" font-family="Times,serif" font-size="14.00"> task_ready </text>
</g>
<!-- Active&#45;&gt;Idle -->
<g id="edge3" class="edge">
<title>Active&#45;&gt;Idle</title>
<path fill="none" stroke="red" d="M62.77,-78.16C64.89,-84.1 66.72,-90.26 67.9,-96.25 69.43,-104.01 68.99,-112.11 67.41,-119.97"/>
<polygon fill="red" stroke="red" points="64.09,-118.82 64.91,-129.39 70.86,-120.62 64.09,-118.82"/>
<text xml:space="preserve" text-anchor="middle" x="108.59" y="-99.45" font-family="Times,serif" font-size="14.00"> task_unready </text>
</g>
</g>
</svg>
