<?xml version="1.0" encoding="UTF-8" standalone="no"?>
<!DOCTYPE svg PUBLIC "-//W3C//DTD SVG 1.1//EN"
 "http://www.w3.org/Graphics/SVG/1.1/DTD/svg11.dtd">
<!-- Generated by graphviz version 2.43.0 (0)
 -->
<!-- Title: Scheduler Pages: 1 -->
<svg width="203pt" height="262pt"
 viewBox="0.00 0.00 203.38 262.00" xmlns="http://www.w3.org/2000/svg" xmlns:xlink="http://www.w3.org/1999/xlink">
<g id="graph0" class="graph" transform="scale(1 1) rotate(0) translate(4 258)">
<title>Scheduler</title>
<polygon fill="white" stroke="transparent" points="-4,4 -4,-258 199.38,-258 199.38,4 -4,4"/>
<!-- Entry -->
<g id="node1" class="node">
<title>Entry</title>
<ellipse fill="black" stroke="#00688b" cx="56.38" cy="-247" rx="7" ry="7"/>
</g>
<!-- Idle -->
<g id="node2" class="node">
<title>Idle</title>
<path fill="azure" stroke="transparent" d="M84.38,-203C84.38,-203 28.38,-203 28.38,-203 22.38,-203 16.38,-197 16.38,-191 16.38,-191 16.38,-139 16.38,-139 16.38,-133 22.38,-127 28.38,-127 28.38,-127 84.38,-127 84.38,-127 90.38,-127 96.38,-133 96.38,-139 96.38,-139 96.38,-191 96.38,-191 96.38,-197 90.38,-203 84.38,-203"/>
<text text-anchor="start" x="40.88" y="-184.8" font-family="Times,serif" font-weight="bold" font-size="14.00">Idle</text>
<text text-anchor="start" x="24.38" y="-160" font-family="Times,serif" font-size="10.00">task_ready()</text>
<text text-anchor="start" x="24.38" y="-149" font-family="Times,serif" font-size="10.00">is_idle()</text>
<text text-anchor="start" x="37.88" y="-138" font-family="Times,serif" font-size="10.00"> &#160;&#160;&#160;&#160;&#160;&#160;&#160;&#160;&#160;&#160;&#160;</text>
<polygon fill="#00688b" stroke="#00688b" points="16.38,-174 16.38,-174 96.38,-174 96.38,-174 16.38,-174"/>
<path fill="none" stroke="#00688b" d="M28.38,-127C28.38,-127 84.38,-127 84.38,-127 90.38,-127 96.38,-133 96.38,-139 96.38,-139 96.38,-191 96.38,-191 96.38,-197 90.38,-203 84.38,-203 84.38,-203 28.38,-203 28.38,-203 22.38,-203 16.38,-197 16.38,-191 16.38,-191 16.38,-139 16.38,-139 16.38,-133 22.38,-127 28.38,-127"/>
</g>
<!-- Entry&#45;&gt;Idle -->
<g id="edge1" class="edge">
<title>Entry&#45;&gt;Idle</title>
<path fill="none" stroke="red" d="M56.38,-239.99C56.38,-233.98 56.38,-224.15 56.38,-213.59"/>
<polygon fill="red" stroke="red" points="59.88,-213.33 56.38,-203.33 52.88,-213.33 59.88,-213.33"/>
</g>
<!-- Active -->
<g id="node3" class="node">
<title>Active</title>
<path fill="azure" stroke="transparent" d="M90.88,-76C90.88,-76 21.88,-76 21.88,-76 15.88,-76 9.88,-70 9.88,-64 9.88,-64 9.88,-12 9.88,-12 9.88,-6 15.88,0 21.88,0 21.88,0 90.88,0 90.88,0 96.88,0 102.88,-6 102.88,-12 102.88,-12 102.88,-64 102.88,-64 102.88,-70 96.88,-76 90.88,-76"/>
<text text-anchor="start" x="32.38" y="-57.8" font-family="Times,serif" font-weight="bold" font-size="14.00">Active</text>
<text text-anchor="start" x="18.38" y="-33" font-family="Times,serif" font-size="10.00">task_ready()</text>
<text text-anchor="start" x="18.38" y="-22" font-family="Times,serif" font-size="10.00">task_unready()</text>
<text text-anchor="start" x="38.38" y="-11" font-family="Times,serif" font-size="10.00"> &#160;&#160;&#160;&#160;&#160;&#160;&#160;&#160;&#160;&#160;&#160;</text>
<polygon fill="#00688b" stroke="#00688b" points="10.38,-47 10.38,-47 103.38,-47 103.38,-47 10.38,-47"/>
<path fill="none" stroke="#00688b" d="M21.88,0C21.88,0 90.88,0 90.88,0 96.88,0 102.88,-6 102.88,-12 102.88,-12 102.88,-64 102.88,-64 102.88,-70 96.88,-76 90.88,-76 90.88,-76 21.88,-76 21.88,-76 15.88,-76 9.88,-70 9.88,-64 9.88,-64 9.88,-12 9.88,-12 9.88,-6 15.88,0 21.88,0"/>
</g>
<!-- Idle&#45;&gt;Active -->
<g id="edge2" class="edge">
<title>Idle&#45;&gt;Active</title>
<path fill="none" stroke="red" d="M16.29,-130.97C10.62,-124.33 5.62,-116.93 2.38,-109 -1.24,-100.13 0.11,-91.43 4.23,-83.33"/>
<polygon fill="red" stroke="red" points="7.24,-85.12 9.68,-74.81 1.34,-81.35 7.24,-85.12"/>
<text text-anchor="middle" x="45.88" y="-97.8" font-family="Times,serif" font-size="14.00"> task_ready </text>
</g>
<!-- Active&#45;&gt;Idle -->
<g id="edge3" class="edge">
<title>Active&#45;&gt;Idle</title>
<path fill="none" stroke="red" d="M84.96,-76.24C89.82,-86.58 92.43,-97.99 89.38,-109 88.6,-111.82 87.63,-114.63 86.53,-117.42"/>
<polygon fill="red" stroke="red" points="83.24,-116.2 82.29,-126.75 89.61,-119.09 83.24,-116.2"/>
<text text-anchor="middle" x="142.88" y="-97.8" font-family="Times,serif" font-size="14.00"> task_unready </text>
</g>
</g>
</svg>
