<?xml version="1.0" encoding="UTF-8" standalone="no"?>
<!DOCTYPE svg PUBLIC "-//W3C//DTD SVG 1.1//EN"
 "http://www.w3.org/Graphics/SVG/1.1/DTD/svg11.dtd">
<!-- Generated by graphviz version 14.1.5 (20260411.2331)
 -->
<!-- Title: SerialDriver Pages: 1 -->
<svg width="106pt" height="268pt"
 viewBox="0.00 0.00 106.00 268.00" xmlns="http://www.w3.org/2000/svg" xmlns:xlink="http://www.w3.org/1999/xlink">
<g id="graph0" class="graph" transform="scale(1 1) rotate(0) translate(4 264.4)">
<title>SerialDriver</title>
<polygon fill="white" stroke="none" points="-4,4 -4,-264.4 101.75,-264.4 101.75,4 -4,4"/>
<!-- Entry -->
<g id="node1" class="node">
<title>Entry</title>
<ellipse fill="black" stroke="#00688b" cx="48.88" cy="-253.2" rx="7.2" ry="7.2"/>
</g>
<!-- Uninitialized -->
<g id="node2" class="node">
<title>Uninitialized</title>
<path fill="azure" stroke="none" d="M82,-209C82,-209 15.75,-209 15.75,-209 9.75,-209 3.75,-203 3.75,-197 3.75,-197 3.75,-154 3.75,-154 3.75,-148 9.75,-142 15.75,-142 15.75,-142 82,-142 82,-142 88,-142 94,-148 94,-154 94,-154 94,-197 94,-197 94,-203 88,-209 82,-209"/>
<text xml:space="preserve" text-anchor="start" x="11.75" y="-188.7" font-family="Times,serif" font-weight="bold" font-size="14.00">Uninitialized</text>
<text xml:space="preserve" text-anchor="start" x="11.75" y="-163.5" font-family="Times,serif" font-size="10.00">init()</text>
<text xml:space="preserve" text-anchor="start" x="11.75" y="-152.25" font-family="Times,serif" font-size="10.00"> &#160;&#160;&#160;&#160;&#160;&#160;&#160;&#160;&#160;&#160;&#160;</text>
<polygon fill="#00688b" stroke="#00688b" points="3.75,-178.5 3.75,-178.5 94,-178.5 94,-178.5 3.75,-178.5"/>
<path fill="none" stroke="#00688b" d="M15.75,-142C15.75,-142 82,-142 82,-142 88,-142 94,-148 94,-154 94,-154 94,-197 94,-197 94,-203 88,-209 82,-209 82,-209 15.75,-209 15.75,-209 9.75,-209 3.75,-203 3.75,-197 3.75,-197 3.75,-154 3.75,-154 3.75,-148 9.75,-142 15.75,-142"/>
</g>
<!-- Entry&#45;&gt;Uninitialized -->
<g id="edge1" class="edge">
<title>Entry&#45;&gt;Uninitialized</title>
<path fill="none" stroke="red" d="M48.88,-245.75C48.88,-239.77 48.88,-230.32 48.88,-220.3"/>
<polygon fill="red" stroke="red" points="52.38,-220.41 48.88,-210.41 45.38,-220.41 52.38,-220.41"/>
</g>
<!-- Ready -->
<g id="node3" class="node">
<title>Ready</title>
<path fill="azure" stroke="none" d="M85.75,-89.5C85.75,-89.5 12,-89.5 12,-89.5 6,-89.5 0,-83.5 0,-77.5 0,-77.5 0,-12 0,-12 0,-6 6,0 12,0 12,0 85.75,0 85.75,0 91.75,0 97.75,-6 97.75,-12 97.75,-12 97.75,-77.5 97.75,-77.5 97.75,-83.5 91.75,-89.5 85.75,-89.5"/>
<text xml:space="preserve" text-anchor="start" x="30.5" y="-69.2" font-family="Times,serif" font-weight="bold" font-size="14.00">Ready</text>
<text xml:space="preserve" text-anchor="start" x="8" y="-44" font-family="Times,serif" font-size="10.00">write_byte(b: u8)</text>
<text xml:space="preserve" text-anchor="start" x="8" y="-32.75" font-family="Times,serif" font-size="10.00">write_line(s: String)</text>
<text xml:space="preserve" text-anchor="start" x="8" y="-21.5" font-family="Times,serif" font-size="10.00">is_ready()</text>
<text xml:space="preserve" text-anchor="start" x="35.38" y="-10.25" font-family="Times,serif" font-size="10.00"> &#160;&#160;&#160;&#160;&#160;&#160;&#160;&#160;&#160;&#160;&#160;</text>
<polygon fill="#00688b" stroke="#00688b" points="0,-59 0,-59 97.75,-59 97.75,-59 0,-59"/>
<path fill="none" stroke="#00688b" d="M12,0C12,0 85.75,0 85.75,0 91.75,0 97.75,-6 97.75,-12 97.75,-12 97.75,-77.5 97.75,-77.5 97.75,-83.5 91.75,-89.5 85.75,-89.5 85.75,-89.5 12,-89.5 12,-89.5 6,-89.5 0,-83.5 0,-77.5 0,-77.5 0,-12 0,-12 0,-6 6,0 12,0"/>
</g>
<!-- Uninitialized&#45;&gt;Ready -->
<g id="edge2" class="edge">
<title>Uninitialized&#45;&gt;Ready</title>
<path fill="none" stroke="red" d="M48.88,-142.01C48.88,-129.43 48.88,-114.68 48.88,-100.56"/>
<polygon fill="red" stroke="red" points="52.38,-100.93 48.88,-90.93 45.38,-100.93 52.38,-100.93"/>
<text xml:space="preserve" text-anchor="middle" x="61.62" y="-110.7" font-family="Times,serif" font-size="14.00"> init </text>
</g>
</g>
</svg>
