<?xml version="1.0" encoding="UTF-8" standalone="no"?>
<!DOCTYPE svg PUBLIC "-//W3C//DTD SVG 1.1//EN"
 "http://www.w3.org/Graphics/SVG/1.1/DTD/svg11.dtd">
<!-- Generated by graphviz version 2.43.0 (0)
 -->
<!-- Title: SerialDriver Pages: 1 -->
<svg width="127pt" height="262pt"
 viewBox="0.00 0.00 127.00 262.00" xmlns="http://www.w3.org/2000/svg" xmlns:xlink="http://www.w3.org/1999/xlink">
<g id="graph0" class="graph" transform="scale(1 1) rotate(0) translate(4 258)">
<title>SerialDriver</title>
<polygon fill="white" stroke="transparent" points="-4,4 -4,-258 123,-258 123,4 -4,4"/>
<!-- Entry -->
<g id="node1" class="node">
<title>Entry</title>
<ellipse fill="black" stroke="#00688b" cx="59.5" cy="-247" rx="7" ry="7"/>
</g>
<!-- Uninitialized -->
<g id="node2" class="node">
<title>Uninitialized</title>
<path fill="azure" stroke="transparent" d="M107,-203C107,-203 12,-203 12,-203 6,-203 0,-197 0,-191 0,-191 0,-150 0,-150 0,-144 6,-138 12,-138 12,-138 107,-138 107,-138 113,-138 119,-144 119,-150 119,-150 119,-191 119,-191 119,-197 113,-203 107,-203"/>
<text text-anchor="start" x="8.5" y="-184.3" font-family="Times,serif" font-weight="bold" font-size="14.00">Uninitialized</text>
<text text-anchor="start" x="8.5" y="-159.5" font-family="Times,serif" font-size="10.00">init()</text>
<text text-anchor="start" x="8.5" y="-148.5" font-family="Times,serif" font-size="10.00"> &#160;&#160;&#160;&#160;&#160;&#160;&#160;&#160;&#160;&#160;&#160;</text>
<polygon fill="#00688b" stroke="#00688b" points="0.5,-173.5 0.5,-173.5 119.5,-173.5 119.5,-173.5 0.5,-173.5"/>
<path fill="none" stroke="#00688b" d="M12,-138C12,-138 107,-138 107,-138 113,-138 119,-144 119,-150 119,-150 119,-191 119,-191 119,-197 113,-203 107,-203 107,-203 12,-203 12,-203 6,-203 0,-197 0,-191 0,-191 0,-150 0,-150 0,-144 6,-138 12,-138"/>
</g>
<!-- Entry&#45;&gt;Uninitialized -->
<g id="edge1" class="edge">
<title>Entry&#45;&gt;Uninitialized</title>
<path fill="none" stroke="red" d="M59.5,-239.9C59.5,-233.79 59.5,-223.81 59.5,-213.34"/>
<polygon fill="red" stroke="red" points="63,-213.26 59.5,-203.26 56,-213.26 63,-213.26"/>
</g>
<!-- Ready -->
<g id="node3" class="node">
<title>Ready</title>
<path fill="azure" stroke="transparent" d="M105.5,-87C105.5,-87 13.5,-87 13.5,-87 7.5,-87 1.5,-81 1.5,-75 1.5,-75 1.5,-12 1.5,-12 1.5,-6 7.5,0 13.5,0 13.5,0 105.5,0 105.5,0 111.5,0 117.5,-6 117.5,-12 117.5,-12 117.5,-75 117.5,-75 117.5,-81 111.5,-87 105.5,-87"/>
<text text-anchor="start" x="35" y="-68.3" font-family="Times,serif" font-weight="bold" font-size="14.00">Ready</text>
<text text-anchor="start" x="9.5" y="-43.5" font-family="Times,serif" font-size="10.00">write_byte(b: u8)</text>
<text text-anchor="start" x="9.5" y="-32.5" font-family="Times,serif" font-size="10.00">write_line(s: String)</text>
<text text-anchor="start" x="9.5" y="-21.5" font-family="Times,serif" font-size="10.00">is_ready()</text>
<text text-anchor="start" x="41" y="-10.5" font-family="Times,serif" font-size="10.00"> &#160;&#160;&#160;&#160;&#160;&#160;&#160;&#160;&#160;&#160;&#160;</text>
<polygon fill="#00688b" stroke="#00688b" points="1.5,-57.5 1.5,-57.5 117.5,-57.5 117.5,-57.5 1.5,-57.5"/>
<path fill="none" stroke="#00688b" d="M13.5,0C13.5,0 105.5,0 105.5,0 111.5,0 117.5,-6 117.5,-12 117.5,-12 117.5,-75 117.5,-75 117.5,-81 111.5,-87 105.5,-87 105.5,-87 13.5,-87 13.5,-87 7.5,-87 1.5,-81 1.5,-75 1.5,-75 1.5,-12 1.5,-12 1.5,-6 7.5,0 13.5,0"/>
</g>
<!-- Uninitialized&#45;&gt;Ready -->
<g id="edge2" class="edge">
<title>Uninitialized&#45;&gt;Ready</title>
<path fill="none" stroke="red" d="M59.5,-137.96C59.5,-125.74 59.5,-111.41 59.5,-97.69"/>
<polygon fill="red" stroke="red" points="63,-97.36 59.5,-87.36 56,-97.36 63,-97.36"/>
<text text-anchor="middle" x="76.5" y="-108.8" font-family="Times,serif" font-size="14.00"> init </text>
</g>
</g>
</svg>
