<?xml version="1.0" encoding="UTF-8" standalone="no"?>
<!DOCTYPE svg PUBLIC "-//W3C//DTD SVG 1.1//EN"
 "http://www.w3.org/Graphics/SVG/1.1/DTD/svg11.dtd">
<!-- Generated by graphviz version 14.1.5 (20260411.2331)
 -->
<!-- Title: Shell Pages: 1 -->
<svg width="107pt" height="313pt"
 viewBox="0.00 0.00 107.00 313.00" xmlns="http://www.w3.org/2000/svg" xmlns:xlink="http://www.w3.org/1999/xlink">
<g id="graph0" class="graph" transform="scale(1 1) rotate(0) translate(4 309.4)">
<title>Shell</title>
<polygon fill="white" stroke="none" points="-4,4 -4,-309.4 103.16,-309.4 103.16,4 -4,4"/>
<!-- Entry -->
<g id="node1" class="node">
<title>Entry</title>
<ellipse fill="black" stroke="#00688b" cx="41" cy="-298.2" rx="7.2" ry="7.2"/>
</g>
<!-- Prompting -->
<g id="node2" class="node">
<title>Prompting</title>
<path fill="azure" stroke="none" d="M70,-254C70,-254 12,-254 12,-254 6,-254 0,-248 0,-242 0,-242 0,-165.25 0,-165.25 0,-159.25 6,-153.25 12,-153.25 12,-153.25 70,-153.25 70,-153.25 76,-153.25 82,-159.25 82,-165.25 82,-165.25 82,-242 82,-242 82,-248 76,-254 70,-254"/>
<text xml:space="preserve" text-anchor="start" x="9.5" y="-233.7" font-family="Times,serif" font-weight="bold" font-size="14.00">Prompting</text>
<text xml:space="preserve" text-anchor="start" x="8" y="-208.5" font-family="Times,serif" font-size="10.00">$&gt;()</text>
<text xml:space="preserve" text-anchor="start" x="8" y="-197.25" font-family="Times,serif" font-size="10.00">line(input: &amp;str)</text>
<text xml:space="preserve" text-anchor="start" x="8" y="-186" font-family="Times,serif" font-size="10.00">interrupt()</text>
<text xml:space="preserve" text-anchor="start" x="8" y="-174.75" font-family="Times,serif" font-size="10.00">is_done()</text>
<text xml:space="preserve" text-anchor="start" x="27.5" y="-163.5" font-family="Times,serif" font-size="10.00"> &#160;&#160;&#160;&#160;&#160;&#160;&#160;&#160;&#160;&#160;&#160;</text>
<polygon fill="#00688b" stroke="#00688b" points="0,-223.5 0,-223.5 82,-223.5 82,-223.5 0,-223.5"/>
<path fill="none" stroke="#00688b" d="M12,-153.25C12,-153.25 70,-153.25 70,-153.25 76,-153.25 82,-159.25 82,-165.25 82,-165.25 82,-242 82,-242 82,-248 76,-254 70,-254 70,-254 12,-254 12,-254 6,-254 0,-248 0,-242 0,-242 0,-165.25 0,-165.25 0,-159.25 6,-153.25 12,-153.25"/>
</g>
<!-- Entry&#45;&gt;Prompting -->
<g id="edge1" class="edge">
<title>Entry&#45;&gt;Prompting</title>
<path fill="none" stroke="red" d="M41,-290.54C41,-284.64 41,-275.36 41,-265.06"/>
<polygon fill="red" stroke="red" points="44.5,-265.09 41,-255.09 37.5,-265.09 44.5,-265.09"/>
</g>
<!-- Exiting -->
<g id="node3" class="node">
<title>Exiting</title>
<path fill="azure" stroke="none" d="M70,-100.75C70,-100.75 12,-100.75 12,-100.75 6,-100.75 0,-94.75 0,-88.75 0,-88.75 0,-12 0,-12 0,-6 6,0 12,0 12,0 70,0 70,0 76,0 82,-6 82,-12 82,-12 82,-88.75 82,-88.75 82,-94.75 76,-100.75 70,-100.75"/>
<text xml:space="preserve" text-anchor="start" x="20" y="-80.45" font-family="Times,serif" font-weight="bold" font-size="14.00">Exiting</text>
<text xml:space="preserve" text-anchor="start" x="8" y="-55.25" font-family="Times,serif" font-size="10.00">$&gt;()</text>
<text xml:space="preserve" text-anchor="start" x="8" y="-44" font-family="Times,serif" font-size="10.00">line(input: &amp;str)</text>
<text xml:space="preserve" text-anchor="start" x="8" y="-32.75" font-family="Times,serif" font-size="10.00">interrupt()</text>
<text xml:space="preserve" text-anchor="start" x="8" y="-21.5" font-family="Times,serif" font-size="10.00">is_done()</text>
<text xml:space="preserve" text-anchor="start" x="27.5" y="-10.25" font-family="Times,serif" font-size="10.00"> &#160;&#160;&#160;&#160;&#160;&#160;&#160;&#160;&#160;&#160;&#160;</text>
<polygon fill="#00688b" stroke="#00688b" points="0,-70.25 0,-70.25 82,-70.25 82,-70.25 0,-70.25"/>
<path fill="none" stroke="#00688b" d="M12,0C12,0 70,0 70,0 76,0 82,-6 82,-12 82,-12 82,-88.75 82,-88.75 82,-94.75 76,-100.75 70,-100.75 70,-100.75 12,-100.75 12,-100.75 6,-100.75 0,-94.75 0,-88.75 0,-88.75 0,-12 0,-12 0,-6 6,0 12,0"/>
</g>
<!-- Prompting&#45;&gt;Exiting -->
<g id="edge2" class="edge">
<title>Prompting&#45;&gt;Exiting</title>
<path fill="none" stroke="red" d="M19.41,-153.35C16.62,-142.09 15.31,-130.09 17.25,-118.75 17.65,-116.41 18.12,-114.04 18.66,-111.67"/>
<polygon fill="red" stroke="red" points="22.04,-112.56 21.16,-102.01 15.26,-110.81 22.04,-112.56"/>
<text xml:space="preserve" text-anchor="middle" x="31.12" y="-121.95" font-family="Times,serif" font-size="14.00"> line </text>
</g>
<!-- Prompting&#45;&gt;Exiting -->
<g id="edge3" class="edge">
<title>Prompting&#45;&gt;Exiting</title>
<path fill="none" stroke="red" d="M44.26,-153.33C44.57,-147.25 44.83,-141.11 45,-135.25 45.22,-127.71 45.19,-119.79 45,-111.96"/>
<polygon fill="red" stroke="red" points="48.51,-111.98 44.67,-102.11 41.51,-112.22 48.51,-111.98"/>
<text xml:space="preserve" text-anchor="middle" x="72.16" y="-121.95" font-family="Times,serif" font-size="14.00"> interrupt </text>
</g>
</g>
</svg>
