<?xml version="1.0" encoding="UTF-8" standalone="no"?>
<!DOCTYPE svg PUBLIC "-//W3C//DTD SVG 1.1//EN"
 "http://www.w3.org/Graphics/SVG/1.1/DTD/svg11.dtd">
<!-- Generated by graphviz version 14.1.5 (20260411.2331)
 -->
<!-- Title: Shell Pages: 1 -->
<svg width="601pt" height="500pt"
 viewBox="0.00 0.00 601.00 500.00" xmlns="http://www.w3.org/2000/svg" xmlns:xlink="http://www.w3.org/1999/xlink">
<g id="graph0" class="graph" transform="scale(1 1) rotate(0) translate(4 496.4)">
<title>Shell</title>
<polygon fill="white" stroke="none" points="-4,4 -4,-496.4 596.97,-496.4 596.97,4 -4,4"/>
<!-- Entry -->
<g id="node1" class="node">
<title>Entry</title>
<ellipse fill="black" stroke="#00688b" cx="320.97" cy="-485.2" rx="7.2" ry="7.2"/>
</g>
<!-- Prompting -->
<g id="node2" class="node">
<title>Prompting</title>
<path fill="azure" stroke="none" d="M349.97,-441C349.97,-441 291.97,-441 291.97,-441 285.97,-441 279.97,-435 279.97,-429 279.97,-429 279.97,-341 279.97,-341 279.97,-335 285.97,-329 291.97,-329 291.97,-329 349.97,-329 349.97,-329 355.97,-329 361.97,-335 361.97,-341 361.97,-341 361.97,-429 361.97,-429 361.97,-435 355.97,-441 349.97,-441"/>
<text xml:space="preserve" text-anchor="start" x="289.47" y="-420.7" font-family="Times,serif" font-weight="bold" font-size="14.00">Prompting</text>
<text xml:space="preserve" text-anchor="start" x="287.97" y="-395.5" font-family="Times,serif" font-size="10.00">$&gt;()</text>
<text xml:space="preserve" text-anchor="start" x="287.97" y="-384.25" font-family="Times,serif" font-size="10.00">line(input: &amp;str)</text>
<text xml:space="preserve" text-anchor="start" x="287.97" y="-373" font-family="Times,serif" font-size="10.00">interrupt()</text>
<text xml:space="preserve" text-anchor="start" x="287.97" y="-361.75" font-family="Times,serif" font-size="10.00">eof()</text>
<text xml:space="preserve" text-anchor="start" x="287.97" y="-350.5" font-family="Times,serif" font-size="10.00">is_done()</text>
<text xml:space="preserve" text-anchor="start" x="307.47" y="-339.25" font-family="Times,serif" font-size="10.00"> &#160;&#160;&#160;&#160;&#160;&#160;&#160;&#160;&#160;&#160;&#160;</text>
<polygon fill="#00688b" stroke="#00688b" points="279.97,-410.5 279.97,-410.5 361.97,-410.5 361.97,-410.5 279.97,-410.5"/>
<path fill="none" stroke="#00688b" d="M291.97,-329C291.97,-329 349.97,-329 349.97,-329 355.97,-329 361.97,-335 361.97,-341 361.97,-341 361.97,-429 361.97,-429 361.97,-435 355.97,-441 349.97,-441 349.97,-441 291.97,-441 291.97,-441 285.97,-441 279.97,-435 279.97,-429 279.97,-429 279.97,-341 279.97,-341 279.97,-335 285.97,-329 291.97,-329"/>
</g>
<!-- Entry&#45;&gt;Prompting -->
<g id="edge1" class="edge">
<title>Entry&#45;&gt;Prompting</title>
<path fill="none" stroke="red" d="M320.97,-477.76C320.97,-471.87 320.97,-462.48 320.97,-451.92"/>
<polygon fill="red" stroke="red" points="324.47,-452.09 320.97,-442.09 317.47,-452.09 324.47,-452.09"/>
</g>
<!-- Parsing -->
<g id="node3" class="node">
<title>Parsing</title>
<path fill="azure" stroke="none" d="M266.97,-276.5C266.97,-276.5 208.97,-276.5 208.97,-276.5 202.97,-276.5 196.97,-270.5 196.97,-264.5 196.97,-264.5 196.97,-176.5 196.97,-176.5 196.97,-170.5 202.97,-164.5 208.97,-164.5 208.97,-164.5 266.97,-164.5 266.97,-164.5 272.97,-164.5 278.97,-170.5 278.97,-176.5 278.97,-176.5 278.97,-264.5 278.97,-264.5 278.97,-270.5 272.97,-276.5 266.97,-276.5"/>
<text xml:space="preserve" text-anchor="start" x="215.85" y="-256.2" font-family="Times,serif" font-weight="bold" font-size="14.00">Parsing</text>
<text xml:space="preserve" text-anchor="start" x="204.97" y="-231" font-family="Times,serif" font-size="10.00">$&gt;()</text>
<text xml:space="preserve" text-anchor="start" x="204.97" y="-219.75" font-family="Times,serif" font-size="10.00">line(input: &amp;str)</text>
<text xml:space="preserve" text-anchor="start" x="204.97" y="-208.5" font-family="Times,serif" font-size="10.00">interrupt()</text>
<text xml:space="preserve" text-anchor="start" x="204.97" y="-197.25" font-family="Times,serif" font-size="10.00">eof()</text>
<text xml:space="preserve" text-anchor="start" x="204.97" y="-186" font-family="Times,serif" font-size="10.00">is_done()</text>
<text xml:space="preserve" text-anchor="start" x="224.47" y="-174.75" font-family="Times,serif" font-size="10.00"> &#160;&#160;&#160;&#160;&#160;&#160;&#160;&#160;&#160;&#160;&#160;</text>
<polygon fill="#00688b" stroke="#00688b" points="196.97,-246 196.97,-246 278.97,-246 278.97,-246 196.97,-246"/>
<path fill="none" stroke="#00688b" d="M208.97,-164.5C208.97,-164.5 266.97,-164.5 266.97,-164.5 272.97,-164.5 278.97,-170.5 278.97,-176.5 278.97,-176.5 278.97,-264.5 278.97,-264.5 278.97,-270.5 272.97,-276.5 266.97,-276.5 266.97,-276.5 208.97,-276.5 208.97,-276.5 202.97,-276.5 196.97,-270.5 196.97,-264.5 196.97,-264.5 196.97,-176.5 196.97,-176.5 196.97,-170.5 202.97,-164.5 208.97,-164.5"/>
</g>
<!-- Prompting&#45;&gt;Parsing -->
<g id="edge3" class="edge">
<title>Prompting&#45;&gt;Parsing</title>
<path fill="none" stroke="red" d="M280.27,-376.71C244.37,-367.9 194.16,-349.19 170.22,-311 158.19,-291.81 171.05,-271.6 188.67,-255.25"/>
<polygon fill="red" stroke="red" points="190.6,-258.21 195.88,-249.02 186.03,-252.91 190.6,-258.21"/>
<text xml:space="preserve" text-anchor="middle" x="184.1" y="-297.7" font-family="Times,serif" font-size="14.00"> line </text>
</g>
<!-- Exiting -->
<g id="node6" class="node">
<title>Exiting</title>
<path fill="azure" stroke="none" d="M580.97,-276.5C580.97,-276.5 522.97,-276.5 522.97,-276.5 516.97,-276.5 510.97,-270.5 510.97,-264.5 510.97,-264.5 510.97,-176.5 510.97,-176.5 510.97,-170.5 516.97,-164.5 522.97,-164.5 522.97,-164.5 580.97,-164.5 580.97,-164.5 586.97,-164.5 592.97,-170.5 592.97,-176.5 592.97,-176.5 592.97,-264.5 592.97,-264.5 592.97,-270.5 586.97,-276.5 580.97,-276.5"/>
<text xml:space="preserve" text-anchor="start" x="530.97" y="-256.2" font-family="Times,serif" font-weight="bold" font-size="14.00">Exiting</text>
<text xml:space="preserve" text-anchor="start" x="518.97" y="-231" font-family="Times,serif" font-size="10.00">$&gt;()</text>
<text xml:space="preserve" text-anchor="start" x="518.97" y="-219.75" font-family="Times,serif" font-size="10.00">line(input: &amp;str)</text>
<text xml:space="preserve" text-anchor="start" x="518.97" y="-208.5" font-family="Times,serif" font-size="10.00">interrupt()</text>
<text xml:space="preserve" text-anchor="start" x="518.97" y="-197.25" font-family="Times,serif" font-size="10.00">eof()</text>
<text xml:space="preserve" text-anchor="start" x="518.97" y="-186" font-family="Times,serif" font-size="10.00">is_done()</text>
<text xml:space="preserve" text-anchor="start" x="538.47" y="-174.75" font-family="Times,serif" font-size="10.00"> &#160;&#160;&#160;&#160;&#160;&#160;&#160;&#160;&#160;&#160;&#160;</text>
<polygon fill="#00688b" stroke="#00688b" points="510.97,-246 510.97,-246 592.97,-246 592.97,-246 510.97,-246"/>
<path fill="none" stroke="#00688b" d="M522.97,-164.5C522.97,-164.5 580.97,-164.5 580.97,-164.5 586.97,-164.5 592.97,-170.5 592.97,-176.5 592.97,-176.5 592.97,-264.5 592.97,-264.5 592.97,-270.5 586.97,-276.5 580.97,-276.5 580.97,-276.5 522.97,-276.5 522.97,-276.5 516.97,-276.5 510.97,-270.5 510.97,-264.5 510.97,-264.5 510.97,-176.5 510.97,-176.5 510.97,-170.5 516.97,-164.5 522.97,-164.5"/>
</g>
<!-- Prompting&#45;&gt;Exiting -->
<g id="edge2" class="edge">
<title>Prompting&#45;&gt;Exiting</title>
<path fill="none" stroke="red" d="M361.69,-371.22C395.62,-359.25 444.03,-339 479.97,-311 489.61,-303.49 498.75,-294.45 507.09,-285.05"/>
<polygon fill="red" stroke="red" points="509.71,-287.37 513.53,-277.49 504.38,-282.83 509.71,-287.37"/>
<text xml:space="preserve" text-anchor="middle" x="510.19" y="-297.7" font-family="Times,serif" font-size="14.00"> line </text>
</g>
<!-- Prompting&#45;&gt;Exiting -->
<g id="edge4" class="edge">
<title>Prompting&#45;&gt;Exiting</title>
<path fill="none" stroke="red" d="M361.7,-380.76C408.47,-374.84 484.35,-358.12 527.97,-311 534.27,-304.2 538.94,-295.93 542.41,-287.2"/>
<polygon fill="red" stroke="red" points="545.69,-288.41 545.58,-277.82 539.06,-286.17 545.69,-288.41"/>
<text xml:space="preserve" text-anchor="middle" x="551.47" y="-297.7" font-family="Times,serif" font-size="14.00"> eof </text>
</g>
<!-- Parsing&#45;&gt;Prompting -->
<g id="edge5" class="edge">
<title>Parsing&#45;&gt;Prompting</title>
<path fill="none" stroke="red" d="M216.5,-276.13C214.81,-288.04 215.53,-300.28 220.97,-311 231.54,-331.81 251.14,-348.09 270.19,-359.96"/>
<polygon fill="red" stroke="red" points="268.36,-362.94 278.76,-364.99 271.91,-356.9 268.36,-362.94"/>
<text xml:space="preserve" text-anchor="middle" x="247.97" y="-297.7" font-family="Times,serif" font-size="14.00"> interrupt </text>
</g>
<!-- Parsing&#45;&gt;Prompting -->
<g id="edge6" class="edge">
<title>Parsing&#45;&gt;Prompting</title>
<path fill="none" stroke="red" d="M266.05,-276.47C273.07,-290.22 280.67,-305.09 287.91,-319.27"/>
<polygon fill="red" stroke="red" points="284.75,-320.78 292.41,-328.09 290.98,-317.59 284.75,-320.78"/>
<text xml:space="preserve" text-anchor="middle" x="294.34" y="-297.7" font-family="Times,serif" font-size="14.00"> eof </text>
</g>
<!-- Parsing&#45;&gt;Prompting -->
<g id="edge7" class="edge">
<title>Parsing&#45;&gt;Prompting</title>
<path fill="none" stroke="red" d="M278.8,-260.12C294.3,-275.18 308.78,-289.94 310.97,-294.5 314.51,-301.86 317.03,-309.95 318.78,-318.15"/>
<polygon fill="red" stroke="red" points="315.31,-318.62 320.47,-327.87 322.21,-317.42 315.31,-318.62"/>
<text xml:space="preserve" text-anchor="middle" x="328.14" y="-297.7" font-family="Times,serif" font-size="14.00"> $&gt; </text>
</g>
<!-- RunningBuiltin -->
<g id="node4" class="node">
<title>RunningBuiltin</title>
<path fill="azure" stroke="none" d="M131.97,-112C131.97,-112 49.97,-112 49.97,-112 43.97,-112 37.97,-106 37.97,-100 37.97,-100 37.97,-12 37.97,-12 37.97,-6 43.97,0 49.97,0 49.97,0 131.97,0 131.97,0 137.97,0 143.97,-6 143.97,-12 143.97,-12 143.97,-100 143.97,-100 143.97,-106 137.97,-112 131.97,-112"/>
<text xml:space="preserve" text-anchor="start" x="45.97" y="-91.7" font-family="Times,serif" font-weight="bold" font-size="14.00">RunningBuiltin</text>
<text xml:space="preserve" text-anchor="start" x="45.97" y="-66.5" font-family="Times,serif" font-size="10.00">$&gt;()</text>
<text xml:space="preserve" text-anchor="start" x="45.97" y="-55.25" font-family="Times,serif" font-size="10.00">line(input: &amp;str)</text>
<text xml:space="preserve" text-anchor="start" x="45.97" y="-44" font-family="Times,serif" font-size="10.00">interrupt()</text>
<text xml:space="preserve" text-anchor="start" x="45.97" y="-32.75" font-family="Times,serif" font-size="10.00">eof()</text>
<text xml:space="preserve" text-anchor="start" x="45.97" y="-21.5" font-family="Times,serif" font-size="10.00">is_done()</text>
<text xml:space="preserve" text-anchor="start" x="65.47" y="-10.25" font-family="Times,serif" font-size="10.00"> &#160;&#160;&#160;&#160;&#160;&#160;&#160;&#160;&#160;&#160;&#160;</text>
<polygon fill="#00688b" stroke="#00688b" points="37.97,-81.5 37.97,-81.5 143.97,-81.5 143.97,-81.5 37.97,-81.5"/>
<path fill="none" stroke="#00688b" d="M49.97,0C49.97,0 131.97,0 131.97,0 137.97,0 143.97,-6 143.97,-12 143.97,-12 143.97,-100 143.97,-100 143.97,-106 137.97,-112 131.97,-112 131.97,-112 49.97,-112 49.97,-112 43.97,-112 37.97,-106 37.97,-100 37.97,-100 37.97,-12 37.97,-12 37.97,-6 43.97,0 49.97,0"/>
</g>
<!-- Parsing&#45;&gt;RunningBuiltin -->
<g id="edge9" class="edge">
<title>Parsing&#45;&gt;RunningBuiltin</title>
<path fill="none" stroke="red" d="M197.02,-174.23C181.85,-157.46 164.35,-138.12 148,-120.04"/>
<polygon fill="red" stroke="red" points="150.9,-118.03 141.6,-112.96 145.71,-122.73 150.9,-118.03"/>
<text xml:space="preserve" text-anchor="middle" x="180.13" y="-133.2" font-family="Times,serif" font-size="14.00"> $&gt; </text>
</g>
<!-- RunningExternal -->
<g id="node5" class="node">
<title>RunningExternal</title>
<path fill="azure" stroke="none" d="M409.22,-112C409.22,-112 316.72,-112 316.72,-112 310.72,-112 304.72,-106 304.72,-100 304.72,-100 304.72,-12 304.72,-12 304.72,-6 310.72,0 316.72,0 316.72,0 409.22,0 409.22,0 415.22,0 421.22,-6 421.22,-12 421.22,-12 421.22,-100 421.22,-100 421.22,-106 415.22,-112 409.22,-112"/>
<text xml:space="preserve" text-anchor="start" x="312.72" y="-91.7" font-family="Times,serif" font-weight="bold" font-size="14.00">RunningExternal</text>
<text xml:space="preserve" text-anchor="start" x="312.72" y="-66.5" font-family="Times,serif" font-size="10.00">$&gt;()</text>
<text xml:space="preserve" text-anchor="start" x="312.72" y="-55.25" font-family="Times,serif" font-size="10.00">line(input: &amp;str)</text>
<text xml:space="preserve" text-anchor="start" x="312.72" y="-44" font-family="Times,serif" font-size="10.00">interrupt()</text>
<text xml:space="preserve" text-anchor="start" x="312.72" y="-32.75" font-family="Times,serif" font-size="10.00">eof()</text>
<text xml:space="preserve" text-anchor="start" x="312.72" y="-21.5" font-family="Times,serif" font-size="10.00">is_done()</text>
<text xml:space="preserve" text-anchor="start" x="332.22" y="-10.25" font-family="Times,serif" font-size="10.00"> &#160;&#160;&#160;&#160;&#160;&#160;&#160;&#160;&#160;&#160;&#160;</text>
<polygon fill="#00688b" stroke="#00688b" points="304.72,-81.5 304.72,-81.5 421.22,-81.5 421.22,-81.5 304.72,-81.5"/>
<path fill="none" stroke="#00688b" d="M316.72,0C316.72,0 409.22,0 409.22,0 415.22,0 421.22,-6 421.22,-12 421.22,-12 421.22,-100 421.22,-100 421.22,-106 415.22,-112 409.22,-112 409.22,-112 316.72,-112 316.72,-112 310.72,-112 304.72,-106 304.72,-100 304.72,-100 304.72,-12 304.72,-12 304.72,-6 310.72,0 316.72,0"/>
</g>
<!-- Parsing&#45;&gt;RunningExternal -->
<g id="edge8" class="edge">
<title>Parsing&#45;&gt;RunningExternal</title>
<path fill="none" stroke="red" d="M260.52,-164.53C266.52,-152.63 273.56,-140.48 281.47,-130 286.19,-123.75 291.51,-117.61 297.1,-111.72"/>
<polygon fill="red" stroke="red" points="299.27,-114.5 303.81,-104.93 294.29,-109.58 299.27,-114.5"/>
<text xml:space="preserve" text-anchor="middle" x="292.72" y="-133.2" font-family="Times,serif" font-size="14.00"> $&gt; </text>
</g>
<!-- RunningBuiltin&#45;&gt;Prompting -->
<g id="edge10" class="edge">
<title>RunningBuiltin&#45;&gt;Prompting</title>
<path fill="none" stroke="red" d="M64.92,-111.74C46.7,-158.59 30.42,-226.24 59.97,-276.5 102.64,-349.08 205.59,-372.66 268.7,-380.32"/>
<polygon fill="red" stroke="red" points="268.16,-383.78 278.49,-381.4 268.93,-376.82 268.16,-383.78"/>
<text xml:space="preserve" text-anchor="middle" x="86.97" y="-215.45" font-family="Times,serif" font-size="14.00"> interrupt </text>
</g>
<!-- RunningBuiltin&#45;&gt;Prompting -->
<g id="edge11" class="edge">
<title>RunningBuiltin&#45;&gt;Prompting</title>
<path fill="none" stroke="red" d="M42.77,-111.77C31.53,-127.72 21.12,-145.89 15.22,-164.5 0.18,-211.95 -8.83,-232.92 15.22,-276.5 64.12,-365.11 195.26,-382.27 268.92,-384.64"/>
<polygon fill="red" stroke="red" points="268.63,-388.14 278.71,-384.87 268.8,-381.14 268.63,-388.14"/>
<text xml:space="preserve" text-anchor="middle" x="27.6" y="-215.45" font-family="Times,serif" font-size="14.00"> eof </text>
</g>
<!-- RunningBuiltin&#45;&gt;Prompting -->
<g id="edge12" class="edge">
<title>RunningBuiltin&#45;&gt;Prompting</title>
<path fill="none" stroke="red" d="M103.68,-111.72C120.32,-181.69 148.91,-295.7 161.97,-311 189.46,-343.21 234.16,-361.99 269.18,-372.41"/>
<polygon fill="red" stroke="red" points="268.14,-375.75 278.72,-375.1 270.04,-369.02 268.14,-375.75"/>
<text xml:space="preserve" text-anchor="middle" x="158.53" y="-215.45" font-family="Times,serif" font-size="14.00"> $&gt; </text>
</g>
<!-- RunningExternal&#45;&gt;Prompting -->
<g id="edge13" class="edge">
<title>RunningExternal&#45;&gt;Prompting</title>
<path fill="none" stroke="red" d="M343.94,-111.87C339.03,-128.56 334.43,-147.09 331.97,-164.5 325.01,-213.79 318.49,-228.58 331.97,-276.5 334.51,-285.53 340.43,-285.47 342.97,-294.5 344.96,-301.56 344.04,-303.75 342.97,-311 342.61,-313.45 342.19,-315.93 341.71,-318.42"/>
<polygon fill="red" stroke="red" points="338.35,-317.39 339.63,-327.91 345.19,-318.89 338.35,-317.39"/>
<text xml:space="preserve" text-anchor="middle" x="358.97" y="-215.45" font-family="Times,serif" font-size="14.00"> interrupt </text>
</g>
<!-- RunningExternal&#45;&gt;Prompting -->
<g id="edge14" class="edge">
<title>RunningExternal&#45;&gt;Prompting</title>
<path fill="none" stroke="red" d="M379.82,-111.62C391.07,-156.61 401.25,-221.69 385.97,-276.5 381.87,-291.21 375.15,-305.91 367.55,-319.51"/>
<polygon fill="red" stroke="red" points="364.68,-317.5 362.65,-327.9 370.72,-321.03 364.68,-317.5"/>
<text xml:space="preserve" text-anchor="middle" x="406.09" y="-215.45" font-family="Times,serif" font-size="14.00"> eof </text>
</g>
<!-- RunningExternal&#45;&gt;Prompting -->
<g id="edge15" class="edge">
<title>RunningExternal&#45;&gt;Prompting</title>
<path fill="none" stroke="red" d="M399.99,-111.96C408.99,-128.19 417.35,-146.46 421.97,-164.5 434.33,-212.72 440.15,-230.16 421.97,-276.5 411.41,-303.41 390.53,-327.49 370.48,-346"/>
<polygon fill="red" stroke="red" points="368.24,-343.31 363.1,-352.58 372.89,-348.54 368.24,-343.31"/>
<text xml:space="preserve" text-anchor="middle" x="444.78" y="-215.45" font-family="Times,serif" font-size="14.00"> $&gt; </text>
</g>
</g>
</svg>
