<?xml version="1.0" encoding="UTF-8" standalone="no"?>
<!DOCTYPE svg PUBLIC "-//W3C//DTD SVG 1.1//EN"
 "http://www.w3.org/Graphics/SVG/1.1/DTD/svg11.dtd">
<!-- Generated by graphviz version 14.1.5 (20260411.2331)
 -->
<!-- Title: Shell Pages: 1 -->
<svg width="693pt" height="500pt"
 viewBox="0.00 0.00 693.00 500.00" xmlns="http://www.w3.org/2000/svg" xmlns:xlink="http://www.w3.org/1999/xlink">
<g id="graph0" class="graph" transform="scale(1 1) rotate(0) translate(4 496.4)">
<title>Shell</title>
<polygon fill="white" stroke="none" points="-4,4 -4,-496.4 688.89,-496.4 688.89,4 -4,4"/>
<!-- Entry -->
<g id="node1" class="node">
<title>Entry</title>
<ellipse fill="black" stroke="#00688b" cx="349.89" cy="-485.2" rx="7.2" ry="7.2"/>
</g>
<!-- Prompting -->
<g id="node2" class="node">
<title>Prompting</title>
<path fill="azure" stroke="none" d="M378.89,-441C378.89,-441 320.89,-441 320.89,-441 314.89,-441 308.89,-435 308.89,-429 308.89,-429 308.89,-341 308.89,-341 308.89,-335 314.89,-329 320.89,-329 320.89,-329 378.89,-329 378.89,-329 384.89,-329 390.89,-335 390.89,-341 390.89,-341 390.89,-429 390.89,-429 390.89,-435 384.89,-441 378.89,-441"/>
<text xml:space="preserve" text-anchor="start" x="318.39" y="-420.7" font-family="Times,serif" font-weight="bold" font-size="14.00">Prompting</text>
<text xml:space="preserve" text-anchor="start" x="316.89" y="-395.5" font-family="Times,serif" font-size="10.00">$&gt;()</text>
<text xml:space="preserve" text-anchor="start" x="316.89" y="-384.25" font-family="Times,serif" font-size="10.00">line(input: &amp;str)</text>
<text xml:space="preserve" text-anchor="start" x="316.89" y="-373" font-family="Times,serif" font-size="10.00">interrupt()</text>
<text xml:space="preserve" text-anchor="start" x="316.89" y="-361.75" font-family="Times,serif" font-size="10.00">eof()</text>
<text xml:space="preserve" text-anchor="start" x="316.89" y="-350.5" font-family="Times,serif" font-size="10.00">is_done()</text>
<text xml:space="preserve" text-anchor="start" x="336.39" y="-339.25" font-family="Times,serif" font-size="10.00"> &#160;&#160;&#160;&#160;&#160;&#160;&#160;&#160;&#160;&#160;&#160;</text>
<polygon fill="#00688b" stroke="#00688b" points="308.89,-410.5 308.89,-410.5 390.89,-410.5 390.89,-410.5 308.89,-410.5"/>
<path fill="none" stroke="#00688b" d="M320.89,-329C320.89,-329 378.89,-329 378.89,-329 384.89,-329 390.89,-335 390.89,-341 390.89,-341 390.89,-429 390.89,-429 390.89,-435 384.89,-441 378.89,-441 378.89,-441 320.89,-441 320.89,-441 314.89,-441 308.89,-435 308.89,-429 308.89,-429 308.89,-341 308.89,-341 308.89,-335 314.89,-329 320.89,-329"/>
</g>
<!-- Entry&#45;&gt;Prompting -->
<g id="edge1" class="edge">
<title>Entry&#45;&gt;Prompting</title>
<path fill="none" stroke="red" d="M349.89,-477.76C349.89,-471.87 349.89,-462.48 349.89,-451.92"/>
<polygon fill="red" stroke="red" points="353.39,-452.09 349.89,-442.09 346.39,-452.09 353.39,-452.09"/>
</g>
<!-- Parsing -->
<g id="node3" class="node">
<title>Parsing</title>
<path fill="azure" stroke="none" d="M315.89,-276.5C315.89,-276.5 257.89,-276.5 257.89,-276.5 251.89,-276.5 245.89,-270.5 245.89,-264.5 245.89,-264.5 245.89,-176.5 245.89,-176.5 245.89,-170.5 251.89,-164.5 257.89,-164.5 257.89,-164.5 315.89,-164.5 315.89,-164.5 321.89,-164.5 327.89,-170.5 327.89,-176.5 327.89,-176.5 327.89,-264.5 327.89,-264.5 327.89,-270.5 321.89,-276.5 315.89,-276.5"/>
<text xml:space="preserve" text-anchor="start" x="264.77" y="-256.2" font-family="Times,serif" font-weight="bold" font-size="14.00">Parsing</text>
<text xml:space="preserve" text-anchor="start" x="253.89" y="-231" font-family="Times,serif" font-size="10.00">$&gt;()</text>
<text xml:space="preserve" text-anchor="start" x="253.89" y="-219.75" font-family="Times,serif" font-size="10.00">line(input: &amp;str)</text>
<text xml:space="preserve" text-anchor="start" x="253.89" y="-208.5" font-family="Times,serif" font-size="10.00">interrupt()</text>
<text xml:space="preserve" text-anchor="start" x="253.89" y="-197.25" font-family="Times,serif" font-size="10.00">eof()</text>
<text xml:space="preserve" text-anchor="start" x="253.89" y="-186" font-family="Times,serif" font-size="10.00">is_done()</text>
<text xml:space="preserve" text-anchor="start" x="273.39" y="-174.75" font-family="Times,serif" font-size="10.00"> &#160;&#160;&#160;&#160;&#160;&#160;&#160;&#160;&#160;&#160;&#160;</text>
<polygon fill="#00688b" stroke="#00688b" points="245.89,-246 245.89,-246 327.89,-246 327.89,-246 245.89,-246"/>
<path fill="none" stroke="#00688b" d="M257.89,-164.5C257.89,-164.5 315.89,-164.5 315.89,-164.5 321.89,-164.5 327.89,-170.5 327.89,-176.5 327.89,-176.5 327.89,-264.5 327.89,-264.5 327.89,-270.5 321.89,-276.5 315.89,-276.5 315.89,-276.5 257.89,-276.5 257.89,-276.5 251.89,-276.5 245.89,-270.5 245.89,-264.5 245.89,-264.5 245.89,-176.5 245.89,-176.5 245.89,-170.5 251.89,-164.5 257.89,-164.5"/>
</g>
<!-- Prompting&#45;&gt;Parsing -->
<g id="edge3" class="edge">
<title>Prompting&#45;&gt;Parsing</title>
<path fill="none" stroke="red" d="M309.08,-361.37C291.16,-349.04 271.99,-331.99 262.14,-311 258.61,-303.47 257.51,-295.35 258,-287.17"/>
<polygon fill="red" stroke="red" points="261.43,-287.93 259.36,-277.54 254.49,-286.95 261.43,-287.93"/>
<text xml:space="preserve" text-anchor="middle" x="276.02" y="-297.7" font-family="Times,serif" font-size="14.00"> line </text>
</g>
<!-- Exiting -->
<g id="node6" class="node">
<title>Exiting</title>
<path fill="azure" stroke="none" d="M672.89,-276.5C672.89,-276.5 614.89,-276.5 614.89,-276.5 608.89,-276.5 602.89,-270.5 602.89,-264.5 602.89,-264.5 602.89,-176.5 602.89,-176.5 602.89,-170.5 608.89,-164.5 614.89,-164.5 614.89,-164.5 672.89,-164.5 672.89,-164.5 678.89,-164.5 684.89,-170.5 684.89,-176.5 684.89,-176.5 684.89,-264.5 684.89,-264.5 684.89,-270.5 678.89,-276.5 672.89,-276.5"/>
<text xml:space="preserve" text-anchor="start" x="622.89" y="-256.2" font-family="Times,serif" font-weight="bold" font-size="14.00">Exiting</text>
<text xml:space="preserve" text-anchor="start" x="610.89" y="-231" font-family="Times,serif" font-size="10.00">$&gt;()</text>
<text xml:space="preserve" text-anchor="start" x="610.89" y="-219.75" font-family="Times,serif" font-size="10.00">line(input: &amp;str)</text>
<text xml:space="preserve" text-anchor="start" x="610.89" y="-208.5" font-family="Times,serif" font-size="10.00">interrupt()</text>
<text xml:space="preserve" text-anchor="start" x="610.89" y="-197.25" font-family="Times,serif" font-size="10.00">eof()</text>
<text xml:space="preserve" text-anchor="start" x="610.89" y="-186" font-family="Times,serif" font-size="10.00">is_done()</text>
<text xml:space="preserve" text-anchor="start" x="630.39" y="-174.75" font-family="Times,serif" font-size="10.00"> &#160;&#160;&#160;&#160;&#160;&#160;&#160;&#160;&#160;&#160;&#160;</text>
<polygon fill="#00688b" stroke="#00688b" points="602.89,-246 602.89,-246 684.89,-246 684.89,-246 602.89,-246"/>
<path fill="none" stroke="#00688b" d="M614.89,-164.5C614.89,-164.5 672.89,-164.5 672.89,-164.5 678.89,-164.5 684.89,-170.5 684.89,-176.5 684.89,-176.5 684.89,-264.5 684.89,-264.5 684.89,-270.5 678.89,-276.5 672.89,-276.5 672.89,-276.5 614.89,-276.5 614.89,-276.5 608.89,-276.5 602.89,-270.5 602.89,-264.5 602.89,-264.5 602.89,-176.5 602.89,-176.5 602.89,-170.5 608.89,-164.5 614.89,-164.5"/>
</g>
<!-- Prompting&#45;&gt;Exiting -->
<g id="edge2" class="edge">
<title>Prompting&#45;&gt;Exiting</title>
<path fill="none" stroke="red" d="M390.69,-377.81C437.76,-369.11 515.85,-349.8 571.89,-311 582.29,-303.8 591.96,-294.68 600.61,-285.02"/>
<polygon fill="red" stroke="red" points="603.13,-287.46 606.97,-277.59 597.81,-282.91 603.13,-287.46"/>
<text xml:space="preserve" text-anchor="middle" x="604.92" y="-297.7" font-family="Times,serif" font-size="14.00"> line </text>
</g>
<!-- Prompting&#45;&gt;Exiting -->
<g id="edge4" class="edge">
<title>Prompting&#45;&gt;Exiting</title>
<path fill="none" stroke="red" d="M390.65,-378.29C458.61,-367.96 590.79,-344.11 622.89,-311 629.37,-304.32 633.99,-296.04 637.25,-287.24"/>
<polygon fill="red" stroke="red" points="640.57,-288.35 640.16,-277.76 633.88,-286.29 640.57,-288.35"/>
<text xml:space="preserve" text-anchor="middle" x="646.34" y="-297.7" font-family="Times,serif" font-size="14.00"> eof </text>
</g>
<!-- Parsing&#45;&gt;Prompting -->
<g id="edge5" class="edge">
<title>Parsing&#45;&gt;Prompting</title>
<path fill="none" stroke="red" d="M301.11,-276.47C304.58,-288.01 308.56,-300.01 312.89,-311 313.88,-313.51 314.93,-316.05 316.02,-318.6"/>
<polygon fill="red" stroke="red" points="312.82,-320.01 320.09,-327.71 319.21,-317.15 312.82,-320.01"/>
<text xml:space="preserve" text-anchor="middle" x="339.89" y="-297.7" font-family="Times,serif" font-size="14.00"> interrupt </text>
</g>
<!-- Parsing&#45;&gt;Prompting -->
<g id="edge6" class="edge">
<title>Parsing&#45;&gt;Prompting</title>
<path fill="none" stroke="red" d="M327.55,-247.52C342.89,-259.73 358.62,-275.75 366.89,-294.5 370.15,-301.88 371.43,-309.86 371.4,-317.93"/>
<polygon fill="red" stroke="red" points="367.92,-317.58 370.66,-327.81 374.9,-318.1 367.92,-317.58"/>
<text xml:space="preserve" text-anchor="middle" x="383.44" y="-297.7" font-family="Times,serif" font-size="14.00"> eof </text>
</g>
<!-- Parsing&#45;&gt;Prompting -->
<g id="edge7" class="edge">
<title>Parsing&#45;&gt;Prompting</title>
<path fill="none" stroke="red" d="M327.81,-236.07C353.53,-247.61 384.65,-266.5 399.89,-294.5 407.08,-307.71 404.08,-321.95 396.83,-335.1"/>
<polygon fill="red" stroke="red" points="394.11,-332.86 391.7,-343.17 400.02,-336.61 394.11,-332.86"/>
<text xml:space="preserve" text-anchor="middle" x="415.23" y="-297.7" font-family="Times,serif" font-size="14.00"> $&gt; </text>
</g>
<!-- Parsing&#45;&gt;Prompting -->
<g id="edge8" class="edge">
<title>Parsing&#45;&gt;Prompting</title>
<path fill="none" stroke="red" d="M246.2,-233.49C203.78,-248.18 146.54,-275.56 170.39,-311 198.61,-352.93 255.52,-370.79 297.73,-378.39"/>
<polygon fill="red" stroke="red" points="297.01,-381.81 307.45,-379.98 298.15,-374.91 297.01,-381.81"/>
<text xml:space="preserve" text-anchor="middle" x="181.64" y="-297.7" font-family="Times,serif" font-size="14.00"> $&gt; </text>
</g>
<!-- Parsing&#45;&gt;Prompting -->
<g id="edge10" class="edge">
<title>Parsing&#45;&gt;Prompting</title>
<path fill="none" stroke="red" d="M245.97,-255.91C231.48,-272.37 221.05,-292.48 231.39,-311 245.83,-336.84 273.58,-354.67 298.6,-366.23"/>
<polygon fill="red" stroke="red" points="297.16,-369.42 307.72,-370.21 299.95,-363 297.16,-369.42"/>
<text xml:space="preserve" text-anchor="middle" x="242.64" y="-297.7" font-family="Times,serif" font-size="14.00"> $&gt; </text>
</g>
<!-- RunningBuiltin -->
<g id="node4" class="node">
<title>RunningBuiltin</title>
<path fill="azure" stroke="none" d="M131.89,-112C131.89,-112 49.89,-112 49.89,-112 43.89,-112 37.89,-106 37.89,-100 37.89,-100 37.89,-12 37.89,-12 37.89,-6 43.89,0 49.89,0 49.89,0 131.89,0 131.89,0 137.89,0 143.89,-6 143.89,-12 143.89,-12 143.89,-100 143.89,-100 143.89,-106 137.89,-112 131.89,-112"/>
<text xml:space="preserve" text-anchor="start" x="45.89" y="-91.7" font-family="Times,serif" font-weight="bold" font-size="14.00">RunningBuiltin</text>
<text xml:space="preserve" text-anchor="start" x="45.89" y="-66.5" font-family="Times,serif" font-size="10.00">$&gt;()</text>
<text xml:space="preserve" text-anchor="start" x="45.89" y="-55.25" font-family="Times,serif" font-size="10.00">line(input: &amp;str)</text>
<text xml:space="preserve" text-anchor="start" x="45.89" y="-44" font-family="Times,serif" font-size="10.00">interrupt()</text>
<text xml:space="preserve" text-anchor="start" x="45.89" y="-32.75" font-family="Times,serif" font-size="10.00">eof()</text>
<text xml:space="preserve" text-anchor="start" x="45.89" y="-21.5" font-family="Times,serif" font-size="10.00">is_done()</text>
<text xml:space="preserve" text-anchor="start" x="65.39" y="-10.25" font-family="Times,serif" font-size="10.00"> &#160;&#160;&#160;&#160;&#160;&#160;&#160;&#160;&#160;&#160;&#160;</text>
<polygon fill="#00688b" stroke="#00688b" points="37.89,-81.5 37.89,-81.5 143.89,-81.5 143.89,-81.5 37.89,-81.5"/>
<path fill="none" stroke="#00688b" d="M49.89,0C49.89,0 131.89,0 131.89,0 137.89,0 143.89,-6 143.89,-12 143.89,-12 143.89,-100 143.89,-100 143.89,-106 137.89,-112 131.89,-112 131.89,-112 49.89,-112 49.89,-112 43.89,-112 37.89,-106 37.89,-100 37.89,-100 37.89,-12 37.89,-12 37.89,-6 43.89,0 49.89,0"/>
</g>
<!-- Parsing&#45;&gt;RunningBuiltin -->
<g id="edge11" class="edge">
<title>Parsing&#45;&gt;RunningBuiltin</title>
<path fill="none" stroke="red" d="M246.28,-185.83C219.12,-163.31 182.88,-133.27 152.23,-107.85"/>
<polygon fill="red" stroke="red" points="154.84,-105.47 144.91,-101.79 150.37,-110.86 154.84,-105.47"/>
<text xml:space="preserve" text-anchor="middle" x="206.02" y="-133.2" font-family="Times,serif" font-size="14.00"> $&gt; </text>
</g>
<!-- RunningForeground -->
<g id="node5" class="node">
<title>RunningForeground</title>
<path fill="azure" stroke="none" d="M510.52,-112C510.52,-112 399.27,-112 399.27,-112 393.27,-112 387.27,-106 387.27,-100 387.27,-100 387.27,-12 387.27,-12 387.27,-6 393.27,0 399.27,0 399.27,0 510.52,0 510.52,0 516.52,0 522.52,-6 522.52,-12 522.52,-12 522.52,-100 522.52,-100 522.52,-106 516.52,-112 510.52,-112"/>
<text xml:space="preserve" text-anchor="start" x="395.27" y="-91.7" font-family="Times,serif" font-weight="bold" font-size="14.00">RunningForeground</text>
<text xml:space="preserve" text-anchor="start" x="395.27" y="-66.5" font-family="Times,serif" font-size="10.00">$&gt;()</text>
<text xml:space="preserve" text-anchor="start" x="395.27" y="-55.25" font-family="Times,serif" font-size="10.00">line(input: &amp;str)</text>
<text xml:space="preserve" text-anchor="start" x="395.27" y="-44" font-family="Times,serif" font-size="10.00">interrupt()</text>
<text xml:space="preserve" text-anchor="start" x="395.27" y="-32.75" font-family="Times,serif" font-size="10.00">eof()</text>
<text xml:space="preserve" text-anchor="start" x="395.27" y="-21.5" font-family="Times,serif" font-size="10.00">is_done()</text>
<text xml:space="preserve" text-anchor="start" x="414.77" y="-10.25" font-family="Times,serif" font-size="10.00"> &#160;&#160;&#160;&#160;&#160;&#160;&#160;&#160;&#160;&#160;&#160;</text>
<polygon fill="#00688b" stroke="#00688b" points="387.27,-81.5 387.27,-81.5 522.52,-81.5 522.52,-81.5 387.27,-81.5"/>
<path fill="none" stroke="#00688b" d="M399.27,0C399.27,0 510.52,0 510.52,0 516.52,0 522.52,-6 522.52,-12 522.52,-12 522.52,-100 522.52,-100 522.52,-106 516.52,-112 510.52,-112 510.52,-112 399.27,-112 399.27,-112 393.27,-112 387.27,-106 387.27,-100 387.27,-100 387.27,-12 387.27,-12 387.27,-6 393.27,0 399.27,0"/>
</g>
<!-- Parsing&#45;&gt;RunningForeground -->
<g id="edge9" class="edge">
<title>Parsing&#45;&gt;RunningForeground</title>
<path fill="none" stroke="red" d="M327.64,-176.09C341.88,-161.25 358.14,-144.69 373.39,-130 376.95,-126.57 380.63,-123.09 384.37,-119.59"/>
<polygon fill="red" stroke="red" points="386.55,-122.34 391.5,-112.97 381.79,-117.21 386.55,-122.34"/>
<text xml:space="preserve" text-anchor="middle" x="384.64" y="-133.2" font-family="Times,serif" font-size="14.00"> $&gt; </text>
</g>
<!-- RunningBuiltin&#45;&gt;Prompting -->
<g id="edge12" class="edge">
<title>RunningBuiltin&#45;&gt;Prompting</title>
<path fill="none" stroke="red" d="M64.84,-111.74C46.62,-158.59 30.34,-226.24 59.89,-276.5 108.1,-358.49 228.44,-378.49 298.01,-383.02"/>
<polygon fill="red" stroke="red" points="297.45,-386.5 307.63,-383.56 297.84,-379.51 297.45,-386.5"/>
<text xml:space="preserve" text-anchor="middle" x="86.89" y="-215.45" font-family="Times,serif" font-size="14.00"> interrupt </text>
</g>
<!-- RunningBuiltin&#45;&gt;Prompting -->
<g id="edge13" class="edge">
<title>RunningBuiltin&#45;&gt;Prompting</title>
<path fill="none" stroke="red" d="M42.7,-111.77C31.45,-127.72 21.04,-145.89 15.14,-164.5 0.1,-211.95 -8.73,-232.82 15.14,-276.5 42.7,-326.93 210.82,-361.33 297.82,-376"/>
<polygon fill="red" stroke="red" points="297.09,-379.43 307.53,-377.61 298.24,-372.52 297.09,-379.43"/>
<text xml:space="preserve" text-anchor="middle" x="27.52" y="-215.45" font-family="Times,serif" font-size="14.00"> eof </text>
</g>
<!-- RunningBuiltin&#45;&gt;Prompting -->
<g id="edge14" class="edge">
<title>RunningBuiltin&#45;&gt;Prompting</title>
<path fill="none" stroke="red" d="M103.24,-111.84C119.45,-181.94 147.41,-296.1 160.89,-311 196.35,-350.18 255.28,-368.52 297.92,-376.98"/>
<polygon fill="red" stroke="red" points="297.25,-380.41 307.72,-378.79 298.52,-373.53 297.25,-380.41"/>
<text xml:space="preserve" text-anchor="middle" x="157.32" y="-215.45" font-family="Times,serif" font-size="14.00"> $&gt; </text>
</g>
<!-- RunningForeground&#45;&gt;Prompting -->
<g id="edge15" class="edge">
<title>RunningForeground&#45;&gt;Prompting</title>
<path fill="none" stroke="red" d="M435.86,-111.87C430.95,-128.56 426.35,-147.09 423.89,-164.5 416.93,-213.79 414.71,-227.58 423.89,-276.5 426.78,-291.88 437.25,-296.71 430.89,-311 424.01,-326.46 412.07,-340.02 399.43,-351.13"/>
<polygon fill="red" stroke="red" points="397.26,-348.38 391.78,-357.45 401.72,-353.77 397.26,-348.38"/>
<text xml:space="preserve" text-anchor="middle" x="450.89" y="-215.45" font-family="Times,serif" font-size="14.00"> interrupt </text>
</g>
<!-- RunningForeground&#45;&gt;Prompting -->
<g id="edge16" class="edge">
<title>RunningForeground&#45;&gt;Prompting</title>
<path fill="none" stroke="red" d="M474.39,-111.67C487.46,-157.27 498.82,-223.18 477.89,-276.5 463.8,-312.42 429.81,-340.03 400.4,-358.27"/>
<polygon fill="red" stroke="red" points="398.73,-355.19 391.94,-363.32 402.32,-361.2 398.73,-355.19"/>
<text xml:space="preserve" text-anchor="middle" x="501.84" y="-215.45" font-family="Times,serif" font-size="14.00"> eof </text>
</g>
<!-- RunningForeground&#45;&gt;Prompting -->
<g id="edge17" class="edge">
<title>RunningForeground&#45;&gt;Prompting</title>
<path fill="none" stroke="red" d="M494.56,-111.95C504.11,-128.1 512.96,-146.34 517.89,-164.5 530.93,-212.54 538.9,-231.37 517.89,-276.5 496.03,-323.47 442.33,-352.26 401.48,-368.07"/>
<polygon fill="red" stroke="red" points="400.45,-364.72 392.29,-371.48 402.88,-371.29 400.45,-364.72"/>
<text xml:space="preserve" text-anchor="middle" x="542.08" y="-215.45" font-family="Times,serif" font-size="14.00"> $&gt; </text>
</g>
</g>
</svg>
