<?xml version="1.0" encoding="UTF-8" standalone="no"?>
<!DOCTYPE svg PUBLIC "-//W3C//DTD SVG 1.1//EN"
 "http://www.w3.org/Graphics/SVG/1.1/DTD/svg11.dtd">
<!-- Generated by graphviz version 2.43.0 (0)
 -->
<!-- Title: Shell Pages: 1 -->
<svg width="526pt" height="400pt"
 viewBox="0.00 0.00 526.20 400.00" xmlns="http://www.w3.org/2000/svg" xmlns:xlink="http://www.w3.org/1999/xlink">
<g id="graph0" class="graph" transform="scale(1 1) rotate(0) translate(4 396)">
<title>Shell</title>
<polygon fill="white" stroke="transparent" points="-4,4 -4,-396 522.2,-396 522.2,4 -4,4"/>
<!-- Entry -->
<g id="node1" class="node">
<title>Entry</title>
<ellipse fill="black" stroke="#00688b" cx="233.7" cy="-385" rx="7" ry="7"/>
</g>
<!-- Prompting -->
<g id="node2" class="node">
<title>Prompting</title>
<path fill="azure" stroke="transparent" d="M272.2,-341C272.2,-341 195.2,-341 195.2,-341 189.2,-341 183.2,-335 183.2,-329 183.2,-329 183.2,-255 183.2,-255 183.2,-249 189.2,-243 195.2,-243 195.2,-243 272.2,-243 272.2,-243 278.2,-243 284.2,-249 284.2,-255 284.2,-255 284.2,-329 284.2,-329 284.2,-335 278.2,-341 272.2,-341"/>
<text text-anchor="start" x="191.7" y="-322.8" font-family="Times,serif" font-weight="bold" font-size="14.00">Prompting</text>
<text text-anchor="start" x="191.7" y="-298" font-family="Times,serif" font-size="10.00">$&gt;()</text>
<text text-anchor="start" x="191.7" y="-287" font-family="Times,serif" font-size="10.00">line(input: &amp;str)</text>
<text text-anchor="start" x="191.7" y="-276" font-family="Times,serif" font-size="10.00">interrupt()</text>
<text text-anchor="start" x="191.7" y="-265" font-family="Times,serif" font-size="10.00">eof()</text>
<text text-anchor="start" x="214.2" y="-254" font-family="Times,serif" font-size="10.00"> &#160;&#160;&#160;&#160;&#160;&#160;&#160;&#160;&#160;&#160;&#160;</text>
<polygon fill="#00688b" stroke="#00688b" points="183.7,-312 183.7,-312 284.7,-312 284.7,-312 183.7,-312"/>
<path fill="none" stroke="#00688b" d="M195.2,-243C195.2,-243 272.2,-243 272.2,-243 278.2,-243 284.2,-249 284.2,-255 284.2,-255 284.2,-329 284.2,-329 284.2,-335 278.2,-341 272.2,-341 272.2,-341 195.2,-341 195.2,-341 189.2,-341 183.2,-335 183.2,-329 183.2,-329 183.2,-255 183.2,-255 183.2,-249 189.2,-243 195.2,-243"/>
</g>
<!-- Entry&#45;&gt;Prompting -->
<g id="edge1" class="edge">
<title>Entry&#45;&gt;Prompting</title>
<path fill="none" stroke="red" d="M233.7,-377.75C233.7,-371.72 233.7,-361.95 233.7,-351.14"/>
<polygon fill="red" stroke="red" points="237.2,-351 233.7,-341 230.2,-351 237.2,-351"/>
</g>
<!-- Parsing -->
<g id="node3" class="node">
<title>Parsing</title>
<path fill="azure" stroke="transparent" d="M206.2,-186.5C206.2,-186.5 153.2,-186.5 153.2,-186.5 147.2,-186.5 141.2,-180.5 141.2,-174.5 141.2,-174.5 141.2,-133.5 141.2,-133.5 141.2,-127.5 147.2,-121.5 153.2,-121.5 153.2,-121.5 206.2,-121.5 206.2,-121.5 212.2,-121.5 218.2,-127.5 218.2,-133.5 218.2,-133.5 218.2,-174.5 218.2,-174.5 218.2,-180.5 212.2,-186.5 206.2,-186.5"/>
<text text-anchor="start" x="149.7" y="-167.8" font-family="Times,serif" font-weight="bold" font-size="14.00">Parsing</text>
<text text-anchor="start" x="149.7" y="-143" font-family="Times,serif" font-size="10.00">$&gt;()</text>
<text text-anchor="start" x="149.7" y="-132" font-family="Times,serif" font-size="10.00"> &#160;&#160;&#160;&#160;&#160;&#160;&#160;&#160;&#160;&#160;&#160;</text>
<polygon fill="#00688b" stroke="#00688b" points="141.7,-157 141.7,-157 218.7,-157 218.7,-157 141.7,-157"/>
<path fill="none" stroke="#00688b" d="M153.2,-121.5C153.2,-121.5 206.2,-121.5 206.2,-121.5 212.2,-121.5 218.2,-127.5 218.2,-133.5 218.2,-133.5 218.2,-174.5 218.2,-174.5 218.2,-180.5 212.2,-186.5 206.2,-186.5 206.2,-186.5 153.2,-186.5 153.2,-186.5 147.2,-186.5 141.2,-180.5 141.2,-174.5 141.2,-174.5 141.2,-133.5 141.2,-133.5 141.2,-127.5 147.2,-121.5 153.2,-121.5"/>
</g>
<!-- Prompting&#45;&gt;Parsing -->
<g id="edge3" class="edge">
<title>Prompting&#45;&gt;Parsing</title>
<path fill="none" stroke="red" d="M284.22,-268.82C310.89,-253.84 335.18,-232.71 319.7,-210 299.33,-180.11 260.02,-166.46 228.22,-160.23"/>
<polygon fill="red" stroke="red" points="228.66,-156.76 218.2,-158.46 227.44,-163.65 228.66,-156.76"/>
<text text-anchor="middle" x="342.7" y="-213.8" font-family="Times,serif" font-size="14.00"> line </text>
</g>
<!-- Exiting -->
<g id="node6" class="node">
<title>Exiting</title>
<path fill="azure" stroke="transparent" d="M506.2,-192C506.2,-192 457.2,-192 457.2,-192 451.2,-192 445.2,-186 445.2,-180 445.2,-180 445.2,-128 445.2,-128 445.2,-122 451.2,-116 457.2,-116 457.2,-116 506.2,-116 506.2,-116 512.2,-116 518.2,-122 518.2,-128 518.2,-128 518.2,-180 518.2,-180 518.2,-186 512.2,-192 506.2,-192"/>
<text text-anchor="start" x="453.7" y="-173.8" font-family="Times,serif" font-weight="bold" font-size="14.00">Exiting</text>
<text text-anchor="start" x="453.7" y="-149" font-family="Times,serif" font-size="10.00">$&gt;()</text>
<text text-anchor="start" x="453.7" y="-138" font-family="Times,serif" font-size="10.00">is_done()</text>
<text text-anchor="start" x="458.7" y="-127" font-family="Times,serif" font-size="10.00"> &#160;&#160;&#160;&#160;&#160;&#160;&#160;&#160;&#160;&#160;&#160;</text>
<polygon fill="#00688b" stroke="#00688b" points="445.7,-163 445.7,-163 518.7,-163 518.7,-163 445.7,-163"/>
<path fill="none" stroke="#00688b" d="M457.2,-116C457.2,-116 506.2,-116 506.2,-116 512.2,-116 518.2,-122 518.2,-128 518.2,-128 518.2,-180 518.2,-180 518.2,-186 512.2,-192 506.2,-192 506.2,-192 457.2,-192 457.2,-192 451.2,-192 445.2,-186 445.2,-180 445.2,-180 445.2,-128 445.2,-128 445.2,-122 451.2,-116 457.2,-116"/>
</g>
<!-- Prompting&#45;&gt;Exiting -->
<g id="edge2" class="edge">
<title>Prompting&#45;&gt;Exiting</title>
<path fill="none" stroke="red" d="M284.27,-276.68C319.3,-265.51 366.2,-248.03 403.7,-225 415.68,-217.64 427.53,-208.35 438.24,-198.96"/>
<polygon fill="red" stroke="red" points="440.73,-201.43 445.82,-192.14 436.05,-196.23 440.73,-201.43"/>
<text text-anchor="middle" x="443.7" y="-213.8" font-family="Times,serif" font-size="14.00"> line </text>
</g>
<!-- Prompting&#45;&gt;Exiting -->
<g id="edge4" class="edge">
<title>Prompting&#45;&gt;Exiting</title>
<path fill="none" stroke="red" d="M284.63,-290.16C336.46,-286.51 415.67,-272.76 462.7,-225 468.99,-218.61 473.25,-210.36 476.12,-201.78"/>
<polygon fill="red" stroke="red" points="479.53,-202.6 478.81,-192.03 472.78,-200.74 479.53,-202.6"/>
<text text-anchor="middle" x="488.2" y="-213.8" font-family="Times,serif" font-size="14.00"> eof </text>
</g>
<!-- Parsing&#45;&gt;Prompting -->
<g id="edge5" class="edge">
<title>Parsing&#45;&gt;Prompting</title>
<path fill="none" stroke="red" d="M141.07,-156.12C102.91,-159.54 46.36,-171.32 18.7,-210 14.82,-215.42 14.74,-219.64 18.7,-225 53.76,-272.44 122.33,-286.87 172.64,-290.74"/>
<polygon fill="red" stroke="red" points="172.55,-294.24 182.76,-291.39 173.01,-287.25 172.55,-294.24"/>
<text text-anchor="middle" x="34.2" y="-213.8" font-family="Times,serif" font-size="14.00"> $&gt; </text>
</g>
<!-- Parsing&#45;&gt;Prompting -->
<g id="edge6" class="edge">
<title>Parsing&#45;&gt;Prompting</title>
<path fill="none" stroke="red" d="M141.02,-163.72C102.64,-174.3 52.29,-194.58 72.7,-225 95,-258.25 137.37,-274.76 173.04,-282.95"/>
<polygon fill="red" stroke="red" points="172.4,-286.4 182.9,-285.05 173.85,-279.55 172.4,-286.4"/>
<text text-anchor="middle" x="88.2" y="-213.8" font-family="Times,serif" font-size="14.00"> $&gt; </text>
</g>
<!-- Parsing&#45;&gt;Prompting -->
<g id="edge8" class="edge">
<title>Parsing&#45;&gt;Prompting</title>
<path fill="none" stroke="red" d="M141.05,-181.71C127.81,-194.29 118.23,-209.83 126.7,-225 137.17,-243.75 155.39,-257.84 173.87,-268.08"/>
<polygon fill="red" stroke="red" points="172.44,-271.28 182.93,-272.8 175.68,-265.07 172.44,-271.28"/>
<text text-anchor="middle" x="142.2" y="-213.8" font-family="Times,serif" font-size="14.00"> $&gt; </text>
</g>
<!-- Parsing&#45;&gt;Prompting -->
<g id="edge10" class="edge">
<title>Parsing&#45;&gt;Prompting</title>
<path fill="none" stroke="red" d="M175.82,-186.8C175.43,-199.06 176.38,-212.99 180.7,-225 181.76,-227.95 183.01,-230.86 184.41,-233.73"/>
<polygon fill="red" stroke="red" points="181.47,-235.63 189.36,-242.7 187.6,-232.25 181.47,-235.63"/>
<text text-anchor="middle" x="196.2" y="-213.8" font-family="Times,serif" font-size="14.00"> $&gt; </text>
</g>
<!-- Parsing&#45;&gt;Prompting -->
<g id="edge11" class="edge">
<title>Parsing&#45;&gt;Prompting</title>
<path fill="none" stroke="red" d="M199.94,-186.56C204.21,-194.05 208.42,-202.15 211.7,-210 214.74,-217.28 217.48,-225.1 219.91,-232.91"/>
<polygon fill="red" stroke="red" points="216.63,-234.16 222.82,-242.76 223.34,-232.18 216.63,-234.16"/>
<text text-anchor="middle" x="232.2" y="-213.8" font-family="Times,serif" font-size="14.00"> $&gt; </text>
</g>
<!-- Parsing&#45;&gt;Prompting -->
<g id="edge12" class="edge">
<title>Parsing&#45;&gt;Prompting</title>
<path fill="none" stroke="red" d="M218.42,-174.89C231.46,-183.74 244.52,-195.48 251.7,-210 255.16,-217 256.35,-224.67 256.07,-232.42"/>
<polygon fill="red" stroke="red" points="252.57,-232.26 254.93,-242.58 259.52,-233.04 252.57,-232.26"/>
<text text-anchor="middle" x="272.2" y="-213.8" font-family="Times,serif" font-size="14.00"> $&gt; </text>
</g>
<!-- RunningBuiltin -->
<g id="node4" class="node">
<title>RunningBuiltin</title>
<path fill="azure" stroke="transparent" d="M417.2,-65C417.2,-65 300.2,-65 300.2,-65 294.2,-65 288.2,-59 288.2,-53 288.2,-53 288.2,-12 288.2,-12 288.2,-6 294.2,0 300.2,0 300.2,0 417.2,0 417.2,0 423.2,0 429.2,-6 429.2,-12 429.2,-12 429.2,-53 429.2,-53 429.2,-59 423.2,-65 417.2,-65"/>
<text text-anchor="start" x="296.7" y="-46.3" font-family="Times,serif" font-weight="bold" font-size="14.00">RunningBuiltin</text>
<text text-anchor="start" x="296.7" y="-21.5" font-family="Times,serif" font-size="10.00">$&gt;()</text>
<text text-anchor="start" x="296.7" y="-10.5" font-family="Times,serif" font-size="10.00"> &#160;&#160;&#160;&#160;&#160;&#160;&#160;&#160;&#160;&#160;&#160;</text>
<polygon fill="#00688b" stroke="#00688b" points="288.7,-35.5 288.7,-35.5 429.7,-35.5 429.7,-35.5 288.7,-35.5"/>
<path fill="none" stroke="#00688b" d="M300.2,0C300.2,0 417.2,0 417.2,0 423.2,0 429.2,-6 429.2,-12 429.2,-12 429.2,-53 429.2,-53 429.2,-59 423.2,-65 417.2,-65 417.2,-65 300.2,-65 300.2,-65 294.2,-65 288.2,-59 288.2,-53 288.2,-53 288.2,-12 288.2,-12 288.2,-6 294.2,0 300.2,0"/>
</g>
<!-- Parsing&#45;&gt;RunningBuiltin -->
<g id="edge13" class="edge">
<title>Parsing&#45;&gt;RunningBuiltin</title>
<path fill="none" stroke="red" d="M218.54,-127.07C243.23,-110.58 275.6,-88.98 303.01,-70.68"/>
<polygon fill="red" stroke="red" points="304.96,-73.58 311.34,-65.12 301.08,-67.76 304.96,-73.58"/>
<text text-anchor="middle" x="296.2" y="-86.8" font-family="Times,serif" font-size="14.00"> $&gt; </text>
</g>
<!-- RunningForeground -->
<g id="node5" class="node">
<title>RunningForeground</title>
<path fill="azure" stroke="transparent" d="M202.2,-65C202.2,-65 49.2,-65 49.2,-65 43.2,-65 37.2,-59 37.2,-53 37.2,-53 37.2,-12 37.2,-12 37.2,-6 43.2,0 49.2,0 49.2,0 202.2,0 202.2,0 208.2,0 214.2,-6 214.2,-12 214.2,-12 214.2,-53 214.2,-53 214.2,-59 208.2,-65 202.2,-65"/>
<text text-anchor="start" x="45.7" y="-46.3" font-family="Times,serif" font-weight="bold" font-size="14.00">RunningForeground</text>
<text text-anchor="start" x="45.7" y="-21.5" font-family="Times,serif" font-size="10.00">$&gt;()</text>
<text text-anchor="start" x="45.7" y="-10.5" font-family="Times,serif" font-size="10.00"> &#160;&#160;&#160;&#160;&#160;&#160;&#160;&#160;&#160;&#160;&#160;</text>
<polygon fill="#00688b" stroke="#00688b" points="37.7,-35.5 37.7,-35.5 214.7,-35.5 214.7,-35.5 37.7,-35.5"/>
<path fill="none" stroke="#00688b" d="M49.2,0C49.2,0 202.2,0 202.2,0 208.2,0 214.2,-6 214.2,-12 214.2,-12 214.2,-53 214.2,-53 214.2,-59 208.2,-65 202.2,-65 202.2,-65 49.2,-65 49.2,-65 43.2,-65 37.2,-59 37.2,-53 37.2,-53 37.2,-12 37.2,-12 37.2,-6 43.2,0 49.2,0"/>
</g>
<!-- Parsing&#45;&gt;RunningForeground -->
<g id="edge7" class="edge">
<title>Parsing&#45;&gt;RunningForeground</title>
<path fill="none" stroke="red" d="M141.76,-121.37C135.65,-114.35 130.19,-106.46 126.7,-98 123.79,-90.95 122.36,-83.08 121.82,-75.33"/>
<polygon fill="red" stroke="red" points="125.32,-75.2 121.59,-65.29 118.32,-75.36 125.32,-75.2"/>
<text text-anchor="middle" x="142.2" y="-86.8" font-family="Times,serif" font-size="14.00"> $&gt; </text>
</g>
<!-- Parsing&#45;&gt;RunningForeground -->
<g id="edge9" class="edge">
<title>Parsing&#45;&gt;RunningForeground</title>
<path fill="none" stroke="red" d="M171.7,-121.3C168.11,-109.06 163.39,-95.11 157.7,-83 156.31,-80.04 154.76,-77.04 153.13,-74.07"/>
<polygon fill="red" stroke="red" points="156.06,-72.14 148,-65.26 150.01,-75.67 156.06,-72.14"/>
<text text-anchor="middle" x="180.2" y="-86.8" font-family="Times,serif" font-size="14.00"> $&gt; </text>
</g>
<!-- RunningBuiltin&#45;&gt;Prompting -->
<g id="edge14" class="edge">
<title>RunningBuiltin&#45;&gt;Prompting</title>
<path fill="none" stroke="red" d="M369.6,-65.04C381.45,-105.37 394.96,-175.86 364.7,-225 349.12,-250.3 320.53,-266.25 294.02,-276.11"/>
<polygon fill="red" stroke="red" points="292.67,-272.88 284.38,-279.48 294.98,-279.49 292.67,-272.88"/>
<text text-anchor="middle" x="399.2" y="-150.3" font-family="Times,serif" font-size="14.00"> $&gt; </text>
</g>
<!-- RunningForeground&#45;&gt;Prompting -->
<g id="edge15" class="edge">
<title>RunningForeground&#45;&gt;Prompting</title>
<path fill="none" stroke="red" d="M83.56,-65.31C36.93,-104.4 -26.74,-172.06 12.7,-225 31.98,-250.88 114.58,-270.33 173.13,-281.19"/>
<polygon fill="red" stroke="red" points="172.57,-284.65 183.04,-282.99 173.82,-277.76 172.57,-284.65"/>
<text text-anchor="middle" x="47.2" y="-150.3" font-family="Times,serif" font-size="14.00"> $&gt; </text>
</g>
</g>
</svg>
