<?xml version="1.0" encoding="UTF-8" standalone="no"?>
<!DOCTYPE svg PUBLIC "-//W3C//DTD SVG 1.1//EN"
 "http://www.w3.org/Graphics/SVG/1.1/DTD/svg11.dtd">
<!-- Generated by graphviz version 14.1.5 (20260411.2331)
 -->
<!-- Title: Shell Pages: 1 -->
<svg width="794pt" height="500pt"
 viewBox="0.00 0.00 794.00 500.00" xmlns="http://www.w3.org/2000/svg" xmlns:xlink="http://www.w3.org/1999/xlink">
<g id="graph0" class="graph" transform="scale(1 1) rotate(0) translate(4 496.4)">
<title>Shell</title>
<polygon fill="white" stroke="none" points="-4,4 -4,-496.4 789.68,-496.4 789.68,4 -4,4"/>
<!-- Entry -->
<g id="node1" class="node">
<title>Entry</title>
<ellipse fill="black" stroke="#00688b" cx="413.68" cy="-485.2" rx="7.2" ry="7.2"/>
</g>
<!-- Prompting -->
<g id="node2" class="node">
<title>Prompting</title>
<path fill="azure" stroke="none" d="M442.68,-441C442.68,-441 384.68,-441 384.68,-441 378.68,-441 372.68,-435 372.68,-429 372.68,-429 372.68,-341 372.68,-341 372.68,-335 378.68,-329 384.68,-329 384.68,-329 442.68,-329 442.68,-329 448.68,-329 454.68,-335 454.68,-341 454.68,-341 454.68,-429 454.68,-429 454.68,-435 448.68,-441 442.68,-441"/>
<text xml:space="preserve" text-anchor="start" x="382.18" y="-420.7" font-family="Times,serif" font-weight="bold" font-size="14.00">Prompting</text>
<text xml:space="preserve" text-anchor="start" x="380.68" y="-395.5" font-family="Times,serif" font-size="10.00">$&gt;()</text>
<text xml:space="preserve" text-anchor="start" x="380.68" y="-384.25" font-family="Times,serif" font-size="10.00">line(input: &amp;str)</text>
<text xml:space="preserve" text-anchor="start" x="380.68" y="-373" font-family="Times,serif" font-size="10.00">interrupt()</text>
<text xml:space="preserve" text-anchor="start" x="380.68" y="-361.75" font-family="Times,serif" font-size="10.00">eof()</text>
<text xml:space="preserve" text-anchor="start" x="380.68" y="-350.5" font-family="Times,serif" font-size="10.00">is_done()</text>
<text xml:space="preserve" text-anchor="start" x="400.18" y="-339.25" font-family="Times,serif" font-size="10.00"> &#160;&#160;&#160;&#160;&#160;&#160;&#160;&#160;&#160;&#160;&#160;</text>
<polygon fill="#00688b" stroke="#00688b" points="372.68,-410.5 372.68,-410.5 454.68,-410.5 454.68,-410.5 372.68,-410.5"/>
<path fill="none" stroke="#00688b" d="M384.68,-329C384.68,-329 442.68,-329 442.68,-329 448.68,-329 454.68,-335 454.68,-341 454.68,-341 454.68,-429 454.68,-429 454.68,-435 448.68,-441 442.68,-441 442.68,-441 384.68,-441 384.68,-441 378.68,-441 372.68,-435 372.68,-429 372.68,-429 372.68,-341 372.68,-341 372.68,-335 378.68,-329 384.68,-329"/>
</g>
<!-- Entry&#45;&gt;Prompting -->
<g id="edge1" class="edge">
<title>Entry&#45;&gt;Prompting</title>
<path fill="none" stroke="red" d="M413.68,-477.76C413.68,-471.87 413.68,-462.48 413.68,-451.92"/>
<polygon fill="red" stroke="red" points="417.18,-452.09 413.68,-442.09 410.18,-452.09 417.18,-452.09"/>
</g>
<!-- Parsing -->
<g id="node3" class="node">
<title>Parsing</title>
<path fill="azure" stroke="none" d="M442.68,-276.5C442.68,-276.5 384.68,-276.5 384.68,-276.5 378.68,-276.5 372.68,-270.5 372.68,-264.5 372.68,-264.5 372.68,-176.5 372.68,-176.5 372.68,-170.5 378.68,-164.5 384.68,-164.5 384.68,-164.5 442.68,-164.5 442.68,-164.5 448.68,-164.5 454.68,-170.5 454.68,-176.5 454.68,-176.5 454.68,-264.5 454.68,-264.5 454.68,-270.5 448.68,-276.5 442.68,-276.5"/>
<text xml:space="preserve" text-anchor="start" x="391.55" y="-256.2" font-family="Times,serif" font-weight="bold" font-size="14.00">Parsing</text>
<text xml:space="preserve" text-anchor="start" x="380.68" y="-231" font-family="Times,serif" font-size="10.00">$&gt;()</text>
<text xml:space="preserve" text-anchor="start" x="380.68" y="-219.75" font-family="Times,serif" font-size="10.00">line(input: &amp;str)</text>
<text xml:space="preserve" text-anchor="start" x="380.68" y="-208.5" font-family="Times,serif" font-size="10.00">interrupt()</text>
<text xml:space="preserve" text-anchor="start" x="380.68" y="-197.25" font-family="Times,serif" font-size="10.00">eof()</text>
<text xml:space="preserve" text-anchor="start" x="380.68" y="-186" font-family="Times,serif" font-size="10.00">is_done()</text>
<text xml:space="preserve" text-anchor="start" x="400.18" y="-174.75" font-family="Times,serif" font-size="10.00"> &#160;&#160;&#160;&#160;&#160;&#160;&#160;&#160;&#160;&#160;&#160;</text>
<polygon fill="#00688b" stroke="#00688b" points="372.68,-246 372.68,-246 454.68,-246 454.68,-246 372.68,-246"/>
<path fill="none" stroke="#00688b" d="M384.68,-164.5C384.68,-164.5 442.68,-164.5 442.68,-164.5 448.68,-164.5 454.68,-170.5 454.68,-176.5 454.68,-176.5 454.68,-264.5 454.68,-264.5 454.68,-270.5 448.68,-276.5 442.68,-276.5 442.68,-276.5 384.68,-276.5 384.68,-276.5 378.68,-276.5 372.68,-270.5 372.68,-264.5 372.68,-264.5 372.68,-176.5 372.68,-176.5 372.68,-170.5 378.68,-164.5 384.68,-164.5"/>
</g>
<!-- Prompting&#45;&gt;Parsing -->
<g id="edge3" class="edge">
<title>Prompting&#45;&gt;Parsing</title>
<path fill="none" stroke="red" d="M373.01,-379.76C331.36,-373 268.63,-355.61 238.93,-311 206.02,-261.59 298.76,-237.99 361.43,-227.94"/>
<polygon fill="red" stroke="red" points="361.88,-231.41 371.24,-226.45 360.83,-224.49 361.88,-231.41"/>
<text xml:space="preserve" text-anchor="middle" x="252.8" y="-297.7" font-family="Times,serif" font-size="14.00"> line </text>
</g>
<!-- Exiting -->
<g id="node6" class="node">
<title>Exiting</title>
<path fill="azure" stroke="none" d="M773.68,-276.5C773.68,-276.5 715.68,-276.5 715.68,-276.5 709.68,-276.5 703.68,-270.5 703.68,-264.5 703.68,-264.5 703.68,-176.5 703.68,-176.5 703.68,-170.5 709.68,-164.5 715.68,-164.5 715.68,-164.5 773.68,-164.5 773.68,-164.5 779.68,-164.5 785.68,-170.5 785.68,-176.5 785.68,-176.5 785.68,-264.5 785.68,-264.5 785.68,-270.5 779.68,-276.5 773.68,-276.5"/>
<text xml:space="preserve" text-anchor="start" x="723.68" y="-256.2" font-family="Times,serif" font-weight="bold" font-size="14.00">Exiting</text>
<text xml:space="preserve" text-anchor="start" x="711.68" y="-231" font-family="Times,serif" font-size="10.00">$&gt;()</text>
<text xml:space="preserve" text-anchor="start" x="711.68" y="-219.75" font-family="Times,serif" font-size="10.00">line(input: &amp;str)</text>
<text xml:space="preserve" text-anchor="start" x="711.68" y="-208.5" font-family="Times,serif" font-size="10.00">interrupt()</text>
<text xml:space="preserve" text-anchor="start" x="711.68" y="-197.25" font-family="Times,serif" font-size="10.00">eof()</text>
<text xml:space="preserve" text-anchor="start" x="711.68" y="-186" font-family="Times,serif" font-size="10.00">is_done()</text>
<text xml:space="preserve" text-anchor="start" x="731.18" y="-174.75" font-family="Times,serif" font-size="10.00"> &#160;&#160;&#160;&#160;&#160;&#160;&#160;&#160;&#160;&#160;&#160;</text>
<polygon fill="#00688b" stroke="#00688b" points="703.68,-246 703.68,-246 785.68,-246 785.68,-246 703.68,-246"/>
<path fill="none" stroke="#00688b" d="M715.68,-164.5C715.68,-164.5 773.68,-164.5 773.68,-164.5 779.68,-164.5 785.68,-170.5 785.68,-176.5 785.68,-176.5 785.68,-264.5 785.68,-264.5 785.68,-270.5 779.68,-276.5 773.68,-276.5 773.68,-276.5 715.68,-276.5 715.68,-276.5 709.68,-276.5 703.68,-270.5 703.68,-264.5 703.68,-264.5 703.68,-176.5 703.68,-176.5 703.68,-170.5 709.68,-164.5 715.68,-164.5"/>
</g>
<!-- Prompting&#45;&gt;Exiting -->
<g id="edge2" class="edge">
<title>Prompting&#45;&gt;Exiting</title>
<path fill="none" stroke="red" d="M454.45,-379.56C529.2,-370.6 683.97,-348 721.68,-311 728.51,-304.3 733.4,-295.86 736.89,-286.85"/>
<polygon fill="red" stroke="red" points="740.16,-288.13 739.91,-277.54 733.5,-285.97 740.16,-288.13"/>
<text xml:space="preserve" text-anchor="middle" x="747.06" y="-297.7" font-family="Times,serif" font-size="14.00"> line </text>
</g>
<!-- Prompting&#45;&gt;Exiting -->
<g id="edge4" class="edge">
<title>Prompting&#45;&gt;Exiting</title>
<path fill="none" stroke="red" d="M454.57,-380.24C508.48,-373.64 604.47,-356.08 672.68,-311 683.36,-303.94 693.21,-294.79 701.97,-285.05"/>
<polygon fill="red" stroke="red" points="704.57,-287.4 708.41,-277.52 699.25,-282.85 704.57,-287.4"/>
<text xml:space="preserve" text-anchor="middle" x="704.41" y="-297.7" font-family="Times,serif" font-size="14.00"> eof </text>
</g>
<!-- Parsing&#45;&gt;Prompting -->
<g id="edge5" class="edge">
<title>Parsing&#45;&gt;Prompting</title>
<path fill="none" stroke="red" d="M372.73,-231.99C328.58,-245.52 267.41,-272.05 289.68,-311 305.33,-338.38 335.7,-356.51 362.46,-367.85"/>
<polygon fill="red" stroke="red" points="360.9,-370.99 371.48,-371.45 363.49,-364.49 360.9,-370.99"/>
<text xml:space="preserve" text-anchor="middle" x="316.68" y="-297.7" font-family="Times,serif" font-size="14.00"> interrupt </text>
</g>
<!-- Parsing&#45;&gt;Prompting -->
<g id="edge6" class="edge">
<title>Parsing&#45;&gt;Prompting</title>
<path fill="none" stroke="red" d="M372.88,-269.75C366.31,-282.72 362.84,-297.04 366.93,-311 367.72,-313.72 368.65,-316.43 369.69,-319.12"/>
<polygon fill="red" stroke="red" points="366.37,-320.26 373.61,-328 372.78,-317.44 366.37,-320.26"/>
<text xml:space="preserve" text-anchor="middle" x="379.3" y="-297.7" font-family="Times,serif" font-size="14.00"> eof </text>
</g>
<!-- Parsing&#45;&gt;Prompting -->
<g id="edge7" class="edge">
<title>Parsing&#45;&gt;Prompting</title>
<path fill="none" stroke="red" d="M413.68,-276.47C413.68,-289.82 413.68,-304.23 413.68,-318.03"/>
<polygon fill="red" stroke="red" points="410.18,-317.92 413.68,-327.92 417.18,-317.92 410.18,-317.92"/>
<text xml:space="preserve" text-anchor="middle" x="424.93" y="-297.7" font-family="Times,serif" font-size="14.00"> $&gt; </text>
</g>
<!-- Parsing&#45;&gt;Prompting -->
<g id="edge8" class="edge">
<title>Parsing&#45;&gt;Prompting</title>
<path fill="none" stroke="red" d="M435.99,-276.5C438.44,-287.82 439.48,-299.72 437.68,-311 437.3,-313.32 436.87,-315.66 436.39,-318.01"/>
<polygon fill="red" stroke="red" points="433.02,-317.05 434.12,-327.58 439.83,-318.66 433.02,-317.05"/>
<text xml:space="preserve" text-anchor="middle" x="449.84" y="-297.7" font-family="Times,serif" font-size="14.00"> $&gt; </text>
</g>
<!-- Parsing&#45;&gt;Prompting -->
<g id="edge10" class="edge">
<title>Parsing&#45;&gt;Prompting</title>
<path fill="none" stroke="red" d="M454.62,-272.08C458.72,-279.27 462.26,-286.83 464.68,-294.5 468.7,-307.29 465.99,-320.27 460.15,-332.23"/>
<polygon fill="red" stroke="red" points="457.23,-330.27 455.33,-340.69 463.32,-333.74 457.23,-330.27"/>
<text xml:space="preserve" text-anchor="middle" x="477.84" y="-297.7" font-family="Times,serif" font-size="14.00"> $&gt; </text>
</g>
<!-- Parsing&#45;&gt;Prompting -->
<g id="edge12" class="edge">
<title>Parsing&#45;&gt;Prompting</title>
<path fill="none" stroke="red" d="M454.54,-243.42C479.41,-259.97 504.35,-284.32 492.68,-311 486.23,-325.73 475.18,-338.81 463.36,-349.68"/>
<polygon fill="red" stroke="red" points="461.09,-347.02 455.81,-356.21 465.67,-352.32 461.09,-347.02"/>
<text xml:space="preserve" text-anchor="middle" x="506.88" y="-297.7" font-family="Times,serif" font-size="14.00"> $&gt; </text>
</g>
<!-- Parsing&#45;&gt;Prompting -->
<g id="edge13" class="edge">
<title>Parsing&#45;&gt;Prompting</title>
<path fill="none" stroke="red" d="M454.5,-234.88C492.31,-249.74 540.12,-276.27 521.68,-311 509.44,-334.04 486.33,-351.12 464.62,-362.95"/>
<polygon fill="red" stroke="red" points="463.1,-359.8 455.81,-367.49 466.3,-366.03 463.1,-359.8"/>
<text xml:space="preserve" text-anchor="middle" x="537.01" y="-297.7" font-family="Times,serif" font-size="14.00"> $&gt; </text>
</g>
<!-- Parsing&#45;&gt;Prompting -->
<g id="edge14" class="edge">
<title>Parsing&#45;&gt;Prompting</title>
<path fill="none" stroke="red" d="M372.72,-222.67C323.82,-226.54 243.92,-241.21 206.18,-294.5 164.9,-352.77 287.21,-373.43 361.35,-380.5"/>
<polygon fill="red" stroke="red" points="361.03,-383.98 371.3,-381.38 361.65,-377.01 361.03,-383.98"/>
<text xml:space="preserve" text-anchor="middle" x="217.43" y="-297.7" font-family="Times,serif" font-size="14.00"> $&gt; </text>
</g>
<!-- RunningBuiltin -->
<g id="node4" class="node">
<title>RunningBuiltin</title>
<path fill="azure" stroke="none" d="M129.68,-112C129.68,-112 47.68,-112 47.68,-112 41.68,-112 35.68,-106 35.68,-100 35.68,-100 35.68,-12 35.68,-12 35.68,-6 41.68,0 47.68,0 47.68,0 129.68,0 129.68,0 135.68,0 141.68,-6 141.68,-12 141.68,-12 141.68,-100 141.68,-100 141.68,-106 135.68,-112 129.68,-112"/>
<text xml:space="preserve" text-anchor="start" x="43.68" y="-91.7" font-family="Times,serif" font-weight="bold" font-size="14.00">RunningBuiltin</text>
<text xml:space="preserve" text-anchor="start" x="43.68" y="-66.5" font-family="Times,serif" font-size="10.00">$&gt;()</text>
<text xml:space="preserve" text-anchor="start" x="43.68" y="-55.25" font-family="Times,serif" font-size="10.00">line(input: &amp;str)</text>
<text xml:space="preserve" text-anchor="start" x="43.68" y="-44" font-family="Times,serif" font-size="10.00">interrupt()</text>
<text xml:space="preserve" text-anchor="start" x="43.68" y="-32.75" font-family="Times,serif" font-size="10.00">eof()</text>
<text xml:space="preserve" text-anchor="start" x="43.68" y="-21.5" font-family="Times,serif" font-size="10.00">is_done()</text>
<text xml:space="preserve" text-anchor="start" x="63.18" y="-10.25" font-family="Times,serif" font-size="10.00"> &#160;&#160;&#160;&#160;&#160;&#160;&#160;&#160;&#160;&#160;&#160;</text>
<polygon fill="#00688b" stroke="#00688b" points="35.68,-81.5 35.68,-81.5 141.68,-81.5 141.68,-81.5 35.68,-81.5"/>
<path fill="none" stroke="#00688b" d="M47.68,0C47.68,0 129.68,0 129.68,0 135.68,0 141.68,-6 141.68,-12 141.68,-12 141.68,-100 141.68,-100 141.68,-106 135.68,-112 129.68,-112 129.68,-112 47.68,-112 47.68,-112 41.68,-112 35.68,-106 35.68,-100 35.68,-100 35.68,-12 35.68,-12 35.68,-6 41.68,0 47.68,0"/>
</g>
<!-- Parsing&#45;&gt;RunningBuiltin -->
<g id="edge15" class="edge">
<title>Parsing&#45;&gt;RunningBuiltin</title>
<path fill="none" stroke="red" d="M372.84,-199.08C317.17,-171.25 216.93,-121.13 151.61,-88.47"/>
<polygon fill="red" stroke="red" points="153.3,-85.4 142.79,-84.06 150.17,-91.66 153.3,-85.4"/>
<text xml:space="preserve" text-anchor="middle" x="272.17" y="-133.2" font-family="Times,serif" font-size="14.00"> $&gt; </text>
</g>
<!-- RunningForeground -->
<g id="node5" class="node">
<title>RunningForeground</title>
<path fill="azure" stroke="none" d="M515.3,-112C515.3,-112 404.05,-112 404.05,-112 398.05,-112 392.05,-106 392.05,-100 392.05,-100 392.05,-12 392.05,-12 392.05,-6 398.05,0 404.05,0 404.05,0 515.3,0 515.3,0 521.3,0 527.3,-6 527.3,-12 527.3,-12 527.3,-100 527.3,-100 527.3,-106 521.3,-112 515.3,-112"/>
<text xml:space="preserve" text-anchor="start" x="400.05" y="-91.7" font-family="Times,serif" font-weight="bold" font-size="14.00">RunningForeground</text>
<text xml:space="preserve" text-anchor="start" x="400.05" y="-66.5" font-family="Times,serif" font-size="10.00">$&gt;()</text>
<text xml:space="preserve" text-anchor="start" x="400.05" y="-55.25" font-family="Times,serif" font-size="10.00">line(input: &amp;str)</text>
<text xml:space="preserve" text-anchor="start" x="400.05" y="-44" font-family="Times,serif" font-size="10.00">interrupt()</text>
<text xml:space="preserve" text-anchor="start" x="400.05" y="-32.75" font-family="Times,serif" font-size="10.00">eof()</text>
<text xml:space="preserve" text-anchor="start" x="400.05" y="-21.5" font-family="Times,serif" font-size="10.00">is_done()</text>
<text xml:space="preserve" text-anchor="start" x="419.55" y="-10.25" font-family="Times,serif" font-size="10.00"> &#160;&#160;&#160;&#160;&#160;&#160;&#160;&#160;&#160;&#160;&#160;</text>
<polygon fill="#00688b" stroke="#00688b" points="392.05,-81.5 392.05,-81.5 527.3,-81.5 527.3,-81.5 392.05,-81.5"/>
<path fill="none" stroke="#00688b" d="M404.05,0C404.05,0 515.3,0 515.3,0 521.3,0 527.3,-6 527.3,-12 527.3,-12 527.3,-100 527.3,-100 527.3,-106 521.3,-112 515.3,-112 515.3,-112 404.05,-112 404.05,-112 398.05,-112 392.05,-106 392.05,-100 392.05,-100 392.05,-12 392.05,-12 392.05,-6 398.05,0 404.05,0"/>
</g>
<!-- Parsing&#45;&gt;RunningForeground -->
<g id="edge9" class="edge">
<title>Parsing&#45;&gt;RunningForeground</title>
<path fill="none" stroke="red" d="M410.02,-164.86C410.5,-153.18 411.97,-141.05 415.18,-130 415.92,-127.41 416.79,-124.83 417.76,-122.25"/>
<polygon fill="red" stroke="red" points="420.92,-123.75 421.62,-113.17 414.48,-121.01 420.92,-123.75"/>
<text xml:space="preserve" text-anchor="middle" x="426.43" y="-133.2" font-family="Times,serif" font-size="14.00"> $&gt; </text>
</g>
<!-- Parsing&#45;&gt;RunningForeground -->
<g id="edge11" class="edge">
<title>Parsing&#45;&gt;RunningForeground</title>
<path fill="none" stroke="red" d="M432.21,-164.63C434.12,-158.54 435.98,-152.4 437.68,-146.5 439.89,-138.78 442.08,-130.65 444.17,-122.56"/>
<polygon fill="red" stroke="red" points="447.51,-123.63 446.59,-113.07 440.73,-121.9 447.51,-123.63"/>
<text xml:space="preserve" text-anchor="middle" x="452.95" y="-133.2" font-family="Times,serif" font-size="14.00"> $&gt; </text>
</g>
<!-- RunningBuiltin&#45;&gt;Prompting -->
<g id="edge16" class="edge">
<title>RunningBuiltin&#45;&gt;Prompting</title>
<path fill="none" stroke="red" d="M62.62,-111.74C44.41,-158.59 28.12,-226.24 57.68,-276.5 88.82,-329.47 270.49,-363.1 361.6,-376.87"/>
<polygon fill="red" stroke="red" points="360.88,-380.3 371.28,-378.3 361.9,-373.38 360.88,-380.3"/>
<text xml:space="preserve" text-anchor="middle" x="84.68" y="-215.45" font-family="Times,serif" font-size="14.00"> interrupt </text>
</g>
<!-- RunningBuiltin&#45;&gt;Prompting -->
<g id="edge17" class="edge">
<title>RunningBuiltin&#45;&gt;Prompting</title>
<path fill="none" stroke="red" d="M103.43,-111.83C122.55,-178.65 157.29,-285.78 189.68,-311 240.31,-350.44 313.04,-368.95 361.74,-377.38"/>
<polygon fill="red" stroke="red" points="361.04,-380.81 371.48,-378.97 362.17,-373.91 361.04,-380.81"/>
<text xml:space="preserve" text-anchor="middle" x="176.33" y="-215.45" font-family="Times,serif" font-size="14.00"> eof </text>
</g>
<!-- RunningBuiltin&#45;&gt;Prompting -->
<g id="edge18" class="edge">
<title>RunningBuiltin&#45;&gt;Prompting</title>
<path fill="none" stroke="red" d="M41.89,-111.96C30.98,-127.91 20.89,-146.03 15.18,-164.5 0.47,-212.06 -9.01,-232.99 15.18,-276.5 49.04,-337.42 261.58,-367.83 361.66,-378.92"/>
<polygon fill="red" stroke="red" points="361.18,-382.39 371.5,-379.99 361.94,-375.43 361.18,-382.39"/>
<text xml:space="preserve" text-anchor="middle" x="26.43" y="-215.45" font-family="Times,serif" font-size="14.00"> $&gt; </text>
</g>
<!-- RunningForeground&#45;&gt;Prompting -->
<g id="edge19" class="edge">
<title>RunningForeground&#45;&gt;Prompting</title>
<path fill="none" stroke="red" d="M506.81,-112C546.49,-165.37 591.11,-247.4 552.68,-311 533.76,-342.3 496.49,-360.85 465.3,-371.41"/>
<polygon fill="red" stroke="red" points="464.47,-367.99 456,-374.36 466.59,-374.67 464.47,-367.99"/>
<text xml:space="preserve" text-anchor="middle" x="594.38" y="-215.45" font-family="Times,serif" font-size="14.00"> interrupt </text>
</g>
<!-- RunningForeground&#45;&gt;Prompting -->
<g id="edge20" class="edge">
<title>RunningForeground&#45;&gt;Prompting</title>
<path fill="none" stroke="red" d="M526.93,-81.79C563.18,-99.02 604.68,-125.89 625.68,-164.5 649.46,-208.23 649.77,-232.94 625.68,-276.5 593.29,-335.04 516.92,-362.54 465.24,-374.85"/>
<polygon fill="red" stroke="red" points="464.76,-371.37 455.77,-376.98 466.3,-378.2 464.76,-371.37"/>
<text xml:space="preserve" text-anchor="middle" x="656" y="-215.45" font-family="Times,serif" font-size="14.00"> eof </text>
</g>
<!-- RunningForeground&#45;&gt;Prompting -->
<g id="edge21" class="edge">
<title>RunningForeground&#45;&gt;Prompting</title>
<path fill="none" stroke="red" d="M392.1,-62.28C342.7,-69.71 277.62,-87.5 237.68,-130 185.92,-185.07 204.31,-219.55 194.68,-294.5 185.39,-366.71 293.95,-381.83 361.61,-384.3"/>
<polygon fill="red" stroke="red" points="361.31,-387.79 371.4,-384.57 361.5,-380.8 361.31,-387.79"/>
<text xml:space="preserve" text-anchor="middle" x="222.91" y="-215.45" font-family="Times,serif" font-size="14.00"> $&gt; </text>
</g>
</g>
</svg>
