<?xml version="1.0" encoding="UTF-8" standalone="no"?>
<!DOCTYPE svg PUBLIC "-//W3C//DTD SVG 1.1//EN"
 "http://www.w3.org/Graphics/SVG/1.1/DTD/svg11.dtd">
<!-- Generated by graphviz version 14.1.5 (20260411.2331)
 -->
<!-- Title: Shell Pages: 1 -->
<svg width="610pt" height="410pt"
 viewBox="0.00 0.00 610.00 410.00" xmlns="http://www.w3.org/2000/svg" xmlns:xlink="http://www.w3.org/1999/xlink">
<g id="graph0" class="graph" transform="scale(1 1) rotate(0) translate(4 406.4)">
<title>Shell</title>
<polygon fill="white" stroke="none" points="-4,4 -4,-406.4 606.38,-406.4 606.38,4 -4,4"/>
<!-- Entry -->
<g id="node1" class="node">
<title>Entry</title>
<ellipse fill="black" stroke="#00688b" cx="295.38" cy="-395.2" rx="7.2" ry="7.2"/>
</g>
<!-- Prompting -->
<g id="node2" class="node">
<title>Prompting</title>
<path fill="azure" stroke="none" d="M324.38,-351C324.38,-351 266.38,-351 266.38,-351 260.38,-351 254.38,-345 254.38,-339 254.38,-339 254.38,-262.25 254.38,-262.25 254.38,-256.25 260.38,-250.25 266.38,-250.25 266.38,-250.25 324.38,-250.25 324.38,-250.25 330.38,-250.25 336.38,-256.25 336.38,-262.25 336.38,-262.25 336.38,-339 336.38,-339 336.38,-345 330.38,-351 324.38,-351"/>
<text xml:space="preserve" text-anchor="start" x="263.88" y="-330.7" font-family="Times,serif" font-weight="bold" font-size="14.00">Prompting</text>
<text xml:space="preserve" text-anchor="start" x="262.38" y="-305.5" font-family="Times,serif" font-size="10.00">$&gt;()</text>
<text xml:space="preserve" text-anchor="start" x="262.38" y="-294.25" font-family="Times,serif" font-size="10.00">line(input: &amp;str)</text>
<text xml:space="preserve" text-anchor="start" x="262.38" y="-283" font-family="Times,serif" font-size="10.00">interrupt()</text>
<text xml:space="preserve" text-anchor="start" x="262.38" y="-271.75" font-family="Times,serif" font-size="10.00">eof()</text>
<text xml:space="preserve" text-anchor="start" x="281.88" y="-260.5" font-family="Times,serif" font-size="10.00"> &#160;&#160;&#160;&#160;&#160;&#160;&#160;&#160;&#160;&#160;&#160;</text>
<polygon fill="#00688b" stroke="#00688b" points="254.38,-320.5 254.38,-320.5 336.38,-320.5 336.38,-320.5 254.38,-320.5"/>
<path fill="none" stroke="#00688b" d="M266.38,-250.25C266.38,-250.25 324.38,-250.25 324.38,-250.25 330.38,-250.25 336.38,-256.25 336.38,-262.25 336.38,-262.25 336.38,-339 336.38,-339 336.38,-345 330.38,-351 324.38,-351 324.38,-351 266.38,-351 266.38,-351 260.38,-351 254.38,-345 254.38,-339 254.38,-339 254.38,-262.25 254.38,-262.25 254.38,-256.25 260.38,-250.25 266.38,-250.25"/>
</g>
<!-- Entry&#45;&gt;Prompting -->
<g id="edge1" class="edge">
<title>Entry&#45;&gt;Prompting</title>
<path fill="none" stroke="red" d="M295.38,-387.54C295.38,-381.64 295.38,-372.36 295.38,-362.06"/>
<polygon fill="red" stroke="red" points="298.88,-362.09 295.38,-352.09 291.88,-362.09 298.88,-362.09"/>
</g>
<!-- Parsing -->
<g id="node3" class="node">
<title>Parsing</title>
<path fill="azure" stroke="none" d="M267.51,-192.12C267.51,-192.12 231.26,-192.12 231.26,-192.12 225.26,-192.12 219.26,-186.12 219.26,-180.12 219.26,-180.12 219.26,-137.12 219.26,-137.12 219.26,-131.12 225.26,-125.12 231.26,-125.12 231.26,-125.12 267.51,-125.12 267.51,-125.12 273.51,-125.12 279.51,-131.12 279.51,-137.12 279.51,-137.12 279.51,-180.12 279.51,-180.12 279.51,-186.12 273.51,-192.12 267.51,-192.12"/>
<text xml:space="preserve" text-anchor="start" x="227.26" y="-171.82" font-family="Times,serif" font-weight="bold" font-size="14.00">Parsing</text>
<text xml:space="preserve" text-anchor="start" x="227.26" y="-146.62" font-family="Times,serif" font-size="10.00">$&gt;()</text>
<text xml:space="preserve" text-anchor="start" x="227.26" y="-135.38" font-family="Times,serif" font-size="10.00"> &#160;&#160;&#160;&#160;&#160;&#160;&#160;&#160;&#160;&#160;&#160;</text>
<polygon fill="#00688b" stroke="#00688b" points="219.26,-161.62 219.26,-161.62 279.51,-161.62 279.51,-161.62 219.26,-161.62"/>
<path fill="none" stroke="#00688b" d="M231.26,-125.12C231.26,-125.12 267.51,-125.12 267.51,-125.12 273.51,-125.12 279.51,-131.12 279.51,-137.12 279.51,-137.12 279.51,-180.12 279.51,-180.12 279.51,-186.12 273.51,-192.12 267.51,-192.12 267.51,-192.12 231.26,-192.12 231.26,-192.12 225.26,-192.12 219.26,-186.12 219.26,-180.12 219.26,-180.12 219.26,-137.12 219.26,-137.12 219.26,-131.12 225.26,-125.12 231.26,-125.12"/>
</g>
<!-- Prompting&#45;&gt;Parsing -->
<g id="edge3" class="edge">
<title>Prompting&#45;&gt;Parsing</title>
<path fill="none" stroke="red" d="M254.87,-293.85C194.33,-284.29 84.87,-263.13 61.63,-232.25 22.18,-179.82 141.55,-165.23 208.03,-161.18"/>
<polygon fill="red" stroke="red" points="208.08,-164.68 217.87,-160.64 207.7,-157.69 208.08,-164.68"/>
<text xml:space="preserve" text-anchor="middle" x="75.51" y="-218.95" font-family="Times,serif" font-size="14.00"> line </text>
</g>
<!-- Exiting -->
<g id="node7" class="node">
<title>Exiting</title>
<path fill="azure" stroke="none" d="M590.38,-197.75C590.38,-197.75 556.38,-197.75 556.38,-197.75 550.38,-197.75 544.38,-191.75 544.38,-185.75 544.38,-185.75 544.38,-131.5 544.38,-131.5 544.38,-125.5 550.38,-119.5 556.38,-119.5 556.38,-119.5 590.38,-119.5 590.38,-119.5 596.38,-119.5 602.38,-125.5 602.38,-131.5 602.38,-131.5 602.38,-185.75 602.38,-185.75 602.38,-191.75 596.38,-197.75 590.38,-197.75"/>
<text xml:space="preserve" text-anchor="start" x="552.38" y="-177.45" font-family="Times,serif" font-weight="bold" font-size="14.00">Exiting</text>
<text xml:space="preserve" text-anchor="start" x="552.38" y="-152.25" font-family="Times,serif" font-size="10.00">$&gt;()</text>
<text xml:space="preserve" text-anchor="start" x="552.38" y="-141" font-family="Times,serif" font-size="10.00">is_done()</text>
<text xml:space="preserve" text-anchor="start" x="558.01" y="-129.75" font-family="Times,serif" font-size="10.00"> &#160;&#160;&#160;&#160;&#160;&#160;&#160;&#160;&#160;&#160;&#160;</text>
<polygon fill="#00688b" stroke="#00688b" points="544.38,-167.25 544.38,-167.25 602.38,-167.25 602.38,-167.25 544.38,-167.25"/>
<path fill="none" stroke="#00688b" d="M556.38,-119.5C556.38,-119.5 590.38,-119.5 590.38,-119.5 596.38,-119.5 602.38,-125.5 602.38,-131.5 602.38,-131.5 602.38,-185.75 602.38,-185.75 602.38,-191.75 596.38,-197.75 590.38,-197.75 590.38,-197.75 556.38,-197.75 556.38,-197.75 550.38,-197.75 544.38,-191.75 544.38,-185.75 544.38,-185.75 544.38,-131.5 544.38,-131.5 544.38,-125.5 550.38,-119.5 556.38,-119.5"/>
</g>
<!-- Prompting&#45;&gt;Exiting -->
<g id="edge2" class="edge">
<title>Prompting&#45;&gt;Exiting</title>
<path fill="none" stroke="red" d="M336.37,-293.18C381.18,-284.7 453.75,-266.66 507.38,-232.25 518.47,-225.13 528.89,-215.69 538.02,-205.97"/>
<polygon fill="red" stroke="red" points="540.61,-208.32 544.69,-198.54 535.41,-203.64 540.61,-208.32"/>
<text xml:space="preserve" text-anchor="middle" x="540.23" y="-218.95" font-family="Times,serif" font-size="14.00"> line </text>
</g>
<!-- Prompting&#45;&gt;Exiting -->
<g id="edge4" class="edge">
<title>Prompting&#45;&gt;Exiting</title>
<path fill="none" stroke="red" d="M336.3,-294.46C402.33,-285.28 528.04,-264.05 558.38,-232.25 564.57,-225.77 568.5,-217.44 570.94,-208.75"/>
<polygon fill="red" stroke="red" points="574.33,-209.65 572.99,-199.14 567.48,-208.19 574.33,-209.65"/>
<text xml:space="preserve" text-anchor="middle" x="580.3" y="-218.95" font-family="Times,serif" font-size="14.00"> eof </text>
</g>
<!-- Parsing&#45;&gt;Prompting -->
<g id="edge5" class="edge">
<title>Parsing&#45;&gt;Prompting</title>
<path fill="none" stroke="red" d="M219.5,-163.51C171.17,-171.09 84.03,-190.84 112.88,-232.25 142.06,-274.13 200.4,-290.05 243.3,-296.05"/>
<polygon fill="red" stroke="red" points="242.81,-299.52 253.17,-297.28 243.68,-292.57 242.81,-299.52"/>
<text xml:space="preserve" text-anchor="middle" x="124.13" y="-218.95" font-family="Times,serif" font-size="14.00"> $&gt; </text>
</g>
<!-- Parsing&#45;&gt;Prompting -->
<g id="edge6" class="edge">
<title>Parsing&#45;&gt;Prompting</title>
<path fill="none" stroke="red" d="M219.48,-168.86C186.64,-180.68 140.8,-203.16 158.88,-232.25 177.4,-262.03 213.39,-279.04 243.78,-288.52"/>
<polygon fill="red" stroke="red" points="242.64,-291.84 253.22,-291.26 244.59,-285.11 242.64,-291.84"/>
<text xml:space="preserve" text-anchor="middle" x="170.13" y="-218.95" font-family="Times,serif" font-size="14.00"> $&gt; </text>
</g>
<!-- Parsing&#45;&gt;Prompting -->
<g id="edge7" class="edge">
<title>Parsing&#45;&gt;Prompting</title>
<path fill="none" stroke="red" d="M219.53,-184.57C206.84,-198.31 196.65,-215.86 204.88,-232.25 213.7,-249.81 229.5,-263.95 245.46,-274.66"/>
<polygon fill="red" stroke="red" points="243.22,-277.38 253.55,-279.76 246.96,-271.46 243.22,-277.38"/>
<text xml:space="preserve" text-anchor="middle" x="216.13" y="-218.95" font-family="Times,serif" font-size="14.00"> $&gt; </text>
</g>
<!-- Parsing&#45;&gt;Prompting -->
<g id="edge9" class="edge">
<title>Parsing&#45;&gt;Prompting</title>
<path fill="none" stroke="red" d="M246.23,-192.06C245.96,-204.84 246.9,-219.49 250.88,-232.25 251.69,-234.85 252.63,-237.44 253.68,-240.01"/>
<polygon fill="red" stroke="red" points="250.51,-241.47 257.91,-249.05 256.85,-238.51 250.51,-241.47"/>
<text xml:space="preserve" text-anchor="middle" x="262.13" y="-218.95" font-family="Times,serif" font-size="14.00"> $&gt; </text>
</g>
<!-- Parsing&#45;&gt;Prompting -->
<g id="edge10" class="edge">
<title>Parsing&#45;&gt;Prompting</title>
<path fill="none" stroke="red" d="M264.17,-191.95C267.43,-199.67 270.7,-207.93 273.38,-215.75 276,-223.39 278.49,-231.5 280.78,-239.57"/>
<polygon fill="red" stroke="red" points="277.35,-240.3 283.39,-249.02 284.1,-238.45 277.35,-240.3"/>
<text xml:space="preserve" text-anchor="middle" x="289.69" y="-218.95" font-family="Times,serif" font-size="14.00"> $&gt; </text>
</g>
<!-- Parsing&#45;&gt;Prompting -->
<g id="edge12" class="edge">
<title>Parsing&#45;&gt;Prompting</title>
<path fill="none" stroke="red" d="M279.38,-181.5C289.64,-190.78 299.91,-202.52 305.38,-215.75 308.43,-223.12 309.73,-231.14 309.89,-239.21"/>
<polygon fill="red" stroke="red" points="306.4,-238.93 309.48,-249.06 313.39,-239.22 306.4,-238.93"/>
<text xml:space="preserve" text-anchor="middle" x="320.55" y="-218.95" font-family="Times,serif" font-size="14.00"> $&gt; </text>
</g>
<!-- Parsing&#45;&gt;Prompting -->
<g id="edge14" class="edge">
<title>Parsing&#45;&gt;Prompting</title>
<path fill="none" stroke="red" d="M279.46,-170.42C299.24,-179.28 323.58,-193.96 335.38,-215.75 339.5,-223.36 340.14,-231.46 338.57,-239.51"/>
<polygon fill="red" stroke="red" points="335.26,-238.38 335.64,-248.97 341.95,-240.45 335.26,-238.38"/>
<text xml:space="preserve" text-anchor="middle" x="350.61" y="-218.95" font-family="Times,serif" font-size="14.00"> $&gt; </text>
</g>
<!-- Parsing&#45;&gt;Prompting -->
<g id="edge15" class="edge">
<title>Parsing&#45;&gt;Prompting</title>
<path fill="none" stroke="red" d="M279.37,-164.9C307.07,-171.53 346.66,-185.9 365.38,-215.75 377.26,-234.7 363.34,-253.99 344.87,-269.29"/>
<polygon fill="red" stroke="red" points="343.12,-266.22 337.34,-275.1 347.39,-271.76 343.12,-266.22"/>
<text xml:space="preserve" text-anchor="middle" x="381.04" y="-218.95" font-family="Times,serif" font-size="14.00"> $&gt; </text>
</g>
<!-- Parsing&#45;&gt;Prompting -->
<g id="edge16" class="edge">
<title>Parsing&#45;&gt;Prompting</title>
<path fill="none" stroke="red" d="M219.4,-159.34C147.92,-159.68 -22.87,-167.13 27.88,-232.25 54.1,-265.89 173.29,-285.33 243.41,-294.05"/>
<polygon fill="red" stroke="red" points="242.79,-297.5 253.14,-295.22 243.63,-290.55 242.79,-297.5"/>
<text xml:space="preserve" text-anchor="middle" x="39.13" y="-218.95" font-family="Times,serif" font-size="14.00"> $&gt; </text>
</g>
<!-- RunningBuiltin -->
<g id="node4" class="node">
<title>RunningBuiltin</title>
<path fill="azure" stroke="none" d="M110.38,-67C110.38,-67 28.38,-67 28.38,-67 22.38,-67 16.38,-61 16.38,-55 16.38,-55 16.38,-12 16.38,-12 16.38,-6 22.38,0 28.38,0 28.38,0 110.38,0 110.38,0 116.38,0 122.38,-6 122.38,-12 122.38,-12 122.38,-55 122.38,-55 122.38,-61 116.38,-67 110.38,-67"/>
<text xml:space="preserve" text-anchor="start" x="24.38" y="-46.7" font-family="Times,serif" font-weight="bold" font-size="14.00">RunningBuiltin</text>
<text xml:space="preserve" text-anchor="start" x="24.38" y="-21.5" font-family="Times,serif" font-size="10.00">$&gt;()</text>
<text xml:space="preserve" text-anchor="start" x="24.38" y="-10.25" font-family="Times,serif" font-size="10.00"> &#160;&#160;&#160;&#160;&#160;&#160;&#160;&#160;&#160;&#160;&#160;</text>
<polygon fill="#00688b" stroke="#00688b" points="16.38,-36.5 16.38,-36.5 122.38,-36.5 122.38,-36.5 16.38,-36.5"/>
<path fill="none" stroke="#00688b" d="M28.38,0C28.38,0 110.38,0 110.38,0 116.38,0 122.38,-6 122.38,-12 122.38,-12 122.38,-55 122.38,-55 122.38,-61 116.38,-67 110.38,-67 110.38,-67 28.38,-67 28.38,-67 22.38,-67 16.38,-61 16.38,-55 16.38,-55 16.38,-12 16.38,-12 16.38,-6 22.38,0 28.38,0"/>
</g>
<!-- Parsing&#45;&gt;RunningBuiltin -->
<g id="edge17" class="edge">
<title>Parsing&#45;&gt;RunningBuiltin</title>
<path fill="none" stroke="red" d="M219.66,-137.29C194.32,-119.96 157.19,-94.56 126.17,-73.35"/>
<polygon fill="red" stroke="red" points="128.24,-70.52 118.01,-67.76 124.29,-76.3 128.24,-70.52"/>
<text xml:space="preserve" text-anchor="middle" x="176.03" y="-88.2" font-family="Times,serif" font-size="14.00"> $&gt; </text>
</g>
<!-- RunningPipeline -->
<g id="node5" class="node">
<title>RunningPipeline</title>
<path fill="azure" stroke="none" d="M511.76,-67C511.76,-67 423.01,-67 423.01,-67 417.01,-67 411.01,-61 411.01,-55 411.01,-55 411.01,-12 411.01,-12 411.01,-6 417.01,0 423.01,0 423.01,0 511.76,0 511.76,0 517.76,0 523.76,-6 523.76,-12 523.76,-12 523.76,-55 523.76,-55 523.76,-61 517.76,-67 511.76,-67"/>
<text xml:space="preserve" text-anchor="start" x="419.01" y="-46.7" font-family="Times,serif" font-weight="bold" font-size="14.00">RunningPipeline</text>
<text xml:space="preserve" text-anchor="start" x="419.01" y="-21.5" font-family="Times,serif" font-size="10.00">$&gt;()</text>
<text xml:space="preserve" text-anchor="start" x="419.01" y="-10.25" font-family="Times,serif" font-size="10.00"> &#160;&#160;&#160;&#160;&#160;&#160;&#160;&#160;&#160;&#160;&#160;</text>
<polygon fill="#00688b" stroke="#00688b" points="411.01,-36.5 411.01,-36.5 523.76,-36.5 523.76,-36.5 411.01,-36.5"/>
<path fill="none" stroke="#00688b" d="M423.01,0C423.01,0 511.76,0 511.76,0 517.76,0 523.76,-6 523.76,-12 523.76,-12 523.76,-55 523.76,-55 523.76,-61 517.76,-67 511.76,-67 511.76,-67 423.01,-67 423.01,-67 417.01,-67 411.01,-61 411.01,-55 411.01,-55 411.01,-12 411.01,-12 411.01,-6 417.01,0 423.01,0"/>
</g>
<!-- Parsing&#45;&gt;RunningPipeline -->
<g id="edge8" class="edge">
<title>Parsing&#45;&gt;RunningPipeline</title>
<path fill="none" stroke="red" d="M279.24,-140.76C310.48,-123.12 360.54,-94.84 401.17,-71.9"/>
<polygon fill="red" stroke="red" points="402.71,-75.05 409.69,-67.08 399.27,-68.95 402.71,-75.05"/>
<text xml:space="preserve" text-anchor="middle" x="389.16" y="-88.2" font-family="Times,serif" font-size="14.00"> $&gt; </text>
</g>
<!-- RunningForeground -->
<g id="node6" class="node">
<title>RunningForeground</title>
<path fill="azure" stroke="none" d="M351.01,-67C351.01,-67 239.76,-67 239.76,-67 233.76,-67 227.76,-61 227.76,-55 227.76,-55 227.76,-12 227.76,-12 227.76,-6 233.76,0 239.76,0 239.76,0 351.01,0 351.01,0 357.01,0 363.01,-6 363.01,-12 363.01,-12 363.01,-55 363.01,-55 363.01,-61 357.01,-67 351.01,-67"/>
<text xml:space="preserve" text-anchor="start" x="235.76" y="-46.7" font-family="Times,serif" font-weight="bold" font-size="14.00">RunningForeground</text>
<text xml:space="preserve" text-anchor="start" x="235.76" y="-21.5" font-family="Times,serif" font-size="10.00">$&gt;()</text>
<text xml:space="preserve" text-anchor="start" x="235.76" y="-10.25" font-family="Times,serif" font-size="10.00"> &#160;&#160;&#160;&#160;&#160;&#160;&#160;&#160;&#160;&#160;&#160;</text>
<polygon fill="#00688b" stroke="#00688b" points="227.76,-36.5 227.76,-36.5 363.01,-36.5 363.01,-36.5 227.76,-36.5"/>
<path fill="none" stroke="#00688b" d="M239.76,0C239.76,0 351.01,0 351.01,0 357.01,0 363.01,-6 363.01,-12 363.01,-12 363.01,-55 363.01,-55 363.01,-61 357.01,-67 351.01,-67 351.01,-67 239.76,-67 239.76,-67 233.76,-67 227.76,-61 227.76,-55 227.76,-55 227.76,-12 227.76,-12 227.76,-6 233.76,0 239.76,0"/>
</g>
<!-- Parsing&#45;&gt;RunningForeground -->
<g id="edge11" class="edge">
<title>Parsing&#45;&gt;RunningForeground</title>
<path fill="none" stroke="red" d="M245.34,-125.23C244.92,-112.32 245.98,-97.57 250.88,-85 252.05,-81.99 253.49,-79.04 255.13,-76.17"/>
<polygon fill="red" stroke="red" points="257.91,-78.31 260.5,-68.04 252.07,-74.46 257.91,-78.31"/>
<text xml:space="preserve" text-anchor="middle" x="262.13" y="-88.2" font-family="Times,serif" font-size="14.00"> $&gt; </text>
</g>
<!-- Parsing&#45;&gt;RunningForeground -->
<g id="edge13" class="edge">
<title>Parsing&#45;&gt;RunningForeground</title>
<path fill="none" stroke="red" d="M263.82,-125.17C267.1,-117.47 270.46,-109.23 273.38,-101.5 276.29,-93.78 279.19,-85.49 281.89,-77.45"/>
<polygon fill="red" stroke="red" points="285.14,-78.76 284.95,-68.17 278.5,-76.57 285.14,-78.76"/>
<text xml:space="preserve" text-anchor="middle" x="290.53" y="-88.2" font-family="Times,serif" font-size="14.00"> $&gt; </text>
</g>
<!-- RunningBuiltin&#45;&gt;Prompting -->
<g id="edge18" class="edge">
<title>RunningBuiltin&#45;&gt;Prompting</title>
<path fill="none" stroke="red" d="M45.27,-66.69C16.8,-108.91 -22.09,-183.38 16.38,-232.25 44.1,-267.46 170.61,-286.46 243.4,-294.64"/>
<polygon fill="red" stroke="red" points="242.77,-298.09 253.09,-295.69 243.53,-291.13 242.77,-298.09"/>
<text xml:space="preserve" text-anchor="middle" x="26.57" y="-153.57" font-family="Times,serif" font-size="14.00"> $&gt; </text>
</g>
<!-- RunningPipeline&#45;&gt;Prompting -->
<g id="edge19" class="edge">
<title>RunningPipeline&#45;&gt;Prompting</title>
<path fill="none" stroke="red" d="M470.97,-66.99C473.31,-101.3 472.81,-156.1 452.38,-197.75 431.59,-240.15 383.8,-267.24 346.37,-282.74"/>
<polygon fill="red" stroke="red" points="345.53,-279.31 337.53,-286.25 348.12,-285.82 345.53,-279.31"/>
<text xml:space="preserve" text-anchor="middle" x="482.19" y="-153.57" font-family="Times,serif" font-size="14.00"> $&gt; </text>
</g>
<!-- RunningForeground&#45;&gt;Prompting -->
<g id="edge20" class="edge">
<title>RunningForeground&#45;&gt;Prompting</title>
<path fill="none" stroke="red" d="M362.97,-51.74C379.26,-59.23 394.73,-69.88 404.38,-85 439.66,-140.23 429.05,-175.43 396.38,-232.25 385.07,-251.92 365.41,-266.96 346.43,-277.79"/>
<polygon fill="red" stroke="red" points="344.8,-274.69 337.64,-282.5 348.11,-280.86 344.8,-274.69"/>
<text xml:space="preserve" text-anchor="middle" x="437.58" y="-153.57" font-family="Times,serif" font-size="14.00"> $&gt; </text>
</g>
</g>
</svg>
