<?xml version="1.0" encoding="UTF-8" standalone="no"?>
<!DOCTYPE svg PUBLIC "-//W3C//DTD SVG 1.1//EN"
 "http://www.w3.org/Graphics/SVG/1.1/DTD/svg11.dtd">
<!-- Generated by graphviz version 14.1.5 (20260411.2331)
 -->
<!-- Title: Shell Pages: 1 -->
<svg width="454pt" height="410pt"
 viewBox="0.00 0.00 454.00 410.00" xmlns="http://www.w3.org/2000/svg" xmlns:xlink="http://www.w3.org/1999/xlink">
<g id="graph0" class="graph" transform="scale(1 1) rotate(0) translate(4 406.4)">
<title>Shell</title>
<polygon fill="white" stroke="none" points="-4,4 -4,-406.4 449.73,-406.4 449.73,4 -4,4"/>
<!-- Entry -->
<g id="node1" class="node">
<title>Entry</title>
<ellipse fill="black" stroke="#00688b" cx="204.73" cy="-395.2" rx="7.2" ry="7.2"/>
</g>
<!-- Prompting -->
<g id="node2" class="node">
<title>Prompting</title>
<path fill="azure" stroke="none" d="M233.73,-351C233.73,-351 175.73,-351 175.73,-351 169.73,-351 163.73,-345 163.73,-339 163.73,-339 163.73,-262.25 163.73,-262.25 163.73,-256.25 169.73,-250.25 175.73,-250.25 175.73,-250.25 233.73,-250.25 233.73,-250.25 239.73,-250.25 245.73,-256.25 245.73,-262.25 245.73,-262.25 245.73,-339 245.73,-339 245.73,-345 239.73,-351 233.73,-351"/>
<text xml:space="preserve" text-anchor="start" x="173.23" y="-330.7" font-family="Times,serif" font-weight="bold" font-size="14.00">Prompting</text>
<text xml:space="preserve" text-anchor="start" x="171.73" y="-305.5" font-family="Times,serif" font-size="10.00">$&gt;()</text>
<text xml:space="preserve" text-anchor="start" x="171.73" y="-294.25" font-family="Times,serif" font-size="10.00">line(input: &amp;str)</text>
<text xml:space="preserve" text-anchor="start" x="171.73" y="-283" font-family="Times,serif" font-size="10.00">interrupt()</text>
<text xml:space="preserve" text-anchor="start" x="171.73" y="-271.75" font-family="Times,serif" font-size="10.00">eof()</text>
<text xml:space="preserve" text-anchor="start" x="191.23" y="-260.5" font-family="Times,serif" font-size="10.00"> &#160;&#160;&#160;&#160;&#160;&#160;&#160;&#160;&#160;&#160;&#160;</text>
<polygon fill="#00688b" stroke="#00688b" points="163.73,-320.5 163.73,-320.5 245.73,-320.5 245.73,-320.5 163.73,-320.5"/>
<path fill="none" stroke="#00688b" d="M175.73,-250.25C175.73,-250.25 233.73,-250.25 233.73,-250.25 239.73,-250.25 245.73,-256.25 245.73,-262.25 245.73,-262.25 245.73,-339 245.73,-339 245.73,-345 239.73,-351 233.73,-351 233.73,-351 175.73,-351 175.73,-351 169.73,-351 163.73,-345 163.73,-339 163.73,-339 163.73,-262.25 163.73,-262.25 163.73,-256.25 169.73,-250.25 175.73,-250.25"/>
</g>
<!-- Entry&#45;&gt;Prompting -->
<g id="edge1" class="edge">
<title>Entry&#45;&gt;Prompting</title>
<path fill="none" stroke="red" d="M204.73,-387.54C204.73,-381.64 204.73,-372.36 204.73,-362.06"/>
<polygon fill="red" stroke="red" points="208.23,-362.09 204.73,-352.09 201.23,-362.09 208.23,-362.09"/>
</g>
<!-- Parsing -->
<g id="node3" class="node">
<title>Parsing</title>
<path fill="azure" stroke="none" d="M176.85,-192.12C176.85,-192.12 140.6,-192.12 140.6,-192.12 134.6,-192.12 128.6,-186.12 128.6,-180.12 128.6,-180.12 128.6,-137.12 128.6,-137.12 128.6,-131.12 134.6,-125.12 140.6,-125.12 140.6,-125.12 176.85,-125.12 176.85,-125.12 182.85,-125.12 188.85,-131.12 188.85,-137.12 188.85,-137.12 188.85,-180.12 188.85,-180.12 188.85,-186.12 182.85,-192.12 176.85,-192.12"/>
<text xml:space="preserve" text-anchor="start" x="136.6" y="-171.82" font-family="Times,serif" font-weight="bold" font-size="14.00">Parsing</text>
<text xml:space="preserve" text-anchor="start" x="136.6" y="-146.62" font-family="Times,serif" font-size="10.00">$&gt;()</text>
<text xml:space="preserve" text-anchor="start" x="136.6" y="-135.38" font-family="Times,serif" font-size="10.00"> &#160;&#160;&#160;&#160;&#160;&#160;&#160;&#160;&#160;&#160;&#160;</text>
<polygon fill="#00688b" stroke="#00688b" points="128.6,-161.62 128.6,-161.62 188.85,-161.62 188.85,-161.62 128.6,-161.62"/>
<path fill="none" stroke="#00688b" d="M140.6,-125.12C140.6,-125.12 176.85,-125.12 176.85,-125.12 182.85,-125.12 188.85,-131.12 188.85,-137.12 188.85,-137.12 188.85,-180.12 188.85,-180.12 188.85,-186.12 182.85,-192.12 176.85,-192.12 176.85,-192.12 140.6,-192.12 140.6,-192.12 134.6,-192.12 128.6,-186.12 128.6,-180.12 128.6,-180.12 128.6,-137.12 128.6,-137.12 128.6,-131.12 134.6,-125.12 140.6,-125.12"/>
</g>
<!-- Prompting&#45;&gt;Parsing -->
<g id="edge3" class="edge">
<title>Prompting&#45;&gt;Parsing</title>
<path fill="none" stroke="red" d="M245.48,-276.02C267.82,-259.91 288.43,-237.6 274.73,-215.75 258.35,-189.63 225.98,-175.37 199.6,-167.76"/>
<polygon fill="red" stroke="red" points="200.74,-164.45 190.18,-165.28 198.96,-171.22 200.74,-164.45"/>
<text xml:space="preserve" text-anchor="middle" x="293.01" y="-218.95" font-family="Times,serif" font-size="14.00"> line </text>
</g>
<!-- Exiting -->
<g id="node6" class="node">
<title>Exiting</title>
<path fill="azure" stroke="none" d="M433.73,-197.75C433.73,-197.75 399.73,-197.75 399.73,-197.75 393.73,-197.75 387.73,-191.75 387.73,-185.75 387.73,-185.75 387.73,-131.5 387.73,-131.5 387.73,-125.5 393.73,-119.5 399.73,-119.5 399.73,-119.5 433.73,-119.5 433.73,-119.5 439.73,-119.5 445.73,-125.5 445.73,-131.5 445.73,-131.5 445.73,-185.75 445.73,-185.75 445.73,-191.75 439.73,-197.75 433.73,-197.75"/>
<text xml:space="preserve" text-anchor="start" x="395.73" y="-177.45" font-family="Times,serif" font-weight="bold" font-size="14.00">Exiting</text>
<text xml:space="preserve" text-anchor="start" x="395.73" y="-152.25" font-family="Times,serif" font-size="10.00">$&gt;()</text>
<text xml:space="preserve" text-anchor="start" x="395.73" y="-141" font-family="Times,serif" font-size="10.00">is_done()</text>
<text xml:space="preserve" text-anchor="start" x="401.35" y="-129.75" font-family="Times,serif" font-size="10.00"> &#160;&#160;&#160;&#160;&#160;&#160;&#160;&#160;&#160;&#160;&#160;</text>
<polygon fill="#00688b" stroke="#00688b" points="387.73,-167.25 387.73,-167.25 445.73,-167.25 445.73,-167.25 387.73,-167.25"/>
<path fill="none" stroke="#00688b" d="M399.73,-119.5C399.73,-119.5 433.73,-119.5 433.73,-119.5 439.73,-119.5 445.73,-125.5 445.73,-131.5 445.73,-131.5 445.73,-185.75 445.73,-185.75 445.73,-191.75 439.73,-197.75 433.73,-197.75 433.73,-197.75 399.73,-197.75 399.73,-197.75 393.73,-197.75 387.73,-191.75 387.73,-185.75 387.73,-185.75 387.73,-131.5 387.73,-131.5 387.73,-125.5 393.73,-119.5 399.73,-119.5"/>
</g>
<!-- Prompting&#45;&gt;Exiting -->
<g id="edge2" class="edge">
<title>Prompting&#45;&gt;Exiting</title>
<path fill="none" stroke="red" d="M245.5,-285.87C276.17,-274.37 318.31,-256.02 350.73,-232.25 361.25,-224.54 371.38,-214.94 380.41,-205.28"/>
<polygon fill="red" stroke="red" points="382.93,-207.7 387.04,-197.94 377.74,-203.01 382.93,-207.7"/>
<text xml:space="preserve" text-anchor="middle" x="383.02" y="-218.95" font-family="Times,serif" font-size="14.00"> line </text>
</g>
<!-- Prompting&#45;&gt;Exiting -->
<g id="edge4" class="edge">
<title>Prompting&#45;&gt;Exiting</title>
<path fill="none" stroke="red" d="M245.63,-297.03C290.36,-291.92 360.97,-276.83 400.73,-232.25 406.65,-225.61 410.54,-217.28 413.07,-208.66"/>
<polygon fill="red" stroke="red" points="416.42,-209.68 415.25,-199.15 409.6,-208.12 416.42,-209.68"/>
<text xml:space="preserve" text-anchor="middle" x="422.46" y="-218.95" font-family="Times,serif" font-size="14.00"> eof </text>
</g>
<!-- Parsing&#45;&gt;Prompting -->
<g id="edge5" class="edge">
<title>Parsing&#45;&gt;Prompting</title>
<path fill="none" stroke="red" d="M128.84,-163.51C80.51,-171.09 -6.63,-190.84 22.23,-232.25 51.41,-274.13 109.75,-290.05 152.64,-296.05"/>
<polygon fill="red" stroke="red" points="152.16,-299.52 162.51,-297.28 153.02,-292.57 152.16,-299.52"/>
<text xml:space="preserve" text-anchor="middle" x="33.48" y="-218.95" font-family="Times,serif" font-size="14.00"> $&gt; </text>
</g>
<!-- Parsing&#45;&gt;Prompting -->
<g id="edge6" class="edge">
<title>Parsing&#45;&gt;Prompting</title>
<path fill="none" stroke="red" d="M128.83,-168.86C95.99,-180.68 50.15,-203.16 68.23,-232.25 86.74,-262.03 122.74,-279.04 153.12,-288.52"/>
<polygon fill="red" stroke="red" points="151.98,-291.84 162.56,-291.26 153.93,-285.11 151.98,-291.84"/>
<text xml:space="preserve" text-anchor="middle" x="79.48" y="-218.95" font-family="Times,serif" font-size="14.00"> $&gt; </text>
</g>
<!-- Parsing&#45;&gt;Prompting -->
<g id="edge8" class="edge">
<title>Parsing&#45;&gt;Prompting</title>
<path fill="none" stroke="red" d="M128.87,-184.57C116.18,-198.31 106,-215.86 114.23,-232.25 123.04,-249.81 138.85,-263.95 154.81,-274.66"/>
<polygon fill="red" stroke="red" points="152.57,-277.38 162.89,-279.76 156.3,-271.46 152.57,-277.38"/>
<text xml:space="preserve" text-anchor="middle" x="125.48" y="-218.95" font-family="Times,serif" font-size="14.00"> $&gt; </text>
</g>
<!-- Parsing&#45;&gt;Prompting -->
<g id="edge10" class="edge">
<title>Parsing&#45;&gt;Prompting</title>
<path fill="none" stroke="red" d="M155.57,-192.06C155.31,-204.84 156.25,-219.49 160.23,-232.25 161.04,-234.85 161.98,-237.44 163.03,-240.01"/>
<polygon fill="red" stroke="red" points="159.85,-241.47 167.25,-249.05 166.19,-238.51 159.85,-241.47"/>
<text xml:space="preserve" text-anchor="middle" x="171.48" y="-218.95" font-family="Times,serif" font-size="14.00"> $&gt; </text>
</g>
<!-- Parsing&#45;&gt;Prompting -->
<g id="edge11" class="edge">
<title>Parsing&#45;&gt;Prompting</title>
<path fill="none" stroke="red" d="M173.51,-191.95C176.77,-199.67 180.04,-207.93 182.73,-215.75 185.34,-223.39 187.83,-231.5 190.13,-239.57"/>
<polygon fill="red" stroke="red" points="186.7,-240.3 192.73,-249.02 193.45,-238.45 186.7,-240.3"/>
<text xml:space="preserve" text-anchor="middle" x="199.03" y="-218.95" font-family="Times,serif" font-size="14.00"> $&gt; </text>
</g>
<!-- Parsing&#45;&gt;Prompting -->
<g id="edge12" class="edge">
<title>Parsing&#45;&gt;Prompting</title>
<path fill="none" stroke="red" d="M188.72,-181.5C198.99,-190.78 209.25,-202.52 214.73,-215.75 217.77,-223.12 219.07,-231.14 219.23,-239.21"/>
<polygon fill="red" stroke="red" points="215.74,-238.93 218.83,-249.06 222.74,-239.22 215.74,-238.93"/>
<text xml:space="preserve" text-anchor="middle" x="229.9" y="-218.95" font-family="Times,serif" font-size="14.00"> $&gt; </text>
</g>
<!-- RunningBuiltin -->
<g id="node4" class="node">
<title>RunningBuiltin</title>
<path fill="azure" stroke="none" d="M327.73,-67C327.73,-67 245.73,-67 245.73,-67 239.73,-67 233.73,-61 233.73,-55 233.73,-55 233.73,-12 233.73,-12 233.73,-6 239.73,0 245.73,0 245.73,0 327.73,0 327.73,0 333.73,0 339.73,-6 339.73,-12 339.73,-12 339.73,-55 339.73,-55 339.73,-61 333.73,-67 327.73,-67"/>
<text xml:space="preserve" text-anchor="start" x="241.73" y="-46.7" font-family="Times,serif" font-weight="bold" font-size="14.00">RunningBuiltin</text>
<text xml:space="preserve" text-anchor="start" x="241.73" y="-21.5" font-family="Times,serif" font-size="10.00">$&gt;()</text>
<text xml:space="preserve" text-anchor="start" x="241.73" y="-10.25" font-family="Times,serif" font-size="10.00"> &#160;&#160;&#160;&#160;&#160;&#160;&#160;&#160;&#160;&#160;&#160;</text>
<polygon fill="#00688b" stroke="#00688b" points="233.73,-36.5 233.73,-36.5 339.73,-36.5 339.73,-36.5 233.73,-36.5"/>
<path fill="none" stroke="#00688b" d="M245.73,0C245.73,0 327.73,0 327.73,0 333.73,0 339.73,-6 339.73,-12 339.73,-12 339.73,-55 339.73,-55 339.73,-61 333.73,-67 327.73,-67 327.73,-67 245.73,-67 245.73,-67 239.73,-67 233.73,-61 233.73,-55 233.73,-55 233.73,-12 233.73,-12 233.73,-6 239.73,0 245.73,0"/>
</g>
<!-- Parsing&#45;&gt;RunningBuiltin -->
<g id="edge13" class="edge">
<title>Parsing&#45;&gt;RunningBuiltin</title>
<path fill="none" stroke="red" d="M188.74,-128.76C205.52,-112.61 226.71,-92.23 245.08,-74.56"/>
<polygon fill="red" stroke="red" points="247.43,-77.16 252.21,-67.7 242.58,-72.11 247.43,-77.16"/>
<text xml:space="preserve" text-anchor="middle" x="245.44" y="-88.2" font-family="Times,serif" font-size="14.00"> $&gt; </text>
</g>
<!-- RunningForeground -->
<g id="node5" class="node">
<title>RunningForeground</title>
<path fill="azure" stroke="none" d="M168.35,-67C168.35,-67 57.1,-67 57.1,-67 51.1,-67 45.1,-61 45.1,-55 45.1,-55 45.1,-12 45.1,-12 45.1,-6 51.1,0 57.1,0 57.1,0 168.35,0 168.35,0 174.35,0 180.35,-6 180.35,-12 180.35,-12 180.35,-55 180.35,-55 180.35,-61 174.35,-67 168.35,-67"/>
<text xml:space="preserve" text-anchor="start" x="53.1" y="-46.7" font-family="Times,serif" font-weight="bold" font-size="14.00">RunningForeground</text>
<text xml:space="preserve" text-anchor="start" x="53.1" y="-21.5" font-family="Times,serif" font-size="10.00">$&gt;()</text>
<text xml:space="preserve" text-anchor="start" x="53.1" y="-10.25" font-family="Times,serif" font-size="10.00"> &#160;&#160;&#160;&#160;&#160;&#160;&#160;&#160;&#160;&#160;&#160;</text>
<polygon fill="#00688b" stroke="#00688b" points="45.1,-36.5 45.1,-36.5 180.35,-36.5 180.35,-36.5 45.1,-36.5"/>
<path fill="none" stroke="#00688b" d="M57.1,0C57.1,0 168.35,0 168.35,0 174.35,0 180.35,-6 180.35,-12 180.35,-12 180.35,-55 180.35,-55 180.35,-61 174.35,-67 168.35,-67 168.35,-67 57.1,-67 57.1,-67 51.1,-67 45.1,-61 45.1,-55 45.1,-55 45.1,-12 45.1,-12 45.1,-6 51.1,0 57.1,0"/>
</g>
<!-- Parsing&#45;&gt;RunningForeground -->
<g id="edge7" class="edge">
<title>Parsing&#45;&gt;RunningForeground</title>
<path fill="none" stroke="red" d="M128.65,-126.89C122.8,-119.17 117.48,-110.51 114.23,-101.5 111.6,-94.22 110.23,-86.2 109.66,-78.32"/>
<polygon fill="red" stroke="red" points="113.16,-78.37 109.36,-68.48 106.16,-78.58 113.16,-78.37"/>
<text xml:space="preserve" text-anchor="middle" x="125.48" y="-88.2" font-family="Times,serif" font-size="14.00"> $&gt; </text>
</g>
<!-- Parsing&#45;&gt;RunningForeground -->
<g id="edge9" class="edge">
<title>Parsing&#45;&gt;RunningForeground</title>
<path fill="none" stroke="red" d="M150.1,-125.46C146.4,-112.72 141.76,-98.03 136.73,-85 135.71,-82.39 134.63,-79.72 133.49,-77.04"/>
<polygon fill="red" stroke="red" points="136.81,-75.89 129.56,-68.17 130.41,-78.73 136.81,-75.89"/>
<text xml:space="preserve" text-anchor="middle" x="153.6" y="-88.2" font-family="Times,serif" font-size="14.00"> $&gt; </text>
</g>
<!-- RunningBuiltin&#45;&gt;Prompting -->
<g id="edge14" class="edge">
<title>RunningBuiltin&#45;&gt;Prompting</title>
<path fill="none" stroke="red" d="M301.74,-66.85C318.44,-107.94 339.53,-179.81 310.73,-232.25 298.82,-253.93 276.65,-269.63 255.65,-280.38"/>
<polygon fill="red" stroke="red" points="254.35,-277.13 246.85,-284.62 257.38,-283.44 254.35,-277.13"/>
<text xml:space="preserve" text-anchor="middle" x="336.22" y="-153.57" font-family="Times,serif" font-size="14.00"> $&gt; </text>
</g>
<!-- RunningForeground&#45;&gt;Prompting -->
<g id="edge15" class="edge">
<title>RunningForeground&#45;&gt;Prompting</title>
<path fill="none" stroke="red" d="M75.13,-66.96C32.75,-107.56 -25.54,-178.27 12.73,-232.25 44.2,-276.66 107.35,-292.02 152.63,-297.21"/>
<polygon fill="red" stroke="red" points="152.22,-300.68 162.52,-298.19 152.91,-293.72 152.22,-300.68"/>
<text xml:space="preserve" text-anchor="middle" x="38.32" y="-153.57" font-family="Times,serif" font-size="14.00"> $&gt; </text>
</g>
</g>
</svg>
