<?xml version="1.0" encoding="UTF-8" standalone="no"?>
<!DOCTYPE svg PUBLIC "-//W3C//DTD SVG 1.1//EN"
 "http://www.w3.org/Graphics/SVG/1.1/DTD/svg11.dtd">
<!-- Generated by graphviz version 14.1.5 (20260411.2331)
 -->
<!-- Title: Shell Pages: 1 -->
<svg width="402pt" height="467pt"
 viewBox="0.00 0.00 402.00 467.00" xmlns="http://www.w3.org/2000/svg" xmlns:xlink="http://www.w3.org/1999/xlink">
<g id="graph0" class="graph" transform="scale(1 1) rotate(0) translate(4 462.65)">
<title>Shell</title>
<polygon fill="white" stroke="none" points="-4,4 -4,-462.65 398.32,-462.65 398.32,4 -4,4"/>
<!-- Entry -->
<g id="node1" class="node">
<title>Entry</title>
<ellipse fill="black" stroke="#00688b" cx="177.82" cy="-451.45" rx="7.2" ry="7.2"/>
</g>
<!-- Prompting -->
<g id="node2" class="node">
<title>Prompting</title>
<path fill="azure" stroke="none" d="M206.82,-407.25C206.82,-407.25 148.82,-407.25 148.82,-407.25 142.82,-407.25 136.82,-401.25 136.82,-395.25 136.82,-395.25 136.82,-318.5 136.82,-318.5 136.82,-312.5 142.82,-306.5 148.82,-306.5 148.82,-306.5 206.82,-306.5 206.82,-306.5 212.82,-306.5 218.82,-312.5 218.82,-318.5 218.82,-318.5 218.82,-395.25 218.82,-395.25 218.82,-401.25 212.82,-407.25 206.82,-407.25"/>
<text xml:space="preserve" text-anchor="start" x="146.32" y="-386.95" font-family="Times,serif" font-weight="bold" font-size="14.00">Prompting</text>
<text xml:space="preserve" text-anchor="start" x="144.82" y="-361.75" font-family="Times,serif" font-size="10.00">$&gt;()</text>
<text xml:space="preserve" text-anchor="start" x="144.82" y="-350.5" font-family="Times,serif" font-size="10.00">line(input: &amp;str)</text>
<text xml:space="preserve" text-anchor="start" x="144.82" y="-339.25" font-family="Times,serif" font-size="10.00">interrupt()</text>
<text xml:space="preserve" text-anchor="start" x="144.82" y="-328" font-family="Times,serif" font-size="10.00">is_done()</text>
<text xml:space="preserve" text-anchor="start" x="164.32" y="-316.75" font-family="Times,serif" font-size="10.00"> &#160;&#160;&#160;&#160;&#160;&#160;&#160;&#160;&#160;&#160;&#160;</text>
<polygon fill="#00688b" stroke="#00688b" points="136.82,-376.75 136.82,-376.75 218.82,-376.75 218.82,-376.75 136.82,-376.75"/>
<path fill="none" stroke="#00688b" d="M148.82,-306.5C148.82,-306.5 206.82,-306.5 206.82,-306.5 212.82,-306.5 218.82,-312.5 218.82,-318.5 218.82,-318.5 218.82,-395.25 218.82,-395.25 218.82,-401.25 212.82,-407.25 206.82,-407.25 206.82,-407.25 148.82,-407.25 148.82,-407.25 142.82,-407.25 136.82,-401.25 136.82,-395.25 136.82,-395.25 136.82,-318.5 136.82,-318.5 136.82,-312.5 142.82,-306.5 148.82,-306.5"/>
</g>
<!-- Entry&#45;&gt;Prompting -->
<g id="edge1" class="edge">
<title>Entry&#45;&gt;Prompting</title>
<path fill="none" stroke="red" d="M177.82,-443.79C177.82,-437.89 177.82,-428.61 177.82,-418.31"/>
<polygon fill="red" stroke="red" points="181.32,-418.34 177.82,-408.34 174.32,-418.34 181.32,-418.34"/>
</g>
<!-- Parsing -->
<g id="node3" class="node">
<title>Parsing</title>
<path fill="azure" stroke="none" d="M116.82,-254C116.82,-254 58.82,-254 58.82,-254 52.82,-254 46.82,-248 46.82,-242 46.82,-242 46.82,-165.25 46.82,-165.25 46.82,-159.25 52.82,-153.25 58.82,-153.25 58.82,-153.25 116.82,-153.25 116.82,-153.25 122.82,-153.25 128.82,-159.25 128.82,-165.25 128.82,-165.25 128.82,-242 128.82,-242 128.82,-248 122.82,-254 116.82,-254"/>
<text xml:space="preserve" text-anchor="start" x="65.7" y="-233.7" font-family="Times,serif" font-weight="bold" font-size="14.00">Parsing</text>
<text xml:space="preserve" text-anchor="start" x="54.82" y="-208.5" font-family="Times,serif" font-size="10.00">$&gt;()</text>
<text xml:space="preserve" text-anchor="start" x="54.82" y="-197.25" font-family="Times,serif" font-size="10.00">line(input: &amp;str)</text>
<text xml:space="preserve" text-anchor="start" x="54.82" y="-186" font-family="Times,serif" font-size="10.00">interrupt()</text>
<text xml:space="preserve" text-anchor="start" x="54.82" y="-174.75" font-family="Times,serif" font-size="10.00">is_done()</text>
<text xml:space="preserve" text-anchor="start" x="74.32" y="-163.5" font-family="Times,serif" font-size="10.00"> &#160;&#160;&#160;&#160;&#160;&#160;&#160;&#160;&#160;&#160;&#160;</text>
<polygon fill="#00688b" stroke="#00688b" points="46.82,-223.5 46.82,-223.5 128.82,-223.5 128.82,-223.5 46.82,-223.5"/>
<path fill="none" stroke="#00688b" d="M58.82,-153.25C58.82,-153.25 116.82,-153.25 116.82,-153.25 122.82,-153.25 128.82,-159.25 128.82,-165.25 128.82,-165.25 128.82,-242 128.82,-242 128.82,-248 122.82,-254 116.82,-254 116.82,-254 58.82,-254 58.82,-254 52.82,-254 46.82,-248 46.82,-242 46.82,-242 46.82,-165.25 46.82,-165.25 46.82,-159.25 52.82,-153.25 58.82,-153.25"/>
</g>
<!-- Prompting&#45;&gt;Parsing -->
<g id="edge3" class="edge">
<title>Prompting&#45;&gt;Parsing</title>
<path fill="none" stroke="red" d="M136.96,-352.71C95.86,-347.1 34.5,-331.56 5.07,-288.5 -10.07,-266.34 12.06,-244.85 37.22,-229.18"/>
<polygon fill="red" stroke="red" points="38.79,-232.32 45.64,-224.23 35.25,-226.28 38.79,-232.32"/>
<text xml:space="preserve" text-anchor="middle" x="18.95" y="-275.2" font-family="Times,serif" font-size="14.00"> line </text>
</g>
<!-- Exiting -->
<g id="node5" class="node">
<title>Exiting</title>
<path fill="azure" stroke="none" d="M227.82,-254C227.82,-254 169.82,-254 169.82,-254 163.82,-254 157.82,-248 157.82,-242 157.82,-242 157.82,-165.25 157.82,-165.25 157.82,-159.25 163.82,-153.25 169.82,-153.25 169.82,-153.25 227.82,-153.25 227.82,-153.25 233.82,-153.25 239.82,-159.25 239.82,-165.25 239.82,-165.25 239.82,-242 239.82,-242 239.82,-248 233.82,-254 227.82,-254"/>
<text xml:space="preserve" text-anchor="start" x="177.82" y="-233.7" font-family="Times,serif" font-weight="bold" font-size="14.00">Exiting</text>
<text xml:space="preserve" text-anchor="start" x="165.82" y="-208.5" font-family="Times,serif" font-size="10.00">$&gt;()</text>
<text xml:space="preserve" text-anchor="start" x="165.82" y="-197.25" font-family="Times,serif" font-size="10.00">line(input: &amp;str)</text>
<text xml:space="preserve" text-anchor="start" x="165.82" y="-186" font-family="Times,serif" font-size="10.00">interrupt()</text>
<text xml:space="preserve" text-anchor="start" x="165.82" y="-174.75" font-family="Times,serif" font-size="10.00">is_done()</text>
<text xml:space="preserve" text-anchor="start" x="185.32" y="-163.5" font-family="Times,serif" font-size="10.00"> &#160;&#160;&#160;&#160;&#160;&#160;&#160;&#160;&#160;&#160;&#160;</text>
<polygon fill="#00688b" stroke="#00688b" points="157.82,-223.5 157.82,-223.5 239.82,-223.5 239.82,-223.5 157.82,-223.5"/>
<path fill="none" stroke="#00688b" d="M169.82,-153.25C169.82,-153.25 227.82,-153.25 227.82,-153.25 233.82,-153.25 239.82,-159.25 239.82,-165.25 239.82,-165.25 239.82,-242 239.82,-242 239.82,-248 233.82,-254 227.82,-254 227.82,-254 169.82,-254 169.82,-254 163.82,-254 157.82,-248 157.82,-242 157.82,-242 157.82,-165.25 157.82,-165.25 157.82,-159.25 163.82,-153.25 169.82,-153.25"/>
</g>
<!-- Prompting&#45;&gt;Exiting -->
<g id="edge2" class="edge">
<title>Prompting&#45;&gt;Exiting</title>
<path fill="none" stroke="red" d="M176.33,-306.9C176.6,-295.41 177.38,-283.23 179.07,-272 179.42,-269.69 179.83,-267.35 180.28,-265"/>
<polygon fill="red" stroke="red" points="183.66,-265.95 182.39,-255.43 176.82,-264.45 183.66,-265.95"/>
<text xml:space="preserve" text-anchor="middle" x="192.95" y="-275.2" font-family="Times,serif" font-size="14.00"> line </text>
</g>
<!-- Prompting&#45;&gt;Exiting -->
<g id="edge4" class="edge">
<title>Prompting&#45;&gt;Exiting</title>
<path fill="none" stroke="red" d="M201.7,-306.57C203.8,-300.6 205.59,-294.49 206.82,-288.5 208.37,-280.99 208.95,-273.04 208.89,-265.15"/>
<polygon fill="red" stroke="red" points="212.39,-265.03 208.46,-255.19 205.4,-265.33 212.39,-265.03"/>
<text xml:space="preserve" text-anchor="middle" x="235.75" y="-275.2" font-family="Times,serif" font-size="14.00"> interrupt </text>
</g>
<!-- Parsing&#45;&gt;Prompting -->
<g id="edge5" class="edge">
<title>Parsing&#45;&gt;Prompting</title>
<path fill="none" stroke="red" d="M54.26,-253.82C50.24,-265.54 49.49,-277.76 55.82,-288.5 71.12,-314.42 100.34,-331.05 126.36,-341.31"/>
<polygon fill="red" stroke="red" points="124.87,-344.49 135.46,-344.67 127.29,-337.92 124.87,-344.49"/>
<text xml:space="preserve" text-anchor="middle" x="82.82" y="-275.2" font-family="Times,serif" font-size="14.00"> interrupt </text>
</g>
<!-- Parsing&#45;&gt;Prompting -->
<g id="edge6" class="edge">
<title>Parsing&#45;&gt;Prompting</title>
<path fill="none" stroke="red" d="M117.05,-253.74C125.27,-267.55 134.29,-282.71 142.8,-297.02"/>
<polygon fill="red" stroke="red" points="139.71,-298.66 147.83,-305.47 145.72,-295.08 139.71,-298.66"/>
<text xml:space="preserve" text-anchor="middle" x="146.77" y="-275.2" font-family="Times,serif" font-size="14.00"> $&gt; </text>
</g>
<!-- RunningBuiltin -->
<g id="node4" class="node">
<title>RunningBuiltin</title>
<path fill="azure" stroke="none" d="M338.82,-100.75C338.82,-100.75 256.82,-100.75 256.82,-100.75 250.82,-100.75 244.82,-94.75 244.82,-88.75 244.82,-88.75 244.82,-12 244.82,-12 244.82,-6 250.82,0 256.82,0 256.82,0 338.82,0 338.82,0 344.82,0 350.82,-6 350.82,-12 350.82,-12 350.82,-88.75 350.82,-88.75 350.82,-94.75 344.82,-100.75 338.82,-100.75"/>
<text xml:space="preserve" text-anchor="start" x="252.82" y="-80.45" font-family="Times,serif" font-weight="bold" font-size="14.00">RunningBuiltin</text>
<text xml:space="preserve" text-anchor="start" x="252.82" y="-55.25" font-family="Times,serif" font-size="10.00">$&gt;()</text>
<text xml:space="preserve" text-anchor="start" x="252.82" y="-44" font-family="Times,serif" font-size="10.00">line(input: &amp;str)</text>
<text xml:space="preserve" text-anchor="start" x="252.82" y="-32.75" font-family="Times,serif" font-size="10.00">interrupt()</text>
<text xml:space="preserve" text-anchor="start" x="252.82" y="-21.5" font-family="Times,serif" font-size="10.00">is_done()</text>
<text xml:space="preserve" text-anchor="start" x="272.32" y="-10.25" font-family="Times,serif" font-size="10.00"> &#160;&#160;&#160;&#160;&#160;&#160;&#160;&#160;&#160;&#160;&#160;</text>
<polygon fill="#00688b" stroke="#00688b" points="244.82,-70.25 244.82,-70.25 350.82,-70.25 350.82,-70.25 244.82,-70.25"/>
<path fill="none" stroke="#00688b" d="M256.82,0C256.82,0 338.82,0 338.82,0 344.82,0 350.82,-6 350.82,-12 350.82,-12 350.82,-88.75 350.82,-88.75 350.82,-94.75 344.82,-100.75 338.82,-100.75 338.82,-100.75 256.82,-100.75 256.82,-100.75 250.82,-100.75 244.82,-94.75 244.82,-88.75 244.82,-88.75 244.82,-12 244.82,-12 244.82,-6 250.82,0 256.82,0"/>
</g>
<!-- Parsing&#45;&gt;RunningBuiltin -->
<g id="edge7" class="edge">
<title>Parsing&#45;&gt;RunningBuiltin</title>
<path fill="none" stroke="red" d="M128.81,-168.7C135.43,-163.44 142.27,-158.13 148.82,-153.25 176.81,-132.41 208.65,-110.42 235.69,-92.22"/>
<polygon fill="red" stroke="red" points="237.42,-95.27 243.78,-86.8 233.53,-89.46 237.42,-95.27"/>
<text xml:space="preserve" text-anchor="middle" x="204.37" y="-121.95" font-family="Times,serif" font-size="14.00"> $&gt; </text>
</g>
<!-- RunningBuiltin&#45;&gt;Prompting -->
<g id="edge8" class="edge">
<title>RunningBuiltin&#45;&gt;Prompting</title>
<path fill="none" stroke="red" d="M302.02,-100.29C304.05,-150.84 300.62,-230.35 266.82,-288.5 257.47,-304.6 242.61,-318.1 227.68,-328.69"/>
<polygon fill="red" stroke="red" points="226.04,-325.58 219.69,-334.06 229.94,-331.39 226.04,-325.58"/>
<text xml:space="preserve" text-anchor="middle" x="328.53" y="-198.57" font-family="Times,serif" font-size="14.00"> interrupt </text>
</g>
<!-- RunningBuiltin&#45;&gt;Prompting -->
<g id="edge9" class="edge">
<title>RunningBuiltin&#45;&gt;Prompting</title>
<path fill="none" stroke="red" d="M334.21,-100.64C360.94,-143.37 388.1,-205.76 359.82,-254 331.94,-301.56 272.85,-328.58 229.54,-342.67"/>
<polygon fill="red" stroke="red" points="228.57,-339.31 220.06,-345.62 230.65,-345.99 228.57,-339.31"/>
<text xml:space="preserve" text-anchor="middle" x="383.07" y="-198.57" font-family="Times,serif" font-size="14.00"> $&gt; </text>
</g>
</g>
</svg>
