<?xml version="1.0" encoding="UTF-8" standalone="no"?>
<!DOCTYPE svg PUBLIC "-//W3C//DTD SVG 1.1//EN"
 "http://www.w3.org/Graphics/SVG/1.1/DTD/svg11.dtd">
<!-- Generated by graphviz version 2.43.0 (0)
 -->
<!-- Title: SyscallDispatcher Pages: 1 -->
<svg width="252pt" height="338pt"
 viewBox="0.00 0.00 252.00 338.00" xmlns="http://www.w3.org/2000/svg" xmlns:xlink="http://www.w3.org/1999/xlink">
<g id="graph0" class="graph" transform="scale(1 1) rotate(0) translate(4 334)">
<title>SyscallDispatcher</title>
<polygon fill="white" stroke="transparent" points="-4,4 -4,-334 248,-334 248,4 -4,4"/>
<g id="clust1" class="cluster">
<title>cluster_Active</title>
<path fill="none" stroke="black" d="M34,-8C34,-8 224,-8 224,-8 230,-8 236,-14 236,-20 236,-20 236,-310 236,-310 236,-316 230,-322 224,-322 224,-322 34,-322 34,-322 28,-322 22,-316 22,-310 22,-310 22,-20 22,-20 22,-14 28,-8 34,-8"/>
<text text-anchor="start" x="107" y="-302.3" font-family="Times,serif" font-size="14.00">Active</text>
<text text-anchor="start" x="87" y="-284.5" font-family="Times,serif" font-size="10.00">reject(code: u64)</text>
<text text-anchor="start" x="105" y="-273.5" font-family="Times,serif" font-size="10.00"> &#160;&#160;&#160;&#160;&#160;&#160;&#160;&#160;&#160;&#160;&#160;&#160;&#160;&#160;&#160;</text>
<polygon fill="black" stroke="black" points="83,-295.5 83,-295.5 176,-295.5 176,-295.5 83,-295.5"/>
</g>
<!-- Entry -->
<g id="node1" class="node">
<title>Entry</title>
<ellipse fill="black" stroke="#00688b" cx="7" cy="-255" rx="7" ry="7"/>
</g>
<!-- Validating -->
<g id="node2" class="node">
<title>Validating</title>
<path fill="azure" stroke="transparent" d="M215.5,-197C215.5,-197 42.5,-197 42.5,-197 36.5,-197 30.5,-191 30.5,-185 30.5,-185 30.5,-144 30.5,-144 30.5,-138 36.5,-132 42.5,-132 42.5,-132 215.5,-132 215.5,-132 221.5,-132 227.5,-138 227.5,-144 227.5,-144 227.5,-185 227.5,-185 227.5,-191 221.5,-197 215.5,-197"/>
<text text-anchor="start" x="89" y="-178.3" font-family="Times,serif" font-weight="bold" font-size="14.00">Validating</text>
<text text-anchor="start" x="39" y="-153.5" font-family="Times,serif" font-size="10.00">request(num: u64, a0: u64, a1: u64)</text>
<text text-anchor="start" x="105" y="-142.5" font-family="Times,serif" font-size="10.00"> &#160;&#160;&#160;&#160;&#160;&#160;&#160;&#160;&#160;&#160;&#160;&#160;&#160;&#160;&#160;</text>
<polygon fill="#00688b" stroke="#00688b" points="31,-167.5 31,-167.5 228,-167.5 228,-167.5 31,-167.5"/>
<path fill="none" stroke="#00688b" d="M42.5,-132C42.5,-132 215.5,-132 215.5,-132 221.5,-132 227.5,-138 227.5,-144 227.5,-144 227.5,-185 227.5,-185 227.5,-191 221.5,-197 215.5,-197 215.5,-197 42.5,-197 42.5,-197 36.5,-197 30.5,-191 30.5,-185 30.5,-185 30.5,-144 30.5,-144 30.5,-138 36.5,-132 42.5,-132"/>
</g>
<!-- Entry&#45;&gt;Validating -->
<g id="edge1" class="edge">
<title>Entry&#45;&gt;Validating</title>
<path fill="none" stroke="red" d="M12.24,-250.2C23.6,-241.96 51.53,-221.69 77.23,-203.05"/>
<polygon fill="red" stroke="red" points="79.43,-205.78 85.47,-197.08 75.32,-200.11 79.43,-205.78"/>
</g>
<!-- Executing -->
<g id="node4" class="node">
<title>Executing</title>
<path fill="azure" stroke="transparent" d="M149.5,-81C149.5,-81 78.5,-81 78.5,-81 72.5,-81 66.5,-75 66.5,-69 66.5,-69 66.5,-28 66.5,-28 66.5,-22 72.5,-16 78.5,-16 78.5,-16 149.5,-16 149.5,-16 155.5,-16 161.5,-22 161.5,-28 161.5,-28 161.5,-69 161.5,-69 161.5,-75 155.5,-81 149.5,-81"/>
<text text-anchor="start" x="75" y="-62.3" font-family="Times,serif" font-weight="bold" font-size="14.00">Executing</text>
<text text-anchor="start" x="75" y="-37.5" font-family="Times,serif" font-size="10.00">$&gt;()</text>
<text text-anchor="start" x="75" y="-26.5" font-family="Times,serif" font-size="10.00"> &#160;&#160;&#160;&#160;&#160;&#160;&#160;&#160;&#160;&#160;&#160;&#160;&#160;&#160;&#160;</text>
<polygon fill="#00688b" stroke="#00688b" points="67,-51.5 67,-51.5 162,-51.5 162,-51.5 67,-51.5"/>
<path fill="none" stroke="#00688b" d="M78.5,-16C78.5,-16 149.5,-16 149.5,-16 155.5,-16 161.5,-22 161.5,-28 161.5,-28 161.5,-69 161.5,-69 161.5,-75 155.5,-81 149.5,-81 149.5,-81 78.5,-81 78.5,-81 72.5,-81 66.5,-75 66.5,-69 66.5,-69 66.5,-28 66.5,-28 66.5,-22 72.5,-16 78.5,-16"/>
</g>
<!-- Validating&#45;&gt;Executing -->
<g id="edge2" class="edge">
<title>Validating&#45;&gt;Executing</title>
<path fill="none" stroke="red" d="M77.19,-131.89C71.9,-126.58 67.27,-120.61 64,-114 59.93,-105.79 61.11,-97.61 65.15,-89.97"/>
<polygon fill="red" stroke="red" points="68.33,-91.51 71.05,-81.28 62.54,-87.58 68.33,-91.51"/>
<text text-anchor="middle" x="96" y="-102.8" font-family="Times,serif" font-size="14.00"> request </text>
</g>
<!-- Active -->
<g id="node3" class="node">
<title>Active</title>
<ellipse fill="azure" stroke="#00688b" cx="129" cy="-255" rx="0" ry="0"/>
</g>
<!-- Active&#45;&gt;Validating -->
<g id="edge4" class="edge">
<title>Active&#45;&gt;Validating</title>
<path fill="none" stroke="red" d="M129,-253.94C129,-252.57 129,-229.46 129,-207.21"/>
<polygon fill="red" stroke="red" points="132.5,-207.13 129,-197.13 125.5,-207.13 132.5,-207.13"/>
<text text-anchor="middle" x="154.5" y="-218.8" font-family="Times,serif" font-size="14.00"> reject </text>
</g>
<!-- Executing&#45;&gt;Validating -->
<g id="edge3" class="edge">
<title>Executing&#45;&gt;Validating</title>
<path fill="none" stroke="red" d="M124.28,-81.19C125.8,-87.05 127.15,-93.17 128,-99 129.07,-106.31 129.66,-114.14 129.94,-121.74"/>
<polygon fill="red" stroke="red" points="126.44,-121.95 130.14,-131.87 133.44,-121.8 126.44,-121.95"/>
<text text-anchor="middle" x="144.5" y="-102.8" font-family="Times,serif" font-size="14.00"> $&gt; </text>
</g>
</g>
</svg>
