<?xml version="1.0" encoding="UTF-8" standalone="no"?>
<!DOCTYPE svg PUBLIC "-//W3C//DTD SVG 1.1//EN"
 "http://www.w3.org/Graphics/SVG/1.1/DTD/svg11.dtd">
<!-- Generated by graphviz version 14.1.5 (20260411.2331)
 -->
<!-- Title: SyscallDispatcher Pages: 1 -->
<svg width="214pt" height="348pt"
 viewBox="0.00 0.00 214.00 348.00" xmlns="http://www.w3.org/2000/svg" xmlns:xlink="http://www.w3.org/1999/xlink">
<g id="graph0" class="graph" transform="scale(1 1) rotate(0) translate(4 343.56)">
<title>SyscallDispatcher</title>
<polygon fill="white" stroke="none" points="-4,4 -4,-343.56 210.2,-343.56 210.2,4 -4,4"/>
<g id="clust1" class="cluster">
<title>cluster_Active</title>
<path fill="none" stroke="black" d="M34.2,-8C34.2,-8 186.2,-8 186.2,-8 192.2,-8 198.2,-14 198.2,-20 198.2,-20 198.2,-319.56 198.2,-319.56 198.2,-325.56 192.2,-331.56 186.2,-331.56 186.2,-331.56 34.2,-331.56 34.2,-331.56 28.2,-331.56 22.2,-325.56 22.2,-319.56 22.2,-319.56 22.2,-20 22.2,-20 22.2,-14 28.2,-8 34.2,-8"/>
<text xml:space="preserve" text-anchor="start" x="92.2" y="-310.81" font-family="Times,serif" font-size="14.00">Active</text>
<text xml:space="preserve" text-anchor="start" x="75.7" y="-292.06" font-family="Times,serif" font-size="10.00">reject(code: u64)</text>
<text xml:space="preserve" text-anchor="start" x="92.2" y="-280.81" font-family="Times,serif" font-size="10.00"> &#160;&#160;&#160;&#160;&#160;&#160;&#160;&#160;&#160;&#160;&#160;&#160;&#160;&#160;&#160;</text>
<polygon fill="black" stroke="black" points="71.7,-304.06 71.7,-304.06 148.7,-304.06 148.7,-304.06 71.7,-304.06"/>
</g>
<!-- Entry -->
<g id="node1" class="node">
<title>Entry</title>
<ellipse fill="black" stroke="#00688b" cx="7.2" cy="-262.2" rx="7.2" ry="7.2"/>
</g>
<!-- Validating -->
<g id="node2" class="node">
<title>Validating</title>
<path fill="azure" stroke="none" d="M178.57,-202.5C178.57,-202.5 41.82,-202.5 41.82,-202.5 35.82,-202.5 29.83,-196.5 29.83,-190.5 29.83,-190.5 29.83,-147.5 29.83,-147.5 29.83,-141.5 35.83,-135.5 41.83,-135.5 41.83,-135.5 178.57,-135.5 178.57,-135.5 184.57,-135.5 190.57,-141.5 190.57,-147.5 190.57,-147.5 190.57,-190.5 190.57,-190.5 190.57,-196.5 184.57,-202.5 178.57,-202.5"/>
<text xml:space="preserve" text-anchor="start" x="80.2" y="-182.2" font-family="Times,serif" font-weight="bold" font-size="14.00">Validating</text>
<text xml:space="preserve" text-anchor="start" x="37.83" y="-157" font-family="Times,serif" font-size="10.00">request(num: u64, a0: u64, a1: u64)</text>
<text xml:space="preserve" text-anchor="start" x="92.2" y="-145.75" font-family="Times,serif" font-size="10.00"> &#160;&#160;&#160;&#160;&#160;&#160;&#160;&#160;&#160;&#160;&#160;&#160;&#160;&#160;&#160;</text>
<polygon fill="#00688b" stroke="#00688b" points="29.83,-172 29.83,-172 190.57,-172 190.57,-172 29.83,-172"/>
<path fill="none" stroke="#00688b" d="M41.83,-135.5C41.83,-135.5 178.57,-135.5 178.57,-135.5 184.57,-135.5 190.57,-141.5 190.57,-147.5 190.57,-147.5 190.57,-190.5 190.57,-190.5 190.57,-196.5 184.57,-202.5 178.57,-202.5 178.57,-202.5 41.82,-202.5 41.82,-202.5 35.82,-202.5 29.83,-196.5 29.83,-190.5 29.83,-190.5 29.83,-147.5 29.83,-147.5 29.83,-141.5 35.83,-135.5 41.83,-135.5"/>
</g>
<!-- Entry&#45;&gt;Validating -->
<g id="edge1" class="edge">
<title>Entry&#45;&gt;Validating</title>
<path fill="none" stroke="red" d="M12.17,-256.8C21.88,-248.2 44.27,-228.38 65.2,-209.84"/>
<polygon fill="red" stroke="red" points="67.43,-212.54 72.6,-203.29 62.79,-207.3 67.43,-212.54"/>
</g>
<!-- Executing -->
<g id="node4" class="node">
<title>Executing</title>
<path fill="azure" stroke="none" d="M122.07,-83C122.07,-83 72.33,-83 72.33,-83 66.33,-83 60.33,-77 60.33,-71 60.33,-71 60.33,-28 60.33,-28 60.33,-22 66.33,-16 72.33,-16 72.33,-16 122.07,-16 122.07,-16 128.07,-16 134.07,-22 134.07,-28 134.07,-28 134.07,-71 134.07,-71 134.07,-77 128.07,-83 122.07,-83"/>
<text xml:space="preserve" text-anchor="start" x="68.33" y="-62.7" font-family="Times,serif" font-weight="bold" font-size="14.00">Executing</text>
<text xml:space="preserve" text-anchor="start" x="68.33" y="-37.5" font-family="Times,serif" font-size="10.00">$&gt;()</text>
<text xml:space="preserve" text-anchor="start" x="68.33" y="-26.25" font-family="Times,serif" font-size="10.00"> &#160;&#160;&#160;&#160;&#160;&#160;&#160;&#160;&#160;&#160;&#160;&#160;&#160;&#160;&#160;</text>
<polygon fill="#00688b" stroke="#00688b" points="60.33,-52.5 60.33,-52.5 134.07,-52.5 134.07,-52.5 60.33,-52.5"/>
<path fill="none" stroke="#00688b" d="M72.33,-16C72.33,-16 122.07,-16 122.07,-16 128.07,-16 134.07,-22 134.07,-28 134.07,-28 134.07,-71 134.07,-71 134.07,-77 128.07,-83 122.07,-83 122.07,-83 72.33,-83 72.33,-83 66.33,-83 60.33,-77 60.33,-71 60.33,-71 60.33,-28 60.33,-28 60.33,-22 66.33,-16 72.33,-16"/>
</g>
<!-- Validating&#45;&gt;Executing -->
<g id="edge2" class="edge">
<title>Validating&#45;&gt;Executing</title>
<path fill="none" stroke="red" d="M69.99,-135.53C65.41,-130.02 61.42,-123.97 58.7,-117.5 55.23,-109.24 56.19,-100.73 59.51,-92.66"/>
<polygon fill="red" stroke="red" points="62.48,-94.53 64.1,-84.06 56.3,-91.23 62.48,-94.53"/>
<text xml:space="preserve" text-anchor="middle" x="81.95" y="-104.2" font-family="Times,serif" font-size="14.00"> request </text>
</g>
<!-- Active -->
<g id="node3" class="node">
<title>Active</title>
<ellipse fill="azure" stroke="#00688b" cx="110.2" cy="-262.2" rx="0.36" ry="0.36"/>
</g>
<!-- Active&#45;&gt;Validating -->
<g id="edge4" class="edge">
<title>Active&#45;&gt;Validating</title>
<path fill="none" stroke="red" d="M110.2,-261.13C110.2,-259.74 110.2,-236.4 110.2,-213.69"/>
<polygon fill="red" stroke="red" points="113.7,-213.86 110.2,-203.86 106.7,-213.86 113.7,-213.86"/>
<text xml:space="preserve" text-anchor="middle" x="128.95" y="-223.7" font-family="Times,serif" font-size="14.00"> reject </text>
</g>
<!-- Executing&#45;&gt;Validating -->
<g id="edge3" class="edge">
<title>Executing&#45;&gt;Validating</title>
<path fill="none" stroke="red" d="M102.72,-82.77C103.64,-88.82 104.51,-95.09 105.2,-101 106.07,-108.46 106.82,-116.41 107.45,-124.13"/>
<polygon fill="red" stroke="red" points="103.96,-124.36 108.21,-134.06 110.94,-123.83 103.96,-124.36"/>
<text xml:space="preserve" text-anchor="middle" x="117.96" y="-104.2" font-family="Times,serif" font-size="14.00"> $&gt; </text>
</g>
</g>
</svg>
