<?xml version="1.0" encoding="UTF-8" standalone="no"?>
<!DOCTYPE svg PUBLIC "-//W3C//DTD SVG 1.1//EN"
 "http://www.w3.org/Graphics/SVG/1.1/DTD/svg11.dtd">
<!-- Generated by graphviz version 14.1.5 (20260411.2331)
 -->
<!-- Title: Task Pages: 1 -->
<svg width="291pt" height="541pt"
 viewBox="0.00 0.00 291.00 541.00" xmlns="http://www.w3.org/2000/svg" xmlns:xlink="http://www.w3.org/1999/xlink">
<g id="graph0" class="graph" transform="scale(1 1) rotate(0) translate(4 537.15)">
<title>Task</title>
<polygon fill="white" stroke="none" points="-4,4 -4,-537.15 286.66,-537.15 286.66,4 -4,4"/>
<!-- Entry -->
<g id="node1" class="node">
<title>Entry</title>
<ellipse fill="black" stroke="#00688b" cx="138.59" cy="-525.95" rx="7.2" ry="7.2"/>
</g>
<!-- Created -->
<g id="node2" class="node">
<title>Created</title>
<path fill="azure" stroke="none" d="M162.34,-481.75C162.34,-481.75 114.84,-481.75 114.84,-481.75 108.84,-481.75 102.84,-475.75 102.84,-469.75 102.84,-469.75 102.84,-415.5 102.84,-415.5 102.84,-409.5 108.84,-403.5 114.84,-403.5 114.84,-403.5 162.34,-403.5 162.34,-403.5 168.34,-403.5 174.34,-409.5 174.34,-415.5 174.34,-415.5 174.34,-469.75 174.34,-469.75 174.34,-475.75 168.34,-481.75 162.34,-481.75"/>
<text xml:space="preserve" text-anchor="start" x="115.34" y="-461.45" font-family="Times,serif" font-weight="bold" font-size="14.00">Created</text>
<text xml:space="preserve" text-anchor="start" x="110.84" y="-436.25" font-family="Times,serif" font-size="10.00">make_ready()</text>
<text xml:space="preserve" text-anchor="start" x="110.84" y="-425" font-family="Times,serif" font-size="10.00">terminate()</text>
<text xml:space="preserve" text-anchor="start" x="125.09" y="-413.75" font-family="Times,serif" font-size="10.00"> &#160;&#160;&#160;&#160;&#160;&#160;&#160;&#160;&#160;&#160;&#160;</text>
<polygon fill="#00688b" stroke="#00688b" points="102.84,-451.25 102.84,-451.25 174.34,-451.25 174.34,-451.25 102.84,-451.25"/>
<path fill="none" stroke="#00688b" d="M114.84,-403.5C114.84,-403.5 162.34,-403.5 162.34,-403.5 168.34,-403.5 174.34,-409.5 174.34,-415.5 174.34,-415.5 174.34,-469.75 174.34,-469.75 174.34,-475.75 168.34,-481.75 162.34,-481.75 162.34,-481.75 114.84,-481.75 114.84,-481.75 108.84,-481.75 102.84,-475.75 102.84,-469.75 102.84,-469.75 102.84,-415.5 102.84,-415.5 102.84,-409.5 108.84,-403.5 114.84,-403.5"/>
</g>
<!-- Entry&#45;&gt;Created -->
<g id="edge1" class="edge">
<title>Entry&#45;&gt;Created</title>
<path fill="none" stroke="red" d="M138.59,-518.29C138.59,-512.28 138.59,-502.82 138.59,-492.63"/>
<polygon fill="red" stroke="red" points="142.09,-492.94 138.59,-482.94 135.09,-492.94 142.09,-492.94"/>
</g>
<!-- Ready -->
<g id="node3" class="node">
<title>Ready</title>
<path fill="azure" stroke="none" d="M96.71,-351C96.71,-351 60.46,-351 60.46,-351 54.46,-351 48.46,-345 48.46,-339 48.46,-339 48.46,-273.5 48.46,-273.5 48.46,-267.5 54.46,-261.5 60.46,-261.5 60.46,-261.5 96.71,-261.5 96.71,-261.5 102.71,-261.5 108.71,-267.5 108.71,-273.5 108.71,-273.5 108.71,-339 108.71,-339 108.71,-345 102.71,-351 96.71,-351"/>
<text xml:space="preserve" text-anchor="start" x="60.21" y="-330.7" font-family="Times,serif" font-weight="bold" font-size="14.00">Ready</text>
<text xml:space="preserve" text-anchor="start" x="56.46" y="-305.5" font-family="Times,serif" font-size="10.00">block()</text>
<text xml:space="preserve" text-anchor="start" x="56.46" y="-294.25" font-family="Times,serif" font-size="10.00">terminate()</text>
<text xml:space="preserve" text-anchor="start" x="56.46" y="-283" font-family="Times,serif" font-size="10.00">is_ready()</text>
<text xml:space="preserve" text-anchor="start" x="65.09" y="-271.75" font-family="Times,serif" font-size="10.00"> &#160;&#160;&#160;&#160;&#160;&#160;&#160;&#160;&#160;&#160;&#160;</text>
<polygon fill="#00688b" stroke="#00688b" points="48.46,-320.5 48.46,-320.5 108.71,-320.5 108.71,-320.5 48.46,-320.5"/>
<path fill="none" stroke="#00688b" d="M60.46,-261.5C60.46,-261.5 96.71,-261.5 96.71,-261.5 102.71,-261.5 108.71,-267.5 108.71,-273.5 108.71,-273.5 108.71,-339 108.71,-339 108.71,-345 102.71,-351 96.71,-351 96.71,-351 60.46,-351 60.46,-351 54.46,-351 48.46,-345 48.46,-339 48.46,-339 48.46,-273.5 48.46,-273.5 48.46,-267.5 54.46,-261.5 60.46,-261.5"/>
</g>
<!-- Created&#45;&gt;Ready -->
<g id="edge2" class="edge">
<title>Created&#45;&gt;Ready</title>
<path fill="none" stroke="red" d="M121.71,-403.84C115.8,-390.59 109.04,-375.45 102.65,-361.15"/>
<polygon fill="red" stroke="red" points="105.98,-360.01 98.7,-352.3 99.58,-362.86 105.98,-360.01"/>
<text xml:space="preserve" text-anchor="middle" x="149.3" y="-372.2" font-family="Times,serif" font-size="14.00"> make_ready </text>
</g>
<!-- Terminated -->
<g id="node5" class="node">
<title>Terminated</title>
<path fill="azure" stroke="none" d="M158.71,-67C158.71,-67 98.46,-67 98.46,-67 92.46,-67 86.46,-61 86.46,-55 86.46,-55 86.46,-12 86.46,-12 86.46,-6 92.46,0 98.46,0 98.46,0 158.71,0 158.71,0 164.71,0 170.71,-6 170.71,-12 170.71,-12 170.71,-55 170.71,-55 170.71,-61 164.71,-67 158.71,-67"/>
<text xml:space="preserve" text-anchor="start" x="94.46" y="-46.7" font-family="Times,serif" font-weight="bold" font-size="14.00">Terminated</text>
<text xml:space="preserve" text-anchor="start" x="94.46" y="-21.5" font-family="Times,serif" font-size="10.00">is_terminated()</text>
<text xml:space="preserve" text-anchor="start" x="111.71" y="-10.25" font-family="Times,serif" font-size="10.00"> &#160;&#160;&#160;&#160;&#160;&#160;&#160;&#160;&#160;&#160;&#160;</text>
<polygon fill="#00688b" stroke="#00688b" points="86.46,-36.5 86.46,-36.5 170.71,-36.5 170.71,-36.5 86.46,-36.5"/>
<path fill="none" stroke="#00688b" d="M98.46,0C98.46,0 158.71,0 158.71,0 164.71,0 170.71,-6 170.71,-12 170.71,-12 170.71,-55 170.71,-55 170.71,-61 164.71,-67 158.71,-67 158.71,-67 98.46,-67 98.46,-67 92.46,-67 86.46,-61 86.46,-55 86.46,-55 86.46,-12 86.46,-12 86.46,-6 92.46,0 98.46,0"/>
</g>
<!-- Created&#45;&gt;Terminated -->
<g id="edge3" class="edge">
<title>Created&#45;&gt;Terminated</title>
<path fill="none" stroke="red" d="M174.2,-410.98C180.83,-403.37 186.85,-394.73 190.59,-385.5 234.99,-275.92 232.91,-231.35 194.59,-119.5 189.17,-103.7 179.5,-88.58 169.19,-75.58"/>
<polygon fill="red" stroke="red" points="172.06,-73.55 162.97,-68.1 166.67,-78.02 172.06,-73.55"/>
<text xml:space="preserve" text-anchor="middle" x="253.04" y="-230.2" font-family="Times,serif" font-size="14.00"> terminate </text>
</g>
<!-- Blocked -->
<g id="node4" class="node">
<title>Blocked</title>
<path fill="azure" stroke="none" d="M76.09,-209C76.09,-209 33.09,-209 33.09,-209 27.09,-209 21.09,-203 21.09,-197 21.09,-197 21.09,-131.5 21.09,-131.5 21.09,-125.5 27.09,-119.5 33.09,-119.5 33.09,-119.5 76.09,-119.5 76.09,-119.5 82.09,-119.5 88.09,-125.5 88.09,-131.5 88.09,-131.5 88.09,-197 88.09,-197 88.09,-203 82.09,-209 76.09,-209"/>
<text xml:space="preserve" text-anchor="start" x="31.34" y="-188.7" font-family="Times,serif" font-weight="bold" font-size="14.00">Blocked</text>
<text xml:space="preserve" text-anchor="start" x="29.09" y="-163.5" font-family="Times,serif" font-size="10.00">unblock()</text>
<text xml:space="preserve" text-anchor="start" x="29.09" y="-152.25" font-family="Times,serif" font-size="10.00">terminate()</text>
<text xml:space="preserve" text-anchor="start" x="29.09" y="-141" font-family="Times,serif" font-size="10.00">is_blocked()</text>
<text xml:space="preserve" text-anchor="start" x="41.09" y="-129.75" font-family="Times,serif" font-size="10.00"> &#160;&#160;&#160;&#160;&#160;&#160;&#160;&#160;&#160;&#160;&#160;</text>
<polygon fill="#00688b" stroke="#00688b" points="21.09,-178.5 21.09,-178.5 88.09,-178.5 88.09,-178.5 21.09,-178.5"/>
<path fill="none" stroke="#00688b" d="M33.09,-119.5C33.09,-119.5 76.09,-119.5 76.09,-119.5 82.09,-119.5 88.09,-125.5 88.09,-131.5 88.09,-131.5 88.09,-197 88.09,-197 88.09,-203 82.09,-209 76.09,-209 76.09,-209 33.09,-209 33.09,-209 27.09,-209 21.09,-203 21.09,-197 21.09,-197 21.09,-131.5 21.09,-131.5 21.09,-125.5 27.09,-119.5 33.09,-119.5"/>
</g>
<!-- Ready&#45;&gt;Blocked -->
<g id="edge4" class="edge">
<title>Ready&#45;&gt;Blocked</title>
<path fill="none" stroke="red" d="M48.57,-289.55C31.84,-279 12.52,-263.39 3.09,-243.5 -4.06,-228.43 2.79,-212.88 13.56,-199.65"/>
<polygon fill="red" stroke="red" points="15.96,-202.21 20.08,-192.44 10.77,-197.51 15.96,-202.21"/>
<text xml:space="preserve" text-anchor="middle" x="21.84" y="-230.2" font-family="Times,serif" font-size="14.00"> block </text>
</g>
<!-- Ready&#45;&gt;Terminated -->
<g id="edge5" class="edge">
<title>Ready&#45;&gt;Terminated</title>
<path fill="none" stroke="red" d="M107.3,-261.52C110.19,-255.64 112.73,-249.55 114.59,-243.5 131.48,-188.36 132.82,-121.33 131.39,-78.3"/>
<polygon fill="red" stroke="red" points="134.89,-78.19 130.98,-68.34 127.89,-78.48 134.89,-78.19"/>
<text xml:space="preserve" text-anchor="middle" x="161.27" y="-159.2" font-family="Times,serif" font-size="14.00"> terminate </text>
</g>
<!-- Blocked&#45;&gt;Ready -->
<g id="edge6" class="edge">
<title>Blocked&#45;&gt;Ready</title>
<path fill="none" stroke="red" d="M58.63,-208.85C59.95,-220.17 61.59,-232.33 63.59,-243.5 64,-245.79 64.44,-248.12 64.91,-250.48"/>
<polygon fill="red" stroke="red" points="61.44,-251.01 66.95,-260.06 68.29,-249.55 61.44,-251.01"/>
<text xml:space="preserve" text-anchor="middle" x="89.09" y="-230.2" font-family="Times,serif" font-size="14.00"> unblock </text>
</g>
<!-- Blocked&#45;&gt;Terminated -->
<g id="edge7" class="edge">
<title>Blocked&#45;&gt;Terminated</title>
<path fill="none" stroke="red" d="M47.89,-119.62C47.93,-107.82 49.79,-95.44 55.34,-85 60.5,-75.28 68.46,-67.06 77.27,-60.26"/>
<polygon fill="red" stroke="red" points="79.24,-63.15 85.43,-54.54 75.23,-57.41 79.24,-63.15"/>
<text xml:space="preserve" text-anchor="middle" x="84.96" y="-88.2" font-family="Times,serif" font-size="14.00"> terminate </text>
</g>
</g>
</svg>
