<?xml version="1.0" encoding="UTF-8" standalone="no"?>
<!DOCTYPE svg PUBLIC "-//W3C//DTD SVG 1.1//EN"
 "http://www.w3.org/Graphics/SVG/1.1/DTD/svg11.dtd">
<!-- Generated by graphviz version 2.43.0 (0)
 -->
<!-- Title: Task Pages: 1 -->
<svg width="360pt" height="527pt"
 viewBox="0.00 0.00 360.41 527.00" xmlns="http://www.w3.org/2000/svg" xmlns:xlink="http://www.w3.org/1999/xlink">
<g id="graph0" class="graph" transform="scale(1 1) rotate(0) translate(4 523)">
<title>Task</title>
<polygon fill="white" stroke="transparent" points="-4,4 -4,-523 356.41,-523 356.41,4 -4,4"/>
<!-- Entry -->
<g id="node1" class="node">
<title>Entry</title>
<ellipse fill="black" stroke="#00688b" cx="166.41" cy="-512" rx="7" ry="7"/>
</g>
<!-- Created -->
<g id="node2" class="node">
<title>Created</title>
<path fill="azure" stroke="transparent" d="M197.41,-468C197.41,-468 135.41,-468 135.41,-468 129.41,-468 123.41,-462 123.41,-456 123.41,-456 123.41,-404 123.41,-404 123.41,-398 129.41,-392 135.41,-392 135.41,-392 197.41,-392 197.41,-392 203.41,-392 209.41,-398 209.41,-404 209.41,-404 209.41,-456 209.41,-456 209.41,-462 203.41,-468 197.41,-468"/>
<text text-anchor="start" x="134.91" y="-449.8" font-family="Times,serif" font-weight="bold" font-size="14.00">Created</text>
<text text-anchor="start" x="131.41" y="-425" font-family="Times,serif" font-size="10.00">make_ready()</text>
<text text-anchor="start" x="131.41" y="-414" font-family="Times,serif" font-size="10.00">terminate()</text>
<text text-anchor="start" x="147.91" y="-403" font-family="Times,serif" font-size="10.00"> &#160;&#160;&#160;&#160;&#160;&#160;&#160;&#160;&#160;&#160;&#160;</text>
<polygon fill="#00688b" stroke="#00688b" points="123.41,-439 123.41,-439 209.41,-439 209.41,-439 123.41,-439"/>
<path fill="none" stroke="#00688b" d="M135.41,-392C135.41,-392 197.41,-392 197.41,-392 203.41,-392 209.41,-398 209.41,-404 209.41,-404 209.41,-456 209.41,-456 209.41,-462 203.41,-468 197.41,-468 197.41,-468 135.41,-468 135.41,-468 129.41,-468 123.41,-462 123.41,-456 123.41,-456 123.41,-404 123.41,-404 123.41,-398 129.41,-392 135.41,-392"/>
</g>
<!-- Entry&#45;&gt;Created -->
<g id="edge1" class="edge">
<title>Entry&#45;&gt;Created</title>
<path fill="none" stroke="red" d="M166.41,-504.99C166.41,-498.98 166.41,-489.15 166.41,-478.59"/>
<polygon fill="red" stroke="red" points="169.91,-478.33 166.41,-468.33 162.91,-478.33 169.91,-478.33"/>
</g>
<!-- Ready -->
<g id="node3" class="node">
<title>Ready</title>
<path fill="azure" stroke="transparent" d="M116.41,-341C116.41,-341 66.41,-341 66.41,-341 60.41,-341 54.41,-335 54.41,-329 54.41,-329 54.41,-266 54.41,-266 54.41,-260 60.41,-254 66.41,-254 66.41,-254 116.41,-254 116.41,-254 122.41,-254 128.41,-260 128.41,-266 128.41,-266 128.41,-329 128.41,-329 128.41,-335 122.41,-341 116.41,-341"/>
<text text-anchor="start" x="66.91" y="-322.3" font-family="Times,serif" font-weight="bold" font-size="14.00">Ready</text>
<text text-anchor="start" x="62.41" y="-297.5" font-family="Times,serif" font-size="10.00">block()</text>
<text text-anchor="start" x="62.41" y="-286.5" font-family="Times,serif" font-size="10.00">terminate()</text>
<text text-anchor="start" x="62.41" y="-275.5" font-family="Times,serif" font-size="10.00">is_ready()</text>
<text text-anchor="start" x="72.91" y="-264.5" font-family="Times,serif" font-size="10.00"> &#160;&#160;&#160;&#160;&#160;&#160;&#160;&#160;&#160;&#160;&#160;</text>
<polygon fill="#00688b" stroke="#00688b" points="54.41,-311.5 54.41,-311.5 128.41,-311.5 128.41,-311.5 54.41,-311.5"/>
<path fill="none" stroke="#00688b" d="M66.41,-254C66.41,-254 116.41,-254 116.41,-254 122.41,-254 128.41,-260 128.41,-266 128.41,-266 128.41,-329 128.41,-329 128.41,-335 122.41,-341 116.41,-341 116.41,-341 66.41,-341 66.41,-341 60.41,-341 54.41,-335 54.41,-329 54.41,-329 54.41,-266 54.41,-266 54.41,-260 60.41,-254 66.41,-254"/>
</g>
<!-- Created&#45;&gt;Ready -->
<g id="edge2" class="edge">
<title>Created&#45;&gt;Ready</title>
<path fill="none" stroke="red" d="M145.12,-391.95C137.66,-378.97 129.14,-364.15 121.12,-350.19"/>
<polygon fill="red" stroke="red" points="123.95,-348.09 115.93,-341.17 117.88,-351.58 123.95,-348.09"/>
<text text-anchor="middle" x="179.91" y="-362.8" font-family="Times,serif" font-size="14.00"> make_ready </text>
</g>
<!-- Terminated -->
<g id="node5" class="node">
<title>Terminated</title>
<path fill="azure" stroke="transparent" d="M193.91,-65C193.91,-65 110.91,-65 110.91,-65 104.91,-65 98.91,-59 98.91,-53 98.91,-53 98.91,-12 98.91,-12 98.91,-6 104.91,0 110.91,0 110.91,0 193.91,0 193.91,0 199.91,0 205.91,-6 205.91,-12 205.91,-12 205.91,-53 205.91,-53 205.91,-59 199.91,-65 193.91,-65"/>
<text text-anchor="start" x="107.41" y="-46.3" font-family="Times,serif" font-weight="bold" font-size="14.00">Terminated</text>
<text text-anchor="start" x="107.41" y="-21.5" font-family="Times,serif" font-size="10.00">is_terminated()</text>
<text text-anchor="start" x="127.91" y="-10.5" font-family="Times,serif" font-size="10.00"> &#160;&#160;&#160;&#160;&#160;&#160;&#160;&#160;&#160;&#160;&#160;</text>
<polygon fill="#00688b" stroke="#00688b" points="99.41,-35.5 99.41,-35.5 206.41,-35.5 206.41,-35.5 99.41,-35.5"/>
<path fill="none" stroke="#00688b" d="M110.91,0C110.91,0 193.91,0 193.91,0 199.91,0 205.91,-6 205.91,-12 205.91,-12 205.91,-53 205.91,-53 205.91,-59 199.91,-65 193.91,-65 193.91,-65 110.91,-65 110.91,-65 104.91,-65 98.91,-59 98.91,-53 98.91,-53 98.91,-12 98.91,-12 98.91,-6 104.91,0 110.91,0"/>
</g>
<!-- Created&#45;&gt;Terminated -->
<g id="edge3" class="edge">
<title>Created&#45;&gt;Terminated</title>
<path fill="none" stroke="red" d="M209.51,-401.17C218.21,-393.45 226.26,-384.31 231.41,-374 282.71,-271.35 287.33,-221.17 241.41,-116 234.09,-99.22 221.48,-84.32 208.02,-71.97"/>
<polygon fill="red" stroke="red" points="210.31,-69.32 200.48,-65.37 205.7,-74.59 210.31,-69.32"/>
<text text-anchor="middle" x="312.41" y="-224.8" font-family="Times,serif" font-size="14.00"> terminate </text>
</g>
<!-- Blocked -->
<g id="node4" class="node">
<title>Blocked</title>
<path fill="azure" stroke="transparent" d="M85.41,-203C85.41,-203 29.41,-203 29.41,-203 23.41,-203 17.41,-197 17.41,-191 17.41,-191 17.41,-128 17.41,-128 17.41,-122 23.41,-116 29.41,-116 29.41,-116 85.41,-116 85.41,-116 91.41,-116 97.41,-122 97.41,-128 97.41,-128 97.41,-191 97.41,-191 97.41,-197 91.41,-203 85.41,-203"/>
<text text-anchor="start" x="25.41" y="-184.3" font-family="Times,serif" font-weight="bold" font-size="14.00">Blocked</text>
<text text-anchor="start" x="25.41" y="-159.5" font-family="Times,serif" font-size="10.00">unblock()</text>
<text text-anchor="start" x="25.41" y="-148.5" font-family="Times,serif" font-size="10.00">terminate()</text>
<text text-anchor="start" x="25.41" y="-137.5" font-family="Times,serif" font-size="10.00">is_blocked()</text>
<text text-anchor="start" x="37.41" y="-126.5" font-family="Times,serif" font-size="10.00"> &#160;&#160;&#160;&#160;&#160;&#160;&#160;&#160;&#160;&#160;&#160;</text>
<polygon fill="#00688b" stroke="#00688b" points="17.41,-173.5 17.41,-173.5 97.41,-173.5 97.41,-173.5 17.41,-173.5"/>
<path fill="none" stroke="#00688b" d="M29.41,-116C29.41,-116 85.41,-116 85.41,-116 91.41,-116 97.41,-122 97.41,-128 97.41,-128 97.41,-191 97.41,-191 97.41,-197 91.41,-203 85.41,-203 85.41,-203 29.41,-203 29.41,-203 23.41,-203 17.41,-197 17.41,-191 17.41,-191 17.41,-128 17.41,-128 17.41,-122 23.41,-116 29.41,-116"/>
</g>
<!-- Ready&#45;&gt;Blocked -->
<g id="edge4" class="edge">
<title>Ready&#45;&gt;Blocked</title>
<path fill="none" stroke="red" d="M54.34,-281.3C35.44,-271.42 14.2,-256.51 3.41,-236 -3.48,-222.9 1.53,-209.47 10.79,-197.65"/>
<polygon fill="red" stroke="red" points="13.42,-199.95 17.4,-190.13 8.17,-195.33 13.42,-199.95"/>
<text text-anchor="middle" x="26.91" y="-224.8" font-family="Times,serif" font-size="14.00"> block </text>
</g>
<!-- Ready&#45;&gt;Terminated -->
<g id="edge5" class="edge">
<title>Ready&#45;&gt;Terminated</title>
<path fill="none" stroke="red" d="M128.46,-255.13C132.41,-249.04 135.9,-242.59 138.41,-236 158.52,-183.34 158.97,-117.44 156.47,-75.39"/>
<polygon fill="red" stroke="red" points="159.95,-74.98 155.78,-65.24 152.97,-75.45 159.95,-74.98"/>
<text text-anchor="middle" x="197.41" y="-155.8" font-family="Times,serif" font-size="14.00"> terminate </text>
</g>
<!-- Blocked&#45;&gt;Ready -->
<g id="edge6" class="edge">
<title>Blocked&#45;&gt;Ready</title>
<path fill="none" stroke="red" d="M65.87,-203.36C68.15,-214.06 70.74,-225.48 73.41,-236 74.09,-238.65 74.8,-241.35 75.54,-244.08"/>
<polygon fill="red" stroke="red" points="72.24,-245.29 78.3,-253.98 78.98,-243.41 72.24,-245.29"/>
<text text-anchor="middle" x="105.91" y="-224.8" font-family="Times,serif" font-size="14.00"> unblock </text>
</g>
<!-- Blocked&#45;&gt;Terminated -->
<g id="edge7" class="edge">
<title>Blocked&#45;&gt;Terminated</title>
<path fill="none" stroke="red" d="M50.36,-115.95C50.43,-104.56 52.45,-92.72 58.41,-83 65.78,-70.98 77.13,-61.72 89.42,-54.65"/>
<polygon fill="red" stroke="red" points="91.28,-57.63 98.5,-49.88 88.02,-51.43 91.28,-57.63"/>
<text text-anchor="middle" x="98.41" y="-86.8" font-family="Times,serif" font-size="14.00"> terminate </text>
</g>
</g>
</svg>
