<?xml version="1.0" encoding="UTF-8" standalone="no"?>
<!DOCTYPE svg PUBLIC "-//W3C//DTD SVG 1.1//EN"
 "http://www.w3.org/Graphics/SVG/1.1/DTD/svg11.dtd">
<!-- Generated by graphviz version 14.1.5 (20260411.2331)
 -->
<!-- Title: TcpConnection Pages: 1 -->
<svg width="752pt" height="923pt"
 viewBox="0.00 0.00 752.00 923.00" xmlns="http://www.w3.org/2000/svg" xmlns:xlink="http://www.w3.org/1999/xlink">
<g id="graph0" class="graph" transform="scale(1 1) rotate(0) translate(4 919)">
<title>TcpConnection</title>
<polygon fill="white" stroke="none" points="-4,4 -4,-919 747.75,-919 747.75,4 -4,4"/>
<g id="clust1" class="cluster">
<title>cluster_Open</title>
<path fill="none" stroke="black" d="M97.75,-8C97.75,-8 723.75,-8 723.75,-8 729.75,-8 735.75,-14 735.75,-20 735.75,-20 735.75,-895 735.75,-895 735.75,-901 729.75,-907 723.75,-907 723.75,-907 97.75,-907 97.75,-907 91.75,-907 85.75,-901 85.75,-895 85.75,-895 85.75,-20 85.75,-20 85.75,-14 91.75,-8 97.75,-8"/>
<text xml:space="preserve" text-anchor="start" x="396.12" y="-886.25" font-family="Times,serif" font-size="14.00">Open</text>
<text xml:space="preserve" text-anchor="start" x="392.75" y="-867.5" font-family="Times,serif" font-size="10.00">rst()</text>
<text xml:space="preserve" text-anchor="start" x="392.75" y="-856.25" font-family="Times,serif" font-size="10.00"> &#160;&#160;&#160;&#160;&#160;&#160;&#160;&#160;&#160;&#160;&#160;&#160;&#160;&#160;&#160;</text>
<polygon fill="black" stroke="black" points="388.75,-879.5 388.75,-879.5 432.75,-879.5 432.75,-879.5 388.75,-879.5"/>
</g>
<!-- Entry -->
<g id="node1" class="node">
<title>Entry</title>
<ellipse fill="black" stroke="#00688b" cx="18.75" cy="-782" rx="7.2" ry="7.2"/>
</g>
<!-- Closed -->
<g id="node2" class="node">
<title>Closed</title>
<path fill="azure" stroke="none" d="M65.5,-656.62C65.5,-656.62 12,-656.62 12,-656.62 6,-656.62 0,-650.62 0,-644.62 0,-644.62 0,-590.38 0,-590.38 0,-584.38 6,-578.38 12,-578.38 12,-578.38 65.5,-578.38 65.5,-578.38 71.5,-578.38 77.5,-584.38 77.5,-590.38 77.5,-590.38 77.5,-644.62 77.5,-644.62 77.5,-650.62 71.5,-656.62 65.5,-656.62"/>
<text xml:space="preserve" text-anchor="start" x="19.25" y="-636.33" font-family="Times,serif" font-weight="bold" font-size="14.00">Closed</text>
<text xml:space="preserve" text-anchor="start" x="8" y="-611.12" font-family="Times,serif" font-size="10.00">open_passive()</text>
<text xml:space="preserve" text-anchor="start" x="8" y="-599.88" font-family="Times,serif" font-size="10.00">open_active()</text>
<text xml:space="preserve" text-anchor="start" x="25.25" y="-588.62" font-family="Times,serif" font-size="10.00"> &#160;&#160;&#160;&#160;&#160;&#160;&#160;&#160;&#160;&#160;&#160;</text>
<polygon fill="#00688b" stroke="#00688b" points="0,-626.12 0,-626.12 77.5,-626.12 77.5,-626.12 0,-626.12"/>
<path fill="none" stroke="#00688b" d="M12,-578.38C12,-578.38 65.5,-578.38 65.5,-578.38 71.5,-578.38 77.5,-584.38 77.5,-590.38 77.5,-590.38 77.5,-644.62 77.5,-644.62 77.5,-650.62 71.5,-656.62 65.5,-656.62 65.5,-656.62 12,-656.62 12,-656.62 6,-656.62 0,-650.62 0,-644.62 0,-644.62 0,-590.38 0,-590.38 0,-584.38 6,-578.38 12,-578.38"/>
</g>
<!-- Entry&#45;&gt;Closed -->
<g id="edge1" class="edge">
<title>Entry&#45;&gt;Closed</title>
<path fill="none" stroke="red" d="M19.56,-774.43C21.75,-756.65 27.94,-706.33 32.7,-667.62"/>
<polygon fill="red" stroke="red" points="36.14,-668.39 33.88,-658.04 29.19,-667.53 36.14,-668.39"/>
</g>
<!-- Listen -->
<g id="node4" class="node">
<title>Listen</title>
<path fill="azure" stroke="none" d="M269.25,-821.12C269.25,-821.12 124.25,-821.12 124.25,-821.12 118.25,-821.12 112.25,-815.12 112.25,-809.12 112.25,-809.12 112.25,-754.88 112.25,-754.88 112.25,-748.88 118.25,-742.88 124.25,-742.88 124.25,-742.88 269.25,-742.88 269.25,-742.88 275.25,-742.88 281.25,-748.88 281.25,-754.88 281.25,-754.88 281.25,-809.12 281.25,-809.12 281.25,-815.12 275.25,-821.12 269.25,-821.12"/>
<text xml:space="preserve" text-anchor="start" x="178.75" y="-800.83" font-family="Times,serif" font-weight="bold" font-size="14.00">Listen</text>
<text xml:space="preserve" text-anchor="start" x="120.25" y="-775.62" font-family="Times,serif" font-size="10.00">segment(seg: crate::tcp::TcpSegment)</text>
<text xml:space="preserve" text-anchor="start" x="120.25" y="-764.38" font-family="Times,serif" font-size="10.00">state()</text>
<text xml:space="preserve" text-anchor="start" x="178.75" y="-753.12" font-family="Times,serif" font-size="10.00"> &#160;&#160;&#160;&#160;&#160;&#160;&#160;&#160;&#160;&#160;&#160;&#160;&#160;&#160;&#160;</text>
<polygon fill="#00688b" stroke="#00688b" points="112.25,-790.62 112.25,-790.62 281.25,-790.62 281.25,-790.62 112.25,-790.62"/>
<path fill="none" stroke="#00688b" d="M124.25,-742.88C124.25,-742.88 269.25,-742.88 269.25,-742.88 275.25,-742.88 281.25,-748.88 281.25,-754.88 281.25,-754.88 281.25,-809.12 281.25,-809.12 281.25,-815.12 275.25,-821.12 269.25,-821.12 269.25,-821.12 124.25,-821.12 124.25,-821.12 118.25,-821.12 112.25,-815.12 112.25,-809.12 112.25,-809.12 112.25,-754.88 112.25,-754.88 112.25,-748.88 118.25,-742.88 124.25,-742.88"/>
</g>
<!-- Closed&#45;&gt;Listen -->
<g id="edge2" class="edge">
<title>Closed&#45;&gt;Listen</title>
<path fill="none" stroke="red" d="M58.98,-656.42C68.98,-673.26 82.02,-692.68 96.5,-708 105.95,-718 116.93,-727.56 128.09,-736.27"/>
<polygon fill="red" stroke="red" points="125.76,-738.9 135.85,-742.15 129.99,-733.32 125.76,-738.9"/>
<text xml:space="preserve" text-anchor="middle" x="136.62" y="-694.7" font-family="Times,serif" font-size="14.00"> open_passive </text>
</g>
<!-- SynSent -->
<g id="node5" class="node">
<title>SynSent</title>
<path fill="azure" stroke="none" d="M456.25,-838C456.25,-838 311.25,-838 311.25,-838 305.25,-838 299.25,-832 299.25,-826 299.25,-826 299.25,-738 299.25,-738 299.25,-732 305.25,-726 311.25,-726 311.25,-726 456.25,-726 456.25,-726 462.25,-726 468.25,-732 468.25,-738 468.25,-738 468.25,-826 468.25,-826 468.25,-832 462.25,-838 456.25,-838"/>
<text xml:space="preserve" text-anchor="start" x="360.12" y="-817.7" font-family="Times,serif" font-weight="bold" font-size="14.00">SynSent</text>
<text xml:space="preserve" text-anchor="start" x="307.25" y="-792.5" font-family="Times,serif" font-size="10.00">$&gt;()</text>
<text xml:space="preserve" text-anchor="start" x="307.25" y="-781.25" font-family="Times,serif" font-size="10.00">&lt;$()</text>
<text xml:space="preserve" text-anchor="start" x="307.25" y="-770" font-family="Times,serif" font-size="10.00">segment(seg: crate::tcp::TcpSegment)</text>
<text xml:space="preserve" text-anchor="start" x="307.25" y="-758.75" font-family="Times,serif" font-size="10.00">timeout()</text>
<text xml:space="preserve" text-anchor="start" x="307.25" y="-747.5" font-family="Times,serif" font-size="10.00">state()</text>
<text xml:space="preserve" text-anchor="start" x="365.75" y="-736.25" font-family="Times,serif" font-size="10.00"> &#160;&#160;&#160;&#160;&#160;&#160;&#160;&#160;&#160;&#160;&#160;&#160;&#160;&#160;&#160;</text>
<polygon fill="#00688b" stroke="#00688b" points="299.25,-807.5 299.25,-807.5 468.25,-807.5 468.25,-807.5 299.25,-807.5"/>
<path fill="none" stroke="#00688b" d="M311.25,-726C311.25,-726 456.25,-726 456.25,-726 462.25,-726 468.25,-732 468.25,-738 468.25,-738 468.25,-826 468.25,-826 468.25,-832 462.25,-838 456.25,-838 456.25,-838 311.25,-838 311.25,-838 305.25,-838 299.25,-832 299.25,-826 299.25,-826 299.25,-738 299.25,-738 299.25,-732 305.25,-726 311.25,-726"/>
</g>
<!-- Closed&#45;&gt;SynSent -->
<g id="edge3" class="edge">
<title>Closed&#45;&gt;SynSent</title>
<path fill="none" stroke="red" d="M62.39,-656.42C68.01,-662.97 74.5,-669.09 81.75,-673.5 118.45,-695.86 138.02,-672.89 176.75,-691.5 186.91,-696.38 185.84,-703.12 196,-708 231.61,-725.12 248.01,-713.11 288.6,-725.75"/>
<polygon fill="red" stroke="red" points="287.44,-729.05 298.03,-729.03 289.74,-722.44 287.44,-729.05"/>
<text xml:space="preserve" text-anchor="middle" x="232.38" y="-694.7" font-family="Times,serif" font-size="14.00"> open_active </text>
</g>
<!-- Open -->
<g id="node3" class="node">
<title>Open</title>
<ellipse fill="azure" stroke="#00688b" cx="93.75" cy="-782" rx="0.36" ry="0.36"/>
</g>
<!-- Open&#45;&gt;Closed -->
<g id="edge18" class="edge">
<title>Open&#45;&gt;Closed</title>
<path fill="none" stroke="red" d="M85.75,-769.78C76.31,-755.95 60.85,-731.38 52.75,-708 48.29,-695.11 45.24,-680.69 43.16,-667.24"/>
<polygon fill="red" stroke="red" points="46.69,-667.16 41.84,-657.74 39.75,-668.12 46.69,-667.16"/>
<text xml:space="preserve" text-anchor="middle" x="63.25" y="-694.7" font-family="Times,serif" font-size="14.00"> rst </text>
</g>
<!-- SynReceived -->
<g id="node6" class="node">
<title>SynReceived</title>
<path fill="azure" stroke="none" d="M381.25,-673.5C381.25,-673.5 236.25,-673.5 236.25,-673.5 230.25,-673.5 224.25,-667.5 224.25,-661.5 224.25,-661.5 224.25,-573.5 224.25,-573.5 224.25,-567.5 230.25,-561.5 236.25,-561.5 236.25,-561.5 381.25,-561.5 381.25,-561.5 387.25,-561.5 393.25,-567.5 393.25,-573.5 393.25,-573.5 393.25,-661.5 393.25,-661.5 393.25,-667.5 387.25,-673.5 381.25,-673.5"/>
<text xml:space="preserve" text-anchor="start" x="272" y="-653.2" font-family="Times,serif" font-weight="bold" font-size="14.00">SynReceived</text>
<text xml:space="preserve" text-anchor="start" x="232.25" y="-628" font-family="Times,serif" font-size="10.00">$&gt;()</text>
<text xml:space="preserve" text-anchor="start" x="232.25" y="-616.75" font-family="Times,serif" font-size="10.00">&lt;$()</text>
<text xml:space="preserve" text-anchor="start" x="232.25" y="-605.5" font-family="Times,serif" font-size="10.00">segment(seg: crate::tcp::TcpSegment)</text>
<text xml:space="preserve" text-anchor="start" x="232.25" y="-594.25" font-family="Times,serif" font-size="10.00">timeout()</text>
<text xml:space="preserve" text-anchor="start" x="232.25" y="-583" font-family="Times,serif" font-size="10.00">state()</text>
<text xml:space="preserve" text-anchor="start" x="290.75" y="-571.75" font-family="Times,serif" font-size="10.00"> &#160;&#160;&#160;&#160;&#160;&#160;&#160;&#160;&#160;&#160;&#160;&#160;&#160;&#160;&#160;</text>
<polygon fill="#00688b" stroke="#00688b" points="224.25,-643 224.25,-643 393.25,-643 393.25,-643 224.25,-643"/>
<path fill="none" stroke="#00688b" d="M236.25,-561.5C236.25,-561.5 381.25,-561.5 381.25,-561.5 387.25,-561.5 393.25,-567.5 393.25,-573.5 393.25,-573.5 393.25,-661.5 393.25,-661.5 393.25,-667.5 387.25,-673.5 381.25,-673.5 381.25,-673.5 236.25,-673.5 236.25,-673.5 230.25,-673.5 224.25,-667.5 224.25,-661.5 224.25,-661.5 224.25,-573.5 224.25,-573.5 224.25,-567.5 230.25,-561.5 236.25,-561.5"/>
</g>
<!-- Listen&#45;&gt;SynReceived -->
<g id="edge4" class="edge">
<title>Listen&#45;&gt;SynReceived</title>
<path fill="none" stroke="red" d="M242.72,-742.9C253.54,-732.39 264.35,-720.43 272.75,-708 277.81,-700.5 282.34,-692.18 286.34,-683.72"/>
<polygon fill="red" stroke="red" points="289.46,-685.32 290.33,-674.76 283.07,-682.47 289.46,-685.32"/>
<text xml:space="preserve" text-anchor="middle" x="308.75" y="-694.7" font-family="Times,serif" font-size="14.00"> segment </text>
</g>
<!-- SynSent&#45;&gt;SynReceived -->
<g id="edge6" class="edge">
<title>SynSent&#45;&gt;SynReceived</title>
<path fill="none" stroke="red" d="M363.57,-726.1C358.97,-714.55 353.9,-702.53 348.75,-691.5 347.48,-688.77 346.14,-686 344.77,-683.22"/>
<polygon fill="red" stroke="red" points="347.98,-681.81 340.34,-674.47 341.73,-684.97 347.98,-681.81"/>
<text xml:space="preserve" text-anchor="middle" x="381.81" y="-694.7" font-family="Times,serif" font-size="14.00"> segment </text>
</g>
<!-- Established -->
<g id="node7" class="node">
<title>Established</title>
<path fill="azure" stroke="none" d="M472.25,-509C472.25,-509 327.25,-509 327.25,-509 321.25,-509 315.25,-503 315.25,-497 315.25,-497 315.25,-431.5 315.25,-431.5 315.25,-425.5 321.25,-419.5 327.25,-419.5 327.25,-419.5 472.25,-419.5 472.25,-419.5 478.25,-419.5 484.25,-425.5 484.25,-431.5 484.25,-431.5 484.25,-497 484.25,-497 484.25,-503 478.25,-509 472.25,-509"/>
<text xml:space="preserve" text-anchor="start" x="366.38" y="-488.7" font-family="Times,serif" font-weight="bold" font-size="14.00">Established</text>
<text xml:space="preserve" text-anchor="start" x="323.25" y="-463.5" font-family="Times,serif" font-size="10.00">segment(seg: crate::tcp::TcpSegment)</text>
<text xml:space="preserve" text-anchor="start" x="323.25" y="-452.25" font-family="Times,serif" font-size="10.00">close()</text>
<text xml:space="preserve" text-anchor="start" x="323.25" y="-441" font-family="Times,serif" font-size="10.00">state()</text>
<text xml:space="preserve" text-anchor="start" x="381.75" y="-429.75" font-family="Times,serif" font-size="10.00"> &#160;&#160;&#160;&#160;&#160;&#160;&#160;&#160;&#160;&#160;&#160;&#160;&#160;&#160;&#160;</text>
<polygon fill="#00688b" stroke="#00688b" points="315.25,-478.5 315.25,-478.5 484.25,-478.5 484.25,-478.5 315.25,-478.5"/>
<path fill="none" stroke="#00688b" d="M327.25,-419.5C327.25,-419.5 472.25,-419.5 472.25,-419.5 478.25,-419.5 484.25,-425.5 484.25,-431.5 484.25,-431.5 484.25,-497 484.25,-497 484.25,-503 478.25,-509 472.25,-509 472.25,-509 327.25,-509 327.25,-509 321.25,-509 315.25,-503 315.25,-497 315.25,-497 315.25,-431.5 315.25,-431.5 315.25,-425.5 321.25,-419.5 327.25,-419.5"/>
</g>
<!-- SynSent&#45;&gt;Established -->
<g id="edge5" class="edge">
<title>SynSent&#45;&gt;Established</title>
<path fill="none" stroke="red" d="M407.77,-726.2C409.74,-720.15 411.47,-714 412.75,-708 429.56,-629.27 432.31,-606.52 419.75,-527 419.36,-524.56 418.9,-522.08 418.37,-519.59"/>
<polygon fill="red" stroke="red" points="421.83,-519.03 416.04,-510.16 415.04,-520.71 421.83,-519.03"/>
<text xml:space="preserve" text-anchor="middle" x="454.19" y="-612.45" font-family="Times,serif" font-size="14.00"> segment </text>
</g>
<!-- SynReceived&#45;&gt;Established -->
<g id="edge7" class="edge">
<title>SynReceived&#45;&gt;Established</title>
<path fill="none" stroke="red" d="M341.6,-561.9C350.12,-547.73 359.29,-532.5 367.76,-518.41"/>
<polygon fill="red" stroke="red" points="370.57,-520.54 372.73,-510.17 364.57,-516.93 370.57,-520.54"/>
<text xml:space="preserve" text-anchor="middle" x="389.03" y="-530.2" font-family="Times,serif" font-size="14.00"> segment </text>
</g>
<!-- FinWait1 -->
<g id="node8" class="node">
<title>FinWait1</title>
<path fill="azure" stroke="none" d="M548.25,-367C548.25,-367 403.25,-367 403.25,-367 397.25,-367 391.25,-361 391.25,-355 391.25,-355 391.25,-300.75 391.25,-300.75 391.25,-294.75 397.25,-288.75 403.25,-288.75 403.25,-288.75 548.25,-288.75 548.25,-288.75 554.25,-288.75 560.25,-294.75 560.25,-300.75 560.25,-300.75 560.25,-355 560.25,-355 560.25,-361 554.25,-367 548.25,-367"/>
<text xml:space="preserve" text-anchor="start" x="448.38" y="-346.7" font-family="Times,serif" font-weight="bold" font-size="14.00">FinWait1</text>
<text xml:space="preserve" text-anchor="start" x="399.25" y="-321.5" font-family="Times,serif" font-size="10.00">segment(seg: crate::tcp::TcpSegment)</text>
<text xml:space="preserve" text-anchor="start" x="399.25" y="-310.25" font-family="Times,serif" font-size="10.00">state()</text>
<text xml:space="preserve" text-anchor="start" x="457.75" y="-299" font-family="Times,serif" font-size="10.00"> &#160;&#160;&#160;&#160;&#160;&#160;&#160;&#160;&#160;&#160;&#160;&#160;&#160;&#160;&#160;</text>
<polygon fill="#00688b" stroke="#00688b" points="391.25,-336.5 391.25,-336.5 560.25,-336.5 560.25,-336.5 391.25,-336.5"/>
<path fill="none" stroke="#00688b" d="M403.25,-288.75C403.25,-288.75 548.25,-288.75 548.25,-288.75 554.25,-288.75 560.25,-294.75 560.25,-300.75 560.25,-300.75 560.25,-355 560.25,-355 560.25,-361 554.25,-367 548.25,-367 548.25,-367 403.25,-367 403.25,-367 397.25,-367 391.25,-361 391.25,-355 391.25,-355 391.25,-300.75 391.25,-300.75 391.25,-294.75 397.25,-288.75 403.25,-288.75"/>
</g>
<!-- Established&#45;&gt;FinWait1 -->
<g id="edge9" class="edge">
<title>Established&#45;&gt;FinWait1</title>
<path fill="none" stroke="red" d="M424.43,-419.62C432.17,-405.93 440.76,-390.75 448.66,-376.78"/>
<polygon fill="red" stroke="red" points="451.64,-378.61 453.52,-368.18 445.55,-375.16 451.64,-378.61"/>
<text xml:space="preserve" text-anchor="middle" x="459.93" y="-388.2" font-family="Times,serif" font-size="14.00"> close </text>
</g>
<!-- CloseWait -->
<g id="node12" class="node">
<title>CloseWait</title>
<path fill="azure" stroke="none" d="M294.75,-367C294.75,-367 242.75,-367 242.75,-367 236.75,-367 230.75,-361 230.75,-355 230.75,-355 230.75,-300.75 230.75,-300.75 230.75,-294.75 236.75,-288.75 242.75,-288.75 242.75,-288.75 294.75,-288.75 294.75,-288.75 300.75,-288.75 306.75,-294.75 306.75,-300.75 306.75,-300.75 306.75,-355 306.75,-355 306.75,-361 300.75,-367 294.75,-367"/>
<text xml:space="preserve" text-anchor="start" x="238.75" y="-346.7" font-family="Times,serif" font-weight="bold" font-size="14.00">CloseWait</text>
<text xml:space="preserve" text-anchor="start" x="238.75" y="-321.5" font-family="Times,serif" font-size="10.00">close()</text>
<text xml:space="preserve" text-anchor="start" x="238.75" y="-310.25" font-family="Times,serif" font-size="10.00">state()</text>
<text xml:space="preserve" text-anchor="start" x="238.75" y="-299" font-family="Times,serif" font-size="10.00"> &#160;&#160;&#160;&#160;&#160;&#160;&#160;&#160;&#160;&#160;&#160;&#160;&#160;&#160;&#160;</text>
<polygon fill="#00688b" stroke="#00688b" points="230.75,-336.5 230.75,-336.5 306.75,-336.5 306.75,-336.5 230.75,-336.5"/>
<path fill="none" stroke="#00688b" d="M242.75,-288.75C242.75,-288.75 294.75,-288.75 294.75,-288.75 300.75,-288.75 306.75,-294.75 306.75,-300.75 306.75,-300.75 306.75,-355 306.75,-355 306.75,-361 300.75,-367 294.75,-367 294.75,-367 242.75,-367 242.75,-367 236.75,-367 230.75,-361 230.75,-355 230.75,-355 230.75,-300.75 230.75,-300.75 230.75,-294.75 236.75,-288.75 242.75,-288.75"/>
</g>
<!-- Established&#45;&gt;CloseWait -->
<g id="edge8" class="edge">
<title>Established&#45;&gt;CloseWait</title>
<path fill="none" stroke="red" d="M357.22,-419.62C343.22,-405.27 327.63,-389.27 313.48,-374.75"/>
<polygon fill="red" stroke="red" points="316.33,-372.66 306.84,-367.94 311.31,-377.55 316.33,-372.66"/>
<text xml:space="preserve" text-anchor="middle" x="364.8" y="-388.2" font-family="Times,serif" font-size="14.00"> segment </text>
</g>
<!-- FinWait2 -->
<g id="node9" class="node">
<title>FinWait2</title>
<path fill="azure" stroke="none" d="M715.25,-236.25C715.25,-236.25 570.25,-236.25 570.25,-236.25 564.25,-236.25 558.25,-230.25 558.25,-224.25 558.25,-224.25 558.25,-170 558.25,-170 558.25,-164 564.25,-158 570.25,-158 570.25,-158 715.25,-158 715.25,-158 721.25,-158 727.25,-164 727.25,-170 727.25,-170 727.25,-224.25 727.25,-224.25 727.25,-230.25 721.25,-236.25 715.25,-236.25"/>
<text xml:space="preserve" text-anchor="start" x="615.38" y="-215.95" font-family="Times,serif" font-weight="bold" font-size="14.00">FinWait2</text>
<text xml:space="preserve" text-anchor="start" x="566.25" y="-190.75" font-family="Times,serif" font-size="10.00">segment(seg: crate::tcp::TcpSegment)</text>
<text xml:space="preserve" text-anchor="start" x="566.25" y="-179.5" font-family="Times,serif" font-size="10.00">state()</text>
<text xml:space="preserve" text-anchor="start" x="624.75" y="-168.25" font-family="Times,serif" font-size="10.00"> &#160;&#160;&#160;&#160;&#160;&#160;&#160;&#160;&#160;&#160;&#160;&#160;&#160;&#160;&#160;</text>
<polygon fill="#00688b" stroke="#00688b" points="558.25,-205.75 558.25,-205.75 727.25,-205.75 727.25,-205.75 558.25,-205.75"/>
<path fill="none" stroke="#00688b" d="M570.25,-158C570.25,-158 715.25,-158 715.25,-158 721.25,-158 727.25,-164 727.25,-170 727.25,-170 727.25,-224.25 727.25,-224.25 727.25,-230.25 721.25,-236.25 715.25,-236.25 715.25,-236.25 570.25,-236.25 570.25,-236.25 564.25,-236.25 558.25,-230.25 558.25,-224.25 558.25,-224.25 558.25,-170 558.25,-170 558.25,-164 564.25,-158 570.25,-158"/>
</g>
<!-- FinWait1&#45;&gt;FinWait2 -->
<g id="edge12" class="edge">
<title>FinWait1&#45;&gt;FinWait2</title>
<path fill="none" stroke="red" d="M524.95,-288.94C543.56,-274.6 564.91,-258.13 584.29,-243.2"/>
<polygon fill="red" stroke="red" points="586.34,-246.03 592.12,-237.16 582.07,-240.49 586.34,-246.03"/>
<text xml:space="preserve" text-anchor="middle" x="595.87" y="-257.45" font-family="Times,serif" font-size="14.00"> segment </text>
</g>
<!-- Closing -->
<g id="node10" class="node">
<title>Closing</title>
<path fill="azure" stroke="none" d="M438.25,-236.25C438.25,-236.25 293.25,-236.25 293.25,-236.25 287.25,-236.25 281.25,-230.25 281.25,-224.25 281.25,-224.25 281.25,-170 281.25,-170 281.25,-164 287.25,-158 293.25,-158 293.25,-158 438.25,-158 438.25,-158 444.25,-158 450.25,-164 450.25,-170 450.25,-170 450.25,-224.25 450.25,-224.25 450.25,-230.25 444.25,-236.25 438.25,-236.25"/>
<text xml:space="preserve" text-anchor="start" x="344" y="-215.95" font-family="Times,serif" font-weight="bold" font-size="14.00">Closing</text>
<text xml:space="preserve" text-anchor="start" x="289.25" y="-190.75" font-family="Times,serif" font-size="10.00">segment(seg: crate::tcp::TcpSegment)</text>
<text xml:space="preserve" text-anchor="start" x="289.25" y="-179.5" font-family="Times,serif" font-size="10.00">state()</text>
<text xml:space="preserve" text-anchor="start" x="347.75" y="-168.25" font-family="Times,serif" font-size="10.00"> &#160;&#160;&#160;&#160;&#160;&#160;&#160;&#160;&#160;&#160;&#160;&#160;&#160;&#160;&#160;</text>
<polygon fill="#00688b" stroke="#00688b" points="281.25,-205.75 281.25,-205.75 450.25,-205.75 450.25,-205.75 281.25,-205.75"/>
<path fill="none" stroke="#00688b" d="M293.25,-158C293.25,-158 438.25,-158 438.25,-158 444.25,-158 450.25,-164 450.25,-170 450.25,-170 450.25,-224.25 450.25,-224.25 450.25,-230.25 444.25,-236.25 438.25,-236.25 438.25,-236.25 293.25,-236.25 293.25,-236.25 287.25,-236.25 281.25,-230.25 281.25,-224.25 281.25,-224.25 281.25,-170 281.25,-170 281.25,-164 287.25,-158 293.25,-158"/>
</g>
<!-- FinWait1&#45;&gt;Closing -->
<g id="edge11" class="edge">
<title>FinWait1&#45;&gt;Closing</title>
<path fill="none" stroke="red" d="M443.34,-288.94C431.47,-275.05 417.91,-259.18 405.48,-244.62"/>
<polygon fill="red" stroke="red" points="408.45,-242.71 399.29,-237.38 403.13,-247.26 408.45,-242.71"/>
<text xml:space="preserve" text-anchor="middle" x="453.96" y="-257.45" font-family="Times,serif" font-size="14.00"> segment </text>
</g>
<!-- TimeWait -->
<g id="node11" class="node">
<title>TimeWait</title>
<path fill="azure" stroke="none" d="M481.38,-105.5C481.38,-105.5 430.12,-105.5 430.12,-105.5 424.12,-105.5 418.12,-99.5 418.12,-93.5 418.12,-93.5 418.12,-28 418.12,-28 418.12,-22 424.12,-16 430.12,-16 430.12,-16 481.38,-16 481.38,-16 487.38,-16 493.38,-22 493.38,-28 493.38,-28 493.38,-93.5 493.38,-93.5 493.38,-99.5 487.38,-105.5 481.38,-105.5"/>
<text xml:space="preserve" text-anchor="start" x="426.12" y="-85.2" font-family="Times,serif" font-weight="bold" font-size="14.00">TimeWait</text>
<text xml:space="preserve" text-anchor="start" x="426.12" y="-60" font-family="Times,serif" font-size="10.00">$&gt;()</text>
<text xml:space="preserve" text-anchor="start" x="426.12" y="-48.75" font-family="Times,serif" font-size="10.00">timeout()</text>
<text xml:space="preserve" text-anchor="start" x="426.12" y="-37.5" font-family="Times,serif" font-size="10.00">state()</text>
<text xml:space="preserve" text-anchor="start" x="426.88" y="-26.25" font-family="Times,serif" font-size="10.00"> &#160;&#160;&#160;&#160;&#160;&#160;&#160;&#160;&#160;&#160;&#160;&#160;&#160;&#160;&#160;</text>
<polygon fill="#00688b" stroke="#00688b" points="418.12,-75 418.12,-75 493.38,-75 493.38,-75 418.12,-75"/>
<path fill="none" stroke="#00688b" d="M430.12,-16C430.12,-16 481.38,-16 481.38,-16 487.38,-16 493.38,-22 493.38,-28 493.38,-28 493.38,-93.5 493.38,-93.5 493.38,-99.5 487.38,-105.5 481.38,-105.5 481.38,-105.5 430.12,-105.5 430.12,-105.5 424.12,-105.5 418.12,-99.5 418.12,-93.5 418.12,-93.5 418.12,-28 418.12,-28 418.12,-22 424.12,-16 430.12,-16"/>
</g>
<!-- FinWait1&#45;&gt;TimeWait -->
<g id="edge10" class="edge">
<title>FinWait1&#45;&gt;TimeWait</title>
<path fill="none" stroke="red" d="M480.37,-288.88C480.94,-282.82 481.44,-276.62 481.75,-270.75 484.53,-218.57 477.59,-165.57 470.75,-123.5 470.38,-121.2 469.96,-118.87 469.52,-116.51"/>
<polygon fill="red" stroke="red" points="472.99,-116.01 467.55,-106.92 466.13,-117.42 472.99,-116.01"/>
<text xml:space="preserve" text-anchor="middle" x="508.9" y="-192.07" font-family="Times,serif" font-size="14.00"> segment </text>
</g>
<!-- FinWait2&#45;&gt;TimeWait -->
<g id="edge13" class="edge">
<title>FinWait2&#45;&gt;TimeWait</title>
<path fill="none" stroke="red" d="M590.16,-158.34C562.53,-138.48 528.95,-114.35 502.27,-95.18"/>
<polygon fill="red" stroke="red" points="504.53,-92.49 494.37,-89.5 500.45,-98.18 504.53,-92.49"/>
<text xml:space="preserve" text-anchor="middle" x="587.07" y="-126.7" font-family="Times,serif" font-size="14.00"> segment </text>
</g>
<!-- Closing&#45;&gt;TimeWait -->
<g id="edge14" class="edge">
<title>Closing&#45;&gt;TimeWait</title>
<path fill="none" stroke="red" d="M391.06,-158.34C400.1,-144.84 410.46,-129.36 420.21,-114.82"/>
<polygon fill="red" stroke="red" points="423,-116.94 425.66,-106.68 417.19,-113.04 423,-116.94"/>
<text xml:space="preserve" text-anchor="middle" x="440.07" y="-126.7" font-family="Times,serif" font-size="14.00"> segment </text>
</g>
<!-- TimeWait&#45;&gt;Closed -->
<g id="edge15" class="edge">
<title>TimeWait&#45;&gt;Closed</title>
<path fill="none" stroke="red" d="M418.2,-66.11C318.15,-78.75 52.75,-119.51 52.75,-196.12 52.75,-465.25 52.75,-465.25 52.75,-465.25 52.75,-499.47 49.15,-537.87 45.6,-567.41"/>
<polygon fill="red" stroke="red" points="42.15,-566.82 44.39,-577.17 49.1,-567.68 42.15,-566.82"/>
<text xml:space="preserve" text-anchor="middle" x="77.5" y="-322.82" font-family="Times,serif" font-size="14.00"> timeout </text>
</g>
<!-- LastAck -->
<g id="node13" class="node">
<title>LastAck</title>
<path fill="azure" stroke="none" d="M251.25,-236.25C251.25,-236.25 106.25,-236.25 106.25,-236.25 100.25,-236.25 94.25,-230.25 94.25,-224.25 94.25,-224.25 94.25,-170 94.25,-170 94.25,-164 100.25,-158 106.25,-158 106.25,-158 251.25,-158 251.25,-158 257.25,-158 263.25,-164 263.25,-170 263.25,-170 263.25,-224.25 263.25,-224.25 263.25,-230.25 257.25,-236.25 251.25,-236.25"/>
<text xml:space="preserve" text-anchor="start" x="154.38" y="-215.95" font-family="Times,serif" font-weight="bold" font-size="14.00">LastAck</text>
<text xml:space="preserve" text-anchor="start" x="102.25" y="-190.75" font-family="Times,serif" font-size="10.00">segment(seg: crate::tcp::TcpSegment)</text>
<text xml:space="preserve" text-anchor="start" x="102.25" y="-179.5" font-family="Times,serif" font-size="10.00">state()</text>
<text xml:space="preserve" text-anchor="start" x="160.75" y="-168.25" font-family="Times,serif" font-size="10.00"> &#160;&#160;&#160;&#160;&#160;&#160;&#160;&#160;&#160;&#160;&#160;&#160;&#160;&#160;&#160;</text>
<polygon fill="#00688b" stroke="#00688b" points="94.25,-205.75 94.25,-205.75 263.25,-205.75 263.25,-205.75 94.25,-205.75"/>
<path fill="none" stroke="#00688b" d="M106.25,-158C106.25,-158 251.25,-158 251.25,-158 257.25,-158 263.25,-164 263.25,-170 263.25,-170 263.25,-224.25 263.25,-224.25 263.25,-230.25 257.25,-236.25 251.25,-236.25 251.25,-236.25 106.25,-236.25 106.25,-236.25 100.25,-236.25 94.25,-230.25 94.25,-224.25 94.25,-224.25 94.25,-170 94.25,-170 94.25,-164 100.25,-158 106.25,-158"/>
</g>
<!-- CloseWait&#45;&gt;LastAck -->
<g id="edge16" class="edge">
<title>CloseWait&#45;&gt;LastAck</title>
<path fill="none" stroke="red" d="M242.23,-288.94C232.71,-275.31 221.84,-259.77 211.82,-245.44"/>
<polygon fill="red" stroke="red" points="214.85,-243.66 206.25,-237.47 209.12,-247.67 214.85,-243.66"/>
<text xml:space="preserve" text-anchor="middle" x="246.76" y="-257.45" font-family="Times,serif" font-size="14.00"> close </text>
</g>
<!-- LastAck&#45;&gt;Closed -->
<g id="edge17" class="edge">
<title>LastAck&#45;&gt;Closed</title>
<path fill="none" stroke="red" d="M167.13,-236.16C147.47,-300.02 105.95,-432.67 66.75,-543.5 63.98,-551.33 60.94,-559.59 57.91,-567.62"/>
<polygon fill="red" stroke="red" points="54.64,-566.37 54.35,-576.96 61.18,-568.86 54.64,-566.37"/>
<text xml:space="preserve" text-anchor="middle" x="145.94" y="-388.2" font-family="Times,serif" font-size="14.00"> segment </text>
</g>
</g>
</svg>
