<?xml version="1.0" encoding="UTF-8" standalone="no"?>
<!DOCTYPE svg PUBLIC "-//W3C//DTD SVG 1.1//EN"
 "http://www.w3.org/Graphics/SVG/1.1/DTD/svg11.dtd">
<!-- Generated by graphviz version 2.43.0 (0)
 -->
<!-- Title: TcpConnection Pages: 1 -->
<svg width="905pt" height="898pt"
 viewBox="0.00 0.00 904.50 898.00" xmlns="http://www.w3.org/2000/svg" xmlns:xlink="http://www.w3.org/1999/xlink">
<g id="graph0" class="graph" transform="scale(1 1) rotate(0) translate(4 894)">
<title>TcpConnection</title>
<polygon fill="white" stroke="transparent" points="-4,4 -4,-894 900.5,-894 900.5,4 -4,4"/>
<g id="clust1" class="cluster">
<title>cluster_Open</title>
<path fill="none" stroke="black" d="M112.5,-8C112.5,-8 876.5,-8 876.5,-8 882.5,-8 888.5,-14 888.5,-20 888.5,-20 888.5,-870 888.5,-870 888.5,-876 882.5,-882 876.5,-882 876.5,-882 112.5,-882 112.5,-882 106.5,-882 100.5,-876 100.5,-870 100.5,-870 100.5,-20 100.5,-20 100.5,-14 106.5,-8 112.5,-8"/>
<text text-anchor="start" x="476" y="-862.3" font-family="Times,serif" font-size="14.00">Open</text>
<text text-anchor="start" x="470.5" y="-844.5" font-family="Times,serif" font-size="10.00">rst()</text>
<text text-anchor="start" x="470.5" y="-833.5" font-family="Times,serif" font-size="10.00"> &#160;&#160;&#160;&#160;&#160;&#160;&#160;&#160;&#160;&#160;&#160;&#160;&#160;&#160;&#160;</text>
<polygon fill="black" stroke="black" points="466.5,-855.5 466.5,-855.5 523.5,-855.5 523.5,-855.5 466.5,-855.5"/>
</g>
<!-- Entry -->
<g id="node1" class="node">
<title>Entry</title>
<ellipse fill="black" stroke="#00688b" cx="24.5" cy="-760.5" rx="7" ry="7"/>
</g>
<!-- Closed -->
<g id="node2" class="node">
<title>Closed</title>
<path fill="azure" stroke="transparent" d="M81,-638.5C81,-638.5 12,-638.5 12,-638.5 6,-638.5 0,-632.5 0,-626.5 0,-626.5 0,-574.5 0,-574.5 0,-568.5 6,-562.5 12,-562.5 12,-562.5 81,-562.5 81,-562.5 87,-562.5 93,-568.5 93,-574.5 93,-574.5 93,-626.5 93,-626.5 93,-632.5 87,-638.5 81,-638.5"/>
<text text-anchor="start" x="20.5" y="-620.3" font-family="Times,serif" font-weight="bold" font-size="14.00">Closed</text>
<text text-anchor="start" x="8.5" y="-595.5" font-family="Times,serif" font-size="10.00">open_passive()</text>
<text text-anchor="start" x="8.5" y="-584.5" font-family="Times,serif" font-size="10.00">open_active()</text>
<text text-anchor="start" x="28.5" y="-573.5" font-family="Times,serif" font-size="10.00"> &#160;&#160;&#160;&#160;&#160;&#160;&#160;&#160;&#160;&#160;&#160;</text>
<polygon fill="#00688b" stroke="#00688b" points="0.5,-609.5 0.5,-609.5 93.5,-609.5 93.5,-609.5 0.5,-609.5"/>
<path fill="none" stroke="#00688b" d="M12,-562.5C12,-562.5 81,-562.5 81,-562.5 87,-562.5 93,-568.5 93,-574.5 93,-574.5 93,-626.5 93,-626.5 93,-632.5 87,-638.5 81,-638.5 81,-638.5 12,-638.5 12,-638.5 6,-638.5 0,-632.5 0,-626.5 0,-626.5 0,-574.5 0,-574.5 0,-568.5 6,-562.5 12,-562.5"/>
</g>
<!-- Entry&#45;&gt;Closed -->
<g id="edge1" class="edge">
<title>Entry&#45;&gt;Closed</title>
<path fill="none" stroke="red" d="M25.34,-753.5C27.7,-736.55 34.58,-687.07 39.87,-649.13"/>
<polygon fill="red" stroke="red" points="43.4,-649.15 41.31,-638.77 36.47,-648.19 43.4,-649.15"/>
</g>
<!-- Listen -->
<g id="node4" class="node">
<title>Listen</title>
<path fill="azure" stroke="transparent" d="M324,-798.5C324,-798.5 139,-798.5 139,-798.5 133,-798.5 127,-792.5 127,-786.5 127,-786.5 127,-734.5 127,-734.5 127,-728.5 133,-722.5 139,-722.5 139,-722.5 324,-722.5 324,-722.5 330,-722.5 336,-728.5 336,-734.5 336,-734.5 336,-786.5 336,-786.5 336,-792.5 330,-798.5 324,-798.5"/>
<text text-anchor="start" x="207" y="-780.3" font-family="Times,serif" font-weight="bold" font-size="14.00">Listen</text>
<text text-anchor="start" x="135.5" y="-755.5" font-family="Times,serif" font-size="10.00">segment(seg: crate::tcp::TcpSegment)</text>
<text text-anchor="start" x="135.5" y="-744.5" font-family="Times,serif" font-size="10.00">state()</text>
<text text-anchor="start" x="207.5" y="-733.5" font-family="Times,serif" font-size="10.00"> &#160;&#160;&#160;&#160;&#160;&#160;&#160;&#160;&#160;&#160;&#160;&#160;&#160;&#160;&#160;</text>
<polygon fill="#00688b" stroke="#00688b" points="127.5,-769.5 127.5,-769.5 336.5,-769.5 336.5,-769.5 127.5,-769.5"/>
<path fill="none" stroke="#00688b" d="M139,-722.5C139,-722.5 324,-722.5 324,-722.5 330,-722.5 336,-728.5 336,-734.5 336,-734.5 336,-786.5 336,-786.5 336,-792.5 330,-798.5 324,-798.5 324,-798.5 139,-798.5 139,-798.5 133,-798.5 127,-792.5 127,-786.5 127,-786.5 127,-734.5 127,-734.5 127,-728.5 133,-722.5 139,-722.5"/>
</g>
<!-- Closed&#45;&gt;Listen -->
<g id="edge2" class="edge">
<title>Closed&#45;&gt;Listen</title>
<path fill="none" stroke="red" d="M69.61,-638.61C80.94,-654.97 95.57,-673.69 111.5,-688 123.23,-698.54 136.74,-708.33 150.37,-717.08"/>
<polygon fill="red" stroke="red" points="148.52,-720.06 158.86,-722.39 152.24,-714.12 148.52,-720.06"/>
<text text-anchor="middle" x="163.5" y="-676.8" font-family="Times,serif" font-size="14.00"> open_passive </text>
</g>
<!-- SynSent -->
<g id="node5" class="node">
<title>SynSent</title>
<path fill="azure" stroke="transparent" d="M551,-815C551,-815 366,-815 366,-815 360,-815 354,-809 354,-803 354,-803 354,-718 354,-718 354,-712 360,-706 366,-706 366,-706 551,-706 551,-706 557,-706 563,-712 563,-718 563,-718 563,-803 563,-803 563,-809 557,-815 551,-815"/>
<text text-anchor="start" x="426.5" y="-796.3" font-family="Times,serif" font-weight="bold" font-size="14.00">SynSent</text>
<text text-anchor="start" x="362.5" y="-771.5" font-family="Times,serif" font-size="10.00">$&gt;()</text>
<text text-anchor="start" x="362.5" y="-760.5" font-family="Times,serif" font-size="10.00">&lt;$()</text>
<text text-anchor="start" x="362.5" y="-749.5" font-family="Times,serif" font-size="10.00">segment(seg: crate::tcp::TcpSegment)</text>
<text text-anchor="start" x="362.5" y="-738.5" font-family="Times,serif" font-size="10.00">timeout()</text>
<text text-anchor="start" x="362.5" y="-727.5" font-family="Times,serif" font-size="10.00">state()</text>
<text text-anchor="start" x="434.5" y="-716.5" font-family="Times,serif" font-size="10.00"> &#160;&#160;&#160;&#160;&#160;&#160;&#160;&#160;&#160;&#160;&#160;&#160;&#160;&#160;&#160;</text>
<polygon fill="#00688b" stroke="#00688b" points="354.5,-785.5 354.5,-785.5 563.5,-785.5 563.5,-785.5 354.5,-785.5"/>
<path fill="none" stroke="#00688b" d="M366,-706C366,-706 551,-706 551,-706 557,-706 563,-712 563,-718 563,-718 563,-803 563,-803 563,-809 557,-815 551,-815 551,-815 366,-815 366,-815 360,-815 354,-809 354,-803 354,-803 354,-718 354,-718 354,-712 360,-706 366,-706"/>
</g>
<!-- Closed&#45;&gt;SynSent -->
<g id="edge3" class="edge">
<title>Closed&#45;&gt;SynSent</title>
<path fill="none" stroke="red" d="M74.86,-638.62C81.32,-644.97 88.63,-650.85 96.5,-655 143.83,-679.92 166.43,-651.72 215.5,-673 225.37,-677.28 224.65,-683.67 234.5,-688 277.48,-706.91 295.55,-693.08 344.15,-705.94"/>
<polygon fill="red" stroke="red" points="343.36,-709.35 353.94,-708.77 345.31,-702.63 343.36,-709.35"/>
<text text-anchor="middle" x="281.5" y="-676.8" font-family="Times,serif" font-size="14.00"> open_active </text>
</g>
<!-- Open -->
<g id="node3" class="node">
<title>Open</title>
<ellipse fill="azure" stroke="#00688b" cx="108.5" cy="-760.5" rx="0" ry="0"/>
</g>
<!-- Open&#45;&gt;Closed -->
<g id="edge18" class="edge">
<title>Open&#45;&gt;Closed</title>
<path fill="none" stroke="red" d="M100.5,-751.02C89.1,-738.38 68.45,-713.36 58.5,-688 53.69,-675.75 50.76,-661.86 49,-648.86"/>
<polygon fill="red" stroke="red" points="52.44,-648.19 47.81,-638.66 45.49,-649 52.44,-648.19"/>
<text text-anchor="middle" x="73.5" y="-676.8" font-family="Times,serif" font-size="14.00"> rst </text>
</g>
<!-- SynReceived -->
<g id="node6" class="node">
<title>SynReceived</title>
<path fill="azure" stroke="transparent" d="M477,-655C477,-655 292,-655 292,-655 286,-655 280,-649 280,-643 280,-643 280,-558 280,-558 280,-552 286,-546 292,-546 292,-546 477,-546 477,-546 483,-546 489,-552 489,-558 489,-558 489,-643 489,-643 489,-649 483,-655 477,-655"/>
<text text-anchor="start" x="335" y="-636.3" font-family="Times,serif" font-weight="bold" font-size="14.00">SynReceived</text>
<text text-anchor="start" x="288.5" y="-611.5" font-family="Times,serif" font-size="10.00">$&gt;()</text>
<text text-anchor="start" x="288.5" y="-600.5" font-family="Times,serif" font-size="10.00">&lt;$()</text>
<text text-anchor="start" x="288.5" y="-589.5" font-family="Times,serif" font-size="10.00">segment(seg: crate::tcp::TcpSegment)</text>
<text text-anchor="start" x="288.5" y="-578.5" font-family="Times,serif" font-size="10.00">timeout()</text>
<text text-anchor="start" x="288.5" y="-567.5" font-family="Times,serif" font-size="10.00">state()</text>
<text text-anchor="start" x="360.5" y="-556.5" font-family="Times,serif" font-size="10.00"> &#160;&#160;&#160;&#160;&#160;&#160;&#160;&#160;&#160;&#160;&#160;&#160;&#160;&#160;&#160;</text>
<polygon fill="#00688b" stroke="#00688b" points="280.5,-625.5 280.5,-625.5 489.5,-625.5 489.5,-625.5 280.5,-625.5"/>
<path fill="none" stroke="#00688b" d="M292,-546C292,-546 477,-546 477,-546 483,-546 489,-552 489,-558 489,-558 489,-643 489,-643 489,-649 483,-655 477,-655 477,-655 292,-655 292,-655 286,-655 280,-649 280,-643 280,-643 280,-558 280,-558 280,-552 286,-546 292,-546"/>
</g>
<!-- Listen&#45;&gt;SynReceived -->
<g id="edge4" class="edge">
<title>Listen&#45;&gt;SynReceived</title>
<path fill="none" stroke="red" d="M292.5,-722.45C306.56,-712.31 320.81,-700.6 332.5,-688 339.29,-680.68 345.64,-672.33 351.4,-663.77"/>
<polygon fill="red" stroke="red" points="354.47,-665.47 356.96,-655.18 348.59,-661.67 354.47,-665.47"/>
<text text-anchor="middle" x="380" y="-676.8" font-family="Times,serif" font-size="14.00"> segment </text>
</g>
<!-- SynSent&#45;&gt;SynReceived -->
<g id="edge6" class="edge">
<title>SynSent&#45;&gt;SynReceived</title>
<path fill="none" stroke="red" d="M440.32,-705.82C436.13,-694.82 431.44,-683.42 426.5,-673 425.11,-670.07 423.64,-667.11 422.12,-664.14"/>
<polygon fill="red" stroke="red" points="425.17,-662.42 417.41,-655.22 418.99,-665.7 425.17,-662.42"/>
<text text-anchor="middle" x="468" y="-676.8" font-family="Times,serif" font-size="14.00"> segment </text>
</g>
<!-- Established -->
<g id="node7" class="node">
<title>Established</title>
<path fill="azure" stroke="transparent" d="M502,-495C502,-495 317,-495 317,-495 311,-495 305,-489 305,-483 305,-483 305,-420 305,-420 305,-414 311,-408 317,-408 317,-408 502,-408 502,-408 508,-408 514,-414 514,-420 514,-420 514,-483 514,-483 514,-489 508,-495 502,-495"/>
<text text-anchor="start" x="363.5" y="-476.3" font-family="Times,serif" font-weight="bold" font-size="14.00">Established</text>
<text text-anchor="start" x="313.5" y="-451.5" font-family="Times,serif" font-size="10.00">segment(seg: crate::tcp::TcpSegment)</text>
<text text-anchor="start" x="313.5" y="-440.5" font-family="Times,serif" font-size="10.00">close()</text>
<text text-anchor="start" x="313.5" y="-429.5" font-family="Times,serif" font-size="10.00">state()</text>
<text text-anchor="start" x="385.5" y="-418.5" font-family="Times,serif" font-size="10.00"> &#160;&#160;&#160;&#160;&#160;&#160;&#160;&#160;&#160;&#160;&#160;&#160;&#160;&#160;&#160;</text>
<polygon fill="#00688b" stroke="#00688b" points="305.5,-465.5 305.5,-465.5 514.5,-465.5 514.5,-465.5 305.5,-465.5"/>
<path fill="none" stroke="#00688b" d="M317,-408C317,-408 502,-408 502,-408 508,-408 514,-414 514,-420 514,-420 514,-483 514,-483 514,-489 508,-495 502,-495 502,-495 317,-495 317,-495 311,-495 305,-489 305,-483 305,-483 305,-420 305,-420 305,-414 311,-408 317,-408"/>
</g>
<!-- SynSent&#45;&gt;Established -->
<g id="edge5" class="edge">
<title>SynSent&#45;&gt;Established</title>
<path fill="none" stroke="red" d="M500.06,-705.8C503.05,-700.02 505.63,-694.04 507.5,-688 517.76,-654.88 573.12,-738.94 498.5,-546 492.35,-530.1 482,-515.39 470.48,-502.57"/>
<polygon fill="red" stroke="red" points="472.99,-500.14 463.59,-495.25 467.89,-504.93 472.99,-500.14"/>
<text text-anchor="middle" x="570" y="-596.8" font-family="Times,serif" font-size="14.00"> segment </text>
</g>
<!-- SynReceived&#45;&gt;Established -->
<g id="edge7" class="edge">
<title>SynReceived&#45;&gt;Established</title>
<path fill="none" stroke="red" d="M393.67,-545.6C395.89,-532.54 398.26,-518.59 400.48,-505.56"/>
<polygon fill="red" stroke="red" points="403.99,-505.8 402.21,-495.35 397.08,-504.63 403.99,-505.8"/>
<text text-anchor="middle" x="433" y="-516.8" font-family="Times,serif" font-size="14.00"> segment </text>
</g>
<!-- FinWait1 -->
<g id="node8" class="node">
<title>FinWait1</title>
<path fill="azure" stroke="transparent" d="M588,-357C588,-357 403,-357 403,-357 397,-357 391,-351 391,-345 391,-345 391,-293 391,-293 391,-287 397,-281 403,-281 403,-281 588,-281 588,-281 594,-281 600,-287 600,-293 600,-293 600,-345 600,-345 600,-351 594,-357 588,-357"/>
<text text-anchor="start" x="460.5" y="-338.8" font-family="Times,serif" font-weight="bold" font-size="14.00">FinWait1</text>
<text text-anchor="start" x="399.5" y="-314" font-family="Times,serif" font-size="10.00">segment(seg: crate::tcp::TcpSegment)</text>
<text text-anchor="start" x="399.5" y="-303" font-family="Times,serif" font-size="10.00">state()</text>
<text text-anchor="start" x="471.5" y="-292" font-family="Times,serif" font-size="10.00"> &#160;&#160;&#160;&#160;&#160;&#160;&#160;&#160;&#160;&#160;&#160;&#160;&#160;&#160;&#160;</text>
<polygon fill="#00688b" stroke="#00688b" points="391.5,-328 391.5,-328 600.5,-328 600.5,-328 391.5,-328"/>
<path fill="none" stroke="#00688b" d="M403,-281C403,-281 588,-281 588,-281 594,-281 600,-287 600,-293 600,-293 600,-345 600,-345 600,-351 594,-357 588,-357 588,-357 403,-357 403,-357 397,-357 391,-351 391,-345 391,-345 391,-293 391,-293 391,-287 397,-281 403,-281"/>
</g>
<!-- Established&#45;&gt;FinWait1 -->
<g id="edge9" class="edge">
<title>Established&#45;&gt;FinWait1</title>
<path fill="none" stroke="red" d="M437.66,-407.77C446.58,-394.23 456.48,-379.21 465.53,-365.48"/>
<polygon fill="red" stroke="red" points="468.46,-367.4 471.04,-357.12 462.61,-363.55 468.46,-367.4"/>
<text text-anchor="middle" x="480.5" y="-378.8" font-family="Times,serif" font-size="14.00"> close </text>
</g>
<!-- CloseWait -->
<g id="node12" class="node">
<title>CloseWait</title>
<path fill="azure" stroke="transparent" d="M310,-357C310,-357 239,-357 239,-357 233,-357 227,-351 227,-345 227,-345 227,-293 227,-293 227,-287 233,-281 239,-281 239,-281 310,-281 310,-281 316,-281 322,-287 322,-293 322,-293 322,-345 322,-345 322,-351 316,-357 310,-357"/>
<text text-anchor="start" x="235.5" y="-338.8" font-family="Times,serif" font-weight="bold" font-size="14.00">CloseWait</text>
<text text-anchor="start" x="235.5" y="-314" font-family="Times,serif" font-size="10.00">close()</text>
<text text-anchor="start" x="235.5" y="-303" font-family="Times,serif" font-size="10.00">state()</text>
<text text-anchor="start" x="235.5" y="-292" font-family="Times,serif" font-size="10.00"> &#160;&#160;&#160;&#160;&#160;&#160;&#160;&#160;&#160;&#160;&#160;&#160;&#160;&#160;&#160;</text>
<polygon fill="#00688b" stroke="#00688b" points="227.5,-328 227.5,-328 322.5,-328 322.5,-328 227.5,-328"/>
<path fill="none" stroke="#00688b" d="M239,-281C239,-281 310,-281 310,-281 316,-281 322,-287 322,-293 322,-293 322,-345 322,-345 322,-351 316,-357 310,-357 310,-357 239,-357 239,-357 233,-357 227,-351 227,-345 227,-345 227,-293 227,-293 227,-287 233,-281 239,-281"/>
</g>
<!-- Established&#45;&gt;CloseWait -->
<g id="edge8" class="edge">
<title>Established&#45;&gt;CloseWait</title>
<path fill="none" stroke="red" d="M365.3,-407.77C350.89,-393.84 334.87,-378.36 320.35,-364.32"/>
<polygon fill="red" stroke="red" points="322.53,-361.56 312.9,-357.12 317.66,-366.59 322.53,-361.56"/>
<text text-anchor="middle" x="381" y="-378.8" font-family="Times,serif" font-size="14.00"> segment </text>
</g>
<!-- FinWait2 -->
<g id="node9" class="node">
<title>FinWait2</title>
<path fill="azure" stroke="transparent" d="M641,-230C641,-230 456,-230 456,-230 450,-230 444,-224 444,-218 444,-218 444,-166 444,-166 444,-160 450,-154 456,-154 456,-154 641,-154 641,-154 647,-154 653,-160 653,-166 653,-166 653,-218 653,-218 653,-224 647,-230 641,-230"/>
<text text-anchor="start" x="513.5" y="-211.8" font-family="Times,serif" font-weight="bold" font-size="14.00">FinWait2</text>
<text text-anchor="start" x="452.5" y="-187" font-family="Times,serif" font-size="10.00">segment(seg: crate::tcp::TcpSegment)</text>
<text text-anchor="start" x="452.5" y="-176" font-family="Times,serif" font-size="10.00">state()</text>
<text text-anchor="start" x="524.5" y="-165" font-family="Times,serif" font-size="10.00"> &#160;&#160;&#160;&#160;&#160;&#160;&#160;&#160;&#160;&#160;&#160;&#160;&#160;&#160;&#160;</text>
<polygon fill="#00688b" stroke="#00688b" points="444.5,-201 444.5,-201 653.5,-201 653.5,-201 444.5,-201"/>
<path fill="none" stroke="#00688b" d="M456,-154C456,-154 641,-154 641,-154 647,-154 653,-160 653,-166 653,-166 653,-218 653,-218 653,-224 647,-230 641,-230 641,-230 456,-230 456,-230 450,-230 444,-224 444,-218 444,-218 444,-166 444,-166 444,-160 450,-154 456,-154"/>
</g>
<!-- FinWait1&#45;&gt;FinWait2 -->
<g id="edge12" class="edge">
<title>FinWait1&#45;&gt;FinWait2</title>
<path fill="none" stroke="red" d="M511.26,-280.83C516.76,-267.85 523.01,-253.12 528.79,-239.47"/>
<polygon fill="red" stroke="red" points="532.03,-240.81 532.71,-230.24 525.58,-238.08 532.03,-240.81"/>
<text text-anchor="middle" x="560" y="-251.8" font-family="Times,serif" font-size="14.00"> segment </text>
</g>
<!-- Closing -->
<g id="node10" class="node">
<title>Closing</title>
<path fill="azure" stroke="transparent" d="M868,-230C868,-230 683,-230 683,-230 677,-230 671,-224 671,-218 671,-218 671,-166 671,-166 671,-160 677,-154 683,-154 683,-154 868,-154 868,-154 874,-154 880,-160 880,-166 880,-166 880,-218 880,-218 880,-224 874,-230 868,-230"/>
<text text-anchor="start" x="746" y="-211.8" font-family="Times,serif" font-weight="bold" font-size="14.00">Closing</text>
<text text-anchor="start" x="679.5" y="-187" font-family="Times,serif" font-size="10.00">segment(seg: crate::tcp::TcpSegment)</text>
<text text-anchor="start" x="679.5" y="-176" font-family="Times,serif" font-size="10.00">state()</text>
<text text-anchor="start" x="751.5" y="-165" font-family="Times,serif" font-size="10.00"> &#160;&#160;&#160;&#160;&#160;&#160;&#160;&#160;&#160;&#160;&#160;&#160;&#160;&#160;&#160;</text>
<polygon fill="#00688b" stroke="#00688b" points="671.5,-201 671.5,-201 880.5,-201 880.5,-201 671.5,-201"/>
<path fill="none" stroke="#00688b" d="M683,-154C683,-154 868,-154 868,-154 874,-154 880,-160 880,-166 880,-166 880,-218 880,-218 880,-224 874,-230 868,-230 868,-230 683,-230 683,-230 677,-230 671,-224 671,-218 671,-218 671,-166 671,-166 671,-160 677,-154 683,-154"/>
</g>
<!-- FinWait1&#45;&gt;Closing -->
<g id="edge11" class="edge">
<title>FinWait1&#45;&gt;Closing</title>
<path fill="none" stroke="red" d="M578.75,-280.83C611.61,-266.17 649.49,-249.25 683.18,-234.21"/>
<polygon fill="red" stroke="red" points="684.87,-237.3 692.57,-230.02 682.01,-230.9 684.87,-237.3"/>
<text text-anchor="middle" x="687" y="-251.8" font-family="Times,serif" font-size="14.00"> segment </text>
</g>
<!-- TimeWait -->
<g id="node11" class="node">
<title>TimeWait</title>
<path fill="azure" stroke="transparent" d="M443.5,-103C443.5,-103 375.5,-103 375.5,-103 369.5,-103 363.5,-97 363.5,-91 363.5,-91 363.5,-28 363.5,-28 363.5,-22 369.5,-16 375.5,-16 375.5,-16 443.5,-16 443.5,-16 449.5,-16 455.5,-22 455.5,-28 455.5,-28 455.5,-91 455.5,-91 455.5,-97 449.5,-103 443.5,-103"/>
<text text-anchor="start" x="371.5" y="-84.3" font-family="Times,serif" font-weight="bold" font-size="14.00">TimeWait</text>
<text text-anchor="start" x="371.5" y="-59.5" font-family="Times,serif" font-size="10.00">$&gt;()</text>
<text text-anchor="start" x="371.5" y="-48.5" font-family="Times,serif" font-size="10.00">timeout()</text>
<text text-anchor="start" x="371.5" y="-37.5" font-family="Times,serif" font-size="10.00">state()</text>
<text text-anchor="start" x="371.5" y="-26.5" font-family="Times,serif" font-size="10.00"> &#160;&#160;&#160;&#160;&#160;&#160;&#160;&#160;&#160;&#160;&#160;&#160;&#160;&#160;&#160;</text>
<polygon fill="#00688b" stroke="#00688b" points="363.5,-73.5 363.5,-73.5 455.5,-73.5 455.5,-73.5 363.5,-73.5"/>
<path fill="none" stroke="#00688b" d="M375.5,-16C375.5,-16 443.5,-16 443.5,-16 449.5,-16 455.5,-22 455.5,-28 455.5,-28 455.5,-91 455.5,-91 455.5,-97 449.5,-103 443.5,-103 443.5,-103 375.5,-103 375.5,-103 369.5,-103 363.5,-97 363.5,-91 363.5,-91 363.5,-28 363.5,-28 363.5,-22 369.5,-16 375.5,-16"/>
</g>
<!-- FinWait1&#45;&gt;TimeWait -->
<g id="edge10" class="edge">
<title>FinWait1&#45;&gt;TimeWait</title>
<path fill="none" stroke="red" d="M413.92,-280.86C394.22,-267.74 375.65,-250.91 364.5,-230 344.85,-193.13 359.2,-147.08 376.74,-112.28"/>
<polygon fill="red" stroke="red" points="379.94,-113.72 381.5,-103.24 373.75,-110.46 379.94,-113.72"/>
<text text-anchor="middle" x="400" y="-188.3" font-family="Times,serif" font-size="14.00"> segment </text>
</g>
<!-- FinWait2&#45;&gt;TimeWait -->
<g id="edge13" class="edge">
<title>FinWait2&#45;&gt;TimeWait</title>
<path fill="none" stroke="red" d="M509.04,-153.95C494.56,-140.35 477.91,-124.73 462.44,-110.2"/>
<polygon fill="red" stroke="red" points="464.63,-107.46 454.95,-103.17 459.84,-112.56 464.63,-107.46"/>
<text text-anchor="middle" x="522" y="-124.8" font-family="Times,serif" font-size="14.00"> segment </text>
</g>
<!-- Closing&#45;&gt;TimeWait -->
<g id="edge14" class="edge">
<title>Closing&#45;&gt;TimeWait</title>
<path fill="none" stroke="red" d="M671.6,-153.95C604.61,-130.07 520.11,-99.94 465.46,-80.45"/>
<polygon fill="red" stroke="red" points="466.54,-77.12 455.95,-77.06 464.19,-83.72 466.54,-77.12"/>
<text text-anchor="middle" x="649" y="-124.8" font-family="Times,serif" font-size="14.00"> segment </text>
</g>
<!-- TimeWait&#45;&gt;Closed -->
<g id="edge15" class="edge">
<title>TimeWait&#45;&gt;Closed</title>
<path fill="none" stroke="red" d="M363.2,-67.96C268.91,-84.46 63.5,-127.68 63.5,-191 63.5,-452.5 63.5,-452.5 63.5,-452.5 63.5,-486.02 59.08,-523.56 54.75,-552.31"/>
<polygon fill="red" stroke="red" points="51.25,-552.06 53.17,-562.48 58.17,-553.14 51.25,-552.06"/>
<text text-anchor="middle" x="96" y="-315.3" font-family="Times,serif" font-size="14.00"> timeout </text>
</g>
<!-- LastAck -->
<g id="node13" class="node">
<title>LastAck</title>
<path fill="azure" stroke="transparent" d="M306,-230C306,-230 121,-230 121,-230 115,-230 109,-224 109,-218 109,-218 109,-166 109,-166 109,-160 115,-154 121,-154 121,-154 306,-154 306,-154 312,-154 318,-160 318,-166 318,-166 318,-218 318,-218 318,-224 312,-230 306,-230"/>
<text text-anchor="start" x="182.5" y="-211.8" font-family="Times,serif" font-weight="bold" font-size="14.00">LastAck</text>
<text text-anchor="start" x="117.5" y="-187" font-family="Times,serif" font-size="10.00">segment(seg: crate::tcp::TcpSegment)</text>
<text text-anchor="start" x="117.5" y="-176" font-family="Times,serif" font-size="10.00">state()</text>
<text text-anchor="start" x="189.5" y="-165" font-family="Times,serif" font-size="10.00"> &#160;&#160;&#160;&#160;&#160;&#160;&#160;&#160;&#160;&#160;&#160;&#160;&#160;&#160;&#160;</text>
<polygon fill="#00688b" stroke="#00688b" points="109.5,-201 109.5,-201 318.5,-201 318.5,-201 109.5,-201"/>
<path fill="none" stroke="#00688b" d="M121,-154C121,-154 306,-154 306,-154 312,-154 318,-160 318,-166 318,-166 318,-218 318,-218 318,-224 312,-230 306,-230 306,-230 121,-230 121,-230 115,-230 109,-224 109,-218 109,-218 109,-166 109,-166 109,-160 115,-154 121,-154"/>
</g>
<!-- CloseWait&#45;&gt;LastAck -->
<g id="edge16" class="edge">
<title>CloseWait&#45;&gt;LastAck</title>
<path fill="none" stroke="red" d="M256.36,-280.83C250.03,-267.85 242.84,-253.12 236.18,-239.47"/>
<polygon fill="red" stroke="red" points="239.2,-237.69 231.67,-230.24 232.91,-240.76 239.2,-237.69"/>
<text text-anchor="middle" x="270.5" y="-251.8" font-family="Times,serif" font-size="14.00"> close </text>
</g>
<!-- LastAck&#45;&gt;Closed -->
<g id="edge17" class="edge">
<title>LastAck&#45;&gt;Closed</title>
<path fill="none" stroke="red" d="M198.69,-230.3C174,-292.28 122.68,-420.35 77.5,-528 74.08,-536.16 70.38,-544.81 66.77,-553.18"/>
<polygon fill="red" stroke="red" points="63.51,-551.89 62.76,-562.46 69.94,-554.67 63.51,-551.89"/>
<text text-anchor="middle" x="175" y="-378.8" font-family="Times,serif" font-size="14.00"> segment </text>
</g>
</g>
</svg>
