<?xml version="1.0" encoding="UTF-8" standalone="no"?>
<!DOCTYPE svg PUBLIC "-//W3C//DTD SVG 1.1//EN"
 "http://www.w3.org/Graphics/SVG/1.1/DTD/svg11.dtd">
<!-- Generated by graphviz version 2.43.0 (0)
 -->
<!-- Title: UdpSocket Pages: 1 -->
<svg width="111pt" height="262pt"
 viewBox="0.00 0.00 110.50 262.00" xmlns="http://www.w3.org/2000/svg" xmlns:xlink="http://www.w3.org/1999/xlink">
<g id="graph0" class="graph" transform="scale(1 1) rotate(0) translate(4 258)">
<title>UdpSocket</title>
<polygon fill="white" stroke="transparent" points="-4,4 -4,-258 106.5,-258 106.5,4 -4,4"/>
<!-- Entry -->
<g id="node1" class="node">
<title>Entry</title>
<ellipse fill="black" stroke="#00688b" cx="46.5" cy="-247" rx="7" ry="7"/>
</g>
<!-- Unbound -->
<g id="node2" class="node">
<title>Unbound</title>
<path fill="azure" stroke="transparent" d="M81,-203C81,-203 12,-203 12,-203 6,-203 0,-197 0,-191 0,-191 0,-150 0,-150 0,-144 6,-138 12,-138 12,-138 81,-138 81,-138 87,-138 93,-144 93,-150 93,-150 93,-191 93,-191 93,-197 87,-203 81,-203"/>
<text text-anchor="start" x="10.5" y="-184.3" font-family="Times,serif" font-weight="bold" font-size="14.00">Unbound</text>
<text text-anchor="start" x="8.5" y="-159.5" font-family="Times,serif" font-size="10.00">bind(port: u16)</text>
<text text-anchor="start" x="28.5" y="-148.5" font-family="Times,serif" font-size="10.00"> &#160;&#160;&#160;&#160;&#160;&#160;&#160;&#160;&#160;&#160;&#160;</text>
<polygon fill="#00688b" stroke="#00688b" points="0.5,-173.5 0.5,-173.5 93.5,-173.5 93.5,-173.5 0.5,-173.5"/>
<path fill="none" stroke="#00688b" d="M12,-138C12,-138 81,-138 81,-138 87,-138 93,-144 93,-150 93,-150 93,-191 93,-191 93,-197 87,-203 81,-203 81,-203 12,-203 12,-203 6,-203 0,-197 0,-191 0,-191 0,-150 0,-150 0,-144 6,-138 12,-138"/>
</g>
<!-- Entry&#45;&gt;Unbound -->
<g id="edge1" class="edge">
<title>Entry&#45;&gt;Unbound</title>
<path fill="none" stroke="red" d="M46.5,-239.9C46.5,-233.79 46.5,-223.81 46.5,-213.34"/>
<polygon fill="red" stroke="red" points="50,-213.26 46.5,-203.26 43,-213.26 50,-213.26"/>
</g>
<!-- Bound -->
<g id="node3" class="node">
<title>Bound</title>
<path fill="azure" stroke="transparent" d="M70,-87C70,-87 23,-87 23,-87 17,-87 11,-81 11,-75 11,-75 11,-12 11,-12 11,-6 17,0 23,0 23,0 70,0 70,0 76,0 82,-6 82,-12 82,-12 82,-75 82,-75 82,-81 76,-87 70,-87"/>
<text text-anchor="start" x="21" y="-68.3" font-family="Times,serif" font-weight="bold" font-size="14.00">Bound</text>
<text text-anchor="start" x="19.5" y="-43.5" font-family="Times,serif" font-size="10.00">recv()</text>
<text text-anchor="start" x="19.5" y="-32.5" font-family="Times,serif" font-size="10.00">close()</text>
<text text-anchor="start" x="19.5" y="-21.5" font-family="Times,serif" font-size="10.00">is_bound()</text>
<text text-anchor="start" x="28.5" y="-10.5" font-family="Times,serif" font-size="10.00"> &#160;&#160;&#160;&#160;&#160;&#160;&#160;&#160;&#160;&#160;&#160;</text>
<polygon fill="#00688b" stroke="#00688b" points="11.5,-57.5 11.5,-57.5 82.5,-57.5 82.5,-57.5 11.5,-57.5"/>
<path fill="none" stroke="#00688b" d="M23,0C23,0 70,0 70,0 76,0 82,-6 82,-12 82,-12 82,-75 82,-75 82,-81 76,-87 70,-87 70,-87 23,-87 23,-87 17,-87 11,-81 11,-75 11,-75 11,-12 11,-12 11,-6 17,0 23,0"/>
</g>
<!-- Unbound&#45;&gt;Bound -->
<g id="edge2" class="edge">
<title>Unbound&#45;&gt;Bound</title>
<path fill="none" stroke="red" d="M23.22,-137.99C20.04,-132.26 17.26,-126.14 15.5,-120 13.3,-112.34 13.56,-104.4 15.31,-96.67"/>
<polygon fill="red" stroke="red" points="18.68,-97.63 18.25,-87.04 11.99,-95.58 18.68,-97.63"/>
<text text-anchor="middle" x="36" y="-108.8" font-family="Times,serif" font-size="14.00"> bind </text>
</g>
<!-- Bound&#45;&gt;Unbound -->
<g id="edge3" class="edge">
<title>Bound&#45;&gt;Unbound</title>
<path fill="none" stroke="red" d="M55.62,-87.17C56.96,-97.87 57.57,-109.34 56.5,-120 56.24,-122.56 55.92,-125.18 55.54,-127.81"/>
<polygon fill="red" stroke="red" points="52.04,-127.52 53.85,-137.95 58.94,-128.66 52.04,-127.52"/>
<text text-anchor="middle" x="79.5" y="-108.8" font-family="Times,serif" font-size="14.00"> close </text>
</g>
</g>
</svg>
