<?xml version="1.0" encoding="UTF-8" standalone="no"?>
<!DOCTYPE svg PUBLIC "-//W3C//DTD SVG 1.1//EN"
 "http://www.w3.org/Graphics/SVG/1.1/DTD/svg11.dtd">
<!-- Generated by graphviz version 14.1.5 (20260411.2331)
 -->
<!-- Title: UdpSocket Pages: 1 -->
<svg width="89pt" height="268pt"
 viewBox="0.00 0.00 89.00 268.00" xmlns="http://www.w3.org/2000/svg" xmlns:xlink="http://www.w3.org/1999/xlink">
<g id="graph0" class="graph" transform="scale(1 1) rotate(0) translate(4 264.4)">
<title>UdpSocket</title>
<polygon fill="white" stroke="none" points="-4,4 -4,-264.4 84.71,-264.4 84.71,4 -4,4"/>
<!-- Entry -->
<g id="node1" class="node">
<title>Entry</title>
<ellipse fill="black" stroke="#00688b" cx="39.12" cy="-253.2" rx="7.2" ry="7.2"/>
</g>
<!-- Unbound -->
<g id="node2" class="node">
<title>Unbound</title>
<path fill="azure" stroke="none" d="M66.25,-209C66.25,-209 12,-209 12,-209 6,-209 0,-203 0,-197 0,-197 0,-154 0,-154 0,-148 6,-142 12,-142 12,-142 66.25,-142 66.25,-142 72.25,-142 78.25,-148 78.25,-154 78.25,-154 78.25,-197 78.25,-197 78.25,-203 72.25,-209 66.25,-209"/>
<text xml:space="preserve" text-anchor="start" x="12.12" y="-188.7" font-family="Times,serif" font-weight="bold" font-size="14.00">Unbound</text>
<text xml:space="preserve" text-anchor="start" x="8" y="-163.5" font-family="Times,serif" font-size="10.00">bind(port: u16)</text>
<text xml:space="preserve" text-anchor="start" x="25.62" y="-152.25" font-family="Times,serif" font-size="10.00"> &#160;&#160;&#160;&#160;&#160;&#160;&#160;&#160;&#160;&#160;&#160;</text>
<polygon fill="#00688b" stroke="#00688b" points="0,-178.5 0,-178.5 78.25,-178.5 78.25,-178.5 0,-178.5"/>
<path fill="none" stroke="#00688b" d="M12,-142C12,-142 66.25,-142 66.25,-142 72.25,-142 78.25,-148 78.25,-154 78.25,-154 78.25,-197 78.25,-197 78.25,-203 72.25,-209 66.25,-209 66.25,-209 12,-209 12,-209 6,-209 0,-203 0,-197 0,-197 0,-154 0,-154 0,-148 6,-142 12,-142"/>
</g>
<!-- Entry&#45;&gt;Unbound -->
<g id="edge1" class="edge">
<title>Entry&#45;&gt;Unbound</title>
<path fill="none" stroke="red" d="M39.12,-245.75C39.12,-239.77 39.12,-230.32 39.12,-220.3"/>
<polygon fill="red" stroke="red" points="42.63,-220.41 39.13,-210.41 35.63,-220.41 42.63,-220.41"/>
</g>
<!-- Bound -->
<g id="node3" class="node">
<title>Bound</title>
<path fill="azure" stroke="none" d="M57.25,-89.5C57.25,-89.5 21,-89.5 21,-89.5 15,-89.5 9,-83.5 9,-77.5 9,-77.5 9,-12 9,-12 9,-6 15,0 21,0 21,0 57.25,0 57.25,0 63.25,0 69.25,-6 69.25,-12 69.25,-12 69.25,-77.5 69.25,-77.5 69.25,-83.5 63.25,-89.5 57.25,-89.5"/>
<text xml:space="preserve" text-anchor="start" x="20" y="-69.2" font-family="Times,serif" font-weight="bold" font-size="14.00">Bound</text>
<text xml:space="preserve" text-anchor="start" x="17" y="-44" font-family="Times,serif" font-size="10.00">recv()</text>
<text xml:space="preserve" text-anchor="start" x="17" y="-32.75" font-family="Times,serif" font-size="10.00">close()</text>
<text xml:space="preserve" text-anchor="start" x="17" y="-21.5" font-family="Times,serif" font-size="10.00">is_bound()</text>
<text xml:space="preserve" text-anchor="start" x="25.62" y="-10.25" font-family="Times,serif" font-size="10.00"> &#160;&#160;&#160;&#160;&#160;&#160;&#160;&#160;&#160;&#160;&#160;</text>
<polygon fill="#00688b" stroke="#00688b" points="9,-59 9,-59 69.25,-59 69.25,-59 9,-59"/>
<path fill="none" stroke="#00688b" d="M21,0C21,0 57.25,0 57.25,0 63.25,0 69.25,-6 69.25,-12 69.25,-12 69.25,-77.5 69.25,-77.5 69.25,-83.5 63.25,-89.5 57.25,-89.5 57.25,-89.5 21,-89.5 21,-89.5 15,-89.5 9,-83.5 9,-77.5 9,-77.5 9,-12 9,-12 9,-6 15,0 21,0"/>
</g>
<!-- Unbound&#45;&gt;Bound -->
<g id="edge2" class="edge">
<title>Unbound&#45;&gt;Bound</title>
<path fill="none" stroke="red" d="M20.07,-142.21C17.4,-136.33 15.08,-130.11 13.62,-124 11.78,-116.25 11.95,-108.17 13.34,-100.27"/>
<polygon fill="red" stroke="red" points="16.69,-101.28 15.68,-90.73 9.89,-99.61 16.69,-101.28"/>
<text xml:space="preserve" text-anchor="middle" x="29.38" y="-110.7" font-family="Times,serif" font-size="14.00"> bind </text>
</g>
<!-- Bound&#45;&gt;Unbound -->
<g id="edge3" class="edge">
<title>Bound&#45;&gt;Unbound</title>
<path fill="none" stroke="red" d="M44.56,-89.19C45.4,-100.52 45.79,-112.71 45.12,-124 44.99,-126.21 44.83,-128.48 44.64,-130.77"/>
<polygon fill="red" stroke="red" points="41.16,-130.43 43.68,-140.72 48.13,-131.1 41.16,-130.43"/>
<text xml:space="preserve" text-anchor="middle" x="63.09" y="-110.7" font-family="Times,serif" font-size="14.00"> close </text>
</g>
</g>
</svg>
