<?xml version="1.0" encoding="UTF-8" standalone="no"?>
<!DOCTYPE svg PUBLIC "-//W3C//DTD SVG 1.1//EN"
 "http://www.w3.org/Graphics/SVG/1.1/DTD/svg11.dtd">
<!-- Generated by graphviz version 2.43.0 (0)
 -->
<!-- Title: UsbMsd Pages: 1 -->
<svg width="268pt" height="733pt"
 viewBox="0.00 0.00 268.00 733.00" xmlns="http://www.w3.org/2000/svg" xmlns:xlink="http://www.w3.org/1999/xlink">
<g id="graph0" class="graph" transform="scale(1 1) rotate(0) translate(4 729)">
<title>UsbMsd</title>
<polygon fill="white" stroke="transparent" points="-4,4 -4,-729 264,-729 264,4 -4,4"/>
<g id="clust1" class="cluster">
<title>cluster_Active</title>
<path fill="none" stroke="black" d="M20,-119C20,-119 174,-119 174,-119 180,-119 186,-125 186,-131 186,-131 186,-545 186,-545 186,-551 180,-557 174,-557 174,-557 20,-557 20,-557 14,-557 8,-551 8,-545 8,-545 8,-131 8,-131 8,-125 14,-119 20,-119"/>
<text text-anchor="start" x="75" y="-537.3" font-family="Times,serif" font-size="14.00">Active</text>
<text text-anchor="start" x="73" y="-519.5" font-family="Times,serif" font-size="10.00">fail()</text>
<text text-anchor="start" x="73" y="-508.5" font-family="Times,serif" font-size="10.00"> &#160;&#160;&#160;&#160;&#160;&#160;&#160;&#160;&#160;&#160;&#160;&#160;&#160;&#160;&#160;</text>
<polygon fill="black" stroke="black" points="69,-530.5 69,-530.5 126,-530.5 126,-530.5 69,-530.5"/>
</g>
<!-- Entry -->
<g id="node1" class="node">
<title>Entry</title>
<ellipse fill="black" stroke="#00688b" cx="88" cy="-718" rx="7" ry="7"/>
</g>
<!-- Idle -->
<g id="node2" class="node">
<title>Idle</title>
<path fill="azure" stroke="transparent" d="M123,-674C123,-674 53,-674 53,-674 47,-674 41,-668 41,-662 41,-662 41,-610 41,-610 41,-604 47,-598 53,-598 53,-598 123,-598 123,-598 129,-598 135,-604 135,-610 135,-610 135,-662 135,-662 135,-668 129,-674 123,-674"/>
<text text-anchor="start" x="72.5" y="-655.8" font-family="Times,serif" font-weight="bold" font-size="14.00">Idle</text>
<text text-anchor="start" x="49" y="-631" font-family="Times,serif" font-size="10.00">begin(cmd: u8)</text>
<text text-anchor="start" x="49" y="-620" font-family="Times,serif" font-size="10.00">state()</text>
<text text-anchor="start" x="69.5" y="-609" font-family="Times,serif" font-size="10.00"> &#160;&#160;&#160;&#160;&#160;&#160;&#160;&#160;&#160;&#160;&#160;</text>
<polygon fill="#00688b" stroke="#00688b" points="41,-645 41,-645 135,-645 135,-645 41,-645"/>
<path fill="none" stroke="#00688b" d="M53,-598C53,-598 123,-598 123,-598 129,-598 135,-604 135,-610 135,-610 135,-662 135,-662 135,-668 129,-674 123,-674 123,-674 53,-674 53,-674 47,-674 41,-668 41,-662 41,-662 41,-610 41,-610 41,-604 47,-598 53,-598"/>
</g>
<!-- Entry&#45;&gt;Idle -->
<g id="edge1" class="edge">
<title>Entry&#45;&gt;Idle</title>
<path fill="none" stroke="red" d="M88,-710.99C88,-704.98 88,-695.15 88,-684.59"/>
<polygon fill="red" stroke="red" points="91.5,-684.33 88,-674.33 84.5,-684.33 91.5,-684.33"/>
</g>
<!-- CommandPhase -->
<g id="node6" class="node">
<title>CommandPhase</title>
<path fill="azure" stroke="transparent" d="M147.5,-490C147.5,-490 28.5,-490 28.5,-490 22.5,-490 16.5,-484 16.5,-478 16.5,-478 16.5,-415 16.5,-415 16.5,-409 22.5,-403 28.5,-403 28.5,-403 147.5,-403 147.5,-403 153.5,-403 159.5,-409 159.5,-415 159.5,-415 159.5,-478 159.5,-478 159.5,-484 153.5,-490 147.5,-490"/>
<text text-anchor="start" x="25" y="-471.3" font-family="Times,serif" font-weight="bold" font-size="14.00">CommandPhase</text>
<text text-anchor="start" x="25" y="-446.5" font-family="Times,serif" font-size="10.00">$&gt;()</text>
<text text-anchor="start" x="25" y="-435.5" font-family="Times,serif" font-size="10.00">cbw_sent()</text>
<text text-anchor="start" x="25" y="-424.5" font-family="Times,serif" font-size="10.00">state()</text>
<text text-anchor="start" x="28" y="-413.5" font-family="Times,serif" font-size="10.00"> &#160;&#160;&#160;&#160;&#160;&#160;&#160;&#160;&#160;&#160;&#160;&#160;&#160;&#160;&#160;</text>
<polygon fill="#00688b" stroke="#00688b" points="17,-460.5 17,-460.5 160,-460.5 160,-460.5 17,-460.5"/>
<path fill="none" stroke="#00688b" d="M28.5,-403C28.5,-403 147.5,-403 147.5,-403 153.5,-403 159.5,-409 159.5,-415 159.5,-415 159.5,-478 159.5,-478 159.5,-484 153.5,-490 147.5,-490 147.5,-490 28.5,-490 28.5,-490 22.5,-490 16.5,-484 16.5,-478 16.5,-478 16.5,-415 16.5,-415 16.5,-409 22.5,-403 28.5,-403"/>
</g>
<!-- Idle&#45;&gt;CommandPhase -->
<g id="edge2" class="edge">
<title>Idle&#45;&gt;CommandPhase</title>
<path fill="none" stroke="red" d="M88,-597.96C88,-570.05 88,-531.42 88,-500.28"/>
<polygon fill="red" stroke="red" points="91.5,-500.04 88,-490.04 84.5,-500.04 91.5,-500.04"/>
<text text-anchor="middle" x="112.5" y="-568.8" font-family="Times,serif" font-size="14.00"> begin </text>
</g>
<!-- Complete -->
<g id="node3" class="node">
<title>Complete</title>
<path fill="azure" stroke="transparent" d="M108,-76C108,-76 40,-76 40,-76 34,-76 28,-70 28,-64 28,-64 28,-12 28,-12 28,-6 34,0 40,0 40,0 108,0 108,0 114,0 120,-6 120,-12 120,-12 120,-64 120,-64 120,-70 114,-76 108,-76"/>
<text text-anchor="start" x="36" y="-57.8" font-family="Times,serif" font-weight="bold" font-size="14.00">Complete</text>
<text text-anchor="start" x="36" y="-33" font-family="Times,serif" font-size="10.00">is_complete()</text>
<text text-anchor="start" x="36" y="-22" font-family="Times,serif" font-size="10.00">state()</text>
<text text-anchor="start" x="51.5" y="-11" font-family="Times,serif" font-size="10.00"> &#160;&#160;&#160;&#160;&#160;&#160;&#160;&#160;&#160;&#160;&#160;</text>
<polygon fill="#00688b" stroke="#00688b" points="28,-47 28,-47 120,-47 120,-47 28,-47"/>
<path fill="none" stroke="#00688b" d="M40,0C40,0 108,0 108,0 114,0 120,-6 120,-12 120,-12 120,-64 120,-64 120,-70 114,-76 108,-76 108,-76 40,-76 40,-76 34,-76 28,-70 28,-64 28,-64 28,-12 28,-12 28,-6 34,0 40,0"/>
</g>
<!-- Failed -->
<g id="node4" class="node">
<title>Failed</title>
<path fill="azure" stroke="transparent" d="M248,-346.5C248,-346.5 206,-346.5 206,-346.5 200,-346.5 194,-340.5 194,-334.5 194,-334.5 194,-282.5 194,-282.5 194,-276.5 200,-270.5 206,-270.5 206,-270.5 248,-270.5 248,-270.5 254,-270.5 260,-276.5 260,-282.5 260,-282.5 260,-334.5 260,-334.5 260,-340.5 254,-346.5 248,-346.5"/>
<text text-anchor="start" x="203" y="-328.3" font-family="Times,serif" font-weight="bold" font-size="14.00">Failed</text>
<text text-anchor="start" x="202" y="-303.5" font-family="Times,serif" font-size="10.00">is_failed()</text>
<text text-anchor="start" x="202" y="-292.5" font-family="Times,serif" font-size="10.00">state()</text>
<text text-anchor="start" x="208.5" y="-281.5" font-family="Times,serif" font-size="10.00"> &#160;&#160;&#160;&#160;&#160;&#160;&#160;&#160;&#160;&#160;&#160;</text>
<polygon fill="#00688b" stroke="#00688b" points="194,-317.5 194,-317.5 260,-317.5 260,-317.5 194,-317.5"/>
<path fill="none" stroke="#00688b" d="M206,-270.5C206,-270.5 248,-270.5 248,-270.5 254,-270.5 260,-276.5 260,-282.5 260,-282.5 260,-334.5 260,-334.5 260,-340.5 254,-346.5 248,-346.5 248,-346.5 206,-346.5 206,-346.5 200,-346.5 194,-340.5 194,-334.5 194,-334.5 194,-282.5 194,-282.5 194,-276.5 200,-270.5 206,-270.5"/>
</g>
<!-- Active -->
<g id="node5" class="node">
<title>Active</title>
<ellipse fill="azure" stroke="#00688b" cx="178" cy="-446.5" rx="0" ry="0"/>
</g>
<!-- Active&#45;&gt;Failed -->
<g id="edge6" class="edge">
<title>Active&#45;&gt;Failed</title>
<path fill="none" stroke="red" d="M186,-423.31C192.53,-405.18 201.98,-378.95 210.16,-356.23"/>
<polygon fill="red" stroke="red" points="213.49,-357.33 213.58,-346.74 206.9,-354.96 213.49,-357.33"/>
<text text-anchor="middle" x="219" y="-373.8" font-family="Times,serif" font-size="14.00"> fail </text>
</g>
<!-- DataPhase -->
<g id="node7" class="node">
<title>DataPhase</title>
<path fill="azure" stroke="transparent" d="M116.5,-352C116.5,-352 39.5,-352 39.5,-352 33.5,-352 27.5,-346 27.5,-340 27.5,-340 27.5,-277 27.5,-277 27.5,-271 33.5,-265 39.5,-265 39.5,-265 116.5,-265 116.5,-265 122.5,-265 128.5,-271 128.5,-277 128.5,-277 128.5,-340 128.5,-340 128.5,-346 122.5,-352 116.5,-352"/>
<text text-anchor="start" x="36" y="-333.3" font-family="Times,serif" font-weight="bold" font-size="14.00">DataPhase</text>
<text text-anchor="start" x="36" y="-308.5" font-family="Times,serif" font-size="10.00">$&gt;()</text>
<text text-anchor="start" x="36" y="-297.5" font-family="Times,serif" font-size="10.00">data_received()</text>
<text text-anchor="start" x="36" y="-286.5" font-family="Times,serif" font-size="10.00">state()</text>
<text text-anchor="start" x="51" y="-275.5" font-family="Times,serif" font-size="10.00"> &#160;&#160;&#160;&#160;&#160;&#160;&#160;&#160;&#160;&#160;&#160;&#160;&#160;&#160;&#160;</text>
<polygon fill="#00688b" stroke="#00688b" points="28,-322.5 28,-322.5 129,-322.5 129,-322.5 28,-322.5"/>
<path fill="none" stroke="#00688b" d="M39.5,-265C39.5,-265 116.5,-265 116.5,-265 122.5,-265 128.5,-271 128.5,-277 128.5,-277 128.5,-340 128.5,-340 128.5,-346 122.5,-352 116.5,-352 116.5,-352 39.5,-352 39.5,-352 33.5,-352 27.5,-346 27.5,-340 27.5,-340 27.5,-277 27.5,-277 27.5,-271 33.5,-265 39.5,-265"/>
</g>
<!-- CommandPhase&#45;&gt;DataPhase -->
<g id="edge3" class="edge">
<title>CommandPhase&#45;&gt;DataPhase</title>
<path fill="none" stroke="red" d="M84.86,-402.84C83.91,-389.93 82.86,-375.6 81.87,-362.11"/>
<polygon fill="red" stroke="red" points="85.35,-361.72 81.13,-352.01 78.37,-362.24 85.35,-361.72"/>
<text text-anchor="middle" x="122" y="-373.8" font-family="Times,serif" font-size="14.00"> cbw_sent </text>
</g>
<!-- StatusPhase -->
<g id="node8" class="node">
<title>StatusPhase</title>
<path fill="azure" stroke="transparent" d="M119.5,-214C119.5,-214 28.5,-214 28.5,-214 22.5,-214 16.5,-208 16.5,-202 16.5,-202 16.5,-139 16.5,-139 16.5,-133 22.5,-127 28.5,-127 28.5,-127 119.5,-127 119.5,-127 125.5,-127 131.5,-133 131.5,-139 131.5,-139 131.5,-202 131.5,-202 131.5,-208 125.5,-214 119.5,-214"/>
<text text-anchor="start" x="25" y="-195.3" font-family="Times,serif" font-weight="bold" font-size="14.00">StatusPhase</text>
<text text-anchor="start" x="25" y="-170.5" font-family="Times,serif" font-size="10.00">$&gt;()</text>
<text text-anchor="start" x="25" y="-159.5" font-family="Times,serif" font-size="10.00">status_received()</text>
<text text-anchor="start" x="25" y="-148.5" font-family="Times,serif" font-size="10.00">state()</text>
<text text-anchor="start" x="44.5" y="-137.5" font-family="Times,serif" font-size="10.00"> &#160;&#160;&#160;&#160;&#160;&#160;&#160;&#160;&#160;&#160;&#160;&#160;&#160;&#160;&#160;</text>
<polygon fill="#00688b" stroke="#00688b" points="17,-184.5 17,-184.5 132,-184.5 132,-184.5 17,-184.5"/>
<path fill="none" stroke="#00688b" d="M28.5,-127C28.5,-127 119.5,-127 119.5,-127 125.5,-127 131.5,-133 131.5,-139 131.5,-139 131.5,-202 131.5,-202 131.5,-208 125.5,-214 119.5,-214 119.5,-214 28.5,-214 28.5,-214 22.5,-214 16.5,-208 16.5,-202 16.5,-202 16.5,-139 16.5,-139 16.5,-133 22.5,-127 28.5,-127"/>
</g>
<!-- DataPhase&#45;&gt;StatusPhase -->
<g id="edge4" class="edge">
<title>DataPhase&#45;&gt;StatusPhase</title>
<path fill="none" stroke="red" d="M76.75,-264.84C76.37,-251.93 75.94,-237.6 75.55,-224.11"/>
<polygon fill="red" stroke="red" points="79.04,-223.9 75.25,-214.01 72.05,-224.11 79.04,-223.9"/>
<text text-anchor="middle" x="131.5" y="-235.8" font-family="Times,serif" font-size="14.00"> data_received </text>
</g>
<!-- StatusPhase&#45;&gt;Complete -->
<g id="edge5" class="edge">
<title>StatusPhase&#45;&gt;Complete</title>
<path fill="none" stroke="red" d="M74,-126.77C74,-113.87 74,-99.62 74,-86.43"/>
<polygon fill="red" stroke="red" points="77.5,-86.12 74,-76.12 70.5,-86.12 77.5,-86.12"/>
<text text-anchor="middle" x="134.5" y="-97.8" font-family="Times,serif" font-size="14.00"> status_received </text>
</g>
</g>
</svg>
