<?xml version="1.0" encoding="UTF-8" standalone="no"?>
<!DOCTYPE svg PUBLIC "-//W3C//DTD SVG 1.1//EN"
 "http://www.w3.org/Graphics/SVG/1.1/DTD/svg11.dtd">
<!-- Generated by graphviz version 2.43.0 (0)
 -->
<!-- Title: UsbTransfer Pages: 1 -->
<svg width="185pt" height="422pt"
 viewBox="0.00 0.00 185.00 422.00" xmlns="http://www.w3.org/2000/svg" xmlns:xlink="http://www.w3.org/1999/xlink">
<g id="graph0" class="graph" transform="scale(1 1) rotate(0) translate(4 418)">
<title>UsbTransfer</title>
<polygon fill="white" stroke="transparent" points="-4,4 -4,-418 181,-418 181,4 -4,4"/>
<!-- Entry -->
<g id="node1" class="node">
<title>Entry</title>
<ellipse fill="black" stroke="#00688b" cx="95" cy="-407" rx="7" ry="7"/>
</g>
<!-- Idle -->
<g id="node2" class="node">
<title>Idle</title>
<path fill="azure" stroke="transparent" d="M110,-363C110,-363 80,-363 80,-363 74,-363 68,-357 68,-351 68,-351 68,-299 68,-299 68,-293 74,-287 80,-287 80,-287 110,-287 110,-287 116,-287 122,-293 122,-299 122,-299 122,-351 122,-351 122,-357 116,-363 110,-363"/>
<text text-anchor="start" x="80" y="-344.8" font-family="Times,serif" font-weight="bold" font-size="14.00">Idle</text>
<text text-anchor="start" x="77" y="-320" font-family="Times,serif" font-size="10.00">start()</text>
<text text-anchor="start" x="77" y="-309" font-family="Times,serif" font-size="10.00">state()</text>
<text text-anchor="start" x="77" y="-298" font-family="Times,serif" font-size="10.00"> &#160;&#160;&#160;&#160;&#160;&#160;&#160;&#160;&#160;&#160;&#160;</text>
<polygon fill="#00688b" stroke="#00688b" points="69,-334 69,-334 122,-334 122,-334 69,-334"/>
<path fill="none" stroke="#00688b" d="M80.5,-287C80.5,-287 109.5,-287 109.5,-287 115.5,-287 121.5,-293 121.5,-299 121.5,-299 121.5,-351 121.5,-351 121.5,-357 115.5,-363 109.5,-363 109.5,-363 80.5,-363 80.5,-363 74.5,-363 68.5,-357 68.5,-351 68.5,-351 68.5,-299 68.5,-299 68.5,-293 74.5,-287 80.5,-287"/>
</g>
<!-- Entry&#45;&gt;Idle -->
<g id="edge1" class="edge">
<title>Entry&#45;&gt;Idle</title>
<path fill="none" stroke="red" d="M95,-399.99C95,-393.98 95,-384.15 95,-373.59"/>
<polygon fill="red" stroke="red" points="98.5,-373.33 95,-363.33 91.5,-373.33 98.5,-373.33"/>
</g>
<!-- InFlight -->
<g id="node3" class="node">
<title>InFlight</title>
<path fill="azure" stroke="transparent" d="M123.5,-236C123.5,-236 66.5,-236 66.5,-236 60.5,-236 54.5,-230 54.5,-224 54.5,-224 54.5,-150 54.5,-150 54.5,-144 60.5,-138 66.5,-138 66.5,-138 123.5,-138 123.5,-138 129.5,-138 135.5,-144 135.5,-150 135.5,-150 135.5,-224 135.5,-224 135.5,-230 129.5,-236 123.5,-236"/>
<text text-anchor="start" x="63" y="-217.8" font-family="Times,serif" font-weight="bold" font-size="14.00">InFlight</text>
<text text-anchor="start" x="63" y="-193" font-family="Times,serif" font-size="10.00">$&gt;()</text>
<text text-anchor="start" x="63" y="-182" font-family="Times,serif" font-size="10.00">complete()</text>
<text text-anchor="start" x="63" y="-171" font-family="Times,serif" font-size="10.00">fail()</text>
<text text-anchor="start" x="63" y="-160" font-family="Times,serif" font-size="10.00">state()</text>
<text text-anchor="start" x="72" y="-149" font-family="Times,serif" font-size="10.00"> &#160;&#160;&#160;&#160;&#160;&#160;&#160;&#160;&#160;&#160;&#160;</text>
<polygon fill="#00688b" stroke="#00688b" points="55,-207 55,-207 136,-207 136,-207 55,-207"/>
<path fill="none" stroke="#00688b" d="M66.5,-138C66.5,-138 123.5,-138 123.5,-138 129.5,-138 135.5,-144 135.5,-150 135.5,-150 135.5,-224 135.5,-224 135.5,-230 129.5,-236 123.5,-236 123.5,-236 66.5,-236 66.5,-236 60.5,-236 54.5,-230 54.5,-224 54.5,-224 54.5,-150 54.5,-150 54.5,-144 60.5,-138 66.5,-138"/>
</g>
<!-- Idle&#45;&gt;InFlight -->
<g id="edge2" class="edge">
<title>Idle&#45;&gt;InFlight</title>
<path fill="none" stroke="red" d="M95,-286.84C95,-274.37 95,-260.14 95,-246.44"/>
<polygon fill="red" stroke="red" points="98.5,-246.1 95,-236.1 91.5,-246.1 98.5,-246.1"/>
<text text-anchor="middle" x="117" y="-257.8" font-family="Times,serif" font-size="14.00"> start </text>
</g>
<!-- Complete -->
<g id="node4" class="node">
<title>Complete</title>
<path fill="azure" stroke="transparent" d="M80,-87C80,-87 12,-87 12,-87 6,-87 0,-81 0,-75 0,-75 0,-12 0,-12 0,-6 6,0 12,0 12,0 80,0 80,0 86,0 92,-6 92,-12 92,-12 92,-75 92,-75 92,-81 86,-87 80,-87"/>
<text text-anchor="start" x="8" y="-68.3" font-family="Times,serif" font-weight="bold" font-size="14.00">Complete</text>
<text text-anchor="start" x="8" y="-43.5" font-family="Times,serif" font-size="10.00">$&gt;()</text>
<text text-anchor="start" x="8" y="-32.5" font-family="Times,serif" font-size="10.00">is_complete()</text>
<text text-anchor="start" x="8" y="-21.5" font-family="Times,serif" font-size="10.00">state()</text>
<text text-anchor="start" x="23.5" y="-10.5" font-family="Times,serif" font-size="10.00"> &#160;&#160;&#160;&#160;&#160;&#160;&#160;&#160;&#160;&#160;&#160;</text>
<polygon fill="#00688b" stroke="#00688b" points="0,-57.5 0,-57.5 92,-57.5 92,-57.5 0,-57.5"/>
<path fill="none" stroke="#00688b" d="M12,0C12,0 80,0 80,0 86,0 92,-6 92,-12 92,-12 92,-75 92,-75 92,-81 86,-87 80,-87 80,-87 12,-87 12,-87 6,-87 0,-81 0,-75 0,-75 0,-12 0,-12 0,-6 6,0 12,0"/>
</g>
<!-- InFlight&#45;&gt;Complete -->
<g id="edge3" class="edge">
<title>InFlight&#45;&gt;Complete</title>
<path fill="none" stroke="red" d="M55.03,-137.73C51.8,-132.01 49.01,-126.05 47,-120 44.61,-112.82 43.25,-105.04 42.57,-97.3"/>
<polygon fill="red" stroke="red" points="46.06,-97 42.05,-87.19 39.07,-97.36 46.06,-97"/>
<text text-anchor="middle" x="84.5" y="-108.8" font-family="Times,serif" font-size="14.00"> complete </text>
</g>
<!-- Failed -->
<g id="node5" class="node">
<title>Failed</title>
<path fill="azure" stroke="transparent" d="M165,-81.5C165,-81.5 123,-81.5 123,-81.5 117,-81.5 111,-75.5 111,-69.5 111,-69.5 111,-17.5 111,-17.5 111,-11.5 117,-5.5 123,-5.5 123,-5.5 165,-5.5 165,-5.5 171,-5.5 177,-11.5 177,-17.5 177,-17.5 177,-69.5 177,-69.5 177,-75.5 171,-81.5 165,-81.5"/>
<text text-anchor="start" x="120" y="-63.3" font-family="Times,serif" font-weight="bold" font-size="14.00">Failed</text>
<text text-anchor="start" x="119" y="-38.5" font-family="Times,serif" font-size="10.00">is_failed()</text>
<text text-anchor="start" x="119" y="-27.5" font-family="Times,serif" font-size="10.00">state()</text>
<text text-anchor="start" x="125.5" y="-16.5" font-family="Times,serif" font-size="10.00"> &#160;&#160;&#160;&#160;&#160;&#160;&#160;&#160;&#160;&#160;&#160;</text>
<polygon fill="#00688b" stroke="#00688b" points="111,-52.5 111,-52.5 177,-52.5 177,-52.5 111,-52.5"/>
<path fill="none" stroke="#00688b" d="M123,-5.5C123,-5.5 165,-5.5 165,-5.5 171,-5.5 177,-11.5 177,-17.5 177,-17.5 177,-69.5 177,-69.5 177,-75.5 171,-81.5 165,-81.5 165,-81.5 123,-81.5 123,-81.5 117,-81.5 111,-75.5 111,-69.5 111,-69.5 111,-17.5 111,-17.5 111,-11.5 117,-5.5 123,-5.5"/>
</g>
<!-- InFlight&#45;&gt;Failed -->
<g id="edge4" class="edge">
<title>InFlight&#45;&gt;Failed</title>
<path fill="none" stroke="red" d="M115.35,-137.92C117.69,-131.92 119.96,-125.84 122,-120 125.21,-110.82 128.33,-100.9 131.17,-91.36"/>
<polygon fill="red" stroke="red" points="134.58,-92.19 134.02,-81.61 127.86,-90.23 134.58,-92.19"/>
<text text-anchor="middle" x="142" y="-108.8" font-family="Times,serif" font-size="14.00"> fail </text>
</g>
</g>
</svg>
