<?xml version="1.0" encoding="UTF-8" standalone="no"?>
<!DOCTYPE svg PUBLIC "-//W3C//DTD SVG 1.1//EN"
 "http://www.w3.org/Graphics/SVG/1.1/DTD/svg11.dtd">
<!-- Generated by graphviz version 2.43.0 (0)
 -->
<!-- Title: UsbEnumeration Pages: 1 -->
<svg width="258pt" height="782pt"
 viewBox="0.00 0.00 258.00 782.00" xmlns="http://www.w3.org/2000/svg" xmlns:xlink="http://www.w3.org/1999/xlink">
<g id="graph0" class="graph" transform="scale(1 1) rotate(0) translate(4 778)">
<title>UsbEnumeration</title>
<polygon fill="white" stroke="transparent" points="-4,4 -4,-778 254,-778 254,4 -4,4"/>
<g id="clust1" class="cluster">
<title>cluster_Enumerating</title>
<path fill="none" stroke="black" d="M20,-8C20,-8 164,-8 164,-8 170,-8 176,-14 176,-20 176,-20 176,-721 176,-721 176,-727 170,-733 164,-733 164,-733 20,-733 20,-733 14,-733 8,-727 8,-721 8,-721 8,-20 8,-20 8,-14 14,-8 20,-8"/>
<text text-anchor="start" x="45" y="-713.3" font-family="Times,serif" font-size="14.00">Enumerating</text>
<text text-anchor="start" x="45" y="-695.5" font-family="Times,serif" font-size="10.00">fail()</text>
<text text-anchor="start" x="45" y="-684.5" font-family="Times,serif" font-size="10.00"> &#160;&#160;&#160;&#160;&#160;&#160;&#160;&#160;&#160;&#160;&#160;&#160;&#160;&#160;&#160;</text>
<polygon fill="black" stroke="black" points="41,-706.5 41,-706.5 143,-706.5 143,-706.5 41,-706.5"/>
</g>
<!-- Entry -->
<g id="node1" class="node">
<title>Entry</title>
<ellipse fill="black" stroke="#00688b" cx="79" cy="-767" rx="7" ry="7"/>
</g>
<!-- Powered -->
<g id="node2" class="node">
<title>Powered</title>
<path fill="azure" stroke="transparent" d="M129.5,-666C129.5,-666 28.5,-666 28.5,-666 22.5,-666 16.5,-660 16.5,-654 16.5,-654 16.5,-591 16.5,-591 16.5,-585 22.5,-579 28.5,-579 28.5,-579 129.5,-579 129.5,-579 135.5,-579 141.5,-585 141.5,-591 141.5,-591 141.5,-654 141.5,-654 141.5,-660 135.5,-666 129.5,-666"/>
<text text-anchor="start" x="46" y="-647.3" font-family="Times,serif" font-weight="bold" font-size="14.00">Powered</text>
<text text-anchor="start" x="25" y="-622.5" font-family="Times,serif" font-size="10.00">$&gt;()</text>
<text text-anchor="start" x="25" y="-611.5" font-family="Times,serif" font-size="10.00">slot_enabled(slot: u8)</text>
<text text-anchor="start" x="25" y="-600.5" font-family="Times,serif" font-size="10.00">state()</text>
<text text-anchor="start" x="55" y="-589.5" font-family="Times,serif" font-size="10.00"> &#160;&#160;&#160;&#160;&#160;&#160;&#160;&#160;&#160;&#160;&#160;&#160;&#160;&#160;&#160;</text>
<polygon fill="#00688b" stroke="#00688b" points="17,-636.5 17,-636.5 142,-636.5 142,-636.5 17,-636.5"/>
<path fill="none" stroke="#00688b" d="M28.5,-579C28.5,-579 129.5,-579 129.5,-579 135.5,-579 141.5,-585 141.5,-591 141.5,-591 141.5,-654 141.5,-654 141.5,-660 135.5,-666 129.5,-666 129.5,-666 28.5,-666 28.5,-666 22.5,-666 16.5,-660 16.5,-654 16.5,-654 16.5,-591 16.5,-591 16.5,-585 22.5,-579 28.5,-579"/>
</g>
<!-- Entry&#45;&gt;Powered -->
<g id="edge1" class="edge">
<title>Entry&#45;&gt;Powered</title>
<path fill="none" stroke="red" d="M79,-759.88C79,-745.46 79,-708.16 79,-676.21"/>
<polygon fill="red" stroke="red" points="82.5,-676.06 79,-666.06 75.5,-676.06 82.5,-676.06"/>
</g>
<!-- SlotEnabled -->
<g id="node5" class="node">
<title>SlotEnabled</title>
<path fill="azure" stroke="transparent" d="M121.5,-528C121.5,-528 34.5,-528 34.5,-528 28.5,-528 22.5,-522 22.5,-516 22.5,-516 22.5,-453 22.5,-453 22.5,-447 28.5,-441 34.5,-441 34.5,-441 121.5,-441 121.5,-441 127.5,-441 133.5,-447 133.5,-453 133.5,-453 133.5,-516 133.5,-516 133.5,-522 127.5,-528 121.5,-528"/>
<text text-anchor="start" x="31" y="-509.3" font-family="Times,serif" font-weight="bold" font-size="14.00">SlotEnabled</text>
<text text-anchor="start" x="31" y="-484.5" font-family="Times,serif" font-size="10.00">$&gt;()</text>
<text text-anchor="start" x="31" y="-473.5" font-family="Times,serif" font-size="10.00">addressed()</text>
<text text-anchor="start" x="31" y="-462.5" font-family="Times,serif" font-size="10.00">state()</text>
<text text-anchor="start" x="37" y="-451.5" font-family="Times,serif" font-size="10.00"> &#160;&#160;&#160;&#160;&#160;&#160;&#160;&#160;&#160;&#160;&#160;&#160;&#160;&#160;&#160;</text>
<polygon fill="#00688b" stroke="#00688b" points="23,-498.5 23,-498.5 134,-498.5 134,-498.5 23,-498.5"/>
<path fill="none" stroke="#00688b" d="M34.5,-441C34.5,-441 121.5,-441 121.5,-441 127.5,-441 133.5,-447 133.5,-453 133.5,-453 133.5,-516 133.5,-516 133.5,-522 127.5,-528 121.5,-528 121.5,-528 34.5,-528 34.5,-528 28.5,-528 22.5,-522 22.5,-516 22.5,-516 22.5,-453 22.5,-453 22.5,-447 28.5,-441 34.5,-441"/>
</g>
<!-- Powered&#45;&gt;SlotEnabled -->
<g id="edge2" class="edge">
<title>Powered&#45;&gt;SlotEnabled</title>
<path fill="none" stroke="red" d="M78.69,-578.84C78.59,-565.93 78.49,-551.6 78.39,-538.11"/>
<polygon fill="red" stroke="red" points="81.89,-537.98 78.31,-528.01 74.89,-538.03 81.89,-537.98"/>
<text text-anchor="middle" x="128.5" y="-549.8" font-family="Times,serif" font-size="14.00"> slot_enabled </text>
</g>
<!-- Failed -->
<g id="node3" class="node">
<title>Failed</title>
<path fill="azure" stroke="transparent" d="M238,-522.5C238,-522.5 196,-522.5 196,-522.5 190,-522.5 184,-516.5 184,-510.5 184,-510.5 184,-458.5 184,-458.5 184,-452.5 190,-446.5 196,-446.5 196,-446.5 238,-446.5 238,-446.5 244,-446.5 250,-452.5 250,-458.5 250,-458.5 250,-510.5 250,-510.5 250,-516.5 244,-522.5 238,-522.5"/>
<text text-anchor="start" x="193" y="-504.3" font-family="Times,serif" font-weight="bold" font-size="14.00">Failed</text>
<text text-anchor="start" x="192" y="-479.5" font-family="Times,serif" font-size="10.00">is_failed()</text>
<text text-anchor="start" x="192" y="-468.5" font-family="Times,serif" font-size="10.00">state()</text>
<text text-anchor="start" x="198.5" y="-457.5" font-family="Times,serif" font-size="10.00"> &#160;&#160;&#160;&#160;&#160;&#160;&#160;&#160;&#160;&#160;&#160;</text>
<polygon fill="#00688b" stroke="#00688b" points="184,-493.5 184,-493.5 250,-493.5 250,-493.5 184,-493.5"/>
<path fill="none" stroke="#00688b" d="M196,-446.5C196,-446.5 238,-446.5 238,-446.5 244,-446.5 250,-452.5 250,-458.5 250,-458.5 250,-510.5 250,-510.5 250,-516.5 244,-522.5 238,-522.5 238,-522.5 196,-522.5 196,-522.5 190,-522.5 184,-516.5 184,-510.5 184,-510.5 184,-458.5 184,-458.5 184,-452.5 190,-446.5 196,-446.5"/>
</g>
<!-- Enumerating -->
<g id="node4" class="node">
<title>Enumerating</title>
<ellipse fill="azure" stroke="#00688b" cx="168" cy="-622.5" rx="0" ry="0"/>
</g>
<!-- Enumerating&#45;&gt;Failed -->
<g id="edge6" class="edge">
<title>Enumerating&#45;&gt;Failed</title>
<path fill="none" stroke="red" d="M176,-599.31C182.53,-581.18 191.98,-554.95 200.16,-532.23"/>
<polygon fill="red" stroke="red" points="203.49,-533.33 203.58,-522.74 196.9,-530.96 203.49,-533.33"/>
<text text-anchor="middle" x="209" y="-549.8" font-family="Times,serif" font-size="14.00"> fail </text>
</g>
<!-- AddressAssigned -->
<g id="node6" class="node">
<title>AddressAssigned</title>
<path fill="azure" stroke="transparent" d="M155.5,-390C155.5,-390 28.5,-390 28.5,-390 22.5,-390 16.5,-384 16.5,-378 16.5,-378 16.5,-304 16.5,-304 16.5,-298 22.5,-292 28.5,-292 28.5,-292 155.5,-292 155.5,-292 161.5,-292 167.5,-298 167.5,-304 167.5,-304 167.5,-378 167.5,-378 167.5,-384 161.5,-390 155.5,-390"/>
<text text-anchor="start" x="25" y="-371.8" font-family="Times,serif" font-weight="bold" font-size="14.00">AddressAssigned</text>
<text text-anchor="start" x="25" y="-347" font-family="Times,serif" font-size="10.00">$&gt;()</text>
<text text-anchor="start" x="25" y="-336" font-family="Times,serif" font-size="10.00">device_described()</text>
<text text-anchor="start" x="25" y="-325" font-family="Times,serif" font-size="10.00">is_addressed()</text>
<text text-anchor="start" x="25" y="-314" font-family="Times,serif" font-size="10.00">state()</text>
<text text-anchor="start" x="49" y="-303" font-family="Times,serif" font-size="10.00"> &#160;&#160;&#160;&#160;&#160;&#160;&#160;&#160;&#160;&#160;&#160;&#160;&#160;&#160;&#160;</text>
<polygon fill="#00688b" stroke="#00688b" points="17,-361 17,-361 168,-361 168,-361 17,-361"/>
<path fill="none" stroke="#00688b" d="M28.5,-292C28.5,-292 155.5,-292 155.5,-292 161.5,-292 167.5,-298 167.5,-304 167.5,-304 167.5,-378 167.5,-378 167.5,-384 161.5,-390 155.5,-390 155.5,-390 28.5,-390 28.5,-390 22.5,-390 16.5,-384 16.5,-378 16.5,-378 16.5,-304 16.5,-304 16.5,-298 22.5,-292 28.5,-292"/>
</g>
<!-- SlotEnabled&#45;&gt;AddressAssigned -->
<g id="edge3" class="edge">
<title>SlotEnabled&#45;&gt;AddressAssigned</title>
<path fill="none" stroke="red" d="M82.24,-440.66C83.5,-427.96 84.89,-413.82 86.23,-400.31"/>
<polygon fill="red" stroke="red" points="89.74,-400.43 87.24,-390.14 82.77,-399.74 89.74,-400.43"/>
<text text-anchor="middle" x="127.5" y="-411.8" font-family="Times,serif" font-size="14.00"> addressed </text>
</g>
<!-- DeviceDescribed -->
<g id="node7" class="node">
<title>DeviceDescribed</title>
<path fill="azure" stroke="transparent" d="M151.5,-241C151.5,-241 28.5,-241 28.5,-241 22.5,-241 16.5,-235 16.5,-229 16.5,-229 16.5,-166 16.5,-166 16.5,-160 22.5,-154 28.5,-154 28.5,-154 151.5,-154 151.5,-154 157.5,-154 163.5,-160 163.5,-166 163.5,-166 163.5,-229 163.5,-229 163.5,-235 157.5,-241 151.5,-241"/>
<text text-anchor="start" x="25" y="-222.3" font-family="Times,serif" font-weight="bold" font-size="14.00">DeviceDescribed</text>
<text text-anchor="start" x="25" y="-197.5" font-family="Times,serif" font-size="10.00">$&gt;()</text>
<text text-anchor="start" x="25" y="-186.5" font-family="Times,serif" font-size="10.00">configured()</text>
<text text-anchor="start" x="25" y="-175.5" font-family="Times,serif" font-size="10.00">state()</text>
<text text-anchor="start" x="32.5" y="-164.5" font-family="Times,serif" font-size="10.00"> &#160;&#160;&#160;&#160;&#160;&#160;&#160;&#160;&#160;&#160;&#160;&#160;&#160;&#160;&#160;</text>
<polygon fill="#00688b" stroke="#00688b" points="17,-211.5 17,-211.5 164,-211.5 164,-211.5 17,-211.5"/>
<path fill="none" stroke="#00688b" d="M28.5,-154C28.5,-154 151.5,-154 151.5,-154 157.5,-154 163.5,-160 163.5,-166 163.5,-166 163.5,-229 163.5,-229 163.5,-235 157.5,-241 151.5,-241 151.5,-241 28.5,-241 28.5,-241 22.5,-241 16.5,-235 16.5,-229 16.5,-229 16.5,-166 16.5,-166 16.5,-160 22.5,-154 28.5,-154"/>
</g>
<!-- AddressAssigned&#45;&gt;DeviceDescribed -->
<g id="edge4" class="edge">
<title>AddressAssigned&#45;&gt;DeviceDescribed</title>
<path fill="none" stroke="red" d="M91.32,-291.7C91.14,-278.81 90.94,-264.82 90.75,-251.68"/>
<polygon fill="red" stroke="red" points="94.25,-251.32 90.61,-241.37 87.25,-251.42 94.25,-251.32"/>
<text text-anchor="middle" x="158" y="-262.8" font-family="Times,serif" font-size="14.00"> device_described </text>
</g>
<!-- Configured -->
<g id="node8" class="node">
<title>Configured</title>
<path fill="azure" stroke="transparent" d="M123,-103C123,-103 43,-103 43,-103 37,-103 31,-97 31,-91 31,-91 31,-28 31,-28 31,-22 37,-16 43,-16 43,-16 123,-16 123,-16 129,-16 135,-22 135,-28 135,-28 135,-91 135,-91 135,-97 129,-103 123,-103"/>
<text text-anchor="start" x="39" y="-84.3" font-family="Times,serif" font-weight="bold" font-size="14.00">Configured</text>
<text text-anchor="start" x="39" y="-59.5" font-family="Times,serif" font-size="10.00">$&gt;()</text>
<text text-anchor="start" x="39" y="-48.5" font-family="Times,serif" font-size="10.00">is_configured()</text>
<text text-anchor="start" x="39" y="-37.5" font-family="Times,serif" font-size="10.00">state()</text>
<text text-anchor="start" x="53" y="-26.5" font-family="Times,serif" font-size="10.00"> &#160;&#160;&#160;&#160;&#160;&#160;&#160;&#160;&#160;&#160;&#160;&#160;&#160;&#160;&#160;</text>
<polygon fill="#00688b" stroke="#00688b" points="31,-73.5 31,-73.5 135,-73.5 135,-73.5 31,-73.5"/>
<path fill="none" stroke="#00688b" d="M43,-16C43,-16 123,-16 123,-16 129,-16 135,-22 135,-28 135,-28 135,-91 135,-91 135,-97 129,-103 123,-103 123,-103 43,-103 43,-103 37,-103 31,-97 31,-91 31,-91 31,-28 31,-28 31,-22 37,-16 43,-16"/>
</g>
<!-- DeviceDescribed&#45;&gt;Configured -->
<g id="edge5" class="edge">
<title>DeviceDescribed&#45;&gt;Configured</title>
<path fill="none" stroke="red" d="M87.8,-153.84C87.14,-140.93 86.4,-126.6 85.71,-113.11"/>
<polygon fill="red" stroke="red" points="89.2,-112.81 85.19,-103.01 82.21,-113.17 89.2,-112.81"/>
<text text-anchor="middle" x="129.5" y="-124.8" font-family="Times,serif" font-size="14.00"> configured </text>
</g>
</g>
</svg>
