<?xml version="1.0" encoding="UTF-8" standalone="no"?>
<!DOCTYPE svg PUBLIC "-//W3C//DTD SVG 1.1//EN"
 "http://www.w3.org/Graphics/SVG/1.1/DTD/svg11.dtd">
<!-- Generated by graphviz version 2.43.0 (0)
 -->
<!-- Title: UsbEnumeration Pages: 1 -->
<svg width="258pt" height="495pt"
 viewBox="0.00 0.00 258.00 495.00" xmlns="http://www.w3.org/2000/svg" xmlns:xlink="http://www.w3.org/1999/xlink">
<g id="graph0" class="graph" transform="scale(1 1) rotate(0) translate(4 491)">
<title>UsbEnumeration</title>
<polygon fill="white" stroke="transparent" points="-4,4 -4,-491 254,-491 254,4 -4,4"/>
<g id="clust1" class="cluster">
<title>cluster_Enumerating</title>
<path fill="none" stroke="black" d="M20,-8C20,-8 164,-8 164,-8 170,-8 176,-14 176,-20 176,-20 176,-434 176,-434 176,-440 170,-446 164,-446 164,-446 20,-446 20,-446 14,-446 8,-440 8,-434 8,-434 8,-20 8,-20 8,-14 14,-8 20,-8"/>
<text text-anchor="start" x="45" y="-426.3" font-family="Times,serif" font-size="14.00">Enumerating</text>
<text text-anchor="start" x="45" y="-408.5" font-family="Times,serif" font-size="10.00">fail()</text>
<text text-anchor="start" x="45" y="-397.5" font-family="Times,serif" font-size="10.00"> &#160;&#160;&#160;&#160;&#160;&#160;&#160;&#160;&#160;&#160;&#160;&#160;&#160;&#160;&#160;</text>
<polygon fill="black" stroke="black" points="41,-419.5 41,-419.5 143,-419.5 143,-419.5 41,-419.5"/>
</g>
<!-- Entry -->
<g id="node1" class="node">
<title>Entry</title>
<ellipse fill="black" stroke="#00688b" cx="79" cy="-480" rx="7" ry="7"/>
</g>
<!-- Powered -->
<g id="node2" class="node">
<title>Powered</title>
<path fill="azure" stroke="transparent" d="M129.5,-379C129.5,-379 28.5,-379 28.5,-379 22.5,-379 16.5,-373 16.5,-367 16.5,-367 16.5,-304 16.5,-304 16.5,-298 22.5,-292 28.5,-292 28.5,-292 129.5,-292 129.5,-292 135.5,-292 141.5,-298 141.5,-304 141.5,-304 141.5,-367 141.5,-367 141.5,-373 135.5,-379 129.5,-379"/>
<text text-anchor="start" x="46" y="-360.3" font-family="Times,serif" font-weight="bold" font-size="14.00">Powered</text>
<text text-anchor="start" x="25" y="-335.5" font-family="Times,serif" font-size="10.00">$&gt;()</text>
<text text-anchor="start" x="25" y="-324.5" font-family="Times,serif" font-size="10.00">slot_enabled(slot: u8)</text>
<text text-anchor="start" x="25" y="-313.5" font-family="Times,serif" font-size="10.00">state()</text>
<text text-anchor="start" x="55" y="-302.5" font-family="Times,serif" font-size="10.00"> &#160;&#160;&#160;&#160;&#160;&#160;&#160;&#160;&#160;&#160;&#160;&#160;&#160;&#160;&#160;</text>
<polygon fill="#00688b" stroke="#00688b" points="17,-349.5 17,-349.5 142,-349.5 142,-349.5 17,-349.5"/>
<path fill="none" stroke="#00688b" d="M28.5,-292C28.5,-292 129.5,-292 129.5,-292 135.5,-292 141.5,-298 141.5,-304 141.5,-304 141.5,-367 141.5,-367 141.5,-373 135.5,-379 129.5,-379 129.5,-379 28.5,-379 28.5,-379 22.5,-379 16.5,-373 16.5,-367 16.5,-367 16.5,-304 16.5,-304 16.5,-298 22.5,-292 28.5,-292"/>
</g>
<!-- Entry&#45;&gt;Powered -->
<g id="edge1" class="edge">
<title>Entry&#45;&gt;Powered</title>
<path fill="none" stroke="red" d="M79,-472.88C79,-458.46 79,-421.16 79,-389.21"/>
<polygon fill="red" stroke="red" points="82.5,-389.06 79,-379.06 75.5,-389.06 82.5,-389.06"/>
</g>
<!-- SlotEnabled -->
<g id="node5" class="node">
<title>SlotEnabled</title>
<path fill="azure" stroke="transparent" d="M121.5,-241C121.5,-241 34.5,-241 34.5,-241 28.5,-241 22.5,-235 22.5,-229 22.5,-229 22.5,-166 22.5,-166 22.5,-160 28.5,-154 34.5,-154 34.5,-154 121.5,-154 121.5,-154 127.5,-154 133.5,-160 133.5,-166 133.5,-166 133.5,-229 133.5,-229 133.5,-235 127.5,-241 121.5,-241"/>
<text text-anchor="start" x="31" y="-222.3" font-family="Times,serif" font-weight="bold" font-size="14.00">SlotEnabled</text>
<text text-anchor="start" x="31" y="-197.5" font-family="Times,serif" font-size="10.00">$&gt;()</text>
<text text-anchor="start" x="31" y="-186.5" font-family="Times,serif" font-size="10.00">addressed()</text>
<text text-anchor="start" x="31" y="-175.5" font-family="Times,serif" font-size="10.00">state()</text>
<text text-anchor="start" x="37" y="-164.5" font-family="Times,serif" font-size="10.00"> &#160;&#160;&#160;&#160;&#160;&#160;&#160;&#160;&#160;&#160;&#160;&#160;&#160;&#160;&#160;</text>
<polygon fill="#00688b" stroke="#00688b" points="23,-211.5 23,-211.5 134,-211.5 134,-211.5 23,-211.5"/>
<path fill="none" stroke="#00688b" d="M34.5,-154C34.5,-154 121.5,-154 121.5,-154 127.5,-154 133.5,-160 133.5,-166 133.5,-166 133.5,-229 133.5,-229 133.5,-235 127.5,-241 121.5,-241 121.5,-241 34.5,-241 34.5,-241 28.5,-241 22.5,-235 22.5,-229 22.5,-229 22.5,-166 22.5,-166 22.5,-160 28.5,-154 34.5,-154"/>
</g>
<!-- Powered&#45;&gt;SlotEnabled -->
<g id="edge2" class="edge">
<title>Powered&#45;&gt;SlotEnabled</title>
<path fill="none" stroke="red" d="M78.69,-291.84C78.59,-278.93 78.49,-264.6 78.39,-251.11"/>
<polygon fill="red" stroke="red" points="81.89,-250.98 78.31,-241.01 74.89,-251.03 81.89,-250.98"/>
<text text-anchor="middle" x="128.5" y="-262.8" font-family="Times,serif" font-size="14.00"> slot_enabled </text>
</g>
<!-- Failed -->
<g id="node3" class="node">
<title>Failed</title>
<path fill="azure" stroke="transparent" d="M238,-235.5C238,-235.5 196,-235.5 196,-235.5 190,-235.5 184,-229.5 184,-223.5 184,-223.5 184,-171.5 184,-171.5 184,-165.5 190,-159.5 196,-159.5 196,-159.5 238,-159.5 238,-159.5 244,-159.5 250,-165.5 250,-171.5 250,-171.5 250,-223.5 250,-223.5 250,-229.5 244,-235.5 238,-235.5"/>
<text text-anchor="start" x="193" y="-217.3" font-family="Times,serif" font-weight="bold" font-size="14.00">Failed</text>
<text text-anchor="start" x="192" y="-192.5" font-family="Times,serif" font-size="10.00">is_failed()</text>
<text text-anchor="start" x="192" y="-181.5" font-family="Times,serif" font-size="10.00">state()</text>
<text text-anchor="start" x="198.5" y="-170.5" font-family="Times,serif" font-size="10.00"> &#160;&#160;&#160;&#160;&#160;&#160;&#160;&#160;&#160;&#160;&#160;</text>
<polygon fill="#00688b" stroke="#00688b" points="184,-206.5 184,-206.5 250,-206.5 250,-206.5 184,-206.5"/>
<path fill="none" stroke="#00688b" d="M196,-159.5C196,-159.5 238,-159.5 238,-159.5 244,-159.5 250,-165.5 250,-171.5 250,-171.5 250,-223.5 250,-223.5 250,-229.5 244,-235.5 238,-235.5 238,-235.5 196,-235.5 196,-235.5 190,-235.5 184,-229.5 184,-223.5 184,-223.5 184,-171.5 184,-171.5 184,-165.5 190,-159.5 196,-159.5"/>
</g>
<!-- Enumerating -->
<g id="node4" class="node">
<title>Enumerating</title>
<ellipse fill="azure" stroke="#00688b" cx="168" cy="-335.5" rx="0" ry="0"/>
</g>
<!-- Enumerating&#45;&gt;Failed -->
<g id="edge4" class="edge">
<title>Enumerating&#45;&gt;Failed</title>
<path fill="none" stroke="red" d="M176,-312.31C182.53,-294.18 191.98,-267.95 200.16,-245.23"/>
<polygon fill="red" stroke="red" points="203.49,-246.33 203.58,-235.74 196.9,-243.96 203.49,-246.33"/>
<text text-anchor="middle" x="209" y="-262.8" font-family="Times,serif" font-size="14.00"> fail </text>
</g>
<!-- AddressAssigned -->
<g id="node6" class="node">
<title>AddressAssigned</title>
<path fill="azure" stroke="transparent" d="M155.5,-103C155.5,-103 28.5,-103 28.5,-103 22.5,-103 16.5,-97 16.5,-91 16.5,-91 16.5,-28 16.5,-28 16.5,-22 22.5,-16 28.5,-16 28.5,-16 155.5,-16 155.5,-16 161.5,-16 167.5,-22 167.5,-28 167.5,-28 167.5,-91 167.5,-91 167.5,-97 161.5,-103 155.5,-103"/>
<text text-anchor="start" x="25" y="-84.3" font-family="Times,serif" font-weight="bold" font-size="14.00">AddressAssigned</text>
<text text-anchor="start" x="25" y="-59.5" font-family="Times,serif" font-size="10.00">$&gt;()</text>
<text text-anchor="start" x="25" y="-48.5" font-family="Times,serif" font-size="10.00">is_addressed()</text>
<text text-anchor="start" x="25" y="-37.5" font-family="Times,serif" font-size="10.00">state()</text>
<text text-anchor="start" x="38" y="-26.5" font-family="Times,serif" font-size="10.00"> &#160;&#160;&#160;&#160;&#160;&#160;&#160;&#160;&#160;&#160;&#160;&#160;&#160;&#160;&#160;</text>
<polygon fill="#00688b" stroke="#00688b" points="17,-73.5 17,-73.5 168,-73.5 168,-73.5 17,-73.5"/>
<path fill="none" stroke="#00688b" d="M28.5,-16C28.5,-16 155.5,-16 155.5,-16 161.5,-16 167.5,-22 167.5,-28 167.5,-28 167.5,-91 167.5,-91 167.5,-97 161.5,-103 155.5,-103 155.5,-103 28.5,-103 28.5,-103 22.5,-103 16.5,-97 16.5,-91 16.5,-91 16.5,-28 16.5,-28 16.5,-22 22.5,-16 28.5,-16"/>
</g>
<!-- SlotEnabled&#45;&gt;AddressAssigned -->
<g id="edge3" class="edge">
<title>SlotEnabled&#45;&gt;AddressAssigned</title>
<path fill="none" stroke="red" d="M82.39,-153.84C83.72,-140.93 85.2,-126.6 86.58,-113.11"/>
<polygon fill="red" stroke="red" points="90.08,-113.31 87.62,-103.01 83.12,-112.6 90.08,-113.31"/>
<text text-anchor="middle" x="127.5" y="-124.8" font-family="Times,serif" font-size="14.00"> addressed </text>
</g>
</g>
</svg>
